<?xml version="1.0" encoding="UTF-8"?>
<svg id="Layer_1" xmlns="http://www.w3.org/2000/svg" viewBox="0 0 85.039 113.386">
  <defs>
    <style>
      .cls-1 {
        fill: red;
      }
    </style>
  </defs>
  <path class="cls-1" d="M68.031,90H17.008V23.386h51.024v66.614ZM40.1,28.6v-.3c0-1.65-1.35-3-3-3h0c-1.65,0-3,1.35-3,3v.3c0,1.65,1.35,3,3,3h0c1.65,0,3-1.35,3-3ZM50.8,28.6v-.3c0-1.65-1.35-3-3-3h0c-1.65,0-3,1.35-3,3v.3c0,1.65,1.35,3,3,3h0c1.65,0,3-1.35,3-3ZM58,43c-1.105,0-2,.895-2,2s.895,2,2,2,2-.895,2-2-.895-2-2-2ZM58,48c-1.105,0-2,.895-2,2s.895,2,2,2,2-.895,2-2-.895-2-2-2ZM58,53c-1.105,0-2,.895-2,2s.895,2,2,2,2-.895,2-2-.895-2-2-2ZM58,58c-1.105,0-2,.895-2,2s.895,2,2,2,2-.895,2-2-.895-2-2-2ZM58,63c-1.105,0-2,.895-2,2s.895,2,2,2,2-.895,2-2-.895-2-2-2ZM58,68c-1.105,0-2,.895-2,2s.895,2,2,2,2-.895,2-2-.895-2-2-2ZM58,73c-1.105,0-2,.895-2,2s.895,2,2,2,2-.895,2-2-.895-2-2-2ZM58,78c-1.105,0-2,.895-2,2s.895,2,2,2,2-.895,2-2-.895-2-2-2ZM27,43c-1.105,0-2,.895-2,2s.895,2,2,2,2-.895,2-2-.895-2-2-2ZM20.6,26c-1.105,0-2,.895-2,2s.895,2,2,2,2-.895,2-2-.895-2-2-2ZM20.6,83.7c-1.105,0-2,.895-2,2s.895,2,2,2,2-.895,2-2-.895-2-2-2ZM64.6,26c-1.105,0-2,.895-2,2s.895,2,2,2,2-.895,2-2-.895-2-2-2ZM64.6,83.7c-1.105,0-2,.895-2,2s.895,2,2,2,2-.895,2-2-.895-2-2-2ZM27,48c-1.105,0-2,.895-2,2s.895,2,2,2,2-.895,2-2-.895-2-2-2ZM27,53c-1.105,0-2,.895-2,2s.895,2,2,2,2-.895,2-2-.895-2-2-2ZM27,58c-1.105,0-2,.895-2,2s.895,2,2,2,2-.895,2-2-.895-2-2-2ZM34.6,43c-1.105,0-2,.895-2,2s.895,2,2,2,2-.895,2-2-.895-2-2-2ZM34.6,48c-1.105,0-2,.895-2,2s.895,2,2,2,2-.895,2-2-.895-2-2-2ZM34.6,53c-1.105,0-2,.895-2,2s.895,2,2,2,2-.895,2-2-.895-2-2-2ZM34.6,58c-1.105,0-2,.895-2,2s.895,2,2,2,2-.895,2-2-.895-2-2-2ZM27,63c-1.105,0-2,.895-2,2s.895,2,2,2,2-.895,2-2-.895-2-2-2ZM27,68c-1.105,0-2,.895-2,2s.895,2,2,2,2-.895,2-2-.895-2-2-2ZM27,73c-1.105,0-2,.895-2,2s.895,2,2,2,2-.895,2-2-.895-2-2-2ZM27,78c-1.105,0-2,.895-2,2s.895,2,2,2,2-.895,2-2-.895-2-2-2Z"/>
</svg>