%TF.GenerationSoftware,KiCad,Pcbnew,7.0.7*%
%TF.CreationDate,2024-08-10T15:19:47-05:00*%
%TF.ProjectId,LASK5,4c41534b-352e-46b6-9963-61645f706362,rev?*%
%TF.SameCoordinates,Original*%
%TF.FileFunction,Legend,Top*%
%TF.FilePolarity,Positive*%
%FSLAX46Y46*%
G04 Gerber Fmt 4.6, Leading zero omitted, Abs format (unit mm)*
G04 Created by KiCad (PCBNEW 7.0.7) date 2024-08-10 15:19:47*
%MOMM*%
%LPD*%
G01*
G04 APERTURE LIST*
%ADD10C,0.150000*%
%ADD11C,0.100000*%
%ADD12C,0.120000*%
G04 APERTURE END LIST*
D10*
X122797333Y-70319580D02*
X122749714Y-70367200D01*
X122749714Y-70367200D02*
X122606857Y-70414819D01*
X122606857Y-70414819D02*
X122511619Y-70414819D01*
X122511619Y-70414819D02*
X122368762Y-70367200D01*
X122368762Y-70367200D02*
X122273524Y-70271961D01*
X122273524Y-70271961D02*
X122225905Y-70176723D01*
X122225905Y-70176723D02*
X122178286Y-69986247D01*
X122178286Y-69986247D02*
X122178286Y-69843390D01*
X122178286Y-69843390D02*
X122225905Y-69652914D01*
X122225905Y-69652914D02*
X122273524Y-69557676D01*
X122273524Y-69557676D02*
X122368762Y-69462438D01*
X122368762Y-69462438D02*
X122511619Y-69414819D01*
X122511619Y-69414819D02*
X122606857Y-69414819D01*
X122606857Y-69414819D02*
X122749714Y-69462438D01*
X122749714Y-69462438D02*
X122797333Y-69510057D01*
X123178286Y-69510057D02*
X123225905Y-69462438D01*
X123225905Y-69462438D02*
X123321143Y-69414819D01*
X123321143Y-69414819D02*
X123559238Y-69414819D01*
X123559238Y-69414819D02*
X123654476Y-69462438D01*
X123654476Y-69462438D02*
X123702095Y-69510057D01*
X123702095Y-69510057D02*
X123749714Y-69605295D01*
X123749714Y-69605295D02*
X123749714Y-69700533D01*
X123749714Y-69700533D02*
X123702095Y-69843390D01*
X123702095Y-69843390D02*
X123130667Y-70414819D01*
X123130667Y-70414819D02*
X123749714Y-70414819D01*
X155789333Y-93179580D02*
X155741714Y-93227200D01*
X155741714Y-93227200D02*
X155598857Y-93274819D01*
X155598857Y-93274819D02*
X155503619Y-93274819D01*
X155503619Y-93274819D02*
X155360762Y-93227200D01*
X155360762Y-93227200D02*
X155265524Y-93131961D01*
X155265524Y-93131961D02*
X155217905Y-93036723D01*
X155217905Y-93036723D02*
X155170286Y-92846247D01*
X155170286Y-92846247D02*
X155170286Y-92703390D01*
X155170286Y-92703390D02*
X155217905Y-92512914D01*
X155217905Y-92512914D02*
X155265524Y-92417676D01*
X155265524Y-92417676D02*
X155360762Y-92322438D01*
X155360762Y-92322438D02*
X155503619Y-92274819D01*
X155503619Y-92274819D02*
X155598857Y-92274819D01*
X155598857Y-92274819D02*
X155741714Y-92322438D01*
X155741714Y-92322438D02*
X155789333Y-92370057D01*
X156646476Y-92274819D02*
X156456000Y-92274819D01*
X156456000Y-92274819D02*
X156360762Y-92322438D01*
X156360762Y-92322438D02*
X156313143Y-92370057D01*
X156313143Y-92370057D02*
X156217905Y-92512914D01*
X156217905Y-92512914D02*
X156170286Y-92703390D01*
X156170286Y-92703390D02*
X156170286Y-93084342D01*
X156170286Y-93084342D02*
X156217905Y-93179580D01*
X156217905Y-93179580D02*
X156265524Y-93227200D01*
X156265524Y-93227200D02*
X156360762Y-93274819D01*
X156360762Y-93274819D02*
X156551238Y-93274819D01*
X156551238Y-93274819D02*
X156646476Y-93227200D01*
X156646476Y-93227200D02*
X156694095Y-93179580D01*
X156694095Y-93179580D02*
X156741714Y-93084342D01*
X156741714Y-93084342D02*
X156741714Y-92846247D01*
X156741714Y-92846247D02*
X156694095Y-92751009D01*
X156694095Y-92751009D02*
X156646476Y-92703390D01*
X156646476Y-92703390D02*
X156551238Y-92655771D01*
X156551238Y-92655771D02*
X156360762Y-92655771D01*
X156360762Y-92655771D02*
X156265524Y-92703390D01*
X156265524Y-92703390D02*
X156217905Y-92751009D01*
X156217905Y-92751009D02*
X156170286Y-92846247D01*
X167507595Y-69632819D02*
X167507595Y-70442342D01*
X167507595Y-70442342D02*
X167555214Y-70537580D01*
X167555214Y-70537580D02*
X167602833Y-70585200D01*
X167602833Y-70585200D02*
X167698071Y-70632819D01*
X167698071Y-70632819D02*
X167888547Y-70632819D01*
X167888547Y-70632819D02*
X167983785Y-70585200D01*
X167983785Y-70585200D02*
X168031404Y-70537580D01*
X168031404Y-70537580D02*
X168079023Y-70442342D01*
X168079023Y-70442342D02*
X168079023Y-69632819D01*
X168507595Y-69728057D02*
X168555214Y-69680438D01*
X168555214Y-69680438D02*
X168650452Y-69632819D01*
X168650452Y-69632819D02*
X168888547Y-69632819D01*
X168888547Y-69632819D02*
X168983785Y-69680438D01*
X168983785Y-69680438D02*
X169031404Y-69728057D01*
X169031404Y-69728057D02*
X169079023Y-69823295D01*
X169079023Y-69823295D02*
X169079023Y-69918533D01*
X169079023Y-69918533D02*
X169031404Y-70061390D01*
X169031404Y-70061390D02*
X168459976Y-70632819D01*
X168459976Y-70632819D02*
X169079023Y-70632819D01*
X138126819Y-68929504D02*
X137126819Y-68929504D01*
X137603009Y-68929504D02*
X137603009Y-68358076D01*
X138126819Y-68358076D02*
X137126819Y-68358076D01*
X137222057Y-67929504D02*
X137174438Y-67881885D01*
X137174438Y-67881885D02*
X137126819Y-67786647D01*
X137126819Y-67786647D02*
X137126819Y-67548552D01*
X137126819Y-67548552D02*
X137174438Y-67453314D01*
X137174438Y-67453314D02*
X137222057Y-67405695D01*
X137222057Y-67405695D02*
X137317295Y-67358076D01*
X137317295Y-67358076D02*
X137412533Y-67358076D01*
X137412533Y-67358076D02*
X137555390Y-67405695D01*
X137555390Y-67405695D02*
X138126819Y-67977123D01*
X138126819Y-67977123D02*
X138126819Y-67358076D01*
X159657095Y-99978419D02*
X159657095Y-98978419D01*
X159657095Y-99454609D02*
X160228523Y-99454609D01*
X160228523Y-99978419D02*
X160228523Y-98978419D01*
X161133285Y-98978419D02*
X160942809Y-98978419D01*
X160942809Y-98978419D02*
X160847571Y-99026038D01*
X160847571Y-99026038D02*
X160799952Y-99073657D01*
X160799952Y-99073657D02*
X160704714Y-99216514D01*
X160704714Y-99216514D02*
X160657095Y-99406990D01*
X160657095Y-99406990D02*
X160657095Y-99787942D01*
X160657095Y-99787942D02*
X160704714Y-99883180D01*
X160704714Y-99883180D02*
X160752333Y-99930800D01*
X160752333Y-99930800D02*
X160847571Y-99978419D01*
X160847571Y-99978419D02*
X161038047Y-99978419D01*
X161038047Y-99978419D02*
X161133285Y-99930800D01*
X161133285Y-99930800D02*
X161180904Y-99883180D01*
X161180904Y-99883180D02*
X161228523Y-99787942D01*
X161228523Y-99787942D02*
X161228523Y-99549847D01*
X161228523Y-99549847D02*
X161180904Y-99454609D01*
X161180904Y-99454609D02*
X161133285Y-99406990D01*
X161133285Y-99406990D02*
X161038047Y-99359371D01*
X161038047Y-99359371D02*
X160847571Y-99359371D01*
X160847571Y-99359371D02*
X160752333Y-99406990D01*
X160752333Y-99406990D02*
X160704714Y-99454609D01*
X160704714Y-99454609D02*
X160657095Y-99549847D01*
X126158666Y-70276819D02*
X126158666Y-70991104D01*
X126158666Y-70991104D02*
X126111047Y-71133961D01*
X126111047Y-71133961D02*
X126015809Y-71229200D01*
X126015809Y-71229200D02*
X125872952Y-71276819D01*
X125872952Y-71276819D02*
X125777714Y-71276819D01*
X126539619Y-70276819D02*
X127158666Y-70276819D01*
X127158666Y-70276819D02*
X126825333Y-70657771D01*
X126825333Y-70657771D02*
X126968190Y-70657771D01*
X126968190Y-70657771D02*
X127063428Y-70705390D01*
X127063428Y-70705390D02*
X127111047Y-70753009D01*
X127111047Y-70753009D02*
X127158666Y-70848247D01*
X127158666Y-70848247D02*
X127158666Y-71086342D01*
X127158666Y-71086342D02*
X127111047Y-71181580D01*
X127111047Y-71181580D02*
X127063428Y-71229200D01*
X127063428Y-71229200D02*
X126968190Y-71276819D01*
X126968190Y-71276819D02*
X126682476Y-71276819D01*
X126682476Y-71276819D02*
X126587238Y-71229200D01*
X126587238Y-71229200D02*
X126539619Y-71181580D01*
X148197333Y-93179580D02*
X148149714Y-93227200D01*
X148149714Y-93227200D02*
X148006857Y-93274819D01*
X148006857Y-93274819D02*
X147911619Y-93274819D01*
X147911619Y-93274819D02*
X147768762Y-93227200D01*
X147768762Y-93227200D02*
X147673524Y-93131961D01*
X147673524Y-93131961D02*
X147625905Y-93036723D01*
X147625905Y-93036723D02*
X147578286Y-92846247D01*
X147578286Y-92846247D02*
X147578286Y-92703390D01*
X147578286Y-92703390D02*
X147625905Y-92512914D01*
X147625905Y-92512914D02*
X147673524Y-92417676D01*
X147673524Y-92417676D02*
X147768762Y-92322438D01*
X147768762Y-92322438D02*
X147911619Y-92274819D01*
X147911619Y-92274819D02*
X148006857Y-92274819D01*
X148006857Y-92274819D02*
X148149714Y-92322438D01*
X148149714Y-92322438D02*
X148197333Y-92370057D01*
X149102095Y-92274819D02*
X148625905Y-92274819D01*
X148625905Y-92274819D02*
X148578286Y-92751009D01*
X148578286Y-92751009D02*
X148625905Y-92703390D01*
X148625905Y-92703390D02*
X148721143Y-92655771D01*
X148721143Y-92655771D02*
X148959238Y-92655771D01*
X148959238Y-92655771D02*
X149054476Y-92703390D01*
X149054476Y-92703390D02*
X149102095Y-92751009D01*
X149102095Y-92751009D02*
X149149714Y-92846247D01*
X149149714Y-92846247D02*
X149149714Y-93084342D01*
X149149714Y-93084342D02*
X149102095Y-93179580D01*
X149102095Y-93179580D02*
X149054476Y-93227200D01*
X149054476Y-93227200D02*
X148959238Y-93274819D01*
X148959238Y-93274819D02*
X148721143Y-93274819D01*
X148721143Y-93274819D02*
X148625905Y-93227200D01*
X148625905Y-93227200D02*
X148578286Y-93179580D01*
X139561333Y-70827580D02*
X139513714Y-70875200D01*
X139513714Y-70875200D02*
X139370857Y-70922819D01*
X139370857Y-70922819D02*
X139275619Y-70922819D01*
X139275619Y-70922819D02*
X139132762Y-70875200D01*
X139132762Y-70875200D02*
X139037524Y-70779961D01*
X139037524Y-70779961D02*
X138989905Y-70684723D01*
X138989905Y-70684723D02*
X138942286Y-70494247D01*
X138942286Y-70494247D02*
X138942286Y-70351390D01*
X138942286Y-70351390D02*
X138989905Y-70160914D01*
X138989905Y-70160914D02*
X139037524Y-70065676D01*
X139037524Y-70065676D02*
X139132762Y-69970438D01*
X139132762Y-69970438D02*
X139275619Y-69922819D01*
X139275619Y-69922819D02*
X139370857Y-69922819D01*
X139370857Y-69922819D02*
X139513714Y-69970438D01*
X139513714Y-69970438D02*
X139561333Y-70018057D01*
X140418476Y-70256152D02*
X140418476Y-70922819D01*
X140180381Y-69875200D02*
X139942286Y-70589485D01*
X139942286Y-70589485D02*
X140561333Y-70589485D01*
D11*
X151130095Y-58893419D02*
X151130095Y-59702942D01*
X151130095Y-59702942D02*
X151177714Y-59798180D01*
X151177714Y-59798180D02*
X151225333Y-59845800D01*
X151225333Y-59845800D02*
X151320571Y-59893419D01*
X151320571Y-59893419D02*
X151511047Y-59893419D01*
X151511047Y-59893419D02*
X151606285Y-59845800D01*
X151606285Y-59845800D02*
X151653904Y-59798180D01*
X151653904Y-59798180D02*
X151701523Y-59702942D01*
X151701523Y-59702942D02*
X151701523Y-58893419D01*
X152082476Y-58893419D02*
X152701523Y-58893419D01*
X152701523Y-58893419D02*
X152368190Y-59274371D01*
X152368190Y-59274371D02*
X152511047Y-59274371D01*
X152511047Y-59274371D02*
X152606285Y-59321990D01*
X152606285Y-59321990D02*
X152653904Y-59369609D01*
X152653904Y-59369609D02*
X152701523Y-59464847D01*
X152701523Y-59464847D02*
X152701523Y-59702942D01*
X152701523Y-59702942D02*
X152653904Y-59798180D01*
X152653904Y-59798180D02*
X152606285Y-59845800D01*
X152606285Y-59845800D02*
X152511047Y-59893419D01*
X152511047Y-59893419D02*
X152225333Y-59893419D01*
X152225333Y-59893419D02*
X152130095Y-59845800D01*
X152130095Y-59845800D02*
X152082476Y-59798180D01*
D10*
X164108333Y-75224819D02*
X163775000Y-74748628D01*
X163536905Y-75224819D02*
X163536905Y-74224819D01*
X163536905Y-74224819D02*
X163917857Y-74224819D01*
X163917857Y-74224819D02*
X164013095Y-74272438D01*
X164013095Y-74272438D02*
X164060714Y-74320057D01*
X164060714Y-74320057D02*
X164108333Y-74415295D01*
X164108333Y-74415295D02*
X164108333Y-74558152D01*
X164108333Y-74558152D02*
X164060714Y-74653390D01*
X164060714Y-74653390D02*
X164013095Y-74701009D01*
X164013095Y-74701009D02*
X163917857Y-74748628D01*
X163917857Y-74748628D02*
X163536905Y-74748628D01*
X164965476Y-74558152D02*
X164965476Y-75224819D01*
X164727381Y-74177200D02*
X164489286Y-74891485D01*
X164489286Y-74891485D02*
X165108333Y-74891485D01*
X185789333Y-70827580D02*
X185741714Y-70875200D01*
X185741714Y-70875200D02*
X185598857Y-70922819D01*
X185598857Y-70922819D02*
X185503619Y-70922819D01*
X185503619Y-70922819D02*
X185360762Y-70875200D01*
X185360762Y-70875200D02*
X185265524Y-70779961D01*
X185265524Y-70779961D02*
X185217905Y-70684723D01*
X185217905Y-70684723D02*
X185170286Y-70494247D01*
X185170286Y-70494247D02*
X185170286Y-70351390D01*
X185170286Y-70351390D02*
X185217905Y-70160914D01*
X185217905Y-70160914D02*
X185265524Y-70065676D01*
X185265524Y-70065676D02*
X185360762Y-69970438D01*
X185360762Y-69970438D02*
X185503619Y-69922819D01*
X185503619Y-69922819D02*
X185598857Y-69922819D01*
X185598857Y-69922819D02*
X185741714Y-69970438D01*
X185741714Y-69970438D02*
X185789333Y-70018057D01*
X186122667Y-69922819D02*
X186741714Y-69922819D01*
X186741714Y-69922819D02*
X186408381Y-70303771D01*
X186408381Y-70303771D02*
X186551238Y-70303771D01*
X186551238Y-70303771D02*
X186646476Y-70351390D01*
X186646476Y-70351390D02*
X186694095Y-70399009D01*
X186694095Y-70399009D02*
X186741714Y-70494247D01*
X186741714Y-70494247D02*
X186741714Y-70732342D01*
X186741714Y-70732342D02*
X186694095Y-70827580D01*
X186694095Y-70827580D02*
X186646476Y-70875200D01*
X186646476Y-70875200D02*
X186551238Y-70922819D01*
X186551238Y-70922819D02*
X186265524Y-70922819D01*
X186265524Y-70922819D02*
X186170286Y-70875200D01*
X186170286Y-70875200D02*
X186122667Y-70827580D01*
X171537333Y-78177580D02*
X171489714Y-78225200D01*
X171489714Y-78225200D02*
X171346857Y-78272819D01*
X171346857Y-78272819D02*
X171251619Y-78272819D01*
X171251619Y-78272819D02*
X171108762Y-78225200D01*
X171108762Y-78225200D02*
X171013524Y-78129961D01*
X171013524Y-78129961D02*
X170965905Y-78034723D01*
X170965905Y-78034723D02*
X170918286Y-77844247D01*
X170918286Y-77844247D02*
X170918286Y-77701390D01*
X170918286Y-77701390D02*
X170965905Y-77510914D01*
X170965905Y-77510914D02*
X171013524Y-77415676D01*
X171013524Y-77415676D02*
X171108762Y-77320438D01*
X171108762Y-77320438D02*
X171251619Y-77272819D01*
X171251619Y-77272819D02*
X171346857Y-77272819D01*
X171346857Y-77272819D02*
X171489714Y-77320438D01*
X171489714Y-77320438D02*
X171537333Y-77368057D01*
X172108762Y-77701390D02*
X172013524Y-77653771D01*
X172013524Y-77653771D02*
X171965905Y-77606152D01*
X171965905Y-77606152D02*
X171918286Y-77510914D01*
X171918286Y-77510914D02*
X171918286Y-77463295D01*
X171918286Y-77463295D02*
X171965905Y-77368057D01*
X171965905Y-77368057D02*
X172013524Y-77320438D01*
X172013524Y-77320438D02*
X172108762Y-77272819D01*
X172108762Y-77272819D02*
X172299238Y-77272819D01*
X172299238Y-77272819D02*
X172394476Y-77320438D01*
X172394476Y-77320438D02*
X172442095Y-77368057D01*
X172442095Y-77368057D02*
X172489714Y-77463295D01*
X172489714Y-77463295D02*
X172489714Y-77510914D01*
X172489714Y-77510914D02*
X172442095Y-77606152D01*
X172442095Y-77606152D02*
X172394476Y-77653771D01*
X172394476Y-77653771D02*
X172299238Y-77701390D01*
X172299238Y-77701390D02*
X172108762Y-77701390D01*
X172108762Y-77701390D02*
X172013524Y-77749009D01*
X172013524Y-77749009D02*
X171965905Y-77796628D01*
X171965905Y-77796628D02*
X171918286Y-77891866D01*
X171918286Y-77891866D02*
X171918286Y-78082342D01*
X171918286Y-78082342D02*
X171965905Y-78177580D01*
X171965905Y-78177580D02*
X172013524Y-78225200D01*
X172013524Y-78225200D02*
X172108762Y-78272819D01*
X172108762Y-78272819D02*
X172299238Y-78272819D01*
X172299238Y-78272819D02*
X172394476Y-78225200D01*
X172394476Y-78225200D02*
X172442095Y-78177580D01*
X172442095Y-78177580D02*
X172489714Y-78082342D01*
X172489714Y-78082342D02*
X172489714Y-77891866D01*
X172489714Y-77891866D02*
X172442095Y-77796628D01*
X172442095Y-77796628D02*
X172394476Y-77749009D01*
X172394476Y-77749009D02*
X172299238Y-77701390D01*
X171029333Y-75129580D02*
X170981714Y-75177200D01*
X170981714Y-75177200D02*
X170838857Y-75224819D01*
X170838857Y-75224819D02*
X170743619Y-75224819D01*
X170743619Y-75224819D02*
X170600762Y-75177200D01*
X170600762Y-75177200D02*
X170505524Y-75081961D01*
X170505524Y-75081961D02*
X170457905Y-74986723D01*
X170457905Y-74986723D02*
X170410286Y-74796247D01*
X170410286Y-74796247D02*
X170410286Y-74653390D01*
X170410286Y-74653390D02*
X170457905Y-74462914D01*
X170457905Y-74462914D02*
X170505524Y-74367676D01*
X170505524Y-74367676D02*
X170600762Y-74272438D01*
X170600762Y-74272438D02*
X170743619Y-74224819D01*
X170743619Y-74224819D02*
X170838857Y-74224819D01*
X170838857Y-74224819D02*
X170981714Y-74272438D01*
X170981714Y-74272438D02*
X171029333Y-74320057D01*
X171505524Y-75224819D02*
X171696000Y-75224819D01*
X171696000Y-75224819D02*
X171791238Y-75177200D01*
X171791238Y-75177200D02*
X171838857Y-75129580D01*
X171838857Y-75129580D02*
X171934095Y-74986723D01*
X171934095Y-74986723D02*
X171981714Y-74796247D01*
X171981714Y-74796247D02*
X171981714Y-74415295D01*
X171981714Y-74415295D02*
X171934095Y-74320057D01*
X171934095Y-74320057D02*
X171886476Y-74272438D01*
X171886476Y-74272438D02*
X171791238Y-74224819D01*
X171791238Y-74224819D02*
X171600762Y-74224819D01*
X171600762Y-74224819D02*
X171505524Y-74272438D01*
X171505524Y-74272438D02*
X171457905Y-74320057D01*
X171457905Y-74320057D02*
X171410286Y-74415295D01*
X171410286Y-74415295D02*
X171410286Y-74653390D01*
X171410286Y-74653390D02*
X171457905Y-74748628D01*
X171457905Y-74748628D02*
X171505524Y-74796247D01*
X171505524Y-74796247D02*
X171600762Y-74843866D01*
X171600762Y-74843866D02*
X171791238Y-74843866D01*
X171791238Y-74843866D02*
X171886476Y-74796247D01*
X171886476Y-74796247D02*
X171934095Y-74748628D01*
X171934095Y-74748628D02*
X171981714Y-74653390D01*
D11*
X159864200Y-96202667D02*
X159816580Y-96345524D01*
X159816580Y-96345524D02*
X159816580Y-96583619D01*
X159816580Y-96583619D02*
X159864200Y-96678857D01*
X159864200Y-96678857D02*
X159911819Y-96726476D01*
X159911819Y-96726476D02*
X160007057Y-96774095D01*
X160007057Y-96774095D02*
X160102295Y-96774095D01*
X160102295Y-96774095D02*
X160197533Y-96726476D01*
X160197533Y-96726476D02*
X160245152Y-96678857D01*
X160245152Y-96678857D02*
X160292771Y-96583619D01*
X160292771Y-96583619D02*
X160340390Y-96393143D01*
X160340390Y-96393143D02*
X160388009Y-96297905D01*
X160388009Y-96297905D02*
X160435628Y-96250286D01*
X160435628Y-96250286D02*
X160530866Y-96202667D01*
X160530866Y-96202667D02*
X160626104Y-96202667D01*
X160626104Y-96202667D02*
X160721342Y-96250286D01*
X160721342Y-96250286D02*
X160768961Y-96297905D01*
X160768961Y-96297905D02*
X160816580Y-96393143D01*
X160816580Y-96393143D02*
X160816580Y-96631238D01*
X160816580Y-96631238D02*
X160768961Y-96774095D01*
X160816580Y-97107429D02*
X159816580Y-97345524D01*
X159816580Y-97345524D02*
X160530866Y-97536000D01*
X160530866Y-97536000D02*
X159816580Y-97726476D01*
X159816580Y-97726476D02*
X160816580Y-97964572D01*
X159816580Y-98869333D02*
X159816580Y-98297905D01*
X159816580Y-98583619D02*
X160816580Y-98583619D01*
X160816580Y-98583619D02*
X160673723Y-98488381D01*
X160673723Y-98488381D02*
X160578485Y-98393143D01*
X160578485Y-98393143D02*
X160530866Y-98297905D01*
D10*
X179147819Y-68929504D02*
X178147819Y-68929504D01*
X178624009Y-68929504D02*
X178624009Y-68358076D01*
X179147819Y-68358076D02*
X178147819Y-68358076D01*
X178481152Y-67453314D02*
X179147819Y-67453314D01*
X178100200Y-67691409D02*
X178814485Y-67929504D01*
X178814485Y-67929504D02*
X178814485Y-67310457D01*
X176300333Y-69636819D02*
X175967000Y-69160628D01*
X175728905Y-69636819D02*
X175728905Y-68636819D01*
X175728905Y-68636819D02*
X176109857Y-68636819D01*
X176109857Y-68636819D02*
X176205095Y-68684438D01*
X176205095Y-68684438D02*
X176252714Y-68732057D01*
X176252714Y-68732057D02*
X176300333Y-68827295D01*
X176300333Y-68827295D02*
X176300333Y-68970152D01*
X176300333Y-68970152D02*
X176252714Y-69065390D01*
X176252714Y-69065390D02*
X176205095Y-69113009D01*
X176205095Y-69113009D02*
X176109857Y-69160628D01*
X176109857Y-69160628D02*
X175728905Y-69160628D01*
X177252714Y-69636819D02*
X176681286Y-69636819D01*
X176967000Y-69636819D02*
X176967000Y-68636819D01*
X176967000Y-68636819D02*
X176871762Y-68779676D01*
X176871762Y-68779676D02*
X176776524Y-68874914D01*
X176776524Y-68874914D02*
X176681286Y-68922533D01*
X171552405Y-68400819D02*
X171552405Y-67400819D01*
X171552405Y-67400819D02*
X171790500Y-67400819D01*
X171790500Y-67400819D02*
X171933357Y-67448438D01*
X171933357Y-67448438D02*
X172028595Y-67543676D01*
X172028595Y-67543676D02*
X172076214Y-67638914D01*
X172076214Y-67638914D02*
X172123833Y-67829390D01*
X172123833Y-67829390D02*
X172123833Y-67972247D01*
X172123833Y-67972247D02*
X172076214Y-68162723D01*
X172076214Y-68162723D02*
X172028595Y-68257961D01*
X172028595Y-68257961D02*
X171933357Y-68353200D01*
X171933357Y-68353200D02*
X171790500Y-68400819D01*
X171790500Y-68400819D02*
X171552405Y-68400819D01*
X173076214Y-68400819D02*
X172504786Y-68400819D01*
X172790500Y-68400819D02*
X172790500Y-67400819D01*
X172790500Y-67400819D02*
X172695262Y-67543676D01*
X172695262Y-67543676D02*
X172600024Y-67638914D01*
X172600024Y-67638914D02*
X172504786Y-67686533D01*
X171744819Y-73001666D02*
X171268628Y-73334999D01*
X171744819Y-73573094D02*
X170744819Y-73573094D01*
X170744819Y-73573094D02*
X170744819Y-73192142D01*
X170744819Y-73192142D02*
X170792438Y-73096904D01*
X170792438Y-73096904D02*
X170840057Y-73049285D01*
X170840057Y-73049285D02*
X170935295Y-73001666D01*
X170935295Y-73001666D02*
X171078152Y-73001666D01*
X171078152Y-73001666D02*
X171173390Y-73049285D01*
X171173390Y-73049285D02*
X171221009Y-73096904D01*
X171221009Y-73096904D02*
X171268628Y-73192142D01*
X171268628Y-73192142D02*
X171268628Y-73573094D01*
X170840057Y-72620713D02*
X170792438Y-72573094D01*
X170792438Y-72573094D02*
X170744819Y-72477856D01*
X170744819Y-72477856D02*
X170744819Y-72239761D01*
X170744819Y-72239761D02*
X170792438Y-72144523D01*
X170792438Y-72144523D02*
X170840057Y-72096904D01*
X170840057Y-72096904D02*
X170935295Y-72049285D01*
X170935295Y-72049285D02*
X171030533Y-72049285D01*
X171030533Y-72049285D02*
X171173390Y-72096904D01*
X171173390Y-72096904D02*
X171744819Y-72668332D01*
X171744819Y-72668332D02*
X171744819Y-72049285D01*
X130222666Y-70784819D02*
X130222666Y-71499104D01*
X130222666Y-71499104D02*
X130175047Y-71641961D01*
X130175047Y-71641961D02*
X130079809Y-71737200D01*
X130079809Y-71737200D02*
X129936952Y-71784819D01*
X129936952Y-71784819D02*
X129841714Y-71784819D01*
X131127428Y-71118152D02*
X131127428Y-71784819D01*
X130889333Y-70737200D02*
X130651238Y-71451485D01*
X130651238Y-71451485D02*
X131270285Y-71451485D01*
X165949333Y-77670819D02*
X165616000Y-77194628D01*
X165377905Y-77670819D02*
X165377905Y-76670819D01*
X165377905Y-76670819D02*
X165758857Y-76670819D01*
X165758857Y-76670819D02*
X165854095Y-76718438D01*
X165854095Y-76718438D02*
X165901714Y-76766057D01*
X165901714Y-76766057D02*
X165949333Y-76861295D01*
X165949333Y-76861295D02*
X165949333Y-77004152D01*
X165949333Y-77004152D02*
X165901714Y-77099390D01*
X165901714Y-77099390D02*
X165854095Y-77147009D01*
X165854095Y-77147009D02*
X165758857Y-77194628D01*
X165758857Y-77194628D02*
X165377905Y-77194628D01*
X166282667Y-76670819D02*
X166901714Y-76670819D01*
X166901714Y-76670819D02*
X166568381Y-77051771D01*
X166568381Y-77051771D02*
X166711238Y-77051771D01*
X166711238Y-77051771D02*
X166806476Y-77099390D01*
X166806476Y-77099390D02*
X166854095Y-77147009D01*
X166854095Y-77147009D02*
X166901714Y-77242247D01*
X166901714Y-77242247D02*
X166901714Y-77480342D01*
X166901714Y-77480342D02*
X166854095Y-77575580D01*
X166854095Y-77575580D02*
X166806476Y-77623200D01*
X166806476Y-77623200D02*
X166711238Y-77670819D01*
X166711238Y-77670819D02*
X166425524Y-77670819D01*
X166425524Y-77670819D02*
X166330286Y-77623200D01*
X166330286Y-77623200D02*
X166282667Y-77575580D01*
X164453333Y-71843580D02*
X164405714Y-71891200D01*
X164405714Y-71891200D02*
X164262857Y-71938819D01*
X164262857Y-71938819D02*
X164167619Y-71938819D01*
X164167619Y-71938819D02*
X164024762Y-71891200D01*
X164024762Y-71891200D02*
X163929524Y-71795961D01*
X163929524Y-71795961D02*
X163881905Y-71700723D01*
X163881905Y-71700723D02*
X163834286Y-71510247D01*
X163834286Y-71510247D02*
X163834286Y-71367390D01*
X163834286Y-71367390D02*
X163881905Y-71176914D01*
X163881905Y-71176914D02*
X163929524Y-71081676D01*
X163929524Y-71081676D02*
X164024762Y-70986438D01*
X164024762Y-70986438D02*
X164167619Y-70938819D01*
X164167619Y-70938819D02*
X164262857Y-70938819D01*
X164262857Y-70938819D02*
X164405714Y-70986438D01*
X164405714Y-70986438D02*
X164453333Y-71034057D01*
X165405714Y-71938819D02*
X164834286Y-71938819D01*
X165120000Y-71938819D02*
X165120000Y-70938819D01*
X165120000Y-70938819D02*
X165024762Y-71081676D01*
X165024762Y-71081676D02*
X164929524Y-71176914D01*
X164929524Y-71176914D02*
X164834286Y-71224533D01*
X143157095Y-99978419D02*
X143157095Y-98978419D01*
X143157095Y-99454609D02*
X143728523Y-99454609D01*
X143728523Y-99978419D02*
X143728523Y-98978419D01*
X144680904Y-98978419D02*
X144204714Y-98978419D01*
X144204714Y-98978419D02*
X144157095Y-99454609D01*
X144157095Y-99454609D02*
X144204714Y-99406990D01*
X144204714Y-99406990D02*
X144299952Y-99359371D01*
X144299952Y-99359371D02*
X144538047Y-99359371D01*
X144538047Y-99359371D02*
X144633285Y-99406990D01*
X144633285Y-99406990D02*
X144680904Y-99454609D01*
X144680904Y-99454609D02*
X144728523Y-99549847D01*
X144728523Y-99549847D02*
X144728523Y-99787942D01*
X144728523Y-99787942D02*
X144680904Y-99883180D01*
X144680904Y-99883180D02*
X144633285Y-99930800D01*
X144633285Y-99930800D02*
X144538047Y-99978419D01*
X144538047Y-99978419D02*
X144299952Y-99978419D01*
X144299952Y-99978419D02*
X144204714Y-99930800D01*
X144204714Y-99930800D02*
X144157095Y-99883180D01*
X117679819Y-69160504D02*
X116679819Y-69160504D01*
X117156009Y-69160504D02*
X117156009Y-68589076D01*
X117679819Y-68589076D02*
X116679819Y-68589076D01*
X117679819Y-67589076D02*
X117679819Y-68160504D01*
X117679819Y-67874790D02*
X116679819Y-67874790D01*
X116679819Y-67874790D02*
X116822676Y-67970028D01*
X116822676Y-67970028D02*
X116917914Y-68065266D01*
X116917914Y-68065266D02*
X116965533Y-68160504D01*
X158700819Y-68929504D02*
X157700819Y-68929504D01*
X158177009Y-68929504D02*
X158177009Y-68358076D01*
X158700819Y-68358076D02*
X157700819Y-68358076D01*
X157700819Y-67977123D02*
X157700819Y-67358076D01*
X157700819Y-67358076D02*
X158081771Y-67691409D01*
X158081771Y-67691409D02*
X158081771Y-67548552D01*
X158081771Y-67548552D02*
X158129390Y-67453314D01*
X158129390Y-67453314D02*
X158177009Y-67405695D01*
X158177009Y-67405695D02*
X158272247Y-67358076D01*
X158272247Y-67358076D02*
X158510342Y-67358076D01*
X158510342Y-67358076D02*
X158605580Y-67405695D01*
X158605580Y-67405695D02*
X158653200Y-67453314D01*
X158653200Y-67453314D02*
X158700819Y-67548552D01*
X158700819Y-67548552D02*
X158700819Y-67834266D01*
X158700819Y-67834266D02*
X158653200Y-67929504D01*
X158653200Y-67929504D02*
X158605580Y-67977123D01*
X171270333Y-80717580D02*
X171222714Y-80765200D01*
X171222714Y-80765200D02*
X171079857Y-80812819D01*
X171079857Y-80812819D02*
X170984619Y-80812819D01*
X170984619Y-80812819D02*
X170841762Y-80765200D01*
X170841762Y-80765200D02*
X170746524Y-80669961D01*
X170746524Y-80669961D02*
X170698905Y-80574723D01*
X170698905Y-80574723D02*
X170651286Y-80384247D01*
X170651286Y-80384247D02*
X170651286Y-80241390D01*
X170651286Y-80241390D02*
X170698905Y-80050914D01*
X170698905Y-80050914D02*
X170746524Y-79955676D01*
X170746524Y-79955676D02*
X170841762Y-79860438D01*
X170841762Y-79860438D02*
X170984619Y-79812819D01*
X170984619Y-79812819D02*
X171079857Y-79812819D01*
X171079857Y-79812819D02*
X171222714Y-79860438D01*
X171222714Y-79860438D02*
X171270333Y-79908057D01*
X171603667Y-79812819D02*
X172270333Y-79812819D01*
X172270333Y-79812819D02*
X171841762Y-80812819D01*
X134286666Y-70276819D02*
X134286666Y-70991104D01*
X134286666Y-70991104D02*
X134239047Y-71133961D01*
X134239047Y-71133961D02*
X134143809Y-71229200D01*
X134143809Y-71229200D02*
X134000952Y-71276819D01*
X134000952Y-71276819D02*
X133905714Y-71276819D01*
X135286666Y-71276819D02*
X134715238Y-71276819D01*
X135000952Y-71276819D02*
X135000952Y-70276819D01*
X135000952Y-70276819D02*
X134905714Y-70419676D01*
X134905714Y-70419676D02*
X134810476Y-70514914D01*
X134810476Y-70514914D02*
X134715238Y-70562533D01*
D12*
%TO.C,C2*%
X122856164Y-70760000D02*
X123071836Y-70760000D01*
X122856164Y-71480000D02*
X123071836Y-71480000D01*
%TO.C,U1*%
X168616000Y-82394000D02*
X167476000Y-82394000D01*
X167476000Y-82624000D02*
X167476000Y-82394000D01*
X167476000Y-82624000D02*
X164756000Y-82624000D01*
X167476000Y-77904000D02*
X167476000Y-78134000D01*
X164756000Y-82624000D02*
X164756000Y-81314000D01*
X164756000Y-79214000D02*
X164756000Y-77904000D01*
X164756000Y-77904000D02*
X167476000Y-77904000D01*
%TO.C,C6*%
X155848164Y-93620000D02*
X156063836Y-93620000D01*
X155848164Y-94340000D02*
X156063836Y-94340000D01*
%TO.C,U2*%
X168269500Y-71018000D02*
X166469500Y-71018000D01*
X168269500Y-71018000D02*
X169069500Y-71018000D01*
X168269500Y-74138000D02*
X167469500Y-74138000D01*
X168269500Y-74138000D02*
X169069500Y-74138000D01*
%TO.C,H2*%
X138672000Y-69227600D02*
X138672000Y-68167600D01*
X139732000Y-69227600D02*
X138672000Y-69227600D01*
X140732000Y-69227600D02*
X144792000Y-69227600D01*
X140732000Y-69227600D02*
X140732000Y-67107600D01*
X144792000Y-69227600D02*
X144792000Y-67107600D01*
X140732000Y-67107600D02*
X144792000Y-67107600D01*
%TO.C,H6*%
X161479000Y-98523600D02*
X160419000Y-98523600D01*
X161479000Y-97463600D02*
X161479000Y-98523600D01*
X161479000Y-96463600D02*
X161479000Y-92403600D01*
X161479000Y-96463600D02*
X159359000Y-96463600D01*
X161479000Y-92403600D02*
X159359000Y-92403600D01*
X159359000Y-96463600D02*
X159359000Y-92403600D01*
%TO.C,SW2*%
X175114000Y-77700000D02*
X175114000Y-79200000D01*
X176364000Y-81700000D02*
X180864000Y-81700000D01*
X180864000Y-75200000D02*
X176364000Y-75200000D01*
X182114000Y-79200000D02*
X182114000Y-77700000D01*
%TO.C,J3*%
X125162000Y-71822000D02*
X126492000Y-71822000D01*
X125162000Y-73152000D02*
X125162000Y-71822000D01*
X125162000Y-74422000D02*
X125162000Y-82102000D01*
X125162000Y-74422000D02*
X127822000Y-74422000D01*
X125162000Y-82102000D02*
X127822000Y-82102000D01*
X127822000Y-74422000D02*
X127822000Y-82102000D01*
%TO.C,C5*%
X148256164Y-93620000D02*
X148471836Y-93620000D01*
X148256164Y-94340000D02*
X148471836Y-94340000D01*
%TO.C,C4*%
X139620164Y-71268000D02*
X139835836Y-71268000D01*
X139620164Y-71988000D02*
X139835836Y-71988000D01*
D11*
%TO.C,U3*%
X143002000Y-69596000D02*
X160782000Y-69596000D01*
X160782000Y-69596000D02*
X160782000Y-92456000D01*
X160782000Y-92456000D02*
X143002000Y-92456000D01*
X143002000Y-92456000D02*
X143002000Y-69596000D01*
X146812000Y-67056000D02*
X156972000Y-67056000D01*
X156972000Y-67056000D02*
X156972000Y-74676000D01*
X156972000Y-74676000D02*
X146812000Y-74676000D01*
X146812000Y-74676000D02*
X146812000Y-67056000D01*
D12*
%TO.C,R4*%
X164037742Y-75677500D02*
X164512258Y-75677500D01*
X164037742Y-76722500D02*
X164512258Y-76722500D01*
%TO.C,C3*%
X185848164Y-71268000D02*
X186063836Y-71268000D01*
X185848164Y-71988000D02*
X186063836Y-71988000D01*
%TO.C,C8*%
X171563420Y-78738000D02*
X171844580Y-78738000D01*
X171563420Y-79758000D02*
X171844580Y-79758000D01*
%TO.C,C9*%
X171055420Y-75690000D02*
X171336580Y-75690000D01*
X171055420Y-76710000D02*
X171336580Y-76710000D01*
D11*
%TO.C,SW1*%
X155829000Y-95631000D02*
X146939000Y-95631000D01*
X146939000Y-95631000D02*
X146939000Y-99441000D01*
X146939000Y-99441000D02*
X155829000Y-99441000D01*
X155829000Y-99441000D02*
X155829000Y-95631000D01*
D12*
%TO.C,H4*%
X179693000Y-69227600D02*
X179693000Y-68167600D01*
X180753000Y-69227600D02*
X179693000Y-69227600D01*
X181753000Y-69227600D02*
X185813000Y-69227600D01*
X181753000Y-69227600D02*
X181753000Y-67107600D01*
X185813000Y-69227600D02*
X185813000Y-67107600D01*
X181753000Y-67107600D02*
X185813000Y-67107600D01*
%TO.C,R1*%
X176229742Y-70089500D02*
X176704258Y-70089500D01*
X176229742Y-71134500D02*
X176704258Y-71134500D01*
%TO.C,D1*%
X170605500Y-68636000D02*
X170605500Y-70556000D01*
X170605500Y-70556000D02*
X173290500Y-70556000D01*
X173290500Y-68636000D02*
X170605500Y-68636000D01*
%TO.C,R2*%
X172197500Y-73072258D02*
X172197500Y-72597742D01*
X173242500Y-73072258D02*
X173242500Y-72597742D01*
%TO.C,J4*%
X129226000Y-72330000D02*
X130556000Y-72330000D01*
X129226000Y-73660000D02*
X129226000Y-72330000D01*
X129226000Y-74930000D02*
X129226000Y-82610000D01*
X129226000Y-74930000D02*
X131886000Y-74930000D01*
X129226000Y-82610000D02*
X131886000Y-82610000D01*
X131886000Y-74930000D02*
X131886000Y-82610000D01*
%TO.C,R3*%
X167593742Y-75169500D02*
X168068258Y-75169500D01*
X167593742Y-76214500D02*
X168068258Y-76214500D01*
%TO.C,J5*%
X124256000Y-82001500D02*
X116536000Y-82001500D01*
X124256000Y-80781500D02*
X123036000Y-80781500D01*
X124256000Y-73581500D02*
X124256000Y-82001500D01*
X123036000Y-80781500D02*
X123036000Y-75781500D01*
X123036000Y-76781500D02*
X117756000Y-76781500D01*
X123036000Y-75781500D02*
X124256000Y-75781500D01*
X123036000Y-75781500D02*
X123036000Y-73581500D01*
X123036000Y-73581500D02*
X124256000Y-73581500D01*
X121966000Y-80201500D02*
X121646000Y-80281500D01*
X121966000Y-76781500D02*
X121966000Y-80201500D01*
X121946000Y-73091500D02*
X121346000Y-73091500D01*
X121646000Y-80281500D02*
X121326000Y-80201500D01*
X121646000Y-76781500D02*
X121966000Y-76781500D01*
X121646000Y-73691500D02*
X121946000Y-73091500D01*
X121346000Y-73091500D02*
X121646000Y-73691500D01*
X121326000Y-80201500D02*
X121326000Y-76781500D01*
X121326000Y-76781500D02*
X121646000Y-76781500D01*
X120476000Y-75781500D02*
X120316000Y-75781500D01*
X119466000Y-80201500D02*
X119146000Y-80281500D01*
X119466000Y-76781500D02*
X119466000Y-80201500D01*
X119146000Y-80281500D02*
X118826000Y-80201500D01*
X119146000Y-76781500D02*
X119466000Y-76781500D01*
X118826000Y-80201500D02*
X118826000Y-76781500D01*
X118826000Y-76781500D02*
X119146000Y-76781500D01*
X117756000Y-80781500D02*
X117756000Y-75781500D01*
X117756000Y-75781500D02*
X116536000Y-75781500D01*
X117756000Y-73581500D02*
X117756000Y-75781500D01*
X116536000Y-82001500D02*
X116536000Y-73581500D01*
X116536000Y-80781500D02*
X117756000Y-80781500D01*
X116536000Y-73581500D02*
X117756000Y-73581500D01*
%TO.C,C1*%
X164512164Y-72284000D02*
X164727836Y-72284000D01*
X164512164Y-73004000D02*
X164727836Y-73004000D01*
%TO.C,H5*%
X144979000Y-98523600D02*
X143919000Y-98523600D01*
X144979000Y-97463600D02*
X144979000Y-98523600D01*
X144979000Y-96463600D02*
X144979000Y-92403600D01*
X144979000Y-96463600D02*
X142859000Y-96463600D01*
X144979000Y-92403600D02*
X142859000Y-92403600D01*
X142859000Y-96463600D02*
X142859000Y-92403600D01*
%TO.C,H1*%
X118225000Y-69458600D02*
X118225000Y-68398600D01*
X119285000Y-69458600D02*
X118225000Y-69458600D01*
X120285000Y-69458600D02*
X124345000Y-69458600D01*
X120285000Y-69458600D02*
X120285000Y-67338600D01*
X124345000Y-69458600D02*
X124345000Y-67338600D01*
X120285000Y-67338600D02*
X124345000Y-67338600D01*
%TO.C,H3*%
X159246000Y-69227600D02*
X159246000Y-68167600D01*
X160306000Y-69227600D02*
X159246000Y-69227600D01*
X161306000Y-69227600D02*
X165366000Y-69227600D01*
X161306000Y-69227600D02*
X161306000Y-67107600D01*
X165366000Y-69227600D02*
X165366000Y-67107600D01*
X161306000Y-67107600D02*
X165366000Y-67107600D01*
%TO.C,C7*%
X171296420Y-81278000D02*
X171577580Y-81278000D01*
X171296420Y-82298000D02*
X171577580Y-82298000D01*
%TO.C,J1*%
X133290000Y-71822000D02*
X134620000Y-71822000D01*
X133290000Y-73152000D02*
X133290000Y-71822000D01*
X133290000Y-74422000D02*
X133290000Y-82102000D01*
X133290000Y-74422000D02*
X135950000Y-74422000D01*
X133290000Y-82102000D02*
X135950000Y-82102000D01*
X135950000Y-74422000D02*
X135950000Y-82102000D01*
%TD*%
M02*
