M48
; DRILL file {KiCad 7.0.7} date Sat Aug 10 15:19:51 2024
; FORMAT={-:-/ absolute / inch / decimal}
; #@! TF.CreationDate,2024-08-10T15:19:51-05:00
; #@! TF.GenerationSoftware,Kicad,Pcbnew,7.0.7
; #@! TF.FileFunction,Plated,1,2,PTH
FMAT,2
INCH
; #@! TA.AperFunction,Plated,PTH,ViaDrill
T1C0.0157
; #@! TA.AperFunction,Plated,PTH,ComponentDrill
T2C0.0315
; #@! TA.AperFunction,Plated,PTH,ComponentDrill
T3C0.0394
; #@! TA.AperFunction,Plated,PTH,ComponentDrill
T4C0.0433
%
G90
G05
T1
X5.0463Y-3.2463
X5.22Y-3.24
X5.42Y-2.82
X5.42Y-2.96
X5.42Y-3.24
X5.52Y-3.18
X5.54Y-2.9
X5.82Y-2.78
X6.0Y-2.66
X6.4001Y-3.16
X6.42Y-3.06
X6.5Y-2.82
X6.5Y-2.94
X6.54Y-3.0
X6.68Y-3.14
X6.82Y-3.06
X6.86Y-2.84
X6.92Y-2.7
T2
X4.6963Y-2.6929
X4.775Y-2.6929
X4.8537Y-2.6929
X5.5013Y-2.6838
X5.58Y-2.6838
X5.6587Y-2.6838
X5.6661Y-3.6797
X5.6661Y-3.7584
X5.6661Y-3.8371
X6.3113Y-2.6838
X6.3157Y-3.6797
X6.3157Y-3.7584
X6.3157Y-3.8371
X6.39Y-2.6838
X6.4687Y-2.6838
X7.1163Y-2.6838
X7.195Y-2.6838
X7.2737Y-2.6838
T3
X4.6908Y-2.9603
X4.7892Y-2.9603
X4.98Y-2.88
X4.98Y-2.98
X4.98Y-3.08
X4.98Y-3.18
X5.14Y-2.9
X5.14Y-3.0
X5.14Y-3.1
X5.14Y-3.2
X5.3Y-2.88
X5.3Y-2.98
X5.3Y-3.08
X5.3Y-3.18
X5.68Y-2.84
X5.68Y-2.94
X5.68Y-3.04
X5.68Y-3.14
X5.68Y-3.24
X5.68Y-3.34
X5.68Y-3.44
X5.68Y-3.54
X5.86Y-3.84
X5.96Y-3.84
X6.06Y-3.84
X6.28Y-2.84
X6.28Y-2.94
X6.28Y-3.04
X6.28Y-3.14
X6.28Y-3.24
X6.28Y-3.34
X6.28Y-3.44
X6.28Y-3.54
T4
X6.9041Y-3.0
X6.9041Y-3.1772
X7.16Y-3.0
X7.16Y-3.1772
T0
M30
