<?xml version="1.0" encoding="UTF-8"?>
<svg id="Layer_1" data-name="Layer 1" xmlns="http://www.w3.org/2000/svg" width="200.083" height="128.083" viewBox="0 0 200.083 128.083">
  <g>
    <path d="M.142,.142H199.942" style="fill: rgba(208, 210, 205, 0); stroke: #d0d2cd; stroke-linecap: round; stroke-linejoin: round; stroke-width: .283px;"/>
    <path d="M199.942,.142V127.942" style="fill: rgba(208, 210, 205, 0); stroke: #d0d2cd; stroke-linecap: round; stroke-linejoin: round; stroke-width: .283px;"/>
    <path d="M199.942,127.942H.142" style="fill: rgba(208, 210, 205, 0); stroke: #d0d2cd; stroke-linecap: round; stroke-linejoin: round; stroke-width: .283px;"/>
    <path d="M.142,127.942V.142" style="fill: rgba(208, 210, 205, 0); stroke: #d0d2cd; stroke-linecap: round; stroke-linejoin: round; stroke-width: .283px;"/>
  </g>
  <g>
    <polygon points="112.85 48.224 109.053 48.224 109.053 40.665 107.154 40.665 107.154 50.111 112.85 50.111 112.85 48.224"/>
    <path d="M115.873,48.792h3.779l.598,1.318h2.057l-4.518-9.68h-.059l-4.512,9.68h2.051l.604-1.318Zm1.893-4.143l1.148,2.525h-2.303l1.154-2.525Z"/>
    <path d="M125.816,48.388c-.814,0-1.418-.305-1.834-.973l-1.518,1.066c.633,1.172,1.775,1.816,3.322,1.816,2.021,0,3.428-1.096,3.428-2.818,0-1.453-.984-2.25-2.549-2.988-1.084-.51-1.799-.703-1.799-1.266,0-.486,.527-.896,1.236-.896,.527,0,1.072,.229,1.354,.791l1.4-.979c-.428-1.143-1.494-1.676-2.783-1.676-1.734,0-3.117,1.078-3.117,2.713,0,1.506,1.166,2.086,2.227,2.613,.99,.492,2.121,1.037,2.121,1.729,0,.504-.598,.867-1.488,.867Z"/>
    <polygon points="137.436 50.111 134.072 45.289 137.102 40.665 134.91 40.665 132.256 44.749 132.256 40.665 130.363 40.665 130.363 50.111 132.256 50.111 132.256 45.974 135.127 50.111 137.436 50.111"/>
    <polygon points="142.51 50.111 144.402 50.111 144.402 48.083 145.352 48.083 145.352 46.191 144.402 46.191 144.402 43.572 142.51 43.572 142.51 46.191 140.465 46.191 142.867 40.636 140.869 40.624 137.641 48.083 142.51 48.083 142.51 50.111"/>
    <polygon points="153.707 50.345 158.125 40.665 156.092 40.665 153.666 46.15 151.246 40.665 149.236 40.665 153.637 50.345 153.707 50.345"/>
    <polygon points="159.73 50.111 161.629 50.111 161.629 40.548 161.072 40.548 158.658 41.316 158.658 43.296 159.73 42.986 159.73 50.111"/>
    <path d="M164.277,50.41c.662,0,1.213-.545,1.213-1.207,0-.656-.557-1.213-1.213-1.213-.662,0-1.213,.551-1.213,1.213,0,.668,.545,1.207,1.213,1.207Z"/>
    <path d="M170.436,50.275c2.338,0,3.908-2.027,3.908-4.887s-1.57-4.893-3.908-4.893-3.92,2.027-3.92,4.893,1.576,4.887,3.92,4.887Zm-.012-7.869c1.23,0,2.016,1.236,2.016,2.982s-.785,2.971-2.016,2.971-2.016-1.23-2.016-2.971,.785-2.982,2.016-2.982Z"/>
    <path d="M176.582,50.41c.662,0,1.213-.545,1.213-1.207,0-.656-.557-1.213-1.213-1.213-.662,0-1.213,.551-1.213,1.213,0,.668,.545,1.207,1.213,1.207Z"/>
    <path d="M182.74,50.275c2.338,0,3.908-2.027,3.908-4.887s-1.57-4.893-3.908-4.893-3.92,2.027-3.92,4.893,1.576,4.887,3.92,4.887Zm-.012-7.869c1.23,0,2.016,1.236,2.016,2.982s-.785,2.971-2.016,2.971-2.016-1.23-2.016-2.971,.785-2.982,2.016-2.982Z"/>
    <path d="M111.654,54.872c-2.701,0-4.91,2.215-4.91,4.928,0,2.689,2.209,4.893,4.904,4.893s4.922-2.203,4.922-4.893c0-2.713-2.215-4.928-4.916-4.928Zm-.006,7.898c-1.646,0-2.988-1.342-2.988-2.982,0-1.652,1.342-3,2.988-3s3,1.348,3,3c0,1.641-1.348,2.982-3,2.982Z"/>
    <path d="M121.117,55.065h-3.316v9.445h1.898v-3.07h1.418c1.828,0,3.322-1.43,3.322-3.182s-1.494-3.193-3.322-3.193Zm0,4.5l-1.418-.006v-2.613h1.418c.785,0,1.424,.58,1.424,1.295,0,.732-.639,1.33-1.424,1.324Z"/>
    <polygon points="125.506 64.511 131.201 64.511 131.201 62.624 127.404 62.624 127.404 60.673 130.662 60.673 130.662 58.78 127.404 58.78 127.404 56.935 131.201 56.935 131.201 55.065 125.506 55.065 125.506 64.511"/>
    <polygon points="138.285 60.333 132.689 54.89 132.596 54.89 132.596 64.522 134.494 64.522 134.494 59.231 140.102 64.686 140.189 64.686 140.189 55.042 138.285 55.042 138.285 60.333"/>
    <path d="M146.459,60.219l-4.269-5.888h-.86v10.68h2.898v-3.006l1.812,2.632,.161,.216h.525l1.956-2.845v3.003h2.898v-10.68h-.86l-4.263,5.888Zm4.123,3.792h-.898v-5.223l-3.225,4.691-3.23-4.688v5.22h-.898v-7.784l4.129,5.696,4.123-5.695v7.782Z"/>
    <path d="M160.43,54.565h-2.91v6.447c0,.792-.644,1.281-1.24,1.281-.591,0-1.229-.49-1.229-1.281v-6.447h-2.91v6.453c0,2.354,1.82,4.197,4.145,4.197s4.145-1.844,4.145-4.197v-6.453Zm-1,6.453c0,1.823-1.352,3.197-3.145,3.197s-3.145-1.375-3.145-3.197v-5.453h.91v5.447c0,1.258,1,2.281,2.229,2.281,1.235,0,2.24-1.023,2.24-2.281v-5.447h.91v5.453Z"/>
    <path d="M165.41,58.439c-.2-.094-.388-.177-.561-.254-.446-.198-.951-.423-.951-.559,0-.166,.28-.396,.736-.396,.242,0,.683,.067,.906,.515l.259,.518,2.193-1.532-.136-.363c-.477-1.271-1.661-2-3.252-2-2.096,0-3.617,1.351-3.617,3.213,0,1.816,1.389,2.506,2.574,3.096,.62,.308,1.773,.88,1.773,1.246,0,.15-.352,.367-.988,.367-.657,0-1.092-.228-1.409-.737l-.28-.449-2.313,1.626,.211,.391c.725,1.34,2.061,2.079,3.763,2.079,2.35,0,3.928-1.333,3.928-3.318,0-1.848-1.362-2.746-2.836-3.441Zm-1.092,5.759c-1.162,0-2.067-.406-2.646-1.181l.735-.517c.483,.523,1.134,.788,1.939,.788,1.171,0,1.988-.562,1.988-1.367,0-.985-1.184-1.573-2.398-2.176-1.213-.603-1.949-1.05-1.949-2.166,0-1.303,1.076-2.213,2.617-2.213,.604,0,1.625,.14,2.15,1.008l-.65,.454c-.366-.382-.886-.599-1.471-.599-.974,0-1.736,.613-1.736,1.396s.716,1.104,1.544,1.472c.168,.075,.349,.155,.541,.246,1.649,.778,2.263,1.466,2.263,2.536,0,1.408-1.149,2.318-2.928,2.318Z"/>
    <path d="M180.164,54.565h-2.898v1.618l-.22-.212c-1.08-1.042-2.308-1.58-3.657-1.599-2.93,0-5.404,2.483-5.404,5.422,0,2.977,2.44,5.398,5.439,5.398,1.381,0,2.533-.506,3.628-1.592l.214-.212v1.623h6.695v-2.887h-3.797v-7.559Zm-6.74,9.627c-2.406,0-4.439-2.014-4.439-4.398,0-2.397,2.017-4.422,4.397-4.422,.965,.014,1.835,.351,2.646,1.028l-.506,.691c-.667-.516-1.402-.785-2.151-.785-1.846,0-3.465,1.636-3.465,3.5,0,2.052,1.823,3.482,3.459,3.482,.74,0,1.464-.28,2.159-.834l.514,.724c-.806,.699-1.626,1.015-2.614,1.015Zm2.254-3.25l-.419,.411c-.641,.629-1.261,.935-1.894,.935-1.161,0-2.459-1.062-2.459-2.482,0-1.309,1.175-2.5,2.465-2.5,.818,0,1.475,.477,1.882,.876l.412,.404,1.601-2.183v6.775l-1.588-2.236Zm7.283,2.182v.887h-4.695v-8.445h.898v7.559h3.797Z"/>
    <path d="M190.723,57.435v-2.869h-6.695v10.445h6.695v-2.887h-3.797v-.951h3.258v-2.893h-3.258v-.846h3.797Zm-1.539,1.846v.893h-3.258v2.951h3.797v.887h-4.695v-8.445h4.695v.869h-3.797v2.846h3.258Z"/>
  </g>
</svg>