<?xml version="1.0" standalone="no"?>
 <!DOCTYPE svg PUBLIC "-//W3C//DTD SVG 1.1//EN" 
 "http://www.w3.org/Graphics/SVG/1.1/DTD/svg11.dtd"> 
<svg
  xmlns:svg="http://www.w3.org/2000/svg"
  xmlns="http://www.w3.org/2000/svg"
  xmlns:xlink="http://www.w3.org/1999/xlink"
  version="1.1"
  width="7.167880cm" height="5.090160cm" viewBox="0 0 71678800 50901600">
<title>SVG Picture created as LASK4-F_Silkscreen.svg date 2023/01/30 09:01:18 </title>
  <desc>Picture generated by PCBNEW </desc>
<g style="fill:#000000; fill-opacity:1.000000;stroke:#000000; stroke-opacity:1.000000;
stroke-linecap:round; stroke-linejoin:round;"
 transform="translate(0 0) scale(1 1)">
</g>
<g style="fill:#000000; fill-opacity:0.0; 
stroke:#000000; stroke-width:0.000000; stroke-opacity:1; 
stroke-linecap:round; stroke-linejoin:round;">
</g>
<g style="fill:#F2EDA1; fill-opacity:0.0; 
stroke:#F2EDA1; stroke-width:0.000000; stroke-opacity:1; 
stroke-linecap:round; stroke-linejoin:round;">
</g>
<g style="fill:#F2EDA1; fill-opacity:0.0; 
stroke:#F2EDA1; stroke-width:150000.000000; stroke-opacity:1; 
stroke-linecap:round; stroke-linejoin:round;">
<g transform="rotate(-90.000000 29470000.000000 29895000.000000)">
<text x="29470000.000000" y="30395000.000000"
textLength="2195000.000000" font-size="1333333.000000" lengthAdjust="spacingAndGlyphs"
text-anchor="middle" opacity="0">U5</text>
</g>
<g class="stroked-text"><desc>U5</desc>
<path d="M28922380 30656904
L29731904 30656904
L29827142 30609285
L29874761 30561666
L29922380 30466428
L29922380 30275952
L29874761 30180714
L29827142 30133095
L29731904 30085476
L28922380 30085476
" />
<path d="M28922380 29133095
L28922380 29609285
L29398571 29656904
L29350952 29609285
L29303333 29514047
L29303333 29275952
L29350952 29180714
L29398571 29133095
L29493809 29085476
L29731904 29085476
L29827142 29133095
L29874761 29180714
L29922380 29275952
L29922380 29514047
L29874761 29609285
L29827142 29656904
" />
</g><g transform="rotate(-90.000000 43590000.000000 5200000.000000)">
<text x="43590000.000000" y="5700000.000000"
textLength="2195000.000000" font-size="1333333.000000" lengthAdjust="spacingAndGlyphs"
text-anchor="middle" opacity="0">U3</text>
</g>
<g class="stroked-text"><desc>U3</desc>
<path d="M43042380 5961904
L43851904 5961904
L43947142 5914285
L43994761 5866666
L44042380 5771428
L44042380 5580952
L43994761 5485714
L43947142 5438095
L43851904 5390476
L43042380 5390476
" />
<path d="M43042380 5009523
L43042380 4390476
L43423333 4723809
L43423333 4580952
L43470952 4485714
L43518571 4438095
L43613809 4390476
L43851904 4390476
L43947142 4438095
L43994761 4485714
L44042380 4580952
L44042380 4866666
L43994761 4961904
L43947142 5009523
" />
</g><g transform="rotate(-90.000000 62665000.000000 9575000.000000)">
<text x="62665000.000000" y="10075000.000000"
textLength="2195000.000000" font-size="1333333.000000" lengthAdjust="spacingAndGlyphs"
text-anchor="middle" opacity="0">H4</text>
</g>
<g class="stroked-text"><desc>H4</desc>
<path d="M63117380 10336904
L62117380 10336904
" />
<path d="M62593571 10336904
L62593571 9765476
" />
<path d="M63117380 9765476
L62117380 9765476
" />
<path d="M62450714 8860714
L63117380 8860714
" />
<path d="M62069761 9098809
L62784047 9336904
L62784047 8717857
" />
</g><text x="65530000.000000" y="28340000.000000"
textLength="5766429.000000" font-size="1333333.000000" lengthAdjust="spacingAndGlyphs"
text-anchor="middle" opacity="0">Select1</text>
<g class="stroked-text"><desc>Select1</desc>
<path d="M62934761 28244761
L63077619 28292380
L63315714 28292380
L63410952 28244761
L63458571 28197142
L63506190 28101904
L63506190 28006666
L63458571 27911428
L63410952 27863809
L63315714 27816190
L63125238 27768571
L63030000 27720952
L62982380 27673333
L62934761 27578095
L62934761 27482857
L62982380 27387619
L63030000 27340000
L63125238 27292380
L63363333 27292380
L63506190 27340000
" />
<path d="M64315714 28244761
L64220476 28292380
L64030000 28292380
L63934761 28244761
L63887142 28149523
L63887142 27768571
L63934761 27673333
L64030000 27625714
L64220476 27625714
L64315714 27673333
L64363333 27768571
L64363333 27863809
L63887142 27959047
" />
<path d="M64934761 28292380
L64839523 28244761
L64791904 28149523
L64791904 27292380
" />
<path d="M65696666 28244761
L65601428 28292380
L65410952 28292380
L65315714 28244761
L65268095 28149523
L65268095 27768571
L65315714 27673333
L65410952 27625714
L65601428 27625714
L65696666 27673333
L65744285 27768571
L65744285 27863809
L65268095 27959047
" />
<path d="M66601428 28244761
L66506190 28292380
L66315714 28292380
L66220476 28244761
L66172857 28197142
L66125238 28101904
L66125238 27816190
L66172857 27720952
L66220476 27673333
L66315714 27625714
L66506190 27625714
L66601428 27673333
" />
<path d="M66887142 27625714
L67268095 27625714
" />
<path d="M67030000 27292380
L67030000 28149523
L67077619 28244761
L67172857 28292380
L67268095 28292380
" />
<path d="M68125238 28292380
L67553809 28292380
" />
<path d="M67839523 28292380
L67839523 27292380
L67744285 27435238
L67649047 27530476
L67553809 27578095
" />
</g><text x="32435000.000000" y="13460000.000000"
textLength="2099762.000000" font-size="1333333.000000" lengthAdjust="spacingAndGlyphs"
text-anchor="middle" opacity="0">S1</text>
<g class="stroked-text"><desc>S1</desc>
<path d="M31673095 13364761
L31815952 13412380
L32054047 13412380
L32149285 13364761
L32196904 13317142
L32244523 13221904
L32244523 13126666
L32196904 13031428
L32149285 12983809
L32054047 12936190
L31863571 12888571
L31768333 12840952
L31720714 12793333
L31673095 12698095
L31673095 12602857
L31720714 12507619
L31768333 12460000
L31863571 12412380
L32101666 12412380
L32244523 12460000
" />
<path d="M33196904 13412380
L32625476 13412380
" />
<path d="M32911190 13412380
L32911190 12412380
L32815952 12555238
L32720714 12650476
L32625476 12698095
" />
</g><g transform="rotate(-90.000000 22025000.000000 9575000.000000)">
<text x="22025000.000000" y="10075000.000000"
textLength="2195000.000000" font-size="1333333.000000" lengthAdjust="spacingAndGlyphs"
text-anchor="middle" opacity="0">H2</text>
</g>
<g class="stroked-text"><desc>H2</desc>
<path d="M22477380 10336904
L21477380 10336904
" />
<path d="M21953571 10336904
L21953571 9765476
" />
<path d="M22477380 9765476
L21477380 9765476
" />
<path d="M21572619 9336904
L21525000 9289285
L21477380 9194047
L21477380 8955952
L21525000 8860714
L21572619 8813095
L21667857 8765476
L21763095 8765476
L21905952 8813095
L22477380 9384523
L22477380 8765476
" />
</g><g transform="rotate(-90.000000 42345000.000000 9575000.000000)">
<text x="42345000.000000" y="10075000.000000"
textLength="2195000.000000" font-size="1333333.000000" lengthAdjust="spacingAndGlyphs"
text-anchor="middle" opacity="0">H3</text>
</g>
<g class="stroked-text"><desc>H3</desc>
<path d="M42797380 10336904
L41797380 10336904
" />
<path d="M42273571 10336904
L42273571 9765476
" />
<path d="M42797380 9765476
L41797380 9765476
" />
<path d="M41797380 9384523
L41797380 8765476
L42178333 9098809
L42178333 8955952
L42225952 8860714
L42273571 8813095
L42368809 8765476
L42606904 8765476
L42702142 8813095
L42749761 8860714
L42797380 8955952
L42797380 9241666
L42749761 9336904
L42702142 9384523
" />
</g><text x="54100000.000000" y="28340000.000000"
textLength="3099762.000000" font-size="1333333.000000" lengthAdjust="spacingAndGlyphs"
text-anchor="middle" opacity="0">Up1</text>
<g class="stroked-text"><desc>Up1</desc>
<path d="M52885714 27292380
L52885714 28101904
L52933333 28197142
L52980952 28244761
L53076190 28292380
L53266666 28292380
L53361904 28244761
L53409523 28197142
L53457142 28101904
L53457142 27292380
" />
<path d="M53933333 27625714
L53933333 28625714
" />
<path d="M53933333 27673333
L54028571 27625714
L54219047 27625714
L54314285 27673333
L54361904 27720952
L54409523 27816190
L54409523 28101904
L54361904 28197142
L54314285 28244761
L54219047 28292380
L54028571 28292380
L53933333 28244761
" />
<path d="M55361904 28292380
L54790476 28292380
" />
<path d="M55076190 28292380
L55076190 27292380
L54980952 27435238
L54885714 27530476
L54790476 27578095
" />
</g><g transform="rotate(-90.000000 2950000.000000 4495000.000000)">
<text x="2950000.000000" y="4995000.000000"
textLength="2195000.000000" font-size="1333333.000000" lengthAdjust="spacingAndGlyphs"
text-anchor="middle" opacity="0">U1</text>
</g>
<g class="stroked-text"><desc>U1</desc>
<path d="M2402380 5256904
L3211904 5256904
L3307142 5209285
L3354761 5161666
L3402380 5066428
L3402380 4875952
L3354761 4780714
L3307142 4733095
L3211904 4685476
L2402380 4685476
" />
<path d="M3402380 3685476
L3402380 4256904
" />
<path d="M3402380 3971190
L2402380 3971190
L2545238 4066428
L2640476 4161666
L2688095 4256904
" />
</g><text x="54100000.000000" y="37175000.000000"
textLength="5004524.000000" font-size="1333333.000000" lengthAdjust="spacingAndGlyphs"
text-anchor="middle" opacity="0">Down1</text>
<g class="stroked-text"><desc>Down1</desc>
<path d="M51933333 37127380
L51933333 36127380
L52171428 36127380
L52314285 36175000
L52409523 36270238
L52457142 36365476
L52504761 36555952
L52504761 36698809
L52457142 36889285
L52409523 36984523
L52314285 37079761
L52171428 37127380
L51933333 37127380
" />
<path d="M53076190 37127380
L52980952 37079761
L52933333 37032142
L52885714 36936904
L52885714 36651190
L52933333 36555952
L52980952 36508333
L53076190 36460714
L53219047 36460714
L53314285 36508333
L53361904 36555952
L53409523 36651190
L53409523 36936904
L53361904 37032142
L53314285 37079761
L53219047 37127380
L53076190 37127380
" />
<path d="M53742857 36460714
L53933333 37127380
L54123809 36651190
L54314285 37127380
L54504761 36460714
" />
<path d="M54885714 36460714
L54885714 37127380
" />
<path d="M54885714 36555952
L54933333 36508333
L55028571 36460714
L55171428 36460714
L55266666 36508333
L55314285 36603571
L55314285 37127380
" />
<path d="M56314285 37127380
L55742857 37127380
" />
<path d="M56028571 37127380
L56028571 36127380
L55933333 36270238
L55838095 36365476
L55742857 36413095
" />
</g><g transform="rotate(-90.000000 23905000.000000 4565000.000000)">
<text x="23905000.000000" y="5065000.000000"
textLength="2195000.000000" font-size="1333333.000000" lengthAdjust="spacingAndGlyphs"
text-anchor="middle" opacity="0">U2</text>
</g>
<g class="stroked-text"><desc>U2</desc>
<path d="M23357380 5326904
L24166904 5326904
L24262142 5279285
L24309761 5231666
L24357380 5136428
L24357380 4945952
L24309761 4850714
L24262142 4803095
L24166904 4755476
L23357380 4755476
" />
<path d="M23452619 4326904
L23405000 4279285
L23357380 4184047
L23357380 3945952
L23405000 3850714
L23452619 3803095
L23547857 3755476
L23643095 3755476
L23785952 3803095
L24357380 4374523
L24357380 3755476
" />
</g><g transform="rotate(-90.000000 64545000.000000 5200000.000000)">
<text x="64545000.000000" y="5700000.000000"
textLength="2195000.000000" font-size="1333333.000000" lengthAdjust="spacingAndGlyphs"
text-anchor="middle" opacity="0">U4</text>
</g>
<g class="stroked-text"><desc>U4</desc>
<path d="M63997380 5961904
L64806904 5961904
L64902142 5914285
L64949761 5866666
L64997380 5771428
L64997380 5580952
L64949761 5485714
L64902142 5438095
L64806904 5390476
L63997380 5390476
" />
<path d="M64330714 4485714
L64997380 4485714
" />
<path d="M63949761 4723809
L64664047 4961904
L64664047 4342857
" />
</g><text x="65530000.000000" y="37175000.000000"
textLength="4766429.000000" font-size="1333333.000000" lengthAdjust="spacingAndGlyphs"
text-anchor="middle" opacity="0">Start1</text>
<g class="stroked-text"><desc>Start1</desc>
<path d="M63434761 37079761
L63577619 37127380
L63815714 37127380
L63910952 37079761
L63958571 37032142
L64006190 36936904
L64006190 36841666
L63958571 36746428
L63910952 36698809
L63815714 36651190
L63625238 36603571
L63530000 36555952
L63482380 36508333
L63434761 36413095
L63434761 36317857
L63482380 36222619
L63530000 36175000
L63625238 36127380
L63863333 36127380
L64006190 36175000
" />
<path d="M64291904 36460714
L64672857 36460714
" />
<path d="M64434761 36127380
L64434761 36984523
L64482380 37079761
L64577619 37127380
L64672857 37127380
" />
<path d="M65434761 37127380
L65434761 36603571
L65387142 36508333
L65291904 36460714
L65101428 36460714
L65006190 36508333
" />
<path d="M65434761 37079761
L65339523 37127380
L65101428 37127380
L65006190 37079761
L64958571 36984523
L64958571 36889285
L65006190 36794047
L65101428 36746428
L65339523 36746428
L65434761 36698809
" />
<path d="M65910952 37127380
L65910952 36460714
" />
<path d="M65910952 36651190
L65958571 36555952
L66006190 36508333
L66101428 36460714
L66196666 36460714
" />
<path d="M66387142 36460714
L66768095 36460714
" />
<path d="M66530000 36127380
L66530000 36984523
L66577619 37079761
L66672857 37127380
L66768095 37127380
" />
<path d="M67625238 37127380
L67053809 37127380
" />
<path d="M67339523 37127380
L67339523 36127380
L67244285 36270238
L67149047 36365476
L67053809 36413095
" />
</g><g transform="rotate(-90.000000 1610000.000000 9575000.000000)">
<text x="1610000.000000" y="10075000.000000"
textLength="2195000.000000" font-size="1333333.000000" lengthAdjust="spacingAndGlyphs"
text-anchor="middle" opacity="0">H1</text>
</g>
<g class="stroked-text"><desc>H1</desc>
<path d="M2062380 10336904
L1062380 10336904
" />
<path d="M1538571 10336904
L1538571 9765476
" />
<path d="M2062380 9765476
L1062380 9765476
" />
<path d="M2062380 8765476
L2062380 9336904
" />
<path d="M2062380 9051190
L1062380 9051190
L1205238 9146428
L1300476 9241666
L1348095 9336904
" />
</g><text x="15290000.000000" y="12750000.000000"
textLength="2195000.000000" font-size="1333333.000000" lengthAdjust="spacingAndGlyphs"
text-anchor="middle" opacity="0">U6</text>
<g class="stroked-text"><desc>U6</desc>
<path d="M14528095 11702380
L14528095 12511904
L14575714 12607142
L14623333 12654761
L14718571 12702380
L14909047 12702380
L15004285 12654761
L15051904 12607142
L15099523 12511904
L15099523 11702380
" />
<path d="M16004285 11702380
L15813809 11702380
L15718571 11750000
L15670952 11797619
L15575714 11940476
L15528095 12130952
L15528095 12511904
L15575714 12607142
L15623333 12654761
L15718571 12702380
L15909047 12702380
L16004285 12654761
L16051904 12607142
L16099523 12511904
L16099523 12273809
L16051904 12178571
L16004285 12130952
L15909047 12083333
L15718571 12083333
L15623333 12130952
L15575714 12178571
L15528095 12273809
" />
</g></g>
<g style="fill:#F2EDA1; fill-opacity:0.0; 
stroke:#F2EDA1; stroke-width:120000.000000; stroke-opacity:1; 
stroke-linecap:round; stroke-linejoin:round;">
<path d="M33070000 31225000
L45830000 31225000
" />
<path d="M31800000 31225000
L30470000 31225000
" />
<path d="M30470000 31225000
L30470000 29895000
" />
<path d="M33070000 31225000
L33070000 28565000
" />
<path d="M45830000 31225000
L45830000 28565000
" />
<path d="M33070000 28565000
L45830000 28565000
" />
<path d="M47700000 6275000
L47700000 4125000
" />
<path d="M44480000 4125000
L45390000 4125000
" />
<path d="M44480000 6700000
L44480000 4125000
" />
<path d="M46790000 4125000
L47700000 4125000
" />
<path d="M65725000 10635000
L65725000 8515000
" />
<path d="M69785000 10635000
L69785000 8515000
" />
<path d="M65725000 10635000
L69785000 10635000
" />
<path d="M63665000 10635000
L63665000 9575000
" />
<path d="M65725000 8515000
L69785000 8515000
" />
<path d="M64725000 10635000
L63665000 10635000
" />
<path d="M62030000 31340000
L62030000 32840000
" />
<path d="M63280000 35340000
L67780000 35340000
" />
<path d="M69030000 32840000
L69030000 31340000
" />
<path d="M67780000 28840000
L63280000 28840000
" />
<path d="M33765000 16560000
L33765000 24240000
" />
<path d="M31105000 16560000
L31105000 24240000
" />
<path d="M31105000 16560000
L33765000 16560000
" />
<path d="M31105000 24240000
L33765000 24240000
" />
<path d="M31105000 13960000
L32435000 13960000
" />
<path d="M31105000 15290000
L31105000 13960000
" />
<path d="M24085000 10635000
L23025000 10635000
" />
<path d="M25085000 10635000
L25085000 8515000
" />
<path d="M25085000 8515000
L29145000 8515000
" />
<path d="M29145000 10635000
L29145000 8515000
" />
<path d="M23025000 10635000
L23025000 9575000
" />
<path d="M25085000 10635000
L29145000 10635000
" />
<path d="M45405000 10635000
L45405000 8515000
" />
<path d="M43345000 10635000
L43345000 9575000
" />
<path d="M49465000 10635000
L49465000 8515000
" />
<path d="M44405000 10635000
L43345000 10635000
" />
<path d="M45405000 10635000
L49465000 10635000
" />
<path d="M45405000 8515000
L49465000 8515000
" />
<path d="M50600000 31340000
L50600000 32840000
" />
<path d="M51850000 35340000
L56350000 35340000
" />
<path d="M57600000 32840000
L57600000 31340000
" />
<path d="M56350000 28840000
L51850000 28840000
" />
<path d="M6150000 3420000
L7060000 3420000
" />
<path d="M3840000 5995000
L3840000 3420000
" />
<path d="M3840000 3420000
L4750000 3420000
" />
<path d="M7060000 5570000
L7060000 3420000
" />
<path d="M57600000 41675000
L57600000 40175000
" />
<path d="M56350000 37675000
L51850000 37675000
" />
<path d="M51850000 44175000
L56350000 44175000
" />
<path d="M50600000 40175000
L50600000 41675000
" />
<path d="M24795000 3490000
L25705000 3490000
" />
<path d="M27105000 3490000
L28015000 3490000
" />
<path d="M28015000 5640000
L28015000 3490000
" />
<path d="M24795000 6065000
L24795000 3490000
" />
<path d="M65435000 4125000
L66345000 4125000
" />
<path d="M65435000 6700000
L65435000 4125000
" />
<path d="M68655000 6275000
L68655000 4125000
" />
<path d="M67745000 4125000
L68655000 4125000
" />
<path d="M69030000 41675000
L69030000 40175000
" />
<path d="M63280000 44175000
L67780000 44175000
" />
<path d="M62030000 40175000
L62030000 41675000
" />
<path d="M67780000 37675000
L63280000 37675000
" />
<path d="M4670000 10635000
L4670000 8515000
" />
<path d="M8730000 10635000
L8730000 8515000
" />
<path d="M2610000 10635000
L2610000 9575000
" />
<path d="M4670000 8515000
L8730000 8515000
" />
<path d="M3670000 10635000
L2610000 10635000
" />
<path d="M4670000 10635000
L8730000 10635000
" />
<path d="M26720000 19100000
L26720000 50850000
" />
<path d="M3860000 44500000
L1320000 43230000
" />
<path d="M26720000 50850000
L3860000 50850000
" />
<path d="M3860000 50850000
L3860000 44500000
" />
<path d="M1320000 43230000
L1320000 19100000
" />
<path d="M3860000 16560000
L24180000 16560000
" />
<path d="M26720000.000000 19100000.000000 A2540000.000000 2540000.000000 0.0 0 0 24180000.000000 16560000.000000" />
<path d="M3860000.000000 16560000.000000 A2540001.000000 2540001.000000 0.0 0 0 1320000.000000 19100000.000000" />
<g >
</g>
<g >
</g>
<g >
</g>
<g >
</g>
<g >
</g>
<g >
</g>
<g >
</g>
<g >
</g>
<g >
</g>
<g >
</g>
<g >
</g>
<g >
</g>
<g >
</g>
<g >
</g>
<g >
</g>
<g >
</g>
<g >
</g>
<g >
</g>
<g >
</g>
</g>
<g style="fill:#000000; fill-opacity:0.0; 
stroke:#000000; stroke-width:120000.000000; stroke-opacity:1; 
stroke-linecap:round; stroke-linejoin:round;">
</g>
<g style="fill:#D0D2CD; fill-opacity:0.0; 
stroke:#D0D2CD; stroke-width:120000.000000; stroke-opacity:1; 
stroke-linecap:round; stroke-linejoin:round;">
</g>
<g style="fill:#D0D2CD; fill-opacity:0.0; 
stroke:#D0D2CD; stroke-width:100000.000000; stroke-opacity:1; 
stroke-linecap:round; stroke-linejoin:round;">
<path d="M50000 50000
L70535000 50000
" />
<path d="M70535000 50000
L70535000 45135000
" />
<path d="M70535000 45135000
L50000 45135000
" />
<path d="M50000 45135000
L50000 50000
" />
<g >
</g>
<g >
</g>
<g >
</g>
<g >
</g>
<g >
</g>
<g >
</g>
<g >
</g>
<g >
</g>
<g >
</g>
<g >
</g>
<g >
</g>
<g >
</g>
<g >
</g>
<g >
</g>
<g >
</g>
<g >
</g>
<g >
</g>
<g >
</g>
<g >
</g>
</g> 
</svg>
