M48
; DRILL file {KiCad (6.0.7)} date Mon Sep 26 10:55:03 2022
; FORMAT={-:-/ absolute / inch / decimal}
; #@! TF.CreationDate,2022-09-26T10:55:03-05:00
; #@! TF.GenerationSoftware,Kicad,Pcbnew,(6.0.7)
; #@! TF.FileFunction,Plated,1,2,PTH
FMAT,2
INCH
; #@! TA.AperFunction,Plated,PTH,ViaDrill
T1C0.0157
; #@! TA.AperFunction,Plated,PTH,ComponentDrill
T2C0.0295
; #@! TA.AperFunction,Plated,PTH,ComponentDrill
T3C0.0300
; #@! TA.AperFunction,Plated,PTH,ComponentDrill
T4C0.0394
; #@! TA.AperFunction,Plated,PTH,ComponentDrill
T5C0.0433
; #@! TA.AperFunction,Plated,PTH,ComponentDrill
T6C0.0866
%
G90
G05
T1
X6.1464Y-3.7189
X6.1464Y-3.859
X6.1652Y-3.65
X6.171Y-3.5612
X6.4167Y-3.4088
X6.462Y-3.5625
X6.4679Y-3.1962
X6.4679Y-3.8216
X6.4819Y-3.6967
X6.4929Y-3.4351
X6.5302Y-3.571
X6.5576Y-4.201
X6.6398Y-3.9302
X6.7246Y-3.4703
X6.8445Y-3.9339
X6.921Y-4.1765
X7.0492Y-3.1952
T2
X6.925Y-3.35
X6.925Y-3.4
X6.925Y-3.45
X6.925Y-3.95
X6.925Y-4.0
X6.925Y-4.05
T3
X6.25Y-3.35
X6.25Y-3.45
X6.25Y-3.55
X6.25Y-3.65
X6.25Y-3.75
X6.25Y-3.85
X6.25Y-3.95
X6.25Y-4.05
X6.35Y-3.35
X6.35Y-3.45
X6.35Y-3.55
X6.35Y-3.65
X6.35Y-3.75
X6.35Y-3.85
X6.35Y-3.95
X6.35Y-4.05
X7.05Y-3.35
X7.05Y-3.45
X7.05Y-3.55
X7.05Y-3.65
X7.05Y-3.75
X7.05Y-3.85
X7.05Y-3.95
X7.05Y-4.05
X7.15Y-3.35
X7.15Y-3.45
X7.15Y-3.55
X7.15Y-3.65
X7.15Y-3.75
X7.15Y-3.85
X7.15Y-3.95
X7.15Y-4.05
T4
X6.05Y-3.25
X6.05Y-3.35
X6.05Y-3.45
X6.05Y-3.55
X6.05Y-3.65
X6.05Y-3.75
X6.05Y-3.85
X6.05Y-3.95
X6.05Y-4.05
X6.05Y-4.15
X6.15Y-4.05
X6.15Y-4.15
X6.25Y-3.05
X6.25Y-4.35
X6.35Y-3.05
X6.35Y-4.35
X6.45Y-3.05
X6.45Y-4.35
X6.55Y-3.05
X6.55Y-4.35
X6.65Y-4.35
X6.75Y-4.35
X6.9Y-4.35
X7.0Y-4.35
X7.1Y-4.35
X7.15Y-3.075
X7.15Y-3.175
X7.25Y-4.05
X7.25Y-4.15
X7.35Y-3.25
X7.35Y-3.35
X7.35Y-3.45
X7.35Y-3.55
X7.35Y-3.65
X7.35Y-3.75
X7.35Y-3.85
X7.35Y-3.95
X7.35Y-4.05
X7.35Y-4.15
T5
X6.6941Y-3.0478
X6.6941Y-3.225
X6.6941Y-3.5978
X6.6941Y-3.775
X6.95Y-3.0478
X6.95Y-3.225
X6.95Y-3.5978
X6.95Y-3.775
T6
X6.1Y-3.1
X6.1Y-4.3
X7.3Y-3.1
X7.3Y-4.3
T0
M30
