%TF.GenerationSoftware,KiCad,Pcbnew,(6.0.7)*%
%TF.CreationDate,2022-09-26T10:55:09-05:00*%
%TF.ProjectId,OpenMuscle5,4f70656e-4d75-4736-936c-65352e6b6963,rev?*%
%TF.SameCoordinates,Original*%
%TF.FileFunction,Copper,L2,Bot*%
%TF.FilePolarity,Positive*%
%FSLAX46Y46*%
G04 Gerber Fmt 4.6, Leading zero omitted, Abs format (unit mm)*
G04 Created by KiCad (PCBNEW (6.0.7)) date 2022-09-26 10:55:09*
%MOMM*%
%LPD*%
G01*
G04 APERTURE LIST*
G04 Aperture macros list*
%AMFreePoly0*
4,1,6,1.000000,0.000000,0.500000,-0.750000,-0.500000,-0.750000,-0.500000,0.750000,0.500000,0.750000,1.000000,0.000000,1.000000,0.000000,$1*%
%AMFreePoly1*
4,1,6,0.500000,-0.750000,-0.650000,-0.750000,-0.150000,0.000000,-0.650000,0.750000,0.500000,0.750000,0.500000,-0.750000,0.500000,-0.750000,$1*%
G04 Aperture macros list end*
%TA.AperFunction,ComponentPad*%
%ADD10R,1.700000X1.700000*%
%TD*%
%TA.AperFunction,ComponentPad*%
%ADD11O,1.700000X1.700000*%
%TD*%
%TA.AperFunction,ComponentPad*%
%ADD12C,1.524000*%
%TD*%
%TA.AperFunction,ComponentPad*%
%ADD13C,2.000000*%
%TD*%
%TA.AperFunction,ComponentPad*%
%ADD14C,4.400000*%
%TD*%
%TA.AperFunction,ComponentPad*%
%ADD15R,1.500000X1.050000*%
%TD*%
%TA.AperFunction,ComponentPad*%
%ADD16O,1.500000X1.050000*%
%TD*%
%TA.AperFunction,SMDPad,CuDef*%
%ADD17FreePoly0,180.000000*%
%TD*%
%TA.AperFunction,SMDPad,CuDef*%
%ADD18FreePoly1,180.000000*%
%TD*%
%TA.AperFunction,ViaPad*%
%ADD19C,0.800000*%
%TD*%
%TA.AperFunction,Conductor*%
%ADD20C,0.250000*%
%TD*%
G04 APERTURE END LIST*
D10*
%TO.P,BT1,1,Pin_1*%
%TO.N,Net-(Ch1-Pad3)*%
X181610000Y-78105000D03*
D11*
%TO.P,BT1,2,Pin_2*%
%TO.N,Net-(Ch1-Pad4)*%
X181610000Y-80645000D03*
%TD*%
D10*
%TO.P,Ch1,1,VIN*%
%TO.N,unconnected-(Ch1-Pad1)*%
X158750000Y-110490000D03*
D11*
%TO.P,Ch1,2,IN-GND*%
%TO.N,unconnected-(Ch1-Pad2)*%
X161290000Y-110490000D03*
%TO.P,Ch1,3,BAT-GND*%
%TO.N,Net-(Ch1-Pad3)*%
X163830000Y-110490000D03*
%TO.P,Ch1,4,BAT+*%
%TO.N,Net-(Ch1-Pad4)*%
X166370000Y-110490000D03*
%TO.P,Ch1,5,OUT-GND*%
%TO.N,Net-(J1-Pad10)*%
X168910000Y-110490000D03*
%TO.P,Ch1,6,OUT-5V*%
%TO.N,Net-(Ch1-Pad6)*%
X171450000Y-110490000D03*
%TD*%
D10*
%TO.P,Five2,1,Pin_1*%
%TO.N,Net-(E1-Pad150)*%
X184150000Y-102870000D03*
D11*
%TO.P,Five2,2,Pin_2*%
%TO.N,Net-(Ch1-Pad6)*%
X184150000Y-105410000D03*
%TD*%
D10*
%TO.P,J1,1,ACD0*%
%TO.N,Net-(E1-Pad6)*%
X153670000Y-82550000D03*
D11*
%TO.P,J1,2,ADC1*%
%TO.N,Net-(E1-Pad5)*%
X153670000Y-85090000D03*
%TO.P,J1,3,Pin_3*%
%TO.N,Net-(E1-Pad4)*%
X153670000Y-87630000D03*
%TO.P,J1,4,Pin_4*%
%TO.N,Net-(E1-Pad3)*%
X153670000Y-90170000D03*
%TO.P,J1,5,Pin_5*%
%TO.N,Net-(E1-Pad2)*%
X153670000Y-92710000D03*
%TO.P,J1,6,Pin_6*%
%TO.N,Net-(E1-Pad1)*%
X153670000Y-95250000D03*
%TO.P,J1,7,Pin_7*%
%TO.N,Net-(E1-Pad7)*%
X153670000Y-97790000D03*
%TO.P,J1,8,Pin_8*%
%TO.N,Net-(E1-Pad14)*%
X153670000Y-100330000D03*
%TO.P,J1,9,Pin_9*%
%TO.N,Net-(E1-Pad133)*%
X153670000Y-102870000D03*
%TO.P,J1,10,Pin_10*%
%TO.N,Net-(J1-Pad10)*%
X153670000Y-105410000D03*
%TD*%
D12*
%TO.P,E1,0,EN*%
%TO.N,unconnected-(E1-Pad0)*%
X158750000Y-85090000D03*
%TO.P,E1,1,ADC1_0*%
%TO.N,Net-(E1-Pad1)*%
X161290000Y-85090000D03*
%TO.P,E1,2,ADC1_1*%
%TO.N,Net-(E1-Pad2)*%
X161290000Y-87630000D03*
%TO.P,E1,3,ADC1_2*%
%TO.N,Net-(E1-Pad3)*%
X158750000Y-87630000D03*
%TO.P,E1,4,ADC1_3*%
%TO.N,Net-(E1-Pad4)*%
X161290000Y-90170000D03*
%TO.P,E1,5,ADC1_4*%
%TO.N,Net-(E1-Pad5)*%
X158750000Y-90170000D03*
%TO.P,E1,6,ADC1_5*%
%TO.N,Net-(E1-Pad6)*%
X161290000Y-92710000D03*
%TO.P,E1,7,ADC1_6*%
%TO.N,Net-(E1-Pad7)*%
X158750000Y-92710000D03*
%TO.P,E1,8,ADC1_7*%
%TO.N,Net-(A6-Pad2)*%
X161290000Y-95250000D03*
%TO.P,E1,9,ADC1_8*%
%TO.N,Net-(A5-Pad2)*%
X158750000Y-95250000D03*
%TO.P,E1,10,ADC1_9*%
%TO.N,Net-(A4-Pad2)*%
X161290000Y-97790000D03*
%TO.P,E1,11,ADC2_0*%
%TO.N,Net-(A3-Pad2)*%
X158750000Y-97790000D03*
%TO.P,E1,12,ADC2_1*%
%TO.N,Net-(A2-Pad2)*%
X158750000Y-100330000D03*
%TO.P,E1,13,ADC2_2*%
%TO.N,Net-(A1-Pad2)*%
X161290000Y-100330000D03*
%TO.P,E1,14,ADC2_3*%
%TO.N,Net-(E1-Pad14)*%
X161290000Y-102870000D03*
%TO.P,E1,15,ADC2_4*%
%TO.N,Net-(E1-Pad15)*%
X179070000Y-102870000D03*
%TO.P,E1,16,ADC2_5*%
%TO.N,Net-(E1-Pad16)*%
X181610000Y-97790000D03*
%TO.P,E1,17,ADC2_6*%
%TO.N,Net-(E1-Pad17)*%
X179070000Y-97790000D03*
%TO.P,E1,18,ADC2_7*%
%TO.N,Net-(E1-Pad18)*%
X181610000Y-95250000D03*
%TO.P,E1,21,21*%
%TO.N,unconnected-(E1-Pad21)*%
X179070000Y-95250000D03*
%TO.P,E1,33,FSPI_HD_io4*%
%TO.N,Net-(E1-Pad33)*%
X181610000Y-92710000D03*
%TO.P,E1,34,FSPI_SCO_dqs*%
%TO.N,Net-(E1-Pad34)*%
X179070000Y-92710000D03*
%TO.P,E1,35,FSPI_D_io6*%
%TO.N,Net-(E1-Pad35)*%
X181610000Y-90170000D03*
%TO.P,E1,36,FSPI_CLK_io7*%
%TO.N,Net-(E1-Pad36)*%
X179070000Y-90170000D03*
%TO.P,E1,37,FSPI_Q*%
%TO.N,unconnected-(E1-Pad37)*%
X181610000Y-87630000D03*
%TO.P,E1,38,FSPI_WP*%
%TO.N,unconnected-(E1-Pad38)*%
X179070000Y-87630000D03*
%TO.P,E1,39,CLK3*%
%TO.N,unconnected-(E1-Pad39)*%
X181610000Y-85090000D03*
%TO.P,E1,40,CLK2*%
%TO.N,unconnected-(E1-Pad40)*%
X179070000Y-85090000D03*
%TO.P,E1,129,GND*%
%TO.N,Net-(J1-Pad10)*%
X179070000Y-100330000D03*
%TO.P,E1,130,GND*%
X181610000Y-100330000D03*
%TO.P,E1,133,3.3V*%
%TO.N,Net-(E1-Pad133)*%
X158750000Y-102870000D03*
%TO.P,E1,150,VBUS*%
%TO.N,Net-(E1-Pad150)*%
X181610000Y-102870000D03*
%TD*%
D13*
%TO.P,SW3,1,1*%
%TO.N,Net-(E1-Pad35)*%
X170030000Y-91385000D03*
X176530000Y-91385000D03*
%TO.P,SW3,2,2*%
%TO.N,Net-(J1-Pad10)*%
X176530000Y-95885000D03*
X170030000Y-95885000D03*
%TD*%
D10*
%TO.P,Five1,1,Pin_1*%
%TO.N,Net-(E1-Pad150)*%
X156210000Y-102870000D03*
D11*
%TO.P,Five1,2,Pin_2*%
%TO.N,Net-(Ch1-Pad6)*%
X156210000Y-105410000D03*
%TD*%
D14*
%TO.P,H3,1,1*%
%TO.N,Net-(J1-Pad10)*%
X154940000Y-109220000D03*
%TD*%
D10*
%TO.P,S1,1,GND*%
%TO.N,Net-(J1-Pad10)*%
X158750000Y-77470000D03*
D11*
%TO.P,S1,2,VCC*%
%TO.N,Net-(E1-Pad150)*%
X161290000Y-77470000D03*
%TO.P,S1,3,SCL*%
%TO.N,Net-(E1-Pad33)*%
X163830000Y-77470000D03*
%TO.P,S1,4,SDA*%
%TO.N,Net-(E1-Pad34)*%
X166370000Y-77470000D03*
%TD*%
D14*
%TO.P,H4,1,1*%
%TO.N,Net-(J1-Pad10)*%
X185420000Y-109220000D03*
%TD*%
%TO.P,H2,1,1*%
%TO.N,Net-(J1-Pad10)*%
X185420000Y-78740000D03*
%TD*%
%TO.P,H1,1,1*%
%TO.N,Net-(J1-Pad10)*%
X154940000Y-78740000D03*
%TD*%
D10*
%TO.P,J2,1,ACD0*%
%TO.N,Net-(A1-Pad2)*%
X186690000Y-82550000D03*
D11*
%TO.P,J2,2,ADC1*%
%TO.N,Net-(A2-Pad2)*%
X186690000Y-85090000D03*
%TO.P,J2,3,Pin_3*%
%TO.N,Net-(A3-Pad2)*%
X186690000Y-87630000D03*
%TO.P,J2,4,Pin_4*%
%TO.N,Net-(A4-Pad2)*%
X186690000Y-90170000D03*
%TO.P,J2,5,Pin_5*%
%TO.N,Net-(A5-Pad2)*%
X186690000Y-92710000D03*
%TO.P,J2,6,Pin_6*%
%TO.N,Net-(A6-Pad2)*%
X186690000Y-95250000D03*
%TO.P,J2,7,Pin_7*%
%TO.N,Net-(E1-Pad16)*%
X186690000Y-97790000D03*
%TO.P,J2,8,Pin_8*%
%TO.N,Net-(E1-Pad15)*%
X186690000Y-100330000D03*
%TO.P,J2,9,Pin_9*%
%TO.N,Net-(E1-Pad133)*%
X186690000Y-102870000D03*
%TO.P,J2,10,Pin_10*%
%TO.N,Net-(J1-Pad10)*%
X186690000Y-105410000D03*
%TD*%
D10*
%TO.P,SW1,1,A*%
%TO.N,Net-(E1-Pad150)*%
X180340000Y-110490000D03*
D11*
%TO.P,SW1,2,B*%
%TO.N,Net-(Ch1-Pad6)*%
X177800000Y-110490000D03*
%TO.P,SW1,3*%
%TO.N,N/C*%
X175260000Y-110490000D03*
%TD*%
D13*
%TO.P,SW2,1,1*%
%TO.N,Net-(E1-Pad36)*%
X170030000Y-77415000D03*
X176530000Y-77415000D03*
%TO.P,SW2,2,2*%
%TO.N,Net-(J1-Pad10)*%
X170030000Y-81915000D03*
X176530000Y-81915000D03*
%TD*%
D15*
%TO.P,U2,1,VCC*%
%TO.N,Net-(E1-Pad133)*%
X175895000Y-100330000D03*
D16*
%TO.P,U2,2,GND*%
%TO.N,Net-(J1-Pad10)*%
X175895000Y-101600000D03*
%TO.P,U2,3,OUT*%
%TO.N,Net-(A4-Pad1)*%
X175895000Y-102870000D03*
%TD*%
D17*
%TO.P,JP1,1,A*%
%TO.N,Net-(E1-Pad18)*%
X165735000Y-101600000D03*
D18*
%TO.P,JP1,2,B*%
%TO.N,Net-(A1-Pad1)*%
X164285000Y-101600000D03*
%TD*%
D17*
%TO.P,JP2,1,A*%
%TO.N,Net-(E1-Pad17)*%
X165735000Y-104775000D03*
D18*
%TO.P,JP2,2,B*%
%TO.N,Net-(A4-Pad1)*%
X164285000Y-104775000D03*
%TD*%
D17*
%TO.P,A5,1,A*%
%TO.N,Net-(A4-Pad1)*%
X165735000Y-95250000D03*
D18*
%TO.P,A5,2,B*%
%TO.N,Net-(A5-Pad2)*%
X164285000Y-95250000D03*
%TD*%
D17*
%TO.P,A4,1,A*%
%TO.N,Net-(A4-Pad1)*%
X165735000Y-92075000D03*
D18*
%TO.P,A4,2,B*%
%TO.N,Net-(A4-Pad2)*%
X164285000Y-92075000D03*
%TD*%
D15*
%TO.P,U1,1,VCC*%
%TO.N,Net-(E1-Pad133)*%
X175895000Y-85090000D03*
D16*
%TO.P,U1,2,GND*%
%TO.N,Net-(J1-Pad10)*%
X175895000Y-86360000D03*
%TO.P,U1,3,OUT*%
%TO.N,Net-(A1-Pad1)*%
X175895000Y-87630000D03*
%TD*%
D17*
%TO.P,A2,1,A*%
%TO.N,Net-(A1-Pad1)*%
X165735000Y-85725000D03*
D18*
%TO.P,A2,2,B*%
%TO.N,Net-(A2-Pad2)*%
X164285000Y-85725000D03*
%TD*%
D17*
%TO.P,A3,1,A*%
%TO.N,Net-(A1-Pad1)*%
X165735000Y-88900000D03*
D18*
%TO.P,A3,2,B*%
%TO.N,Net-(A3-Pad2)*%
X164285000Y-88900000D03*
%TD*%
D17*
%TO.P,A6,1,A*%
%TO.N,Net-(A4-Pad1)*%
X165735000Y-98425000D03*
D18*
%TO.P,A6,2,B*%
%TO.N,Net-(A6-Pad2)*%
X164285000Y-98425000D03*
%TD*%
D17*
%TO.P,A1,1,A*%
%TO.N,Net-(A1-Pad1)*%
X165735000Y-82550000D03*
D18*
%TO.P,A1,2,B*%
%TO.N,Net-(A1-Pad2)*%
X164285000Y-82550000D03*
%TD*%
D19*
%TO.N,Net-(E1-Pad133)*%
X168651900Y-99825900D03*
%TO.N,Net-(A1-Pad2)*%
X164285000Y-81183900D03*
%TO.N,Net-(A2-Pad2)*%
X164919300Y-87251500D03*
%TO.N,Net-(A3-Pad2)*%
X164134200Y-90487500D03*
%TO.N,Net-(A4-Pad2)*%
X165866700Y-90704500D03*
%TO.N,Net-(A5-Pad2)*%
X164641300Y-93896000D03*
%TO.N,Net-(A6-Pad2)*%
X164285000Y-97069600D03*
%TO.N,Net-(Ch1-Pad3)*%
X175793500Y-106083900D03*
X166564300Y-106705800D03*
%TO.N,Net-(E1-Pad1)*%
X156117700Y-94459100D03*
%TO.N,Net-(E1-Pad2)*%
X156597100Y-92710000D03*
%TO.N,Net-(E1-Pad3)*%
X156744500Y-90454100D03*
%TO.N,Net-(E1-Pad6)*%
X162983400Y-86582600D03*
%TO.N,Net-(E1-Pad7)*%
X156117700Y-98017800D03*
%TO.N,Net-(E1-Pad33)*%
X179049200Y-81158500D03*
%TO.N,Net-(E1-Pad34)*%
X170805100Y-88145200D03*
%TO.N,Net-(J1-Pad10)*%
X173849600Y-99922200D03*
%TD*%
D20*
%TO.N,Net-(E1-Pad133)*%
X169993500Y-88870500D02*
X171105600Y-88870500D01*
X168201600Y-99375600D02*
X168201600Y-90662400D01*
X168651900Y-99825900D02*
X168201600Y-99375600D01*
X168201600Y-90662400D02*
X169993500Y-88870500D01*
X174819700Y-85156400D02*
X174819700Y-85090000D01*
X175895000Y-85090000D02*
X174819700Y-85090000D01*
X171105600Y-88870500D02*
X174819700Y-85156400D01*
%TO.N,Net-(A1-Pad2)*%
X159713100Y-82550000D02*
X155386600Y-86876500D01*
X155836900Y-98762600D02*
X155836900Y-99012200D01*
X155836900Y-99012200D02*
X158265900Y-101441200D01*
X155836800Y-98762600D02*
X155836900Y-98762600D01*
X155386600Y-98312400D02*
X155836800Y-98762600D01*
X164285000Y-82550000D02*
X164285000Y-81183900D01*
X158265900Y-101441200D02*
X160178800Y-101441200D01*
X164285000Y-82550000D02*
X159713100Y-82550000D01*
X160178800Y-101441200D02*
X161290000Y-100330000D01*
X155386600Y-86876500D02*
X155386600Y-98312400D01*
%TO.N,Net-(A1-Pad1)*%
X175895000Y-87630000D02*
X175895000Y-88480300D01*
X164285000Y-100524700D02*
X165888500Y-100524700D01*
X168651900Y-90849000D02*
X170180100Y-89320800D01*
X170180100Y-89320800D02*
X175054500Y-89320800D01*
X169409400Y-100151200D02*
X169409400Y-97673200D01*
X168651900Y-96915700D02*
X168651900Y-90849000D01*
X169409400Y-97673200D02*
X168651900Y-96915700D01*
X166639100Y-89804100D02*
X165735000Y-88900000D01*
X175054500Y-89320800D02*
X175895000Y-88480300D01*
X165735000Y-88900000D02*
X165735000Y-85725000D01*
X165888500Y-100524700D02*
X166639100Y-99774100D01*
X167440100Y-100575100D02*
X168985500Y-100575100D01*
X165735000Y-82550000D02*
X165735000Y-85725000D01*
X164285000Y-101600000D02*
X164285000Y-100524700D01*
X168985500Y-100575100D02*
X169409400Y-100151200D01*
X166639100Y-99774100D02*
X166639100Y-89804100D01*
X166639100Y-99774100D02*
X167440100Y-100575100D01*
%TO.N,Net-(A4-Pad1)*%
X175895000Y-102870000D02*
X174819700Y-102870000D01*
X163435800Y-102505400D02*
X163435800Y-100729200D01*
X165735000Y-98425000D02*
X165735000Y-95250000D01*
X164285000Y-104775000D02*
X164285000Y-104362400D01*
X165735000Y-98836200D02*
X165735000Y-98425000D01*
X164112500Y-100052500D02*
X164518700Y-100052500D01*
X165735000Y-95250000D02*
X165735000Y-92075000D01*
X164518700Y-100052500D02*
X165735000Y-98836200D01*
X163435800Y-100729200D02*
X164112500Y-100052500D01*
X164285000Y-104362400D02*
X164788900Y-103858500D01*
X164788900Y-103858500D02*
X165777400Y-102870000D01*
X164788900Y-103858500D02*
X163435800Y-102505400D01*
X165777400Y-102870000D02*
X174819700Y-102870000D01*
%TO.N,Net-(A2-Pad2)*%
X157661500Y-94797400D02*
X157661500Y-99241500D01*
X164285000Y-85754200D02*
X162786000Y-85754200D01*
X164468100Y-86800300D02*
X164919300Y-87251500D01*
X157661500Y-99241500D02*
X158750000Y-100330000D01*
X162258100Y-86883000D02*
X162377500Y-87002400D01*
X159837400Y-92560300D02*
X159837400Y-93224900D01*
X158478900Y-93980000D02*
X157661500Y-94797400D01*
X160775100Y-91622600D02*
X159837400Y-92560300D01*
X159837400Y-93224900D02*
X159082300Y-93980000D01*
X162377500Y-90625400D02*
X161380300Y-91622600D01*
X164285000Y-85754200D02*
X164285000Y-86800300D01*
X159082300Y-93980000D02*
X158478900Y-93980000D01*
X162786000Y-85754200D02*
X162258100Y-86282100D01*
X162377500Y-87002400D02*
X162377500Y-90625400D01*
X161380300Y-91622600D02*
X160775100Y-91622600D01*
X162258100Y-86282100D02*
X162258100Y-86883000D01*
X164285000Y-85725000D02*
X164285000Y-85754200D01*
X164285000Y-86800300D02*
X164468100Y-86800300D01*
%TO.N,Net-(A3-Pad2)*%
X160020000Y-95866800D02*
X160020000Y-94917700D01*
X162415200Y-93122700D02*
X162415200Y-92206500D01*
X164285000Y-88900000D02*
X164285000Y-89975300D01*
X162415200Y-92206500D02*
X164134200Y-90487500D01*
X161375300Y-94162600D02*
X162415200Y-93122700D01*
X164285000Y-89975300D02*
X164285000Y-90336700D01*
X158750000Y-97790000D02*
X158750000Y-97136800D01*
X164285000Y-90336700D02*
X164134200Y-90487500D01*
X160020000Y-94917700D02*
X160775100Y-94162600D01*
X160775100Y-94162600D02*
X161375300Y-94162600D01*
X158750000Y-97136800D02*
X160020000Y-95866800D01*
%TO.N,Net-(A4-Pad2)*%
X165362900Y-90704500D02*
X165866700Y-90704500D01*
X162742600Y-96337400D02*
X161290000Y-97790000D01*
X162742600Y-93437900D02*
X162742600Y-96337400D01*
X164285000Y-91860700D02*
X164285000Y-91895500D01*
X164285000Y-91860700D02*
X164285000Y-91782400D01*
X164285000Y-91860700D02*
X164285000Y-92075000D01*
X164285000Y-91782400D02*
X165362900Y-90704500D01*
X164285000Y-91895500D02*
X162742600Y-93437900D01*
%TO.N,Net-(A5-Pad2)*%
X164285000Y-94174700D02*
X164362600Y-94174700D01*
X164362600Y-94174700D02*
X164641300Y-93896000D01*
X164285000Y-95250000D02*
X164285000Y-94174700D01*
%TO.N,Net-(A6-Pad2)*%
X160177300Y-98257300D02*
X160177300Y-96362700D01*
X160815200Y-98895200D02*
X160177300Y-98257300D01*
X163459700Y-98425000D02*
X162989500Y-98895200D01*
X164285000Y-97349700D02*
X164285000Y-97069600D01*
X163872400Y-98425000D02*
X163459700Y-98425000D01*
X160177300Y-96362700D02*
X161290000Y-95250000D01*
X164285000Y-98425000D02*
X163872400Y-98425000D01*
X164285000Y-98425000D02*
X164285000Y-97349700D01*
X162989500Y-98895200D02*
X160815200Y-98895200D01*
%TO.N,Net-(Ch1-Pad3)*%
X175793500Y-106083900D02*
X177394000Y-106083900D01*
X181930100Y-101600000D02*
X183183400Y-100346700D01*
X181333200Y-101600000D02*
X181930100Y-101600000D01*
X180180700Y-102752500D02*
X181333200Y-101600000D01*
X163830000Y-110490000D02*
X163830000Y-109314700D01*
X181991400Y-79280300D02*
X181610000Y-79280300D01*
X180180700Y-103297200D02*
X180180700Y-102752500D01*
X183183400Y-80472300D02*
X181991400Y-79280300D01*
X183183400Y-100346700D02*
X183183400Y-80472300D01*
X163955400Y-109314700D02*
X166564300Y-106705800D01*
X181610000Y-78105000D02*
X181610000Y-79280300D01*
X163830000Y-109314700D02*
X163955400Y-109314700D01*
X177394000Y-106083900D02*
X180180700Y-103297200D01*
%TO.N,Net-(Ch1-Pad4)*%
X181610000Y-81820300D02*
X182698200Y-82908500D01*
X181934400Y-96520000D02*
X181340900Y-96520000D01*
X176187400Y-104643700D02*
X173024200Y-104643700D01*
X179584900Y-98877400D02*
X178952600Y-98877400D01*
X182698200Y-82908500D02*
X182698200Y-95756200D01*
X181340900Y-96520000D02*
X180340000Y-97520900D01*
X182698200Y-95756200D02*
X181934400Y-96520000D01*
X180340000Y-97520900D02*
X180340000Y-98122300D01*
X177420800Y-100409200D02*
X177420800Y-103410300D01*
X166370000Y-110490000D02*
X167545300Y-110490000D01*
X167545300Y-110122600D02*
X167545300Y-110490000D01*
X178952600Y-98877400D02*
X177420800Y-100409200D01*
X177420800Y-103410300D02*
X176187400Y-104643700D01*
X181610000Y-80645000D02*
X181610000Y-81820300D01*
X180340000Y-98122300D02*
X179584900Y-98877400D01*
X173024200Y-104643700D02*
X167545300Y-110122600D01*
%TO.N,Net-(E1-Pad1)*%
X160020000Y-86360000D02*
X158450700Y-86360000D01*
X158450700Y-86360000D02*
X155836900Y-88973800D01*
X161290000Y-85090000D02*
X160020000Y-86360000D01*
X155836900Y-94178300D02*
X156117700Y-94459100D01*
X155836900Y-88973800D02*
X155836900Y-94178300D01*
%TO.N,Net-(E1-Pad2)*%
X157654700Y-89695300D02*
X157654700Y-91652400D01*
X157654700Y-91652400D02*
X156597100Y-92710000D01*
X161290000Y-87630000D02*
X160020000Y-88900000D01*
X160020000Y-88900000D02*
X158450000Y-88900000D01*
X158450000Y-88900000D02*
X157654700Y-89695300D01*
%TO.N,Net-(E1-Pad3)*%
X158750000Y-87630000D02*
X156744500Y-89635500D01*
X156744500Y-89635500D02*
X156744500Y-90454100D01*
%TO.N,Net-(E1-Pad6)*%
X161290000Y-92710000D02*
X161290000Y-92694800D01*
X161290000Y-92694800D02*
X162983400Y-91001400D01*
X162983400Y-91001400D02*
X162983400Y-86582600D01*
%TO.N,Net-(E1-Pad7)*%
X157211100Y-96924400D02*
X156117700Y-98017800D01*
X158750000Y-92710000D02*
X157211100Y-94248900D01*
X157211100Y-94248900D02*
X157211100Y-96924400D01*
%TO.N,Net-(E1-Pad17)*%
X166541700Y-103968300D02*
X165735000Y-104775000D01*
X176970400Y-99889600D02*
X176970400Y-103222300D01*
X176970400Y-103222300D02*
X176224400Y-103968300D01*
X176224400Y-103968300D02*
X166541700Y-103968300D01*
X179070000Y-97790000D02*
X176970400Y-99889600D01*
%TO.N,Net-(E1-Pad18)*%
X165735000Y-101600000D02*
X173227800Y-101600000D01*
X174724900Y-100102900D02*
X174724900Y-99743600D01*
X177948500Y-96520000D02*
X180340000Y-96520000D01*
X174724900Y-99743600D02*
X177948500Y-96520000D01*
X173227800Y-101600000D02*
X174724900Y-100102900D01*
X180340000Y-96520000D02*
X181610000Y-95250000D01*
%TO.N,Net-(E1-Pad33)*%
X180340000Y-91440000D02*
X181610000Y-92710000D01*
X179049200Y-81158500D02*
X180340000Y-82449300D01*
X180340000Y-82449300D02*
X180340000Y-91440000D01*
%TO.N,Net-(E1-Pad34)*%
X166370000Y-77470000D02*
X166370000Y-78645300D01*
X166370000Y-78645300D02*
X167545300Y-79820600D01*
X167545300Y-79820600D02*
X167545300Y-84885400D01*
X167545300Y-84885400D02*
X170805100Y-88145200D01*
%TO.N,Net-(J1-Pad10)*%
X186322700Y-104234700D02*
X186690000Y-104234700D01*
X186690000Y-105410000D02*
X186690000Y-106585300D01*
X179070000Y-100330000D02*
X177982600Y-101417400D01*
X176970300Y-86360000D02*
X176970300Y-82355300D01*
X170030000Y-95885000D02*
X173849600Y-95885000D01*
X177910900Y-90561300D02*
X176970300Y-89620700D01*
X175113900Y-105094100D02*
X170085300Y-110122700D01*
X173849600Y-95885000D02*
X176530000Y-95885000D01*
X176970300Y-89620700D02*
X176970300Y-86360000D01*
X185420000Y-103332000D02*
X186322700Y-104234700D01*
X170085300Y-110122700D02*
X170085300Y-110490000D01*
X176530000Y-95885000D02*
X177910900Y-94504100D01*
X186690000Y-106585300D02*
X185420000Y-107855300D01*
X173849600Y-95885000D02*
X173849600Y-99922200D01*
X176970300Y-82355300D02*
X176530000Y-81915000D01*
X181610000Y-100330000D02*
X179070000Y-100330000D01*
X168910000Y-110490000D02*
X170085300Y-110490000D01*
X186690000Y-105410000D02*
X186690000Y-104234700D01*
X177982600Y-103485400D02*
X176373900Y-105094100D01*
X177910900Y-94504100D02*
X177910900Y-90561300D01*
X177982600Y-101417400D02*
X177982600Y-103485400D01*
X175895000Y-86360000D02*
X176970300Y-86360000D01*
X185420000Y-78740000D02*
X185420000Y-103332000D01*
X176373900Y-105094100D02*
X175113900Y-105094100D01*
X185420000Y-107855300D02*
X185420000Y-109220000D01*
%TO.N,Net-(Ch1-Pad6)*%
X175816700Y-109314700D02*
X173800600Y-109314700D01*
X171450000Y-110490000D02*
X172625300Y-110490000D01*
X173800600Y-109314700D02*
X172625300Y-110490000D01*
X176624700Y-110490000D02*
X176624700Y-110122700D01*
X176624700Y-110122700D02*
X175816700Y-109314700D01*
X177800000Y-110490000D02*
X176624700Y-110490000D01*
%TO.N,Net-(E1-Pad150)*%
X154909100Y-100393800D02*
X154909100Y-85026200D01*
X156210000Y-102870000D02*
X156210000Y-101694700D01*
X156210000Y-101694700D02*
X154909100Y-100393800D01*
X154909100Y-85026200D02*
X161290000Y-78645300D01*
X180340000Y-110490000D02*
X180340000Y-104140000D01*
X161290000Y-77470000D02*
X161290000Y-78645300D01*
X180340000Y-104140000D02*
X181610000Y-102870000D01*
%TO.N,Net-(E1-Pad35)*%
X170030000Y-91385000D02*
X176530000Y-91385000D01*
%TO.N,Net-(E1-Pad36)*%
X176530000Y-77415000D02*
X177859600Y-78744600D01*
X177859600Y-78744600D02*
X177859600Y-88959600D01*
X177859600Y-88959600D02*
X179070000Y-90170000D01*
%TD*%
M02*
