%TF.GenerationSoftware,KiCad,Pcbnew,(6.0.7)*%
%TF.CreationDate,2023-01-30T12:50:42-06:00*%
%TF.ProjectId,LASK4,4c41534b-342e-46b6-9963-61645f706362,rev?*%
%TF.SameCoordinates,Original*%
%TF.FileFunction,Copper,L1,Top*%
%TF.FilePolarity,Positive*%
%FSLAX46Y46*%
G04 Gerber Fmt 4.6, Leading zero omitted, Abs format (unit mm)*
G04 Created by KiCad (PCBNEW (6.0.7)) date 2023-01-30 12:50:42*
%MOMM*%
%LPD*%
G01*
G04 APERTURE LIST*
%TA.AperFunction,ComponentPad*%
%ADD10C,3.800000*%
%TD*%
%TA.AperFunction,ComponentPad*%
%ADD11R,1.350000X1.350000*%
%TD*%
%TA.AperFunction,ComponentPad*%
%ADD12O,1.350000X1.350000*%
%TD*%
%TA.AperFunction,ComponentPad*%
%ADD13C,2.000000*%
%TD*%
%TA.AperFunction,ComponentPad*%
%ADD14R,1.700000X1.700000*%
%TD*%
%TA.AperFunction,ComponentPad*%
%ADD15O,1.700000X1.700000*%
%TD*%
%TA.AperFunction,SMDPad,CuDef*%
%ADD16R,0.700000X1.000000*%
%TD*%
%TA.AperFunction,ComponentPad*%
%ADD17C,1.524000*%
%TD*%
%TA.AperFunction,Conductor*%
%ADD18C,0.250000*%
%TD*%
G04 APERTURE END LIST*
D10*
%TO.P,H7,1,1*%
%TO.N,GND*%
X147320000Y-76200000D03*
%TD*%
%TO.P,H6,1,1*%
%TO.N,GND*%
X189230000Y-76200000D03*
%TD*%
%TO.P,H5,1,1*%
%TO.N,GND*%
X168910000Y-76200000D03*
%TD*%
D11*
%TO.P,H4,1,VCC*%
%TO.N,+3.3V*%
X196755000Y-79375000D03*
D12*
%TO.P,H4,2,GND*%
%TO.N,GND*%
X198755000Y-79375000D03*
%TO.P,H4,3,Vout*%
%TO.N,/GPIO_5_ADC1_4*%
X200755000Y-79375000D03*
%TD*%
D13*
%TO.P,Select1,1,1*%
%TO.N,GND*%
X192890000Y-95940000D03*
X199390000Y-95940000D03*
%TO.P,Select1,2,2*%
%TO.N,/Select*%
X199390000Y-100440000D03*
X192890000Y-100440000D03*
%TD*%
D14*
%TO.P,S1,1,GND*%
%TO.N,GND*%
X163830000Y-91440000D03*
D15*
%TO.P,S1,2,VCC*%
%TO.N,+5V*%
X163830000Y-88900000D03*
%TO.P,S1,3,SCL*%
%TO.N,/SCL33*%
X163830000Y-86360000D03*
%TO.P,S1,4,SDA*%
%TO.N,/SDA34*%
X163830000Y-83820000D03*
%TD*%
D11*
%TO.P,H2,1,VCC*%
%TO.N,+3.3V*%
X156115000Y-79375000D03*
D12*
%TO.P,H2,2,GND*%
%TO.N,GND*%
X158115000Y-79375000D03*
%TO.P,H2,3,Vout*%
%TO.N,/GPIO_3_ADC1_2*%
X160115000Y-79375000D03*
%TD*%
D11*
%TO.P,H3,1,VCC*%
%TO.N,+3.3V*%
X176435000Y-79375000D03*
D12*
%TO.P,H3,2,GND*%
%TO.N,GND*%
X178435000Y-79375000D03*
%TO.P,H3,3,Vout*%
%TO.N,/GPIO_4_ADC1_3*%
X180435000Y-79375000D03*
%TD*%
D13*
%TO.P,Up1,1,1*%
%TO.N,GND*%
X187960000Y-95940000D03*
X181460000Y-95940000D03*
%TO.P,Up1,2,2*%
%TO.N,/Up*%
X187960000Y-100440000D03*
X181460000Y-100440000D03*
%TD*%
D16*
%TO.P,U1,1,VCC*%
%TO.N,unconnected-(U1-Pad1)*%
X136718000Y-77076000D03*
%TO.P,U1,2,VOUT*%
%TO.N,/GPIO_2_ADC1_1*%
X138618000Y-77076000D03*
%TO.P,U1,3,GND*%
%TO.N,GND*%
X137668000Y-74676000D03*
%TD*%
D13*
%TO.P,Down1,1,1*%
%TO.N,GND*%
X187960000Y-104775000D03*
X181460000Y-104775000D03*
%TO.P,Down1,2,2*%
%TO.N,/Down*%
X181460000Y-109275000D03*
X187960000Y-109275000D03*
%TD*%
D16*
%TO.P,U2,1,VCC*%
%TO.N,unconnected-(U2-Pad1)*%
X157165000Y-77076000D03*
%TO.P,U2,2,VOUT*%
%TO.N,/GPIO_3_ADC1_2*%
X159065000Y-77076000D03*
%TO.P,U2,3,GND*%
%TO.N,GND*%
X158115000Y-74676000D03*
%TD*%
%TO.P,U4,1,VCC*%
%TO.N,unconnected-(U4-Pad1)*%
X197805000Y-77076000D03*
%TO.P,U4,2,VOUT*%
%TO.N,/GPIO_5_ADC1_4*%
X199705000Y-77076000D03*
%TO.P,U4,3,GND*%
%TO.N,GND*%
X198755000Y-74676000D03*
%TD*%
%TO.P,U3,1,VCC*%
%TO.N,unconnected-(U3-Pad1)*%
X177485000Y-77076000D03*
%TO.P,U3,2,VOUT*%
%TO.N,/GPIO_4_ADC1_3*%
X179385000Y-77076000D03*
%TO.P,U3,3,GND*%
%TO.N,GND*%
X178435000Y-74676000D03*
%TD*%
D13*
%TO.P,Start1,1,1*%
%TO.N,GND*%
X199390000Y-104775000D03*
X192890000Y-104775000D03*
%TO.P,Start1,2,2*%
%TO.N,/Start*%
X199390000Y-109275000D03*
X192890000Y-109275000D03*
%TD*%
D11*
%TO.P,H1,1,VCC*%
%TO.N,+3.3V*%
X135700000Y-79375000D03*
D12*
%TO.P,H1,2,GND*%
%TO.N,GND*%
X137700000Y-79375000D03*
%TO.P,H1,3,Vout*%
%TO.N,/GPIO_2_ADC1_1*%
X139700000Y-79375000D03*
%TD*%
D14*
%TO.P,U5,1,VIN*%
%TO.N,+5V*%
X164465000Y-96520000D03*
D15*
%TO.P,U5,2,IN-GND*%
%TO.N,GND*%
X167005000Y-96520000D03*
%TO.P,U5,3,BAT-GND*%
%TO.N,/BatGND*%
X169545000Y-96520000D03*
%TO.P,U5,4,BAT+*%
%TO.N,/BatV3-7*%
X172085000Y-96520000D03*
%TO.P,U5,5,OUT-GND*%
%TO.N,/BatGND*%
X174625000Y-96520000D03*
%TO.P,U5,6,OUT-5V*%
%TO.N,+5V*%
X177165000Y-96520000D03*
%TD*%
D17*
%TO.P,U6,0,EN*%
%TO.N,unconnected-(U6-Pad0)*%
X135890000Y-92710000D03*
%TO.P,U6,1,ADC1_0*%
%TO.N,unconnected-(U6-Pad1)*%
X138430000Y-92710000D03*
%TO.P,U6,2,ADC1_1*%
%TO.N,/GPIO_2_ADC1_1*%
X138430000Y-95250000D03*
%TO.P,U6,3,ADC1_2*%
%TO.N,/GPIO_3_ADC1_2*%
X135890000Y-95250000D03*
%TO.P,U6,4,ADC1_3*%
%TO.N,/GPIO_4_ADC1_3*%
X138430000Y-97790000D03*
%TO.P,U6,5,ADC1_4*%
%TO.N,/GPIO_5_ADC1_4*%
X135890000Y-97790000D03*
%TO.P,U6,6,ADC1_5*%
%TO.N,unconnected-(U6-Pad6)*%
X138430000Y-100330000D03*
%TO.P,U6,7,ADC1_6*%
%TO.N,/Start*%
X135890000Y-100330000D03*
%TO.P,U6,8,ADC1_7*%
%TO.N,/Select*%
X138430000Y-102870000D03*
%TO.P,U6,9,ADC1_8*%
%TO.N,/Down*%
X135890000Y-102870000D03*
%TO.P,U6,10,ADC1_9*%
%TO.N,/Up*%
X138430000Y-105410000D03*
%TO.P,U6,11,ADC2_0*%
%TO.N,unconnected-(U6-Pad11)*%
X135890000Y-105410000D03*
%TO.P,U6,12,ADC2_1*%
%TO.N,unconnected-(U6-Pad12)*%
X135890000Y-107950000D03*
%TO.P,U6,13,ADC2_2*%
%TO.N,unconnected-(U6-Pad13)*%
X138430000Y-107950000D03*
%TO.P,U6,14,ADC2_3*%
%TO.N,unconnected-(U6-Pad14)*%
X138430000Y-110490000D03*
%TO.P,U6,15,ADC2_4*%
%TO.N,unconnected-(U6-Pad15)*%
X156210000Y-110490000D03*
%TO.P,U6,16,ADC2_5*%
%TO.N,unconnected-(U6-Pad16)*%
X158750000Y-105410000D03*
%TO.P,U6,17,ADC2_6*%
%TO.N,unconnected-(U6-Pad17)*%
X156210000Y-105410000D03*
%TO.P,U6,18,ADC2_7*%
%TO.N,unconnected-(U6-Pad18)*%
X158750000Y-102870000D03*
%TO.P,U6,21,21*%
%TO.N,unconnected-(U6-Pad21)*%
X156210000Y-102870000D03*
%TO.P,U6,33,FSPI_HD_io4*%
%TO.N,/SCL33*%
X158750000Y-100330000D03*
%TO.P,U6,34,FSPI_SCO_dqs*%
%TO.N,/SDA34*%
X156210000Y-100330000D03*
%TO.P,U6,35,FSPI_D_io6*%
%TO.N,unconnected-(U6-Pad35)*%
X158750000Y-97790000D03*
%TO.P,U6,36,FSPI_CLK_io7*%
%TO.N,unconnected-(U6-Pad36)*%
X156210000Y-97790000D03*
%TO.P,U6,37,FSPI_Q*%
%TO.N,unconnected-(U6-Pad37)*%
X158750000Y-95250000D03*
%TO.P,U6,38,FSPI_WP*%
%TO.N,unconnected-(U6-Pad38)*%
X156210000Y-95250000D03*
%TO.P,U6,39,CLK3*%
%TO.N,unconnected-(U6-Pad39)*%
X158750000Y-92710000D03*
%TO.P,U6,40,CLK2*%
%TO.N,unconnected-(U6-Pad40)*%
X156210000Y-92710000D03*
%TO.P,U6,129,GND*%
%TO.N,GND*%
X156210000Y-107950000D03*
%TO.P,U6,130,GND*%
X158750000Y-107950000D03*
%TO.P,U6,133,3.3V*%
%TO.N,+3.3V*%
X135890000Y-110490000D03*
%TO.P,U6,150,VBUS*%
%TO.N,+5V*%
X158750000Y-110490000D03*
%TD*%
D14*
%TO.P,J1,1,Pin_1*%
%TO.N,/BatGND*%
X197485000Y-87630000D03*
D15*
%TO.P,J1,2,Pin_2*%
%TO.N,/BatV3-7*%
X197485000Y-90170000D03*
%TD*%
D18*
%TO.N,/Up*%
X180300000Y-101600000D02*
X181460000Y-100440000D01*
X142240000Y-101600000D02*
X180300000Y-101600000D01*
X138430000Y-105410000D02*
X142240000Y-101600000D01*
X181460000Y-100440000D02*
X187960000Y-100440000D01*
%TO.N,/Start*%
X192890000Y-109275000D02*
X199390000Y-109275000D01*
%TO.N,/Select*%
X192890000Y-100440000D02*
X199390000Y-100440000D01*
X191564600Y-99114600D02*
X192890000Y-100440000D01*
X142185400Y-99114600D02*
X191564600Y-99114600D01*
X138430000Y-102870000D02*
X142185400Y-99114600D01*
%TO.N,+5V*%
X164638100Y-90075300D02*
X163830000Y-90075300D01*
X165005300Y-90442500D02*
X164638100Y-90075300D01*
X165005300Y-94804400D02*
X165005300Y-90442500D01*
X164465000Y-95344700D02*
X165005300Y-94804400D01*
X164465000Y-96520000D02*
X164465000Y-95344700D01*
X163830000Y-88900000D02*
X163830000Y-90075300D01*
%TO.N,/BatV3-7*%
X173260300Y-96887400D02*
X173260300Y-96520000D01*
X174068200Y-97695300D02*
X173260300Y-96887400D01*
X182330300Y-97695300D02*
X174068200Y-97695300D01*
X189855600Y-90170000D02*
X182330300Y-97695300D01*
X197485000Y-90170000D02*
X189855600Y-90170000D01*
X172085000Y-96520000D02*
X173260300Y-96520000D01*
%TO.N,/BatGND*%
X175800300Y-96152700D02*
X175800300Y-96520000D01*
X184323000Y-87630000D02*
X175800300Y-96152700D01*
X197485000Y-87630000D02*
X184323000Y-87630000D01*
X174625000Y-96520000D02*
X175800300Y-96520000D01*
%TO.N,/GPIO_5_ADC1_4*%
X199109200Y-81020800D02*
X200755000Y-79375000D01*
X164152500Y-81020800D02*
X199109200Y-81020800D01*
X148653300Y-96520000D02*
X164152500Y-81020800D01*
X137160000Y-96520000D02*
X148653300Y-96520000D01*
X135890000Y-97790000D02*
X137160000Y-96520000D01*
X200380300Y-78000000D02*
X200755000Y-78374700D01*
X200380300Y-77076000D02*
X200380300Y-78000000D01*
X199705000Y-77076000D02*
X200380300Y-77076000D01*
X200755000Y-79375000D02*
X200755000Y-78374700D01*
%TO.N,/GPIO_4_ADC1_3*%
X180060300Y-78000000D02*
X180435000Y-78374700D01*
X180060300Y-77076000D02*
X180060300Y-78000000D01*
X179385000Y-77076000D02*
X180060300Y-77076000D01*
X180435000Y-79375000D02*
X180435000Y-78374700D01*
%TO.N,/GPIO_3_ADC1_2*%
X159641600Y-77901300D02*
X159065000Y-77901300D01*
X160115000Y-78374700D02*
X159641600Y-77901300D01*
X160115000Y-79375000D02*
X160115000Y-78374700D01*
X159065000Y-77076000D02*
X159065000Y-77901300D01*
%TO.N,/GPIO_2_ADC1_1*%
X139700000Y-77482700D02*
X139293300Y-77076000D01*
X139700000Y-79375000D02*
X139700000Y-77482700D01*
X138618000Y-77076000D02*
X139293300Y-77076000D01*
%TO.N,+3.3V*%
X196755000Y-79375000D02*
X195754700Y-79375000D01*
X194754400Y-80375300D02*
X195754700Y-79375000D01*
X177435300Y-80375300D02*
X194754400Y-80375300D01*
X176435000Y-79375000D02*
X177435300Y-80375300D01*
X156115000Y-79375000D02*
X155614900Y-79375000D01*
X155614900Y-79375000D02*
X155114700Y-79375000D01*
X174434400Y-80375300D02*
X175434700Y-79375000D01*
X156615200Y-80375300D02*
X174434400Y-80375300D01*
X155614900Y-79375000D02*
X156615200Y-80375300D01*
X176435000Y-79375000D02*
X175434700Y-79375000D01*
X135700000Y-79375000D02*
X135700000Y-80375300D01*
X154114400Y-80375300D02*
X155114700Y-79375000D01*
X135700000Y-80375300D02*
X154114400Y-80375300D01*
X134779000Y-81296300D02*
X135700000Y-80375300D01*
X134779000Y-109379000D02*
X134779000Y-81296300D01*
X135890000Y-110490000D02*
X134779000Y-109379000D01*
%TO.N,/Down*%
X187960000Y-109275000D02*
X181460000Y-109275000D01*
X178865000Y-106680000D02*
X181460000Y-109275000D01*
X138152900Y-106680000D02*
X178865000Y-106680000D01*
X137342600Y-105869700D02*
X138152900Y-106680000D01*
X137342600Y-104322600D02*
X137342600Y-105869700D01*
X135890000Y-102870000D02*
X137342600Y-104322600D01*
%TO.N,GND*%
X158750000Y-107950000D02*
X156210000Y-107950000D01*
X137668000Y-74676000D02*
X137668000Y-75501300D01*
X192890000Y-104775000D02*
X187960000Y-104775000D01*
X199390000Y-104775000D02*
X192890000Y-104775000D01*
X190754000Y-74676000D02*
X189230000Y-76200000D01*
X198755000Y-74676000D02*
X190754000Y-74676000D01*
X137700000Y-76200000D02*
X147320000Y-76200000D01*
X137700000Y-79375000D02*
X137700000Y-76200000D01*
X137700000Y-75533300D02*
X137668000Y-75501300D01*
X137700000Y-76200000D02*
X137700000Y-75533300D01*
X187960000Y-95940000D02*
X192890000Y-95940000D01*
X199390000Y-95940000D02*
X192890000Y-95940000D01*
X198755000Y-79375000D02*
X198755000Y-74676000D01*
X178435000Y-76200000D02*
X189230000Y-76200000D01*
X178435000Y-79375000D02*
X178435000Y-76200000D01*
X158115000Y-79375000D02*
X158115000Y-78374700D01*
X157865100Y-76200000D02*
X147320000Y-76200000D01*
X157865100Y-75751200D02*
X157865100Y-76200000D01*
X158115000Y-75501300D02*
X157865100Y-75751200D01*
X157865100Y-78124800D02*
X158115000Y-78374700D01*
X157865100Y-76200000D02*
X157865100Y-78124800D01*
X178435000Y-76200000D02*
X178435000Y-74676000D01*
X178435000Y-76200000D02*
X168910000Y-76200000D01*
X158115000Y-74676000D02*
X158115000Y-75088600D01*
X158115000Y-75088600D02*
X158115000Y-75501300D01*
X167798600Y-75088600D02*
X168910000Y-76200000D01*
X158115000Y-75088600D02*
X167798600Y-75088600D01*
%TD*%
M02*
