%TF.GenerationSoftware,KiCad,Pcbnew,(6.0.7)*%
%TF.CreationDate,2023-01-30T12:50:34-06:00*%
%TF.ProjectId,LASK4,4c41534b-342e-46b6-9963-61645f706362,rev?*%
%TF.SameCoordinates,Original*%
%TF.FileFunction,Drillmap*%
%TF.FilePolarity,Positive*%
%FSLAX45Y45*%
G04 Gerber Fmt 4.5, Leading zero omitted, Abs format (unit mm)*
G04 Created by KiCad (PCBNEW (6.0.7)) date 2023-01-30 12:50:34*
%MOMM*%
%LPD*%
G01*
G04 APERTURE LIST*
%ADD10C,0.100000*%
%ADD11C,0.200000*%
%ADD12C,0.076200*%
%ADD13C,0.080000*%
%ADD14C,0.110000*%
%ADD15C,0.220000*%
G04 APERTURE END LIST*
D10*
X13652500Y-7239000D02*
X20002500Y-7239000D01*
X13652500Y-7239000D02*
G75*
G03*
X13398500Y-7493000I0J-254000D01*
G01*
X13398500Y-11239500D02*
X13398500Y-7493000D01*
X13398500Y-11239500D02*
G75*
G03*
X13652500Y-11493500I254000J0D01*
G01*
X20256500Y-7493000D02*
G75*
G03*
X20002500Y-7239000I-254000J0D01*
G01*
X20256500Y-7493000D02*
X20256500Y-11239500D01*
X20002500Y-11493500D02*
G75*
G03*
X20256500Y-11239500I0J254000D01*
G01*
X20002500Y-11493500D02*
X13652500Y-11493500D01*
D11*
D12*
X13550900Y-9232900D02*
X13627100Y-9309100D01*
X13627100Y-9232900D02*
X13550900Y-9309100D01*
X13550900Y-9486900D02*
X13627100Y-9563100D01*
X13627100Y-9486900D02*
X13550900Y-9563100D01*
X13550900Y-9740900D02*
X13627100Y-9817100D01*
X13627100Y-9740900D02*
X13550900Y-9817100D01*
X13550900Y-9994900D02*
X13627100Y-10071100D01*
X13627100Y-9994900D02*
X13550900Y-10071100D01*
X13550900Y-10248900D02*
X13627100Y-10325100D01*
X13627100Y-10248900D02*
X13550900Y-10325100D01*
X13550900Y-10502900D02*
X13627100Y-10579100D01*
X13627100Y-10502900D02*
X13550900Y-10579100D01*
X13550900Y-10756900D02*
X13627100Y-10833100D01*
X13627100Y-10756900D02*
X13550900Y-10833100D01*
X13550900Y-11010900D02*
X13627100Y-11087100D01*
X13627100Y-11010900D02*
X13550900Y-11087100D01*
X13804900Y-9232900D02*
X13881100Y-9309100D01*
X13881100Y-9232900D02*
X13804900Y-9309100D01*
X13804900Y-9486900D02*
X13881100Y-9563100D01*
X13881100Y-9486900D02*
X13804900Y-9563100D01*
X13804900Y-9740900D02*
X13881100Y-9817100D01*
X13881100Y-9740900D02*
X13804900Y-9817100D01*
X13804900Y-9994900D02*
X13881100Y-10071100D01*
X13881100Y-9994900D02*
X13804900Y-10071100D01*
X13804900Y-10248900D02*
X13881100Y-10325100D01*
X13881100Y-10248900D02*
X13804900Y-10325100D01*
X13804900Y-10502900D02*
X13881100Y-10579100D01*
X13881100Y-10502900D02*
X13804900Y-10579100D01*
X13804900Y-10756900D02*
X13881100Y-10833100D01*
X13881100Y-10756900D02*
X13804900Y-10833100D01*
X13804900Y-11010900D02*
X13881100Y-11087100D01*
X13881100Y-11010900D02*
X13804900Y-11087100D01*
X15582900Y-9232900D02*
X15659100Y-9309100D01*
X15659100Y-9232900D02*
X15582900Y-9309100D01*
X15582900Y-9486900D02*
X15659100Y-9563100D01*
X15659100Y-9486900D02*
X15582900Y-9563100D01*
X15582900Y-9740900D02*
X15659100Y-9817100D01*
X15659100Y-9740900D02*
X15582900Y-9817100D01*
X15582900Y-9994900D02*
X15659100Y-10071100D01*
X15659100Y-9994900D02*
X15582900Y-10071100D01*
X15582900Y-10248900D02*
X15659100Y-10325100D01*
X15659100Y-10248900D02*
X15582900Y-10325100D01*
X15582900Y-10502900D02*
X15659100Y-10579100D01*
X15659100Y-10502900D02*
X15582900Y-10579100D01*
X15582900Y-10756900D02*
X15659100Y-10833100D01*
X15659100Y-10756900D02*
X15582900Y-10833100D01*
X15582900Y-11010900D02*
X15659100Y-11087100D01*
X15659100Y-11010900D02*
X15582900Y-11087100D01*
X15836900Y-9232900D02*
X15913100Y-9309100D01*
X15913100Y-9232900D02*
X15836900Y-9309100D01*
X15836900Y-9486900D02*
X15913100Y-9563100D01*
X15913100Y-9486900D02*
X15836900Y-9563100D01*
X15836900Y-9740900D02*
X15913100Y-9817100D01*
X15913100Y-9740900D02*
X15836900Y-9817100D01*
X15836900Y-9994900D02*
X15913100Y-10071100D01*
X15913100Y-9994900D02*
X15836900Y-10071100D01*
X15836900Y-10248900D02*
X15913100Y-10325100D01*
X15913100Y-10248900D02*
X15836900Y-10325100D01*
X15836900Y-10502900D02*
X15913100Y-10579100D01*
X15913100Y-10502900D02*
X15836900Y-10579100D01*
X15836900Y-10756900D02*
X15913100Y-10833100D01*
X15913100Y-10756900D02*
X15836900Y-10833100D01*
X15836900Y-11010900D02*
X15913100Y-11087100D01*
X15913100Y-11010900D02*
X15836900Y-11087100D01*
D13*
X13610000Y-7937500D02*
G75*
G03*
X13610000Y-7937500I-40000J0D01*
G01*
X13810000Y-7937500D02*
G75*
G03*
X13810000Y-7937500I-40000J0D01*
G01*
X14010000Y-7937500D02*
G75*
G03*
X14010000Y-7937500I-40000J0D01*
G01*
X15651500Y-7937500D02*
G75*
G03*
X15651500Y-7937500I-40000J0D01*
G01*
X15851500Y-7937500D02*
G75*
G03*
X15851500Y-7937500I-40000J0D01*
G01*
X16051500Y-7937500D02*
G75*
G03*
X16051500Y-7937500I-40000J0D01*
G01*
X17683500Y-7937500D02*
G75*
G03*
X17683500Y-7937500I-40000J0D01*
G01*
X17883500Y-7937500D02*
G75*
G03*
X17883500Y-7937500I-40000J0D01*
G01*
X18083500Y-7937500D02*
G75*
G03*
X18083500Y-7937500I-40000J0D01*
G01*
X19715500Y-7937500D02*
G75*
G03*
X19715500Y-7937500I-40000J0D01*
G01*
X19915500Y-7937500D02*
G75*
G03*
X19915500Y-7937500I-40000J0D01*
G01*
X20115500Y-7937500D02*
G75*
G03*
X20115500Y-7937500I-40000J0D01*
G01*
D10*
X16383000Y-8332000D02*
X16383000Y-8432000D01*
X16333000Y-8382000D02*
X16433000Y-8382000D01*
X16383000Y-8586000D02*
X16383000Y-8686000D01*
X16333000Y-8636000D02*
X16433000Y-8636000D01*
X16383000Y-8840000D02*
X16383000Y-8940000D01*
X16333000Y-8890000D02*
X16433000Y-8890000D01*
X16383000Y-9094000D02*
X16383000Y-9194000D01*
X16333000Y-9144000D02*
X16433000Y-9144000D01*
X16446500Y-9602000D02*
X16446500Y-9702000D01*
X16396500Y-9652000D02*
X16496500Y-9652000D01*
X16700500Y-9602000D02*
X16700500Y-9702000D01*
X16650500Y-9652000D02*
X16750500Y-9652000D01*
X16954500Y-9602000D02*
X16954500Y-9702000D01*
X16904500Y-9652000D02*
X17004500Y-9652000D01*
X17208500Y-9602000D02*
X17208500Y-9702000D01*
X17158500Y-9652000D02*
X17258500Y-9652000D01*
X17462500Y-9602000D02*
X17462500Y-9702000D01*
X17412500Y-9652000D02*
X17512500Y-9652000D01*
X17716500Y-9602000D02*
X17716500Y-9702000D01*
X17666500Y-9652000D02*
X17766500Y-9652000D01*
X19748500Y-8713000D02*
X19748500Y-8813000D01*
X19698500Y-8763000D02*
X19798500Y-8763000D01*
X19748500Y-8967000D02*
X19748500Y-9067000D01*
X19698500Y-9017000D02*
X19798500Y-9017000D01*
D14*
X18184891Y-9632891D02*
X18184891Y-9555109D01*
X18107109Y-9555109D01*
X18107109Y-9632891D01*
X18184891Y-9632891D01*
X18184891Y-10082891D02*
X18184891Y-10005109D01*
X18107109Y-10005109D01*
X18107109Y-10082891D01*
X18184891Y-10082891D01*
X18184891Y-10516391D02*
X18184891Y-10438609D01*
X18107109Y-10438609D01*
X18107109Y-10516391D01*
X18184891Y-10516391D01*
X18184891Y-10966391D02*
X18184891Y-10888609D01*
X18107109Y-10888609D01*
X18107109Y-10966391D01*
X18184891Y-10966391D01*
X18834891Y-9632891D02*
X18834891Y-9555109D01*
X18757109Y-9555109D01*
X18757109Y-9632891D01*
X18834891Y-9632891D01*
X18834891Y-10082891D02*
X18834891Y-10005109D01*
X18757109Y-10005109D01*
X18757109Y-10082891D01*
X18834891Y-10082891D01*
X18834891Y-10516391D02*
X18834891Y-10438609D01*
X18757109Y-10438609D01*
X18757109Y-10516391D01*
X18834891Y-10516391D01*
X18834891Y-10966391D02*
X18834891Y-10888609D01*
X18757109Y-10888609D01*
X18757109Y-10966391D01*
X18834891Y-10966391D01*
X19327891Y-9632891D02*
X19327891Y-9555109D01*
X19250109Y-9555109D01*
X19250109Y-9632891D01*
X19327891Y-9632891D01*
X19327891Y-10082891D02*
X19327891Y-10005109D01*
X19250109Y-10005109D01*
X19250109Y-10082891D01*
X19327891Y-10082891D01*
X19327891Y-10516391D02*
X19327891Y-10438609D01*
X19250109Y-10438609D01*
X19250109Y-10516391D01*
X19327891Y-10516391D01*
X19327891Y-10966391D02*
X19327891Y-10888609D01*
X19250109Y-10888609D01*
X19250109Y-10966391D01*
X19327891Y-10966391D01*
X19977891Y-9632891D02*
X19977891Y-9555109D01*
X19900109Y-9555109D01*
X19900109Y-9632891D01*
X19977891Y-9632891D01*
X19977891Y-10082891D02*
X19977891Y-10005109D01*
X19900109Y-10005109D01*
X19900109Y-10082891D01*
X19977891Y-10082891D01*
X19977891Y-10516391D02*
X19977891Y-10438609D01*
X19900109Y-10438609D01*
X19900109Y-10516391D01*
X19977891Y-10516391D01*
X19977891Y-10966391D02*
X19977891Y-10888609D01*
X19900109Y-10888609D01*
X19900109Y-10966391D01*
X19977891Y-10966391D01*
D15*
X14732000Y-7730000D02*
X14842000Y-7620000D01*
X14732000Y-7510000D01*
X14622000Y-7620000D01*
X14732000Y-7730000D01*
X16891000Y-7730000D02*
X17001000Y-7620000D01*
X16891000Y-7510000D01*
X16781000Y-7620000D01*
X16891000Y-7730000D01*
X18923000Y-7730000D02*
X19033000Y-7620000D01*
X18923000Y-7510000D01*
X18813000Y-7620000D01*
X18923000Y-7730000D01*
D11*
X13651119Y-11808976D02*
X13651119Y-11608976D01*
X13698738Y-11608976D01*
X13727309Y-11618500D01*
X13746357Y-11637548D01*
X13755881Y-11656595D01*
X13765405Y-11694690D01*
X13765405Y-11723262D01*
X13755881Y-11761357D01*
X13746357Y-11780405D01*
X13727309Y-11799452D01*
X13698738Y-11808976D01*
X13651119Y-11808976D01*
X13851119Y-11808976D02*
X13851119Y-11675643D01*
X13851119Y-11713738D02*
X13860643Y-11694690D01*
X13870167Y-11685167D01*
X13889214Y-11675643D01*
X13908262Y-11675643D01*
X13974928Y-11808976D02*
X13974928Y-11675643D01*
X13974928Y-11608976D02*
X13965405Y-11618500D01*
X13974928Y-11628024D01*
X13984452Y-11618500D01*
X13974928Y-11608976D01*
X13974928Y-11628024D01*
X14098738Y-11808976D02*
X14079690Y-11799452D01*
X14070167Y-11780405D01*
X14070167Y-11608976D01*
X14203500Y-11808976D02*
X14184452Y-11799452D01*
X14174928Y-11780405D01*
X14174928Y-11608976D01*
X14432071Y-11808976D02*
X14432071Y-11608976D01*
X14498738Y-11751833D01*
X14565405Y-11608976D01*
X14565405Y-11808976D01*
X14746357Y-11808976D02*
X14746357Y-11704214D01*
X14736833Y-11685167D01*
X14717786Y-11675643D01*
X14679690Y-11675643D01*
X14660643Y-11685167D01*
X14746357Y-11799452D02*
X14727309Y-11808976D01*
X14679690Y-11808976D01*
X14660643Y-11799452D01*
X14651119Y-11780405D01*
X14651119Y-11761357D01*
X14660643Y-11742309D01*
X14679690Y-11732786D01*
X14727309Y-11732786D01*
X14746357Y-11723262D01*
X14841595Y-11675643D02*
X14841595Y-11875643D01*
X14841595Y-11685167D02*
X14860643Y-11675643D01*
X14898738Y-11675643D01*
X14917786Y-11685167D01*
X14927309Y-11694690D01*
X14936833Y-11713738D01*
X14936833Y-11770881D01*
X14927309Y-11789928D01*
X14917786Y-11799452D01*
X14898738Y-11808976D01*
X14860643Y-11808976D01*
X14841595Y-11799452D01*
X15022548Y-11789928D02*
X15032071Y-11799452D01*
X15022548Y-11808976D01*
X15013024Y-11799452D01*
X15022548Y-11789928D01*
X15022548Y-11808976D01*
X15022548Y-11685167D02*
X15032071Y-11694690D01*
X15022548Y-11704214D01*
X15013024Y-11694690D01*
X15022548Y-11685167D01*
X15022548Y-11704214D01*
D12*
X13317300Y-12100400D02*
X13393500Y-12176600D01*
X13393500Y-12100400D02*
X13317300Y-12176600D01*
D11*
X13689214Y-12028976D02*
X13708262Y-12028976D01*
X13727309Y-12038500D01*
X13736833Y-12048024D01*
X13746357Y-12067071D01*
X13755881Y-12105167D01*
X13755881Y-12152786D01*
X13746357Y-12190881D01*
X13736833Y-12209928D01*
X13727309Y-12219452D01*
X13708262Y-12228976D01*
X13689214Y-12228976D01*
X13670167Y-12219452D01*
X13660643Y-12209928D01*
X13651119Y-12190881D01*
X13641595Y-12152786D01*
X13641595Y-12105167D01*
X13651119Y-12067071D01*
X13660643Y-12048024D01*
X13670167Y-12038500D01*
X13689214Y-12028976D01*
X13841595Y-12209928D02*
X13851119Y-12219452D01*
X13841595Y-12228976D01*
X13832071Y-12219452D01*
X13841595Y-12209928D01*
X13841595Y-12228976D01*
X13917786Y-12028976D02*
X14051119Y-12028976D01*
X13965405Y-12228976D01*
X14213024Y-12028976D02*
X14174928Y-12028976D01*
X14155881Y-12038500D01*
X14146357Y-12048024D01*
X14127309Y-12076595D01*
X14117786Y-12114690D01*
X14117786Y-12190881D01*
X14127309Y-12209928D01*
X14136833Y-12219452D01*
X14155881Y-12228976D01*
X14193976Y-12228976D01*
X14213024Y-12219452D01*
X14222548Y-12209928D01*
X14232071Y-12190881D01*
X14232071Y-12143262D01*
X14222548Y-12124214D01*
X14213024Y-12114690D01*
X14193976Y-12105167D01*
X14155881Y-12105167D01*
X14136833Y-12114690D01*
X14127309Y-12124214D01*
X14117786Y-12143262D01*
X14308262Y-12048024D02*
X14317786Y-12038500D01*
X14336833Y-12028976D01*
X14384452Y-12028976D01*
X14403500Y-12038500D01*
X14413024Y-12048024D01*
X14422548Y-12067071D01*
X14422548Y-12086119D01*
X14413024Y-12114690D01*
X14298738Y-12228976D01*
X14422548Y-12228976D01*
X14508262Y-12228976D02*
X14508262Y-12095643D01*
X14508262Y-12114690D02*
X14517786Y-12105167D01*
X14536833Y-12095643D01*
X14565405Y-12095643D01*
X14584452Y-12105167D01*
X14593976Y-12124214D01*
X14593976Y-12228976D01*
X14593976Y-12124214D02*
X14603500Y-12105167D01*
X14622548Y-12095643D01*
X14651119Y-12095643D01*
X14670167Y-12105167D01*
X14679690Y-12124214D01*
X14679690Y-12228976D01*
X14774928Y-12228976D02*
X14774928Y-12095643D01*
X14774928Y-12114690D02*
X14784452Y-12105167D01*
X14803500Y-12095643D01*
X14832071Y-12095643D01*
X14851119Y-12105167D01*
X14860643Y-12124214D01*
X14860643Y-12228976D01*
X14860643Y-12124214D02*
X14870167Y-12105167D01*
X14889214Y-12095643D01*
X14917786Y-12095643D01*
X14936833Y-12105167D01*
X14946357Y-12124214D01*
X14946357Y-12228976D01*
X15336833Y-12019452D02*
X15165405Y-12276595D01*
X15593976Y-12028976D02*
X15613024Y-12028976D01*
X15632071Y-12038500D01*
X15641595Y-12048024D01*
X15651119Y-12067071D01*
X15660643Y-12105167D01*
X15660643Y-12152786D01*
X15651119Y-12190881D01*
X15641595Y-12209928D01*
X15632071Y-12219452D01*
X15613024Y-12228976D01*
X15593976Y-12228976D01*
X15574928Y-12219452D01*
X15565405Y-12209928D01*
X15555881Y-12190881D01*
X15546357Y-12152786D01*
X15546357Y-12105167D01*
X15555881Y-12067071D01*
X15565405Y-12048024D01*
X15574928Y-12038500D01*
X15593976Y-12028976D01*
X15746357Y-12209928D02*
X15755881Y-12219452D01*
X15746357Y-12228976D01*
X15736833Y-12219452D01*
X15746357Y-12209928D01*
X15746357Y-12228976D01*
X15879690Y-12028976D02*
X15898738Y-12028976D01*
X15917786Y-12038500D01*
X15927309Y-12048024D01*
X15936833Y-12067071D01*
X15946357Y-12105167D01*
X15946357Y-12152786D01*
X15936833Y-12190881D01*
X15927309Y-12209928D01*
X15917786Y-12219452D01*
X15898738Y-12228976D01*
X15879690Y-12228976D01*
X15860643Y-12219452D01*
X15851119Y-12209928D01*
X15841595Y-12190881D01*
X15832071Y-12152786D01*
X15832071Y-12105167D01*
X15841595Y-12067071D01*
X15851119Y-12048024D01*
X15860643Y-12038500D01*
X15879690Y-12028976D01*
X16013024Y-12028976D02*
X16136833Y-12028976D01*
X16070167Y-12105167D01*
X16098738Y-12105167D01*
X16117786Y-12114690D01*
X16127309Y-12124214D01*
X16136833Y-12143262D01*
X16136833Y-12190881D01*
X16127309Y-12209928D01*
X16117786Y-12219452D01*
X16098738Y-12228976D01*
X16041595Y-12228976D01*
X16022548Y-12219452D01*
X16013024Y-12209928D01*
X16260643Y-12028976D02*
X16279690Y-12028976D01*
X16298738Y-12038500D01*
X16308262Y-12048024D01*
X16317786Y-12067071D01*
X16327309Y-12105167D01*
X16327309Y-12152786D01*
X16317786Y-12190881D01*
X16308262Y-12209928D01*
X16298738Y-12219452D01*
X16279690Y-12228976D01*
X16260643Y-12228976D01*
X16241595Y-12219452D01*
X16232071Y-12209928D01*
X16222548Y-12190881D01*
X16213024Y-12152786D01*
X16213024Y-12105167D01*
X16222548Y-12067071D01*
X16232071Y-12048024D01*
X16241595Y-12038500D01*
X16260643Y-12028976D01*
X16451119Y-12028976D02*
X16470167Y-12028976D01*
X16489214Y-12038500D01*
X16498738Y-12048024D01*
X16508262Y-12067071D01*
X16517786Y-12105167D01*
X16517786Y-12152786D01*
X16508262Y-12190881D01*
X16498738Y-12209928D01*
X16489214Y-12219452D01*
X16470167Y-12228976D01*
X16451119Y-12228976D01*
X16432071Y-12219452D01*
X16422548Y-12209928D01*
X16413024Y-12190881D01*
X16403500Y-12152786D01*
X16403500Y-12105167D01*
X16413024Y-12067071D01*
X16422548Y-12048024D01*
X16432071Y-12038500D01*
X16451119Y-12028976D01*
X16593976Y-12028976D02*
X16593976Y-12067071D01*
X16670167Y-12028976D02*
X16670167Y-12067071D01*
X16965405Y-12305167D02*
X16955881Y-12295643D01*
X16936833Y-12267071D01*
X16927310Y-12248024D01*
X16917786Y-12219452D01*
X16908262Y-12171833D01*
X16908262Y-12133738D01*
X16917786Y-12086119D01*
X16927310Y-12057548D01*
X16936833Y-12038500D01*
X16955881Y-12009928D01*
X16965405Y-12000405D01*
X17022548Y-12028976D02*
X17146357Y-12028976D01*
X17079690Y-12105167D01*
X17108262Y-12105167D01*
X17127310Y-12114690D01*
X17136833Y-12124214D01*
X17146357Y-12143262D01*
X17146357Y-12190881D01*
X17136833Y-12209928D01*
X17127310Y-12219452D01*
X17108262Y-12228976D01*
X17051119Y-12228976D01*
X17032071Y-12219452D01*
X17022548Y-12209928D01*
X17222548Y-12048024D02*
X17232071Y-12038500D01*
X17251119Y-12028976D01*
X17298738Y-12028976D01*
X17317786Y-12038500D01*
X17327310Y-12048024D01*
X17336833Y-12067071D01*
X17336833Y-12086119D01*
X17327310Y-12114690D01*
X17213024Y-12228976D01*
X17336833Y-12228976D01*
X17574929Y-12228976D02*
X17574929Y-12028976D01*
X17660643Y-12228976D02*
X17660643Y-12124214D01*
X17651119Y-12105167D01*
X17632071Y-12095643D01*
X17603500Y-12095643D01*
X17584452Y-12105167D01*
X17574929Y-12114690D01*
X17784452Y-12228976D02*
X17765405Y-12219452D01*
X17755881Y-12209928D01*
X17746357Y-12190881D01*
X17746357Y-12133738D01*
X17755881Y-12114690D01*
X17765405Y-12105167D01*
X17784452Y-12095643D01*
X17813024Y-12095643D01*
X17832071Y-12105167D01*
X17841595Y-12114690D01*
X17851119Y-12133738D01*
X17851119Y-12190881D01*
X17841595Y-12209928D01*
X17832071Y-12219452D01*
X17813024Y-12228976D01*
X17784452Y-12228976D01*
X17965405Y-12228976D02*
X17946357Y-12219452D01*
X17936833Y-12200405D01*
X17936833Y-12028976D01*
X18117786Y-12219452D02*
X18098738Y-12228976D01*
X18060643Y-12228976D01*
X18041595Y-12219452D01*
X18032071Y-12200405D01*
X18032071Y-12124214D01*
X18041595Y-12105167D01*
X18060643Y-12095643D01*
X18098738Y-12095643D01*
X18117786Y-12105167D01*
X18127310Y-12124214D01*
X18127310Y-12143262D01*
X18032071Y-12162309D01*
X18203500Y-12219452D02*
X18222548Y-12228976D01*
X18260643Y-12228976D01*
X18279690Y-12219452D01*
X18289214Y-12200405D01*
X18289214Y-12190881D01*
X18279690Y-12171833D01*
X18260643Y-12162309D01*
X18232071Y-12162309D01*
X18213024Y-12152786D01*
X18203500Y-12133738D01*
X18203500Y-12124214D01*
X18213024Y-12105167D01*
X18232071Y-12095643D01*
X18260643Y-12095643D01*
X18279690Y-12105167D01*
X18355881Y-12305167D02*
X18365405Y-12295643D01*
X18384452Y-12267071D01*
X18393976Y-12248024D01*
X18403500Y-12219452D01*
X18413024Y-12171833D01*
X18413024Y-12133738D01*
X18403500Y-12086119D01*
X18393976Y-12057548D01*
X18384452Y-12038500D01*
X18365405Y-12009928D01*
X18355881Y-12000405D01*
D13*
X13393500Y-12402500D02*
G75*
G03*
X13393500Y-12402500I-40000J0D01*
G01*
D11*
X13689214Y-12292976D02*
X13708262Y-12292976D01*
X13727309Y-12302500D01*
X13736833Y-12312024D01*
X13746357Y-12331071D01*
X13755881Y-12369167D01*
X13755881Y-12416786D01*
X13746357Y-12454881D01*
X13736833Y-12473928D01*
X13727309Y-12483452D01*
X13708262Y-12492976D01*
X13689214Y-12492976D01*
X13670167Y-12483452D01*
X13660643Y-12473928D01*
X13651119Y-12454881D01*
X13641595Y-12416786D01*
X13641595Y-12369167D01*
X13651119Y-12331071D01*
X13660643Y-12312024D01*
X13670167Y-12302500D01*
X13689214Y-12292976D01*
X13841595Y-12473928D02*
X13851119Y-12483452D01*
X13841595Y-12492976D01*
X13832071Y-12483452D01*
X13841595Y-12473928D01*
X13841595Y-12492976D01*
X13965405Y-12378690D02*
X13946357Y-12369167D01*
X13936833Y-12359643D01*
X13927309Y-12340595D01*
X13927309Y-12331071D01*
X13936833Y-12312024D01*
X13946357Y-12302500D01*
X13965405Y-12292976D01*
X14003500Y-12292976D01*
X14022548Y-12302500D01*
X14032071Y-12312024D01*
X14041595Y-12331071D01*
X14041595Y-12340595D01*
X14032071Y-12359643D01*
X14022548Y-12369167D01*
X14003500Y-12378690D01*
X13965405Y-12378690D01*
X13946357Y-12388214D01*
X13936833Y-12397738D01*
X13927309Y-12416786D01*
X13927309Y-12454881D01*
X13936833Y-12473928D01*
X13946357Y-12483452D01*
X13965405Y-12492976D01*
X14003500Y-12492976D01*
X14022548Y-12483452D01*
X14032071Y-12473928D01*
X14041595Y-12454881D01*
X14041595Y-12416786D01*
X14032071Y-12397738D01*
X14022548Y-12388214D01*
X14003500Y-12378690D01*
X14165405Y-12292976D02*
X14184452Y-12292976D01*
X14203500Y-12302500D01*
X14213024Y-12312024D01*
X14222548Y-12331071D01*
X14232071Y-12369167D01*
X14232071Y-12416786D01*
X14222548Y-12454881D01*
X14213024Y-12473928D01*
X14203500Y-12483452D01*
X14184452Y-12492976D01*
X14165405Y-12492976D01*
X14146357Y-12483452D01*
X14136833Y-12473928D01*
X14127309Y-12454881D01*
X14117786Y-12416786D01*
X14117786Y-12369167D01*
X14127309Y-12331071D01*
X14136833Y-12312024D01*
X14146357Y-12302500D01*
X14165405Y-12292976D01*
X14355881Y-12292976D02*
X14374928Y-12292976D01*
X14393976Y-12302500D01*
X14403500Y-12312024D01*
X14413024Y-12331071D01*
X14422548Y-12369167D01*
X14422548Y-12416786D01*
X14413024Y-12454881D01*
X14403500Y-12473928D01*
X14393976Y-12483452D01*
X14374928Y-12492976D01*
X14355881Y-12492976D01*
X14336833Y-12483452D01*
X14327309Y-12473928D01*
X14317786Y-12454881D01*
X14308262Y-12416786D01*
X14308262Y-12369167D01*
X14317786Y-12331071D01*
X14327309Y-12312024D01*
X14336833Y-12302500D01*
X14355881Y-12292976D01*
X14508262Y-12492976D02*
X14508262Y-12359643D01*
X14508262Y-12378690D02*
X14517786Y-12369167D01*
X14536833Y-12359643D01*
X14565405Y-12359643D01*
X14584452Y-12369167D01*
X14593976Y-12388214D01*
X14593976Y-12492976D01*
X14593976Y-12388214D02*
X14603500Y-12369167D01*
X14622548Y-12359643D01*
X14651119Y-12359643D01*
X14670167Y-12369167D01*
X14679690Y-12388214D01*
X14679690Y-12492976D01*
X14774928Y-12492976D02*
X14774928Y-12359643D01*
X14774928Y-12378690D02*
X14784452Y-12369167D01*
X14803500Y-12359643D01*
X14832071Y-12359643D01*
X14851119Y-12369167D01*
X14860643Y-12388214D01*
X14860643Y-12492976D01*
X14860643Y-12388214D02*
X14870167Y-12369167D01*
X14889214Y-12359643D01*
X14917786Y-12359643D01*
X14936833Y-12369167D01*
X14946357Y-12388214D01*
X14946357Y-12492976D01*
X15336833Y-12283452D02*
X15165405Y-12540595D01*
X15593976Y-12292976D02*
X15613024Y-12292976D01*
X15632071Y-12302500D01*
X15641595Y-12312024D01*
X15651119Y-12331071D01*
X15660643Y-12369167D01*
X15660643Y-12416786D01*
X15651119Y-12454881D01*
X15641595Y-12473928D01*
X15632071Y-12483452D01*
X15613024Y-12492976D01*
X15593976Y-12492976D01*
X15574928Y-12483452D01*
X15565405Y-12473928D01*
X15555881Y-12454881D01*
X15546357Y-12416786D01*
X15546357Y-12369167D01*
X15555881Y-12331071D01*
X15565405Y-12312024D01*
X15574928Y-12302500D01*
X15593976Y-12292976D01*
X15746357Y-12473928D02*
X15755881Y-12483452D01*
X15746357Y-12492976D01*
X15736833Y-12483452D01*
X15746357Y-12473928D01*
X15746357Y-12492976D01*
X15879690Y-12292976D02*
X15898738Y-12292976D01*
X15917786Y-12302500D01*
X15927309Y-12312024D01*
X15936833Y-12331071D01*
X15946357Y-12369167D01*
X15946357Y-12416786D01*
X15936833Y-12454881D01*
X15927309Y-12473928D01*
X15917786Y-12483452D01*
X15898738Y-12492976D01*
X15879690Y-12492976D01*
X15860643Y-12483452D01*
X15851119Y-12473928D01*
X15841595Y-12454881D01*
X15832071Y-12416786D01*
X15832071Y-12369167D01*
X15841595Y-12331071D01*
X15851119Y-12312024D01*
X15860643Y-12302500D01*
X15879690Y-12292976D01*
X16013024Y-12292976D02*
X16136833Y-12292976D01*
X16070167Y-12369167D01*
X16098738Y-12369167D01*
X16117786Y-12378690D01*
X16127309Y-12388214D01*
X16136833Y-12407262D01*
X16136833Y-12454881D01*
X16127309Y-12473928D01*
X16117786Y-12483452D01*
X16098738Y-12492976D01*
X16041595Y-12492976D01*
X16022548Y-12483452D01*
X16013024Y-12473928D01*
X16327309Y-12492976D02*
X16213024Y-12492976D01*
X16270167Y-12492976D02*
X16270167Y-12292976D01*
X16251119Y-12321548D01*
X16232071Y-12340595D01*
X16213024Y-12350119D01*
X16508262Y-12292976D02*
X16413024Y-12292976D01*
X16403500Y-12388214D01*
X16413024Y-12378690D01*
X16432071Y-12369167D01*
X16479690Y-12369167D01*
X16498738Y-12378690D01*
X16508262Y-12388214D01*
X16517786Y-12407262D01*
X16517786Y-12454881D01*
X16508262Y-12473928D01*
X16498738Y-12483452D01*
X16479690Y-12492976D01*
X16432071Y-12492976D01*
X16413024Y-12483452D01*
X16403500Y-12473928D01*
X16593976Y-12292976D02*
X16593976Y-12331071D01*
X16670167Y-12292976D02*
X16670167Y-12331071D01*
X16965405Y-12569167D02*
X16955881Y-12559643D01*
X16936833Y-12531071D01*
X16927310Y-12512024D01*
X16917786Y-12483452D01*
X16908262Y-12435833D01*
X16908262Y-12397738D01*
X16917786Y-12350119D01*
X16927310Y-12321548D01*
X16936833Y-12302500D01*
X16955881Y-12273928D01*
X16965405Y-12264405D01*
X17146357Y-12492976D02*
X17032071Y-12492976D01*
X17089214Y-12492976D02*
X17089214Y-12292976D01*
X17070167Y-12321548D01*
X17051119Y-12340595D01*
X17032071Y-12350119D01*
X17222548Y-12312024D02*
X17232071Y-12302500D01*
X17251119Y-12292976D01*
X17298738Y-12292976D01*
X17317786Y-12302500D01*
X17327310Y-12312024D01*
X17336833Y-12331071D01*
X17336833Y-12350119D01*
X17327310Y-12378690D01*
X17213024Y-12492976D01*
X17336833Y-12492976D01*
X17574929Y-12492976D02*
X17574929Y-12292976D01*
X17660643Y-12492976D02*
X17660643Y-12388214D01*
X17651119Y-12369167D01*
X17632071Y-12359643D01*
X17603500Y-12359643D01*
X17584452Y-12369167D01*
X17574929Y-12378690D01*
X17784452Y-12492976D02*
X17765405Y-12483452D01*
X17755881Y-12473928D01*
X17746357Y-12454881D01*
X17746357Y-12397738D01*
X17755881Y-12378690D01*
X17765405Y-12369167D01*
X17784452Y-12359643D01*
X17813024Y-12359643D01*
X17832071Y-12369167D01*
X17841595Y-12378690D01*
X17851119Y-12397738D01*
X17851119Y-12454881D01*
X17841595Y-12473928D01*
X17832071Y-12483452D01*
X17813024Y-12492976D01*
X17784452Y-12492976D01*
X17965405Y-12492976D02*
X17946357Y-12483452D01*
X17936833Y-12464405D01*
X17936833Y-12292976D01*
X18117786Y-12483452D02*
X18098738Y-12492976D01*
X18060643Y-12492976D01*
X18041595Y-12483452D01*
X18032071Y-12464405D01*
X18032071Y-12388214D01*
X18041595Y-12369167D01*
X18060643Y-12359643D01*
X18098738Y-12359643D01*
X18117786Y-12369167D01*
X18127310Y-12388214D01*
X18127310Y-12407262D01*
X18032071Y-12426309D01*
X18203500Y-12483452D02*
X18222548Y-12492976D01*
X18260643Y-12492976D01*
X18279690Y-12483452D01*
X18289214Y-12464405D01*
X18289214Y-12454881D01*
X18279690Y-12435833D01*
X18260643Y-12426309D01*
X18232071Y-12426309D01*
X18213024Y-12416786D01*
X18203500Y-12397738D01*
X18203500Y-12388214D01*
X18213024Y-12369167D01*
X18232071Y-12359643D01*
X18260643Y-12359643D01*
X18279690Y-12369167D01*
X18355881Y-12569167D02*
X18365405Y-12559643D01*
X18384452Y-12531071D01*
X18393976Y-12512024D01*
X18403500Y-12483452D01*
X18413024Y-12435833D01*
X18413024Y-12397738D01*
X18403500Y-12350119D01*
X18393976Y-12321548D01*
X18384452Y-12302500D01*
X18365405Y-12273928D01*
X18355881Y-12264405D01*
D10*
X13343500Y-12616500D02*
X13343500Y-12716500D01*
X13293500Y-12666500D02*
X13393500Y-12666500D01*
D11*
X13755881Y-12756976D02*
X13641595Y-12756976D01*
X13698738Y-12756976D02*
X13698738Y-12556976D01*
X13679690Y-12585548D01*
X13660643Y-12604595D01*
X13641595Y-12614119D01*
X13841595Y-12737928D02*
X13851119Y-12747452D01*
X13841595Y-12756976D01*
X13832071Y-12747452D01*
X13841595Y-12737928D01*
X13841595Y-12756976D01*
X13974928Y-12556976D02*
X13993976Y-12556976D01*
X14013024Y-12566500D01*
X14022548Y-12576024D01*
X14032071Y-12595071D01*
X14041595Y-12633167D01*
X14041595Y-12680786D01*
X14032071Y-12718881D01*
X14022548Y-12737928D01*
X14013024Y-12747452D01*
X13993976Y-12756976D01*
X13974928Y-12756976D01*
X13955881Y-12747452D01*
X13946357Y-12737928D01*
X13936833Y-12718881D01*
X13927309Y-12680786D01*
X13927309Y-12633167D01*
X13936833Y-12595071D01*
X13946357Y-12576024D01*
X13955881Y-12566500D01*
X13974928Y-12556976D01*
X14165405Y-12556976D02*
X14184452Y-12556976D01*
X14203500Y-12566500D01*
X14213024Y-12576024D01*
X14222548Y-12595071D01*
X14232071Y-12633167D01*
X14232071Y-12680786D01*
X14222548Y-12718881D01*
X14213024Y-12737928D01*
X14203500Y-12747452D01*
X14184452Y-12756976D01*
X14165405Y-12756976D01*
X14146357Y-12747452D01*
X14136833Y-12737928D01*
X14127309Y-12718881D01*
X14117786Y-12680786D01*
X14117786Y-12633167D01*
X14127309Y-12595071D01*
X14136833Y-12576024D01*
X14146357Y-12566500D01*
X14165405Y-12556976D01*
X14355881Y-12556976D02*
X14374928Y-12556976D01*
X14393976Y-12566500D01*
X14403500Y-12576024D01*
X14413024Y-12595071D01*
X14422548Y-12633167D01*
X14422548Y-12680786D01*
X14413024Y-12718881D01*
X14403500Y-12737928D01*
X14393976Y-12747452D01*
X14374928Y-12756976D01*
X14355881Y-12756976D01*
X14336833Y-12747452D01*
X14327309Y-12737928D01*
X14317786Y-12718881D01*
X14308262Y-12680786D01*
X14308262Y-12633167D01*
X14317786Y-12595071D01*
X14327309Y-12576024D01*
X14336833Y-12566500D01*
X14355881Y-12556976D01*
X14508262Y-12756976D02*
X14508262Y-12623643D01*
X14508262Y-12642690D02*
X14517786Y-12633167D01*
X14536833Y-12623643D01*
X14565405Y-12623643D01*
X14584452Y-12633167D01*
X14593976Y-12652214D01*
X14593976Y-12756976D01*
X14593976Y-12652214D02*
X14603500Y-12633167D01*
X14622548Y-12623643D01*
X14651119Y-12623643D01*
X14670167Y-12633167D01*
X14679690Y-12652214D01*
X14679690Y-12756976D01*
X14774928Y-12756976D02*
X14774928Y-12623643D01*
X14774928Y-12642690D02*
X14784452Y-12633167D01*
X14803500Y-12623643D01*
X14832071Y-12623643D01*
X14851119Y-12633167D01*
X14860643Y-12652214D01*
X14860643Y-12756976D01*
X14860643Y-12652214D02*
X14870167Y-12633167D01*
X14889214Y-12623643D01*
X14917786Y-12623643D01*
X14936833Y-12633167D01*
X14946357Y-12652214D01*
X14946357Y-12756976D01*
X15336833Y-12547452D02*
X15165405Y-12804595D01*
X15593976Y-12556976D02*
X15613024Y-12556976D01*
X15632071Y-12566500D01*
X15641595Y-12576024D01*
X15651119Y-12595071D01*
X15660643Y-12633167D01*
X15660643Y-12680786D01*
X15651119Y-12718881D01*
X15641595Y-12737928D01*
X15632071Y-12747452D01*
X15613024Y-12756976D01*
X15593976Y-12756976D01*
X15574928Y-12747452D01*
X15565405Y-12737928D01*
X15555881Y-12718881D01*
X15546357Y-12680786D01*
X15546357Y-12633167D01*
X15555881Y-12595071D01*
X15565405Y-12576024D01*
X15574928Y-12566500D01*
X15593976Y-12556976D01*
X15746357Y-12737928D02*
X15755881Y-12747452D01*
X15746357Y-12756976D01*
X15736833Y-12747452D01*
X15746357Y-12737928D01*
X15746357Y-12756976D01*
X15879690Y-12556976D02*
X15898738Y-12556976D01*
X15917786Y-12566500D01*
X15927309Y-12576024D01*
X15936833Y-12595071D01*
X15946357Y-12633167D01*
X15946357Y-12680786D01*
X15936833Y-12718881D01*
X15927309Y-12737928D01*
X15917786Y-12747452D01*
X15898738Y-12756976D01*
X15879690Y-12756976D01*
X15860643Y-12747452D01*
X15851119Y-12737928D01*
X15841595Y-12718881D01*
X15832071Y-12680786D01*
X15832071Y-12633167D01*
X15841595Y-12595071D01*
X15851119Y-12576024D01*
X15860643Y-12566500D01*
X15879690Y-12556976D01*
X16013024Y-12556976D02*
X16136833Y-12556976D01*
X16070167Y-12633167D01*
X16098738Y-12633167D01*
X16117786Y-12642690D01*
X16127309Y-12652214D01*
X16136833Y-12671262D01*
X16136833Y-12718881D01*
X16127309Y-12737928D01*
X16117786Y-12747452D01*
X16098738Y-12756976D01*
X16041595Y-12756976D01*
X16022548Y-12747452D01*
X16013024Y-12737928D01*
X16232071Y-12756976D02*
X16270167Y-12756976D01*
X16289214Y-12747452D01*
X16298738Y-12737928D01*
X16317786Y-12709357D01*
X16327309Y-12671262D01*
X16327309Y-12595071D01*
X16317786Y-12576024D01*
X16308262Y-12566500D01*
X16289214Y-12556976D01*
X16251119Y-12556976D01*
X16232071Y-12566500D01*
X16222548Y-12576024D01*
X16213024Y-12595071D01*
X16213024Y-12642690D01*
X16222548Y-12661738D01*
X16232071Y-12671262D01*
X16251119Y-12680786D01*
X16289214Y-12680786D01*
X16308262Y-12671262D01*
X16317786Y-12661738D01*
X16327309Y-12642690D01*
X16498738Y-12623643D02*
X16498738Y-12756976D01*
X16451119Y-12547452D02*
X16403500Y-12690309D01*
X16527309Y-12690309D01*
X16593976Y-12556976D02*
X16593976Y-12595071D01*
X16670167Y-12556976D02*
X16670167Y-12595071D01*
X16965405Y-12833167D02*
X16955881Y-12823643D01*
X16936833Y-12795071D01*
X16927310Y-12776024D01*
X16917786Y-12747452D01*
X16908262Y-12699833D01*
X16908262Y-12661738D01*
X16917786Y-12614119D01*
X16927310Y-12585548D01*
X16936833Y-12566500D01*
X16955881Y-12537928D01*
X16965405Y-12528405D01*
X17146357Y-12756976D02*
X17032071Y-12756976D01*
X17089214Y-12756976D02*
X17089214Y-12556976D01*
X17070167Y-12585548D01*
X17051119Y-12604595D01*
X17032071Y-12614119D01*
X17222548Y-12576024D02*
X17232071Y-12566500D01*
X17251119Y-12556976D01*
X17298738Y-12556976D01*
X17317786Y-12566500D01*
X17327310Y-12576024D01*
X17336833Y-12595071D01*
X17336833Y-12614119D01*
X17327310Y-12642690D01*
X17213024Y-12756976D01*
X17336833Y-12756976D01*
X17574929Y-12756976D02*
X17574929Y-12556976D01*
X17660643Y-12756976D02*
X17660643Y-12652214D01*
X17651119Y-12633167D01*
X17632071Y-12623643D01*
X17603500Y-12623643D01*
X17584452Y-12633167D01*
X17574929Y-12642690D01*
X17784452Y-12756976D02*
X17765405Y-12747452D01*
X17755881Y-12737928D01*
X17746357Y-12718881D01*
X17746357Y-12661738D01*
X17755881Y-12642690D01*
X17765405Y-12633167D01*
X17784452Y-12623643D01*
X17813024Y-12623643D01*
X17832071Y-12633167D01*
X17841595Y-12642690D01*
X17851119Y-12661738D01*
X17851119Y-12718881D01*
X17841595Y-12737928D01*
X17832071Y-12747452D01*
X17813024Y-12756976D01*
X17784452Y-12756976D01*
X17965405Y-12756976D02*
X17946357Y-12747452D01*
X17936833Y-12728405D01*
X17936833Y-12556976D01*
X18117786Y-12747452D02*
X18098738Y-12756976D01*
X18060643Y-12756976D01*
X18041595Y-12747452D01*
X18032071Y-12728405D01*
X18032071Y-12652214D01*
X18041595Y-12633167D01*
X18060643Y-12623643D01*
X18098738Y-12623643D01*
X18117786Y-12633167D01*
X18127310Y-12652214D01*
X18127310Y-12671262D01*
X18032071Y-12690309D01*
X18203500Y-12747452D02*
X18222548Y-12756976D01*
X18260643Y-12756976D01*
X18279690Y-12747452D01*
X18289214Y-12728405D01*
X18289214Y-12718881D01*
X18279690Y-12699833D01*
X18260643Y-12690309D01*
X18232071Y-12690309D01*
X18213024Y-12680786D01*
X18203500Y-12661738D01*
X18203500Y-12652214D01*
X18213024Y-12633167D01*
X18232071Y-12623643D01*
X18260643Y-12623643D01*
X18279690Y-12633167D01*
X18355881Y-12833167D02*
X18365405Y-12823643D01*
X18384452Y-12795071D01*
X18393976Y-12776024D01*
X18403500Y-12747452D01*
X18413024Y-12699833D01*
X18413024Y-12661738D01*
X18403500Y-12614119D01*
X18393976Y-12585548D01*
X18384452Y-12566500D01*
X18365405Y-12537928D01*
X18355881Y-12528405D01*
D14*
X13377391Y-12969391D02*
X13377391Y-12891609D01*
X13299609Y-12891609D01*
X13299609Y-12969391D01*
X13377391Y-12969391D01*
D11*
X13755881Y-13020976D02*
X13641595Y-13020976D01*
X13698738Y-13020976D02*
X13698738Y-12820976D01*
X13679690Y-12849548D01*
X13660643Y-12868595D01*
X13641595Y-12878119D01*
X13841595Y-13001928D02*
X13851119Y-13011452D01*
X13841595Y-13020976D01*
X13832071Y-13011452D01*
X13841595Y-13001928D01*
X13841595Y-13020976D01*
X14041595Y-13020976D02*
X13927309Y-13020976D01*
X13984452Y-13020976D02*
X13984452Y-12820976D01*
X13965405Y-12849548D01*
X13946357Y-12868595D01*
X13927309Y-12878119D01*
X14165405Y-12820976D02*
X14184452Y-12820976D01*
X14203500Y-12830500D01*
X14213024Y-12840024D01*
X14222548Y-12859071D01*
X14232071Y-12897167D01*
X14232071Y-12944786D01*
X14222548Y-12982881D01*
X14213024Y-13001928D01*
X14203500Y-13011452D01*
X14184452Y-13020976D01*
X14165405Y-13020976D01*
X14146357Y-13011452D01*
X14136833Y-13001928D01*
X14127309Y-12982881D01*
X14117786Y-12944786D01*
X14117786Y-12897167D01*
X14127309Y-12859071D01*
X14136833Y-12840024D01*
X14146357Y-12830500D01*
X14165405Y-12820976D01*
X14355881Y-12820976D02*
X14374928Y-12820976D01*
X14393976Y-12830500D01*
X14403500Y-12840024D01*
X14413024Y-12859071D01*
X14422548Y-12897167D01*
X14422548Y-12944786D01*
X14413024Y-12982881D01*
X14403500Y-13001928D01*
X14393976Y-13011452D01*
X14374928Y-13020976D01*
X14355881Y-13020976D01*
X14336833Y-13011452D01*
X14327309Y-13001928D01*
X14317786Y-12982881D01*
X14308262Y-12944786D01*
X14308262Y-12897167D01*
X14317786Y-12859071D01*
X14327309Y-12840024D01*
X14336833Y-12830500D01*
X14355881Y-12820976D01*
X14508262Y-13020976D02*
X14508262Y-12887643D01*
X14508262Y-12906690D02*
X14517786Y-12897167D01*
X14536833Y-12887643D01*
X14565405Y-12887643D01*
X14584452Y-12897167D01*
X14593976Y-12916214D01*
X14593976Y-13020976D01*
X14593976Y-12916214D02*
X14603500Y-12897167D01*
X14622548Y-12887643D01*
X14651119Y-12887643D01*
X14670167Y-12897167D01*
X14679690Y-12916214D01*
X14679690Y-13020976D01*
X14774928Y-13020976D02*
X14774928Y-12887643D01*
X14774928Y-12906690D02*
X14784452Y-12897167D01*
X14803500Y-12887643D01*
X14832071Y-12887643D01*
X14851119Y-12897167D01*
X14860643Y-12916214D01*
X14860643Y-13020976D01*
X14860643Y-12916214D02*
X14870167Y-12897167D01*
X14889214Y-12887643D01*
X14917786Y-12887643D01*
X14936833Y-12897167D01*
X14946357Y-12916214D01*
X14946357Y-13020976D01*
X15336833Y-12811452D02*
X15165405Y-13068595D01*
X15593976Y-12820976D02*
X15613024Y-12820976D01*
X15632071Y-12830500D01*
X15641595Y-12840024D01*
X15651119Y-12859071D01*
X15660643Y-12897167D01*
X15660643Y-12944786D01*
X15651119Y-12982881D01*
X15641595Y-13001928D01*
X15632071Y-13011452D01*
X15613024Y-13020976D01*
X15593976Y-13020976D01*
X15574928Y-13011452D01*
X15565405Y-13001928D01*
X15555881Y-12982881D01*
X15546357Y-12944786D01*
X15546357Y-12897167D01*
X15555881Y-12859071D01*
X15565405Y-12840024D01*
X15574928Y-12830500D01*
X15593976Y-12820976D01*
X15746357Y-13001928D02*
X15755881Y-13011452D01*
X15746357Y-13020976D01*
X15736833Y-13011452D01*
X15746357Y-13001928D01*
X15746357Y-13020976D01*
X15879690Y-12820976D02*
X15898738Y-12820976D01*
X15917786Y-12830500D01*
X15927309Y-12840024D01*
X15936833Y-12859071D01*
X15946357Y-12897167D01*
X15946357Y-12944786D01*
X15936833Y-12982881D01*
X15927309Y-13001928D01*
X15917786Y-13011452D01*
X15898738Y-13020976D01*
X15879690Y-13020976D01*
X15860643Y-13011452D01*
X15851119Y-13001928D01*
X15841595Y-12982881D01*
X15832071Y-12944786D01*
X15832071Y-12897167D01*
X15841595Y-12859071D01*
X15851119Y-12840024D01*
X15860643Y-12830500D01*
X15879690Y-12820976D01*
X16117786Y-12887643D02*
X16117786Y-13020976D01*
X16070167Y-12811452D02*
X16022548Y-12954309D01*
X16146357Y-12954309D01*
X16203500Y-12820976D02*
X16327309Y-12820976D01*
X16260643Y-12897167D01*
X16289214Y-12897167D01*
X16308262Y-12906690D01*
X16317786Y-12916214D01*
X16327309Y-12935262D01*
X16327309Y-12982881D01*
X16317786Y-13001928D01*
X16308262Y-13011452D01*
X16289214Y-13020976D01*
X16232071Y-13020976D01*
X16213024Y-13011452D01*
X16203500Y-13001928D01*
X16393976Y-12820976D02*
X16517786Y-12820976D01*
X16451119Y-12897167D01*
X16479690Y-12897167D01*
X16498738Y-12906690D01*
X16508262Y-12916214D01*
X16517786Y-12935262D01*
X16517786Y-12982881D01*
X16508262Y-13001928D01*
X16498738Y-13011452D01*
X16479690Y-13020976D01*
X16422548Y-13020976D01*
X16403500Y-13011452D01*
X16393976Y-13001928D01*
X16593976Y-12820976D02*
X16593976Y-12859071D01*
X16670167Y-12820976D02*
X16670167Y-12859071D01*
X16965405Y-13097167D02*
X16955881Y-13087643D01*
X16936833Y-13059071D01*
X16927310Y-13040024D01*
X16917786Y-13011452D01*
X16908262Y-12963833D01*
X16908262Y-12925738D01*
X16917786Y-12878119D01*
X16927310Y-12849548D01*
X16936833Y-12830500D01*
X16955881Y-12801928D01*
X16965405Y-12792405D01*
X17146357Y-13020976D02*
X17032071Y-13020976D01*
X17089214Y-13020976D02*
X17089214Y-12820976D01*
X17070167Y-12849548D01*
X17051119Y-12868595D01*
X17032071Y-12878119D01*
X17317786Y-12820976D02*
X17279690Y-12820976D01*
X17260643Y-12830500D01*
X17251119Y-12840024D01*
X17232071Y-12868595D01*
X17222548Y-12906690D01*
X17222548Y-12982881D01*
X17232071Y-13001928D01*
X17241595Y-13011452D01*
X17260643Y-13020976D01*
X17298738Y-13020976D01*
X17317786Y-13011452D01*
X17327310Y-13001928D01*
X17336833Y-12982881D01*
X17336833Y-12935262D01*
X17327310Y-12916214D01*
X17317786Y-12906690D01*
X17298738Y-12897167D01*
X17260643Y-12897167D01*
X17241595Y-12906690D01*
X17232071Y-12916214D01*
X17222548Y-12935262D01*
X17574929Y-13020976D02*
X17574929Y-12820976D01*
X17660643Y-13020976D02*
X17660643Y-12916214D01*
X17651119Y-12897167D01*
X17632071Y-12887643D01*
X17603500Y-12887643D01*
X17584452Y-12897167D01*
X17574929Y-12906690D01*
X17784452Y-13020976D02*
X17765405Y-13011452D01*
X17755881Y-13001928D01*
X17746357Y-12982881D01*
X17746357Y-12925738D01*
X17755881Y-12906690D01*
X17765405Y-12897167D01*
X17784452Y-12887643D01*
X17813024Y-12887643D01*
X17832071Y-12897167D01*
X17841595Y-12906690D01*
X17851119Y-12925738D01*
X17851119Y-12982881D01*
X17841595Y-13001928D01*
X17832071Y-13011452D01*
X17813024Y-13020976D01*
X17784452Y-13020976D01*
X17965405Y-13020976D02*
X17946357Y-13011452D01*
X17936833Y-12992405D01*
X17936833Y-12820976D01*
X18117786Y-13011452D02*
X18098738Y-13020976D01*
X18060643Y-13020976D01*
X18041595Y-13011452D01*
X18032071Y-12992405D01*
X18032071Y-12916214D01*
X18041595Y-12897167D01*
X18060643Y-12887643D01*
X18098738Y-12887643D01*
X18117786Y-12897167D01*
X18127310Y-12916214D01*
X18127310Y-12935262D01*
X18032071Y-12954309D01*
X18203500Y-13011452D02*
X18222548Y-13020976D01*
X18260643Y-13020976D01*
X18279690Y-13011452D01*
X18289214Y-12992405D01*
X18289214Y-12982881D01*
X18279690Y-12963833D01*
X18260643Y-12954309D01*
X18232071Y-12954309D01*
X18213024Y-12944786D01*
X18203500Y-12925738D01*
X18203500Y-12916214D01*
X18213024Y-12897167D01*
X18232071Y-12887643D01*
X18260643Y-12887643D01*
X18279690Y-12897167D01*
X18355881Y-13097167D02*
X18365405Y-13087643D01*
X18384452Y-13059071D01*
X18393976Y-13040024D01*
X18403500Y-13011452D01*
X18413024Y-12963833D01*
X18413024Y-12925738D01*
X18403500Y-12878119D01*
X18393976Y-12849548D01*
X18384452Y-12830500D01*
X18365405Y-12801928D01*
X18355881Y-12792405D01*
X13293500Y-13294500D02*
X13393500Y-13194500D01*
X13293500Y-13094500D01*
X13193500Y-13194500D01*
X13293500Y-13294500D01*
X13641595Y-13104024D02*
X13651119Y-13094500D01*
X13670167Y-13084976D01*
X13717786Y-13084976D01*
X13736833Y-13094500D01*
X13746357Y-13104024D01*
X13755881Y-13123071D01*
X13755881Y-13142119D01*
X13746357Y-13170690D01*
X13632071Y-13284976D01*
X13755881Y-13284976D01*
X13841595Y-13265928D02*
X13851119Y-13275452D01*
X13841595Y-13284976D01*
X13832071Y-13275452D01*
X13841595Y-13265928D01*
X13841595Y-13284976D01*
X13927309Y-13104024D02*
X13936833Y-13094500D01*
X13955881Y-13084976D01*
X14003500Y-13084976D01*
X14022548Y-13094500D01*
X14032071Y-13104024D01*
X14041595Y-13123071D01*
X14041595Y-13142119D01*
X14032071Y-13170690D01*
X13917786Y-13284976D01*
X14041595Y-13284976D01*
X14165405Y-13084976D02*
X14184452Y-13084976D01*
X14203500Y-13094500D01*
X14213024Y-13104024D01*
X14222548Y-13123071D01*
X14232071Y-13161167D01*
X14232071Y-13208786D01*
X14222548Y-13246881D01*
X14213024Y-13265928D01*
X14203500Y-13275452D01*
X14184452Y-13284976D01*
X14165405Y-13284976D01*
X14146357Y-13275452D01*
X14136833Y-13265928D01*
X14127309Y-13246881D01*
X14117786Y-13208786D01*
X14117786Y-13161167D01*
X14127309Y-13123071D01*
X14136833Y-13104024D01*
X14146357Y-13094500D01*
X14165405Y-13084976D01*
X14355881Y-13084976D02*
X14374928Y-13084976D01*
X14393976Y-13094500D01*
X14403500Y-13104024D01*
X14413024Y-13123071D01*
X14422548Y-13161167D01*
X14422548Y-13208786D01*
X14413024Y-13246881D01*
X14403500Y-13265928D01*
X14393976Y-13275452D01*
X14374928Y-13284976D01*
X14355881Y-13284976D01*
X14336833Y-13275452D01*
X14327309Y-13265928D01*
X14317786Y-13246881D01*
X14308262Y-13208786D01*
X14308262Y-13161167D01*
X14317786Y-13123071D01*
X14327309Y-13104024D01*
X14336833Y-13094500D01*
X14355881Y-13084976D01*
X14508262Y-13284976D02*
X14508262Y-13151643D01*
X14508262Y-13170690D02*
X14517786Y-13161167D01*
X14536833Y-13151643D01*
X14565405Y-13151643D01*
X14584452Y-13161167D01*
X14593976Y-13180214D01*
X14593976Y-13284976D01*
X14593976Y-13180214D02*
X14603500Y-13161167D01*
X14622548Y-13151643D01*
X14651119Y-13151643D01*
X14670167Y-13161167D01*
X14679690Y-13180214D01*
X14679690Y-13284976D01*
X14774928Y-13284976D02*
X14774928Y-13151643D01*
X14774928Y-13170690D02*
X14784452Y-13161167D01*
X14803500Y-13151643D01*
X14832071Y-13151643D01*
X14851119Y-13161167D01*
X14860643Y-13180214D01*
X14860643Y-13284976D01*
X14860643Y-13180214D02*
X14870167Y-13161167D01*
X14889214Y-13151643D01*
X14917786Y-13151643D01*
X14936833Y-13161167D01*
X14946357Y-13180214D01*
X14946357Y-13284976D01*
X15336833Y-13075452D02*
X15165405Y-13332595D01*
X15593976Y-13084976D02*
X15613024Y-13084976D01*
X15632071Y-13094500D01*
X15641595Y-13104024D01*
X15651119Y-13123071D01*
X15660643Y-13161167D01*
X15660643Y-13208786D01*
X15651119Y-13246881D01*
X15641595Y-13265928D01*
X15632071Y-13275452D01*
X15613024Y-13284976D01*
X15593976Y-13284976D01*
X15574928Y-13275452D01*
X15565405Y-13265928D01*
X15555881Y-13246881D01*
X15546357Y-13208786D01*
X15546357Y-13161167D01*
X15555881Y-13123071D01*
X15565405Y-13104024D01*
X15574928Y-13094500D01*
X15593976Y-13084976D01*
X15746357Y-13265928D02*
X15755881Y-13275452D01*
X15746357Y-13284976D01*
X15736833Y-13275452D01*
X15746357Y-13265928D01*
X15746357Y-13284976D01*
X15879690Y-13084976D02*
X15898738Y-13084976D01*
X15917786Y-13094500D01*
X15927309Y-13104024D01*
X15936833Y-13123071D01*
X15946357Y-13161167D01*
X15946357Y-13208786D01*
X15936833Y-13246881D01*
X15927309Y-13265928D01*
X15917786Y-13275452D01*
X15898738Y-13284976D01*
X15879690Y-13284976D01*
X15860643Y-13275452D01*
X15851119Y-13265928D01*
X15841595Y-13246881D01*
X15832071Y-13208786D01*
X15832071Y-13161167D01*
X15841595Y-13123071D01*
X15851119Y-13104024D01*
X15860643Y-13094500D01*
X15879690Y-13084976D01*
X16060643Y-13170690D02*
X16041595Y-13161167D01*
X16032071Y-13151643D01*
X16022548Y-13132595D01*
X16022548Y-13123071D01*
X16032071Y-13104024D01*
X16041595Y-13094500D01*
X16060643Y-13084976D01*
X16098738Y-13084976D01*
X16117786Y-13094500D01*
X16127309Y-13104024D01*
X16136833Y-13123071D01*
X16136833Y-13132595D01*
X16127309Y-13151643D01*
X16117786Y-13161167D01*
X16098738Y-13170690D01*
X16060643Y-13170690D01*
X16041595Y-13180214D01*
X16032071Y-13189738D01*
X16022548Y-13208786D01*
X16022548Y-13246881D01*
X16032071Y-13265928D01*
X16041595Y-13275452D01*
X16060643Y-13284976D01*
X16098738Y-13284976D01*
X16117786Y-13275452D01*
X16127309Y-13265928D01*
X16136833Y-13246881D01*
X16136833Y-13208786D01*
X16127309Y-13189738D01*
X16117786Y-13180214D01*
X16098738Y-13170690D01*
X16308262Y-13084976D02*
X16270167Y-13084976D01*
X16251119Y-13094500D01*
X16241595Y-13104024D01*
X16222548Y-13132595D01*
X16213024Y-13170690D01*
X16213024Y-13246881D01*
X16222548Y-13265928D01*
X16232071Y-13275452D01*
X16251119Y-13284976D01*
X16289214Y-13284976D01*
X16308262Y-13275452D01*
X16317786Y-13265928D01*
X16327309Y-13246881D01*
X16327309Y-13199262D01*
X16317786Y-13180214D01*
X16308262Y-13170690D01*
X16289214Y-13161167D01*
X16251119Y-13161167D01*
X16232071Y-13170690D01*
X16222548Y-13180214D01*
X16213024Y-13199262D01*
X16498738Y-13084976D02*
X16460643Y-13084976D01*
X16441595Y-13094500D01*
X16432071Y-13104024D01*
X16413024Y-13132595D01*
X16403500Y-13170690D01*
X16403500Y-13246881D01*
X16413024Y-13265928D01*
X16422548Y-13275452D01*
X16441595Y-13284976D01*
X16479690Y-13284976D01*
X16498738Y-13275452D01*
X16508262Y-13265928D01*
X16517786Y-13246881D01*
X16517786Y-13199262D01*
X16508262Y-13180214D01*
X16498738Y-13170690D01*
X16479690Y-13161167D01*
X16441595Y-13161167D01*
X16422548Y-13170690D01*
X16413024Y-13180214D01*
X16403500Y-13199262D01*
X16593976Y-13084976D02*
X16593976Y-13123071D01*
X16670167Y-13084976D02*
X16670167Y-13123071D01*
X16965405Y-13361167D02*
X16955881Y-13351643D01*
X16936833Y-13323071D01*
X16927310Y-13304024D01*
X16917786Y-13275452D01*
X16908262Y-13227833D01*
X16908262Y-13189738D01*
X16917786Y-13142119D01*
X16927310Y-13113548D01*
X16936833Y-13094500D01*
X16955881Y-13065928D01*
X16965405Y-13056405D01*
X17022548Y-13084976D02*
X17146357Y-13084976D01*
X17079690Y-13161167D01*
X17108262Y-13161167D01*
X17127310Y-13170690D01*
X17136833Y-13180214D01*
X17146357Y-13199262D01*
X17146357Y-13246881D01*
X17136833Y-13265928D01*
X17127310Y-13275452D01*
X17108262Y-13284976D01*
X17051119Y-13284976D01*
X17032071Y-13275452D01*
X17022548Y-13265928D01*
X17384452Y-13284976D02*
X17384452Y-13084976D01*
X17470167Y-13284976D02*
X17470167Y-13180214D01*
X17460643Y-13161167D01*
X17441595Y-13151643D01*
X17413024Y-13151643D01*
X17393976Y-13161167D01*
X17384452Y-13170690D01*
X17593976Y-13284976D02*
X17574929Y-13275452D01*
X17565405Y-13265928D01*
X17555881Y-13246881D01*
X17555881Y-13189738D01*
X17565405Y-13170690D01*
X17574929Y-13161167D01*
X17593976Y-13151643D01*
X17622548Y-13151643D01*
X17641595Y-13161167D01*
X17651119Y-13170690D01*
X17660643Y-13189738D01*
X17660643Y-13246881D01*
X17651119Y-13265928D01*
X17641595Y-13275452D01*
X17622548Y-13284976D01*
X17593976Y-13284976D01*
X17774929Y-13284976D02*
X17755881Y-13275452D01*
X17746357Y-13256405D01*
X17746357Y-13084976D01*
X17927310Y-13275452D02*
X17908262Y-13284976D01*
X17870167Y-13284976D01*
X17851119Y-13275452D01*
X17841595Y-13256405D01*
X17841595Y-13180214D01*
X17851119Y-13161167D01*
X17870167Y-13151643D01*
X17908262Y-13151643D01*
X17927310Y-13161167D01*
X17936833Y-13180214D01*
X17936833Y-13199262D01*
X17841595Y-13218309D01*
X18013024Y-13275452D02*
X18032071Y-13284976D01*
X18070167Y-13284976D01*
X18089214Y-13275452D01*
X18098738Y-13256405D01*
X18098738Y-13246881D01*
X18089214Y-13227833D01*
X18070167Y-13218309D01*
X18041595Y-13218309D01*
X18022548Y-13208786D01*
X18013024Y-13189738D01*
X18013024Y-13180214D01*
X18022548Y-13161167D01*
X18041595Y-13151643D01*
X18070167Y-13151643D01*
X18089214Y-13161167D01*
X18165405Y-13361167D02*
X18174929Y-13351643D01*
X18193976Y-13323071D01*
X18203500Y-13304024D01*
X18213024Y-13275452D01*
X18222548Y-13227833D01*
X18222548Y-13189738D01*
X18213024Y-13142119D01*
X18203500Y-13113548D01*
X18193976Y-13094500D01*
X18174929Y-13065928D01*
X18165405Y-13056405D01*
M02*
