%TF.GenerationSoftware,KiCad,Pcbnew,(6.0.7)*%
%TF.CreationDate,2023-01-30T12:50:34-06:00*%
%TF.ProjectId,LASK4,4c41534b-342e-46b6-9963-61645f706362,rev?*%
%TF.SameCoordinates,Original*%
%TF.FileFunction,Drillmap*%
%TF.FilePolarity,Positive*%
%FSLAX45Y45*%
G04 Gerber Fmt 4.5, Leading zero omitted, Abs format (unit mm)*
G04 Created by KiCad (PCBNEW (6.0.7)) date 2023-01-30 12:50:34*
%MOMM*%
%LPD*%
G01*
G04 APERTURE LIST*
%ADD10C,0.100000*%
%ADD11C,0.200000*%
G04 APERTURE END LIST*
D10*
X13652500Y-7239000D02*
X20002500Y-7239000D01*
X13652500Y-7239000D02*
G75*
G03*
X13398500Y-7493000I0J-254000D01*
G01*
X13398500Y-11239500D02*
X13398500Y-7493000D01*
X13398500Y-11239500D02*
G75*
G03*
X13652500Y-11493500I254000J0D01*
G01*
X20256500Y-7493000D02*
G75*
G03*
X20002500Y-7239000I-254000J0D01*
G01*
X20256500Y-7493000D02*
X20256500Y-11239500D01*
X20002500Y-11493500D02*
G75*
G03*
X20256500Y-11239500I0J254000D01*
G01*
X20002500Y-11493500D02*
X13652500Y-11493500D01*
D11*
X13651119Y-11808976D02*
X13651119Y-11608976D01*
X13698738Y-11608976D01*
X13727309Y-11618500D01*
X13746357Y-11637548D01*
X13755881Y-11656595D01*
X13765405Y-11694690D01*
X13765405Y-11723262D01*
X13755881Y-11761357D01*
X13746357Y-11780405D01*
X13727309Y-11799452D01*
X13698738Y-11808976D01*
X13651119Y-11808976D01*
X13851119Y-11808976D02*
X13851119Y-11675643D01*
X13851119Y-11713738D02*
X13860643Y-11694690D01*
X13870167Y-11685167D01*
X13889214Y-11675643D01*
X13908262Y-11675643D01*
X13974928Y-11808976D02*
X13974928Y-11675643D01*
X13974928Y-11608976D02*
X13965405Y-11618500D01*
X13974928Y-11628024D01*
X13984452Y-11618500D01*
X13974928Y-11608976D01*
X13974928Y-11628024D01*
X14098738Y-11808976D02*
X14079690Y-11799452D01*
X14070167Y-11780405D01*
X14070167Y-11608976D01*
X14203500Y-11808976D02*
X14184452Y-11799452D01*
X14174928Y-11780405D01*
X14174928Y-11608976D01*
X14432071Y-11808976D02*
X14432071Y-11608976D01*
X14498738Y-11751833D01*
X14565405Y-11608976D01*
X14565405Y-11808976D01*
X14746357Y-11808976D02*
X14746357Y-11704214D01*
X14736833Y-11685167D01*
X14717786Y-11675643D01*
X14679690Y-11675643D01*
X14660643Y-11685167D01*
X14746357Y-11799452D02*
X14727309Y-11808976D01*
X14679690Y-11808976D01*
X14660643Y-11799452D01*
X14651119Y-11780405D01*
X14651119Y-11761357D01*
X14660643Y-11742309D01*
X14679690Y-11732786D01*
X14727309Y-11732786D01*
X14746357Y-11723262D01*
X14841595Y-11675643D02*
X14841595Y-11875643D01*
X14841595Y-11685167D02*
X14860643Y-11675643D01*
X14898738Y-11675643D01*
X14917786Y-11685167D01*
X14927309Y-11694690D01*
X14936833Y-11713738D01*
X14936833Y-11770881D01*
X14927309Y-11789928D01*
X14917786Y-11799452D01*
X14898738Y-11808976D01*
X14860643Y-11808976D01*
X14841595Y-11799452D01*
X15022548Y-11789928D02*
X15032071Y-11799452D01*
X15022548Y-11808976D01*
X15013024Y-11799452D01*
X15022548Y-11789928D01*
X15022548Y-11808976D01*
X15022548Y-11685167D02*
X15032071Y-11694690D01*
X15022548Y-11704214D01*
X15013024Y-11694690D01*
X15022548Y-11685167D01*
X15022548Y-11704214D01*
M02*
