%TF.GenerationSoftware,KiCad,Pcbnew,(6.0.7)*%
%TF.CreationDate,2023-01-30T12:50:42-06:00*%
%TF.ProjectId,LASK4,4c41534b-342e-46b6-9963-61645f706362,rev?*%
%TF.SameCoordinates,Original*%
%TF.FileFunction,Copper,L2,Bot*%
%TF.FilePolarity,Positive*%
%FSLAX46Y46*%
G04 Gerber Fmt 4.6, Leading zero omitted, Abs format (unit mm)*
G04 Created by KiCad (PCBNEW (6.0.7)) date 2023-01-30 12:50:42*
%MOMM*%
%LPD*%
G01*
G04 APERTURE LIST*
%TA.AperFunction,ComponentPad*%
%ADD10C,3.800000*%
%TD*%
%TA.AperFunction,ComponentPad*%
%ADD11R,1.350000X1.350000*%
%TD*%
%TA.AperFunction,ComponentPad*%
%ADD12O,1.350000X1.350000*%
%TD*%
%TA.AperFunction,ComponentPad*%
%ADD13C,2.000000*%
%TD*%
%TA.AperFunction,ComponentPad*%
%ADD14R,1.700000X1.700000*%
%TD*%
%TA.AperFunction,ComponentPad*%
%ADD15O,1.700000X1.700000*%
%TD*%
%TA.AperFunction,ComponentPad*%
%ADD16C,1.524000*%
%TD*%
%TA.AperFunction,Conductor*%
%ADD17C,0.250000*%
%TD*%
G04 APERTURE END LIST*
D10*
%TO.P,H7,1,1*%
%TO.N,GND*%
X147320000Y-76200000D03*
%TD*%
%TO.P,H6,1,1*%
%TO.N,GND*%
X189230000Y-76200000D03*
%TD*%
%TO.P,H5,1,1*%
%TO.N,GND*%
X168910000Y-76200000D03*
%TD*%
D11*
%TO.P,H4,1,VCC*%
%TO.N,+3.3V*%
X196755000Y-79375000D03*
D12*
%TO.P,H4,2,GND*%
%TO.N,GND*%
X198755000Y-79375000D03*
%TO.P,H4,3,Vout*%
%TO.N,/GPIO_5_ADC1_4*%
X200755000Y-79375000D03*
%TD*%
D13*
%TO.P,Select1,1,1*%
%TO.N,GND*%
X192890000Y-95940000D03*
X199390000Y-95940000D03*
%TO.P,Select1,2,2*%
%TO.N,/Select*%
X199390000Y-100440000D03*
X192890000Y-100440000D03*
%TD*%
D14*
%TO.P,S1,1,GND*%
%TO.N,GND*%
X163830000Y-91440000D03*
D15*
%TO.P,S1,2,VCC*%
%TO.N,+5V*%
X163830000Y-88900000D03*
%TO.P,S1,3,SCL*%
%TO.N,/SCL33*%
X163830000Y-86360000D03*
%TO.P,S1,4,SDA*%
%TO.N,/SDA34*%
X163830000Y-83820000D03*
%TD*%
D11*
%TO.P,H2,1,VCC*%
%TO.N,+3.3V*%
X156115000Y-79375000D03*
D12*
%TO.P,H2,2,GND*%
%TO.N,GND*%
X158115000Y-79375000D03*
%TO.P,H2,3,Vout*%
%TO.N,/GPIO_3_ADC1_2*%
X160115000Y-79375000D03*
%TD*%
D11*
%TO.P,H3,1,VCC*%
%TO.N,+3.3V*%
X176435000Y-79375000D03*
D12*
%TO.P,H3,2,GND*%
%TO.N,GND*%
X178435000Y-79375000D03*
%TO.P,H3,3,Vout*%
%TO.N,/GPIO_4_ADC1_3*%
X180435000Y-79375000D03*
%TD*%
D13*
%TO.P,Up1,1,1*%
%TO.N,GND*%
X187960000Y-95940000D03*
X181460000Y-95940000D03*
%TO.P,Up1,2,2*%
%TO.N,/Up*%
X187960000Y-100440000D03*
X181460000Y-100440000D03*
%TD*%
%TO.P,Down1,1,1*%
%TO.N,GND*%
X187960000Y-104775000D03*
X181460000Y-104775000D03*
%TO.P,Down1,2,2*%
%TO.N,/Down*%
X181460000Y-109275000D03*
X187960000Y-109275000D03*
%TD*%
%TO.P,Start1,1,1*%
%TO.N,GND*%
X199390000Y-104775000D03*
X192890000Y-104775000D03*
%TO.P,Start1,2,2*%
%TO.N,/Start*%
X199390000Y-109275000D03*
X192890000Y-109275000D03*
%TD*%
D11*
%TO.P,H1,1,VCC*%
%TO.N,+3.3V*%
X135700000Y-79375000D03*
D12*
%TO.P,H1,2,GND*%
%TO.N,GND*%
X137700000Y-79375000D03*
%TO.P,H1,3,Vout*%
%TO.N,/GPIO_2_ADC1_1*%
X139700000Y-79375000D03*
%TD*%
D14*
%TO.P,U5,1,VIN*%
%TO.N,+5V*%
X164465000Y-96520000D03*
D15*
%TO.P,U5,2,IN-GND*%
%TO.N,GND*%
X167005000Y-96520000D03*
%TO.P,U5,3,BAT-GND*%
%TO.N,/BatGND*%
X169545000Y-96520000D03*
%TO.P,U5,4,BAT+*%
%TO.N,/BatV3-7*%
X172085000Y-96520000D03*
%TO.P,U5,5,OUT-GND*%
%TO.N,/BatGND*%
X174625000Y-96520000D03*
%TO.P,U5,6,OUT-5V*%
%TO.N,+5V*%
X177165000Y-96520000D03*
%TD*%
D16*
%TO.P,U6,0,EN*%
%TO.N,unconnected-(U6-Pad0)*%
X135890000Y-92710000D03*
%TO.P,U6,1,ADC1_0*%
%TO.N,unconnected-(U6-Pad1)*%
X138430000Y-92710000D03*
%TO.P,U6,2,ADC1_1*%
%TO.N,/GPIO_2_ADC1_1*%
X138430000Y-95250000D03*
%TO.P,U6,3,ADC1_2*%
%TO.N,/GPIO_3_ADC1_2*%
X135890000Y-95250000D03*
%TO.P,U6,4,ADC1_3*%
%TO.N,/GPIO_4_ADC1_3*%
X138430000Y-97790000D03*
%TO.P,U6,5,ADC1_4*%
%TO.N,/GPIO_5_ADC1_4*%
X135890000Y-97790000D03*
%TO.P,U6,6,ADC1_5*%
%TO.N,unconnected-(U6-Pad6)*%
X138430000Y-100330000D03*
%TO.P,U6,7,ADC1_6*%
%TO.N,/Start*%
X135890000Y-100330000D03*
%TO.P,U6,8,ADC1_7*%
%TO.N,/Select*%
X138430000Y-102870000D03*
%TO.P,U6,9,ADC1_8*%
%TO.N,/Down*%
X135890000Y-102870000D03*
%TO.P,U6,10,ADC1_9*%
%TO.N,/Up*%
X138430000Y-105410000D03*
%TO.P,U6,11,ADC2_0*%
%TO.N,unconnected-(U6-Pad11)*%
X135890000Y-105410000D03*
%TO.P,U6,12,ADC2_1*%
%TO.N,unconnected-(U6-Pad12)*%
X135890000Y-107950000D03*
%TO.P,U6,13,ADC2_2*%
%TO.N,unconnected-(U6-Pad13)*%
X138430000Y-107950000D03*
%TO.P,U6,14,ADC2_3*%
%TO.N,unconnected-(U6-Pad14)*%
X138430000Y-110490000D03*
%TO.P,U6,15,ADC2_4*%
%TO.N,unconnected-(U6-Pad15)*%
X156210000Y-110490000D03*
%TO.P,U6,16,ADC2_5*%
%TO.N,unconnected-(U6-Pad16)*%
X158750000Y-105410000D03*
%TO.P,U6,17,ADC2_6*%
%TO.N,unconnected-(U6-Pad17)*%
X156210000Y-105410000D03*
%TO.P,U6,18,ADC2_7*%
%TO.N,unconnected-(U6-Pad18)*%
X158750000Y-102870000D03*
%TO.P,U6,21,21*%
%TO.N,unconnected-(U6-Pad21)*%
X156210000Y-102870000D03*
%TO.P,U6,33,FSPI_HD_io4*%
%TO.N,/SCL33*%
X158750000Y-100330000D03*
%TO.P,U6,34,FSPI_SCO_dqs*%
%TO.N,/SDA34*%
X156210000Y-100330000D03*
%TO.P,U6,35,FSPI_D_io6*%
%TO.N,unconnected-(U6-Pad35)*%
X158750000Y-97790000D03*
%TO.P,U6,36,FSPI_CLK_io7*%
%TO.N,unconnected-(U6-Pad36)*%
X156210000Y-97790000D03*
%TO.P,U6,37,FSPI_Q*%
%TO.N,unconnected-(U6-Pad37)*%
X158750000Y-95250000D03*
%TO.P,U6,38,FSPI_WP*%
%TO.N,unconnected-(U6-Pad38)*%
X156210000Y-95250000D03*
%TO.P,U6,39,CLK3*%
%TO.N,unconnected-(U6-Pad39)*%
X158750000Y-92710000D03*
%TO.P,U6,40,CLK2*%
%TO.N,unconnected-(U6-Pad40)*%
X156210000Y-92710000D03*
%TO.P,U6,129,GND*%
%TO.N,GND*%
X156210000Y-107950000D03*
%TO.P,U6,130,GND*%
X158750000Y-107950000D03*
%TO.P,U6,133,3.3V*%
%TO.N,+3.3V*%
X135890000Y-110490000D03*
%TO.P,U6,150,VBUS*%
%TO.N,+5V*%
X158750000Y-110490000D03*
%TD*%
D14*
%TO.P,J1,1,Pin_1*%
%TO.N,/BatGND*%
X197485000Y-87630000D03*
D15*
%TO.P,J1,2,Pin_2*%
%TO.N,/BatV3-7*%
X197485000Y-90170000D03*
%TD*%
D17*
%TO.N,/Start*%
X190560200Y-111604800D02*
X192890000Y-109275000D01*
X153578100Y-111604800D02*
X190560200Y-111604800D01*
X143573300Y-101600000D02*
X153578100Y-111604800D01*
X137160000Y-101600000D02*
X143573300Y-101600000D01*
X135890000Y-100330000D02*
X137160000Y-101600000D01*
%TO.N,/SDA34*%
X163462700Y-84995300D02*
X163830000Y-84995300D01*
X157480000Y-90978000D02*
X163462700Y-84995300D01*
X157480000Y-99060000D02*
X157480000Y-90978000D01*
X156210000Y-100330000D02*
X157480000Y-99060000D01*
X163830000Y-83820000D02*
X163830000Y-84995300D01*
%TO.N,/SCL33*%
X163830000Y-86360000D02*
X163830000Y-87535300D01*
X161303800Y-97776200D02*
X158750000Y-100330000D01*
X161303800Y-89694200D02*
X161303800Y-97776200D01*
X163462700Y-87535300D02*
X161303800Y-89694200D01*
X163830000Y-87535300D02*
X163462700Y-87535300D01*
%TO.N,+5V*%
X177165000Y-96520000D02*
X175989700Y-96520000D01*
X174727600Y-98149400D02*
X164465000Y-98149400D01*
X175989700Y-96887300D02*
X174727600Y-98149400D01*
X175989700Y-96520000D02*
X175989700Y-96887300D01*
X164465000Y-104775000D02*
X164465000Y-98149400D01*
X158750000Y-110490000D02*
X164465000Y-104775000D01*
X164465000Y-98149400D02*
X164465000Y-96520000D01*
%TO.N,/BatGND*%
X170720300Y-96887400D02*
X170720300Y-96520000D01*
X171528200Y-97695300D02*
X170720300Y-96887400D01*
X172641700Y-97695300D02*
X171528200Y-97695300D01*
X173449700Y-96887300D02*
X172641700Y-97695300D01*
X173449700Y-96520000D02*
X173449700Y-96887300D01*
X174625000Y-96520000D02*
X173449700Y-96520000D01*
X169545000Y-96520000D02*
X170720300Y-96520000D01*
%TO.N,/GPIO_4_ADC1_3*%
X177174500Y-82635500D02*
X180435000Y-79375000D01*
X153584500Y-82635500D02*
X177174500Y-82635500D01*
X138430000Y-97790000D02*
X153584500Y-82635500D01*
%TO.N,/GPIO_3_ADC1_2*%
X158436800Y-81053200D02*
X160115000Y-79375000D01*
X154164600Y-81053200D02*
X158436800Y-81053200D01*
X138856600Y-96361200D02*
X154164600Y-81053200D01*
X137001200Y-96361200D02*
X138856600Y-96361200D01*
X135890000Y-95250000D02*
X137001200Y-96361200D01*
%TO.N,/GPIO_2_ADC1_1*%
X139700000Y-93980000D02*
X139700000Y-79375000D01*
X138430000Y-95250000D02*
X139700000Y-93980000D01*
%TO.N,GND*%
X181460000Y-95940000D02*
X186588900Y-95940000D01*
X186588900Y-95940000D02*
X187960000Y-95940000D01*
X199390000Y-81010300D02*
X198755000Y-80375300D01*
X199390000Y-95940000D02*
X199390000Y-81010300D01*
X198755000Y-79375000D02*
X198755000Y-80375300D01*
X182831100Y-103403900D02*
X181460000Y-104775000D01*
X186588900Y-103403900D02*
X182831100Y-103403900D01*
X186588900Y-95940000D02*
X186588900Y-103403900D01*
X186588900Y-103403900D02*
X187960000Y-104775000D01*
X180837900Y-95317900D02*
X181460000Y-95940000D01*
X169015100Y-95317900D02*
X180837900Y-95317900D01*
X168180300Y-96152700D02*
X169015100Y-95317900D01*
X168180300Y-96520000D02*
X168180300Y-96152700D01*
X167592700Y-96520000D02*
X168180300Y-96520000D01*
X163830000Y-91440000D02*
X163830000Y-92615300D01*
X163830000Y-95344600D02*
X163830000Y-92615300D01*
X162654700Y-104045300D02*
X158750000Y-107950000D01*
X162654700Y-96152500D02*
X162654700Y-104045300D01*
X163462600Y-95344600D02*
X162654700Y-96152500D01*
X163830000Y-95344600D02*
X163462600Y-95344600D01*
X167005000Y-96520000D02*
X167592700Y-96520000D01*
X165462300Y-95344600D02*
X163830000Y-95344600D01*
X165829700Y-95712000D02*
X165462300Y-95344600D01*
X165829700Y-96520000D02*
X165829700Y-95712000D01*
X167005000Y-96520000D02*
X165829700Y-96520000D01*
%TD*%
M02*
