%TF.GenerationSoftware,KiCad,Pcbnew,7.0.7*%
%TF.CreationDate,2024-09-13T10:44:57-05:00*%
%TF.ProjectId,OM-EPSC3-Micro,4f4d2d45-5053-4433-932d-4d6963726f2e,rev?*%
%TF.SameCoordinates,Original*%
%TF.FileFunction,Soldermask,Top*%
%TF.FilePolarity,Negative*%
%FSLAX46Y46*%
G04 Gerber Fmt 4.6, Leading zero omitted, Abs format (unit mm)*
G04 Created by KiCad (PCBNEW 7.0.7) date 2024-09-13 10:44:57*
%MOMM*%
%LPD*%
G01*
G04 APERTURE LIST*
G04 Aperture macros list*
%AMRoundRect*
0 Rectangle with rounded corners*
0 $1 Rounding radius*
0 $2 $3 $4 $5 $6 $7 $8 $9 X,Y pos of 4 corners*
0 Add a 4 corners polygon primitive as box body*
4,1,4,$2,$3,$4,$5,$6,$7,$8,$9,$2,$3,0*
0 Add four circle primitives for the rounded corners*
1,1,$1+$1,$2,$3*
1,1,$1+$1,$4,$5*
1,1,$1+$1,$6,$7*
1,1,$1+$1,$8,$9*
0 Add four rect primitives between the rounded corners*
20,1,$1+$1,$2,$3,$4,$5,0*
20,1,$1+$1,$4,$5,$6,$7,0*
20,1,$1+$1,$6,$7,$8,$9,0*
20,1,$1+$1,$8,$9,$2,$3,0*%
%AMFreePoly0*
4,1,6,1.000000,0.000000,0.500000,-0.750000,-0.500000,-0.750000,-0.500000,0.750000,0.500000,0.750000,1.000000,0.000000,1.000000,0.000000,$1*%
%AMFreePoly1*
4,1,6,0.500000,-0.750000,-0.650000,-0.750000,-0.150000,0.000000,-0.650000,0.750000,0.500000,0.750000,0.500000,-0.750000,0.500000,-0.750000,$1*%
G04 Aperture macros list end*
%ADD10R,1.700000X1.700000*%
%ADD11RoundRect,0.200000X-0.200000X-0.275000X0.200000X-0.275000X0.200000X0.275000X-0.200000X0.275000X0*%
%ADD12RoundRect,0.381000X-0.381000X0.881000X-0.381000X-0.881000X0.381000X-0.881000X0.381000X0.881000X0*%
%ADD13R,1.524000X2.524000*%
%ADD14RoundRect,0.150000X-0.512500X-0.150000X0.512500X-0.150000X0.512500X0.150000X-0.512500X0.150000X0*%
%ADD15FreePoly0,0.000000*%
%ADD16FreePoly1,0.000000*%
%ADD17O,1.700000X1.700000*%
%ADD18RoundRect,0.140000X-0.140000X-0.170000X0.140000X-0.170000X0.140000X0.170000X-0.140000X0.170000X0*%
%ADD19RoundRect,0.381000X0.381000X-0.881000X0.381000X0.881000X-0.381000X0.881000X-0.381000X-0.881000X0*%
%ADD20RoundRect,0.140000X0.140000X0.170000X-0.140000X0.170000X-0.140000X-0.170000X0.140000X-0.170000X0*%
%ADD21RoundRect,0.250000X0.475000X-0.250000X0.475000X0.250000X-0.475000X0.250000X-0.475000X-0.250000X0*%
%ADD22RoundRect,0.243750X-0.243750X-0.456250X0.243750X-0.456250X0.243750X0.456250X-0.243750X0.456250X0*%
%ADD23RoundRect,0.200000X0.275000X-0.200000X0.275000X0.200000X-0.275000X0.200000X-0.275000X-0.200000X0*%
%ADD24O,2.000000X1.700000*%
%ADD25RoundRect,0.250000X0.750000X-0.600000X0.750000X0.600000X-0.750000X0.600000X-0.750000X-0.600000X0*%
%ADD26R,1.000000X1.450000*%
%ADD27RoundRect,0.225000X-0.225000X-0.250000X0.225000X-0.250000X0.225000X0.250000X-0.225000X0.250000X0*%
G04 APERTURE END LIST*
D10*
%TO.C,J5*%
X218694000Y-141478000D03*
%TD*%
D11*
%TO.C,R2*%
X222886000Y-92964000D03*
X224536000Y-92964000D03*
%TD*%
D12*
%TO.C,H1*%
X224790000Y-99449000D03*
D13*
X222758000Y-99449000D03*
D12*
X220726000Y-99449000D03*
%TD*%
D14*
%TO.C,U5*%
X210312000Y-108336000D03*
X210312000Y-109286000D03*
X210312000Y-110236000D03*
X212587000Y-110236000D03*
X212587000Y-108336000D03*
%TD*%
D15*
%TO.C,JP1*%
X221054000Y-121920000D03*
D16*
X222504000Y-121920000D03*
%TD*%
D14*
%TO.C,U2*%
X230632000Y-98552000D03*
X230632000Y-99502000D03*
X230632000Y-100452000D03*
X232907000Y-100452000D03*
X232907000Y-98552000D03*
%TD*%
D10*
%TO.C,J3*%
X234696000Y-134620000D03*
D17*
X234696000Y-137160000D03*
%TD*%
D18*
%TO.C,C1*%
X223068000Y-139700000D03*
X224028000Y-139700000D03*
%TD*%
D19*
%TO.C,H0*%
X220726000Y-135628000D03*
D13*
X222758000Y-135628000D03*
D19*
X224790000Y-135628000D03*
%TD*%
D20*
%TO.C,C2*%
X221996000Y-96012000D03*
X221036000Y-96012000D03*
%TD*%
D15*
%TO.C,JP2*%
X225626000Y-121920000D03*
D16*
X227076000Y-121920000D03*
%TD*%
D21*
%TO.C,C9*%
X216408000Y-106548000D03*
X216408000Y-104648000D03*
%TD*%
D10*
%TO.C,J1*%
X214884000Y-130556000D03*
D17*
X214884000Y-133096000D03*
X214884000Y-135636000D03*
X214884000Y-138176000D03*
%TD*%
D22*
%TO.C,D1*%
X228092000Y-92964000D03*
X229967000Y-92964000D03*
%TD*%
D23*
%TO.C,R1*%
X227584000Y-98361000D03*
X227584000Y-96711000D03*
%TD*%
D19*
%TO.C,U1*%
X232664000Y-125722000D03*
X230124000Y-125722000D03*
X227584000Y-125722000D03*
X225044000Y-125722000D03*
X222504000Y-125722000D03*
X214884000Y-109482000D03*
X217424000Y-109482000D03*
X219964000Y-109482000D03*
X222504000Y-109482000D03*
X225044000Y-109482000D03*
X227584000Y-109482000D03*
X230124000Y-109482000D03*
X232664000Y-109482000D03*
X214884000Y-125722000D03*
X217424000Y-125722000D03*
X219964000Y-125722000D03*
%TD*%
D23*
%TO.C,R8*%
X234696000Y-130556000D03*
X234696000Y-128906000D03*
%TD*%
D24*
%TO.C,J4*%
X211328000Y-99842000D03*
D25*
X211328000Y-102342000D03*
%TD*%
D26*
%TO.C,SW2*%
X228424000Y-136144000D03*
X230124000Y-136144000D03*
X228424000Y-141294000D03*
X230124000Y-141294000D03*
%TD*%
D10*
%TO.C,J2*%
X210820000Y-134620000D03*
D17*
X210820000Y-137160000D03*
%TD*%
D27*
%TO.C,C5*%
X232130000Y-105156000D03*
X233680000Y-105156000D03*
%TD*%
D14*
%TO.C,MAX1*%
X230124000Y-129606000D03*
X230124000Y-130556000D03*
X230124000Y-131506000D03*
X232399000Y-131506000D03*
X232399000Y-130556000D03*
X232399000Y-129606000D03*
%TD*%
D21*
%TO.C,C10*%
X216408000Y-102484000D03*
X216408000Y-100584000D03*
%TD*%
M02*
