M48
; DRILL file {KiCad 7.0.7} date Fri Sep 13 10:44:54 2024
; FORMAT={-:-/ absolute / inch / decimal}
; #@! TF.CreationDate,2024-09-13T10:44:54-05:00
; #@! TF.GenerationSoftware,Kicad,Pcbnew,7.0.7
; #@! TF.FileFunction,Plated,1,2,PTH
FMAT,2
INCH
; #@! TA.AperFunction,Plated,PTH,ViaDrill
T1C0.0157
; #@! TA.AperFunction,Plated,PTH,ComponentDrill
T2C0.0300
; #@! TA.AperFunction,Plated,PTH,ComponentDrill
T3C0.0394
%
G90
G05
T1
X8.3197Y-4.2361
X8.416Y-4.555
X8.4775Y-4.0849
X8.52Y-3.9163
X8.602Y-3.978
X8.6577Y-4.6905
X8.76Y-3.84
X8.78Y-5.42
X8.9221Y-4.555
X8.932Y-5.3139
X8.96Y-3.768
X8.9688Y-4.5526
X8.98Y-4.86
X8.99Y-3.93
X9.0Y-4.07
X9.0081Y-5.2577
X9.04Y-3.92
X9.126Y-3.7887
X9.1385Y-4.0812
X9.1968Y-5.0805
T2
X8.46Y-4.33
X8.46Y-4.93
X8.56Y-4.33
X8.56Y-4.93
X8.66Y-4.33
X8.66Y-4.93
X8.69Y-3.935
X8.69Y-5.32
X8.76Y-4.33
X8.76Y-4.93
X8.77Y-3.935
X8.77Y-5.32
X8.85Y-3.935
X8.85Y-5.32
X8.86Y-4.33
X8.86Y-4.93
X8.96Y-4.33
X8.96Y-4.93
X9.06Y-4.33
X9.06Y-4.93
X9.16Y-4.33
X9.16Y-4.93
T3
X8.3Y-5.3
X8.3Y-5.4
X8.32Y-3.9308
X8.32Y-4.0292
X8.46Y-5.14
X8.46Y-5.24
X8.46Y-5.34
X8.46Y-5.44
X8.61Y-5.57
X9.24Y-5.3
X9.24Y-5.4
T0
M30
