%TF.GenerationSoftware,KiCad,Pcbnew,7.0.7*%
%TF.CreationDate,2024-09-13T10:44:57-05:00*%
%TF.ProjectId,OM-EPSC3-Micro,4f4d2d45-5053-4433-932d-4d6963726f2e,rev?*%
%TF.SameCoordinates,Original*%
%TF.FileFunction,Copper,L1,Top*%
%TF.FilePolarity,Positive*%
%FSLAX46Y46*%
G04 Gerber Fmt 4.6, Leading zero omitted, Abs format (unit mm)*
G04 Created by KiCad (PCBNEW 7.0.7) date 2024-09-13 10:44:57*
%MOMM*%
%LPD*%
G01*
G04 APERTURE LIST*
G04 Aperture macros list*
%AMRoundRect*
0 Rectangle with rounded corners*
0 $1 Rounding radius*
0 $2 $3 $4 $5 $6 $7 $8 $9 X,Y pos of 4 corners*
0 Add a 4 corners polygon primitive as box body*
4,1,4,$2,$3,$4,$5,$6,$7,$8,$9,$2,$3,0*
0 Add four circle primitives for the rounded corners*
1,1,$1+$1,$2,$3*
1,1,$1+$1,$4,$5*
1,1,$1+$1,$6,$7*
1,1,$1+$1,$8,$9*
0 Add four rect primitives between the rounded corners*
20,1,$1+$1,$2,$3,$4,$5,0*
20,1,$1+$1,$4,$5,$6,$7,0*
20,1,$1+$1,$6,$7,$8,$9,0*
20,1,$1+$1,$8,$9,$2,$3,0*%
%AMFreePoly0*
4,1,6,1.000000,0.000000,0.500000,-0.750000,-0.500000,-0.750000,-0.500000,0.750000,0.500000,0.750000,1.000000,0.000000,1.000000,0.000000,$1*%
%AMFreePoly1*
4,1,6,0.500000,-0.750000,-0.650000,-0.750000,-0.150000,0.000000,-0.650000,0.750000,0.500000,0.750000,0.500000,-0.750000,0.500000,-0.750000,$1*%
G04 Aperture macros list end*
%TA.AperFunction,ComponentPad*%
%ADD10R,1.700000X1.700000*%
%TD*%
%TA.AperFunction,SMDPad,CuDef*%
%ADD11RoundRect,0.200000X-0.200000X-0.275000X0.200000X-0.275000X0.200000X0.275000X-0.200000X0.275000X0*%
%TD*%
%TA.AperFunction,ComponentPad*%
%ADD12RoundRect,0.381000X-0.381000X0.881000X-0.381000X-0.881000X0.381000X-0.881000X0.381000X0.881000X0*%
%TD*%
%TA.AperFunction,ComponentPad*%
%ADD13R,1.524000X2.524000*%
%TD*%
%TA.AperFunction,SMDPad,CuDef*%
%ADD14RoundRect,0.150000X-0.512500X-0.150000X0.512500X-0.150000X0.512500X0.150000X-0.512500X0.150000X0*%
%TD*%
%TA.AperFunction,SMDPad,CuDef*%
%ADD15FreePoly0,0.000000*%
%TD*%
%TA.AperFunction,SMDPad,CuDef*%
%ADD16FreePoly1,0.000000*%
%TD*%
%TA.AperFunction,ComponentPad*%
%ADD17O,1.700000X1.700000*%
%TD*%
%TA.AperFunction,SMDPad,CuDef*%
%ADD18RoundRect,0.140000X-0.140000X-0.170000X0.140000X-0.170000X0.140000X0.170000X-0.140000X0.170000X0*%
%TD*%
%TA.AperFunction,ComponentPad*%
%ADD19RoundRect,0.381000X0.381000X-0.881000X0.381000X0.881000X-0.381000X0.881000X-0.381000X-0.881000X0*%
%TD*%
%TA.AperFunction,SMDPad,CuDef*%
%ADD20RoundRect,0.140000X0.140000X0.170000X-0.140000X0.170000X-0.140000X-0.170000X0.140000X-0.170000X0*%
%TD*%
%TA.AperFunction,SMDPad,CuDef*%
%ADD21RoundRect,0.250000X0.475000X-0.250000X0.475000X0.250000X-0.475000X0.250000X-0.475000X-0.250000X0*%
%TD*%
%TA.AperFunction,SMDPad,CuDef*%
%ADD22RoundRect,0.243750X-0.243750X-0.456250X0.243750X-0.456250X0.243750X0.456250X-0.243750X0.456250X0*%
%TD*%
%TA.AperFunction,SMDPad,CuDef*%
%ADD23RoundRect,0.200000X0.275000X-0.200000X0.275000X0.200000X-0.275000X0.200000X-0.275000X-0.200000X0*%
%TD*%
%TA.AperFunction,ComponentPad*%
%ADD24O,2.000000X1.700000*%
%TD*%
%TA.AperFunction,ComponentPad*%
%ADD25RoundRect,0.250000X0.750000X-0.600000X0.750000X0.600000X-0.750000X0.600000X-0.750000X-0.600000X0*%
%TD*%
%TA.AperFunction,SMDPad,CuDef*%
%ADD26R,1.000000X1.450000*%
%TD*%
%TA.AperFunction,SMDPad,CuDef*%
%ADD27RoundRect,0.225000X-0.225000X-0.250000X0.225000X-0.250000X0.225000X0.250000X-0.225000X0.250000X0*%
%TD*%
%TA.AperFunction,ViaPad*%
%ADD28C,0.800000*%
%TD*%
%TA.AperFunction,Conductor*%
%ADD29C,0.250000*%
%TD*%
%TA.AperFunction,Conductor*%
%ADD30C,0.350000*%
%TD*%
G04 APERTURE END LIST*
D10*
%TO.P,J5,1,Pin_1*%
%TO.N,+5V*%
X218694000Y-141478000D03*
%TD*%
D11*
%TO.P,R2,1*%
%TO.N,+5V*%
X222886000Y-92964000D03*
%TO.P,R2,2*%
%TO.N,Net-(D1-A)*%
X224536000Y-92964000D03*
%TD*%
D12*
%TO.P,H1,1,VCC*%
%TO.N,+3V3*%
X224790000Y-99449000D03*
D13*
%TO.P,H1,2,GND*%
%TO.N,GND*%
X222758000Y-99449000D03*
D12*
%TO.P,H1,3,VOUT*%
%TO.N,hall_1*%
X220726000Y-99449000D03*
%TD*%
D14*
%TO.P,U5,1,IN*%
%TO.N,+3V8*%
X210312000Y-108336000D03*
%TO.P,U5,2,GND*%
%TO.N,GND*%
X210312000Y-109286000D03*
%TO.P,U5,3,EN*%
%TO.N,LDO_EN*%
X210312000Y-110236000D03*
%TO.P,U5,4,NC*%
%TO.N,unconnected-(U5-NC-Pad4)*%
X212587000Y-110236000D03*
%TO.P,U5,5,OUT*%
%TO.N,+3V3*%
X212587000Y-108336000D03*
%TD*%
D15*
%TO.P,JP1,1,A*%
%TO.N,hall_1*%
X221054000Y-121920000D03*
D16*
%TO.P,JP1,2,B*%
%TO.N,ADC3*%
X222504000Y-121920000D03*
%TD*%
D14*
%TO.P,U2,1,~{CHRG}*%
%TO.N,Net-(D1-K)*%
X230632000Y-98552000D03*
%TO.P,U2,2,GND*%
%TO.N,GND*%
X230632000Y-99502000D03*
%TO.P,U2,3,BAT*%
%TO.N,+3V8*%
X230632000Y-100452000D03*
%TO.P,U2,4,V_{CC}*%
%TO.N,+5V*%
X232907000Y-100452000D03*
%TO.P,U2,5,PROG*%
%TO.N,Net-(U2-PROG)*%
X232907000Y-98552000D03*
%TD*%
D10*
%TO.P,J3,1,Pin_1*%
%TO.N,GND*%
X234696000Y-134620000D03*
D17*
%TO.P,J3,2,Pin_2*%
%TO.N,RMT-BTN*%
X234696000Y-137160000D03*
%TD*%
D18*
%TO.P,C1,1*%
%TO.N,GND*%
X223068000Y-139700000D03*
%TO.P,C1,2*%
%TO.N,hall_0*%
X224028000Y-139700000D03*
%TD*%
D19*
%TO.P,H0,1,VCC*%
%TO.N,+3V3*%
X220726000Y-135628000D03*
D13*
%TO.P,H0,2,GND*%
%TO.N,GND*%
X222758000Y-135628000D03*
D19*
%TO.P,H0,3,VOUT*%
%TO.N,hall_0*%
X224790000Y-135628000D03*
%TD*%
D20*
%TO.P,C2,1*%
%TO.N,GND*%
X221996000Y-96012000D03*
%TO.P,C2,2*%
%TO.N,hall_1*%
X221036000Y-96012000D03*
%TD*%
D15*
%TO.P,JP2,1,A*%
%TO.N,hall_0*%
X225626000Y-121920000D03*
D16*
%TO.P,JP2,2,B*%
%TO.N,ADC2*%
X227076000Y-121920000D03*
%TD*%
D21*
%TO.P,C9,1*%
%TO.N,+3V8*%
X216408000Y-106548000D03*
%TO.P,C9,2*%
%TO.N,GND*%
X216408000Y-104648000D03*
%TD*%
D10*
%TO.P,J1,1,Pin_1*%
%TO.N,+3V3*%
X214884000Y-130556000D03*
D17*
%TO.P,J1,2,Pin_2*%
%TO.N,ADC3*%
X214884000Y-133096000D03*
%TO.P,J1,3,Pin_3*%
%TO.N,ADC2*%
X214884000Y-135636000D03*
%TO.P,J1,4,Pin_4*%
%TO.N,GND*%
X214884000Y-138176000D03*
%TD*%
D22*
%TO.P,D1,1,K*%
%TO.N,Net-(D1-K)*%
X228092000Y-92964000D03*
%TO.P,D1,2,A*%
%TO.N,Net-(D1-A)*%
X229967000Y-92964000D03*
%TD*%
D23*
%TO.P,R1,1*%
%TO.N,Net-(U2-PROG)*%
X227584000Y-98361000D03*
%TO.P,R1,2*%
%TO.N,GND*%
X227584000Y-96711000D03*
%TD*%
D19*
%TO.P,U1,0,GPIO0*%
%TO.N,hall_0*%
X232664000Y-125722000D03*
%TO.P,U1,1,GPIO1*%
%TO.N,hall_1*%
X230124000Y-125722000D03*
%TO.P,U1,2,GPIO2*%
%TO.N,unconnected-(U1-GPIO2-Pad2)*%
X227584000Y-125722000D03*
%TO.P,U1,3,GPIO3*%
%TO.N,ADC2*%
X225044000Y-125722000D03*
%TO.P,U1,4,GPIO4*%
%TO.N,unconnected-(U1-GPIO4-Pad4)*%
X222504000Y-125722000D03*
%TO.P,U1,5,GPIO5*%
%TO.N,ADC3*%
X214884000Y-109482000D03*
%TO.P,U1,6,GPIO6*%
%TO.N,unconnected-(U1-GPIO6-Pad6)*%
X217424000Y-109482000D03*
%TO.P,U1,7,GPIO7*%
%TO.N,unconnected-(U1-GPIO7-Pad7)*%
X219964000Y-109482000D03*
%TO.P,U1,8,GPIO8*%
%TO.N,SDA*%
X222504000Y-109482000D03*
%TO.P,U1,9,GPIO9*%
%TO.N,SCL*%
X225044000Y-109482000D03*
%TO.P,U1,10,GPIO10*%
%TO.N,unconnected-(U1-GPIO10-Pad10)*%
X227584000Y-109482000D03*
%TO.P,U1,20,GPIO20*%
%TO.N,unconnected-(U1-GPIO20-Pad20)*%
X230124000Y-109482000D03*
%TO.P,U1,21,GPIO21*%
%TO.N,unconnected-(U1-GPIO21-Pad21)*%
X232664000Y-109482000D03*
%TO.P,U1,100,5V*%
%TO.N,+5V*%
X214884000Y-125722000D03*
%TO.P,U1,101,GND*%
%TO.N,GND*%
X217424000Y-125722000D03*
%TO.P,U1,102,3V3*%
%TO.N,+3V3*%
X219964000Y-125722000D03*
%TD*%
D23*
%TO.P,R8,1*%
%TO.N,Net-(MAX1-CLEAR)*%
X234696000Y-130556000D03*
%TO.P,R8,2*%
%TO.N,GND*%
X234696000Y-128906000D03*
%TD*%
D24*
%TO.P,J4,1*%
%TO.N,+3V8*%
X211328000Y-99842000D03*
D25*
%TO.P,J4,2*%
%TO.N,GND*%
X211328000Y-102342000D03*
%TD*%
D26*
%TO.P,SW2,1,1*%
%TO.N,GND*%
X228424000Y-136144000D03*
%TO.P,SW2,2,2*%
%TO.N,RMT-BTN*%
X230124000Y-136144000D03*
%TO.P,SW2,3*%
%TO.N,N/C*%
X228424000Y-141294000D03*
%TO.P,SW2,4*%
X230124000Y-141294000D03*
%TD*%
D10*
%TO.P,J2,1,Pin_1*%
%TO.N,GND*%
X210820000Y-134620000D03*
D17*
%TO.P,J2,2,Pin_2*%
%TO.N,RMT-BTN*%
X210820000Y-137160000D03*
%TD*%
D27*
%TO.P,C5,1*%
%TO.N,GND*%
X232130000Y-105156000D03*
%TO.P,C5,2*%
%TO.N,+5V*%
X233680000Y-105156000D03*
%TD*%
D14*
%TO.P,MAX1,1,In*%
%TO.N,RMT-BTN*%
X230124000Y-129606000D03*
%TO.P,MAX1,2,GND*%
%TO.N,GND*%
X230124000Y-130556000D03*
%TO.P,MAX1,3,CLEAR*%
%TO.N,Net-(MAX1-CLEAR)*%
X230124000Y-131506000D03*
%TO.P,MAX1,4,OU*%
%TO.N,unconnected-(MAX1-OU-Pad4)*%
X232399000Y-131506000D03*
%TO.P,MAX1,5,OUT*%
%TO.N,LDO_EN*%
X232399000Y-130556000D03*
%TO.P,MAX1,6,Vcc*%
%TO.N,+3V8*%
X232399000Y-129606000D03*
%TD*%
D21*
%TO.P,C10,1*%
%TO.N,+3V3*%
X216408000Y-102484000D03*
%TO.P,C10,2*%
%TO.N,GND*%
X216408000Y-100584000D03*
%TD*%
D28*
%TO.N,GND*%
X229616000Y-99568000D03*
%TO.N,+3V8*%
X228346000Y-99822000D03*
%TO.N,*%
X228600000Y-103378000D03*
%TO.N,+3V3*%
X218489800Y-101041000D03*
X231801300Y-96232700D03*
%TO.N,GND*%
X216408000Y-99474600D03*
X228805000Y-133545300D03*
X222504000Y-97536000D03*
X227584000Y-95707800D03*
X232118700Y-103663200D03*
X233598800Y-129044100D03*
X211319300Y-107598200D03*
X223012000Y-137668000D03*
X226872300Y-134971900D03*
X215328600Y-103757000D03*
%TO.N,+5V*%
X219904700Y-119139000D03*
%TO.N,ADC2*%
X228092000Y-123444000D03*
%TO.N,+3V8*%
X226621900Y-115696500D03*
%TO.N,LDO_EN*%
X213765600Y-115696500D03*
X227806600Y-115636700D03*
%TD*%
D29*
%TO.N,GND*%
X230566000Y-99568000D02*
X230632000Y-99502000D01*
X229616000Y-99568000D02*
X230566000Y-99568000D01*
%TO.N,+3V8*%
X228346000Y-100076000D02*
X228346000Y-100076000D01*
X228600000Y-100076000D02*
X228346000Y-100076000D01*
X228600000Y-100330000D02*
X228600000Y-100076000D01*
X228092000Y-99822000D02*
X228092000Y-99822000D01*
X228346000Y-99822000D02*
X228092000Y-99822000D01*
X228346000Y-100076000D02*
X228346000Y-99822000D01*
X228600000Y-100330000D02*
X228600000Y-100330000D01*
X229108000Y-100330000D02*
X228600000Y-100330000D01*
X230510000Y-100330000D02*
X229108000Y-100330000D01*
X230632000Y-100452000D02*
X230510000Y-100330000D01*
%TO.N,+5V*%
X214884000Y-125442435D02*
X214884000Y-125222000D01*
X216750565Y-127309000D02*
X214884000Y-125442435D01*
X216750565Y-131917734D02*
X216750565Y-127309000D01*
X214400565Y-131917734D02*
X216750565Y-131917734D01*
X213709000Y-132609299D02*
X214400565Y-131917734D01*
X213709000Y-133582701D02*
X213709000Y-132609299D01*
X214397299Y-134271000D02*
X213709000Y-133582701D01*
X215370701Y-134271000D02*
X214397299Y-134271000D01*
X219398000Y-138298299D02*
X215370701Y-134271000D01*
X219398000Y-140774000D02*
X219398000Y-138298299D01*
X218694000Y-141478000D02*
X219398000Y-140774000D01*
X226473600Y-103083900D02*
X228458600Y-101098900D01*
%TO.N,+3V3*%
X216996000Y-102646900D02*
X218232500Y-101410400D01*
X218232500Y-101296700D02*
X218489800Y-101039400D01*
X213227000Y-107696000D02*
X212587000Y-108336000D01*
X209324500Y-124996500D02*
X209324500Y-100033799D01*
X218232500Y-101410400D02*
X218232500Y-101296700D01*
X214884000Y-130556000D02*
X209324500Y-124996500D01*
X218948000Y-104599000D02*
X218948000Y-105664000D01*
X219964000Y-125222000D02*
X216337000Y-121595000D01*
X216996000Y-102646900D02*
X218948000Y-104599000D01*
X210691299Y-98667000D02*
X212658106Y-98667000D01*
X215900000Y-107696000D02*
X213227000Y-107696000D01*
X216916000Y-107696000D02*
X215900000Y-107696000D01*
X218489800Y-101039400D02*
X218489800Y-101041000D01*
X216833000Y-102484000D02*
X216996000Y-102646900D01*
X212658106Y-98667000D02*
X216408000Y-102416894D01*
X216408000Y-102416894D02*
X216408000Y-102484000D01*
X218948000Y-105664000D02*
X216916000Y-107696000D01*
X216337000Y-121595000D02*
X216337000Y-108133000D01*
X209324500Y-100033799D02*
X210691299Y-98667000D01*
X216337000Y-108133000D02*
X215900000Y-107696000D01*
X216408000Y-102484000D02*
X216833000Y-102484000D01*
%TO.N,hall_1*%
X230124000Y-123258000D02*
X227711000Y-120845000D01*
X221719000Y-120845000D02*
X221054000Y-121510000D01*
X220726000Y-96322000D02*
X220726000Y-99949000D01*
X220726000Y-99949000D02*
X219456000Y-101219000D01*
X221036000Y-96012000D02*
X220726000Y-96322000D01*
X227711000Y-120845000D02*
X221719000Y-120845000D01*
X219456000Y-107188000D02*
X218545000Y-108099000D01*
X218545000Y-108099000D02*
X218545000Y-119411000D01*
X230124000Y-125222000D02*
X230124000Y-123258000D01*
X219456000Y-101219000D02*
X219456000Y-107188000D01*
X221054000Y-121510000D02*
X221054000Y-121920000D01*
X218545000Y-119411000D02*
X221054000Y-121920000D01*
%TO.N,hall_0*%
X226497000Y-133421000D02*
X226497000Y-128016000D01*
X226497000Y-128016000D02*
X226497000Y-123201000D01*
X230090000Y-128016000D02*
X226497000Y-128016000D01*
X224790000Y-135128000D02*
X224790000Y-138938000D01*
X232664000Y-125222000D02*
X232664000Y-125442000D01*
X232664000Y-125442000D02*
X230090000Y-128016000D01*
X226497000Y-123201000D02*
X225626000Y-122330000D01*
X224790000Y-138938000D02*
X224028000Y-139700000D01*
X224790000Y-135128000D02*
X226497000Y-133421000D01*
X225626000Y-122330000D02*
X225626000Y-121920000D01*
%TO.N,GND*%
X211319300Y-108685400D02*
X210718700Y-109286000D01*
X227597100Y-135696700D02*
X227597100Y-136144000D01*
X216219600Y-104648000D02*
X216408000Y-104648000D01*
X221996000Y-96012000D02*
X222758000Y-96774000D01*
X227584000Y-95707800D02*
X227584000Y-96711000D01*
X223068000Y-139700000D02*
X222758000Y-139390000D01*
X234696000Y-128906000D02*
X234557900Y-129044100D01*
X222758000Y-137414000D02*
X222758000Y-135128000D01*
X232118700Y-103663200D02*
X232130000Y-103674500D01*
X222758000Y-97790000D02*
X222758000Y-99949000D01*
X232130000Y-103674500D02*
X232130000Y-105156000D01*
X222758000Y-96774000D02*
X222758000Y-97282000D01*
X222758000Y-97282000D02*
X222504000Y-97536000D01*
X215328600Y-103757000D02*
X216219600Y-104648000D01*
X226872300Y-134971900D02*
X227597100Y-135696700D01*
X229683100Y-130556000D02*
X230124000Y-130556000D01*
X228424000Y-136144000D02*
X227597100Y-136144000D01*
X210718700Y-109286000D02*
X210312000Y-109286000D01*
X211319300Y-107598200D02*
X211319300Y-108685400D01*
X234557900Y-129044100D02*
X233598800Y-129044100D01*
X222504000Y-97536000D02*
X222758000Y-97790000D01*
X222758000Y-139390000D02*
X222758000Y-137922000D01*
X228805000Y-131434100D02*
X229683100Y-130556000D01*
X222758000Y-137922000D02*
X223012000Y-137668000D01*
X223012000Y-137668000D02*
X222758000Y-137414000D01*
X228805000Y-133545300D02*
X228805000Y-131434100D01*
X216408000Y-99474600D02*
X216408000Y-100584000D01*
%TO.N,+5V*%
X222886000Y-92964000D02*
X225977100Y-96055100D01*
X233680000Y-105156000D02*
X233680000Y-101225000D01*
X225977100Y-98617400D02*
X228458600Y-101098900D01*
X228458600Y-101098900D02*
X232260100Y-101098900D01*
X233680000Y-101225000D02*
X232907000Y-100452000D01*
X226473600Y-112570100D02*
X226473600Y-103083900D01*
X225977100Y-96055100D02*
X225977100Y-98617400D01*
X232260100Y-101098900D02*
X232907000Y-100452000D01*
X219904700Y-119139000D02*
X226473600Y-112570100D01*
%TO.N,ADC3*%
X220113000Y-127936000D02*
X218948000Y-129101000D01*
X218694000Y-124654600D02*
X214884000Y-120844600D01*
X214884000Y-120844600D02*
X214884000Y-109982000D01*
X218694000Y-129151900D02*
X218694000Y-124654600D01*
X218948000Y-130523000D02*
X216375000Y-133096000D01*
X222504000Y-121920000D02*
X223591000Y-123007000D01*
X218948000Y-129405900D02*
X218694000Y-129151900D01*
X223591000Y-126929000D02*
X222584000Y-127936000D01*
X216375000Y-133096000D02*
X214884000Y-133096000D01*
X218948000Y-129101000D02*
X218948000Y-129405900D01*
X223591000Y-123007000D02*
X223591000Y-126929000D01*
X218948000Y-129405900D02*
X218948000Y-130523000D01*
X222584000Y-127936000D02*
X220113000Y-127936000D01*
%TO.N,ADC2*%
X228092000Y-123444000D02*
X228092000Y-122936000D01*
X228092000Y-122936000D02*
X227076000Y-121920000D01*
%TO.N,Net-(D1-K)*%
X227088200Y-99089400D02*
X226698700Y-98699900D01*
X228659400Y-98552000D02*
X228122000Y-99089400D01*
X230632000Y-98552000D02*
X228659400Y-98552000D01*
X228122000Y-99089400D02*
X227088200Y-99089400D01*
X226698700Y-94357300D02*
X228092000Y-92964000D01*
X226698700Y-98699900D02*
X226698700Y-94357300D01*
D30*
%TO.N,+3V8*%
X213126000Y-99842000D02*
X211328000Y-99842000D01*
D29*
X232399000Y-129216000D02*
X232399000Y-129606000D01*
D30*
X216408000Y-106548000D02*
X213360000Y-103500000D01*
X213360000Y-103500000D02*
X213360000Y-100076000D01*
D29*
X226621900Y-115696500D02*
X233798900Y-122873500D01*
X213360000Y-103500000D02*
X210312000Y-106548000D01*
X233798900Y-122873500D02*
X233798900Y-127816100D01*
D30*
X213360000Y-100076000D02*
X213126000Y-99842000D01*
D29*
X210312000Y-106548000D02*
X210312000Y-108336000D01*
X233798900Y-127816100D02*
X232399000Y-129216000D01*
%TO.N,Net-(D1-A)*%
X224536000Y-92964000D02*
X225583000Y-91917000D01*
X225583000Y-91917000D02*
X228920000Y-91917000D01*
X228920000Y-91917000D02*
X229967000Y-92964000D01*
%TO.N,Net-(U2-PROG)*%
X228046800Y-97898200D02*
X227584000Y-98361000D01*
X232907000Y-98552000D02*
X232253200Y-97898200D01*
X232253200Y-97898200D02*
X228046800Y-97898200D01*
%TO.N,RMT-BTN*%
X230124000Y-129606000D02*
X230607300Y-129606000D01*
X230124000Y-136144000D02*
X230950900Y-136144000D01*
X234696000Y-137160000D02*
X231966900Y-137160000D01*
X230607300Y-129606000D02*
X231164500Y-130163200D01*
X231966900Y-137160000D02*
X230950900Y-136144000D01*
X231164500Y-135930400D02*
X230950900Y-136144000D01*
X231164500Y-130163200D02*
X231164500Y-135930400D01*
%TO.N,Net-(MAX1-CLEAR)*%
X230628700Y-138336900D02*
X235205500Y-138336900D01*
X229297100Y-137005300D02*
X230628700Y-138336900D01*
X230124000Y-133600900D02*
X229297100Y-134427800D01*
X235205500Y-138336900D02*
X235872900Y-137669500D01*
X235872900Y-137669500D02*
X235872900Y-131732900D01*
X230124000Y-131506000D02*
X230124000Y-133600900D01*
X235872900Y-131732900D02*
X234696000Y-130556000D01*
X229297100Y-134427800D02*
X229297100Y-137005300D01*
%TO.N,LDO_EN*%
X232399000Y-130556000D02*
X233474200Y-130556000D01*
X235125700Y-129731000D02*
X235502600Y-129354100D01*
X234299200Y-129731000D02*
X235125700Y-129731000D01*
X235502600Y-129354100D02*
X235502600Y-123332700D01*
X233474200Y-130556000D02*
X234299200Y-129731000D01*
X235502600Y-123332700D02*
X227806600Y-115636700D01*
X213765600Y-115696500D02*
X210312100Y-112243000D01*
X210312100Y-112243000D02*
X210312100Y-110236000D01*
X210312100Y-110236000D02*
X210312000Y-110236000D01*
%TD*%
%TA.AperFunction,Conductor*%
%TO.N,+3V3*%
G36*
X215890115Y-122743699D02*
G01*
X215921116Y-122766306D01*
X216923520Y-123768710D01*
X216957005Y-123830033D01*
X216952021Y-123899725D01*
X216910149Y-123955658D01*
X216865766Y-123976725D01*
X216737228Y-124008691D01*
X216737221Y-124008694D01*
X216565456Y-124093881D01*
X216565453Y-124093883D01*
X216416010Y-124214009D01*
X216416009Y-124214010D01*
X216295883Y-124363453D01*
X216295881Y-124363457D01*
X216265086Y-124425548D01*
X216217665Y-124476860D01*
X216150029Y-124494388D01*
X216083654Y-124472568D01*
X216042911Y-124425547D01*
X216012116Y-124363453D01*
X215891990Y-124214010D01*
X215863921Y-124191447D01*
X215742546Y-124093883D01*
X215742543Y-124093881D01*
X215570778Y-124008694D01*
X215570776Y-124008693D01*
X215570775Y-124008693D01*
X215532939Y-123999283D01*
X215384708Y-123962419D01*
X215341658Y-123959500D01*
X215341657Y-123959500D01*
X214426344Y-123959501D01*
X214426343Y-123959501D01*
X214383298Y-123962418D01*
X214383297Y-123962418D01*
X214197221Y-124008694D01*
X214025456Y-124093881D01*
X214025453Y-124093883D01*
X213876010Y-124214009D01*
X213876009Y-124214010D01*
X213755883Y-124363453D01*
X213755881Y-124363456D01*
X213670694Y-124535221D01*
X213624419Y-124721291D01*
X213621500Y-124764342D01*
X213621501Y-126679656D01*
X213621501Y-126679657D01*
X213624418Y-126722701D01*
X213624418Y-126722702D01*
X213670694Y-126908778D01*
X213755881Y-127080543D01*
X213755883Y-127080546D01*
X213876009Y-127229989D01*
X213876010Y-127229990D01*
X214025453Y-127350116D01*
X214025456Y-127350118D01*
X214151485Y-127412622D01*
X214197225Y-127435307D01*
X214347013Y-127472558D01*
X214383291Y-127481580D01*
X214383292Y-127481580D01*
X214383296Y-127481581D01*
X214422336Y-127484228D01*
X214426342Y-127484500D01*
X214426342Y-127484499D01*
X214426343Y-127484500D01*
X215341656Y-127484499D01*
X215341657Y-127484499D01*
X215352417Y-127483769D01*
X215384704Y-127481581D01*
X215570775Y-127435307D01*
X215742547Y-127350116D01*
X215747059Y-127346488D01*
X215811642Y-127319830D01*
X215880387Y-127332318D01*
X215912429Y-127355454D01*
X216088746Y-127531771D01*
X216122231Y-127593094D01*
X216125065Y-127619452D01*
X216125065Y-129139617D01*
X216105380Y-129206656D01*
X216052576Y-129252411D01*
X215983418Y-129262355D01*
X215957733Y-129255799D01*
X215841382Y-129212403D01*
X215841372Y-129212401D01*
X215781844Y-129206000D01*
X215134000Y-129206000D01*
X215134000Y-129943698D01*
X215114315Y-130010737D01*
X215061511Y-130056492D01*
X214992355Y-130066436D01*
X214919766Y-130056000D01*
X214919763Y-130056000D01*
X214848237Y-130056000D01*
X214848233Y-130056000D01*
X214775645Y-130066436D01*
X214706487Y-130056492D01*
X214653684Y-130010736D01*
X214634000Y-129943698D01*
X214634000Y-129206000D01*
X213986155Y-129206000D01*
X213926627Y-129212401D01*
X213926620Y-129212403D01*
X213791913Y-129262645D01*
X213791906Y-129262649D01*
X213676812Y-129348809D01*
X213676809Y-129348812D01*
X213590649Y-129463906D01*
X213590645Y-129463913D01*
X213540403Y-129598620D01*
X213540401Y-129598627D01*
X213534000Y-129658155D01*
X213534000Y-130306000D01*
X214270653Y-130306000D01*
X214337692Y-130325685D01*
X214383447Y-130378489D01*
X214393391Y-130447647D01*
X214389631Y-130464933D01*
X214384000Y-130484111D01*
X214384000Y-130627888D01*
X214389631Y-130647067D01*
X214389630Y-130716936D01*
X214351855Y-130775714D01*
X214288299Y-130804738D01*
X214270653Y-130806000D01*
X213534000Y-130806000D01*
X213534000Y-131453844D01*
X213540401Y-131513372D01*
X213540402Y-131513376D01*
X213590649Y-131648093D01*
X213609726Y-131673577D01*
X213634142Y-131739041D01*
X213619290Y-131807314D01*
X213598139Y-131835567D01*
X213325208Y-132108498D01*
X213312951Y-132118319D01*
X213313134Y-132118540D01*
X213307123Y-132123512D01*
X213259772Y-132173935D01*
X213238888Y-132194818D01*
X213238877Y-132194831D01*
X213234621Y-132200316D01*
X213230837Y-132204746D01*
X213198937Y-132238717D01*
X213198936Y-132238719D01*
X213189284Y-132256275D01*
X213178610Y-132272525D01*
X213166329Y-132288360D01*
X213166324Y-132288367D01*
X213147815Y-132331137D01*
X213145245Y-132336383D01*
X213122803Y-132377205D01*
X213117822Y-132396606D01*
X213111521Y-132415009D01*
X213103562Y-132433401D01*
X213103561Y-132433404D01*
X213096271Y-132479426D01*
X213095087Y-132485145D01*
X213083501Y-132530271D01*
X213083500Y-132530281D01*
X213083500Y-132550315D01*
X213081973Y-132569714D01*
X213078840Y-132589493D01*
X213078840Y-132589494D01*
X213083225Y-132635882D01*
X213083500Y-132641720D01*
X213083500Y-133499956D01*
X213081775Y-133515573D01*
X213082061Y-133515600D01*
X213081326Y-133523366D01*
X213083500Y-133592515D01*
X213083500Y-133622044D01*
X213083501Y-133622061D01*
X213084368Y-133628932D01*
X213084826Y-133634751D01*
X213086290Y-133681325D01*
X213086291Y-133681328D01*
X213091880Y-133700568D01*
X213095824Y-133719612D01*
X213098336Y-133739493D01*
X213115490Y-133782820D01*
X213117382Y-133788348D01*
X213130381Y-133833089D01*
X213140580Y-133850335D01*
X213149136Y-133867801D01*
X213150763Y-133871908D01*
X213156514Y-133886433D01*
X213183898Y-133924124D01*
X213187106Y-133929008D01*
X213210827Y-133969117D01*
X213210833Y-133969125D01*
X213224990Y-133983281D01*
X213237628Y-133998077D01*
X213249405Y-134014287D01*
X213249406Y-134014288D01*
X213285309Y-134043989D01*
X213289620Y-134047911D01*
X213571157Y-134329448D01*
X213838527Y-134596818D01*
X213872012Y-134658141D01*
X213867028Y-134727833D01*
X213848311Y-134759955D01*
X213848610Y-134760164D01*
X213846106Y-134763738D01*
X213845837Y-134764202D01*
X213845508Y-134764593D01*
X213709965Y-134958169D01*
X213709964Y-134958171D01*
X213610098Y-135172335D01*
X213610094Y-135172344D01*
X213548938Y-135400586D01*
X213548936Y-135400596D01*
X213528341Y-135635999D01*
X213528341Y-135636000D01*
X213548936Y-135871403D01*
X213548938Y-135871413D01*
X213610094Y-136099655D01*
X213610096Y-136099659D01*
X213610097Y-136099663D01*
X213685861Y-136262138D01*
X213709965Y-136313830D01*
X213709967Y-136313834D01*
X213803724Y-136447732D01*
X213836252Y-136494187D01*
X213845501Y-136507395D01*
X213845506Y-136507402D01*
X214012597Y-136674493D01*
X214012603Y-136674498D01*
X214198158Y-136804425D01*
X214241783Y-136859002D01*
X214248977Y-136928500D01*
X214217454Y-136990855D01*
X214198158Y-137007575D01*
X214012597Y-137137505D01*
X213845505Y-137304597D01*
X213709965Y-137498169D01*
X213709964Y-137498171D01*
X213610098Y-137712335D01*
X213610094Y-137712344D01*
X213548938Y-137940586D01*
X213548936Y-137940596D01*
X213528341Y-138175999D01*
X213528341Y-138176000D01*
X213548936Y-138411403D01*
X213548938Y-138411413D01*
X213610094Y-138639655D01*
X213610096Y-138639659D01*
X213610097Y-138639663D01*
X213647878Y-138720684D01*
X213709965Y-138853830D01*
X213709967Y-138853834D01*
X213818281Y-139008521D01*
X213845505Y-139047401D01*
X214012599Y-139214495D01*
X214098668Y-139274761D01*
X214206165Y-139350032D01*
X214206167Y-139350033D01*
X214206170Y-139350035D01*
X214420337Y-139449903D01*
X214648592Y-139511063D01*
X214836918Y-139527539D01*
X214883999Y-139531659D01*
X214884000Y-139531659D01*
X214884001Y-139531659D01*
X214923234Y-139528226D01*
X215119408Y-139511063D01*
X215347663Y-139449903D01*
X215561830Y-139350035D01*
X215755401Y-139214495D01*
X215922495Y-139047401D01*
X216058035Y-138853830D01*
X216157903Y-138639663D01*
X216219063Y-138411408D01*
X216239659Y-138176000D01*
X216238313Y-138160621D01*
X216227435Y-138036284D01*
X216219063Y-137940592D01*
X216157903Y-137712337D01*
X216058035Y-137498171D01*
X216052567Y-137490361D01*
X215922494Y-137304597D01*
X215755402Y-137137506D01*
X215755396Y-137137501D01*
X215569842Y-137007575D01*
X215526217Y-136952998D01*
X215519023Y-136883500D01*
X215550546Y-136821145D01*
X215569842Y-136804425D01*
X215656689Y-136743614D01*
X215755401Y-136674495D01*
X215922495Y-136507401D01*
X216058035Y-136313830D01*
X216132949Y-136153174D01*
X216179120Y-136100737D01*
X216246313Y-136081585D01*
X216313194Y-136101800D01*
X216333011Y-136117900D01*
X218736181Y-138521070D01*
X218769666Y-138582393D01*
X218772500Y-138608751D01*
X218772499Y-140003500D01*
X218752814Y-140070540D01*
X218700010Y-140116294D01*
X218648499Y-140127500D01*
X217796129Y-140127500D01*
X217796123Y-140127501D01*
X217736516Y-140133908D01*
X217601671Y-140184202D01*
X217601664Y-140184206D01*
X217486455Y-140270452D01*
X217486452Y-140270455D01*
X217400206Y-140385664D01*
X217400202Y-140385671D01*
X217349908Y-140520517D01*
X217345117Y-140565084D01*
X217343501Y-140580123D01*
X217343500Y-140580135D01*
X217343500Y-142375870D01*
X217343501Y-142375876D01*
X217349908Y-142435483D01*
X217400202Y-142570328D01*
X217400206Y-142570335D01*
X217486452Y-142685544D01*
X217486455Y-142685547D01*
X217601664Y-142771793D01*
X217601671Y-142771797D01*
X217736517Y-142822091D01*
X217736516Y-142822091D01*
X217743444Y-142822835D01*
X217796127Y-142828500D01*
X219591872Y-142828499D01*
X219651483Y-142822091D01*
X219786331Y-142771796D01*
X219901546Y-142685546D01*
X219987796Y-142570331D01*
X220038091Y-142435483D01*
X220044500Y-142375873D01*
X220044500Y-142066870D01*
X227423500Y-142066870D01*
X227423501Y-142066876D01*
X227429908Y-142126483D01*
X227480202Y-142261328D01*
X227480206Y-142261335D01*
X227566452Y-142376544D01*
X227566455Y-142376547D01*
X227681664Y-142462793D01*
X227681671Y-142462797D01*
X227816517Y-142513091D01*
X227816516Y-142513091D01*
X227823444Y-142513835D01*
X227876127Y-142519500D01*
X228971872Y-142519499D01*
X229031483Y-142513091D01*
X229166329Y-142462797D01*
X229166329Y-142462796D01*
X229166331Y-142462796D01*
X229199689Y-142437823D01*
X229265151Y-142413406D01*
X229333425Y-142428257D01*
X229348305Y-142437820D01*
X229381669Y-142462796D01*
X229381670Y-142462796D01*
X229381670Y-142462797D01*
X229516517Y-142513091D01*
X229516516Y-142513091D01*
X229523444Y-142513835D01*
X229576127Y-142519500D01*
X230671872Y-142519499D01*
X230731483Y-142513091D01*
X230866331Y-142462796D01*
X230981546Y-142376546D01*
X231067796Y-142261331D01*
X231118091Y-142126483D01*
X231124500Y-142066873D01*
X231124499Y-140561004D01*
X232314490Y-140561004D01*
X232314649Y-140563187D01*
X232315018Y-140565084D01*
X232349000Y-140831113D01*
X232349128Y-140833139D01*
X232349221Y-140833625D01*
X232349463Y-140835119D01*
X232349973Y-140836516D01*
X232350281Y-140837436D01*
X232351118Y-140839192D01*
X232406615Y-140979859D01*
X232406620Y-140979870D01*
X232447284Y-141082942D01*
X232448427Y-141086576D01*
X232450552Y-141091248D01*
X232451848Y-141093238D01*
X232453080Y-141094714D01*
X232610061Y-141310800D01*
X232611161Y-141312557D01*
X232611521Y-141312995D01*
X232612580Y-141314369D01*
X232613880Y-141315502D01*
X232616268Y-141317711D01*
X232619510Y-141320023D01*
X232822270Y-141487566D01*
X232823852Y-141489073D01*
X232824006Y-141489185D01*
X232825715Y-141490518D01*
X232827659Y-141491478D01*
X232830170Y-141492837D01*
X232833974Y-141494298D01*
X233070839Y-141605595D01*
X233072626Y-141606592D01*
X233073234Y-141606836D01*
X233074802Y-141607520D01*
X233076422Y-141607872D01*
X233079970Y-141608749D01*
X233083861Y-141609204D01*
X233341700Y-141658682D01*
X233344161Y-141659332D01*
X233345943Y-141659625D01*
X233348627Y-141659500D01*
X233351203Y-141659494D01*
X233355379Y-141658918D01*
X233616710Y-141642765D01*
X233618813Y-141642780D01*
X233619179Y-141642736D01*
X233621103Y-141642562D01*
X233622937Y-141642017D01*
X233623348Y-141641908D01*
X233625292Y-141641116D01*
X233873556Y-141559625D01*
X233877083Y-141558777D01*
X233881976Y-141556931D01*
X233883266Y-141556479D01*
X233884548Y-141555711D01*
X233888182Y-141553661D01*
X233891235Y-141551395D01*
X234108558Y-141414283D01*
X234112181Y-141412351D01*
X234114786Y-141410491D01*
X234116353Y-141409446D01*
X234117679Y-141408103D01*
X234120170Y-141405733D01*
X234122725Y-141402573D01*
X234298916Y-141215196D01*
X234302162Y-141212229D01*
X234303590Y-141210502D01*
X234305510Y-141208391D01*
X234306940Y-141205908D01*
X234308067Y-141204145D01*
X234309925Y-141200073D01*
X234407208Y-141023057D01*
X234407217Y-141023049D01*
X234434014Y-140974286D01*
X234436275Y-140970805D01*
X234437600Y-140968019D01*
X234438551Y-140966183D01*
X234439113Y-140964181D01*
X234439959Y-140961529D01*
X234440690Y-140957451D01*
X234504191Y-140708123D01*
X234505407Y-140704502D01*
X234506210Y-140700528D01*
X234506552Y-140699033D01*
X234506597Y-140697459D01*
X234506642Y-140696650D01*
X234506500Y-140694617D01*
X234506500Y-140431844D01*
X234506770Y-140428037D01*
X234506582Y-140424387D01*
X234506545Y-140422954D01*
X234506236Y-140421575D01*
X234505512Y-140417932D01*
X234504285Y-140414239D01*
X234497009Y-140385671D01*
X234440667Y-140164453D01*
X234439974Y-140160602D01*
X234438976Y-140157413D01*
X234438524Y-140155808D01*
X234437767Y-140154320D01*
X234437488Y-140153731D01*
X234436358Y-140151974D01*
X234309752Y-139921608D01*
X234308025Y-139917850D01*
X234306577Y-139915550D01*
X234305473Y-139913645D01*
X234304011Y-139912004D01*
X234303966Y-139911949D01*
X234302376Y-139910478D01*
X234119207Y-139715679D01*
X234117866Y-139714048D01*
X234116430Y-139712598D01*
X234114760Y-139711477D01*
X234114405Y-139711221D01*
X234112517Y-139710209D01*
X233886929Y-139567882D01*
X233885531Y-139566858D01*
X233883211Y-139565529D01*
X233877697Y-139563469D01*
X233874443Y-139562660D01*
X233648898Y-139488627D01*
X233624904Y-139480751D01*
X233623149Y-139480049D01*
X233621094Y-139479493D01*
X233619080Y-139479258D01*
X233617175Y-139479258D01*
X233350280Y-139462761D01*
X233348324Y-139462506D01*
X233347469Y-139462500D01*
X233345933Y-139462447D01*
X233344337Y-139462695D01*
X233344120Y-139462722D01*
X233342140Y-139463229D01*
X233336814Y-139464250D01*
X233336803Y-139464254D01*
X233078762Y-139513769D01*
X233076841Y-139514014D01*
X233076156Y-139514186D01*
X233075016Y-139514442D01*
X233074976Y-139514461D01*
X233072897Y-139515296D01*
X233071164Y-139516250D01*
X232829517Y-139629790D01*
X232827694Y-139630504D01*
X232825731Y-139631559D01*
X232823963Y-139632863D01*
X232822532Y-139634212D01*
X232615803Y-139805035D01*
X232614234Y-139806170D01*
X232612632Y-139807646D01*
X232611205Y-139809410D01*
X232610191Y-139811017D01*
X232452889Y-140027543D01*
X232451701Y-140028980D01*
X232450550Y-140030750D01*
X232449482Y-140033138D01*
X232448940Y-140034851D01*
X232351029Y-140283024D01*
X232350207Y-140284767D01*
X232349506Y-140286868D01*
X232349123Y-140288946D01*
X232349000Y-140290881D01*
X232315002Y-140557033D01*
X232314627Y-140558984D01*
X232314490Y-140561004D01*
X231124499Y-140561004D01*
X231124499Y-140521128D01*
X231118091Y-140461517D01*
X231117161Y-140459024D01*
X231067797Y-140326671D01*
X231067793Y-140326664D01*
X230981547Y-140211455D01*
X230981544Y-140211452D01*
X230866335Y-140125206D01*
X230866328Y-140125202D01*
X230731482Y-140074908D01*
X230731483Y-140074908D01*
X230671883Y-140068501D01*
X230671881Y-140068500D01*
X230671873Y-140068500D01*
X230671864Y-140068500D01*
X229576129Y-140068500D01*
X229576123Y-140068501D01*
X229516516Y-140074908D01*
X229381671Y-140125202D01*
X229381669Y-140125203D01*
X229348310Y-140150176D01*
X229282845Y-140174592D01*
X229214572Y-140159740D01*
X229199690Y-140150176D01*
X229166330Y-140125203D01*
X229166328Y-140125202D01*
X229031482Y-140074908D01*
X229031483Y-140074908D01*
X228971883Y-140068501D01*
X228971881Y-140068500D01*
X228971873Y-140068500D01*
X228971864Y-140068500D01*
X227876129Y-140068500D01*
X227876123Y-140068501D01*
X227816516Y-140074908D01*
X227681671Y-140125202D01*
X227681664Y-140125206D01*
X227566455Y-140211452D01*
X227566452Y-140211455D01*
X227480206Y-140326664D01*
X227480202Y-140326671D01*
X227429908Y-140461517D01*
X227423565Y-140520518D01*
X227423501Y-140521123D01*
X227423500Y-140521135D01*
X227423500Y-142066870D01*
X220044500Y-142066870D01*
X220044499Y-140580128D01*
X220038091Y-140520517D01*
X220031316Y-140502354D01*
X220023500Y-140459024D01*
X220023500Y-138381041D01*
X220025224Y-138365421D01*
X220024939Y-138365395D01*
X220025671Y-138357639D01*
X220025673Y-138357632D01*
X220023500Y-138288484D01*
X220023500Y-138258949D01*
X220022631Y-138252071D01*
X220022172Y-138246242D01*
X220020709Y-138199671D01*
X220015122Y-138180443D01*
X220011174Y-138161383D01*
X220008663Y-138141503D01*
X219991512Y-138098186D01*
X219989619Y-138092657D01*
X219976618Y-138047908D01*
X219976616Y-138047905D01*
X219966423Y-138030670D01*
X219957861Y-138013193D01*
X219950487Y-137994569D01*
X219948489Y-137991819D01*
X219923079Y-137956844D01*
X219919888Y-137951985D01*
X219919596Y-137951492D01*
X219896170Y-137911879D01*
X219896168Y-137911877D01*
X219896165Y-137911873D01*
X219882006Y-137897714D01*
X219869368Y-137882918D01*
X219857594Y-137866712D01*
X219852802Y-137862748D01*
X219821688Y-137837008D01*
X219817376Y-137833085D01*
X217862292Y-135878000D01*
X219464001Y-135878000D01*
X219464001Y-136585607D01*
X219466917Y-136628632D01*
X219466917Y-136628634D01*
X219513165Y-136814602D01*
X219598307Y-136986275D01*
X219718365Y-137135633D01*
X219718366Y-137135634D01*
X219867725Y-137255692D01*
X219867724Y-137255692D01*
X220039397Y-137340834D01*
X220225361Y-137387081D01*
X220225358Y-137387081D01*
X220268391Y-137389999D01*
X220475999Y-137389999D01*
X220476000Y-137389998D01*
X220476000Y-135878000D01*
X219464001Y-135878000D01*
X217862292Y-135878000D01*
X216008092Y-134023800D01*
X215974607Y-133962477D01*
X215979591Y-133892785D01*
X215994194Y-133865002D01*
X216057653Y-133774374D01*
X216112231Y-133730751D01*
X216159227Y-133721500D01*
X216292257Y-133721500D01*
X216307877Y-133723224D01*
X216307904Y-133722939D01*
X216315660Y-133723671D01*
X216315667Y-133723673D01*
X216384814Y-133721500D01*
X216414350Y-133721500D01*
X216421228Y-133720630D01*
X216427041Y-133720172D01*
X216473627Y-133718709D01*
X216492869Y-133713117D01*
X216511912Y-133709174D01*
X216531792Y-133706664D01*
X216575122Y-133689507D01*
X216580646Y-133687617D01*
X216584396Y-133686527D01*
X216625390Y-133674618D01*
X216642629Y-133664422D01*
X216660103Y-133655862D01*
X216678727Y-133648488D01*
X216678727Y-133648487D01*
X216678732Y-133648486D01*
X216716449Y-133621082D01*
X216721305Y-133617892D01*
X216761420Y-133594170D01*
X216775589Y-133579999D01*
X216790379Y-133567368D01*
X216806587Y-133555594D01*
X216836299Y-133519676D01*
X216840212Y-133515376D01*
X219331788Y-131023801D01*
X219344042Y-131013986D01*
X219343859Y-131013764D01*
X219349866Y-131008792D01*
X219349877Y-131008786D01*
X219380775Y-130975882D01*
X219397227Y-130958364D01*
X219407671Y-130947918D01*
X219418120Y-130937471D01*
X219422379Y-130931978D01*
X219426152Y-130927561D01*
X219458062Y-130893582D01*
X219467713Y-130876024D01*
X219478396Y-130859761D01*
X219490673Y-130843936D01*
X219509185Y-130801153D01*
X219511738Y-130795941D01*
X219534197Y-130755092D01*
X219539180Y-130735680D01*
X219545481Y-130717280D01*
X219553437Y-130698896D01*
X219560729Y-130652852D01*
X219561906Y-130647171D01*
X219573500Y-130602019D01*
X219573500Y-130581982D01*
X219575027Y-130562582D01*
X219578160Y-130542804D01*
X219573775Y-130496418D01*
X219573500Y-130490580D01*
X219573500Y-129488637D01*
X219575224Y-129473023D01*
X219574938Y-129472996D01*
X219575671Y-129465235D01*
X219575672Y-129465232D01*
X219574087Y-129414816D01*
X219591656Y-129347195D01*
X219610341Y-129323247D01*
X219952820Y-128980769D01*
X220014142Y-128947285D01*
X220083834Y-128952269D01*
X220139767Y-128994141D01*
X220164184Y-129059605D01*
X220164500Y-129068451D01*
X220164500Y-133036465D01*
X220164416Y-133036887D01*
X220164459Y-133060999D01*
X220164500Y-133061097D01*
X220164616Y-133061380D01*
X220164618Y-133061382D01*
X220164808Y-133061460D01*
X220165000Y-133061539D01*
X220165002Y-133061537D01*
X220189616Y-133061522D01*
X220189616Y-133061526D01*
X220189760Y-133061498D01*
X225140240Y-133061498D01*
X225140383Y-133061526D01*
X225140384Y-133061522D01*
X225164997Y-133061537D01*
X225165000Y-133061539D01*
X225165383Y-133061381D01*
X225165500Y-133061097D01*
X225165541Y-133060998D01*
X225165540Y-133060995D01*
X225165583Y-133036888D01*
X225165500Y-133036470D01*
X225165500Y-130752901D01*
X225165500Y-130752900D01*
X225165500Y-128085756D01*
X225165528Y-128085614D01*
X225165524Y-128085614D01*
X225165539Y-128061000D01*
X225165541Y-128060998D01*
X225165462Y-128060806D01*
X225165384Y-128060616D01*
X225165382Y-128060614D01*
X225165099Y-128060498D01*
X225165000Y-128060457D01*
X225140446Y-128060457D01*
X225140240Y-128060498D01*
X223643454Y-128060498D01*
X223576415Y-128040813D01*
X223530660Y-127988009D01*
X223520716Y-127918851D01*
X223549741Y-127855295D01*
X223555773Y-127848817D01*
X223688050Y-127716540D01*
X223974788Y-127429801D01*
X223987042Y-127419986D01*
X223986859Y-127419764D01*
X223992867Y-127414792D01*
X223992877Y-127414786D01*
X224032607Y-127372477D01*
X224092847Y-127337084D01*
X224162661Y-127339876D01*
X224179112Y-127347767D01*
X224179429Y-127347129D01*
X224311485Y-127412622D01*
X224357225Y-127435307D01*
X224507013Y-127472558D01*
X224543291Y-127481580D01*
X224543292Y-127481580D01*
X224543296Y-127481581D01*
X224582336Y-127484228D01*
X224586342Y-127484500D01*
X224586342Y-127484499D01*
X224586343Y-127484500D01*
X225479275Y-127484499D01*
X225546314Y-127504183D01*
X225554874Y-127510210D01*
X225823103Y-127716540D01*
X225864238Y-127773017D01*
X225871499Y-127814825D01*
X225871499Y-127945158D01*
X225869303Y-127968390D01*
X225867773Y-127976412D01*
X225871378Y-128033724D01*
X225871500Y-128037595D01*
X225871500Y-133110546D01*
X225851815Y-133177585D01*
X225835181Y-133198227D01*
X225204227Y-133829181D01*
X225142904Y-133862666D01*
X225116546Y-133865500D01*
X224332344Y-133865501D01*
X224332343Y-133865501D01*
X224289298Y-133868418D01*
X224289297Y-133868418D01*
X224103221Y-133914694D01*
X224103220Y-133914694D01*
X223960480Y-133985487D01*
X223891675Y-133997639D01*
X223831075Y-133973666D01*
X223824998Y-133969117D01*
X223762331Y-133922204D01*
X223762330Y-133922203D01*
X223762328Y-133922202D01*
X223627482Y-133871908D01*
X223627483Y-133871908D01*
X223567883Y-133865501D01*
X223567881Y-133865500D01*
X223567873Y-133865500D01*
X223567864Y-133865500D01*
X221948129Y-133865500D01*
X221948123Y-133865501D01*
X221888516Y-133871908D01*
X221753671Y-133922202D01*
X221753669Y-133922203D01*
X221684476Y-133974002D01*
X221619012Y-133998419D01*
X221555070Y-133985823D01*
X221412602Y-133915165D01*
X221226638Y-133868918D01*
X221226641Y-133868918D01*
X221183608Y-133866000D01*
X220976000Y-133866000D01*
X220976000Y-134637325D01*
X220956315Y-134704364D01*
X220903511Y-134750119D01*
X220834353Y-134760063D01*
X220811739Y-134754607D01*
X220789580Y-134747000D01*
X220789578Y-134747000D01*
X220694431Y-134747000D01*
X220694430Y-134747000D01*
X220620408Y-134759351D01*
X220551043Y-134750968D01*
X220497222Y-134706415D01*
X220476031Y-134639836D01*
X220476000Y-134637042D01*
X220475999Y-133866000D01*
X220268394Y-133866001D01*
X220225366Y-133868917D01*
X220225365Y-133868917D01*
X220039397Y-133915165D01*
X219867724Y-134000307D01*
X219718366Y-134120365D01*
X219718365Y-134120366D01*
X219598307Y-134269724D01*
X219513165Y-134441397D01*
X219466918Y-134627359D01*
X219464000Y-134670392D01*
X219464000Y-135378000D01*
X220384324Y-135378000D01*
X220451363Y-135397685D01*
X220460486Y-135404146D01*
X220542157Y-135467713D01*
X220542158Y-135467713D01*
X220542159Y-135467714D01*
X220662420Y-135509000D01*
X220662422Y-135509000D01*
X220757568Y-135509000D01*
X220757569Y-135509000D01*
X220831590Y-135496648D01*
X220900956Y-135505030D01*
X220954778Y-135549583D01*
X220975968Y-135616162D01*
X220976000Y-135618957D01*
X220976000Y-137389999D01*
X221183607Y-137389999D01*
X221226632Y-137387082D01*
X221226634Y-137387082D01*
X221412602Y-137340834D01*
X221555070Y-137270176D01*
X221623875Y-137258024D01*
X221684474Y-137281997D01*
X221736644Y-137321051D01*
X221753668Y-137333795D01*
X221753671Y-137333797D01*
X221773807Y-137341307D01*
X221888517Y-137384091D01*
X221948127Y-137390500D01*
X221997989Y-137390499D01*
X222065026Y-137410182D01*
X222110782Y-137462985D01*
X222121310Y-137527459D01*
X222106540Y-137667999D01*
X222126325Y-137856256D01*
X222126585Y-137857476D01*
X222126628Y-137859136D01*
X222127005Y-137862719D01*
X222126723Y-137862748D01*
X222127551Y-137894383D01*
X222128085Y-137894400D01*
X222127840Y-137902196D01*
X222131884Y-137944988D01*
X222132224Y-137948580D01*
X222132499Y-137954417D01*
X222132499Y-139307255D01*
X222130776Y-139322872D01*
X222131061Y-139322899D01*
X222130326Y-139330665D01*
X222132500Y-139399814D01*
X222132500Y-139429343D01*
X222132501Y-139429360D01*
X222133368Y-139436231D01*
X222133826Y-139442050D01*
X222135290Y-139488624D01*
X222135291Y-139488627D01*
X222140880Y-139507867D01*
X222144824Y-139526911D01*
X222147336Y-139546792D01*
X222155686Y-139567882D01*
X222164490Y-139590119D01*
X222166382Y-139595647D01*
X222179381Y-139640388D01*
X222189580Y-139657634D01*
X222198138Y-139675103D01*
X222205514Y-139693732D01*
X222232898Y-139731423D01*
X222236106Y-139736307D01*
X222259830Y-139776422D01*
X222261480Y-139778548D01*
X222262253Y-139780518D01*
X222263800Y-139783133D01*
X222263378Y-139783382D01*
X222287014Y-139843584D01*
X222287500Y-139854547D01*
X222287500Y-139934692D01*
X222290356Y-139970991D01*
X222290357Y-139970997D01*
X222335504Y-140126390D01*
X222335505Y-140126393D01*
X222335506Y-140126395D01*
X222351675Y-140153735D01*
X222417881Y-140265684D01*
X222417887Y-140265692D01*
X222532307Y-140380112D01*
X222532311Y-140380115D01*
X222532313Y-140380117D01*
X222671605Y-140462494D01*
X222712587Y-140474400D01*
X222827002Y-140507642D01*
X222827005Y-140507642D01*
X222827007Y-140507643D01*
X222839107Y-140508595D01*
X222863308Y-140510500D01*
X222863310Y-140510500D01*
X223272692Y-140510500D01*
X223290841Y-140509071D01*
X223308993Y-140507643D01*
X223308995Y-140507642D01*
X223308997Y-140507642D01*
X223349975Y-140495736D01*
X223464395Y-140462494D01*
X223484879Y-140450379D01*
X223552601Y-140433196D01*
X223611119Y-140450379D01*
X223631605Y-140462494D01*
X223631607Y-140462494D01*
X223631608Y-140462495D01*
X223787002Y-140507642D01*
X223787005Y-140507642D01*
X223787007Y-140507643D01*
X223799107Y-140508595D01*
X223823308Y-140510500D01*
X223823310Y-140510500D01*
X224232692Y-140510500D01*
X224250841Y-140509071D01*
X224268993Y-140507643D01*
X224268995Y-140507642D01*
X224268997Y-140507642D01*
X224309975Y-140495736D01*
X224424395Y-140462494D01*
X224563687Y-140380117D01*
X224678117Y-140265687D01*
X224760494Y-140126395D01*
X224799904Y-139990747D01*
X224805642Y-139970997D01*
X224805643Y-139970991D01*
X224808500Y-139934692D01*
X224808500Y-139855451D01*
X224828185Y-139788412D01*
X224844815Y-139767774D01*
X225173786Y-139438802D01*
X225186048Y-139428980D01*
X225185865Y-139428759D01*
X225191867Y-139423792D01*
X225191877Y-139423786D01*
X225239241Y-139373348D01*
X225260120Y-139352470D01*
X225264373Y-139346986D01*
X225268150Y-139342563D01*
X225300062Y-139308582D01*
X225309714Y-139291023D01*
X225320389Y-139274772D01*
X225332674Y-139258936D01*
X225351186Y-139216152D01*
X225353742Y-139210935D01*
X225376197Y-139170092D01*
X225381180Y-139150680D01*
X225387477Y-139132291D01*
X225395438Y-139113895D01*
X225402729Y-139067853D01*
X225403906Y-139062166D01*
X225415500Y-139017019D01*
X225415499Y-138996986D01*
X225417027Y-138977583D01*
X225419569Y-138961532D01*
X225420160Y-138957804D01*
X225415775Y-138911415D01*
X225415500Y-138905577D01*
X225415500Y-137448610D01*
X225435185Y-137381571D01*
X225484405Y-137337522D01*
X225648547Y-137256116D01*
X225797990Y-137135990D01*
X225918116Y-136986547D01*
X226003307Y-136814775D01*
X226049581Y-136628704D01*
X226052500Y-136585657D01*
X226052499Y-135730223D01*
X226072183Y-135663186D01*
X226124987Y-135617431D01*
X226194146Y-135607487D01*
X226257702Y-135636512D01*
X226262872Y-135641585D01*
X226266429Y-135644788D01*
X226419565Y-135756048D01*
X226419570Y-135756051D01*
X226592492Y-135833042D01*
X226592497Y-135833044D01*
X226777654Y-135872400D01*
X226836846Y-135872400D01*
X226903885Y-135892085D01*
X226924523Y-135908715D01*
X226935277Y-135919468D01*
X226968765Y-135980789D01*
X226971600Y-136007153D01*
X226971600Y-136073152D01*
X226969405Y-136096379D01*
X226967873Y-136104412D01*
X226971478Y-136161724D01*
X226971600Y-136165595D01*
X226971600Y-136183356D01*
X226973825Y-136200968D01*
X226974191Y-136204843D01*
X226977796Y-136262138D01*
X226980322Y-136269914D01*
X226985409Y-136292672D01*
X226986434Y-136300784D01*
X226986436Y-136300792D01*
X227007569Y-136354170D01*
X227008888Y-136357833D01*
X227026632Y-136412440D01*
X227031007Y-136419333D01*
X227041603Y-136440129D01*
X227044611Y-136447726D01*
X227044613Y-136447731D01*
X227078365Y-136494187D01*
X227080555Y-136497409D01*
X227111313Y-136545876D01*
X227117264Y-136551464D01*
X227132704Y-136568978D01*
X227137503Y-136575585D01*
X227181747Y-136612187D01*
X227184667Y-136614761D01*
X227226518Y-136654062D01*
X227233678Y-136657998D01*
X227252979Y-136671114D01*
X227259277Y-136676324D01*
X227259278Y-136676324D01*
X227259279Y-136676325D01*
X227311225Y-136700769D01*
X227314697Y-136702538D01*
X227359239Y-136727026D01*
X227408502Y-136776573D01*
X227423500Y-136835686D01*
X227423500Y-136916869D01*
X227423501Y-136916876D01*
X227429908Y-136976483D01*
X227480202Y-137111328D01*
X227480206Y-137111335D01*
X227566452Y-137226544D01*
X227566455Y-137226547D01*
X227681664Y-137312793D01*
X227681671Y-137312797D01*
X227816517Y-137363091D01*
X227816516Y-137363091D01*
X227823444Y-137363835D01*
X227876127Y-137369500D01*
X228725347Y-137369499D01*
X228792386Y-137389183D01*
X228813028Y-137405818D01*
X228813091Y-137405881D01*
X228825726Y-137420674D01*
X228834237Y-137432388D01*
X228837506Y-137436887D01*
X228869053Y-137462985D01*
X228873409Y-137466588D01*
X228877720Y-137470510D01*
X229505396Y-138098186D01*
X230127894Y-138720684D01*
X230137719Y-138732948D01*
X230137940Y-138732766D01*
X230142910Y-138738773D01*
X230142913Y-138738776D01*
X230142914Y-138738777D01*
X230193351Y-138786141D01*
X230214229Y-138807019D01*
X230219704Y-138811266D01*
X230224146Y-138815060D01*
X230258115Y-138846960D01*
X230258117Y-138846961D01*
X230258118Y-138846962D01*
X230275676Y-138856614D01*
X230291937Y-138867296D01*
X230307764Y-138879573D01*
X230350523Y-138898076D01*
X230355773Y-138900648D01*
X230396604Y-138923095D01*
X230396608Y-138923097D01*
X230396612Y-138923098D01*
X230416011Y-138928079D01*
X230434422Y-138934383D01*
X230452797Y-138942335D01*
X230452800Y-138942335D01*
X230452805Y-138942338D01*
X230498849Y-138949629D01*
X230504532Y-138950806D01*
X230549681Y-138962400D01*
X230569716Y-138962400D01*
X230589113Y-138963926D01*
X230608896Y-138967060D01*
X230655283Y-138962675D01*
X230661122Y-138962400D01*
X235122757Y-138962400D01*
X235138377Y-138964124D01*
X235138404Y-138963839D01*
X235146160Y-138964571D01*
X235146167Y-138964573D01*
X235215314Y-138962400D01*
X235244850Y-138962400D01*
X235251728Y-138961530D01*
X235257541Y-138961072D01*
X235304127Y-138959609D01*
X235323369Y-138954017D01*
X235342412Y-138950074D01*
X235362292Y-138947564D01*
X235405622Y-138930407D01*
X235411146Y-138928517D01*
X235414896Y-138927427D01*
X235455890Y-138915518D01*
X235473129Y-138905322D01*
X235490603Y-138896762D01*
X235509227Y-138889388D01*
X235509227Y-138889387D01*
X235509232Y-138889386D01*
X235546949Y-138861982D01*
X235551805Y-138858792D01*
X235591920Y-138835070D01*
X235606089Y-138820899D01*
X235620879Y-138808268D01*
X235637087Y-138796494D01*
X235666799Y-138760576D01*
X235670712Y-138756276D01*
X236202822Y-138224167D01*
X236264141Y-138190685D01*
X236333833Y-138195669D01*
X236389766Y-138237541D01*
X236414183Y-138303005D01*
X236414499Y-138311851D01*
X236414500Y-138944902D01*
X236414500Y-140558530D01*
X236414308Y-140563408D01*
X236378271Y-141020199D01*
X236375226Y-141039405D01*
X236269796Y-141478381D01*
X236263803Y-141496835D01*
X236091304Y-141913702D01*
X236082422Y-141931131D01*
X235846691Y-142315390D01*
X235835254Y-142331117D01*
X235541953Y-142674262D01*
X235528263Y-142687952D01*
X235374748Y-142819168D01*
X235374749Y-142819168D01*
X235309067Y-142875309D01*
X235185114Y-142981258D01*
X235169385Y-142992696D01*
X235063865Y-143057426D01*
X235063860Y-143057431D01*
X234785136Y-143228420D01*
X234767706Y-143237302D01*
X234350831Y-143409801D01*
X234332377Y-143415794D01*
X233893406Y-143521221D01*
X233874202Y-143524266D01*
X233417410Y-143560306D01*
X233412531Y-143560498D01*
X211917469Y-143560498D01*
X211912591Y-143560306D01*
X211455796Y-143524266D01*
X211436592Y-143521221D01*
X210997618Y-143415794D01*
X210979164Y-143409801D01*
X210785784Y-143329783D01*
X210785780Y-143329781D01*
X210562287Y-143237300D01*
X210544858Y-143228418D01*
X210160607Y-142992693D01*
X210144880Y-142981256D01*
X209801735Y-142687954D01*
X209788044Y-142674263D01*
X209655760Y-142519499D01*
X209494741Y-142331116D01*
X209483305Y-142315390D01*
X209367417Y-142126483D01*
X209247575Y-141931131D01*
X209238698Y-141913712D01*
X209066192Y-141496826D01*
X209060203Y-141478381D01*
X208954772Y-141039404D01*
X208951728Y-141020199D01*
X208948546Y-140979870D01*
X208915691Y-140563407D01*
X208915597Y-140561002D01*
X210814488Y-140561002D01*
X210814643Y-140563166D01*
X210815016Y-140565087D01*
X210848998Y-140831113D01*
X210849126Y-140833139D01*
X210849219Y-140833625D01*
X210849461Y-140835119D01*
X210849971Y-140836516D01*
X210850279Y-140837436D01*
X210851116Y-140839192D01*
X210915575Y-141002575D01*
X210915584Y-141002594D01*
X210948986Y-141087260D01*
X210949607Y-141089208D01*
X210949981Y-141090015D01*
X210950537Y-141091294D01*
X210951369Y-141092509D01*
X210951799Y-141093174D01*
X210953057Y-141094682D01*
X211110058Y-141310798D01*
X211111160Y-141312557D01*
X211111519Y-141312995D01*
X211112578Y-141314369D01*
X211113878Y-141315502D01*
X211116265Y-141317709D01*
X211119508Y-141320023D01*
X211322557Y-141487804D01*
X211324062Y-141489221D01*
X211324223Y-141489338D01*
X211325623Y-141490424D01*
X211327065Y-141491145D01*
X211330666Y-141493066D01*
X211334290Y-141494446D01*
X211570837Y-141605592D01*
X211572633Y-141606594D01*
X211573234Y-141606836D01*
X211574802Y-141607520D01*
X211576422Y-141607872D01*
X211579970Y-141608749D01*
X211583861Y-141609204D01*
X211841700Y-141658682D01*
X211844161Y-141659332D01*
X211845943Y-141659625D01*
X211848627Y-141659500D01*
X211851203Y-141659494D01*
X211855379Y-141658918D01*
X212116708Y-141642765D01*
X212118811Y-141642780D01*
X212119177Y-141642736D01*
X212121101Y-141642562D01*
X212122935Y-141642017D01*
X212123352Y-141641907D01*
X212125302Y-141641112D01*
X212373549Y-141559628D01*
X212377082Y-141558778D01*
X212381977Y-141556931D01*
X212383267Y-141556479D01*
X212384549Y-141555711D01*
X212388180Y-141553663D01*
X212391228Y-141551400D01*
X212608063Y-141414595D01*
X212612001Y-141412521D01*
X212614095Y-141411005D01*
X212616455Y-141409453D01*
X212618438Y-141407418D01*
X212619981Y-141405977D01*
X212622766Y-141402530D01*
X212798916Y-141215196D01*
X212802162Y-141212229D01*
X212803590Y-141210502D01*
X212805510Y-141208391D01*
X212806940Y-141205908D01*
X212808068Y-141204144D01*
X212809925Y-141200073D01*
X212867829Y-141094714D01*
X212907210Y-141023057D01*
X212907219Y-141023049D01*
X212934016Y-140974286D01*
X212936277Y-140970805D01*
X212937602Y-140968019D01*
X212938553Y-140966183D01*
X212939115Y-140964181D01*
X212939963Y-140961525D01*
X212940697Y-140957434D01*
X212971258Y-140837436D01*
X213004154Y-140708268D01*
X213005368Y-140704666D01*
X213006219Y-140700480D01*
X213006553Y-140699027D01*
X213006597Y-140697458D01*
X213006642Y-140696649D01*
X213006500Y-140694616D01*
X213006500Y-140431845D01*
X213006770Y-140428038D01*
X213006582Y-140424388D01*
X213006545Y-140422961D01*
X213006244Y-140421621D01*
X213005471Y-140417761D01*
X213004245Y-140414084D01*
X212997009Y-140385671D01*
X212940670Y-140164454D01*
X212939976Y-140160602D01*
X212938978Y-140157413D01*
X212938526Y-140155808D01*
X212937769Y-140154320D01*
X212937491Y-140153735D01*
X212936357Y-140151970D01*
X212871995Y-140034863D01*
X212847389Y-139990091D01*
X212809749Y-139921603D01*
X212808024Y-139917848D01*
X212806577Y-139915550D01*
X212805473Y-139913645D01*
X212804011Y-139912004D01*
X212803968Y-139911952D01*
X212802373Y-139910476D01*
X212749783Y-139854547D01*
X212619365Y-139715848D01*
X212618181Y-139714398D01*
X212616352Y-139712631D01*
X212616350Y-139712629D01*
X212616346Y-139712627D01*
X212616319Y-139712600D01*
X212614481Y-139711294D01*
X212612748Y-139710355D01*
X212386930Y-139567882D01*
X212385532Y-139566858D01*
X212383212Y-139565529D01*
X212377699Y-139563470D01*
X212374450Y-139562662D01*
X212124904Y-139480751D01*
X212123152Y-139480051D01*
X212121092Y-139479493D01*
X212119078Y-139479258D01*
X212117173Y-139479258D01*
X211850280Y-139462761D01*
X211848324Y-139462506D01*
X211847469Y-139462500D01*
X211845933Y-139462447D01*
X211844337Y-139462695D01*
X211844118Y-139462722D01*
X211842140Y-139463229D01*
X211578763Y-139513769D01*
X211576840Y-139514014D01*
X211576156Y-139514186D01*
X211575016Y-139514442D01*
X211574976Y-139514461D01*
X211572897Y-139515296D01*
X211571164Y-139516250D01*
X211329263Y-139629909D01*
X211327549Y-139630589D01*
X211325718Y-139631569D01*
X211323948Y-139632889D01*
X211322603Y-139634153D01*
X211115797Y-139805038D01*
X211114233Y-139806169D01*
X211112630Y-139807646D01*
X211111203Y-139809410D01*
X211110194Y-139811009D01*
X210952886Y-140027546D01*
X210951703Y-140028978D01*
X210950550Y-140030750D01*
X210949481Y-140033139D01*
X210948936Y-140034863D01*
X210851031Y-140283016D01*
X210850204Y-140284769D01*
X210849504Y-140286868D01*
X210849119Y-140288956D01*
X210848996Y-140290889D01*
X210815000Y-140557033D01*
X210814630Y-140558956D01*
X210814488Y-140561002D01*
X208915597Y-140561002D01*
X208915500Y-140558530D01*
X208915500Y-137160000D01*
X209464341Y-137160000D01*
X209484936Y-137395403D01*
X209484938Y-137395413D01*
X209546094Y-137623655D01*
X209546096Y-137623659D01*
X209546097Y-137623663D01*
X209626687Y-137796488D01*
X209645965Y-137837830D01*
X209645967Y-137837834D01*
X209729319Y-137956872D01*
X209781505Y-138031401D01*
X209948599Y-138198495D01*
X210034933Y-138258947D01*
X210142165Y-138334032D01*
X210142167Y-138334033D01*
X210142170Y-138334035D01*
X210356337Y-138433903D01*
X210584592Y-138495063D01*
X210772918Y-138511539D01*
X210819999Y-138515659D01*
X210820000Y-138515659D01*
X210820001Y-138515659D01*
X210859234Y-138512226D01*
X211055408Y-138495063D01*
X211283663Y-138433903D01*
X211497830Y-138334035D01*
X211691401Y-138198495D01*
X211858495Y-138031401D01*
X211994035Y-137837830D01*
X212093903Y-137623663D01*
X212155063Y-137395408D01*
X212175659Y-137160000D01*
X212155063Y-136924592D01*
X212095565Y-136702538D01*
X212093905Y-136696344D01*
X212093904Y-136696343D01*
X212093903Y-136696337D01*
X211994035Y-136482171D01*
X211993651Y-136481623D01*
X211858496Y-136288600D01*
X211832034Y-136262138D01*
X211736567Y-136166671D01*
X211703084Y-136105351D01*
X211708068Y-136035659D01*
X211749939Y-135979725D01*
X211780915Y-135962810D01*
X211912331Y-135913796D01*
X212027546Y-135827546D01*
X212113796Y-135712331D01*
X212164091Y-135577483D01*
X212170500Y-135517873D01*
X212170499Y-133722128D01*
X212164091Y-133662517D01*
X212162948Y-133659453D01*
X212113797Y-133527671D01*
X212113793Y-133527664D01*
X212027547Y-133412455D01*
X212027544Y-133412452D01*
X211912335Y-133326206D01*
X211912328Y-133326202D01*
X211777482Y-133275908D01*
X211777483Y-133275908D01*
X211717883Y-133269501D01*
X211717881Y-133269500D01*
X211717873Y-133269500D01*
X211717864Y-133269500D01*
X209922129Y-133269500D01*
X209922123Y-133269501D01*
X209862516Y-133275908D01*
X209727671Y-133326202D01*
X209727664Y-133326206D01*
X209612455Y-133412452D01*
X209612452Y-133412455D01*
X209526206Y-133527664D01*
X209526202Y-133527671D01*
X209475908Y-133662517D01*
X209469567Y-133721500D01*
X209469501Y-133722123D01*
X209469500Y-133722135D01*
X209469500Y-135517870D01*
X209469501Y-135517876D01*
X209475908Y-135577483D01*
X209526202Y-135712328D01*
X209526206Y-135712335D01*
X209612452Y-135827544D01*
X209612455Y-135827547D01*
X209727664Y-135913793D01*
X209727671Y-135913797D01*
X209859081Y-135962810D01*
X209915015Y-136004681D01*
X209939432Y-136070145D01*
X209924580Y-136138418D01*
X209903430Y-136166673D01*
X209781503Y-136288600D01*
X209645965Y-136482169D01*
X209645964Y-136482171D01*
X209546098Y-136696335D01*
X209546094Y-136696344D01*
X209484938Y-136924586D01*
X209484936Y-136924596D01*
X209464341Y-137159999D01*
X209464341Y-137160000D01*
X208915500Y-137160000D01*
X208915500Y-123511464D01*
X208935185Y-123444425D01*
X208987989Y-123398670D01*
X209027547Y-123388043D01*
X215821495Y-122730564D01*
X215890115Y-122743699D01*
G37*
%TD.AperFunction*%
%TA.AperFunction,Conductor*%
G36*
X219878260Y-125595391D02*
G01*
X219900422Y-125603000D01*
X219995568Y-125603000D01*
X219995569Y-125603000D01*
X220069590Y-125590648D01*
X220138954Y-125599030D01*
X220192776Y-125643583D01*
X220213967Y-125710161D01*
X220213999Y-125712956D01*
X220214000Y-125847999D01*
X220194316Y-125915039D01*
X220141512Y-125960794D01*
X220090000Y-125972000D01*
X219838000Y-125972000D01*
X219770961Y-125952315D01*
X219725206Y-125899511D01*
X219714000Y-125848000D01*
X219714000Y-125712674D01*
X219733685Y-125645635D01*
X219786489Y-125599880D01*
X219855647Y-125589936D01*
X219878260Y-125595391D01*
G37*
%TD.AperFunction*%
%TA.AperFunction,Conductor*%
G36*
X218967886Y-122445851D02*
G01*
X218986811Y-122457854D01*
X220701719Y-123777014D01*
X220742853Y-123833490D01*
X220746925Y-123903241D01*
X220712639Y-123964120D01*
X220650883Y-123996799D01*
X220596188Y-123995633D01*
X220464638Y-123962918D01*
X220464641Y-123962918D01*
X220421608Y-123960000D01*
X220213999Y-123960000D01*
X220213999Y-124731325D01*
X220194314Y-124798365D01*
X220141510Y-124844119D01*
X220072352Y-124854063D01*
X220049736Y-124848606D01*
X220027580Y-124841000D01*
X220027578Y-124841000D01*
X219932431Y-124841000D01*
X219932430Y-124841000D01*
X219858407Y-124853351D01*
X219789042Y-124844968D01*
X219735220Y-124800415D01*
X219714030Y-124733836D01*
X219713999Y-124731042D01*
X219713999Y-123960000D01*
X219506394Y-123960001D01*
X219463366Y-123962917D01*
X219463365Y-123962917D01*
X219277399Y-124009165D01*
X219127075Y-124083718D01*
X219058270Y-124095869D01*
X218993818Y-124068892D01*
X218984300Y-124060310D01*
X217678608Y-122754618D01*
X217645123Y-122693295D01*
X217650107Y-122623603D01*
X217691979Y-122567670D01*
X217754341Y-122543515D01*
X218899264Y-122432716D01*
X218967886Y-122445851D01*
G37*
%TD.AperFunction*%
%TD*%
%TA.AperFunction,Conductor*%
%TO.N,+3V3*%
G36*
X233417409Y-91561693D02*
G01*
X233874202Y-91597731D01*
X233893407Y-91600776D01*
X234332378Y-91706204D01*
X234350831Y-91712196D01*
X234767714Y-91884700D01*
X234785133Y-91893577D01*
X234828162Y-91919974D01*
X235169391Y-92129307D01*
X235185116Y-92140743D01*
X235326162Y-92261302D01*
X235373662Y-92301903D01*
X235373671Y-92301911D01*
X235528261Y-92434047D01*
X235541952Y-92447738D01*
X235835254Y-92790881D01*
X235846691Y-92806608D01*
X236082422Y-93190867D01*
X236091304Y-93208296D01*
X236263804Y-93625167D01*
X236269797Y-93643621D01*
X236375226Y-94082595D01*
X236378271Y-94101801D01*
X236414307Y-94558590D01*
X236414499Y-94563468D01*
X236414500Y-97984901D01*
X236414500Y-102709431D01*
X236394815Y-102776470D01*
X236342011Y-102822225D01*
X236283983Y-102833260D01*
X234422983Y-102735314D01*
X234357071Y-102712133D01*
X234314154Y-102656997D01*
X234305500Y-102611485D01*
X234305500Y-101307738D01*
X234307224Y-101292124D01*
X234306938Y-101292097D01*
X234307672Y-101284334D01*
X234305500Y-101215203D01*
X234305500Y-101185651D01*
X234305500Y-101185650D01*
X234304629Y-101178759D01*
X234304172Y-101172945D01*
X234302709Y-101126372D01*
X234297122Y-101107144D01*
X234293174Y-101088084D01*
X234290663Y-101068204D01*
X234273512Y-101024887D01*
X234271619Y-101019358D01*
X234258618Y-100974609D01*
X234258616Y-100974606D01*
X234248423Y-100957371D01*
X234239861Y-100939894D01*
X234232487Y-100921270D01*
X234232486Y-100921268D01*
X234205079Y-100883545D01*
X234201888Y-100878686D01*
X234178172Y-100838583D01*
X234178165Y-100838574D01*
X234164006Y-100824415D01*
X234151368Y-100809619D01*
X234139593Y-100793412D01*
X234114597Y-100772734D01*
X234075489Y-100714834D01*
X234070020Y-100667442D01*
X234070000Y-100667687D01*
X234070000Y-100236304D01*
X234067098Y-100199432D01*
X234067097Y-100199426D01*
X234021245Y-100041606D01*
X234021244Y-100041603D01*
X234021244Y-100041602D01*
X233937581Y-99900135D01*
X233937579Y-99900133D01*
X233937576Y-99900129D01*
X233821370Y-99783923D01*
X233821362Y-99783917D01*
X233712161Y-99719336D01*
X233679898Y-99700256D01*
X233679897Y-99700255D01*
X233679896Y-99700255D01*
X233679893Y-99700254D01*
X233522073Y-99654402D01*
X233522067Y-99654401D01*
X233485196Y-99651500D01*
X233485194Y-99651500D01*
X232328806Y-99651500D01*
X232328804Y-99651500D01*
X232291932Y-99654401D01*
X232291926Y-99654402D01*
X232134106Y-99700254D01*
X232134105Y-99700254D01*
X232004068Y-99777157D01*
X231936344Y-99794339D01*
X231870082Y-99772178D01*
X231826319Y-99717712D01*
X231817766Y-99684642D01*
X231795409Y-99490875D01*
X231795000Y-99483763D01*
X231795000Y-99319895D01*
X231814685Y-99252856D01*
X231867489Y-99207101D01*
X231936647Y-99197157D01*
X231984996Y-99217671D01*
X231985920Y-99216110D01*
X232009706Y-99230177D01*
X232134102Y-99303744D01*
X232175724Y-99315836D01*
X232291926Y-99349597D01*
X232291929Y-99349597D01*
X232291931Y-99349598D01*
X232304222Y-99350565D01*
X232328804Y-99352500D01*
X232328806Y-99352500D01*
X233485196Y-99352500D01*
X233503631Y-99351049D01*
X233522069Y-99349598D01*
X233522071Y-99349597D01*
X233522073Y-99349597D01*
X233624306Y-99319895D01*
X233679898Y-99303744D01*
X233821365Y-99220081D01*
X233937581Y-99103865D01*
X234021244Y-98962398D01*
X234067098Y-98804569D01*
X234070000Y-98767694D01*
X234070000Y-98336306D01*
X234067098Y-98299431D01*
X234021244Y-98141602D01*
X233937581Y-98000135D01*
X233937579Y-98000133D01*
X233937576Y-98000129D01*
X233821370Y-97883923D01*
X233821362Y-97883917D01*
X233679896Y-97800255D01*
X233679893Y-97800254D01*
X233522073Y-97754402D01*
X233522067Y-97754401D01*
X233485196Y-97751500D01*
X233485194Y-97751500D01*
X233042453Y-97751500D01*
X232975414Y-97731815D01*
X232954772Y-97715181D01*
X232754003Y-97514412D01*
X232744180Y-97502150D01*
X232743959Y-97502334D01*
X232738986Y-97496323D01*
X232688564Y-97448973D01*
X232678119Y-97438528D01*
X232667675Y-97428083D01*
X232662186Y-97423825D01*
X232657761Y-97420047D01*
X232623782Y-97388138D01*
X232623780Y-97388136D01*
X232623777Y-97388135D01*
X232606229Y-97378488D01*
X232589963Y-97367804D01*
X232574133Y-97355525D01*
X232531368Y-97337018D01*
X232526122Y-97334448D01*
X232485293Y-97312003D01*
X232485292Y-97312002D01*
X232465893Y-97307022D01*
X232447481Y-97300718D01*
X232429098Y-97292762D01*
X232429092Y-97292760D01*
X232383074Y-97285472D01*
X232377352Y-97284287D01*
X232332221Y-97272700D01*
X232332219Y-97272700D01*
X232312184Y-97272700D01*
X232292786Y-97271173D01*
X232285362Y-97269997D01*
X232273005Y-97268040D01*
X232273004Y-97268040D01*
X232226616Y-97272425D01*
X232220778Y-97272700D01*
X231649980Y-97272700D01*
X231582941Y-97253015D01*
X231537186Y-97200211D01*
X231526798Y-97162917D01*
X231273308Y-94966002D01*
X231226578Y-94561006D01*
X232314490Y-94561006D01*
X232314645Y-94563170D01*
X232315018Y-94565091D01*
X232349000Y-94831115D01*
X232349128Y-94833141D01*
X232349221Y-94833627D01*
X232349463Y-94835121D01*
X232349973Y-94836518D01*
X232350282Y-94837438D01*
X232351117Y-94839192D01*
X232447284Y-95082949D01*
X232448425Y-95086577D01*
X232450552Y-95091253D01*
X232451848Y-95093243D01*
X232453080Y-95094719D01*
X232610061Y-95310805D01*
X232611161Y-95312562D01*
X232611521Y-95313000D01*
X232612580Y-95314374D01*
X232613880Y-95315507D01*
X232616269Y-95317717D01*
X232619509Y-95320028D01*
X232822269Y-95487569D01*
X232823850Y-95489075D01*
X232824007Y-95489189D01*
X232825730Y-95490533D01*
X232827723Y-95491520D01*
X232827816Y-95491571D01*
X232829768Y-95492325D01*
X233070843Y-95605600D01*
X233072636Y-95606600D01*
X233073234Y-95606841D01*
X233074802Y-95607525D01*
X233076422Y-95607877D01*
X233079970Y-95608754D01*
X233083861Y-95609209D01*
X233327002Y-95655866D01*
X233327002Y-95655865D01*
X233341700Y-95658686D01*
X233344154Y-95659334D01*
X233345943Y-95659628D01*
X233348627Y-95659503D01*
X233351203Y-95659497D01*
X233355380Y-95658921D01*
X233616710Y-95642767D01*
X233618813Y-95642782D01*
X233619179Y-95642738D01*
X233621103Y-95642564D01*
X233622937Y-95642019D01*
X233623352Y-95641909D01*
X233625300Y-95641115D01*
X233873556Y-95559626D01*
X233877083Y-95558778D01*
X233881978Y-95556931D01*
X233883263Y-95556481D01*
X233884521Y-95555727D01*
X233888281Y-95553602D01*
X233891317Y-95551344D01*
X234108571Y-95414277D01*
X234112185Y-95412351D01*
X234114786Y-95410494D01*
X234116353Y-95409449D01*
X234117679Y-95408106D01*
X234120170Y-95405736D01*
X234122725Y-95402576D01*
X234298916Y-95215199D01*
X234302162Y-95212232D01*
X234303590Y-95210505D01*
X234305510Y-95208394D01*
X234306940Y-95205911D01*
X234308068Y-95204147D01*
X234309925Y-95200076D01*
X234434018Y-94974281D01*
X234436278Y-94970803D01*
X234437600Y-94968024D01*
X234438551Y-94966188D01*
X234439113Y-94964186D01*
X234439960Y-94961533D01*
X234440691Y-94957453D01*
X234504190Y-94708130D01*
X234505407Y-94704507D01*
X234506210Y-94700531D01*
X234506552Y-94699036D01*
X234506597Y-94697462D01*
X234506642Y-94696653D01*
X234506500Y-94694620D01*
X234506500Y-94431847D01*
X234506770Y-94428040D01*
X234506582Y-94424390D01*
X234506545Y-94422957D01*
X234506236Y-94421578D01*
X234505511Y-94417933D01*
X234504285Y-94414241D01*
X234472868Y-94290887D01*
X234440668Y-94164458D01*
X234439974Y-94160605D01*
X234438976Y-94157415D01*
X234438524Y-94155810D01*
X234437767Y-94154322D01*
X234437491Y-94153740D01*
X234436362Y-94151986D01*
X234309686Y-93921492D01*
X234308146Y-93918147D01*
X234305432Y-93913737D01*
X234305431Y-93913732D01*
X234305427Y-93913727D01*
X234305407Y-93913695D01*
X234305391Y-93913676D01*
X234305390Y-93913674D01*
X234305387Y-93913672D01*
X234303768Y-93911760D01*
X234302320Y-93910423D01*
X234280482Y-93887196D01*
X234119366Y-93715851D01*
X234118186Y-93714406D01*
X234116352Y-93712634D01*
X234116350Y-93712632D01*
X234116346Y-93712630D01*
X234116319Y-93712603D01*
X234114484Y-93711299D01*
X234112754Y-93710362D01*
X233886986Y-93567924D01*
X233885595Y-93566903D01*
X233883219Y-93565538D01*
X233877692Y-93563474D01*
X233874443Y-93562666D01*
X233716304Y-93510757D01*
X233624908Y-93480757D01*
X233623149Y-93480054D01*
X233621094Y-93479498D01*
X233619080Y-93479263D01*
X233617176Y-93479263D01*
X233350280Y-93462764D01*
X233348324Y-93462509D01*
X233347469Y-93462503D01*
X233345933Y-93462450D01*
X233344337Y-93462698D01*
X233344118Y-93462725D01*
X233342142Y-93463231D01*
X233078975Y-93513729D01*
X233077137Y-93513957D01*
X233074851Y-93514512D01*
X233072833Y-93515341D01*
X233071240Y-93516214D01*
X232966298Y-93565525D01*
X232829268Y-93629912D01*
X232827545Y-93630596D01*
X232825718Y-93631573D01*
X232823948Y-93632893D01*
X232822603Y-93634157D01*
X232615951Y-93804915D01*
X232614483Y-93805969D01*
X232612636Y-93807642D01*
X232611043Y-93809646D01*
X232610120Y-93811116D01*
X232556557Y-93884844D01*
X232556556Y-93884846D01*
X232452888Y-94027546D01*
X232451702Y-94028982D01*
X232450550Y-94030752D01*
X232449481Y-94033141D01*
X232448938Y-94034858D01*
X232351031Y-94283027D01*
X232350205Y-94284776D01*
X232349506Y-94286874D01*
X232349123Y-94288952D01*
X232349000Y-94290887D01*
X232315002Y-94557037D01*
X232314632Y-94558960D01*
X232314490Y-94561006D01*
X231226578Y-94561006D01*
X231111478Y-93563474D01*
X230896429Y-91699715D01*
X230908300Y-91630861D01*
X230955511Y-91579356D01*
X231019612Y-91561502D01*
X231278899Y-91561502D01*
X232092380Y-91561502D01*
X233412532Y-91561502D01*
X233417409Y-91561693D01*
G37*
%TD.AperFunction*%
%TD*%
M02*
