<?xml version="1.0" encoding="UTF-8"?>
<svg id="Layer_1" data-name="Layer 1" xmlns="http://www.w3.org/2000/svg" viewBox="0 0 77.95276 147.40157">
  <defs>
    <style>
      .cls-1 {
        fill: #fff;
        stroke-width: 0px;
      }
    </style>
  </defs>
  <path class="cls-1" d="M24.79883,134.08496l.28711-.20508c.10303.18066.29541.28418.51758.28418.25977,0,.45605-.125.45605-.30078,0-.21387-.3042-.34277-.57373-.45898-.271-.12109-.57227-.26172-.57227-.62402,0-.37891.32861-.64258.74463-.64258.32959,0,.57666.15918.6709.41309l-.26953.18652c-.07178-.15625-.23096-.24414-.39844-.24414-.2124,0-.38184.13184-.38184.2959,0,.18066.21387.24512.49512.36523.36572.16113.64941.33691.64941.70117,0,.41016-.35547.6748-.82471.6748-.37988,0-.66846-.17773-.80029-.44531ZM28.58301,133.33789c0,.70996-.45752,1.15332-1.19189,1.15332h-.65869v-2.3125h.65869c.73438-.00098,1.19189.44336,1.19189,1.15918ZM28.21582,133.33691c0-.49121-.31836-.79785-.82617-.79785h-.29541v1.59082h.29932c.50488,0,.82227-.30566.82227-.79297ZM30.15674,134.13965h-1.09424l-.1582.35156h-.39258l1.08691-2.35938h.02148l1.0874,2.35938h-.39307l-.15771-.35156ZM30.01611,133.82812l-.40576-.90332-.40771.90332h.81348ZM32.5459,134.08496l.28711-.20508c.10303.18066.29541.28418.51758.28418.25977,0,.45605-.125.45605-.30078,0-.21387-.3042-.34277-.57373-.45898-.271-.12109-.57227-.26172-.57227-.62402,0-.37891.32861-.64258.74463-.64258.32959,0,.57666.15918.6709.41309l-.26953.18652c-.07178-.15625-.23096-.24414-.39844-.24414-.2124,0-.38184.13184-.38184.2959,0,.18066.21387.24512.49512.36523.36572.16113.64941.33691.64941.70117,0,.41016-.35547.6748-.82471.6748-.37988,0-.66846-.17773-.80029-.44531ZM34.36963,133.33691c0-.65137.54346-1.19824,1.19336-1.19824.2998.00488.57666.13184.80322.35352l-.21094.28516c-.16211-.16211-.37256-.26953-.59961-.26953-.41846,0-.81885.36719-.81885.83008,0,.46582.40576.82617.82031.82617.23682,0,.44043-.11719.59961-.27539l.20947.29297c-.19922.19629-.45312.34668-.79736.34668-.65576,0-1.19922-.53906-1.19922-1.19141ZM38.0459,134.12988v.36133h-1.39453v-2.3125h.36328v1.95117h1.03125ZM42.57324,133.99512h-.25391v.49609h-.36133v-.49609h-1.23633l.85449-1.82324.38477.00195-.69434,1.45996h.69141v-.74316h.36133v.74316h.25391v.36133ZM44.8252,132.17871l-1.06738,2.35938h-.02441l-1.0625-2.35938h.38574l.68848,1.56543.69141-1.56543h.38867ZM48.99316,133.41016c0,.68652-.49902,1.12012-1.09961,1.12012-.67285,0-1.20703-.53711-1.20703-1.19238,0-.65723.53711-1.19727,1.19336-1.19727.29102.00098.62402.1416.8418.35352l-.20215.30176c-.18066-.17773-.42383-.29004-.64355-.29004-.42188,0-.82031.35352-.82031.83203,0,.45312.35938.82617.85352.82617.39746,0,.69531-.24219.69531-.59473v-.00781h-.71582v-.33301h1.09473c.00586.05371.00977.11621.00977.18164ZM51.18262,132.17383v2.35742h-.0166l-1.47852-1.54492v1.50781h-.36328v-2.35547h.01855l1.47559,1.54199v-1.50684h.36426ZM53.47461,133.33789c0,.70996-.45703,1.15332-1.19141,1.15332h-.65918v-2.3125h.65918c.73438-.00098,1.19141.44336,1.19141,1.15918ZM53.10742,133.33691c0-.49121-.31836-.79785-.82617-.79785h-.29492v1.59082h.2998c.50488,0,.82129-.30566.82129-.79297ZM69.92285,109.07715c0,.68652-.49902,1.12012-1.09961,1.12012-.67285,0-1.20703-.53711-1.20703-1.19238,0-.65723.53711-1.19727,1.19336-1.19727.29102.00098.62402.1416.8418.35352l-.20215.30176c-.18066-.17773-.42383-.29004-.64355-.29004-.42188,0-.82031.35352-.82031.83203,0,.45312.35938.82617.85352.82617.39746,0,.69531-.24219.69531-.59473v-.00781h-.71582v-.33301h1.09473c.00586.05371.00977.11621.00977.18164ZM72.1123,107.84082v2.35742h-.01758l-1.47852-1.54492v1.50781h-.36328v-2.35547h.01953l1.47559,1.54199v-1.50684h.36426ZM74.4043,109.00488c0,.70996-.45801,1.15332-1.19238,1.15332h-.6582v-2.3125h.6582c.73438-.00098,1.19238.44336,1.19238,1.15918ZM74.03711,109.00391c0-.49121-.31836-.79785-.82617-.79785h-.2959v1.59082h.2998c.50488,0,.82227-.30566.82227-.79297ZM69.18164,116.46875c0,.37988-.3418.71094-.7793.71094-.37402,0-.70703-.25391-.78613-.57227l.35645-.09082c.04297.17578.22168.30469.4209.30469.24609,0,.42188-.18262.42188-.37891,0-.28125-.28418-.45898-.68262-.45605l.05762-.21191c.26758,0,.50781-.12988.50781-.34766,0-.1709-.13965-.29102-.30957-.29102-.14355,0-.26758.10059-.29492.24121l-.37109-.07715c.06348-.27539.32422-.51953.66797-.51953.36328,0,.67188.2627.67188.61914,0,.23438-.13672.40234-.30273.46973.23926.08594.42188.28223.42188.59961ZM71.47852,114.8457l-1.06738,2.35938h-.02441l-1.0625-2.35938h.38574l.68848,1.56543.69141-1.56543h.38867ZM73.18652,116.46875c0,.37988-.3418.71094-.7793.71094-.37402,0-.70703-.25391-.78613-.57227l.35645-.09082c.04297.17578.22168.30469.4209.30469.24609,0,.42188-.18262.42188-.37891,0-.28125-.28418-.45898-.68262-.45605l.05762-.21191c.26758,0,.50781-.12988.50781-.34766,0-.1709-.13965-.29102-.30957-.29102-.14355,0-.26758.10059-.29492.24121l-.37109-.07715c.06348-.27539.32422-.51953.66797-.51953.36328,0,.67188.2627.67188.61914,0,.23438-.13672.40234-.30273.46973.23926.08594.42188.28223.42188.59961ZM69.18262,123.80664h-1.09375l-.1582.35156h-.39258l1.08691-2.35938h.02148l1.08691,2.35938h-.39258l-.1582-.35156ZM69.04199,123.49512l-.40527-.90332-.4082.90332h.81348ZM71.83789,123.00488c0,.70996-.45801,1.15332-1.19238,1.15332h-.6582v-2.3125h.6582c.73438-.00098,1.19238.44336,1.19238,1.15918ZM71.4707,123.00391c0-.49121-.31836-.79785-.82617-.79785h-.2959v1.59082h.2998c.50488,0,.82227-.30566.82227-.79297ZM72.05664,123.00391c0-.65137.54297-1.19824,1.19336-1.19824.2998.00488.57617.13184.80273.35352l-.21094.28516c-.16211-.16211-.37207-.26953-.59961-.26953-.41797,0-.81836.36719-.81836.83008,0,.46582.40527.82617.82031.82617.23633,0,.44043-.11719.59961-.27539l.20898.29297c-.19922.19629-.45312.34668-.79688.34668-.65625,0-1.19922-.53906-1.19922-1.19141ZM75.79297,123.46875c0,.37988-.3418.71094-.7793.71094-.37402,0-.70703-.25391-.78613-.57227l.35645-.09082c.04297.17578.22168.30469.4209.30469.24609,0,.42188-.18262.42188-.37891,0-.28125-.28418-.45898-.68262-.45605l.05762-.21191c.26758,0,.50781-.12988.50781-.34766,0-.1709-.13965-.29102-.30957-.29102-.14355,0-.26758.10059-.29492.24121l-.37109-.07715c.06348-.27539.32422-.51953.66797-.51953.36328,0,.67188.2627.67188.61914,0,.23438-.13672.40234-.30273.46973.23926.08594.42188.28223.42188.59961ZM69.18262,130.80664h-1.09375l-.1582.35156h-.39258l1.08691-2.35938h.02148l1.08691,2.35938h-.39258l-.1582-.35156ZM69.04199,130.49512l-.40527-.90332-.4082.90332h.81348ZM71.83789,130.00488c0,.70996-.45801,1.15332-1.19238,1.15332h-.6582v-2.3125h.6582c.73438-.00098,1.19238.44336,1.19238,1.15918ZM71.4707,130.00391c0-.49121-.31836-.79785-.82617-.79785h-.2959v1.59082h.2998c.50488,0,.82227-.30566.82227-.79297ZM72.05664,130.00391c0-.65137.54297-1.19824,1.19336-1.19824.2998.00488.57617.13184.80273.35352l-.21094.28516c-.16211-.16211-.37207-.26953-.59961-.26953-.41797,0-.81836.36719-.81836.83008,0,.46582.40527.82617.82031.82617.23633,0,.44043-.11719.59961-.27539l.20898.29297c-.19922.19629-.45312.34668-.79688.34668-.65625,0-1.19922-.53906-1.19922-1.19141ZM75.96094,130.79688v.36133h-1.7334v-.07715c.95117-.77051,1.33887-1.1709,1.33887-1.45215,0-.26074-.21289-.4541-.43359-.4541-.26953,0-.48633.21484-.48633.49316l-.33105-.08008c0-.43457.36035-.77637.80566-.77637.45312,0,.80957.37305.80957.79883,0,.40039-.40723.85254-.93066,1.18652h.96094ZM25.42773,69.2793c0-1.34766,1.0957-2.44922,2.44043-2.44922,1.3418,0,2.44336,1.10156,2.44336,2.44922,0,1.33594-1.10156,2.43164-2.44629,2.43164-1.3418,0-2.4375-1.0957-2.4375-2.43164ZM29.56152,69.27344c0-.93457-.76465-1.69629-1.69629-1.69629s-1.69043.76172-1.69043,1.69629c0,.92871.75879,1.6875,1.69043,1.6875s1.69629-.75879,1.69629-1.6875ZM30.99121,66.91211h1.5791c.91406,0,1.66113.7002,1.66113,1.55859,0,.84082-.74707,1.52637-1.66113,1.52637h-.83789v1.6377h-.74121v-4.72266ZM33.49023,68.46484c0-.45117-.41309-.81738-.91992-.81738h-.83789v1.61426l.83789.00293c.50684.00293.91992-.35742.91992-.7998ZM35.56152,67.6416v1.20996h1.78711v.73828h-1.78711v1.30664h2.07129v.73828h-2.8125v-4.72266h2.8125v.72949h-2.07129ZM42.2002,66.90039v4.81641h-.03516l-3.02051-3.15527v3.0791h-.74121v-4.81055h.03809l3.01465,3.14941v-3.0791h.74414ZM47.73438,66.80957v4.8252h-.74121v-2.61914l-1.56738,2.54004h-.00586l-1.57031-2.54297v2.62207h-.74121v-4.8252h.05566l2.25879,3.43359,2.25586-3.43359h.05566ZM48.59863,69.84473v-2.93262h.74414v2.92969c0,.65332.45996,1.13086,1.03711,1.13086s1.04297-.47754,1.04297-1.13086v-2.92969h.74707v2.93262c0,1.08398-.78223,1.87793-1.78711,1.87793s-1.78418-.79395-1.78418-1.87793ZM52.75879,70.80566l.58594-.41895c.21094.36914.60352.58008,1.05762.58008.53027,0,.93164-.25488.93164-.61523,0-.43652-.62109-.7002-1.17188-.9375-.55371-.24609-1.16895-.5332-1.16895-1.27441,0-.77344.6709-1.3125,1.52051-1.3125.67383,0,1.17773.3252,1.37109.84375l-.55078.38086c-.14648-.31934-.47168-.49805-.81445-.49805-.43359,0-.7793.26953-.7793.60352,0,.36914.43652.50098,1.01074.74707.74707.32812,1.32715.68848,1.32715,1.43262,0,.83789-.72656,1.37695-1.68457,1.37695-.77637,0-1.36523-.36328-1.63477-.9082ZM56.48828,69.27637c0-1.33008,1.11035-2.44629,2.4375-2.44629.6123.00879,1.17773.26953,1.64062.7207l-.43066.58301c-.33105-.33105-.76172-.55078-1.22461-.55078-.85547,0-1.67285.75-1.67285,1.69629,0,.95215.8291,1.6875,1.67578,1.6875.4834,0,.89941-.24023,1.22461-.5625l.42773.59766c-.40723.40137-.92578.70898-1.62891.70898-1.33887,0-2.44922-1.10156-2.44922-2.43457ZM64.00293,70.89648v.73828h-2.84766v-4.72266h.74121v3.98438h2.10645ZM65.33594,67.6416v1.20996h1.78711v.73828h-1.78711v1.30664h2.07129v.73828h-2.8125v-4.72266h2.8125v.72949h-2.07129ZM29.43262,76.47949c0,1.4502-.93457,2.35547-2.43457,2.35547h-1.34473v-4.72266h1.34473c1.5-.00293,2.43457.90527,2.43457,2.36719ZM28.68262,76.47656c0-1.00195-.65039-1.62891-1.6875-1.62891h-.60352v3.24902h.6123c1.03125,0,1.67871-.62402,1.67871-1.62012ZM30.85352,74.8418v1.20996h1.78711v.73828h-1.78711v1.30664h2.07129v.73828h-2.8125v-4.72266h2.8125v.72949h-2.07129ZM37.70898,74.1123l-2.17969,4.81934h-.0498l-2.1709-4.81934h.78809l1.40625,3.19629,1.41211-3.19629h.79395ZM42.47559,78.83496l-1.74609-2.28516v2.28516h-.73828v-4.72266h.73828v2.26172l1.62305-2.26172h.86133l-1.67578,2.31738,1.84277,2.40527h-.90527ZM43.88184,74.1123h.74121v4.72266h-.74121v-4.72266ZM48.49023,74.84766h-1.26562v3.9873h-.74414v-3.9873h-1.26562v-.73535h3.27539v.73535ZM54.85059,74.1123l-2.17969,4.81934h-.0498l-2.1709-4.81934h.78809l1.40625,3.19629,1.41211-3.19629h.79395ZM54.91504,76.47363c0-1.42383.7793-2.43164,1.92773-2.43164s1.92773,1.00781,1.92773,2.43164c0,1.4209-.7793,2.42871-1.92773,2.42871s-1.92773-1.00781-1.92773-2.42871ZM58.02637,76.47363c0-.9873-.47461-1.6875-1.18652-1.6875-.71484,0-1.18652.7002-1.18652,1.6875,0,.98438.47168,1.68164,1.18652,1.68164.71191,0,1.18652-.69727,1.18652-1.68164Z"/>
</svg>