<?xml version="1.0" standalone="no"?>
<!DOCTYPE svg PUBLIC "-//W3C//DTD SVG 1.1//EN"
  "http://www.w3.org/Graphics/SVG/1.1/DTD/svg11.dtd">
<svg width="29.5mm" height="53.999999999999986mm" viewBox="13.5 -31.999999999999993 29.5 53.999999999999986" xmlns="http://www.w3.org/2000/svg" version="1.1">
	<title>svgOutput</title>
	<desc>made with tinkercad</desc>
<path d="M 41.9630012512207 -28.46899986267089 L 42 -27.999999999999993 L 42 -24.57600021362304 L 42 -16.38400077819824 L 42 1.1102230246251565e-16 L 42 8.19200038909912 L 42 9.922680854797362 L 42 12.380662918090817 L 42 15.714515686035153 L 42 16.38400077819824 L 42 17.999999999999996 L 41.9630012512207 18.468999862670895 L 41.85300064086914 18.927000045776364 L 41.67300033569336 19.361999511718746 L 41.426998138427734 19.763000488281246 L 41.12099838256836 20.12100028991699 L 40.959999084472656 20.258613586425778 L 40.76300048828125 20.427000045776364 L 40.676605224609375 20.479999542236325 L 40.36199951171875 20.673000335693356 L 39.926998138427734 20.853000640869137 L 39.46900177001953 20.962999343872067 L 39 20.999999999999996 L 36.86399841308594 20.999999999999996 L 32.768001556396484 20.999999999999996 L 24.576000213623047 20.999999999999996 L 20.479999542236328 20.999999999999996 L 17.5 20.999999999999996 L 17.0310001373291 20.962999343872067 L 16.572999954223633 20.853000640869137 L 16.384000778198242 20.774793624877926 L 16.13800048828125 20.673000335693356 L 15.737000465393066 20.427000045776364 L 15.378999710083008 20.12100028991699 L 15.072999954223633 19.763000488281246 L 14.82699966430664 19.361999511718746 L 14.647000312805176 18.927000045776364 L 14.536999702453613 18.468999862670895 L 14.5 17.999999999999996 L 14.5 16.38400077819824 L 14.5 1.1102230246251565e-16 L 14.5 -15.499999999999996 L 14.5 -16.38400077819824 L 14.5 -27.999999999999993 L 14.536999702453613 -28.46899986267089 L 14.647000312805176 -28.92700004577636 L 14.82699966430664 -29.361999511718743 L 15.072999954223633 -29.763000488281243 L 15.378999710083008 -30.121000289916985 L 15.737000465393066 -30.42700004577636 L 16.13800048828125 -30.673000335693352 L 16.384000778198242 -30.774793624877923 L 16.387771606445312 -30.776353836059563 L 16.572999954223633 -30.853000640869134 L 17.0310001373291 -30.962999343872063 L 17.5 -30.999999999999993 L 20.479999542236328 -30.999999999999993 L 24.576000213623047 -30.999999999999993 L 32.768001556396484 -30.999999999999993 L 36.86399841308594 -30.999999999999993 L 37.6774787902832 -30.999999999999993 L 39 -30.999999999999993 L 39.46900177001953 -30.962999343872063 L 39.926998138427734 -30.853000640869134 L 40.36199951171875 -30.673000335693352 L 40.76300048828125 -30.42700004577636 L 40.959999084472656 -30.258613586425774 L 41.12099838256836 -30.121000289916985 L 41.426998138427734 -29.763000488281243 L 41.67300033569336 -29.361999511718743 L 41.85300064086914 -28.92700004577636 L 41.9630012512207 -28.46899986267089 M 38.198001861572266 -28.753000259399407 L 38.139156341552734 -28.67200088500976 L 38.0359992980957 -28.5300006866455 L 37.935001373291016 -28.274000167846673 L 37.900001525878906 -27.999999999999993 L 37.935001373291016 -27.725999832153313 L 38.0359992980957 -27.469999313354485 L 38.198001861572266 -27.24699974060058 L 38.4109992980957 -27.070999145507805 L 38.65999984741211 -26.954000473022454 L 38.9119987487793 -26.90564537048339 L 38.930999755859375 -26.902000427246087 L 39.20600128173828 -26.919000625610344 L 39.46799850463867 -27.004999160766594 L 39.70100021362305 -27.152000427246087 L 39.88999938964844 -27.353000640869134 L 40.02299880981445 -27.594999313354485 L 40.090999603271484 -27.861999511718743 L 40.090999603271484 -28.138000488281243 L 40.02299880981445 -28.4050006866455 L 39.88999938964844 -28.646999359130852 L 39.866493225097656 -28.67200088500976 L 39.70100021362305 -28.8479995727539 L 39.46799850463867 -28.99500083923339 L 39.20600128173828 -29.08099937438964 L 38.930999755859375 -29.0979995727539 L 38.65999984741211 -29.045999526977532 L 38.4109992980957 -28.92900085449218 L 38.198001861572266 -28.753000259399407 M 32.875 -18.64999961853027 L 32.768001556396484 -18.56716156005859 L 32.720001220703125 -18.530000686645504 L 32.599998474121094 -18.374999999999996 L 32.5260009765625 -18.19400024414062 L 32.5 -17.999999999999996 L 32.5260009765625 -17.80599975585937 L 32.599998474121094 -17.624999999999996 L 32.720001220703125 -17.46999931335449 L 32.768001556396484 -17.432838439941403 L 32.875 -17.350000381469723 L 33.055999755859375 -17.275999069213864 L 33.25 -17.249999999999996 L 33.444000244140625 -17.275999069213864 L 33.625 -17.350000381469723 L 33.779998779296875 -17.46999931335449 L 33.900001525878906 -17.624999999999996 L 33.9739990234375 -17.80599975585937 L 34 -17.999999999999996 L 33.9739990234375 -18.19400024414062 L 33.900001525878906 -18.374999999999996 L 33.85586929321289 -18.431999206542965 L 33.779998779296875 -18.530000686645504 L 33.625 -18.64999961853027 L 33.444000244140625 -18.72400093078613 L 33.25 -18.749999999999996 L 33.055999755859375 -18.72400093078613 L 32.875 -18.64999961853027 M 25.75 -20.499999999999996 L 25.75 -16.38400077819824 L 25.75 -15.499999999999996 L 30.75 -15.499999999999996 L 30.75 -16.38400077819824 L 30.75 -20.499999999999996 L 25.75 -20.499999999999996 M 16.535999298095703 -28.5300006866455 L 16.434999465942383 -28.274000167846673 L 16.399999618530273 -27.999999999999993 L 16.434999465942383 -27.725999832153313 L 16.535999298095703 -27.469999313354485 L 16.697999954223633 -27.24699974060058 L 16.910999298095703 -27.070999145507805 L 17.15999984741211 -26.954000473022454 L 17.430999755859375 -26.902000427246087 L 17.70599937438965 -26.919000625610344 L 17.968000411987305 -27.004999160766594 L 18.201000213623047 -27.152000427246087 L 18.389999389648438 -27.353000640869134 L 18.43199920654297 -27.4294204711914 L 18.523000717163086 -27.594999313354485 L 18.590999603271484 -27.861999511718743 L 18.590999603271484 -28.138000488281243 L 18.523000717163086 -28.4050006866455 L 18.43199920654297 -28.570579528808587 L 18.389999389648438 -28.646999359130852 L 18.366493225097656 -28.67200088500976 L 18.201000213623047 -28.8479995727539 L 17.968000411987305 -28.99500083923339 L 17.70599937438965 -29.08099937438964 L 17.430999755859375 -29.0979995727539 L 17.15999984741211 -29.045999526977532 L 16.910999298095703 -28.92900085449218 L 16.697999954223633 -28.753000259399407 L 16.639156341552734 -28.67200088500976 L 16.535999298095703 -28.5300006866455 M 22.719999313354492 -18.530000686645504 L 22.644128799438477 -18.431999206542965 L 22.600000381469727 -18.374999999999996 L 22.527999877929688 -18.198892593383786 L 22.525999069213867 -18.19400024414062 L 22.5 -17.999999999999996 L 22.525999069213867 -17.80599975585937 L 22.527999877929688 -17.801107406616207 L 22.600000381469727 -17.624999999999996 L 22.719999313354492 -17.46999931335449 L 22.875 -17.350000381469723 L 23.055999755859375 -17.275999069213864 L 23.25 -17.249999999999996 L 23.444000244140625 -17.275999069213864 L 23.625 -17.350000381469723 L 23.780000686645508 -17.46999931335449 L 23.899999618530273 -17.624999999999996 L 23.974000930786133 -17.80599975585937 L 24 -17.999999999999996 L 23.974000930786133 -18.19400024414062 L 23.899999618530273 -18.374999999999996 L 23.855871200561523 -18.431999206542965 L 23.780000686645508 -18.530000686645504 L 23.625 -18.64999961853027 L 23.444000244140625 -18.72400093078613 L 23.25 -18.749999999999996 L 23.055999755859375 -18.72400093078613 L 22.875 -18.64999961853027 L 22.719999313354492 -18.530000686645504 M 32.875 7.349999904632567 L 32.768001556396484 7.432838916778563 L 32.720001220703125 7.469999790191649 L 32.599998474121094 7.624999999999998 L 32.5260009765625 7.806000232696531 L 32.5 7.999999999999998 L 32.52573013305664 8.19200038909912 L 32.5260009765625 8.194000244140623 L 32.599998474121094 8.374999999999998 L 32.720001220703125 8.52999973297119 L 32.768001556396484 8.567161560058592 L 32.875 8.649999618530272 L 33.055999755859375 8.723999977111815 L 33.25 8.749999999999998 L 33.444000244140625 8.723999977111815 L 33.625 8.649999618530272 L 33.779998779296875 8.52999973297119 L 33.900001525878906 8.374999999999998 L 33.9739990234375 8.194000244140623 L 33.97426986694336 8.19200038909912 L 34 7.999999999999998 L 33.9739990234375 7.806000232696531 L 33.900001525878906 7.624999999999998 L 33.779998779296875 7.469999790191649 L 33.625 7.349999904632567 L 33.444000244140625 7.276000022888182 L 33.25 7.249999999999998 L 33.055999755859375 7.276000022888182 L 32.875 7.349999904632567 M 38.930999755859375 16.90200042724609 L 38.9119987487793 16.905645370483395 L 38.65999984741211 16.954000473022457 L 38.4109992980957 17.07099914550781 L 38.198001861572266 17.246999740600582 L 38.0359992980957 17.46999931335449 L 37.935001373291016 17.725999832153317 L 37.900001525878906 17.999999999999996 L 37.935001373291016 18.274000167846676 L 37.997337341308594 18.431999206542965 L 38.0359992980957 18.530000686645504 L 38.198001861572266 18.75300025939941 L 38.4109992980957 18.929000854492184 L 38.65999984741211 19.045999526977536 L 38.930999755859375 19.097999572753903 L 39.20600128173828 19.080999374389645 L 39.46799850463867 18.995000839233395 L 39.70100021362305 18.847999572753903 L 39.88999938964844 18.646999359130856 L 40.00815963745117 18.431999206542965 L 40.02299880981445 18.405000686645504 L 40.090999603271484 18.138000488281246 L 40.090999603271484 17.861999511718746 L 40.02299880981445 17.59499931335449 L 39.88999938964844 17.353000640869137 L 39.70100021362305 17.15200042724609 L 39.46799850463867 17.004999160766598 L 39.20600128173828 16.919000625610348 L 38.930999755859375 16.90200042724609 M 22.600000381469727 7.624999999999998 L 22.525999069213867 7.806000232696531 L 22.5 7.999999999999998 L 22.525732040405273 8.19200038909912 L 22.525999069213867 8.194000244140623 L 22.600000381469727 8.374999999999998 L 22.719999313354492 8.52999973297119 L 22.875 8.649999618530272 L 23.055999755859375 8.723999977111815 L 23.25 8.749999999999998 L 23.444000244140625 8.723999977111815 L 23.625 8.649999618530272 L 23.780000686645508 8.52999973297119 L 23.899999618530273 8.374999999999998 L 23.974000930786133 8.194000244140623 L 23.974267959594727 8.19200038909912 L 24 7.999999999999998 L 23.974000930786133 7.806000232696531 L 23.899999618530273 7.624999999999998 L 23.780000686645508 7.469999790191649 L 23.625 7.349999904632567 L 23.444000244140625 7.276000022888182 L 23.25 7.249999999999998 L 23.055999755859375 7.276000022888182 L 22.875 7.349999904632567 L 22.719999313354492 7.469999790191649 L 22.600000381469727 7.624999999999998 M 16.535999298095703 17.46999931335449 L 16.434999465942383 17.725999832153317 L 16.399999618530273 17.999999999999996 L 16.434999465942383 18.274000167846676 L 16.49733543395996 18.431999206542965 L 16.535999298095703 18.530000686645504 L 16.697999954223633 18.75300025939941 L 16.910999298095703 18.929000854492184 L 17.15999984741211 19.045999526977536 L 17.430999755859375 19.097999572753903 L 17.70599937438965 19.080999374389645 L 17.968000411987305 18.995000839233395 L 18.201000213623047 18.847999572753903 L 18.389999389648438 18.646999359130856 L 18.508161544799805 18.431999206542965 L 18.523000717163086 18.405000686645504 L 18.590999603271484 18.138000488281246 L 18.590999603271484 17.861999511718746 L 18.523000717163086 17.59499931335449 L 18.43199920654297 17.429420471191403 L 18.389999389648438 17.353000640869137 L 18.201000213623047 17.15200042724609 L 17.968000411987305 17.004999160766598 L 17.70599937438965 16.919000625610348 L 17.430999755859375 16.90200042724609 L 17.15999984741211 16.954000473022457 L 16.910999298095703 17.07099914550781 L 16.697999954223633 17.246999740600582 L 16.535999298095703 17.46999931335449 M 25.75 5.499999999999999 L 25.75 8.19200038909912 L 25.75 10.499999999999998 L 30.75 10.499999999999998 L 30.75 8.19200038909912 L 30.75 5.499999999999999 L 25.75 5.499999999999999 z" fill="none" stroke="rgb(255,0,0)" stroke-width="0.001mm" />
</svg>