%TF.GenerationSoftware,KiCad,Pcbnew,(6.0.7)*%
%TF.CreationDate,2022-09-06T06:54:50-05:00*%
%TF.ProjectId,OpenMuscle2,4f70656e-4d75-4736-936c-65322e6b6963,rev?*%
%TF.SameCoordinates,Original*%
%TF.FileFunction,Soldermask,Top*%
%TF.FilePolarity,Negative*%
%FSLAX46Y46*%
G04 Gerber Fmt 4.6, Leading zero omitted, Abs format (unit mm)*
G04 Created by KiCad (PCBNEW (6.0.7)) date 2022-09-06 06:54:50*
%MOMM*%
%LPD*%
G01*
G04 APERTURE LIST*
G04 Aperture macros list*
%AMFreePoly0*
4,1,6,1.000000,0.000000,0.500000,-0.750000,-0.500000,-0.750000,-0.500000,0.750000,0.500000,0.750000,1.000000,0.000000,1.000000,0.000000,$1*%
%AMFreePoly1*
4,1,6,0.500000,-0.750000,-0.650000,-0.750000,-0.150000,0.000000,-0.650000,0.750000,0.500000,0.750000,0.500000,-0.750000,0.500000,-0.750000,$1*%
G04 Aperture macros list end*
%ADD10FreePoly0,0.000000*%
%ADD11FreePoly1,0.000000*%
%ADD12R,1.700000X1.700000*%
%ADD13O,1.700000X1.700000*%
%ADD14R,0.620000X0.575000*%
%ADD15C,3.800000*%
%ADD16R,1.050000X1.500000*%
%ADD17O,1.050000X1.500000*%
%ADD18C,2.000000*%
%ADD19C,1.524000*%
G04 APERTURE END LIST*
D10*
%TO.C,ADC3*%
X178255000Y-85725000D03*
D11*
X179705000Y-85725000D03*
%TD*%
D12*
%TO.C,J3*%
X194310000Y-102235000D03*
D13*
X191770000Y-102235000D03*
X189230000Y-102235000D03*
X186690000Y-102235000D03*
%TD*%
D14*
%TO.C,H0*%
X188976000Y-91186000D03*
X190876000Y-91186000D03*
X189926000Y-88810000D03*
%TD*%
D15*
%TO.C,H4*%
X204470000Y-102870000D03*
%TD*%
D16*
%TO.C,U1*%
X188722000Y-94848000D03*
D17*
X189992000Y-94848000D03*
X191262000Y-94848000D03*
%TD*%
D15*
%TO.C,H2*%
X175260000Y-74930000D03*
%TD*%
%TO.C,H1*%
X204470000Y-74930000D03*
%TD*%
%TO.C,H3*%
X175260000Y-102870000D03*
%TD*%
D10*
%TO.C,ADC0*%
X178255000Y-99060000D03*
D11*
X179705000Y-99060000D03*
%TD*%
D10*
%TO.C,ADC2*%
X178255000Y-90170000D03*
D11*
X179705000Y-90170000D03*
%TD*%
D10*
%TO.C,ADC1*%
X178255000Y-94615000D03*
D11*
X179705000Y-94615000D03*
%TD*%
D12*
%TO.C,J2*%
X175260000Y-83185000D03*
D13*
X175260000Y-85725000D03*
X175260000Y-88265000D03*
X175260000Y-90805000D03*
X175260000Y-93345000D03*
X175260000Y-95885000D03*
%TD*%
D18*
%TO.C,SW2*%
X187615000Y-80645000D03*
X187615000Y-74145000D03*
X192115000Y-74145000D03*
X192115000Y-80645000D03*
%TD*%
%TO.C,SW3*%
X179360000Y-80720000D03*
X179360000Y-74220000D03*
X183860000Y-80720000D03*
X183860000Y-74220000D03*
%TD*%
%TO.C,SW1*%
X195870000Y-80645000D03*
X195870000Y-74145000D03*
X200370000Y-80645000D03*
X200370000Y-74145000D03*
%TD*%
D12*
%TO.C,J1*%
X204470000Y-83185000D03*
D13*
X204470000Y-85725000D03*
X204470000Y-88265000D03*
X204470000Y-90805000D03*
X204470000Y-93345000D03*
X204470000Y-95885000D03*
%TD*%
D19*
%TO.C,WSRP1*%
X198120000Y-104140000D03*
X198120000Y-101600000D03*
X198120000Y-99060000D03*
X198120000Y-96520000D03*
X198120000Y-93980000D03*
X198120000Y-91440000D03*
X198120000Y-88900000D03*
X198120000Y-86360000D03*
X198120000Y-83820000D03*
X195580000Y-83820000D03*
X193040000Y-83820000D03*
X190500000Y-83820000D03*
X187960000Y-83820000D03*
X185420000Y-83820000D03*
X182880000Y-83820000D03*
X182880000Y-86360000D03*
X182880000Y-88900000D03*
X182880000Y-91440000D03*
X182880000Y-93980000D03*
X182880000Y-96520000D03*
X182880000Y-99060000D03*
X182880000Y-101600000D03*
X182880000Y-104140000D03*
%TD*%
M02*
