%TF.GenerationSoftware,KiCad,Pcbnew,(6.0.7)*%
%TF.CreationDate,2022-09-06T06:54:47-05:00*%
%TF.ProjectId,OpenMuscle2,4f70656e-4d75-4736-936c-65322e6b6963,rev?*%
%TF.SameCoordinates,Original*%
%TF.FileFunction,Drillmap*%
%TF.FilePolarity,Positive*%
%FSLAX45Y45*%
G04 Gerber Fmt 4.5, Leading zero omitted, Abs format (unit mm)*
G04 Created by KiCad (PCBNEW (6.0.7)) date 2022-09-06 06:54:47*
%MOMM*%
%LPD*%
G01*
G04 APERTURE LIST*
%ADD10C,0.100000*%
%ADD11C,0.200000*%
G04 APERTURE END LIST*
D10*
X20675600Y-10541000D02*
X17297400Y-10541000D01*
X17297400Y-7239000D01*
X20675600Y-7239000D01*
X20675600Y-10541000D01*
D11*
X17550019Y-10856476D02*
X17550019Y-10656476D01*
X17597638Y-10656476D01*
X17626210Y-10666000D01*
X17645257Y-10685048D01*
X17654781Y-10704095D01*
X17664305Y-10742190D01*
X17664305Y-10770762D01*
X17654781Y-10808857D01*
X17645257Y-10827905D01*
X17626210Y-10846952D01*
X17597638Y-10856476D01*
X17550019Y-10856476D01*
X17750019Y-10856476D02*
X17750019Y-10723143D01*
X17750019Y-10761238D02*
X17759543Y-10742190D01*
X17769067Y-10732667D01*
X17788114Y-10723143D01*
X17807162Y-10723143D01*
X17873829Y-10856476D02*
X17873829Y-10723143D01*
X17873829Y-10656476D02*
X17864305Y-10666000D01*
X17873829Y-10675524D01*
X17883352Y-10666000D01*
X17873829Y-10656476D01*
X17873829Y-10675524D01*
X17997638Y-10856476D02*
X17978590Y-10846952D01*
X17969067Y-10827905D01*
X17969067Y-10656476D01*
X18102400Y-10856476D02*
X18083352Y-10846952D01*
X18073829Y-10827905D01*
X18073829Y-10656476D01*
X18330971Y-10856476D02*
X18330971Y-10656476D01*
X18397638Y-10799333D01*
X18464305Y-10656476D01*
X18464305Y-10856476D01*
X18645257Y-10856476D02*
X18645257Y-10751714D01*
X18635733Y-10732667D01*
X18616686Y-10723143D01*
X18578590Y-10723143D01*
X18559543Y-10732667D01*
X18645257Y-10846952D02*
X18626210Y-10856476D01*
X18578590Y-10856476D01*
X18559543Y-10846952D01*
X18550019Y-10827905D01*
X18550019Y-10808857D01*
X18559543Y-10789810D01*
X18578590Y-10780286D01*
X18626210Y-10780286D01*
X18645257Y-10770762D01*
X18740495Y-10723143D02*
X18740495Y-10923143D01*
X18740495Y-10732667D02*
X18759543Y-10723143D01*
X18797638Y-10723143D01*
X18816686Y-10732667D01*
X18826210Y-10742190D01*
X18835733Y-10761238D01*
X18835733Y-10818381D01*
X18826210Y-10837429D01*
X18816686Y-10846952D01*
X18797638Y-10856476D01*
X18759543Y-10856476D01*
X18740495Y-10846952D01*
X18921448Y-10837429D02*
X18930971Y-10846952D01*
X18921448Y-10856476D01*
X18911924Y-10846952D01*
X18921448Y-10837429D01*
X18921448Y-10856476D01*
X18921448Y-10732667D02*
X18930971Y-10742190D01*
X18921448Y-10751714D01*
X18911924Y-10742190D01*
X18921448Y-10732667D01*
X18921448Y-10751714D01*
M02*
