%TF.GenerationSoftware,KiCad,Pcbnew,(6.0.7)*%
%TF.CreationDate,2022-09-06T06:54:50-05:00*%
%TF.ProjectId,OpenMuscle2,4f70656e-4d75-4736-936c-65322e6b6963,rev?*%
%TF.SameCoordinates,Original*%
%TF.FileFunction,Copper,L1,Top*%
%TF.FilePolarity,Positive*%
%FSLAX46Y46*%
G04 Gerber Fmt 4.6, Leading zero omitted, Abs format (unit mm)*
G04 Created by KiCad (PCBNEW (6.0.7)) date 2022-09-06 06:54:50*
%MOMM*%
%LPD*%
G01*
G04 APERTURE LIST*
G04 Aperture macros list*
%AMFreePoly0*
4,1,6,1.000000,0.000000,0.500000,-0.750000,-0.500000,-0.750000,-0.500000,0.750000,0.500000,0.750000,1.000000,0.000000,1.000000,0.000000,$1*%
%AMFreePoly1*
4,1,6,0.500000,-0.750000,-0.650000,-0.750000,-0.150000,0.000000,-0.650000,0.750000,0.500000,0.750000,0.500000,-0.750000,0.500000,-0.750000,$1*%
G04 Aperture macros list end*
%TA.AperFunction,SMDPad,CuDef*%
%ADD10FreePoly0,0.000000*%
%TD*%
%TA.AperFunction,SMDPad,CuDef*%
%ADD11FreePoly1,0.000000*%
%TD*%
%TA.AperFunction,ComponentPad*%
%ADD12R,1.700000X1.700000*%
%TD*%
%TA.AperFunction,ComponentPad*%
%ADD13O,1.700000X1.700000*%
%TD*%
%TA.AperFunction,SMDPad,CuDef*%
%ADD14R,0.620000X0.575000*%
%TD*%
%TA.AperFunction,ComponentPad*%
%ADD15C,3.800000*%
%TD*%
%TA.AperFunction,ComponentPad*%
%ADD16R,1.050000X1.500000*%
%TD*%
%TA.AperFunction,ComponentPad*%
%ADD17O,1.050000X1.500000*%
%TD*%
%TA.AperFunction,ComponentPad*%
%ADD18C,2.000000*%
%TD*%
%TA.AperFunction,ComponentPad*%
%ADD19C,1.524000*%
%TD*%
%TA.AperFunction,Conductor*%
%ADD20C,0.250000*%
%TD*%
G04 APERTURE END LIST*
D10*
%TO.P,ADC3,1,A*%
%TO.N,Net-(H0-Pad2)*%
X178255000Y-85725000D03*
D11*
%TO.P,ADC3,2,B*%
%TO.N,Net-(J1-Pad3)*%
X179705000Y-85725000D03*
%TD*%
D12*
%TO.P,J3,1,Pin_1*%
%TO.N,Net-(H0-Pad3)*%
X194310000Y-102235000D03*
D13*
%TO.P,J3,2,Pin_2*%
%TO.N,Net-(H0-Pad1)*%
X191770000Y-102235000D03*
%TO.P,J3,3,Pin_3*%
%TO.N,Net-(WSRP1-Pad15)*%
X189230000Y-102235000D03*
%TO.P,J3,4,Pin_4*%
%TO.N,Net-(WSRP1-Pad14)*%
X186690000Y-102235000D03*
%TD*%
D14*
%TO.P,H0,1,VCC*%
%TO.N,Net-(H0-Pad1)*%
X188976000Y-91186000D03*
%TO.P,H0,2,VOUT*%
%TO.N,Net-(H0-Pad2)*%
X190876000Y-91186000D03*
%TO.P,H0,3,GND*%
%TO.N,Net-(H0-Pad3)*%
X189926000Y-88810000D03*
%TD*%
D15*
%TO.P,H4,1*%
%TO.N,N/C*%
X204470000Y-102870000D03*
%TD*%
D16*
%TO.P,U1,1,VCC*%
%TO.N,Net-(H0-Pad1)*%
X188722000Y-94848000D03*
D17*
%TO.P,U1,2,GND*%
%TO.N,Net-(H0-Pad3)*%
X189992000Y-94848000D03*
%TO.P,U1,3,OUT*%
%TO.N,Net-(H0-Pad2)*%
X191262000Y-94848000D03*
%TD*%
D15*
%TO.P,H2,1*%
%TO.N,N/C*%
X175260000Y-74930000D03*
%TD*%
%TO.P,H1,1*%
%TO.N,N/C*%
X204470000Y-74930000D03*
%TD*%
%TO.P,H3,1*%
%TO.N,N/C*%
X175260000Y-102870000D03*
%TD*%
D10*
%TO.P,ADC0,1,A*%
%TO.N,Net-(H0-Pad2)*%
X178255000Y-99060000D03*
D11*
%TO.P,ADC0,2,B*%
%TO.N,Net-(J1-Pad6)*%
X179705000Y-99060000D03*
%TD*%
D10*
%TO.P,ADC2,1,A*%
%TO.N,Net-(H0-Pad2)*%
X178255000Y-90170000D03*
D11*
%TO.P,ADC2,2,B*%
%TO.N,Net-(J1-Pad4)*%
X179705000Y-90170000D03*
%TD*%
D10*
%TO.P,ADC1,1,A*%
%TO.N,Net-(H0-Pad2)*%
X178255000Y-94615000D03*
D11*
%TO.P,ADC1,2,B*%
%TO.N,Net-(J1-Pad5)*%
X179705000Y-94615000D03*
%TD*%
D12*
%TO.P,J2,1,Pin_1*%
%TO.N,Net-(J1-Pad1)*%
X175260000Y-83185000D03*
D13*
%TO.P,J2,2,Pin_2*%
%TO.N,Net-(H0-Pad1)*%
X175260000Y-85725000D03*
%TO.P,J2,3,Pin_3*%
%TO.N,Net-(J1-Pad3)*%
X175260000Y-88265000D03*
%TO.P,J2,4,Pin_4*%
%TO.N,Net-(J1-Pad4)*%
X175260000Y-90805000D03*
%TO.P,J2,5,Pin_5*%
%TO.N,Net-(J1-Pad5)*%
X175260000Y-93345000D03*
%TO.P,J2,6,Pin_6*%
%TO.N,Net-(J1-Pad6)*%
X175260000Y-95885000D03*
%TD*%
D18*
%TO.P,SW2,1,A*%
%TO.N,Net-(WSRP1-Pad6)*%
X187615000Y-80645000D03*
X187615000Y-74145000D03*
%TO.P,SW2,2,B*%
%TO.N,Net-(J1-Pad1)*%
X192115000Y-74145000D03*
X192115000Y-80645000D03*
%TD*%
%TO.P,SW3,1,A*%
%TO.N,Net-(WSRP1-Pad7)*%
X179360000Y-80720000D03*
X179360000Y-74220000D03*
%TO.P,SW3,2,B*%
%TO.N,Net-(J1-Pad1)*%
X183860000Y-80720000D03*
X183860000Y-74220000D03*
%TD*%
%TO.P,SW1,1,A*%
%TO.N,Net-(WSRP1-Pad5)*%
X195870000Y-80645000D03*
X195870000Y-74145000D03*
%TO.P,SW1,2,B*%
%TO.N,Net-(J1-Pad1)*%
X200370000Y-80645000D03*
X200370000Y-74145000D03*
%TD*%
D12*
%TO.P,J1,1,Pin_1*%
%TO.N,Net-(J1-Pad1)*%
X204470000Y-83185000D03*
D13*
%TO.P,J1,2,Pin_2*%
%TO.N,Net-(H0-Pad1)*%
X204470000Y-85725000D03*
%TO.P,J1,3,Pin_3*%
%TO.N,Net-(J1-Pad3)*%
X204470000Y-88265000D03*
%TO.P,J1,4,Pin_4*%
%TO.N,Net-(J1-Pad4)*%
X204470000Y-90805000D03*
%TO.P,J1,5,Pin_5*%
%TO.N,Net-(J1-Pad5)*%
X204470000Y-93345000D03*
%TO.P,J1,6,Pin_6*%
%TO.N,Net-(J1-Pad6)*%
X204470000Y-95885000D03*
%TD*%
D19*
%TO.P,WSRP1,0,0*%
%TO.N,unconnected-(WSRP1-Pad0)*%
X198120000Y-104140000D03*
%TO.P,WSRP1,1,1*%
%TO.N,unconnected-(WSRP1-Pad1)*%
X198120000Y-101600000D03*
%TO.P,WSRP1,2,2*%
%TO.N,unconnected-(WSRP1-Pad2)*%
X198120000Y-99060000D03*
%TO.P,WSRP1,3,3*%
%TO.N,unconnected-(WSRP1-Pad3)*%
X198120000Y-96520000D03*
%TO.P,WSRP1,4,4*%
%TO.N,unconnected-(WSRP1-Pad4)*%
X198120000Y-93980000D03*
%TO.P,WSRP1,5,5*%
%TO.N,Net-(WSRP1-Pad5)*%
X198120000Y-91440000D03*
%TO.P,WSRP1,6,6*%
%TO.N,Net-(WSRP1-Pad6)*%
X198120000Y-88900000D03*
%TO.P,WSRP1,7,7*%
%TO.N,Net-(WSRP1-Pad7)*%
X198120000Y-86360000D03*
%TO.P,WSRP1,8,8*%
%TO.N,unconnected-(WSRP1-Pad8)*%
X198120000Y-83820000D03*
%TO.P,WSRP1,9,9*%
%TO.N,unconnected-(WSRP1-Pad9)*%
X195580000Y-83820000D03*
%TO.P,WSRP1,10,10*%
%TO.N,unconnected-(WSRP1-Pad10)*%
X193040000Y-83820000D03*
%TO.P,WSRP1,11,11*%
%TO.N,unconnected-(WSRP1-Pad11)*%
X190500000Y-83820000D03*
%TO.P,WSRP1,12,12*%
%TO.N,unconnected-(WSRP1-Pad12)*%
X187960000Y-83820000D03*
%TO.P,WSRP1,13,13*%
%TO.N,unconnected-(WSRP1-Pad13)*%
X185420000Y-83820000D03*
%TO.P,WSRP1,14,14*%
%TO.N,Net-(WSRP1-Pad14)*%
X182880000Y-83820000D03*
%TO.P,WSRP1,15,15*%
%TO.N,Net-(WSRP1-Pad15)*%
X182880000Y-86360000D03*
%TO.P,WSRP1,26,ADC0*%
%TO.N,Net-(J1-Pad6)*%
X182880000Y-88900000D03*
%TO.P,WSRP1,27,ADC1*%
%TO.N,Net-(J1-Pad5)*%
X182880000Y-91440000D03*
%TO.P,WSRP1,28,ADC2*%
%TO.N,Net-(J1-Pad4)*%
X182880000Y-93980000D03*
%TO.P,WSRP1,29,ADC3*%
%TO.N,Net-(J1-Pad3)*%
X182880000Y-96520000D03*
%TO.P,WSRP1,30,3V3*%
%TO.N,Net-(H0-Pad1)*%
X182880000Y-99060000D03*
%TO.P,WSRP1,31,GND*%
%TO.N,Net-(H0-Pad3)*%
X182880000Y-101600000D03*
%TO.P,WSRP1,32,5V*%
%TO.N,unconnected-(WSRP1-Pad32)*%
X182880000Y-104140000D03*
%TD*%
D20*
%TO.N,Net-(WSRP1-Pad7)*%
X181372600Y-82732600D02*
X179360000Y-80720000D01*
X185903800Y-82732600D02*
X181372600Y-82732600D01*
X186690000Y-83518800D02*
X185903800Y-82732600D01*
X186690000Y-84087800D02*
X186690000Y-83518800D01*
X187521200Y-84919000D02*
X186690000Y-84087800D01*
X196679000Y-84919000D02*
X187521200Y-84919000D01*
X198120000Y-86360000D02*
X196679000Y-84919000D01*
X179360000Y-80720000D02*
X179360000Y-74220000D01*
%TO.N,Net-(J1-Pad1)*%
X200754700Y-80645000D02*
X200370000Y-80645000D01*
X203294700Y-83185000D02*
X200754700Y-80645000D01*
X204470000Y-83185000D02*
X203294700Y-83185000D01*
X183860000Y-77862800D02*
X183860000Y-74220000D01*
X185288600Y-79291400D02*
X183860000Y-77862800D01*
X183860000Y-80720000D02*
X185288600Y-79291400D01*
X185288600Y-79291400D02*
X190761400Y-79291400D01*
X190761400Y-79291400D02*
X192115000Y-80645000D01*
X192115000Y-77937800D02*
X190761400Y-79291400D01*
X192115000Y-74145000D02*
X192115000Y-77937800D01*
X193445900Y-72814100D02*
X192115000Y-74145000D01*
X199039100Y-72814100D02*
X193445900Y-72814100D01*
X200370000Y-74145000D02*
X199039100Y-72814100D01*
%TO.N,Net-(J1-Pad6)*%
X177599300Y-100135300D02*
X179705000Y-100135300D01*
X175260000Y-97796000D02*
X177599300Y-100135300D01*
X175260000Y-95885000D02*
X175260000Y-97796000D01*
X179705000Y-99060000D02*
X179705000Y-100135300D01*
X182439700Y-102870000D02*
X179705000Y-100135300D01*
X183502900Y-102870000D02*
X182439700Y-102870000D01*
X184063500Y-103430600D02*
X183502900Y-102870000D01*
X195321600Y-103430600D02*
X184063500Y-103430600D01*
X196649900Y-102102300D02*
X195321600Y-103430600D01*
X196649900Y-101507500D02*
X196649900Y-102102300D01*
X197827400Y-100330000D02*
X196649900Y-101507500D01*
X198849700Y-100330000D02*
X197827400Y-100330000D01*
X203294700Y-95885000D02*
X198849700Y-100330000D01*
X204470000Y-95885000D02*
X203294700Y-95885000D01*
%TO.N,Net-(J1-Pad5)*%
X179705000Y-94615000D02*
X180530300Y-94615000D01*
X179510300Y-93345000D02*
X179705000Y-93539700D01*
X175260000Y-93345000D02*
X179510300Y-93345000D01*
X179705000Y-94615000D02*
X179705000Y-93539700D01*
X183980800Y-94426600D02*
X183980800Y-92540800D01*
X183316200Y-95091200D02*
X183980800Y-94426600D01*
X181006500Y-95091200D02*
X183316200Y-95091200D01*
X180530300Y-94615000D02*
X181006500Y-95091200D01*
X183980800Y-92540800D02*
X182880000Y-91440000D01*
X204470000Y-93345000D02*
X203294700Y-93345000D01*
X202807500Y-92857800D02*
X203294700Y-93345000D01*
X196895400Y-92857800D02*
X202807500Y-92857800D01*
X191770200Y-87732600D02*
X196895400Y-92857800D01*
X188789000Y-87732600D02*
X191770200Y-87732600D01*
X183980800Y-92540800D02*
X188789000Y-87732600D01*
%TO.N,Net-(J1-Pad4)*%
X179705000Y-90170000D02*
X179705000Y-91245300D01*
X176875600Y-91245300D02*
X179705000Y-91245300D01*
X176435300Y-90805000D02*
X176875600Y-91245300D01*
X175260000Y-90805000D02*
X176435300Y-90805000D01*
X180145300Y-91245300D02*
X179705000Y-91245300D01*
X182880000Y-93980000D02*
X180145300Y-91245300D01*
X180530300Y-90169900D02*
X180530300Y-90170000D01*
X184324700Y-90169900D02*
X180530300Y-90169900D01*
X187249300Y-87245300D02*
X184324700Y-90169900D01*
X194107900Y-87245300D02*
X187249300Y-87245300D01*
X197180400Y-90317800D02*
X194107900Y-87245300D01*
X202807500Y-90317800D02*
X197180400Y-90317800D01*
X203294700Y-90805000D02*
X202807500Y-90317800D01*
X204470000Y-90805000D02*
X203294700Y-90805000D01*
X179705000Y-90170000D02*
X180530300Y-90170000D01*
%TO.N,Net-(J1-Pad3)*%
X204470000Y-88265000D02*
X203294700Y-88265000D01*
X179705000Y-85725000D02*
X180530300Y-85725000D01*
X202819000Y-87789300D02*
X203294700Y-88265000D01*
X197102700Y-87789300D02*
X202819000Y-87789300D01*
X195012400Y-85699000D02*
X197102700Y-87789300D01*
X187559700Y-85699000D02*
X195012400Y-85699000D01*
X187109400Y-85248700D02*
X187559700Y-85699000D01*
X181006600Y-85248700D02*
X187109400Y-85248700D01*
X180530300Y-85725000D02*
X181006600Y-85248700D01*
X177620200Y-84649700D02*
X179705000Y-84649700D01*
X176435300Y-85834600D02*
X177620200Y-84649700D01*
X176435300Y-86281800D02*
X176435300Y-85834600D01*
X175627400Y-87089700D02*
X176435300Y-86281800D01*
X175260000Y-87089700D02*
X175627400Y-87089700D01*
X175260000Y-88265000D02*
X175260000Y-87089700D01*
X179705000Y-85725000D02*
X179705000Y-84649700D01*
%TO.N,Net-(H0-Pad3)*%
X189992000Y-89488800D02*
X189926000Y-89422800D01*
X189992000Y-94848000D02*
X189992000Y-89488800D01*
X189926000Y-88810000D02*
X189926000Y-89422800D01*
X194310000Y-102235000D02*
X193739600Y-102235000D01*
X185992600Y-98487400D02*
X189992000Y-98487400D01*
X182880000Y-101600000D02*
X185992600Y-98487400D01*
X193739600Y-102235000D02*
X189992000Y-98487400D01*
X189992000Y-98487400D02*
X189992000Y-94848000D01*
%TO.N,Net-(H0-Pad2)*%
X191262000Y-92184800D02*
X191262000Y-94848000D01*
X190876000Y-91798800D02*
X191262000Y-92184800D01*
X190876000Y-91186000D02*
X190876000Y-91798800D01*
X190876000Y-88702400D02*
X190876000Y-91186000D01*
X190370800Y-88197200D02*
X190876000Y-88702400D01*
X189456000Y-88197200D02*
X190370800Y-88197200D01*
X186960400Y-90692800D02*
X189456000Y-88197200D01*
X186960400Y-94043100D02*
X186960400Y-90692800D01*
X183312700Y-97690800D02*
X186960400Y-94043100D01*
X178255000Y-97690800D02*
X183312700Y-97690800D01*
X178255000Y-99060000D02*
X178255000Y-97690800D01*
X178255000Y-97690800D02*
X178255000Y-94615000D01*
X177704200Y-86275800D02*
X178255000Y-85725000D01*
X177704200Y-89619200D02*
X177704200Y-86275800D01*
X174761300Y-89619200D02*
X177704200Y-89619200D01*
X174063500Y-90317000D02*
X174761300Y-89619200D01*
X174063500Y-93815100D02*
X174063500Y-90317000D01*
X174863400Y-94615000D02*
X174063500Y-93815100D01*
X178255000Y-94615000D02*
X174863400Y-94615000D01*
X177704200Y-89619200D02*
X178255000Y-90170000D01*
%TO.N,Net-(H0-Pad1)*%
X183659700Y-99060000D02*
X187871700Y-94848000D01*
X182880000Y-99060000D02*
X183659700Y-99060000D01*
X188722000Y-94848000D02*
X188296900Y-94848000D01*
X188296900Y-94848000D02*
X187871700Y-94848000D01*
X188296900Y-92477900D02*
X188976000Y-91798800D01*
X188296900Y-94848000D02*
X188296900Y-92477900D01*
X188976000Y-91186000D02*
X188976000Y-91798800D01*
%TD*%
M02*
