%TF.GenerationSoftware,KiCad,Pcbnew,(6.0.7)*%
%TF.CreationDate,2022-09-06T06:54:50-05:00*%
%TF.ProjectId,OpenMuscle2,4f70656e-4d75-4736-936c-65322e6b6963,rev?*%
%TF.SameCoordinates,Original*%
%TF.FileFunction,Soldermask,Bot*%
%TF.FilePolarity,Negative*%
%FSLAX46Y46*%
G04 Gerber Fmt 4.6, Leading zero omitted, Abs format (unit mm)*
G04 Created by KiCad (PCBNEW (6.0.7)) date 2022-09-06 06:54:50*
%MOMM*%
%LPD*%
G01*
G04 APERTURE LIST*
%ADD10R,1.700000X1.700000*%
%ADD11O,1.700000X1.700000*%
%ADD12C,3.800000*%
%ADD13R,1.050000X1.500000*%
%ADD14O,1.050000X1.500000*%
%ADD15C,2.000000*%
%ADD16C,1.524000*%
G04 APERTURE END LIST*
D10*
%TO.C,J3*%
X194310000Y-102235000D03*
D11*
X191770000Y-102235000D03*
X189230000Y-102235000D03*
X186690000Y-102235000D03*
%TD*%
D12*
%TO.C,H4*%
X204470000Y-102870000D03*
%TD*%
D13*
%TO.C,U1*%
X188722000Y-94848000D03*
D14*
X189992000Y-94848000D03*
X191262000Y-94848000D03*
%TD*%
D12*
%TO.C,H2*%
X175260000Y-74930000D03*
%TD*%
%TO.C,H1*%
X204470000Y-74930000D03*
%TD*%
%TO.C,H3*%
X175260000Y-102870000D03*
%TD*%
D10*
%TO.C,J2*%
X175260000Y-83185000D03*
D11*
X175260000Y-85725000D03*
X175260000Y-88265000D03*
X175260000Y-90805000D03*
X175260000Y-93345000D03*
X175260000Y-95885000D03*
%TD*%
D15*
%TO.C,SW2*%
X187615000Y-80645000D03*
X187615000Y-74145000D03*
X192115000Y-74145000D03*
X192115000Y-80645000D03*
%TD*%
%TO.C,SW3*%
X179360000Y-80720000D03*
X179360000Y-74220000D03*
X183860000Y-80720000D03*
X183860000Y-74220000D03*
%TD*%
%TO.C,SW1*%
X195870000Y-80645000D03*
X195870000Y-74145000D03*
X200370000Y-80645000D03*
X200370000Y-74145000D03*
%TD*%
D10*
%TO.C,J1*%
X204470000Y-83185000D03*
D11*
X204470000Y-85725000D03*
X204470000Y-88265000D03*
X204470000Y-90805000D03*
X204470000Y-93345000D03*
X204470000Y-95885000D03*
%TD*%
D16*
%TO.C,WSRP1*%
X198120000Y-104140000D03*
X198120000Y-101600000D03*
X198120000Y-99060000D03*
X198120000Y-96520000D03*
X198120000Y-93980000D03*
X198120000Y-91440000D03*
X198120000Y-88900000D03*
X198120000Y-86360000D03*
X198120000Y-83820000D03*
X195580000Y-83820000D03*
X193040000Y-83820000D03*
X190500000Y-83820000D03*
X187960000Y-83820000D03*
X185420000Y-83820000D03*
X182880000Y-83820000D03*
X182880000Y-86360000D03*
X182880000Y-88900000D03*
X182880000Y-91440000D03*
X182880000Y-93980000D03*
X182880000Y-96520000D03*
X182880000Y-99060000D03*
X182880000Y-101600000D03*
X182880000Y-104140000D03*
%TD*%
M02*
