%TF.GenerationSoftware,KiCad,Pcbnew,(6.0.7)*%
%TF.CreationDate,2022-09-06T06:54:50-05:00*%
%TF.ProjectId,OpenMuscle2,4f70656e-4d75-4736-936c-65322e6b6963,rev?*%
%TF.SameCoordinates,Original*%
%TF.FileFunction,Copper,L2,Bot*%
%TF.FilePolarity,Positive*%
%FSLAX46Y46*%
G04 Gerber Fmt 4.6, Leading zero omitted, Abs format (unit mm)*
G04 Created by KiCad (PCBNEW (6.0.7)) date 2022-09-06 06:54:50*
%MOMM*%
%LPD*%
G01*
G04 APERTURE LIST*
%TA.AperFunction,ComponentPad*%
%ADD10R,1.700000X1.700000*%
%TD*%
%TA.AperFunction,ComponentPad*%
%ADD11O,1.700000X1.700000*%
%TD*%
%TA.AperFunction,ComponentPad*%
%ADD12C,3.800000*%
%TD*%
%TA.AperFunction,ComponentPad*%
%ADD13R,1.050000X1.500000*%
%TD*%
%TA.AperFunction,ComponentPad*%
%ADD14O,1.050000X1.500000*%
%TD*%
%TA.AperFunction,ComponentPad*%
%ADD15C,2.000000*%
%TD*%
%TA.AperFunction,ComponentPad*%
%ADD16C,1.524000*%
%TD*%
%TA.AperFunction,Conductor*%
%ADD17C,0.250000*%
%TD*%
G04 APERTURE END LIST*
D10*
%TO.P,J3,1,Pin_1*%
%TO.N,Net-(H0-Pad3)*%
X194310000Y-102235000D03*
D11*
%TO.P,J3,2,Pin_2*%
%TO.N,Net-(H0-Pad1)*%
X191770000Y-102235000D03*
%TO.P,J3,3,Pin_3*%
%TO.N,Net-(WSRP1-Pad15)*%
X189230000Y-102235000D03*
%TO.P,J3,4,Pin_4*%
%TO.N,Net-(WSRP1-Pad14)*%
X186690000Y-102235000D03*
%TD*%
D12*
%TO.P,H4,1*%
%TO.N,N/C*%
X204470000Y-102870000D03*
%TD*%
D13*
%TO.P,U1,1,VCC*%
%TO.N,Net-(H0-Pad1)*%
X188722000Y-94848000D03*
D14*
%TO.P,U1,2,GND*%
%TO.N,Net-(H0-Pad3)*%
X189992000Y-94848000D03*
%TO.P,U1,3,OUT*%
%TO.N,Net-(H0-Pad2)*%
X191262000Y-94848000D03*
%TD*%
D12*
%TO.P,H2,1*%
%TO.N,N/C*%
X175260000Y-74930000D03*
%TD*%
%TO.P,H1,1*%
%TO.N,N/C*%
X204470000Y-74930000D03*
%TD*%
%TO.P,H3,1*%
%TO.N,N/C*%
X175260000Y-102870000D03*
%TD*%
D10*
%TO.P,J2,1,Pin_1*%
%TO.N,Net-(J1-Pad1)*%
X175260000Y-83185000D03*
D11*
%TO.P,J2,2,Pin_2*%
%TO.N,Net-(H0-Pad1)*%
X175260000Y-85725000D03*
%TO.P,J2,3,Pin_3*%
%TO.N,Net-(J1-Pad3)*%
X175260000Y-88265000D03*
%TO.P,J2,4,Pin_4*%
%TO.N,Net-(J1-Pad4)*%
X175260000Y-90805000D03*
%TO.P,J2,5,Pin_5*%
%TO.N,Net-(J1-Pad5)*%
X175260000Y-93345000D03*
%TO.P,J2,6,Pin_6*%
%TO.N,Net-(J1-Pad6)*%
X175260000Y-95885000D03*
%TD*%
D15*
%TO.P,SW2,1,A*%
%TO.N,Net-(WSRP1-Pad6)*%
X187615000Y-80645000D03*
X187615000Y-74145000D03*
%TO.P,SW2,2,B*%
%TO.N,Net-(J1-Pad1)*%
X192115000Y-74145000D03*
X192115000Y-80645000D03*
%TD*%
%TO.P,SW3,1,A*%
%TO.N,Net-(WSRP1-Pad7)*%
X179360000Y-80720000D03*
X179360000Y-74220000D03*
%TO.P,SW3,2,B*%
%TO.N,Net-(J1-Pad1)*%
X183860000Y-80720000D03*
X183860000Y-74220000D03*
%TD*%
%TO.P,SW1,1,A*%
%TO.N,Net-(WSRP1-Pad5)*%
X195870000Y-80645000D03*
X195870000Y-74145000D03*
%TO.P,SW1,2,B*%
%TO.N,Net-(J1-Pad1)*%
X200370000Y-80645000D03*
X200370000Y-74145000D03*
%TD*%
D10*
%TO.P,J1,1,Pin_1*%
%TO.N,Net-(J1-Pad1)*%
X204470000Y-83185000D03*
D11*
%TO.P,J1,2,Pin_2*%
%TO.N,Net-(H0-Pad1)*%
X204470000Y-85725000D03*
%TO.P,J1,3,Pin_3*%
%TO.N,Net-(J1-Pad3)*%
X204470000Y-88265000D03*
%TO.P,J1,4,Pin_4*%
%TO.N,Net-(J1-Pad4)*%
X204470000Y-90805000D03*
%TO.P,J1,5,Pin_5*%
%TO.N,Net-(J1-Pad5)*%
X204470000Y-93345000D03*
%TO.P,J1,6,Pin_6*%
%TO.N,Net-(J1-Pad6)*%
X204470000Y-95885000D03*
%TD*%
D16*
%TO.P,WSRP1,0,0*%
%TO.N,unconnected-(WSRP1-Pad0)*%
X198120000Y-104140000D03*
%TO.P,WSRP1,1,1*%
%TO.N,unconnected-(WSRP1-Pad1)*%
X198120000Y-101600000D03*
%TO.P,WSRP1,2,2*%
%TO.N,unconnected-(WSRP1-Pad2)*%
X198120000Y-99060000D03*
%TO.P,WSRP1,3,3*%
%TO.N,unconnected-(WSRP1-Pad3)*%
X198120000Y-96520000D03*
%TO.P,WSRP1,4,4*%
%TO.N,unconnected-(WSRP1-Pad4)*%
X198120000Y-93980000D03*
%TO.P,WSRP1,5,5*%
%TO.N,Net-(WSRP1-Pad5)*%
X198120000Y-91440000D03*
%TO.P,WSRP1,6,6*%
%TO.N,Net-(WSRP1-Pad6)*%
X198120000Y-88900000D03*
%TO.P,WSRP1,7,7*%
%TO.N,Net-(WSRP1-Pad7)*%
X198120000Y-86360000D03*
%TO.P,WSRP1,8,8*%
%TO.N,unconnected-(WSRP1-Pad8)*%
X198120000Y-83820000D03*
%TO.P,WSRP1,9,9*%
%TO.N,unconnected-(WSRP1-Pad9)*%
X195580000Y-83820000D03*
%TO.P,WSRP1,10,10*%
%TO.N,unconnected-(WSRP1-Pad10)*%
X193040000Y-83820000D03*
%TO.P,WSRP1,11,11*%
%TO.N,unconnected-(WSRP1-Pad11)*%
X190500000Y-83820000D03*
%TO.P,WSRP1,12,12*%
%TO.N,unconnected-(WSRP1-Pad12)*%
X187960000Y-83820000D03*
%TO.P,WSRP1,13,13*%
%TO.N,unconnected-(WSRP1-Pad13)*%
X185420000Y-83820000D03*
%TO.P,WSRP1,14,14*%
%TO.N,Net-(WSRP1-Pad14)*%
X182880000Y-83820000D03*
%TO.P,WSRP1,15,15*%
%TO.N,Net-(WSRP1-Pad15)*%
X182880000Y-86360000D03*
%TO.P,WSRP1,26,ADC0*%
%TO.N,Net-(J1-Pad6)*%
X182880000Y-88900000D03*
%TO.P,WSRP1,27,ADC1*%
%TO.N,Net-(J1-Pad5)*%
X182880000Y-91440000D03*
%TO.P,WSRP1,28,ADC2*%
%TO.N,Net-(J1-Pad4)*%
X182880000Y-93980000D03*
%TO.P,WSRP1,29,ADC3*%
%TO.N,Net-(J1-Pad3)*%
X182880000Y-96520000D03*
%TO.P,WSRP1,30,3V3*%
%TO.N,Net-(H0-Pad1)*%
X182880000Y-99060000D03*
%TO.P,WSRP1,31,GND*%
%TO.N,Net-(H0-Pad3)*%
X182880000Y-101600000D03*
%TO.P,WSRP1,32,5V*%
%TO.N,unconnected-(WSRP1-Pad32)*%
X182880000Y-104140000D03*
%TD*%
D17*
%TO.N,Net-(WSRP1-Pad14)*%
X186690000Y-91151800D02*
X186690000Y-102235000D01*
X183168200Y-87630000D02*
X186690000Y-91151800D01*
X182593300Y-87630000D02*
X183168200Y-87630000D01*
X181746900Y-86783600D02*
X182593300Y-87630000D01*
X181746900Y-84953100D02*
X181746900Y-86783600D01*
X182880000Y-83820000D02*
X181746900Y-84953100D01*
%TO.N,Net-(WSRP1-Pad15)*%
X187865400Y-99695100D02*
X189230000Y-101059700D01*
X187865400Y-91345400D02*
X187865400Y-99695100D01*
X182880000Y-86360000D02*
X187865400Y-91345400D01*
X189230000Y-102235000D02*
X189230000Y-101059700D01*
%TO.N,Net-(WSRP1-Pad6)*%
X189019100Y-82049100D02*
X187615000Y-80645000D01*
X192850700Y-82049100D02*
X189019100Y-82049100D01*
X194310000Y-83508400D02*
X192850700Y-82049100D01*
X194310000Y-85090000D02*
X194310000Y-83508400D01*
X198120000Y-88900000D02*
X194310000Y-85090000D01*
X187615000Y-74145000D02*
X187615000Y-80645000D01*
%TO.N,Net-(WSRP1-Pad5)*%
X196850000Y-81625000D02*
X195870000Y-80645000D01*
X196850000Y-86648400D02*
X196850000Y-81625000D01*
X197831600Y-87630000D02*
X196850000Y-86648400D01*
X198406200Y-87630000D02*
X197831600Y-87630000D01*
X199228400Y-88452200D02*
X198406200Y-87630000D01*
X199228400Y-90331600D02*
X199228400Y-88452200D01*
X198120000Y-91440000D02*
X199228400Y-90331600D01*
X195870000Y-74145000D02*
X195870000Y-80645000D01*
%TO.N,Net-(J1-Pad1)*%
X200370000Y-74145000D02*
X200370000Y-80645000D01*
X181395000Y-83185000D02*
X175260000Y-83185000D01*
X183860000Y-80720000D02*
X181395000Y-83185000D01*
%TO.N,Net-(J1-Pad6)*%
X176435300Y-95344700D02*
X176435300Y-95885000D01*
X182880000Y-88900000D02*
X176435300Y-95344700D01*
X175260000Y-95885000D02*
X176435300Y-95885000D01*
%TO.N,Net-(J1-Pad3)*%
X174958700Y-89440300D02*
X175260000Y-89440300D01*
X174084700Y-90314300D02*
X174958700Y-89440300D01*
X174084700Y-96413000D02*
X174084700Y-90314300D01*
X174759900Y-97088200D02*
X174084700Y-96413000D01*
X182311800Y-97088200D02*
X174759900Y-97088200D01*
X182880000Y-96520000D02*
X182311800Y-97088200D01*
X175260000Y-88265000D02*
X175260000Y-89440300D01*
%TO.N,Net-(H0-Pad1)*%
X204470000Y-85725000D02*
X204470000Y-86900300D01*
X188722000Y-94848000D02*
X188722000Y-95923300D01*
X191770000Y-102235000D02*
X191770000Y-101059700D01*
X175260000Y-85725000D02*
X175260000Y-86900300D01*
X176094800Y-99060000D02*
X182880000Y-99060000D01*
X173634400Y-96599600D02*
X176094800Y-99060000D01*
X173634400Y-88158500D02*
X173634400Y-96599600D01*
X174892600Y-86900300D02*
X173634400Y-88158500D01*
X175260000Y-86900300D02*
X174892600Y-86900300D01*
X191588600Y-98789900D02*
X191770000Y-98789900D01*
X188722000Y-95923300D02*
X191588600Y-98789900D01*
X191770000Y-101059700D02*
X191770000Y-98789900D01*
X204092200Y-86900300D02*
X204470000Y-86900300D01*
X203294700Y-87697800D02*
X204092200Y-86900300D01*
X203294700Y-87811900D02*
X203294700Y-87697800D01*
X198396600Y-92710000D02*
X203294700Y-87811900D01*
X197849900Y-92710000D02*
X198396600Y-92710000D01*
X191770000Y-98789900D02*
X197849900Y-92710000D01*
%TD*%
M02*
