%TF.GenerationSoftware,KiCad,Pcbnew,(6.0.7)*%
%TF.CreationDate,2022-09-26T10:55:05-05:00*%
%TF.ProjectId,OpenMuscle5,4f70656e-4d75-4736-936c-65352e6b6963,rev?*%
%TF.SameCoordinates,Original*%
%TF.FileFunction,Drillmap*%
%TF.FilePolarity,Positive*%
%FSLAX45Y45*%
G04 Gerber Fmt 4.5, Leading zero omitted, Abs format (unit mm)*
G04 Created by KiCad (PCBNEW (6.0.7)) date 2022-09-26 10:55:05*
%MOMM*%
%LPD*%
G01*
G04 APERTURE LIST*
%ADD10C,0.100000*%
%ADD11C,0.200000*%
G04 APERTURE END LIST*
D10*
X15240000Y-7620000D02*
X18796000Y-7620000D01*
X18796000Y-7620000D02*
X18796000Y-11176000D01*
X18796000Y-11176000D02*
X15240000Y-11176000D01*
X15240000Y-11176000D02*
X15240000Y-7620000D01*
D11*
X15492619Y-11491476D02*
X15492619Y-11291476D01*
X15540238Y-11291476D01*
X15568809Y-11301000D01*
X15587857Y-11320048D01*
X15597381Y-11339095D01*
X15606905Y-11377190D01*
X15606905Y-11405762D01*
X15597381Y-11443857D01*
X15587857Y-11462905D01*
X15568809Y-11481952D01*
X15540238Y-11491476D01*
X15492619Y-11491476D01*
X15692619Y-11491476D02*
X15692619Y-11358143D01*
X15692619Y-11396238D02*
X15702143Y-11377190D01*
X15711667Y-11367667D01*
X15730714Y-11358143D01*
X15749762Y-11358143D01*
X15816428Y-11491476D02*
X15816428Y-11358143D01*
X15816428Y-11291476D02*
X15806905Y-11301000D01*
X15816428Y-11310524D01*
X15825952Y-11301000D01*
X15816428Y-11291476D01*
X15816428Y-11310524D01*
X15940238Y-11491476D02*
X15921190Y-11481952D01*
X15911667Y-11462905D01*
X15911667Y-11291476D01*
X16045000Y-11491476D02*
X16025952Y-11481952D01*
X16016428Y-11462905D01*
X16016428Y-11291476D01*
X16273571Y-11491476D02*
X16273571Y-11291476D01*
X16340238Y-11434333D01*
X16406905Y-11291476D01*
X16406905Y-11491476D01*
X16587857Y-11491476D02*
X16587857Y-11386714D01*
X16578333Y-11367667D01*
X16559286Y-11358143D01*
X16521190Y-11358143D01*
X16502143Y-11367667D01*
X16587857Y-11481952D02*
X16568809Y-11491476D01*
X16521190Y-11491476D01*
X16502143Y-11481952D01*
X16492619Y-11462905D01*
X16492619Y-11443857D01*
X16502143Y-11424809D01*
X16521190Y-11415286D01*
X16568809Y-11415286D01*
X16587857Y-11405762D01*
X16683095Y-11358143D02*
X16683095Y-11558143D01*
X16683095Y-11367667D02*
X16702143Y-11358143D01*
X16740238Y-11358143D01*
X16759286Y-11367667D01*
X16768809Y-11377190D01*
X16778333Y-11396238D01*
X16778333Y-11453381D01*
X16768809Y-11472428D01*
X16759286Y-11481952D01*
X16740238Y-11491476D01*
X16702143Y-11491476D01*
X16683095Y-11481952D01*
X16864048Y-11472428D02*
X16873571Y-11481952D01*
X16864048Y-11491476D01*
X16854524Y-11481952D01*
X16864048Y-11472428D01*
X16864048Y-11491476D01*
X16864048Y-11367667D02*
X16873571Y-11377190D01*
X16864048Y-11386714D01*
X16854524Y-11377190D01*
X16864048Y-11367667D01*
X16864048Y-11386714D01*
M02*
