%TF.GenerationSoftware,KiCad,Pcbnew,(6.0.7)*%
%TF.CreationDate,2022-09-26T10:55:09-05:00*%
%TF.ProjectId,OpenMuscle5,4f70656e-4d75-4736-936c-65352e6b6963,rev?*%
%TF.SameCoordinates,Original*%
%TF.FileFunction,Copper,L1,Top*%
%TF.FilePolarity,Positive*%
%FSLAX46Y46*%
G04 Gerber Fmt 4.6, Leading zero omitted, Abs format (unit mm)*
G04 Created by KiCad (PCBNEW (6.0.7)) date 2022-09-26 10:55:09*
%MOMM*%
%LPD*%
G01*
G04 APERTURE LIST*
G04 Aperture macros list*
%AMFreePoly0*
4,1,6,1.000000,0.000000,0.500000,-0.750000,-0.500000,-0.750000,-0.500000,0.750000,0.500000,0.750000,1.000000,0.000000,1.000000,0.000000,$1*%
%AMFreePoly1*
4,1,6,0.500000,-0.750000,-0.650000,-0.750000,-0.150000,0.000000,-0.650000,0.750000,0.500000,0.750000,0.500000,-0.750000,0.500000,-0.750000,$1*%
G04 Aperture macros list end*
%TA.AperFunction,ComponentPad*%
%ADD10R,1.700000X1.700000*%
%TD*%
%TA.AperFunction,ComponentPad*%
%ADD11O,1.700000X1.700000*%
%TD*%
%TA.AperFunction,SMDPad,CuDef*%
%ADD12FreePoly0,0.000000*%
%TD*%
%TA.AperFunction,SMDPad,CuDef*%
%ADD13FreePoly1,0.000000*%
%TD*%
%TA.AperFunction,ComponentPad*%
%ADD14C,1.524000*%
%TD*%
%TA.AperFunction,ComponentPad*%
%ADD15C,2.000000*%
%TD*%
%TA.AperFunction,ComponentPad*%
%ADD16C,4.400000*%
%TD*%
%TA.AperFunction,ComponentPad*%
%ADD17R,1.500000X1.050000*%
%TD*%
%TA.AperFunction,ComponentPad*%
%ADD18O,1.500000X1.050000*%
%TD*%
%TA.AperFunction,ViaPad*%
%ADD19C,0.800000*%
%TD*%
%TA.AperFunction,Conductor*%
%ADD20C,0.250000*%
%TD*%
G04 APERTURE END LIST*
D10*
%TO.P,BT1,1,Pin_1*%
%TO.N,Net-(Ch1-Pad3)*%
X181610000Y-78105000D03*
D11*
%TO.P,BT1,2,Pin_2*%
%TO.N,Net-(Ch1-Pad4)*%
X181610000Y-80645000D03*
%TD*%
D12*
%TO.P,NC1,1,A*%
%TO.N,Net-(E1-Pad6)*%
X164285000Y-82550000D03*
D13*
%TO.P,NC1,2,B*%
%TO.N,Net-(A1-Pad2)*%
X165735000Y-82550000D03*
%TD*%
D10*
%TO.P,Ch1,1,VIN*%
%TO.N,unconnected-(Ch1-Pad1)*%
X158750000Y-110490000D03*
D11*
%TO.P,Ch1,2,IN-GND*%
%TO.N,unconnected-(Ch1-Pad2)*%
X161290000Y-110490000D03*
%TO.P,Ch1,3,BAT-GND*%
%TO.N,Net-(Ch1-Pad3)*%
X163830000Y-110490000D03*
%TO.P,Ch1,4,BAT+*%
%TO.N,Net-(Ch1-Pad4)*%
X166370000Y-110490000D03*
%TO.P,Ch1,5,OUT-GND*%
%TO.N,Net-(J1-Pad10)*%
X168910000Y-110490000D03*
%TO.P,Ch1,6,OUT-5V*%
%TO.N,Net-(Ch1-Pad6)*%
X171450000Y-110490000D03*
%TD*%
D10*
%TO.P,Five2,1,Pin_1*%
%TO.N,Net-(E1-Pad150)*%
X184150000Y-102870000D03*
D11*
%TO.P,Five2,2,Pin_2*%
%TO.N,Net-(Ch1-Pad6)*%
X184150000Y-105410000D03*
%TD*%
D10*
%TO.P,J1,1,ACD0*%
%TO.N,Net-(E1-Pad6)*%
X153670000Y-82550000D03*
D11*
%TO.P,J1,2,ADC1*%
%TO.N,Net-(E1-Pad5)*%
X153670000Y-85090000D03*
%TO.P,J1,3,Pin_3*%
%TO.N,Net-(E1-Pad4)*%
X153670000Y-87630000D03*
%TO.P,J1,4,Pin_4*%
%TO.N,Net-(E1-Pad3)*%
X153670000Y-90170000D03*
%TO.P,J1,5,Pin_5*%
%TO.N,Net-(E1-Pad2)*%
X153670000Y-92710000D03*
%TO.P,J1,6,Pin_6*%
%TO.N,Net-(E1-Pad1)*%
X153670000Y-95250000D03*
%TO.P,J1,7,Pin_7*%
%TO.N,Net-(E1-Pad7)*%
X153670000Y-97790000D03*
%TO.P,J1,8,Pin_8*%
%TO.N,Net-(E1-Pad14)*%
X153670000Y-100330000D03*
%TO.P,J1,9,Pin_9*%
%TO.N,Net-(E1-Pad133)*%
X153670000Y-102870000D03*
%TO.P,J1,10,Pin_10*%
%TO.N,Net-(J1-Pad10)*%
X153670000Y-105410000D03*
%TD*%
D12*
%TO.P,NC3,1,A*%
%TO.N,Net-(E1-Pad4)*%
X164285000Y-88900000D03*
D13*
%TO.P,NC3,2,B*%
%TO.N,Net-(A3-Pad2)*%
X165735000Y-88900000D03*
%TD*%
D14*
%TO.P,E1,0,EN*%
%TO.N,unconnected-(E1-Pad0)*%
X158750000Y-85090000D03*
%TO.P,E1,1,ADC1_0*%
%TO.N,Net-(E1-Pad1)*%
X161290000Y-85090000D03*
%TO.P,E1,2,ADC1_1*%
%TO.N,Net-(E1-Pad2)*%
X161290000Y-87630000D03*
%TO.P,E1,3,ADC1_2*%
%TO.N,Net-(E1-Pad3)*%
X158750000Y-87630000D03*
%TO.P,E1,4,ADC1_3*%
%TO.N,Net-(E1-Pad4)*%
X161290000Y-90170000D03*
%TO.P,E1,5,ADC1_4*%
%TO.N,Net-(E1-Pad5)*%
X158750000Y-90170000D03*
%TO.P,E1,6,ADC1_5*%
%TO.N,Net-(E1-Pad6)*%
X161290000Y-92710000D03*
%TO.P,E1,7,ADC1_6*%
%TO.N,Net-(E1-Pad7)*%
X158750000Y-92710000D03*
%TO.P,E1,8,ADC1_7*%
%TO.N,Net-(A6-Pad2)*%
X161290000Y-95250000D03*
%TO.P,E1,9,ADC1_8*%
%TO.N,Net-(A5-Pad2)*%
X158750000Y-95250000D03*
%TO.P,E1,10,ADC1_9*%
%TO.N,Net-(A4-Pad2)*%
X161290000Y-97790000D03*
%TO.P,E1,11,ADC2_0*%
%TO.N,Net-(A3-Pad2)*%
X158750000Y-97790000D03*
%TO.P,E1,12,ADC2_1*%
%TO.N,Net-(A2-Pad2)*%
X158750000Y-100330000D03*
%TO.P,E1,13,ADC2_2*%
%TO.N,Net-(A1-Pad2)*%
X161290000Y-100330000D03*
%TO.P,E1,14,ADC2_3*%
%TO.N,Net-(E1-Pad14)*%
X161290000Y-102870000D03*
%TO.P,E1,15,ADC2_4*%
%TO.N,Net-(E1-Pad15)*%
X179070000Y-102870000D03*
%TO.P,E1,16,ADC2_5*%
%TO.N,Net-(E1-Pad16)*%
X181610000Y-97790000D03*
%TO.P,E1,17,ADC2_6*%
%TO.N,Net-(E1-Pad17)*%
X179070000Y-97790000D03*
%TO.P,E1,18,ADC2_7*%
%TO.N,Net-(E1-Pad18)*%
X181610000Y-95250000D03*
%TO.P,E1,21,21*%
%TO.N,unconnected-(E1-Pad21)*%
X179070000Y-95250000D03*
%TO.P,E1,33,FSPI_HD_io4*%
%TO.N,Net-(E1-Pad33)*%
X181610000Y-92710000D03*
%TO.P,E1,34,FSPI_SCO_dqs*%
%TO.N,Net-(E1-Pad34)*%
X179070000Y-92710000D03*
%TO.P,E1,35,FSPI_D_io6*%
%TO.N,Net-(E1-Pad35)*%
X181610000Y-90170000D03*
%TO.P,E1,36,FSPI_CLK_io7*%
%TO.N,Net-(E1-Pad36)*%
X179070000Y-90170000D03*
%TO.P,E1,37,FSPI_Q*%
%TO.N,unconnected-(E1-Pad37)*%
X181610000Y-87630000D03*
%TO.P,E1,38,FSPI_WP*%
%TO.N,unconnected-(E1-Pad38)*%
X179070000Y-87630000D03*
%TO.P,E1,39,CLK3*%
%TO.N,unconnected-(E1-Pad39)*%
X181610000Y-85090000D03*
%TO.P,E1,40,CLK2*%
%TO.N,unconnected-(E1-Pad40)*%
X179070000Y-85090000D03*
%TO.P,E1,129,GND*%
%TO.N,Net-(J1-Pad10)*%
X179070000Y-100330000D03*
%TO.P,E1,130,GND*%
X181610000Y-100330000D03*
%TO.P,E1,133,3.3V*%
%TO.N,Net-(E1-Pad133)*%
X158750000Y-102870000D03*
%TO.P,E1,150,VBUS*%
%TO.N,Net-(E1-Pad150)*%
X181610000Y-102870000D03*
%TD*%
D15*
%TO.P,SW3,1,1*%
%TO.N,Net-(E1-Pad35)*%
X170030000Y-91385000D03*
X176530000Y-91385000D03*
%TO.P,SW3,2,2*%
%TO.N,Net-(J1-Pad10)*%
X176530000Y-95885000D03*
X170030000Y-95885000D03*
%TD*%
D10*
%TO.P,Five1,1,Pin_1*%
%TO.N,Net-(E1-Pad150)*%
X156210000Y-102870000D03*
D11*
%TO.P,Five1,2,Pin_2*%
%TO.N,Net-(Ch1-Pad6)*%
X156210000Y-105410000D03*
%TD*%
D16*
%TO.P,H3,1,1*%
%TO.N,Net-(J1-Pad10)*%
X154940000Y-109220000D03*
%TD*%
D10*
%TO.P,S1,1,GND*%
%TO.N,Net-(J1-Pad10)*%
X158750000Y-77470000D03*
D11*
%TO.P,S1,2,VCC*%
%TO.N,Net-(E1-Pad150)*%
X161290000Y-77470000D03*
%TO.P,S1,3,SCL*%
%TO.N,Net-(E1-Pad33)*%
X163830000Y-77470000D03*
%TO.P,S1,4,SDA*%
%TO.N,Net-(E1-Pad34)*%
X166370000Y-77470000D03*
%TD*%
D12*
%TO.P,NC6,1,A*%
%TO.N,Net-(E1-Pad1)*%
X164285000Y-98425000D03*
D13*
%TO.P,NC6,2,B*%
%TO.N,Net-(A6-Pad2)*%
X165735000Y-98425000D03*
%TD*%
D16*
%TO.P,H4,1,1*%
%TO.N,Net-(J1-Pad10)*%
X185420000Y-109220000D03*
%TD*%
D12*
%TO.P,NC5,1,A*%
%TO.N,Net-(E1-Pad2)*%
X164285000Y-95250000D03*
D13*
%TO.P,NC5,2,B*%
%TO.N,Net-(A5-Pad2)*%
X165735000Y-95250000D03*
%TD*%
D16*
%TO.P,H2,1,1*%
%TO.N,Net-(J1-Pad10)*%
X185420000Y-78740000D03*
%TD*%
D12*
%TO.P,NC2,1,A*%
%TO.N,Net-(E1-Pad5)*%
X164285000Y-85725000D03*
D13*
%TO.P,NC2,2,B*%
%TO.N,Net-(A2-Pad2)*%
X165735000Y-85725000D03*
%TD*%
D16*
%TO.P,H1,1,1*%
%TO.N,Net-(J1-Pad10)*%
X154940000Y-78740000D03*
%TD*%
D10*
%TO.P,J2,1,ACD0*%
%TO.N,Net-(A1-Pad2)*%
X186690000Y-82550000D03*
D11*
%TO.P,J2,2,ADC1*%
%TO.N,Net-(A2-Pad2)*%
X186690000Y-85090000D03*
%TO.P,J2,3,Pin_3*%
%TO.N,Net-(A3-Pad2)*%
X186690000Y-87630000D03*
%TO.P,J2,4,Pin_4*%
%TO.N,Net-(A4-Pad2)*%
X186690000Y-90170000D03*
%TO.P,J2,5,Pin_5*%
%TO.N,Net-(A5-Pad2)*%
X186690000Y-92710000D03*
%TO.P,J2,6,Pin_6*%
%TO.N,Net-(A6-Pad2)*%
X186690000Y-95250000D03*
%TO.P,J2,7,Pin_7*%
%TO.N,Net-(E1-Pad16)*%
X186690000Y-97790000D03*
%TO.P,J2,8,Pin_8*%
%TO.N,Net-(E1-Pad15)*%
X186690000Y-100330000D03*
%TO.P,J2,9,Pin_9*%
%TO.N,Net-(E1-Pad133)*%
X186690000Y-102870000D03*
%TO.P,J2,10,Pin_10*%
%TO.N,Net-(J1-Pad10)*%
X186690000Y-105410000D03*
%TD*%
D10*
%TO.P,SW1,1,A*%
%TO.N,Net-(E1-Pad150)*%
X180340000Y-110490000D03*
D11*
%TO.P,SW1,2,B*%
%TO.N,Net-(Ch1-Pad6)*%
X177800000Y-110490000D03*
%TO.P,SW1,3*%
%TO.N,N/C*%
X175260000Y-110490000D03*
%TD*%
D15*
%TO.P,SW2,1,1*%
%TO.N,Net-(E1-Pad36)*%
X170030000Y-77415000D03*
X176530000Y-77415000D03*
%TO.P,SW2,2,2*%
%TO.N,Net-(J1-Pad10)*%
X170030000Y-81915000D03*
X176530000Y-81915000D03*
%TD*%
D12*
%TO.P,NC4,1,A*%
%TO.N,Net-(E1-Pad3)*%
X164465000Y-92075000D03*
D13*
%TO.P,NC4,2,B*%
%TO.N,Net-(A4-Pad2)*%
X165915000Y-92075000D03*
%TD*%
D17*
%TO.P,U2,1,VCC*%
%TO.N,Net-(E1-Pad133)*%
X175895000Y-100330000D03*
D18*
%TO.P,U2,2,GND*%
%TO.N,Net-(J1-Pad10)*%
X175895000Y-101600000D03*
%TO.P,U2,3,OUT*%
%TO.N,Net-(A4-Pad1)*%
X175895000Y-102870000D03*
%TD*%
D17*
%TO.P,U1,1,VCC*%
%TO.N,Net-(E1-Pad133)*%
X175895000Y-85090000D03*
D18*
%TO.P,U1,2,GND*%
%TO.N,Net-(J1-Pad10)*%
X175895000Y-86360000D03*
%TO.P,U1,3,OUT*%
%TO.N,Net-(A1-Pad1)*%
X175895000Y-87630000D03*
%TD*%
D19*
%TO.N,Net-(E1-Pad133)*%
X168651900Y-99825900D03*
%TO.N,Net-(A1-Pad2)*%
X164285000Y-81183900D03*
%TO.N,Net-(A2-Pad2)*%
X164919300Y-87251500D03*
%TO.N,Net-(A3-Pad2)*%
X164134200Y-90487500D03*
%TO.N,Net-(A4-Pad2)*%
X165866700Y-90704500D03*
%TO.N,Net-(A5-Pad2)*%
X164641300Y-93896000D03*
%TO.N,Net-(A6-Pad2)*%
X164285000Y-97069600D03*
%TO.N,Net-(Ch1-Pad3)*%
X175793500Y-106083900D03*
X166564300Y-106705800D03*
%TO.N,Net-(E1-Pad1)*%
X156117700Y-94459100D03*
%TO.N,Net-(E1-Pad2)*%
X156597100Y-92710000D03*
%TO.N,Net-(E1-Pad3)*%
X156744500Y-90454100D03*
%TO.N,Net-(E1-Pad6)*%
X162983400Y-86582600D03*
%TO.N,Net-(E1-Pad7)*%
X156117700Y-98017800D03*
%TO.N,Net-(E1-Pad33)*%
X179049200Y-81158500D03*
%TO.N,Net-(E1-Pad34)*%
X170805100Y-88145200D03*
%TO.N,Net-(J1-Pad10)*%
X173849600Y-99922200D03*
%TD*%
D20*
%TO.N,Net-(E1-Pad133)*%
X179512500Y-103965400D02*
X180180700Y-103297200D01*
X180180700Y-103297200D02*
X180180700Y-102751000D01*
X174127700Y-99174000D02*
X169303800Y-99174000D01*
X168651900Y-99825900D02*
X164512400Y-103965400D01*
X180180700Y-102751000D02*
X181237000Y-101694700D01*
X185147500Y-101694700D02*
X185514700Y-102061900D01*
X159845400Y-103965400D02*
X158750000Y-102870000D01*
X175895000Y-100330000D02*
X174819700Y-100330000D01*
X169303800Y-99174000D02*
X168651900Y-99825900D01*
X172791400Y-103965400D02*
X179512500Y-103965400D01*
X168651900Y-99825900D02*
X172791400Y-103965400D01*
X153670000Y-102870000D02*
X154845300Y-102870000D01*
X164512400Y-103965400D02*
X159845400Y-103965400D01*
X185514700Y-102061900D02*
X185514700Y-102870000D01*
X155212500Y-101694700D02*
X154845300Y-102061900D01*
X174819700Y-100330000D02*
X174819700Y-99866000D01*
X174819700Y-99866000D02*
X174127700Y-99174000D01*
X186690000Y-102870000D02*
X185514700Y-102870000D01*
X154845300Y-102061900D02*
X154845300Y-102870000D01*
X157574700Y-101694700D02*
X155212500Y-101694700D01*
X158750000Y-102870000D02*
X157574700Y-101694700D01*
X181237000Y-101694700D02*
X185147500Y-101694700D01*
%TO.N,Net-(A1-Pad2)*%
X164575800Y-81474700D02*
X164285000Y-81183900D01*
X165735000Y-82520800D02*
X166491700Y-83277500D01*
X186690000Y-82550000D02*
X185514700Y-82550000D01*
X166491700Y-83277500D02*
X184787200Y-83277500D01*
X184787200Y-83277500D02*
X185514700Y-82550000D01*
X165735000Y-82550000D02*
X165735000Y-82520800D01*
X165735000Y-81474700D02*
X164575800Y-81474700D01*
X165735000Y-82520800D02*
X165735000Y-81474700D01*
%TO.N,Net-(A2-Pad2)*%
X186690000Y-85090000D02*
X185514700Y-85090000D01*
X184213400Y-83788700D02*
X185514700Y-85090000D01*
X164919300Y-87251500D02*
X165370500Y-86800300D01*
X165735000Y-85725000D02*
X165735000Y-86800300D01*
X166560300Y-85725000D02*
X168496600Y-83788700D01*
X168496600Y-83788700D02*
X184213400Y-83788700D01*
X165370500Y-86800300D02*
X165735000Y-86800300D01*
X165735000Y-85725000D02*
X166560300Y-85725000D01*
%TO.N,Net-(A3-Pad2)*%
X164646400Y-89975300D02*
X165735000Y-89975300D01*
X171198100Y-84239600D02*
X176781000Y-84239600D01*
X176781000Y-84239600D02*
X177892900Y-85351500D01*
X178869900Y-86454700D02*
X184339400Y-86454700D01*
X177892900Y-85351500D02*
X177892900Y-85477700D01*
X165735000Y-88900000D02*
X165735000Y-89975300D01*
X184339400Y-86454700D02*
X185514700Y-87630000D01*
X177892900Y-85477700D02*
X178869900Y-86454700D01*
X164134200Y-90487500D02*
X164646400Y-89975300D01*
X186690000Y-87630000D02*
X185514700Y-87630000D01*
X165735000Y-88900000D02*
X166537700Y-88900000D01*
X166537700Y-88900000D02*
X171198100Y-84239600D01*
%TO.N,Net-(A4-Pad2)*%
X172680400Y-88994700D02*
X171100400Y-87414700D01*
X184339400Y-88994700D02*
X172680400Y-88994700D01*
X169253100Y-87414700D02*
X165915000Y-90752800D01*
X186690000Y-90170000D02*
X185514700Y-90170000D01*
X185514700Y-90170000D02*
X184339400Y-88994700D01*
X171100400Y-87414700D02*
X169253100Y-87414700D01*
X165915000Y-92075000D02*
X165915000Y-91537300D01*
X165915000Y-90752800D02*
X165866700Y-90704500D01*
X165915000Y-91537300D02*
X165915000Y-90752800D01*
%TO.N,Net-(A5-Pad2)*%
X185514700Y-92710000D02*
X184425500Y-93799200D01*
X186690000Y-92710000D02*
X185514700Y-92710000D01*
X166110500Y-93799200D02*
X165735000Y-94174700D01*
X158750000Y-95250000D02*
X160104000Y-93896000D01*
X160104000Y-93896000D02*
X164641300Y-93896000D01*
X184425500Y-93799200D02*
X166110500Y-93799200D01*
X164920000Y-94174700D02*
X165735000Y-94174700D01*
X165735000Y-95250000D02*
X165735000Y-94174700D01*
X164641300Y-93896000D02*
X164920000Y-94174700D01*
%TO.N,Net-(A6-Pad2)*%
X181364900Y-96425300D02*
X180359300Y-97430900D01*
X180359300Y-97430900D02*
X180359300Y-98041300D01*
X179491100Y-98909500D02*
X178168500Y-98909500D01*
X185514700Y-95250000D02*
X184339400Y-96425300D01*
X184339400Y-96425300D02*
X181364900Y-96425300D01*
X186690000Y-95250000D02*
X185514700Y-95250000D01*
X177684000Y-98425000D02*
X165735000Y-98425000D01*
X178168500Y-98909500D02*
X177684000Y-98425000D01*
X165735000Y-97349700D02*
X164565100Y-97349700D01*
X164565100Y-97349700D02*
X164285000Y-97069600D01*
X165735000Y-98425000D02*
X165735000Y-97349700D01*
X180359300Y-98041300D02*
X179491100Y-98909500D01*
%TO.N,Net-(Ch1-Pad3)*%
X175171600Y-106705800D02*
X175793500Y-106083900D01*
X166564300Y-106705800D02*
X175171600Y-106705800D01*
%TO.N,Net-(E1-Pad1)*%
X156117700Y-94459100D02*
X155636200Y-94459100D01*
X158296300Y-98921400D02*
X154845300Y-95470400D01*
X164285000Y-98425000D02*
X163788600Y-98921400D01*
X153670000Y-95250000D02*
X154845300Y-95250000D01*
X163788600Y-98921400D02*
X158296300Y-98921400D01*
X155636200Y-94459100D02*
X154845300Y-95250000D01*
X154845300Y-95470400D02*
X154845300Y-95250000D01*
%TO.N,Net-(E1-Pad2)*%
X153670000Y-92710000D02*
X154845300Y-92710000D01*
X158299900Y-96371600D02*
X156843000Y-94914700D01*
X156843000Y-94914700D02*
X156843000Y-92955900D01*
X156843000Y-92955900D02*
X156597100Y-92710000D01*
X154845300Y-92710000D02*
X156597100Y-92710000D01*
X163163400Y-96371600D02*
X158299900Y-96371600D01*
X164285000Y-95250000D02*
X163163400Y-96371600D01*
%TO.N,Net-(E1-Pad3)*%
X155088400Y-90170000D02*
X153670000Y-90170000D01*
X160876500Y-91578700D02*
X160020000Y-92435200D01*
X156744500Y-90454100D02*
X156058500Y-91140100D01*
X157434100Y-92515700D02*
X156058500Y-91140100D01*
X156058500Y-91140100D02*
X155088400Y-90170000D01*
X160020000Y-93010000D02*
X159200800Y-93829200D01*
X163968700Y-91578700D02*
X160876500Y-91578700D01*
X159200800Y-93829200D02*
X158301400Y-93829200D01*
X158301400Y-93829200D02*
X157434100Y-92961900D01*
X164465000Y-92075000D02*
X163968700Y-91578700D01*
X157434100Y-92961900D02*
X157434100Y-92515700D01*
X160020000Y-92435200D02*
X160020000Y-93010000D01*
%TO.N,Net-(E1-Pad4)*%
X157469800Y-90153600D02*
X154946200Y-87630000D01*
X157469800Y-90474900D02*
X157469800Y-90153600D01*
X164285000Y-88900000D02*
X163015000Y-90170000D01*
X161290000Y-90170000D02*
X160196100Y-91263900D01*
X163015000Y-90170000D02*
X161290000Y-90170000D01*
X158258800Y-91263900D02*
X157469800Y-90474900D01*
X154946200Y-87630000D02*
X154845300Y-87630000D01*
X160196100Y-91263900D02*
X158258800Y-91263900D01*
X153670000Y-87630000D02*
X154845300Y-87630000D01*
%TO.N,Net-(E1-Pad5)*%
X164285000Y-86306800D02*
X164285000Y-85725000D01*
X154845300Y-85263100D02*
X154845300Y-85090000D01*
X159251100Y-89668900D02*
X160020000Y-88900000D01*
X153670000Y-85090000D02*
X154845300Y-85090000D01*
X159251100Y-89668900D02*
X154845300Y-85263100D01*
X160020000Y-88900000D02*
X161691800Y-88900000D01*
X161691800Y-88900000D02*
X164285000Y-86306800D01*
X159251100Y-89668900D02*
X158750000Y-90170000D01*
%TO.N,Net-(E1-Pad6)*%
X153670000Y-82550000D02*
X154845300Y-82550000D01*
X162906700Y-83928300D02*
X156223600Y-83928300D01*
X162983400Y-86582600D02*
X162906700Y-86505900D01*
X156223600Y-83928300D02*
X154845300Y-82550000D01*
X164285000Y-82550000D02*
X162906700Y-83928300D01*
X162906700Y-86505900D02*
X162906700Y-83928300D01*
%TO.N,Net-(E1-Pad7)*%
X153670000Y-97790000D02*
X154845300Y-97790000D01*
X156117700Y-98017800D02*
X155073100Y-98017800D01*
X155073100Y-98017800D02*
X154845300Y-97790000D01*
%TO.N,Net-(E1-Pad14)*%
X154845300Y-100330000D02*
X156886900Y-100330000D01*
X153670000Y-100330000D02*
X154845300Y-100330000D01*
X156886900Y-100330000D02*
X158316200Y-101759300D01*
X158316200Y-101759300D02*
X160179300Y-101759300D01*
X160179300Y-101759300D02*
X161290000Y-102870000D01*
%TO.N,Net-(E1-Pad15)*%
X181095100Y-99242600D02*
X180340000Y-99997700D01*
X186690000Y-100330000D02*
X185514700Y-100330000D01*
X180340000Y-101600000D02*
X179070000Y-102870000D01*
X180340000Y-99997700D02*
X180340000Y-101600000D01*
X184427300Y-99242600D02*
X181095100Y-99242600D01*
X185514700Y-100330000D02*
X184427300Y-99242600D01*
%TO.N,Net-(E1-Pad16)*%
X186690000Y-97790000D02*
X181610000Y-97790000D01*
%TO.N,Net-(E1-Pad33)*%
X165005300Y-77837300D02*
X167155100Y-79987100D01*
X165005300Y-77470000D02*
X165005300Y-77837300D01*
X177877800Y-79987100D02*
X179049200Y-81158500D01*
X167155100Y-79987100D02*
X177877800Y-79987100D01*
X163830000Y-77470000D02*
X165005300Y-77470000D01*
%TO.N,Net-(E1-Pad34)*%
X170805100Y-88145200D02*
X175430300Y-92770400D01*
X175430300Y-92770400D02*
X179009600Y-92770400D01*
X179009600Y-92770400D02*
X179070000Y-92710000D01*
%TO.N,Net-(J1-Pad10)*%
X176530000Y-81915000D02*
X170030000Y-81915000D01*
X156210000Y-77470000D02*
X154940000Y-78740000D01*
X158750000Y-77470000D02*
X159925300Y-77470000D01*
X174819700Y-101600000D02*
X173849600Y-100629900D01*
X173849600Y-100629900D02*
X173849600Y-99922200D01*
X175814600Y-101600000D02*
X175895000Y-101600000D01*
X182245000Y-81915000D02*
X176530000Y-81915000D01*
X162546500Y-80458500D02*
X159925300Y-77837300D01*
X168910000Y-110490000D02*
X167734700Y-110490000D01*
X154940000Y-107855300D02*
X153670000Y-106585300D01*
X170030000Y-81915000D02*
X168573500Y-80458500D01*
X177800000Y-101600000D02*
X179070000Y-100330000D01*
X175814600Y-101600000D02*
X174819700Y-101600000D01*
X167734700Y-110490000D02*
X167734700Y-110122700D01*
X175895000Y-101600000D02*
X177800000Y-101600000D01*
X158750000Y-77470000D02*
X156210000Y-77470000D01*
X168573500Y-80458500D02*
X162546500Y-80458500D01*
X185420000Y-78740000D02*
X182245000Y-81915000D01*
X166832000Y-109220000D02*
X154940000Y-109220000D01*
X159925300Y-77837300D02*
X159925300Y-77470000D01*
X167734700Y-110122700D02*
X166832000Y-109220000D01*
X154940000Y-109220000D02*
X154940000Y-107855300D01*
X153670000Y-105410000D02*
X153670000Y-106585300D01*
%TO.N,Net-(Ch1-Pad6)*%
X168378500Y-108226500D02*
X160201800Y-108226500D01*
X171450000Y-110490000D02*
X170274700Y-110490000D01*
X184150000Y-105410000D02*
X182974700Y-105410000D01*
X178975300Y-110490000D02*
X178975300Y-109409400D01*
X178975300Y-109409400D02*
X182974700Y-105410000D01*
X177800000Y-110490000D02*
X178975300Y-110490000D01*
X170274700Y-110122700D02*
X168378500Y-108226500D01*
X170274700Y-110490000D02*
X170274700Y-110122700D01*
X156210000Y-105410000D02*
X157385300Y-105410000D01*
X160201800Y-108226500D02*
X157385300Y-105410000D01*
%TO.N,Net-(E1-Pad150)*%
X181610000Y-102870000D02*
X180064200Y-104415800D01*
X181610000Y-102870000D02*
X182974700Y-102870000D01*
X158710700Y-104415800D02*
X157385300Y-103090400D01*
X157385300Y-103090400D02*
X157385300Y-102870000D01*
X156210000Y-102870000D02*
X157385300Y-102870000D01*
X180064200Y-104415800D02*
X158710700Y-104415800D01*
X184150000Y-102870000D02*
X182974700Y-102870000D01*
%TO.N,Net-(E1-Pad35)*%
X180395000Y-91385000D02*
X181610000Y-90170000D01*
X176530000Y-91385000D02*
X180395000Y-91385000D01*
%TO.N,Net-(E1-Pad36)*%
X176530000Y-77415000D02*
X170030000Y-77415000D01*
%TD*%
M02*
