%TF.GenerationSoftware,KiCad,Pcbnew,(6.0.7)*%
%TF.CreationDate,2022-09-26T10:55:09-05:00*%
%TF.ProjectId,OpenMuscle5,4f70656e-4d75-4736-936c-65352e6b6963,rev?*%
%TF.SameCoordinates,Original*%
%TF.FileFunction,Soldermask,Top*%
%TF.FilePolarity,Negative*%
%FSLAX46Y46*%
G04 Gerber Fmt 4.6, Leading zero omitted, Abs format (unit mm)*
G04 Created by KiCad (PCBNEW (6.0.7)) date 2022-09-26 10:55:09*
%MOMM*%
%LPD*%
G01*
G04 APERTURE LIST*
G04 Aperture macros list*
%AMFreePoly0*
4,1,6,1.000000,0.000000,0.500000,-0.750000,-0.500000,-0.750000,-0.500000,0.750000,0.500000,0.750000,1.000000,0.000000,1.000000,0.000000,$1*%
%AMFreePoly1*
4,1,6,0.500000,-0.750000,-0.650000,-0.750000,-0.150000,0.000000,-0.650000,0.750000,0.500000,0.750000,0.500000,-0.750000,0.500000,-0.750000,$1*%
G04 Aperture macros list end*
%ADD10R,1.700000X1.700000*%
%ADD11O,1.700000X1.700000*%
%ADD12FreePoly0,0.000000*%
%ADD13FreePoly1,0.000000*%
%ADD14C,1.524000*%
%ADD15C,2.000000*%
%ADD16C,4.400000*%
%ADD17R,1.500000X1.050000*%
%ADD18O,1.500000X1.050000*%
G04 APERTURE END LIST*
D10*
%TO.C,BT1*%
X181610000Y-78105000D03*
D11*
X181610000Y-80645000D03*
%TD*%
D12*
%TO.C,NC1*%
X164285000Y-82550000D03*
D13*
X165735000Y-82550000D03*
%TD*%
D10*
%TO.C,Ch1*%
X158750000Y-110490000D03*
D11*
X161290000Y-110490000D03*
X163830000Y-110490000D03*
X166370000Y-110490000D03*
X168910000Y-110490000D03*
X171450000Y-110490000D03*
%TD*%
D10*
%TO.C,Five2*%
X184150000Y-102870000D03*
D11*
X184150000Y-105410000D03*
%TD*%
D10*
%TO.C,J1*%
X153670000Y-82550000D03*
D11*
X153670000Y-85090000D03*
X153670000Y-87630000D03*
X153670000Y-90170000D03*
X153670000Y-92710000D03*
X153670000Y-95250000D03*
X153670000Y-97790000D03*
X153670000Y-100330000D03*
X153670000Y-102870000D03*
X153670000Y-105410000D03*
%TD*%
D12*
%TO.C,NC3*%
X164285000Y-88900000D03*
D13*
X165735000Y-88900000D03*
%TD*%
D14*
%TO.C,E1*%
X158750000Y-85090000D03*
X161290000Y-85090000D03*
X161290000Y-87630000D03*
X158750000Y-87630000D03*
X161290000Y-90170000D03*
X158750000Y-90170000D03*
X161290000Y-92710000D03*
X158750000Y-92710000D03*
X161290000Y-95250000D03*
X158750000Y-95250000D03*
X161290000Y-97790000D03*
X158750000Y-97790000D03*
X158750000Y-100330000D03*
X161290000Y-100330000D03*
X161290000Y-102870000D03*
X179070000Y-102870000D03*
X181610000Y-97790000D03*
X179070000Y-97790000D03*
X181610000Y-95250000D03*
X179070000Y-95250000D03*
X181610000Y-92710000D03*
X179070000Y-92710000D03*
X181610000Y-90170000D03*
X179070000Y-90170000D03*
X181610000Y-87630000D03*
X179070000Y-87630000D03*
X181610000Y-85090000D03*
X179070000Y-85090000D03*
X179070000Y-100330000D03*
X181610000Y-100330000D03*
X158750000Y-102870000D03*
X181610000Y-102870000D03*
%TD*%
D15*
%TO.C,SW3*%
X170030000Y-91385000D03*
X176530000Y-91385000D03*
X176530000Y-95885000D03*
X170030000Y-95885000D03*
%TD*%
D10*
%TO.C,Five1*%
X156210000Y-102870000D03*
D11*
X156210000Y-105410000D03*
%TD*%
D16*
%TO.C,H3*%
X154940000Y-109220000D03*
%TD*%
D10*
%TO.C,S1*%
X158750000Y-77470000D03*
D11*
X161290000Y-77470000D03*
X163830000Y-77470000D03*
X166370000Y-77470000D03*
%TD*%
D12*
%TO.C,NC6*%
X164285000Y-98425000D03*
D13*
X165735000Y-98425000D03*
%TD*%
D16*
%TO.C,H4*%
X185420000Y-109220000D03*
%TD*%
D12*
%TO.C,NC5*%
X164285000Y-95250000D03*
D13*
X165735000Y-95250000D03*
%TD*%
D16*
%TO.C,H2*%
X185420000Y-78740000D03*
%TD*%
D12*
%TO.C,NC2*%
X164285000Y-85725000D03*
D13*
X165735000Y-85725000D03*
%TD*%
D16*
%TO.C,H1*%
X154940000Y-78740000D03*
%TD*%
D10*
%TO.C,J2*%
X186690000Y-82550000D03*
D11*
X186690000Y-85090000D03*
X186690000Y-87630000D03*
X186690000Y-90170000D03*
X186690000Y-92710000D03*
X186690000Y-95250000D03*
X186690000Y-97790000D03*
X186690000Y-100330000D03*
X186690000Y-102870000D03*
X186690000Y-105410000D03*
%TD*%
D10*
%TO.C,SW1*%
X180340000Y-110490000D03*
D11*
X177800000Y-110490000D03*
X175260000Y-110490000D03*
%TD*%
D15*
%TO.C,SW2*%
X170030000Y-77415000D03*
X176530000Y-77415000D03*
X170030000Y-81915000D03*
X176530000Y-81915000D03*
%TD*%
D12*
%TO.C,NC4*%
X164465000Y-92075000D03*
D13*
X165915000Y-92075000D03*
%TD*%
D17*
%TO.C,U2*%
X175895000Y-100330000D03*
D18*
X175895000Y-101600000D03*
X175895000Y-102870000D03*
%TD*%
D17*
%TO.C,U1*%
X175895000Y-85090000D03*
D18*
X175895000Y-86360000D03*
X175895000Y-87630000D03*
%TD*%
M02*
