%TF.GenerationSoftware,KiCad,Pcbnew,(6.0.7)*%
%TF.CreationDate,2023-02-03T07:15:45-06:00*%
%TF.ProjectId,LASK4,4c41534b-342e-46b6-9963-61645f706362,rev?*%
%TF.SameCoordinates,Original*%
%TF.FileFunction,Copper,L1,Top*%
%TF.FilePolarity,Positive*%
%FSLAX46Y46*%
G04 Gerber Fmt 4.6, Leading zero omitted, Abs format (unit mm)*
G04 Created by KiCad (PCBNEW (6.0.7)) date 2023-02-03 07:15:45*
%MOMM*%
%LPD*%
G01*
G04 APERTURE LIST*
%TA.AperFunction,ComponentPad*%
%ADD10C,3.800000*%
%TD*%
%TA.AperFunction,ComponentPad*%
%ADD11R,1.350000X1.350000*%
%TD*%
%TA.AperFunction,ComponentPad*%
%ADD12O,1.350000X1.350000*%
%TD*%
%TA.AperFunction,ComponentPad*%
%ADD13C,2.000000*%
%TD*%
%TA.AperFunction,ComponentPad*%
%ADD14R,1.700000X1.700000*%
%TD*%
%TA.AperFunction,ComponentPad*%
%ADD15O,1.700000X1.700000*%
%TD*%
%TA.AperFunction,SMDPad,CuDef*%
%ADD16R,0.700000X1.000000*%
%TD*%
%TA.AperFunction,ComponentPad*%
%ADD17C,1.524000*%
%TD*%
%TA.AperFunction,ViaPad*%
%ADD18C,0.800000*%
%TD*%
%TA.AperFunction,Conductor*%
%ADD19C,0.250000*%
%TD*%
G04 APERTURE END LIST*
D10*
%TO.P,H5,1,1*%
%TO.N,GND*%
X168910000Y-76200000D03*
%TD*%
D11*
%TO.P,H4,1,VCC*%
%TO.N,+3.3V*%
X196755000Y-79375000D03*
D12*
%TO.P,H4,2,GND*%
%TO.N,GND*%
X198755000Y-79375000D03*
%TO.P,H4,3,Vout*%
%TO.N,/GPIO_5_ADC1_4*%
X200755000Y-79375000D03*
%TD*%
D13*
%TO.P,Select1,1,1*%
%TO.N,GND*%
X192890000Y-95940000D03*
X199390000Y-95940000D03*
%TO.P,Select1,2,2*%
%TO.N,/Select*%
X199390000Y-100440000D03*
X192890000Y-100440000D03*
%TD*%
D14*
%TO.P,S1,1,GND*%
%TO.N,GND*%
X163830000Y-91440000D03*
D15*
%TO.P,S1,2,VCC*%
%TO.N,+5V*%
X163830000Y-88900000D03*
%TO.P,S1,3,SCL*%
%TO.N,/SCL33*%
X163830000Y-86360000D03*
%TO.P,S1,4,SDA*%
%TO.N,/SDA34*%
X163830000Y-83820000D03*
%TD*%
D11*
%TO.P,H2,1,VCC*%
%TO.N,+3.3V*%
X156115000Y-79375000D03*
D12*
%TO.P,H2,2,GND*%
%TO.N,GND*%
X158115000Y-79375000D03*
%TO.P,H2,3,Vout*%
%TO.N,/GPIO_3_ADC1_2*%
X160115000Y-79375000D03*
%TD*%
D11*
%TO.P,H3,1,VCC*%
%TO.N,+3.3V*%
X176435000Y-79375000D03*
D12*
%TO.P,H3,2,GND*%
%TO.N,GND*%
X178435000Y-79375000D03*
%TO.P,H3,3,Vout*%
%TO.N,/GPIO_4_ADC1_3*%
X180435000Y-79375000D03*
%TD*%
D13*
%TO.P,Up1,1,1*%
%TO.N,GND*%
X187960000Y-95940000D03*
X181460000Y-95940000D03*
%TO.P,Up1,2,2*%
%TO.N,/Up*%
X187960000Y-100440000D03*
X181460000Y-100440000D03*
%TD*%
D16*
%TO.P,U1,1,VCC*%
%TO.N,unconnected-(U1-Pad1)*%
X136718000Y-77076000D03*
%TO.P,U1,2,VOUT*%
%TO.N,/GPIO_2_ADC1_1*%
X138618000Y-77076000D03*
%TO.P,U1,3,GND*%
%TO.N,GND*%
X137668000Y-74676000D03*
%TD*%
D13*
%TO.P,Down1,1,1*%
%TO.N,GND*%
X187960000Y-104775000D03*
X181460000Y-104775000D03*
%TO.P,Down1,2,2*%
%TO.N,/Down*%
X181460000Y-109275000D03*
X187960000Y-109275000D03*
%TD*%
D16*
%TO.P,U2,1,VCC*%
%TO.N,unconnected-(U2-Pad1)*%
X157165000Y-77076000D03*
%TO.P,U2,2,VOUT*%
%TO.N,/GPIO_3_ADC1_2*%
X159065000Y-77076000D03*
%TO.P,U2,3,GND*%
%TO.N,GND*%
X158115000Y-74676000D03*
%TD*%
D10*
%TO.P,H7,1,1*%
%TO.N,GND*%
X147320000Y-76200000D03*
%TD*%
%TO.P,H6,1,1*%
%TO.N,GND*%
X189230000Y-76200000D03*
%TD*%
D16*
%TO.P,U4,1,VCC*%
%TO.N,unconnected-(U4-Pad1)*%
X197805000Y-77076000D03*
%TO.P,U4,2,VOUT*%
%TO.N,/GPIO_5_ADC1_4*%
X199705000Y-77076000D03*
%TO.P,U4,3,GND*%
%TO.N,GND*%
X198755000Y-74676000D03*
%TD*%
%TO.P,U3,1,VCC*%
%TO.N,unconnected-(U3-Pad1)*%
X177485000Y-77076000D03*
%TO.P,U3,2,VOUT*%
%TO.N,/GPIO_4_ADC1_3*%
X179385000Y-77076000D03*
%TO.P,U3,3,GND*%
%TO.N,GND*%
X178435000Y-74676000D03*
%TD*%
D13*
%TO.P,Start1,1,1*%
%TO.N,GND*%
X199390000Y-104775000D03*
X192890000Y-104775000D03*
%TO.P,Start1,2,2*%
%TO.N,/Start*%
X199390000Y-109275000D03*
X192890000Y-109275000D03*
%TD*%
D11*
%TO.P,H1,1,VCC*%
%TO.N,+3.3V*%
X135700000Y-79375000D03*
D12*
%TO.P,H1,2,GND*%
%TO.N,GND*%
X137700000Y-79375000D03*
%TO.P,H1,3,Vout*%
%TO.N,/GPIO_2_ADC1_1*%
X139700000Y-79375000D03*
%TD*%
D14*
%TO.P,U5,1,VIN*%
%TO.N,+5V*%
X164465000Y-96520000D03*
D15*
%TO.P,U5,2,IN-GND*%
%TO.N,GND*%
X167005000Y-96520000D03*
%TO.P,U5,3,BAT-GND*%
%TO.N,/BatGND*%
X169545000Y-96520000D03*
%TO.P,U5,4,BAT+*%
%TO.N,/BatV3-7*%
X172085000Y-96520000D03*
%TO.P,U5,5,OUT-GND*%
%TO.N,/BatGND*%
X174625000Y-96520000D03*
%TO.P,U5,6,OUT-5V*%
%TO.N,+5V*%
X177165000Y-96520000D03*
%TD*%
D17*
%TO.P,U6,0,EN*%
%TO.N,unconnected-(U6-Pad0)*%
X135890000Y-92710000D03*
%TO.P,U6,1,ADC1_0*%
%TO.N,unconnected-(U6-Pad1)*%
X138430000Y-92710000D03*
%TO.P,U6,2,ADC1_1*%
%TO.N,/GPIO_2_ADC1_1*%
X138430000Y-95250000D03*
%TO.P,U6,3,ADC1_2*%
%TO.N,/GPIO_3_ADC1_2*%
X135890000Y-95250000D03*
%TO.P,U6,4,ADC1_3*%
%TO.N,/GPIO_4_ADC1_3*%
X138430000Y-97790000D03*
%TO.P,U6,5,ADC1_4*%
%TO.N,/GPIO_5_ADC1_4*%
X135890000Y-97790000D03*
%TO.P,U6,6,ADC1_5*%
%TO.N,unconnected-(U6-Pad6)*%
X138430000Y-100330000D03*
%TO.P,U6,7,ADC1_6*%
%TO.N,/Start*%
X135890000Y-100330000D03*
%TO.P,U6,8,ADC1_7*%
%TO.N,/Select*%
X138430000Y-102870000D03*
%TO.P,U6,9,ADC1_8*%
%TO.N,/Down*%
X135890000Y-102870000D03*
%TO.P,U6,10,ADC1_9*%
%TO.N,/Up*%
X138430000Y-105410000D03*
%TO.P,U6,11,ADC2_0*%
%TO.N,unconnected-(U6-Pad11)*%
X135890000Y-105410000D03*
%TO.P,U6,12,ADC2_1*%
%TO.N,unconnected-(U6-Pad12)*%
X135890000Y-107950000D03*
%TO.P,U6,13,ADC2_2*%
%TO.N,unconnected-(U6-Pad13)*%
X138430000Y-107950000D03*
%TO.P,U6,14,ADC2_3*%
%TO.N,unconnected-(U6-Pad14)*%
X138430000Y-110490000D03*
%TO.P,U6,15,ADC2_4*%
%TO.N,unconnected-(U6-Pad15)*%
X156210000Y-110490000D03*
%TO.P,U6,16,ADC2_5*%
%TO.N,unconnected-(U6-Pad16)*%
X158750000Y-105410000D03*
%TO.P,U6,17,ADC2_6*%
%TO.N,unconnected-(U6-Pad17)*%
X156210000Y-105410000D03*
%TO.P,U6,18,ADC2_7*%
%TO.N,unconnected-(U6-Pad18)*%
X158750000Y-102870000D03*
%TO.P,U6,21,21*%
%TO.N,unconnected-(U6-Pad21)*%
X156210000Y-102870000D03*
%TO.P,U6,33,FSPI_HD_io4*%
%TO.N,/SCL33*%
X158750000Y-100330000D03*
%TO.P,U6,34,FSPI_SCO_dqs*%
%TO.N,/SDA34*%
X156210000Y-100330000D03*
%TO.P,U6,35,FSPI_D_io6*%
%TO.N,unconnected-(U6-Pad35)*%
X158750000Y-97790000D03*
%TO.P,U6,36,FSPI_CLK_io7*%
%TO.N,unconnected-(U6-Pad36)*%
X156210000Y-97790000D03*
%TO.P,U6,37,FSPI_Q*%
%TO.N,unconnected-(U6-Pad37)*%
X158750000Y-95250000D03*
%TO.P,U6,38,FSPI_WP*%
%TO.N,unconnected-(U6-Pad38)*%
X156210000Y-95250000D03*
%TO.P,U6,39,CLK3*%
%TO.N,unconnected-(U6-Pad39)*%
X158750000Y-92710000D03*
%TO.P,U6,40,CLK2*%
%TO.N,unconnected-(U6-Pad40)*%
X156210000Y-92710000D03*
%TO.P,U6,129,GND*%
%TO.N,GND*%
X156210000Y-107950000D03*
%TO.P,U6,130,GND*%
X158750000Y-107950000D03*
%TO.P,U6,133,3.3V*%
%TO.N,+3.3V*%
X135890000Y-110490000D03*
%TO.P,U6,150,VBUS*%
%TO.N,+5V*%
X158750000Y-110490000D03*
%TD*%
D14*
%TO.P,J1,1,Pin_1*%
%TO.N,/BatGND*%
X197485000Y-87630000D03*
D15*
%TO.P,J1,2,Pin_2*%
%TO.N,/BatV3-7*%
X197485000Y-90170000D03*
%TD*%
D18*
%TO.N,GND*%
X164465000Y-76200000D03*
X191770000Y-92075000D03*
X170180000Y-109220000D03*
X142875000Y-74930000D03*
X184785000Y-92075000D03*
X184785000Y-75565000D03*
X167640000Y-92075000D03*
X152400000Y-74930000D03*
X170180000Y-104140000D03*
X142240000Y-110490000D03*
X152400000Y-96520000D03*
%TD*%
D19*
%TO.N,GND*%
X157865100Y-75751200D02*
X157865100Y-76200000D01*
X158750000Y-107950000D02*
X156210000Y-107950000D01*
X137700000Y-76200000D02*
X147320000Y-76200000D01*
X157865100Y-78124800D02*
X158115000Y-78374700D01*
X137668000Y-74676000D02*
X137668000Y-75501300D01*
X178435000Y-76200000D02*
X189230000Y-76200000D01*
X199390000Y-104775000D02*
X192890000Y-104775000D01*
X137700000Y-79375000D02*
X137700000Y-76200000D01*
X158115000Y-75501300D02*
X157865100Y-75751200D01*
X178435000Y-79375000D02*
X178435000Y-76200000D01*
X187960000Y-95940000D02*
X192890000Y-95940000D01*
X198755000Y-74676000D02*
X190754000Y-74676000D01*
X137700000Y-75533300D02*
X137668000Y-75501300D01*
X190754000Y-74676000D02*
X189230000Y-76200000D01*
X157865100Y-76200000D02*
X147320000Y-76200000D01*
X192890000Y-104775000D02*
X187960000Y-104775000D01*
X167798600Y-75088600D02*
X168910000Y-76200000D01*
X137700000Y-76200000D02*
X137700000Y-75533300D01*
X157865100Y-76200000D02*
X157865100Y-78124800D01*
X158115000Y-75088600D02*
X167798600Y-75088600D01*
X199390000Y-95940000D02*
X192890000Y-95940000D01*
X178435000Y-76200000D02*
X168910000Y-76200000D01*
X178435000Y-76200000D02*
X178435000Y-74676000D01*
X198755000Y-79375000D02*
X198755000Y-74676000D01*
X158115000Y-79375000D02*
X158115000Y-78374700D01*
X158115000Y-74676000D02*
X158115000Y-75088600D01*
X158115000Y-75088600D02*
X158115000Y-75501300D01*
%TO.N,/Down*%
X138152900Y-106680000D02*
X178865000Y-106680000D01*
X135890000Y-102870000D02*
X137342600Y-104322600D01*
X137342600Y-104322600D02*
X137342600Y-105869700D01*
X137342600Y-105869700D02*
X138152900Y-106680000D01*
X187960000Y-109275000D02*
X181460000Y-109275000D01*
X178865000Y-106680000D02*
X181460000Y-109275000D01*
%TO.N,+3.3V*%
X155614900Y-79375000D02*
X155114700Y-79375000D01*
X174434400Y-80375300D02*
X175434700Y-79375000D01*
X177435300Y-80375300D02*
X194754400Y-80375300D01*
X134779000Y-109379000D02*
X134779000Y-81296300D01*
X134779000Y-81296300D02*
X135700000Y-80375300D01*
X196755000Y-79375000D02*
X195754700Y-79375000D01*
X176435000Y-79375000D02*
X175434700Y-79375000D01*
X135890000Y-110490000D02*
X134779000Y-109379000D01*
X154114400Y-80375300D02*
X155114700Y-79375000D01*
X135700000Y-80375300D02*
X154114400Y-80375300D01*
X176435000Y-79375000D02*
X177435300Y-80375300D01*
X135700000Y-79375000D02*
X135700000Y-80375300D01*
X155614900Y-79375000D02*
X156615200Y-80375300D01*
X194754400Y-80375300D02*
X195754700Y-79375000D01*
X156115000Y-79375000D02*
X155614900Y-79375000D01*
X156615200Y-80375300D02*
X174434400Y-80375300D01*
%TO.N,/GPIO_2_ADC1_1*%
X139700000Y-79375000D02*
X139700000Y-77482700D01*
X139700000Y-77482700D02*
X139293300Y-77076000D01*
X138618000Y-77076000D02*
X139293300Y-77076000D01*
%TO.N,/GPIO_3_ADC1_2*%
X160115000Y-78374700D02*
X159641600Y-77901300D01*
X160115000Y-79375000D02*
X160115000Y-78374700D01*
X159065000Y-77076000D02*
X159065000Y-77901300D01*
X159641600Y-77901300D02*
X159065000Y-77901300D01*
%TO.N,/GPIO_4_ADC1_3*%
X180060300Y-77076000D02*
X180060300Y-78000000D01*
X180060300Y-78000000D02*
X180435000Y-78374700D01*
X180435000Y-79375000D02*
X180435000Y-78374700D01*
X179385000Y-77076000D02*
X180060300Y-77076000D01*
%TO.N,/GPIO_5_ADC1_4*%
X199109200Y-81020800D02*
X200755000Y-79375000D01*
X148653300Y-96520000D02*
X164152500Y-81020800D01*
X200380300Y-78000000D02*
X200755000Y-78374700D01*
X164152500Y-81020800D02*
X199109200Y-81020800D01*
X135890000Y-97790000D02*
X137160000Y-96520000D01*
X137160000Y-96520000D02*
X148653300Y-96520000D01*
X200380300Y-77076000D02*
X200380300Y-78000000D01*
X199705000Y-77076000D02*
X200380300Y-77076000D01*
X200755000Y-79375000D02*
X200755000Y-78374700D01*
%TO.N,/BatGND*%
X184323000Y-87630000D02*
X175800300Y-96152700D01*
X197485000Y-87630000D02*
X184323000Y-87630000D01*
X174625000Y-96520000D02*
X175800300Y-96520000D01*
X175800300Y-96152700D02*
X175800300Y-96520000D01*
%TO.N,/BatV3-7*%
X174068200Y-97695300D02*
X173260300Y-96887400D01*
X182330300Y-97695300D02*
X174068200Y-97695300D01*
X197485000Y-90170000D02*
X189855600Y-90170000D01*
X173260300Y-96887400D02*
X173260300Y-96520000D01*
X189855600Y-90170000D02*
X182330300Y-97695300D01*
X172085000Y-96520000D02*
X173260300Y-96520000D01*
%TO.N,+5V*%
X164465000Y-96520000D02*
X164465000Y-95344700D01*
X164638100Y-90075300D02*
X163830000Y-90075300D01*
X165005300Y-90442500D02*
X164638100Y-90075300D01*
X163830000Y-88900000D02*
X163830000Y-90075300D01*
X164465000Y-95344700D02*
X165005300Y-94804400D01*
X165005300Y-94804400D02*
X165005300Y-90442500D01*
%TO.N,/Select*%
X191564600Y-99114600D02*
X192890000Y-100440000D01*
X142185400Y-99114600D02*
X191564600Y-99114600D01*
X138430000Y-102870000D02*
X142185400Y-99114600D01*
X192890000Y-100440000D02*
X199390000Y-100440000D01*
%TO.N,/Start*%
X192890000Y-109275000D02*
X199390000Y-109275000D01*
%TO.N,/Up*%
X138430000Y-105410000D02*
X142240000Y-101600000D01*
X142240000Y-101600000D02*
X180300000Y-101600000D01*
X180300000Y-101600000D02*
X181460000Y-100440000D01*
X181460000Y-100440000D02*
X187960000Y-100440000D01*
%TD*%
%TA.AperFunction,Conductor*%
%TO.N,GND*%
G36*
X201897536Y-80077312D02*
G01*
X201928329Y-80141283D01*
X201930000Y-80161734D01*
X201930000Y-113068724D01*
X201923313Y-113109225D01*
X201904516Y-113164600D01*
X201898209Y-113179827D01*
X201787984Y-113403342D01*
X201779743Y-113417616D01*
X201641287Y-113624829D01*
X201631254Y-113637905D01*
X201466932Y-113825278D01*
X201455278Y-113836932D01*
X201267905Y-114001254D01*
X201254829Y-114011287D01*
X201047616Y-114149743D01*
X201033342Y-114157984D01*
X200809827Y-114268209D01*
X200794600Y-114274516D01*
X200739225Y-114293313D01*
X200698724Y-114300000D01*
X135851276Y-114300000D01*
X135810775Y-114293313D01*
X135755400Y-114274516D01*
X135740173Y-114268209D01*
X135516658Y-114157984D01*
X135502384Y-114149743D01*
X135295171Y-114011287D01*
X135282095Y-114001254D01*
X135094722Y-113836932D01*
X135083068Y-113825278D01*
X134918746Y-113637905D01*
X134908713Y-113624829D01*
X134770257Y-113417616D01*
X134762016Y-113403342D01*
X134651791Y-113179827D01*
X134645484Y-113164600D01*
X134626687Y-113109225D01*
X134620000Y-113068724D01*
X134620000Y-111290922D01*
X134640002Y-111222801D01*
X134693658Y-111176308D01*
X134763932Y-111166204D01*
X134828512Y-111195698D01*
X134849213Y-111218651D01*
X134899818Y-111290922D01*
X134913023Y-111309781D01*
X135070219Y-111466977D01*
X135074727Y-111470134D01*
X135074730Y-111470136D01*
X135150495Y-111523187D01*
X135252323Y-111594488D01*
X135257305Y-111596811D01*
X135257310Y-111596814D01*
X135448822Y-111686117D01*
X135453804Y-111688440D01*
X135459112Y-111689862D01*
X135459114Y-111689863D01*
X135524949Y-111707503D01*
X135668537Y-111745978D01*
X135890000Y-111765353D01*
X136111463Y-111745978D01*
X136255051Y-111707503D01*
X136320886Y-111689863D01*
X136320888Y-111689862D01*
X136326196Y-111688440D01*
X136331178Y-111686117D01*
X136522690Y-111596814D01*
X136522695Y-111596811D01*
X136527677Y-111594488D01*
X136629505Y-111523187D01*
X136705270Y-111470136D01*
X136705273Y-111470134D01*
X136709781Y-111466977D01*
X136866977Y-111309781D01*
X136880183Y-111290922D01*
X136991331Y-111132185D01*
X136991332Y-111132183D01*
X136994488Y-111127676D01*
X136996811Y-111122694D01*
X136996814Y-111122689D01*
X137045805Y-111017627D01*
X137092723Y-110964342D01*
X137161000Y-110944881D01*
X137228960Y-110965423D01*
X137274195Y-111017627D01*
X137323186Y-111122689D01*
X137323189Y-111122694D01*
X137325512Y-111127676D01*
X137328668Y-111132183D01*
X137328669Y-111132185D01*
X137439818Y-111290922D01*
X137453023Y-111309781D01*
X137610219Y-111466977D01*
X137614727Y-111470134D01*
X137614730Y-111470136D01*
X137690495Y-111523187D01*
X137792323Y-111594488D01*
X137797305Y-111596811D01*
X137797310Y-111596814D01*
X137988822Y-111686117D01*
X137993804Y-111688440D01*
X137999112Y-111689862D01*
X137999114Y-111689863D01*
X138064949Y-111707503D01*
X138208537Y-111745978D01*
X138430000Y-111765353D01*
X138651463Y-111745978D01*
X138795051Y-111707503D01*
X138860886Y-111689863D01*
X138860888Y-111689862D01*
X138866196Y-111688440D01*
X138871178Y-111686117D01*
X139062690Y-111596814D01*
X139062695Y-111596811D01*
X139067677Y-111594488D01*
X139169505Y-111523187D01*
X139245270Y-111470136D01*
X139245273Y-111470134D01*
X139249781Y-111466977D01*
X139406977Y-111309781D01*
X139420183Y-111290922D01*
X139531331Y-111132185D01*
X139531332Y-111132183D01*
X139534488Y-111127676D01*
X139536811Y-111122694D01*
X139536814Y-111122689D01*
X139626117Y-110931178D01*
X139626118Y-110931177D01*
X139628440Y-110926196D01*
X139685978Y-110711463D01*
X139705353Y-110490000D01*
X154934647Y-110490000D01*
X154954022Y-110711463D01*
X155011560Y-110926196D01*
X155013882Y-110931177D01*
X155013883Y-110931178D01*
X155103186Y-111122689D01*
X155103189Y-111122694D01*
X155105512Y-111127676D01*
X155108668Y-111132183D01*
X155108669Y-111132185D01*
X155219818Y-111290922D01*
X155233023Y-111309781D01*
X155390219Y-111466977D01*
X155394727Y-111470134D01*
X155394730Y-111470136D01*
X155470495Y-111523187D01*
X155572323Y-111594488D01*
X155577305Y-111596811D01*
X155577310Y-111596814D01*
X155768822Y-111686117D01*
X155773804Y-111688440D01*
X155779112Y-111689862D01*
X155779114Y-111689863D01*
X155844949Y-111707503D01*
X155988537Y-111745978D01*
X156210000Y-111765353D01*
X156431463Y-111745978D01*
X156575051Y-111707503D01*
X156640886Y-111689863D01*
X156640888Y-111689862D01*
X156646196Y-111688440D01*
X156651178Y-111686117D01*
X156842690Y-111596814D01*
X156842695Y-111596811D01*
X156847677Y-111594488D01*
X156949505Y-111523187D01*
X157025270Y-111470136D01*
X157025273Y-111470134D01*
X157029781Y-111466977D01*
X157186977Y-111309781D01*
X157200183Y-111290922D01*
X157311331Y-111132185D01*
X157311332Y-111132183D01*
X157314488Y-111127676D01*
X157316811Y-111122694D01*
X157316814Y-111122689D01*
X157365805Y-111017627D01*
X157412723Y-110964342D01*
X157481000Y-110944881D01*
X157548960Y-110965423D01*
X157594195Y-111017627D01*
X157643186Y-111122689D01*
X157643189Y-111122694D01*
X157645512Y-111127676D01*
X157648668Y-111132183D01*
X157648669Y-111132185D01*
X157759818Y-111290922D01*
X157773023Y-111309781D01*
X157930219Y-111466977D01*
X157934727Y-111470134D01*
X157934730Y-111470136D01*
X158010495Y-111523187D01*
X158112323Y-111594488D01*
X158117305Y-111596811D01*
X158117310Y-111596814D01*
X158308822Y-111686117D01*
X158313804Y-111688440D01*
X158319112Y-111689862D01*
X158319114Y-111689863D01*
X158384949Y-111707503D01*
X158528537Y-111745978D01*
X158750000Y-111765353D01*
X158971463Y-111745978D01*
X159115051Y-111707503D01*
X159180886Y-111689863D01*
X159180888Y-111689862D01*
X159186196Y-111688440D01*
X159191178Y-111686117D01*
X159382690Y-111596814D01*
X159382695Y-111596811D01*
X159387677Y-111594488D01*
X159489505Y-111523187D01*
X159565270Y-111470136D01*
X159565273Y-111470134D01*
X159569781Y-111466977D01*
X159726977Y-111309781D01*
X159740183Y-111290922D01*
X159851331Y-111132185D01*
X159851332Y-111132183D01*
X159854488Y-111127676D01*
X159856811Y-111122694D01*
X159856814Y-111122689D01*
X159946117Y-110931178D01*
X159946118Y-110931177D01*
X159948440Y-110926196D01*
X160005978Y-110711463D01*
X160025353Y-110490000D01*
X160005978Y-110268537D01*
X159948440Y-110053804D01*
X159890011Y-109928502D01*
X159856814Y-109857311D01*
X159856811Y-109857306D01*
X159854488Y-109852324D01*
X159797098Y-109770362D01*
X159730136Y-109674730D01*
X159730134Y-109674727D01*
X159726977Y-109670219D01*
X159569781Y-109513023D01*
X159565273Y-109509866D01*
X159565270Y-109509864D01*
X159392598Y-109388958D01*
X159387677Y-109385512D01*
X159382695Y-109383189D01*
X159382690Y-109383186D01*
X159277035Y-109333919D01*
X159223750Y-109287002D01*
X159204289Y-109218725D01*
X159224831Y-109150765D01*
X159277035Y-109105529D01*
X159382445Y-109056376D01*
X159391931Y-109050898D01*
X159435764Y-109020207D01*
X159444139Y-109009729D01*
X159437071Y-108996281D01*
X158762812Y-108322022D01*
X158748868Y-108314408D01*
X158747035Y-108314539D01*
X158740420Y-108318790D01*
X158062207Y-108997003D01*
X158055777Y-109008777D01*
X158065074Y-109020793D01*
X158108069Y-109050898D01*
X158117555Y-109056376D01*
X158222965Y-109105529D01*
X158276250Y-109152446D01*
X158295711Y-109220723D01*
X158275169Y-109288683D01*
X158222965Y-109333919D01*
X158117311Y-109383186D01*
X158117306Y-109383189D01*
X158112324Y-109385512D01*
X158107817Y-109388668D01*
X158107815Y-109388669D01*
X157934730Y-109509864D01*
X157934727Y-109509866D01*
X157930219Y-109513023D01*
X157773023Y-109670219D01*
X157769866Y-109674727D01*
X157769864Y-109674730D01*
X157702902Y-109770362D01*
X157645512Y-109852324D01*
X157643189Y-109857306D01*
X157643186Y-109857311D01*
X157594195Y-109962373D01*
X157547277Y-110015658D01*
X157479000Y-110035119D01*
X157411040Y-110014577D01*
X157365805Y-109962373D01*
X157316814Y-109857311D01*
X157316811Y-109857306D01*
X157314488Y-109852324D01*
X157257098Y-109770362D01*
X157190136Y-109674730D01*
X157190134Y-109674727D01*
X157186977Y-109670219D01*
X157029781Y-109513023D01*
X157025273Y-109509866D01*
X157025270Y-109509864D01*
X156852598Y-109388958D01*
X156847677Y-109385512D01*
X156842695Y-109383189D01*
X156842690Y-109383186D01*
X156737035Y-109333919D01*
X156683750Y-109287002D01*
X156664289Y-109218725D01*
X156684831Y-109150765D01*
X156737035Y-109105529D01*
X156842445Y-109056376D01*
X156851931Y-109050898D01*
X156895764Y-109020207D01*
X156904139Y-109009729D01*
X156897071Y-108996281D01*
X156222812Y-108322022D01*
X156208868Y-108314408D01*
X156207035Y-108314539D01*
X156200420Y-108318790D01*
X155522207Y-108997003D01*
X155515777Y-109008777D01*
X155525074Y-109020793D01*
X155568069Y-109050898D01*
X155577555Y-109056376D01*
X155682965Y-109105529D01*
X155736250Y-109152446D01*
X155755711Y-109220723D01*
X155735169Y-109288683D01*
X155682965Y-109333919D01*
X155577311Y-109383186D01*
X155577306Y-109383189D01*
X155572324Y-109385512D01*
X155567817Y-109388668D01*
X155567815Y-109388669D01*
X155394730Y-109509864D01*
X155394727Y-109509866D01*
X155390219Y-109513023D01*
X155233023Y-109670219D01*
X155229866Y-109674727D01*
X155229864Y-109674730D01*
X155162902Y-109770362D01*
X155105512Y-109852324D01*
X155103189Y-109857306D01*
X155103186Y-109857311D01*
X155069989Y-109928502D01*
X155011560Y-110053804D01*
X154954022Y-110268537D01*
X154934647Y-110490000D01*
X139705353Y-110490000D01*
X139685978Y-110268537D01*
X139628440Y-110053804D01*
X139570011Y-109928502D01*
X139536814Y-109857311D01*
X139536811Y-109857306D01*
X139534488Y-109852324D01*
X139477098Y-109770362D01*
X139410136Y-109674730D01*
X139410134Y-109674727D01*
X139406977Y-109670219D01*
X139249781Y-109513023D01*
X139245273Y-109509866D01*
X139245270Y-109509864D01*
X139072598Y-109388958D01*
X139067677Y-109385512D01*
X139062695Y-109383189D01*
X139062690Y-109383186D01*
X138957627Y-109334195D01*
X138904342Y-109287278D01*
X138884881Y-109219001D01*
X138905423Y-109151041D01*
X138957627Y-109105805D01*
X139062690Y-109056814D01*
X139062695Y-109056811D01*
X139067677Y-109054488D01*
X139169505Y-108983187D01*
X139245270Y-108930136D01*
X139245273Y-108930134D01*
X139249781Y-108926977D01*
X139406977Y-108769781D01*
X139418067Y-108753944D01*
X139531331Y-108592185D01*
X139531332Y-108592183D01*
X139534488Y-108587676D01*
X139536811Y-108582694D01*
X139536814Y-108582689D01*
X139626117Y-108391178D01*
X139626118Y-108391177D01*
X139628440Y-108386196D01*
X139685978Y-108171463D01*
X139705353Y-107950000D01*
X139685978Y-107728537D01*
X139628440Y-107513804D01*
X139618623Y-107492751D01*
X139607961Y-107422560D01*
X139636940Y-107357747D01*
X139696359Y-107318890D01*
X139732817Y-107313500D01*
X154907734Y-107313500D01*
X154975855Y-107333502D01*
X155022348Y-107387158D01*
X155032452Y-107457432D01*
X155021930Y-107492748D01*
X155014355Y-107508992D01*
X155010609Y-107519285D01*
X154955941Y-107723309D01*
X154954038Y-107734104D01*
X154935628Y-107944525D01*
X154935628Y-107955475D01*
X154954038Y-108165896D01*
X154955941Y-108176691D01*
X155010609Y-108380715D01*
X155014355Y-108391007D01*
X155103623Y-108582441D01*
X155109103Y-108591932D01*
X155139794Y-108635765D01*
X155150271Y-108644140D01*
X155163718Y-108637072D01*
X156120905Y-107679885D01*
X156183217Y-107645859D01*
X156254032Y-107650924D01*
X156299095Y-107679885D01*
X157257003Y-108637793D01*
X157268777Y-108644223D01*
X157280793Y-108634926D01*
X157310897Y-108591932D01*
X157316377Y-108582441D01*
X157365805Y-108476443D01*
X157412722Y-108423158D01*
X157481000Y-108403697D01*
X157548960Y-108424239D01*
X157594195Y-108476443D01*
X157643623Y-108582441D01*
X157649103Y-108591932D01*
X157679794Y-108635765D01*
X157690271Y-108644140D01*
X157703718Y-108637072D01*
X158660905Y-107679885D01*
X158723217Y-107645859D01*
X158794032Y-107650924D01*
X158839095Y-107679885D01*
X159797003Y-108637793D01*
X159808777Y-108644223D01*
X159820793Y-108634926D01*
X159850897Y-108591932D01*
X159856377Y-108582441D01*
X159945645Y-108391007D01*
X159949391Y-108380715D01*
X160004059Y-108176691D01*
X160005962Y-108165896D01*
X160024372Y-107955475D01*
X160024372Y-107944525D01*
X160005962Y-107734104D01*
X160004059Y-107723309D01*
X159949391Y-107519285D01*
X159945645Y-107508992D01*
X159938070Y-107492748D01*
X159927410Y-107422556D01*
X159956391Y-107357744D01*
X160015811Y-107318889D01*
X160052266Y-107313500D01*
X178550406Y-107313500D01*
X178618527Y-107333502D01*
X178639501Y-107350405D01*
X179985636Y-108696540D01*
X180019662Y-108758852D01*
X180019060Y-108815049D01*
X179972322Y-109009729D01*
X179965465Y-109038289D01*
X179946835Y-109275000D01*
X179965465Y-109511711D01*
X179966619Y-109516518D01*
X179966620Y-109516524D01*
X179982923Y-109584431D01*
X180020895Y-109742594D01*
X180022788Y-109747165D01*
X180022789Y-109747167D01*
X180094807Y-109921034D01*
X180111760Y-109961963D01*
X180114346Y-109966183D01*
X180233241Y-110160202D01*
X180233245Y-110160208D01*
X180235824Y-110164416D01*
X180390031Y-110344969D01*
X180570584Y-110499176D01*
X180574792Y-110501755D01*
X180574798Y-110501759D01*
X180768817Y-110620654D01*
X180773037Y-110623240D01*
X180777607Y-110625133D01*
X180777611Y-110625135D01*
X180987833Y-110712211D01*
X180992406Y-110714105D01*
X181072609Y-110733360D01*
X181218476Y-110768380D01*
X181218482Y-110768381D01*
X181223289Y-110769535D01*
X181460000Y-110788165D01*
X181696711Y-110769535D01*
X181701518Y-110768381D01*
X181701524Y-110768380D01*
X181847391Y-110733360D01*
X181927594Y-110714105D01*
X181932167Y-110712211D01*
X182142389Y-110625135D01*
X182142393Y-110625133D01*
X182146963Y-110623240D01*
X182151183Y-110620654D01*
X182345202Y-110501759D01*
X182345208Y-110501755D01*
X182349416Y-110499176D01*
X182529969Y-110344969D01*
X182684176Y-110164416D01*
X182686755Y-110160208D01*
X182686759Y-110160202D01*
X182804133Y-109968665D01*
X182856781Y-109921034D01*
X182911566Y-109908500D01*
X186508434Y-109908500D01*
X186576555Y-109928502D01*
X186615867Y-109968665D01*
X186733241Y-110160202D01*
X186733245Y-110160208D01*
X186735824Y-110164416D01*
X186890031Y-110344969D01*
X187070584Y-110499176D01*
X187074792Y-110501755D01*
X187074798Y-110501759D01*
X187268817Y-110620654D01*
X187273037Y-110623240D01*
X187277607Y-110625133D01*
X187277611Y-110625135D01*
X187487833Y-110712211D01*
X187492406Y-110714105D01*
X187572609Y-110733360D01*
X187718476Y-110768380D01*
X187718482Y-110768381D01*
X187723289Y-110769535D01*
X187960000Y-110788165D01*
X188196711Y-110769535D01*
X188201518Y-110768381D01*
X188201524Y-110768380D01*
X188347391Y-110733360D01*
X188427594Y-110714105D01*
X188432167Y-110712211D01*
X188642389Y-110625135D01*
X188642393Y-110625133D01*
X188646963Y-110623240D01*
X188651183Y-110620654D01*
X188845202Y-110501759D01*
X188845208Y-110501755D01*
X188849416Y-110499176D01*
X189029969Y-110344969D01*
X189184176Y-110164416D01*
X189186755Y-110160208D01*
X189186759Y-110160202D01*
X189305654Y-109966183D01*
X189308240Y-109961963D01*
X189325194Y-109921034D01*
X189397211Y-109747167D01*
X189397212Y-109747165D01*
X189399105Y-109742594D01*
X189437077Y-109584431D01*
X189453380Y-109516524D01*
X189453381Y-109516518D01*
X189454535Y-109511711D01*
X189473165Y-109275000D01*
X191376835Y-109275000D01*
X191395465Y-109511711D01*
X191396619Y-109516518D01*
X191396620Y-109516524D01*
X191412923Y-109584431D01*
X191450895Y-109742594D01*
X191452788Y-109747165D01*
X191452789Y-109747167D01*
X191524807Y-109921034D01*
X191541760Y-109961963D01*
X191544346Y-109966183D01*
X191663241Y-110160202D01*
X191663245Y-110160208D01*
X191665824Y-110164416D01*
X191820031Y-110344969D01*
X192000584Y-110499176D01*
X192004792Y-110501755D01*
X192004798Y-110501759D01*
X192198817Y-110620654D01*
X192203037Y-110623240D01*
X192207607Y-110625133D01*
X192207611Y-110625135D01*
X192417833Y-110712211D01*
X192422406Y-110714105D01*
X192502609Y-110733360D01*
X192648476Y-110768380D01*
X192648482Y-110768381D01*
X192653289Y-110769535D01*
X192890000Y-110788165D01*
X193126711Y-110769535D01*
X193131518Y-110768381D01*
X193131524Y-110768380D01*
X193277391Y-110733360D01*
X193357594Y-110714105D01*
X193362167Y-110712211D01*
X193572389Y-110625135D01*
X193572393Y-110625133D01*
X193576963Y-110623240D01*
X193581183Y-110620654D01*
X193775202Y-110501759D01*
X193775208Y-110501755D01*
X193779416Y-110499176D01*
X193959969Y-110344969D01*
X194114176Y-110164416D01*
X194116755Y-110160208D01*
X194116759Y-110160202D01*
X194234133Y-109968665D01*
X194286781Y-109921034D01*
X194341566Y-109908500D01*
X197938434Y-109908500D01*
X198006555Y-109928502D01*
X198045867Y-109968665D01*
X198163241Y-110160202D01*
X198163245Y-110160208D01*
X198165824Y-110164416D01*
X198320031Y-110344969D01*
X198500584Y-110499176D01*
X198504792Y-110501755D01*
X198504798Y-110501759D01*
X198698817Y-110620654D01*
X198703037Y-110623240D01*
X198707607Y-110625133D01*
X198707611Y-110625135D01*
X198917833Y-110712211D01*
X198922406Y-110714105D01*
X199002609Y-110733360D01*
X199148476Y-110768380D01*
X199148482Y-110768381D01*
X199153289Y-110769535D01*
X199390000Y-110788165D01*
X199626711Y-110769535D01*
X199631518Y-110768381D01*
X199631524Y-110768380D01*
X199777391Y-110733360D01*
X199857594Y-110714105D01*
X199862167Y-110712211D01*
X200072389Y-110625135D01*
X200072393Y-110625133D01*
X200076963Y-110623240D01*
X200081183Y-110620654D01*
X200275202Y-110501759D01*
X200275208Y-110501755D01*
X200279416Y-110499176D01*
X200459969Y-110344969D01*
X200614176Y-110164416D01*
X200616755Y-110160208D01*
X200616759Y-110160202D01*
X200735654Y-109966183D01*
X200738240Y-109961963D01*
X200755194Y-109921034D01*
X200827211Y-109747167D01*
X200827212Y-109747165D01*
X200829105Y-109742594D01*
X200867077Y-109584431D01*
X200883380Y-109516524D01*
X200883381Y-109516518D01*
X200884535Y-109511711D01*
X200903165Y-109275000D01*
X200884535Y-109038289D01*
X200877679Y-109009729D01*
X200830260Y-108812218D01*
X200829105Y-108807406D01*
X200827211Y-108802833D01*
X200740135Y-108592611D01*
X200740133Y-108592607D01*
X200738240Y-108588037D01*
X200734133Y-108581335D01*
X200616759Y-108389798D01*
X200616755Y-108389792D01*
X200614176Y-108385584D01*
X200459969Y-108205031D01*
X200279416Y-108050824D01*
X200275208Y-108048245D01*
X200275202Y-108048241D01*
X200081183Y-107929346D01*
X200076963Y-107926760D01*
X200072393Y-107924867D01*
X200072389Y-107924865D01*
X199862167Y-107837789D01*
X199862165Y-107837788D01*
X199857594Y-107835895D01*
X199777391Y-107816640D01*
X199631524Y-107781620D01*
X199631518Y-107781619D01*
X199626711Y-107780465D01*
X199390000Y-107761835D01*
X199153289Y-107780465D01*
X199148482Y-107781619D01*
X199148476Y-107781620D01*
X199002609Y-107816640D01*
X198922406Y-107835895D01*
X198917835Y-107837788D01*
X198917833Y-107837789D01*
X198707611Y-107924865D01*
X198707607Y-107924867D01*
X198703037Y-107926760D01*
X198698817Y-107929346D01*
X198504798Y-108048241D01*
X198504792Y-108048245D01*
X198500584Y-108050824D01*
X198320031Y-108205031D01*
X198165824Y-108385584D01*
X198163245Y-108389792D01*
X198163241Y-108389798D01*
X198045867Y-108581335D01*
X197993219Y-108628966D01*
X197938434Y-108641500D01*
X194341566Y-108641500D01*
X194273445Y-108621498D01*
X194234133Y-108581335D01*
X194116759Y-108389798D01*
X194116755Y-108389792D01*
X194114176Y-108385584D01*
X193959969Y-108205031D01*
X193779416Y-108050824D01*
X193775208Y-108048245D01*
X193775202Y-108048241D01*
X193581183Y-107929346D01*
X193576963Y-107926760D01*
X193572393Y-107924867D01*
X193572389Y-107924865D01*
X193362167Y-107837789D01*
X193362165Y-107837788D01*
X193357594Y-107835895D01*
X193277391Y-107816640D01*
X193131524Y-107781620D01*
X193131518Y-107781619D01*
X193126711Y-107780465D01*
X192890000Y-107761835D01*
X192653289Y-107780465D01*
X192648482Y-107781619D01*
X192648476Y-107781620D01*
X192502609Y-107816640D01*
X192422406Y-107835895D01*
X192417835Y-107837788D01*
X192417833Y-107837789D01*
X192207611Y-107924865D01*
X192207607Y-107924867D01*
X192203037Y-107926760D01*
X192198817Y-107929346D01*
X192004798Y-108048241D01*
X192004792Y-108048245D01*
X192000584Y-108050824D01*
X191820031Y-108205031D01*
X191665824Y-108385584D01*
X191663245Y-108389792D01*
X191663241Y-108389798D01*
X191545867Y-108581335D01*
X191541760Y-108588037D01*
X191539867Y-108592607D01*
X191539865Y-108592611D01*
X191452789Y-108802833D01*
X191450895Y-108807406D01*
X191449740Y-108812218D01*
X191402322Y-109009729D01*
X191395465Y-109038289D01*
X191376835Y-109275000D01*
X189473165Y-109275000D01*
X189454535Y-109038289D01*
X189447679Y-109009729D01*
X189400260Y-108812218D01*
X189399105Y-108807406D01*
X189397211Y-108802833D01*
X189310135Y-108592611D01*
X189310133Y-108592607D01*
X189308240Y-108588037D01*
X189304133Y-108581335D01*
X189186759Y-108389798D01*
X189186755Y-108389792D01*
X189184176Y-108385584D01*
X189029969Y-108205031D01*
X188849416Y-108050824D01*
X188845208Y-108048245D01*
X188845202Y-108048241D01*
X188651183Y-107929346D01*
X188646963Y-107926760D01*
X188642393Y-107924867D01*
X188642389Y-107924865D01*
X188432167Y-107837789D01*
X188432165Y-107837788D01*
X188427594Y-107835895D01*
X188347391Y-107816640D01*
X188201524Y-107781620D01*
X188201518Y-107781619D01*
X188196711Y-107780465D01*
X187960000Y-107761835D01*
X187723289Y-107780465D01*
X187718482Y-107781619D01*
X187718476Y-107781620D01*
X187572609Y-107816640D01*
X187492406Y-107835895D01*
X187487835Y-107837788D01*
X187487833Y-107837789D01*
X187277611Y-107924865D01*
X187277607Y-107924867D01*
X187273037Y-107926760D01*
X187268817Y-107929346D01*
X187074798Y-108048241D01*
X187074792Y-108048245D01*
X187070584Y-108050824D01*
X186890031Y-108205031D01*
X186735824Y-108385584D01*
X186733245Y-108389792D01*
X186733241Y-108389798D01*
X186615867Y-108581335D01*
X186563219Y-108628966D01*
X186508434Y-108641500D01*
X182911566Y-108641500D01*
X182843445Y-108621498D01*
X182804133Y-108581335D01*
X182686759Y-108389798D01*
X182686755Y-108389792D01*
X182684176Y-108385584D01*
X182529969Y-108205031D01*
X182349416Y-108050824D01*
X182345208Y-108048245D01*
X182345202Y-108048241D01*
X182151183Y-107929346D01*
X182146963Y-107926760D01*
X182142393Y-107924867D01*
X182142389Y-107924865D01*
X181932167Y-107837789D01*
X181932165Y-107837788D01*
X181927594Y-107835895D01*
X181847391Y-107816640D01*
X181701524Y-107781620D01*
X181701518Y-107781619D01*
X181696711Y-107780465D01*
X181460000Y-107761835D01*
X181223289Y-107780465D01*
X181218482Y-107781619D01*
X181218476Y-107781620D01*
X181052896Y-107821373D01*
X181000049Y-107834060D01*
X180929142Y-107830513D01*
X180881541Y-107800636D01*
X179368652Y-106287747D01*
X179361112Y-106279461D01*
X179357000Y-106272982D01*
X179307348Y-106226356D01*
X179304507Y-106223602D01*
X179284770Y-106203865D01*
X179281573Y-106201385D01*
X179272551Y-106193680D01*
X179246100Y-106168841D01*
X179240321Y-106163414D01*
X179233375Y-106159595D01*
X179233372Y-106159593D01*
X179222566Y-106153652D01*
X179206047Y-106142801D01*
X179205583Y-106142441D01*
X179190041Y-106130386D01*
X179182772Y-106127241D01*
X179182768Y-106127238D01*
X179149463Y-106112826D01*
X179138813Y-106107609D01*
X179100060Y-106086305D01*
X179080437Y-106081267D01*
X179061734Y-106074863D01*
X179050420Y-106069967D01*
X179050419Y-106069967D01*
X179043145Y-106066819D01*
X179035322Y-106065580D01*
X179035312Y-106065577D01*
X178999476Y-106059901D01*
X178987856Y-106057495D01*
X178952711Y-106048472D01*
X178952710Y-106048472D01*
X178945030Y-106046500D01*
X178924776Y-106046500D01*
X178905065Y-106044949D01*
X178892886Y-106043020D01*
X178885057Y-106041780D01*
X178877165Y-106042526D01*
X178841039Y-106045941D01*
X178829181Y-106046500D01*
X160052817Y-106046500D01*
X159984696Y-106026498D01*
X159968382Y-106007670D01*
X180592160Y-106007670D01*
X180597887Y-106015320D01*
X180769042Y-106120205D01*
X180777837Y-106124687D01*
X180987988Y-106211734D01*
X180997373Y-106214783D01*
X181218554Y-106267885D01*
X181228301Y-106269428D01*
X181455070Y-106287275D01*
X181464930Y-106287275D01*
X181691699Y-106269428D01*
X181701446Y-106267885D01*
X181922627Y-106214783D01*
X181932012Y-106211734D01*
X182142163Y-106124687D01*
X182150958Y-106120205D01*
X182318445Y-106017568D01*
X182327400Y-106007670D01*
X187092160Y-106007670D01*
X187097887Y-106015320D01*
X187269042Y-106120205D01*
X187277837Y-106124687D01*
X187487988Y-106211734D01*
X187497373Y-106214783D01*
X187718554Y-106267885D01*
X187728301Y-106269428D01*
X187955070Y-106287275D01*
X187964930Y-106287275D01*
X188191699Y-106269428D01*
X188201446Y-106267885D01*
X188422627Y-106214783D01*
X188432012Y-106211734D01*
X188642163Y-106124687D01*
X188650958Y-106120205D01*
X188818445Y-106017568D01*
X188827400Y-106007670D01*
X192022160Y-106007670D01*
X192027887Y-106015320D01*
X192199042Y-106120205D01*
X192207837Y-106124687D01*
X192417988Y-106211734D01*
X192427373Y-106214783D01*
X192648554Y-106267885D01*
X192658301Y-106269428D01*
X192885070Y-106287275D01*
X192894930Y-106287275D01*
X193121699Y-106269428D01*
X193131446Y-106267885D01*
X193352627Y-106214783D01*
X193362012Y-106211734D01*
X193572163Y-106124687D01*
X193580958Y-106120205D01*
X193748445Y-106017568D01*
X193757400Y-106007670D01*
X198522160Y-106007670D01*
X198527887Y-106015320D01*
X198699042Y-106120205D01*
X198707837Y-106124687D01*
X198917988Y-106211734D01*
X198927373Y-106214783D01*
X199148554Y-106267885D01*
X199158301Y-106269428D01*
X199385070Y-106287275D01*
X199394930Y-106287275D01*
X199621699Y-106269428D01*
X199631446Y-106267885D01*
X199852627Y-106214783D01*
X199862012Y-106211734D01*
X200072163Y-106124687D01*
X200080958Y-106120205D01*
X200248445Y-106017568D01*
X200257907Y-106007110D01*
X200254124Y-105998334D01*
X199402812Y-105147022D01*
X199388868Y-105139408D01*
X199387035Y-105139539D01*
X199380420Y-105143790D01*
X198528920Y-105995290D01*
X198522160Y-106007670D01*
X193757400Y-106007670D01*
X193757907Y-106007110D01*
X193754124Y-105998334D01*
X192902812Y-105147022D01*
X192888868Y-105139408D01*
X192887035Y-105139539D01*
X192880420Y-105143790D01*
X192028920Y-105995290D01*
X192022160Y-106007670D01*
X188827400Y-106007670D01*
X188827907Y-106007110D01*
X188824124Y-105998334D01*
X187972812Y-105147022D01*
X187958868Y-105139408D01*
X187957035Y-105139539D01*
X187950420Y-105143790D01*
X187098920Y-105995290D01*
X187092160Y-106007670D01*
X182327400Y-106007670D01*
X182327907Y-106007110D01*
X182324124Y-105998334D01*
X181472812Y-105147022D01*
X181458868Y-105139408D01*
X181457035Y-105139539D01*
X181450420Y-105143790D01*
X180598920Y-105995290D01*
X180592160Y-106007670D01*
X159968382Y-106007670D01*
X159938203Y-105972842D01*
X159928099Y-105902568D01*
X159938623Y-105867249D01*
X159946115Y-105851183D01*
X159946117Y-105851178D01*
X159948440Y-105846196D01*
X160005978Y-105631463D01*
X160025353Y-105410000D01*
X160005978Y-105188537D01*
X159948440Y-104973804D01*
X159905805Y-104882373D01*
X159858035Y-104779930D01*
X179947725Y-104779930D01*
X179965572Y-105006699D01*
X179967115Y-105016446D01*
X180020217Y-105237627D01*
X180023266Y-105247012D01*
X180110313Y-105457163D01*
X180114795Y-105465958D01*
X180217432Y-105633445D01*
X180227890Y-105642907D01*
X180236666Y-105639124D01*
X181087978Y-104787812D01*
X181094356Y-104776132D01*
X181824408Y-104776132D01*
X181824539Y-104777965D01*
X181828790Y-104784580D01*
X182680290Y-105636080D01*
X182692670Y-105642840D01*
X182700320Y-105637113D01*
X182805205Y-105465958D01*
X182809687Y-105457163D01*
X182896734Y-105247012D01*
X182899783Y-105237627D01*
X182952885Y-105016446D01*
X182954428Y-105006699D01*
X182972275Y-104779930D01*
X186447725Y-104779930D01*
X186465572Y-105006699D01*
X186467115Y-105016446D01*
X186520217Y-105237627D01*
X186523266Y-105247012D01*
X186610313Y-105457163D01*
X186614795Y-105465958D01*
X186717432Y-105633445D01*
X186727890Y-105642907D01*
X186736666Y-105639124D01*
X187587978Y-104787812D01*
X187594356Y-104776132D01*
X188324408Y-104776132D01*
X188324539Y-104777965D01*
X188328790Y-104784580D01*
X189180290Y-105636080D01*
X189192670Y-105642840D01*
X189200320Y-105637113D01*
X189305205Y-105465958D01*
X189309687Y-105457163D01*
X189396734Y-105247012D01*
X189399783Y-105237627D01*
X189452885Y-105016446D01*
X189454428Y-105006699D01*
X189472275Y-104779930D01*
X191377725Y-104779930D01*
X191395572Y-105006699D01*
X191397115Y-105016446D01*
X191450217Y-105237627D01*
X191453266Y-105247012D01*
X191540313Y-105457163D01*
X191544795Y-105465958D01*
X191647432Y-105633445D01*
X191657890Y-105642907D01*
X191666666Y-105639124D01*
X192517978Y-104787812D01*
X192524356Y-104776132D01*
X193254408Y-104776132D01*
X193254539Y-104777965D01*
X193258790Y-104784580D01*
X194110290Y-105636080D01*
X194122670Y-105642840D01*
X194130320Y-105637113D01*
X194235205Y-105465958D01*
X194239687Y-105457163D01*
X194326734Y-105247012D01*
X194329783Y-105237627D01*
X194382885Y-105016446D01*
X194384428Y-105006699D01*
X194402275Y-104779930D01*
X197877725Y-104779930D01*
X197895572Y-105006699D01*
X197897115Y-105016446D01*
X197950217Y-105237627D01*
X197953266Y-105247012D01*
X198040313Y-105457163D01*
X198044795Y-105465958D01*
X198147432Y-105633445D01*
X198157890Y-105642907D01*
X198166666Y-105639124D01*
X199017978Y-104787812D01*
X199024356Y-104776132D01*
X199754408Y-104776132D01*
X199754539Y-104777965D01*
X199758790Y-104784580D01*
X200610290Y-105636080D01*
X200622670Y-105642840D01*
X200630320Y-105637113D01*
X200735205Y-105465958D01*
X200739687Y-105457163D01*
X200826734Y-105247012D01*
X200829783Y-105237627D01*
X200882885Y-105016446D01*
X200884428Y-105006699D01*
X200902275Y-104779930D01*
X200902275Y-104770070D01*
X200884428Y-104543301D01*
X200882885Y-104533554D01*
X200829783Y-104312373D01*
X200826734Y-104302988D01*
X200739687Y-104092837D01*
X200735205Y-104084042D01*
X200632568Y-103916555D01*
X200622110Y-103907093D01*
X200613334Y-103910876D01*
X199762022Y-104762188D01*
X199754408Y-104776132D01*
X199024356Y-104776132D01*
X199025592Y-104773868D01*
X199025461Y-104772035D01*
X199021210Y-104765420D01*
X198169710Y-103913920D01*
X198157330Y-103907160D01*
X198149680Y-103912887D01*
X198044795Y-104084042D01*
X198040313Y-104092837D01*
X197953266Y-104302988D01*
X197950217Y-104312373D01*
X197897115Y-104533554D01*
X197895572Y-104543301D01*
X197877725Y-104770070D01*
X197877725Y-104779930D01*
X194402275Y-104779930D01*
X194402275Y-104770070D01*
X194384428Y-104543301D01*
X194382885Y-104533554D01*
X194329783Y-104312373D01*
X194326734Y-104302988D01*
X194239687Y-104092837D01*
X194235205Y-104084042D01*
X194132568Y-103916555D01*
X194122110Y-103907093D01*
X194113334Y-103910876D01*
X193262022Y-104762188D01*
X193254408Y-104776132D01*
X192524356Y-104776132D01*
X192525592Y-104773868D01*
X192525461Y-104772035D01*
X192521210Y-104765420D01*
X191669710Y-103913920D01*
X191657330Y-103907160D01*
X191649680Y-103912887D01*
X191544795Y-104084042D01*
X191540313Y-104092837D01*
X191453266Y-104302988D01*
X191450217Y-104312373D01*
X191397115Y-104533554D01*
X191395572Y-104543301D01*
X191377725Y-104770070D01*
X191377725Y-104779930D01*
X189472275Y-104779930D01*
X189472275Y-104770070D01*
X189454428Y-104543301D01*
X189452885Y-104533554D01*
X189399783Y-104312373D01*
X189396734Y-104302988D01*
X189309687Y-104092837D01*
X189305205Y-104084042D01*
X189202568Y-103916555D01*
X189192110Y-103907093D01*
X189183334Y-103910876D01*
X188332022Y-104762188D01*
X188324408Y-104776132D01*
X187594356Y-104776132D01*
X187595592Y-104773868D01*
X187595461Y-104772035D01*
X187591210Y-104765420D01*
X186739710Y-103913920D01*
X186727330Y-103907160D01*
X186719680Y-103912887D01*
X186614795Y-104084042D01*
X186610313Y-104092837D01*
X186523266Y-104302988D01*
X186520217Y-104312373D01*
X186467115Y-104533554D01*
X186465572Y-104543301D01*
X186447725Y-104770070D01*
X186447725Y-104779930D01*
X182972275Y-104779930D01*
X182972275Y-104770070D01*
X182954428Y-104543301D01*
X182952885Y-104533554D01*
X182899783Y-104312373D01*
X182896734Y-104302988D01*
X182809687Y-104092837D01*
X182805205Y-104084042D01*
X182702568Y-103916555D01*
X182692110Y-103907093D01*
X182683334Y-103910876D01*
X181832022Y-104762188D01*
X181824408Y-104776132D01*
X181094356Y-104776132D01*
X181095592Y-104773868D01*
X181095461Y-104772035D01*
X181091210Y-104765420D01*
X180239710Y-103913920D01*
X180227330Y-103907160D01*
X180219680Y-103912887D01*
X180114795Y-104084042D01*
X180110313Y-104092837D01*
X180023266Y-104302988D01*
X180020217Y-104312373D01*
X179967115Y-104533554D01*
X179965572Y-104543301D01*
X179947725Y-104770070D01*
X179947725Y-104779930D01*
X159858035Y-104779930D01*
X159856814Y-104777311D01*
X159856811Y-104777306D01*
X159854488Y-104772324D01*
X159726977Y-104590219D01*
X159569781Y-104433023D01*
X159565273Y-104429866D01*
X159565270Y-104429864D01*
X159397475Y-104312373D01*
X159387677Y-104305512D01*
X159382695Y-104303189D01*
X159382690Y-104303186D01*
X159277627Y-104254195D01*
X159224342Y-104207278D01*
X159204881Y-104139001D01*
X159225423Y-104071041D01*
X159277627Y-104025805D01*
X159382690Y-103976814D01*
X159382695Y-103976811D01*
X159387677Y-103974488D01*
X159489505Y-103903187D01*
X159565270Y-103850136D01*
X159565273Y-103850134D01*
X159569781Y-103846977D01*
X159726977Y-103689781D01*
X159829831Y-103542890D01*
X180592093Y-103542890D01*
X180595876Y-103551666D01*
X181447188Y-104402978D01*
X181461132Y-104410592D01*
X181462965Y-104410461D01*
X181469580Y-104406210D01*
X182321080Y-103554710D01*
X182327534Y-103542890D01*
X187092093Y-103542890D01*
X187095876Y-103551666D01*
X187947188Y-104402978D01*
X187961132Y-104410592D01*
X187962965Y-104410461D01*
X187969580Y-104406210D01*
X188821080Y-103554710D01*
X188827534Y-103542890D01*
X192022093Y-103542890D01*
X192025876Y-103551666D01*
X192877188Y-104402978D01*
X192891132Y-104410592D01*
X192892965Y-104410461D01*
X192899580Y-104406210D01*
X193751080Y-103554710D01*
X193757534Y-103542890D01*
X198522093Y-103542890D01*
X198525876Y-103551666D01*
X199377188Y-104402978D01*
X199391132Y-104410592D01*
X199392965Y-104410461D01*
X199399580Y-104406210D01*
X200251080Y-103554710D01*
X200257840Y-103542330D01*
X200252113Y-103534680D01*
X200080958Y-103429795D01*
X200072163Y-103425313D01*
X199862012Y-103338266D01*
X199852627Y-103335217D01*
X199631446Y-103282115D01*
X199621699Y-103280572D01*
X199394930Y-103262725D01*
X199385070Y-103262725D01*
X199158301Y-103280572D01*
X199148554Y-103282115D01*
X198927373Y-103335217D01*
X198917988Y-103338266D01*
X198707837Y-103425313D01*
X198699042Y-103429795D01*
X198531555Y-103532432D01*
X198522093Y-103542890D01*
X193757534Y-103542890D01*
X193757840Y-103542330D01*
X193752113Y-103534680D01*
X193580958Y-103429795D01*
X193572163Y-103425313D01*
X193362012Y-103338266D01*
X193352627Y-103335217D01*
X193131446Y-103282115D01*
X193121699Y-103280572D01*
X192894930Y-103262725D01*
X192885070Y-103262725D01*
X192658301Y-103280572D01*
X192648554Y-103282115D01*
X192427373Y-103335217D01*
X192417988Y-103338266D01*
X192207837Y-103425313D01*
X192199042Y-103429795D01*
X192031555Y-103532432D01*
X192022093Y-103542890D01*
X188827534Y-103542890D01*
X188827840Y-103542330D01*
X188822113Y-103534680D01*
X188650958Y-103429795D01*
X188642163Y-103425313D01*
X188432012Y-103338266D01*
X188422627Y-103335217D01*
X188201446Y-103282115D01*
X188191699Y-103280572D01*
X187964930Y-103262725D01*
X187955070Y-103262725D01*
X187728301Y-103280572D01*
X187718554Y-103282115D01*
X187497373Y-103335217D01*
X187487988Y-103338266D01*
X187277837Y-103425313D01*
X187269042Y-103429795D01*
X187101555Y-103532432D01*
X187092093Y-103542890D01*
X182327534Y-103542890D01*
X182327840Y-103542330D01*
X182322113Y-103534680D01*
X182150958Y-103429795D01*
X182142163Y-103425313D01*
X181932012Y-103338266D01*
X181922627Y-103335217D01*
X181701446Y-103282115D01*
X181691699Y-103280572D01*
X181464930Y-103262725D01*
X181455070Y-103262725D01*
X181228301Y-103280572D01*
X181218554Y-103282115D01*
X180997373Y-103335217D01*
X180987988Y-103338266D01*
X180777837Y-103425313D01*
X180769042Y-103429795D01*
X180601555Y-103532432D01*
X180592093Y-103542890D01*
X159829831Y-103542890D01*
X159854488Y-103507676D01*
X159856811Y-103502694D01*
X159856814Y-103502689D01*
X159946117Y-103311178D01*
X159946118Y-103311177D01*
X159948440Y-103306196D01*
X160005978Y-103091463D01*
X160025353Y-102870000D01*
X160005978Y-102648537D01*
X159948440Y-102433804D01*
X159938623Y-102412751D01*
X159927961Y-102342560D01*
X159956940Y-102277747D01*
X160016359Y-102238890D01*
X160052817Y-102233500D01*
X180221233Y-102233500D01*
X180232416Y-102234027D01*
X180239909Y-102235702D01*
X180247835Y-102235453D01*
X180247836Y-102235453D01*
X180307986Y-102233562D01*
X180311945Y-102233500D01*
X180339856Y-102233500D01*
X180343791Y-102233003D01*
X180343856Y-102232995D01*
X180355693Y-102232062D01*
X180387951Y-102231048D01*
X180391970Y-102230922D01*
X180399889Y-102230673D01*
X180419343Y-102225021D01*
X180438700Y-102221013D01*
X180450930Y-102219468D01*
X180450931Y-102219468D01*
X180458797Y-102218474D01*
X180466168Y-102215555D01*
X180466170Y-102215555D01*
X180499912Y-102202196D01*
X180511142Y-102198351D01*
X180545983Y-102188229D01*
X180545984Y-102188229D01*
X180553593Y-102186018D01*
X180560412Y-102181985D01*
X180560417Y-102181983D01*
X180571028Y-102175707D01*
X180588776Y-102167012D01*
X180607617Y-102159552D01*
X180643387Y-102133564D01*
X180653307Y-102127048D01*
X180684535Y-102108580D01*
X180684538Y-102108578D01*
X180691362Y-102104542D01*
X180705683Y-102090221D01*
X180720717Y-102077380D01*
X180730694Y-102070131D01*
X180737107Y-102065472D01*
X180765298Y-102031395D01*
X180773288Y-102022616D01*
X180881540Y-101914364D01*
X180943852Y-101880338D01*
X181000049Y-101880940D01*
X181218476Y-101933380D01*
X181218482Y-101933381D01*
X181223289Y-101934535D01*
X181460000Y-101953165D01*
X181696711Y-101934535D01*
X181701518Y-101933381D01*
X181701524Y-101933380D01*
X181882779Y-101889864D01*
X181927594Y-101879105D01*
X181932167Y-101877211D01*
X182142389Y-101790135D01*
X182142393Y-101790133D01*
X182146963Y-101788240D01*
X182267793Y-101714195D01*
X182345202Y-101666759D01*
X182345208Y-101666755D01*
X182349416Y-101664176D01*
X182529969Y-101509969D01*
X182684176Y-101329416D01*
X182686755Y-101325208D01*
X182686759Y-101325202D01*
X182804133Y-101133665D01*
X182856781Y-101086034D01*
X182911566Y-101073500D01*
X186508434Y-101073500D01*
X186576555Y-101093502D01*
X186615867Y-101133665D01*
X186733241Y-101325202D01*
X186733245Y-101325208D01*
X186735824Y-101329416D01*
X186890031Y-101509969D01*
X187070584Y-101664176D01*
X187074792Y-101666755D01*
X187074798Y-101666759D01*
X187152207Y-101714195D01*
X187273037Y-101788240D01*
X187277607Y-101790133D01*
X187277611Y-101790135D01*
X187487833Y-101877211D01*
X187492406Y-101879105D01*
X187537221Y-101889864D01*
X187718476Y-101933380D01*
X187718482Y-101933381D01*
X187723289Y-101934535D01*
X187960000Y-101953165D01*
X188196711Y-101934535D01*
X188201518Y-101933381D01*
X188201524Y-101933380D01*
X188382779Y-101889864D01*
X188427594Y-101879105D01*
X188432167Y-101877211D01*
X188642389Y-101790135D01*
X188642393Y-101790133D01*
X188646963Y-101788240D01*
X188767793Y-101714195D01*
X188845202Y-101666759D01*
X188845208Y-101666755D01*
X188849416Y-101664176D01*
X189029969Y-101509969D01*
X189184176Y-101329416D01*
X189186755Y-101325208D01*
X189186759Y-101325202D01*
X189305654Y-101131183D01*
X189308240Y-101126963D01*
X189318967Y-101101067D01*
X189397211Y-100912167D01*
X189397212Y-100912165D01*
X189399105Y-100907594D01*
X189419518Y-100822568D01*
X189453380Y-100681524D01*
X189453381Y-100681518D01*
X189454535Y-100676711D01*
X189473165Y-100440000D01*
X189454535Y-100203289D01*
X189433103Y-100114016D01*
X189400260Y-99977218D01*
X189399105Y-99972406D01*
X189378358Y-99922318D01*
X189370769Y-99851728D01*
X189402548Y-99788241D01*
X189463607Y-99752014D01*
X189494767Y-99748100D01*
X191250006Y-99748100D01*
X191318127Y-99768102D01*
X191339101Y-99785005D01*
X191415636Y-99861540D01*
X191449662Y-99923852D01*
X191449060Y-99980049D01*
X191416898Y-100114016D01*
X191395465Y-100203289D01*
X191376835Y-100440000D01*
X191395465Y-100676711D01*
X191396619Y-100681518D01*
X191396620Y-100681524D01*
X191430482Y-100822568D01*
X191450895Y-100907594D01*
X191452788Y-100912165D01*
X191452789Y-100912167D01*
X191531034Y-101101067D01*
X191541760Y-101126963D01*
X191544346Y-101131183D01*
X191663241Y-101325202D01*
X191663245Y-101325208D01*
X191665824Y-101329416D01*
X191820031Y-101509969D01*
X192000584Y-101664176D01*
X192004792Y-101666755D01*
X192004798Y-101666759D01*
X192082207Y-101714195D01*
X192203037Y-101788240D01*
X192207607Y-101790133D01*
X192207611Y-101790135D01*
X192417833Y-101877211D01*
X192422406Y-101879105D01*
X192467221Y-101889864D01*
X192648476Y-101933380D01*
X192648482Y-101933381D01*
X192653289Y-101934535D01*
X192890000Y-101953165D01*
X193126711Y-101934535D01*
X193131518Y-101933381D01*
X193131524Y-101933380D01*
X193312779Y-101889864D01*
X193357594Y-101879105D01*
X193362167Y-101877211D01*
X193572389Y-101790135D01*
X193572393Y-101790133D01*
X193576963Y-101788240D01*
X193697793Y-101714195D01*
X193775202Y-101666759D01*
X193775208Y-101666755D01*
X193779416Y-101664176D01*
X193959969Y-101509969D01*
X194114176Y-101329416D01*
X194116755Y-101325208D01*
X194116759Y-101325202D01*
X194234133Y-101133665D01*
X194286781Y-101086034D01*
X194341566Y-101073500D01*
X197938434Y-101073500D01*
X198006555Y-101093502D01*
X198045867Y-101133665D01*
X198163241Y-101325202D01*
X198163245Y-101325208D01*
X198165824Y-101329416D01*
X198320031Y-101509969D01*
X198500584Y-101664176D01*
X198504792Y-101666755D01*
X198504798Y-101666759D01*
X198582207Y-101714195D01*
X198703037Y-101788240D01*
X198707607Y-101790133D01*
X198707611Y-101790135D01*
X198917833Y-101877211D01*
X198922406Y-101879105D01*
X198967221Y-101889864D01*
X199148476Y-101933380D01*
X199148482Y-101933381D01*
X199153289Y-101934535D01*
X199390000Y-101953165D01*
X199626711Y-101934535D01*
X199631518Y-101933381D01*
X199631524Y-101933380D01*
X199812779Y-101889864D01*
X199857594Y-101879105D01*
X199862167Y-101877211D01*
X200072389Y-101790135D01*
X200072393Y-101790133D01*
X200076963Y-101788240D01*
X200197793Y-101714195D01*
X200275202Y-101666759D01*
X200275208Y-101666755D01*
X200279416Y-101664176D01*
X200459969Y-101509969D01*
X200614176Y-101329416D01*
X200616755Y-101325208D01*
X200616759Y-101325202D01*
X200735654Y-101131183D01*
X200738240Y-101126963D01*
X200748967Y-101101067D01*
X200827211Y-100912167D01*
X200827212Y-100912165D01*
X200829105Y-100907594D01*
X200849518Y-100822568D01*
X200883380Y-100681524D01*
X200883381Y-100681518D01*
X200884535Y-100676711D01*
X200903165Y-100440000D01*
X200884535Y-100203289D01*
X200863103Y-100114016D01*
X200830260Y-99977218D01*
X200829105Y-99972406D01*
X200827211Y-99967833D01*
X200740135Y-99757611D01*
X200740133Y-99757607D01*
X200738240Y-99753037D01*
X200698272Y-99687815D01*
X200616759Y-99554798D01*
X200616755Y-99554792D01*
X200614176Y-99550584D01*
X200459969Y-99370031D01*
X200279416Y-99215824D01*
X200275208Y-99213245D01*
X200275202Y-99213241D01*
X200081183Y-99094346D01*
X200076963Y-99091760D01*
X200072393Y-99089867D01*
X200072389Y-99089865D01*
X199862167Y-99002789D01*
X199862165Y-99002788D01*
X199857594Y-99000895D01*
X199777391Y-98981640D01*
X199631524Y-98946620D01*
X199631518Y-98946619D01*
X199626711Y-98945465D01*
X199390000Y-98926835D01*
X199153289Y-98945465D01*
X199148482Y-98946619D01*
X199148476Y-98946620D01*
X199002609Y-98981640D01*
X198922406Y-99000895D01*
X198917835Y-99002788D01*
X198917833Y-99002789D01*
X198707611Y-99089865D01*
X198707607Y-99089867D01*
X198703037Y-99091760D01*
X198698817Y-99094346D01*
X198504798Y-99213241D01*
X198504792Y-99213245D01*
X198500584Y-99215824D01*
X198320031Y-99370031D01*
X198165824Y-99550584D01*
X198163245Y-99554792D01*
X198163241Y-99554798D01*
X198045867Y-99746335D01*
X197993219Y-99793966D01*
X197938434Y-99806500D01*
X194341566Y-99806500D01*
X194273445Y-99786498D01*
X194234133Y-99746335D01*
X194116759Y-99554798D01*
X194116755Y-99554792D01*
X194114176Y-99550584D01*
X193959969Y-99370031D01*
X193779416Y-99215824D01*
X193775208Y-99213245D01*
X193775202Y-99213241D01*
X193581183Y-99094346D01*
X193576963Y-99091760D01*
X193572393Y-99089867D01*
X193572389Y-99089865D01*
X193362167Y-99002789D01*
X193362165Y-99002788D01*
X193357594Y-99000895D01*
X193277391Y-98981640D01*
X193131524Y-98946620D01*
X193131518Y-98946619D01*
X193126711Y-98945465D01*
X192890000Y-98926835D01*
X192653289Y-98945465D01*
X192648482Y-98946619D01*
X192648476Y-98946620D01*
X192482896Y-98986373D01*
X192430049Y-98999060D01*
X192359142Y-98995513D01*
X192311541Y-98965636D01*
X192068252Y-98722347D01*
X192060712Y-98714061D01*
X192056600Y-98707582D01*
X192006948Y-98660956D01*
X192004107Y-98658202D01*
X191984370Y-98638465D01*
X191981173Y-98635985D01*
X191972151Y-98628280D01*
X191967997Y-98624379D01*
X191939921Y-98598014D01*
X191932975Y-98594195D01*
X191932972Y-98594193D01*
X191922166Y-98588252D01*
X191905647Y-98577401D01*
X191905183Y-98577041D01*
X191889641Y-98564986D01*
X191882372Y-98561841D01*
X191882368Y-98561838D01*
X191849063Y-98547426D01*
X191838413Y-98542209D01*
X191799660Y-98520905D01*
X191780037Y-98515867D01*
X191761334Y-98509463D01*
X191750020Y-98504567D01*
X191750019Y-98504567D01*
X191742745Y-98501419D01*
X191734922Y-98500180D01*
X191734912Y-98500177D01*
X191699076Y-98494501D01*
X191687456Y-98492095D01*
X191652311Y-98483072D01*
X191652310Y-98483072D01*
X191644630Y-98481100D01*
X191624376Y-98481100D01*
X191604665Y-98479549D01*
X191592486Y-98477620D01*
X191584657Y-98476380D01*
X191555386Y-98479147D01*
X191540639Y-98480541D01*
X191528781Y-98481100D01*
X182714302Y-98481100D01*
X182646181Y-98461098D01*
X182599688Y-98407442D01*
X182589584Y-98337168D01*
X182619078Y-98272588D01*
X182640241Y-98253164D01*
X182673686Y-98228865D01*
X182683607Y-98222348D01*
X182714835Y-98203880D01*
X182714838Y-98203878D01*
X182721662Y-98199842D01*
X182735983Y-98185521D01*
X182751017Y-98172680D01*
X182752732Y-98171434D01*
X182767407Y-98160772D01*
X182795598Y-98126695D01*
X182803588Y-98117916D01*
X183748834Y-97172670D01*
X187092160Y-97172670D01*
X187097887Y-97180320D01*
X187269042Y-97285205D01*
X187277837Y-97289687D01*
X187487988Y-97376734D01*
X187497373Y-97379783D01*
X187718554Y-97432885D01*
X187728301Y-97434428D01*
X187955070Y-97452275D01*
X187964930Y-97452275D01*
X188191699Y-97434428D01*
X188201446Y-97432885D01*
X188422627Y-97379783D01*
X188432012Y-97376734D01*
X188642163Y-97289687D01*
X188650958Y-97285205D01*
X188818445Y-97182568D01*
X188827400Y-97172670D01*
X192022160Y-97172670D01*
X192027887Y-97180320D01*
X192199042Y-97285205D01*
X192207837Y-97289687D01*
X192417988Y-97376734D01*
X192427373Y-97379783D01*
X192648554Y-97432885D01*
X192658301Y-97434428D01*
X192885070Y-97452275D01*
X192894930Y-97452275D01*
X193121699Y-97434428D01*
X193131446Y-97432885D01*
X193352627Y-97379783D01*
X193362012Y-97376734D01*
X193572163Y-97289687D01*
X193580958Y-97285205D01*
X193748445Y-97182568D01*
X193757400Y-97172670D01*
X198522160Y-97172670D01*
X198527887Y-97180320D01*
X198699042Y-97285205D01*
X198707837Y-97289687D01*
X198917988Y-97376734D01*
X198927373Y-97379783D01*
X199148554Y-97432885D01*
X199158301Y-97434428D01*
X199385070Y-97452275D01*
X199394930Y-97452275D01*
X199621699Y-97434428D01*
X199631446Y-97432885D01*
X199852627Y-97379783D01*
X199862012Y-97376734D01*
X200072163Y-97289687D01*
X200080958Y-97285205D01*
X200248445Y-97182568D01*
X200257907Y-97172110D01*
X200254124Y-97163334D01*
X199402812Y-96312022D01*
X199388868Y-96304408D01*
X199387035Y-96304539D01*
X199380420Y-96308790D01*
X198528920Y-97160290D01*
X198522160Y-97172670D01*
X193757400Y-97172670D01*
X193757907Y-97172110D01*
X193754124Y-97163334D01*
X192902812Y-96312022D01*
X192888868Y-96304408D01*
X192887035Y-96304539D01*
X192880420Y-96308790D01*
X192028920Y-97160290D01*
X192022160Y-97172670D01*
X188827400Y-97172670D01*
X188827907Y-97172110D01*
X188824124Y-97163334D01*
X187972812Y-96312022D01*
X187958868Y-96304408D01*
X187957035Y-96304539D01*
X187950420Y-96308790D01*
X187098920Y-97160290D01*
X187092160Y-97172670D01*
X183748834Y-97172670D01*
X184976574Y-95944930D01*
X186447725Y-95944930D01*
X186465572Y-96171699D01*
X186467115Y-96181446D01*
X186520217Y-96402627D01*
X186523266Y-96412012D01*
X186610313Y-96622163D01*
X186614795Y-96630958D01*
X186717432Y-96798445D01*
X186727890Y-96807907D01*
X186736666Y-96804124D01*
X187587978Y-95952812D01*
X187594356Y-95941132D01*
X188324408Y-95941132D01*
X188324539Y-95942965D01*
X188328790Y-95949580D01*
X189180290Y-96801080D01*
X189192670Y-96807840D01*
X189200320Y-96802113D01*
X189305205Y-96630958D01*
X189309687Y-96622163D01*
X189396734Y-96412012D01*
X189399783Y-96402627D01*
X189452885Y-96181446D01*
X189454428Y-96171699D01*
X189472275Y-95944930D01*
X191377725Y-95944930D01*
X191395572Y-96171699D01*
X191397115Y-96181446D01*
X191450217Y-96402627D01*
X191453266Y-96412012D01*
X191540313Y-96622163D01*
X191544795Y-96630958D01*
X191647432Y-96798445D01*
X191657890Y-96807907D01*
X191666666Y-96804124D01*
X192517978Y-95952812D01*
X192524356Y-95941132D01*
X193254408Y-95941132D01*
X193254539Y-95942965D01*
X193258790Y-95949580D01*
X194110290Y-96801080D01*
X194122670Y-96807840D01*
X194130320Y-96802113D01*
X194235205Y-96630958D01*
X194239687Y-96622163D01*
X194326734Y-96412012D01*
X194329783Y-96402627D01*
X194382885Y-96181446D01*
X194384428Y-96171699D01*
X194402275Y-95944930D01*
X197877725Y-95944930D01*
X197895572Y-96171699D01*
X197897115Y-96181446D01*
X197950217Y-96402627D01*
X197953266Y-96412012D01*
X198040313Y-96622163D01*
X198044795Y-96630958D01*
X198147432Y-96798445D01*
X198157890Y-96807907D01*
X198166666Y-96804124D01*
X199017978Y-95952812D01*
X199024356Y-95941132D01*
X199754408Y-95941132D01*
X199754539Y-95942965D01*
X199758790Y-95949580D01*
X200610290Y-96801080D01*
X200622670Y-96807840D01*
X200630320Y-96802113D01*
X200735205Y-96630958D01*
X200739687Y-96622163D01*
X200826734Y-96412012D01*
X200829783Y-96402627D01*
X200882885Y-96181446D01*
X200884428Y-96171699D01*
X200902275Y-95944930D01*
X200902275Y-95935070D01*
X200884428Y-95708301D01*
X200882885Y-95698554D01*
X200829783Y-95477373D01*
X200826734Y-95467988D01*
X200739687Y-95257837D01*
X200735205Y-95249042D01*
X200632568Y-95081555D01*
X200622110Y-95072093D01*
X200613334Y-95075876D01*
X199762022Y-95927188D01*
X199754408Y-95941132D01*
X199024356Y-95941132D01*
X199025592Y-95938868D01*
X199025461Y-95937035D01*
X199021210Y-95930420D01*
X198169710Y-95078920D01*
X198157330Y-95072160D01*
X198149680Y-95077887D01*
X198044795Y-95249042D01*
X198040313Y-95257837D01*
X197953266Y-95467988D01*
X197950217Y-95477373D01*
X197897115Y-95698554D01*
X197895572Y-95708301D01*
X197877725Y-95935070D01*
X197877725Y-95944930D01*
X194402275Y-95944930D01*
X194402275Y-95935070D01*
X194384428Y-95708301D01*
X194382885Y-95698554D01*
X194329783Y-95477373D01*
X194326734Y-95467988D01*
X194239687Y-95257837D01*
X194235205Y-95249042D01*
X194132568Y-95081555D01*
X194122110Y-95072093D01*
X194113334Y-95075876D01*
X193262022Y-95927188D01*
X193254408Y-95941132D01*
X192524356Y-95941132D01*
X192525592Y-95938868D01*
X192525461Y-95937035D01*
X192521210Y-95930420D01*
X191669710Y-95078920D01*
X191657330Y-95072160D01*
X191649680Y-95077887D01*
X191544795Y-95249042D01*
X191540313Y-95257837D01*
X191453266Y-95467988D01*
X191450217Y-95477373D01*
X191397115Y-95698554D01*
X191395572Y-95708301D01*
X191377725Y-95935070D01*
X191377725Y-95944930D01*
X189472275Y-95944930D01*
X189472275Y-95935070D01*
X189454428Y-95708301D01*
X189452885Y-95698554D01*
X189399783Y-95477373D01*
X189396734Y-95467988D01*
X189309687Y-95257837D01*
X189305205Y-95249042D01*
X189202568Y-95081555D01*
X189192110Y-95072093D01*
X189183334Y-95075876D01*
X188332022Y-95927188D01*
X188324408Y-95941132D01*
X187594356Y-95941132D01*
X187595592Y-95938868D01*
X187595461Y-95937035D01*
X187591210Y-95930420D01*
X186739710Y-95078920D01*
X186727330Y-95072160D01*
X186719680Y-95077887D01*
X186614795Y-95249042D01*
X186610313Y-95257837D01*
X186523266Y-95467988D01*
X186520217Y-95477373D01*
X186467115Y-95698554D01*
X186465572Y-95708301D01*
X186447725Y-95935070D01*
X186447725Y-95944930D01*
X184976574Y-95944930D01*
X186213614Y-94707890D01*
X187092093Y-94707890D01*
X187095876Y-94716666D01*
X187947188Y-95567978D01*
X187961132Y-95575592D01*
X187962965Y-95575461D01*
X187969580Y-95571210D01*
X188821080Y-94719710D01*
X188827534Y-94707890D01*
X192022093Y-94707890D01*
X192025876Y-94716666D01*
X192877188Y-95567978D01*
X192891132Y-95575592D01*
X192892965Y-95575461D01*
X192899580Y-95571210D01*
X193751080Y-94719710D01*
X193757534Y-94707890D01*
X198522093Y-94707890D01*
X198525876Y-94716666D01*
X199377188Y-95567978D01*
X199391132Y-95575592D01*
X199392965Y-95575461D01*
X199399580Y-95571210D01*
X200251080Y-94719710D01*
X200257840Y-94707330D01*
X200252113Y-94699680D01*
X200080958Y-94594795D01*
X200072163Y-94590313D01*
X199862012Y-94503266D01*
X199852627Y-94500217D01*
X199631446Y-94447115D01*
X199621699Y-94445572D01*
X199394930Y-94427725D01*
X199385070Y-94427725D01*
X199158301Y-94445572D01*
X199148554Y-94447115D01*
X198927373Y-94500217D01*
X198917988Y-94503266D01*
X198707837Y-94590313D01*
X198699042Y-94594795D01*
X198531555Y-94697432D01*
X198522093Y-94707890D01*
X193757534Y-94707890D01*
X193757840Y-94707330D01*
X193752113Y-94699680D01*
X193580958Y-94594795D01*
X193572163Y-94590313D01*
X193362012Y-94503266D01*
X193352627Y-94500217D01*
X193131446Y-94447115D01*
X193121699Y-94445572D01*
X192894930Y-94427725D01*
X192885070Y-94427725D01*
X192658301Y-94445572D01*
X192648554Y-94447115D01*
X192427373Y-94500217D01*
X192417988Y-94503266D01*
X192207837Y-94590313D01*
X192199042Y-94594795D01*
X192031555Y-94697432D01*
X192022093Y-94707890D01*
X188827534Y-94707890D01*
X188827840Y-94707330D01*
X188822113Y-94699680D01*
X188650958Y-94594795D01*
X188642163Y-94590313D01*
X188432012Y-94503266D01*
X188422627Y-94500217D01*
X188201446Y-94447115D01*
X188191699Y-94445572D01*
X187964930Y-94427725D01*
X187955070Y-94427725D01*
X187728301Y-94445572D01*
X187718554Y-94447115D01*
X187497373Y-94500217D01*
X187487988Y-94503266D01*
X187277837Y-94590313D01*
X187269042Y-94594795D01*
X187101555Y-94697432D01*
X187092093Y-94707890D01*
X186213614Y-94707890D01*
X190081099Y-90840405D01*
X190143411Y-90806379D01*
X190170194Y-90803500D01*
X196209274Y-90803500D01*
X196277395Y-90823502D01*
X196316707Y-90863665D01*
X196384987Y-90975088D01*
X196531250Y-91143938D01*
X196703126Y-91286632D01*
X196896000Y-91399338D01*
X197104692Y-91479030D01*
X197109760Y-91480061D01*
X197109763Y-91480062D01*
X197217017Y-91501883D01*
X197323597Y-91523567D01*
X197328772Y-91523757D01*
X197328774Y-91523757D01*
X197541673Y-91531564D01*
X197541677Y-91531564D01*
X197546837Y-91531753D01*
X197551957Y-91531097D01*
X197551959Y-91531097D01*
X197763288Y-91504025D01*
X197763289Y-91504025D01*
X197768416Y-91503368D01*
X197845882Y-91480127D01*
X197977429Y-91440661D01*
X197977434Y-91440659D01*
X197982384Y-91439174D01*
X198182994Y-91340896D01*
X198364860Y-91211173D01*
X198523096Y-91053489D01*
X198653453Y-90872077D01*
X198657611Y-90863665D01*
X198750136Y-90676453D01*
X198750137Y-90676451D01*
X198752430Y-90671811D01*
X198817370Y-90458069D01*
X198846529Y-90236590D01*
X198846657Y-90231370D01*
X198848074Y-90173365D01*
X198848074Y-90173361D01*
X198848156Y-90170000D01*
X198829852Y-89947361D01*
X198775431Y-89730702D01*
X198686354Y-89525840D01*
X198565014Y-89338277D01*
X198561532Y-89334450D01*
X198417798Y-89176488D01*
X198386746Y-89112642D01*
X198395141Y-89042143D01*
X198440317Y-88987375D01*
X198466761Y-88973706D01*
X198573297Y-88933767D01*
X198581705Y-88930615D01*
X198698261Y-88843261D01*
X198785615Y-88726705D01*
X198836745Y-88590316D01*
X198843500Y-88528134D01*
X198843500Y-86731866D01*
X198836745Y-86669684D01*
X198785615Y-86533295D01*
X198698261Y-86416739D01*
X198581705Y-86329385D01*
X198445316Y-86278255D01*
X198383134Y-86271500D01*
X196586866Y-86271500D01*
X196524684Y-86278255D01*
X196388295Y-86329385D01*
X196271739Y-86416739D01*
X196184385Y-86533295D01*
X196133255Y-86669684D01*
X196126500Y-86731866D01*
X196126500Y-86870500D01*
X196106498Y-86938621D01*
X196052842Y-86985114D01*
X196000500Y-86996500D01*
X184401767Y-86996500D01*
X184390584Y-86995973D01*
X184383091Y-86994298D01*
X184375165Y-86994547D01*
X184375164Y-86994547D01*
X184315001Y-86996438D01*
X184311043Y-86996500D01*
X184283144Y-86996500D01*
X184279154Y-86997004D01*
X184267320Y-86997936D01*
X184223111Y-86999326D01*
X184215497Y-87001538D01*
X184215492Y-87001539D01*
X184203659Y-87004977D01*
X184184296Y-87008988D01*
X184164203Y-87011526D01*
X184156836Y-87014443D01*
X184156831Y-87014444D01*
X184123092Y-87027802D01*
X184111865Y-87031646D01*
X184069407Y-87043982D01*
X184062581Y-87048019D01*
X184051972Y-87054293D01*
X184034224Y-87062988D01*
X184015383Y-87070448D01*
X184008967Y-87075110D01*
X184008966Y-87075110D01*
X183979613Y-87096436D01*
X183969693Y-87102952D01*
X183938465Y-87121420D01*
X183938462Y-87121422D01*
X183931638Y-87125458D01*
X183917317Y-87139779D01*
X183902284Y-87152619D01*
X183885893Y-87164528D01*
X183880842Y-87170634D01*
X183857702Y-87198605D01*
X183849712Y-87207384D01*
X175622388Y-95434707D01*
X175560076Y-95468733D01*
X175489261Y-95463668D01*
X175455201Y-95444494D01*
X175419259Y-95416109D01*
X175379359Y-95384598D01*
X175374831Y-95382098D01*
X175327136Y-95355769D01*
X175183789Y-95276638D01*
X175178920Y-95274914D01*
X175178916Y-95274912D01*
X174978087Y-95203795D01*
X174978083Y-95203794D01*
X174973212Y-95202069D01*
X174968119Y-95201162D01*
X174968116Y-95201161D01*
X174758373Y-95163800D01*
X174758367Y-95163799D01*
X174753284Y-95162894D01*
X174679452Y-95161992D01*
X174535081Y-95160228D01*
X174535079Y-95160228D01*
X174529911Y-95160165D01*
X174309091Y-95193955D01*
X174096756Y-95263357D01*
X173898607Y-95366507D01*
X173894474Y-95369610D01*
X173894471Y-95369612D01*
X173751742Y-95476776D01*
X173719965Y-95500635D01*
X173565629Y-95662138D01*
X173458201Y-95819621D01*
X173403293Y-95864621D01*
X173332768Y-95872792D01*
X173269021Y-95841538D01*
X173248324Y-95817054D01*
X173167822Y-95692617D01*
X173167820Y-95692614D01*
X173165014Y-95688277D01*
X173014670Y-95523051D01*
X173010619Y-95519852D01*
X173010615Y-95519848D01*
X172843414Y-95387800D01*
X172843410Y-95387798D01*
X172839359Y-95384598D01*
X172834831Y-95382098D01*
X172787136Y-95355769D01*
X172643789Y-95276638D01*
X172638920Y-95274914D01*
X172638916Y-95274912D01*
X172438087Y-95203795D01*
X172438083Y-95203794D01*
X172433212Y-95202069D01*
X172428119Y-95201162D01*
X172428116Y-95201161D01*
X172218373Y-95163800D01*
X172218367Y-95163799D01*
X172213284Y-95162894D01*
X172139452Y-95161992D01*
X171995081Y-95160228D01*
X171995079Y-95160228D01*
X171989911Y-95160165D01*
X171769091Y-95193955D01*
X171556756Y-95263357D01*
X171358607Y-95366507D01*
X171354474Y-95369610D01*
X171354471Y-95369612D01*
X171211742Y-95476776D01*
X171179965Y-95500635D01*
X171025629Y-95662138D01*
X170918201Y-95819621D01*
X170863293Y-95864621D01*
X170792768Y-95872792D01*
X170729021Y-95841538D01*
X170708324Y-95817054D01*
X170627822Y-95692617D01*
X170627820Y-95692614D01*
X170625014Y-95688277D01*
X170474670Y-95523051D01*
X170470619Y-95519852D01*
X170470615Y-95519848D01*
X170303414Y-95387800D01*
X170303410Y-95387798D01*
X170299359Y-95384598D01*
X170294831Y-95382098D01*
X170247136Y-95355769D01*
X170103789Y-95276638D01*
X170098920Y-95274914D01*
X170098916Y-95274912D01*
X169898087Y-95203795D01*
X169898083Y-95203794D01*
X169893212Y-95202069D01*
X169888119Y-95201162D01*
X169888116Y-95201161D01*
X169678373Y-95163800D01*
X169678367Y-95163799D01*
X169673284Y-95162894D01*
X169599452Y-95161992D01*
X169455081Y-95160228D01*
X169455079Y-95160228D01*
X169449911Y-95160165D01*
X169229091Y-95193955D01*
X169016756Y-95263357D01*
X168818607Y-95366507D01*
X168814474Y-95369610D01*
X168814471Y-95369612D01*
X168671742Y-95476776D01*
X168639965Y-95500635D01*
X168485629Y-95662138D01*
X168378204Y-95819618D01*
X168377898Y-95820066D01*
X168322987Y-95865069D01*
X168252462Y-95873240D01*
X168188715Y-95841986D01*
X168168018Y-95817502D01*
X168087426Y-95692926D01*
X168081136Y-95684757D01*
X167937806Y-95527240D01*
X167930273Y-95520215D01*
X167763139Y-95388222D01*
X167754552Y-95382517D01*
X167568117Y-95279599D01*
X167558705Y-95275369D01*
X167357959Y-95204280D01*
X167347988Y-95201646D01*
X167276837Y-95188972D01*
X167263540Y-95190432D01*
X167259000Y-95204989D01*
X167259000Y-97838517D01*
X167263064Y-97852359D01*
X167276478Y-97854393D01*
X167283184Y-97853534D01*
X167293262Y-97851392D01*
X167497255Y-97790191D01*
X167506842Y-97786433D01*
X167698095Y-97692739D01*
X167706945Y-97687464D01*
X167880328Y-97563792D01*
X167888200Y-97557139D01*
X168039052Y-97406812D01*
X168045730Y-97398965D01*
X168173022Y-97221819D01*
X168174279Y-97222722D01*
X168221373Y-97179362D01*
X168291311Y-97167145D01*
X168356751Y-97194678D01*
X168384579Y-97226511D01*
X168444987Y-97325088D01*
X168591250Y-97493938D01*
X168763126Y-97636632D01*
X168956000Y-97749338D01*
X169164692Y-97829030D01*
X169169760Y-97830061D01*
X169169763Y-97830062D01*
X169264862Y-97849410D01*
X169383597Y-97873567D01*
X169388772Y-97873757D01*
X169388774Y-97873757D01*
X169601673Y-97881564D01*
X169601677Y-97881564D01*
X169606837Y-97881753D01*
X169611957Y-97881097D01*
X169611959Y-97881097D01*
X169823288Y-97854025D01*
X169823289Y-97854025D01*
X169828416Y-97853368D01*
X169833366Y-97851883D01*
X170037429Y-97790661D01*
X170037434Y-97790659D01*
X170042384Y-97789174D01*
X170242994Y-97690896D01*
X170424860Y-97561173D01*
X170583096Y-97403489D01*
X170600131Y-97379783D01*
X170713453Y-97222077D01*
X170714776Y-97223028D01*
X170761645Y-97179857D01*
X170831580Y-97167625D01*
X170897026Y-97195144D01*
X170924875Y-97226994D01*
X170984987Y-97325088D01*
X171131250Y-97493938D01*
X171303126Y-97636632D01*
X171496000Y-97749338D01*
X171704692Y-97829030D01*
X171709760Y-97830061D01*
X171709763Y-97830062D01*
X171804862Y-97849410D01*
X171923597Y-97873567D01*
X171928772Y-97873757D01*
X171928774Y-97873757D01*
X172141673Y-97881564D01*
X172141677Y-97881564D01*
X172146837Y-97881753D01*
X172151957Y-97881097D01*
X172151959Y-97881097D01*
X172363288Y-97854025D01*
X172363289Y-97854025D01*
X172368416Y-97853368D01*
X172373366Y-97851883D01*
X172577429Y-97790661D01*
X172577434Y-97790659D01*
X172582384Y-97789174D01*
X172782994Y-97690896D01*
X172787199Y-97687896D01*
X172787205Y-97687893D01*
X172876932Y-97623891D01*
X172920811Y-97592593D01*
X172987883Y-97569320D01*
X173056892Y-97586003D01*
X173083073Y-97606077D01*
X173564543Y-98087547D01*
X173572087Y-98095837D01*
X173576200Y-98102318D01*
X173581977Y-98107743D01*
X173625867Y-98148958D01*
X173628709Y-98151713D01*
X173648430Y-98171434D01*
X173651625Y-98173912D01*
X173660647Y-98181618D01*
X173692879Y-98211886D01*
X173699828Y-98215706D01*
X173710632Y-98221646D01*
X173727156Y-98232499D01*
X173743159Y-98244913D01*
X173748638Y-98247284D01*
X173796495Y-98298539D01*
X173809200Y-98368390D01*
X173782125Y-98434021D01*
X173723865Y-98474595D01*
X173683903Y-98481100D01*
X160027357Y-98481100D01*
X159959236Y-98461098D01*
X159912743Y-98407442D01*
X159902639Y-98337168D01*
X159913162Y-98301850D01*
X159946117Y-98231178D01*
X159946118Y-98231177D01*
X159948440Y-98226196D01*
X159952275Y-98211886D01*
X160004554Y-98016776D01*
X160005978Y-98011463D01*
X160025353Y-97790000D01*
X160005978Y-97568537D01*
X159948440Y-97353804D01*
X159936869Y-97328990D01*
X159856814Y-97157311D01*
X159856811Y-97157306D01*
X159854488Y-97152324D01*
X159849375Y-97145022D01*
X159730136Y-96974730D01*
X159730134Y-96974727D01*
X159726977Y-96970219D01*
X159569781Y-96813023D01*
X159565273Y-96809866D01*
X159565270Y-96809864D01*
X159422242Y-96709715D01*
X159387677Y-96685512D01*
X159382695Y-96683189D01*
X159382690Y-96683186D01*
X159277627Y-96634195D01*
X159224342Y-96587278D01*
X159204881Y-96519001D01*
X159225423Y-96451041D01*
X159277627Y-96405805D01*
X159382690Y-96356814D01*
X159382695Y-96356811D01*
X159387677Y-96354488D01*
X159516093Y-96264570D01*
X159565270Y-96230136D01*
X159565273Y-96230134D01*
X159569781Y-96226977D01*
X159726977Y-96069781D01*
X159741315Y-96049305D01*
X159851331Y-95892185D01*
X159851332Y-95892183D01*
X159854488Y-95887676D01*
X159856811Y-95882694D01*
X159856814Y-95882689D01*
X159946117Y-95691178D01*
X159946118Y-95691177D01*
X159948440Y-95686196D01*
X159953742Y-95666411D01*
X159978076Y-95575592D01*
X160005978Y-95471463D01*
X160025353Y-95250000D01*
X160005978Y-95028537D01*
X159957882Y-94849041D01*
X159949863Y-94819114D01*
X159949862Y-94819112D01*
X159948440Y-94813804D01*
X159903144Y-94716666D01*
X159856814Y-94617311D01*
X159856811Y-94617306D01*
X159854488Y-94612324D01*
X159775990Y-94500217D01*
X159730136Y-94434730D01*
X159730134Y-94434727D01*
X159726977Y-94430219D01*
X159569781Y-94273023D01*
X159565273Y-94269866D01*
X159565270Y-94269864D01*
X159489505Y-94216813D01*
X159387677Y-94145512D01*
X159382695Y-94143189D01*
X159382690Y-94143186D01*
X159277627Y-94094195D01*
X159224342Y-94047278D01*
X159204881Y-93979001D01*
X159225423Y-93911041D01*
X159277627Y-93865805D01*
X159382690Y-93816814D01*
X159382695Y-93816811D01*
X159387677Y-93814488D01*
X159489505Y-93743187D01*
X159565270Y-93690136D01*
X159565273Y-93690134D01*
X159569781Y-93686977D01*
X159726977Y-93529781D01*
X159854488Y-93347676D01*
X159856811Y-93342694D01*
X159856814Y-93342689D01*
X159946117Y-93151178D01*
X159946118Y-93151177D01*
X159948440Y-93146196D01*
X160005978Y-92931463D01*
X160025353Y-92710000D01*
X160005978Y-92488537D01*
X159964749Y-92334669D01*
X162472001Y-92334669D01*
X162472371Y-92341490D01*
X162477895Y-92392352D01*
X162481521Y-92407604D01*
X162526676Y-92528054D01*
X162535214Y-92543649D01*
X162611715Y-92645724D01*
X162624276Y-92658285D01*
X162726351Y-92734786D01*
X162741946Y-92743324D01*
X162862394Y-92788478D01*
X162877649Y-92792105D01*
X162928514Y-92797631D01*
X162935328Y-92798000D01*
X163557885Y-92798000D01*
X163573124Y-92793525D01*
X163574329Y-92792135D01*
X163576000Y-92784452D01*
X163576000Y-91712115D01*
X163571525Y-91696876D01*
X163570135Y-91695671D01*
X163562452Y-91694000D01*
X162490116Y-91694000D01*
X162474877Y-91698475D01*
X162473672Y-91699865D01*
X162472001Y-91707548D01*
X162472001Y-92334669D01*
X159964749Y-92334669D01*
X159948440Y-92273804D01*
X159905805Y-92182373D01*
X159856814Y-92077311D01*
X159856811Y-92077306D01*
X159854488Y-92072324D01*
X159726977Y-91890219D01*
X159569781Y-91733023D01*
X159565273Y-91729866D01*
X159565270Y-91729864D01*
X159489505Y-91676813D01*
X159387677Y-91605512D01*
X159382695Y-91603189D01*
X159382690Y-91603186D01*
X159191178Y-91513883D01*
X159191177Y-91513882D01*
X159186196Y-91511560D01*
X159180888Y-91510138D01*
X159180886Y-91510137D01*
X159068887Y-91480127D01*
X158971463Y-91454022D01*
X158750000Y-91434647D01*
X158528537Y-91454022D01*
X158431113Y-91480127D01*
X158319114Y-91510137D01*
X158319112Y-91510138D01*
X158313804Y-91511560D01*
X158308823Y-91513882D01*
X158308822Y-91513883D01*
X158117311Y-91603186D01*
X158117306Y-91603189D01*
X158112324Y-91605512D01*
X158107817Y-91608668D01*
X158107815Y-91608669D01*
X157934730Y-91729864D01*
X157934727Y-91729866D01*
X157930219Y-91733023D01*
X157773023Y-91890219D01*
X157645512Y-92072324D01*
X157643189Y-92077306D01*
X157643186Y-92077311D01*
X157594195Y-92182373D01*
X157547277Y-92235658D01*
X157479000Y-92255119D01*
X157411040Y-92234577D01*
X157365805Y-92182373D01*
X157316814Y-92077311D01*
X157316811Y-92077306D01*
X157314488Y-92072324D01*
X157186977Y-91890219D01*
X157029781Y-91733023D01*
X157025273Y-91729866D01*
X157025270Y-91729864D01*
X156949505Y-91676813D01*
X156847677Y-91605512D01*
X156842695Y-91603189D01*
X156842690Y-91603186D01*
X156651178Y-91513883D01*
X156651177Y-91513882D01*
X156646196Y-91511560D01*
X156640888Y-91510138D01*
X156640886Y-91510137D01*
X156528887Y-91480127D01*
X156431463Y-91454022D01*
X156210000Y-91434647D01*
X155988537Y-91454022D01*
X155891113Y-91480127D01*
X155779114Y-91510137D01*
X155779112Y-91510138D01*
X155773804Y-91511560D01*
X155768823Y-91513882D01*
X155768822Y-91513883D01*
X155577311Y-91603186D01*
X155577306Y-91603189D01*
X155572324Y-91605512D01*
X155567817Y-91608668D01*
X155567815Y-91608669D01*
X155394730Y-91729864D01*
X155394727Y-91729866D01*
X155390219Y-91733023D01*
X155233023Y-91890219D01*
X155105512Y-92072324D01*
X155103189Y-92077306D01*
X155103186Y-92077311D01*
X155054195Y-92182373D01*
X155011560Y-92273804D01*
X154954022Y-92488537D01*
X154934647Y-92710000D01*
X154954022Y-92931463D01*
X155011560Y-93146196D01*
X155013882Y-93151177D01*
X155013883Y-93151178D01*
X155103186Y-93342689D01*
X155103189Y-93342694D01*
X155105512Y-93347676D01*
X155233023Y-93529781D01*
X155390219Y-93686977D01*
X155394727Y-93690134D01*
X155394730Y-93690136D01*
X155470495Y-93743187D01*
X155572323Y-93814488D01*
X155577305Y-93816811D01*
X155577310Y-93816814D01*
X155682373Y-93865805D01*
X155735658Y-93912722D01*
X155755119Y-93980999D01*
X155734577Y-94048959D01*
X155682373Y-94094195D01*
X155577311Y-94143186D01*
X155577306Y-94143189D01*
X155572324Y-94145512D01*
X155567817Y-94148668D01*
X155567815Y-94148669D01*
X155394730Y-94269864D01*
X155394727Y-94269866D01*
X155390219Y-94273023D01*
X155233023Y-94430219D01*
X155229866Y-94434727D01*
X155229864Y-94434730D01*
X155184010Y-94500217D01*
X155105512Y-94612324D01*
X155103189Y-94617306D01*
X155103186Y-94617311D01*
X155056856Y-94716666D01*
X155011560Y-94813804D01*
X155010138Y-94819112D01*
X155010137Y-94819114D01*
X155002118Y-94849041D01*
X154954022Y-95028537D01*
X154934647Y-95250000D01*
X154954022Y-95471463D01*
X154981924Y-95575592D01*
X155006259Y-95666411D01*
X155011560Y-95686196D01*
X155013882Y-95691177D01*
X155013883Y-95691178D01*
X155103186Y-95882689D01*
X155103189Y-95882694D01*
X155105512Y-95887676D01*
X155108668Y-95892183D01*
X155108669Y-95892185D01*
X155218686Y-96049305D01*
X155233023Y-96069781D01*
X155390219Y-96226977D01*
X155394727Y-96230134D01*
X155394730Y-96230136D01*
X155443907Y-96264570D01*
X155572323Y-96354488D01*
X155577305Y-96356811D01*
X155577310Y-96356814D01*
X155682373Y-96405805D01*
X155735658Y-96452722D01*
X155755119Y-96520999D01*
X155734577Y-96588959D01*
X155682373Y-96634195D01*
X155577311Y-96683186D01*
X155577306Y-96683189D01*
X155572324Y-96685512D01*
X155567817Y-96688668D01*
X155567815Y-96688669D01*
X155394730Y-96809864D01*
X155394727Y-96809866D01*
X155390219Y-96813023D01*
X155233023Y-96970219D01*
X155229866Y-96974727D01*
X155229864Y-96974730D01*
X155110625Y-97145022D01*
X155105512Y-97152324D01*
X155103189Y-97157306D01*
X155103186Y-97157311D01*
X155023131Y-97328990D01*
X155011560Y-97353804D01*
X154954022Y-97568537D01*
X154934647Y-97790000D01*
X154954022Y-98011463D01*
X154955446Y-98016776D01*
X155007726Y-98211886D01*
X155011560Y-98226196D01*
X155013882Y-98231177D01*
X155013883Y-98231178D01*
X155046838Y-98301850D01*
X155057499Y-98372042D01*
X155028519Y-98436854D01*
X154969099Y-98475711D01*
X154932643Y-98481100D01*
X142264168Y-98481100D01*
X142252985Y-98480573D01*
X142245492Y-98478898D01*
X142237566Y-98479147D01*
X142237565Y-98479147D01*
X142177402Y-98481038D01*
X142173444Y-98481100D01*
X142145544Y-98481100D01*
X142141554Y-98481604D01*
X142129720Y-98482536D01*
X142085511Y-98483926D01*
X142077895Y-98486139D01*
X142077893Y-98486139D01*
X142066052Y-98489579D01*
X142046693Y-98493588D01*
X142045383Y-98493754D01*
X142026603Y-98496126D01*
X142019237Y-98499042D01*
X142019231Y-98499044D01*
X141985498Y-98512400D01*
X141974268Y-98516245D01*
X141958228Y-98520905D01*
X141931807Y-98528581D01*
X141924984Y-98532616D01*
X141914366Y-98538895D01*
X141896613Y-98547592D01*
X141888968Y-98550619D01*
X141877783Y-98555048D01*
X141864105Y-98564986D01*
X141842012Y-98581037D01*
X141832095Y-98587551D01*
X141794038Y-98610058D01*
X141779717Y-98624379D01*
X141764684Y-98637219D01*
X141748293Y-98649128D01*
X141739617Y-98659616D01*
X141720102Y-98683205D01*
X141712112Y-98691984D01*
X139914787Y-100489309D01*
X139852475Y-100523335D01*
X139781660Y-100518270D01*
X139724824Y-100475723D01*
X139700013Y-100409203D01*
X139700171Y-100389233D01*
X139704874Y-100335475D01*
X139705353Y-100330000D01*
X139685978Y-100108537D01*
X139647503Y-99964949D01*
X139629863Y-99899114D01*
X139629862Y-99899112D01*
X139628440Y-99893804D01*
X139601362Y-99835735D01*
X139536814Y-99697311D01*
X139536811Y-99697306D01*
X139534488Y-99692324D01*
X139531331Y-99687815D01*
X139410136Y-99514730D01*
X139410134Y-99514727D01*
X139406977Y-99510219D01*
X139249781Y-99353023D01*
X139245273Y-99349866D01*
X139245270Y-99349864D01*
X139169505Y-99296813D01*
X139067677Y-99225512D01*
X139062695Y-99223189D01*
X139062690Y-99223186D01*
X138957627Y-99174195D01*
X138904342Y-99127278D01*
X138884881Y-99059001D01*
X138905423Y-98991041D01*
X138957627Y-98945805D01*
X139062690Y-98896814D01*
X139062695Y-98896811D01*
X139067677Y-98894488D01*
X139169505Y-98823187D01*
X139245270Y-98770136D01*
X139245273Y-98770134D01*
X139249781Y-98766977D01*
X139406977Y-98609781D01*
X139411417Y-98603441D01*
X139531331Y-98432185D01*
X139531332Y-98432183D01*
X139534488Y-98427676D01*
X139536811Y-98422694D01*
X139536814Y-98422689D01*
X139626117Y-98231178D01*
X139626118Y-98231177D01*
X139628440Y-98226196D01*
X139632275Y-98211886D01*
X139684554Y-98016776D01*
X139685978Y-98011463D01*
X139705353Y-97790000D01*
X139685978Y-97568537D01*
X139628440Y-97353804D01*
X139618623Y-97332751D01*
X139607961Y-97262560D01*
X139636940Y-97197747D01*
X139696359Y-97158890D01*
X139732817Y-97153500D01*
X148574533Y-97153500D01*
X148585716Y-97154027D01*
X148593209Y-97155702D01*
X148601135Y-97155453D01*
X148601136Y-97155453D01*
X148661286Y-97153562D01*
X148665245Y-97153500D01*
X148693156Y-97153500D01*
X148697091Y-97153003D01*
X148697156Y-97152995D01*
X148708993Y-97152062D01*
X148741251Y-97151048D01*
X148745270Y-97150922D01*
X148753189Y-97150673D01*
X148772643Y-97145021D01*
X148792000Y-97141013D01*
X148804230Y-97139468D01*
X148804231Y-97139468D01*
X148812097Y-97138474D01*
X148819468Y-97135555D01*
X148819470Y-97135555D01*
X148853212Y-97122196D01*
X148864442Y-97118351D01*
X148899283Y-97108229D01*
X148899284Y-97108229D01*
X148906893Y-97106018D01*
X148913712Y-97101985D01*
X148913717Y-97101983D01*
X148924328Y-97095707D01*
X148942076Y-97087012D01*
X148960917Y-97079552D01*
X148996687Y-97053564D01*
X149006607Y-97047048D01*
X149037835Y-97028580D01*
X149037838Y-97028578D01*
X149044662Y-97024542D01*
X149058983Y-97010221D01*
X149074017Y-96997380D01*
X149083994Y-96990131D01*
X149090407Y-96985472D01*
X149118598Y-96951395D01*
X149126588Y-96942616D01*
X162258470Y-83810735D01*
X162320782Y-83776709D01*
X162391597Y-83781774D01*
X162448433Y-83824321D01*
X162473356Y-83892577D01*
X162480110Y-84009715D01*
X162481247Y-84014761D01*
X162481248Y-84014767D01*
X162501119Y-84102939D01*
X162529222Y-84227639D01*
X162613266Y-84434616D01*
X162729987Y-84625088D01*
X162876250Y-84793938D01*
X163048126Y-84936632D01*
X163118595Y-84977811D01*
X163121445Y-84979476D01*
X163170169Y-85031114D01*
X163183240Y-85100897D01*
X163156509Y-85166669D01*
X163116055Y-85200027D01*
X163103607Y-85206507D01*
X163099474Y-85209610D01*
X163099471Y-85209612D01*
X163075247Y-85227800D01*
X162924965Y-85340635D01*
X162770629Y-85502138D01*
X162644743Y-85686680D01*
X162550688Y-85889305D01*
X162490989Y-86104570D01*
X162467251Y-86326695D01*
X162467548Y-86331848D01*
X162467548Y-86331851D01*
X162472857Y-86423919D01*
X162480110Y-86549715D01*
X162481247Y-86554761D01*
X162481248Y-86554767D01*
X162501119Y-86642939D01*
X162529222Y-86767639D01*
X162613266Y-86974616D01*
X162637673Y-87014444D01*
X162722347Y-87152620D01*
X162729987Y-87165088D01*
X162876250Y-87333938D01*
X163048126Y-87476632D01*
X163118595Y-87517811D01*
X163121445Y-87519476D01*
X163170169Y-87571114D01*
X163183240Y-87640897D01*
X163156509Y-87706669D01*
X163116055Y-87740027D01*
X163103607Y-87746507D01*
X163099474Y-87749610D01*
X163099471Y-87749612D01*
X163075247Y-87767800D01*
X162924965Y-87880635D01*
X162770629Y-88042138D01*
X162644743Y-88226680D01*
X162550688Y-88429305D01*
X162490989Y-88644570D01*
X162467251Y-88866695D01*
X162467548Y-88871848D01*
X162467548Y-88871851D01*
X162476932Y-89034598D01*
X162480110Y-89089715D01*
X162481247Y-89094761D01*
X162481248Y-89094767D01*
X162501119Y-89182939D01*
X162529222Y-89307639D01*
X162613266Y-89514616D01*
X162637673Y-89554444D01*
X162718778Y-89686796D01*
X162729987Y-89705088D01*
X162876250Y-89873938D01*
X162880225Y-89877238D01*
X162880231Y-89877244D01*
X162885425Y-89881556D01*
X162925059Y-89940460D01*
X162926555Y-90011441D01*
X162889439Y-90071962D01*
X162849168Y-90096480D01*
X162741946Y-90136676D01*
X162726351Y-90145214D01*
X162624276Y-90221715D01*
X162611715Y-90234276D01*
X162535214Y-90336351D01*
X162526676Y-90351946D01*
X162481522Y-90472394D01*
X162477895Y-90487649D01*
X162472369Y-90538514D01*
X162472000Y-90545328D01*
X162472000Y-91167885D01*
X162476475Y-91183124D01*
X162477865Y-91184329D01*
X162485548Y-91186000D01*
X163958000Y-91186000D01*
X164026121Y-91206002D01*
X164072614Y-91259658D01*
X164084000Y-91312000D01*
X164084000Y-92779884D01*
X164088475Y-92795123D01*
X164089865Y-92796328D01*
X164097548Y-92797999D01*
X164245800Y-92797999D01*
X164313921Y-92818001D01*
X164360414Y-92871657D01*
X164371800Y-92923999D01*
X164371800Y-94489805D01*
X164351798Y-94557926D01*
X164334896Y-94578900D01*
X164197129Y-94716666D01*
X164072742Y-94841053D01*
X164064463Y-94848587D01*
X164057982Y-94852700D01*
X164035632Y-94876501D01*
X164011357Y-94902351D01*
X164008602Y-94905193D01*
X163988865Y-94924930D01*
X163986385Y-94928127D01*
X163978682Y-94937147D01*
X163948414Y-94969379D01*
X163944595Y-94976325D01*
X163944593Y-94976328D01*
X163938652Y-94987134D01*
X163927801Y-95003653D01*
X163915386Y-95019659D01*
X163912241Y-95026928D01*
X163912238Y-95026932D01*
X163897826Y-95060237D01*
X163892604Y-95070896D01*
X163878694Y-95096199D01*
X163828350Y-95146259D01*
X163768279Y-95161500D01*
X163566866Y-95161500D01*
X163504684Y-95168255D01*
X163368295Y-95219385D01*
X163251739Y-95306739D01*
X163164385Y-95423295D01*
X163113255Y-95559684D01*
X163106500Y-95621866D01*
X163106500Y-97418134D01*
X163113255Y-97480316D01*
X163164385Y-97616705D01*
X163251739Y-97733261D01*
X163368295Y-97820615D01*
X163504684Y-97871745D01*
X163566866Y-97878500D01*
X165363134Y-97878500D01*
X165425316Y-97871745D01*
X165561705Y-97820615D01*
X165678261Y-97733261D01*
X165765615Y-97616705D01*
X165783379Y-97569320D01*
X165809798Y-97498848D01*
X165852440Y-97442084D01*
X165919001Y-97417384D01*
X165988350Y-97432592D01*
X166023017Y-97460580D01*
X166048218Y-97489673D01*
X166055580Y-97496883D01*
X166219434Y-97632916D01*
X166227881Y-97638831D01*
X166411756Y-97746279D01*
X166421042Y-97750729D01*
X166620001Y-97826703D01*
X166629899Y-97829579D01*
X166733250Y-97850606D01*
X166747299Y-97849410D01*
X166751000Y-97839065D01*
X166751000Y-95203102D01*
X166747082Y-95189758D01*
X166732806Y-95187771D01*
X166694324Y-95193660D01*
X166684288Y-95196051D01*
X166481868Y-95262212D01*
X166472359Y-95266209D01*
X166283463Y-95364542D01*
X166274738Y-95370036D01*
X166104433Y-95497905D01*
X166096726Y-95504748D01*
X166019478Y-95585584D01*
X165957954Y-95621014D01*
X165887042Y-95617557D01*
X165829255Y-95576311D01*
X165810402Y-95542763D01*
X165768767Y-95431703D01*
X165765615Y-95423295D01*
X165678261Y-95306739D01*
X165606739Y-95253136D01*
X165564227Y-95196280D01*
X165559201Y-95125462D01*
X165566667Y-95102280D01*
X165572474Y-95088860D01*
X165577691Y-95078212D01*
X165595175Y-95046409D01*
X165595176Y-95046407D01*
X165598995Y-95039460D01*
X165604033Y-95019837D01*
X165610437Y-95001134D01*
X165615333Y-94989820D01*
X165615333Y-94989819D01*
X165618481Y-94982545D01*
X165619720Y-94974722D01*
X165619723Y-94974712D01*
X165625399Y-94938876D01*
X165627805Y-94927256D01*
X165636828Y-94892111D01*
X165636828Y-94892110D01*
X165638800Y-94884430D01*
X165638800Y-94864176D01*
X165640351Y-94844465D01*
X165642280Y-94832286D01*
X165643520Y-94824457D01*
X165639359Y-94780438D01*
X165638800Y-94768581D01*
X165638800Y-90521267D01*
X165639327Y-90510084D01*
X165641002Y-90502591D01*
X165639603Y-90458069D01*
X165638862Y-90434514D01*
X165638800Y-90430555D01*
X165638800Y-90402644D01*
X165638295Y-90398644D01*
X165637362Y-90386801D01*
X165636222Y-90350529D01*
X165635973Y-90342610D01*
X165630322Y-90323158D01*
X165626314Y-90303806D01*
X165624767Y-90291563D01*
X165623774Y-90283703D01*
X165620856Y-90276332D01*
X165607500Y-90242597D01*
X165603655Y-90231370D01*
X165598641Y-90214113D01*
X165591318Y-90188907D01*
X165587284Y-90182085D01*
X165587281Y-90182079D01*
X165581006Y-90171468D01*
X165572310Y-90153718D01*
X165567772Y-90142256D01*
X165567769Y-90142251D01*
X165564852Y-90134883D01*
X165538873Y-90099125D01*
X165532357Y-90089207D01*
X165513875Y-90057957D01*
X165509842Y-90051137D01*
X165495518Y-90036813D01*
X165482676Y-90021778D01*
X165470772Y-90005393D01*
X165436706Y-89977211D01*
X165427927Y-89969222D01*
X165141752Y-89683047D01*
X165134212Y-89674761D01*
X165130100Y-89668282D01*
X165122798Y-89661425D01*
X165085925Y-89626799D01*
X165049960Y-89565586D01*
X165052797Y-89494647D01*
X165059220Y-89479123D01*
X165095138Y-89406448D01*
X165097430Y-89401811D01*
X165162370Y-89188069D01*
X165191529Y-88966590D01*
X165193156Y-88900000D01*
X165174852Y-88677361D01*
X165120431Y-88460702D01*
X165031354Y-88255840D01*
X164910014Y-88068277D01*
X164759670Y-87903051D01*
X164755619Y-87899852D01*
X164755615Y-87899848D01*
X164588414Y-87767800D01*
X164588410Y-87767798D01*
X164584359Y-87764598D01*
X164543053Y-87741796D01*
X164493084Y-87691364D01*
X164478312Y-87621921D01*
X164503428Y-87555516D01*
X164530780Y-87528909D01*
X164574603Y-87497650D01*
X164709860Y-87401173D01*
X164868096Y-87243489D01*
X164927594Y-87160689D01*
X164995435Y-87066277D01*
X164998453Y-87062077D01*
X165008490Y-87041770D01*
X165095136Y-86866453D01*
X165095137Y-86866451D01*
X165097430Y-86861811D01*
X165162370Y-86648069D01*
X165191529Y-86426590D01*
X165193156Y-86360000D01*
X165174852Y-86137361D01*
X165120431Y-85920702D01*
X165031354Y-85715840D01*
X164910014Y-85528277D01*
X164759670Y-85363051D01*
X164755619Y-85359852D01*
X164755615Y-85359848D01*
X164588414Y-85227800D01*
X164588410Y-85227798D01*
X164584359Y-85224598D01*
X164543053Y-85201796D01*
X164493084Y-85151364D01*
X164478312Y-85081921D01*
X164503428Y-85015516D01*
X164530780Y-84988909D01*
X164574603Y-84957650D01*
X164709860Y-84861173D01*
X164868096Y-84703489D01*
X164927594Y-84620689D01*
X164995435Y-84526277D01*
X164998453Y-84522077D01*
X165097430Y-84321811D01*
X165162370Y-84108069D01*
X165191529Y-83886590D01*
X165191611Y-83883240D01*
X165193074Y-83823365D01*
X165193074Y-83823361D01*
X165193156Y-83820000D01*
X165174852Y-83597361D01*
X165120431Y-83380702D01*
X165031354Y-83175840D01*
X164910014Y-82988277D01*
X164759670Y-82823051D01*
X164755619Y-82819852D01*
X164755615Y-82819848D01*
X164588414Y-82687800D01*
X164588410Y-82687798D01*
X164584359Y-82684598D01*
X164388789Y-82576638D01*
X164383920Y-82574914D01*
X164383916Y-82574912D01*
X164183087Y-82503795D01*
X164183083Y-82503794D01*
X164178212Y-82502069D01*
X164173119Y-82501162D01*
X164173116Y-82501161D01*
X163963373Y-82463800D01*
X163963367Y-82463799D01*
X163958284Y-82462894D01*
X163909548Y-82462299D01*
X163841677Y-82441466D01*
X163795843Y-82387247D01*
X163786598Y-82316855D01*
X163816877Y-82252639D01*
X163821992Y-82247213D01*
X164378000Y-81691205D01*
X164440312Y-81657179D01*
X164467095Y-81654300D01*
X199030433Y-81654300D01*
X199041616Y-81654827D01*
X199049109Y-81656502D01*
X199057035Y-81656253D01*
X199057036Y-81656253D01*
X199117186Y-81654362D01*
X199121145Y-81654300D01*
X199149056Y-81654300D01*
X199152991Y-81653803D01*
X199153056Y-81653795D01*
X199164893Y-81652862D01*
X199197151Y-81651848D01*
X199201170Y-81651722D01*
X199209089Y-81651473D01*
X199228543Y-81645821D01*
X199247900Y-81641813D01*
X199260130Y-81640268D01*
X199260131Y-81640268D01*
X199267997Y-81639274D01*
X199275368Y-81636355D01*
X199275370Y-81636355D01*
X199309112Y-81622996D01*
X199320342Y-81619151D01*
X199355183Y-81609029D01*
X199355184Y-81609029D01*
X199362793Y-81606818D01*
X199369612Y-81602785D01*
X199369617Y-81602783D01*
X199380228Y-81596507D01*
X199397976Y-81587812D01*
X199416817Y-81580352D01*
X199452587Y-81554364D01*
X199462507Y-81547848D01*
X199493735Y-81529380D01*
X199493738Y-81529378D01*
X199500562Y-81525342D01*
X199514883Y-81511021D01*
X199529917Y-81498180D01*
X199539894Y-81490931D01*
X199546307Y-81486272D01*
X199574498Y-81452195D01*
X199582488Y-81443416D01*
X200446870Y-80579034D01*
X200509182Y-80545008D01*
X200563772Y-80545236D01*
X200599860Y-80553402D01*
X200605628Y-80553629D01*
X200605631Y-80553629D01*
X200695474Y-80557158D01*
X200817205Y-80561941D01*
X201032466Y-80530730D01*
X201037930Y-80528875D01*
X201037935Y-80528874D01*
X201232963Y-80462671D01*
X201232968Y-80462669D01*
X201238435Y-80460813D01*
X201243489Y-80457983D01*
X201323345Y-80413261D01*
X201428213Y-80354532D01*
X201595446Y-80215446D01*
X201707126Y-80081165D01*
X201766063Y-80041581D01*
X201837045Y-80040144D01*
X201897536Y-80077312D01*
G37*
%TD.AperFunction*%
%TA.AperFunction,Conductor*%
G36*
X196068621Y-88283502D02*
G01*
X196115114Y-88337158D01*
X196126500Y-88389500D01*
X196126500Y-88528134D01*
X196133255Y-88590316D01*
X196184385Y-88726705D01*
X196271739Y-88843261D01*
X196388295Y-88930615D01*
X196396704Y-88933767D01*
X196396705Y-88933768D01*
X196505451Y-88974535D01*
X196562216Y-89017176D01*
X196586916Y-89083738D01*
X196571709Y-89153087D01*
X196552316Y-89179568D01*
X196434748Y-89302596D01*
X196425629Y-89312138D01*
X196422715Y-89316410D01*
X196422714Y-89316411D01*
X196310095Y-89481504D01*
X196255184Y-89526507D01*
X196206007Y-89536500D01*
X189934363Y-89536500D01*
X189923179Y-89535973D01*
X189915691Y-89534299D01*
X189907768Y-89534548D01*
X189847633Y-89536438D01*
X189843675Y-89536500D01*
X189815744Y-89536500D01*
X189811829Y-89536995D01*
X189811825Y-89536995D01*
X189811767Y-89537003D01*
X189811738Y-89537006D01*
X189799896Y-89537939D01*
X189755710Y-89539327D01*
X189738344Y-89544372D01*
X189736258Y-89544978D01*
X189716906Y-89548986D01*
X189709835Y-89549880D01*
X189696803Y-89551526D01*
X189689434Y-89554443D01*
X189689432Y-89554444D01*
X189655697Y-89567800D01*
X189644469Y-89571645D01*
X189602007Y-89583982D01*
X189595185Y-89588016D01*
X189595179Y-89588019D01*
X189584568Y-89594294D01*
X189566818Y-89602990D01*
X189555356Y-89607528D01*
X189555351Y-89607531D01*
X189547983Y-89610448D01*
X189541568Y-89615109D01*
X189512225Y-89636427D01*
X189502307Y-89642943D01*
X189483619Y-89653995D01*
X189464237Y-89665458D01*
X189449913Y-89679782D01*
X189434881Y-89692621D01*
X189418493Y-89704528D01*
X189400768Y-89725954D01*
X189390312Y-89738593D01*
X189382322Y-89747373D01*
X183181761Y-95947934D01*
X183119449Y-95981960D01*
X183048634Y-95976895D01*
X182991798Y-95934348D01*
X182967054Y-95868725D01*
X182954428Y-95708301D01*
X182952885Y-95698554D01*
X182899783Y-95477373D01*
X182896734Y-95467988D01*
X182809687Y-95257837D01*
X182805205Y-95249042D01*
X182702568Y-95081555D01*
X182692110Y-95072093D01*
X182683334Y-95075876D01*
X181549095Y-96210115D01*
X181486783Y-96244141D01*
X181415968Y-96239076D01*
X181370905Y-96210115D01*
X180239710Y-95078920D01*
X180227330Y-95072160D01*
X180219680Y-95077887D01*
X180114795Y-95249042D01*
X180110313Y-95257837D01*
X180023266Y-95467988D01*
X180020217Y-95477373D01*
X179967115Y-95698554D01*
X179965572Y-95708301D01*
X179947725Y-95935070D01*
X179947725Y-95944930D01*
X179965572Y-96171699D01*
X179967115Y-96181446D01*
X180020217Y-96402627D01*
X180023266Y-96412012D01*
X180110313Y-96622163D01*
X180114795Y-96630958D01*
X180233643Y-96824899D01*
X180239442Y-96832882D01*
X180257453Y-96853970D01*
X180286483Y-96918760D01*
X180275878Y-96988960D01*
X180229003Y-97042282D01*
X180161641Y-97061800D01*
X178590249Y-97061800D01*
X178522128Y-97041798D01*
X178475635Y-96988142D01*
X178465531Y-96917868D01*
X178469691Y-96899171D01*
X178495865Y-96813023D01*
X178495865Y-96813021D01*
X178497370Y-96808069D01*
X178526529Y-96586590D01*
X178527098Y-96563314D01*
X178528074Y-96523365D01*
X178528074Y-96523361D01*
X178528156Y-96520000D01*
X178509852Y-96297361D01*
X178455431Y-96080702D01*
X178366354Y-95875840D01*
X178302817Y-95777627D01*
X178247822Y-95692617D01*
X178247820Y-95692614D01*
X178245014Y-95688277D01*
X178094670Y-95523051D01*
X178090619Y-95519852D01*
X178090615Y-95519848D01*
X177923414Y-95387800D01*
X177923410Y-95387798D01*
X177919359Y-95384598D01*
X177914835Y-95382100D01*
X177914831Y-95382098D01*
X177772810Y-95303698D01*
X177722840Y-95253266D01*
X177708068Y-95183823D01*
X177733184Y-95117418D01*
X177744609Y-95104295D01*
X178141014Y-94707890D01*
X180592093Y-94707890D01*
X180595876Y-94716666D01*
X181447188Y-95567978D01*
X181461132Y-95575592D01*
X181462965Y-95575461D01*
X181469580Y-95571210D01*
X182321080Y-94719710D01*
X182327840Y-94707330D01*
X182322113Y-94699680D01*
X182150958Y-94594795D01*
X182142163Y-94590313D01*
X181932012Y-94503266D01*
X181922627Y-94500217D01*
X181701446Y-94447115D01*
X181691699Y-94445572D01*
X181464930Y-94427725D01*
X181455070Y-94427725D01*
X181228301Y-94445572D01*
X181218554Y-94447115D01*
X180997373Y-94500217D01*
X180987988Y-94503266D01*
X180777837Y-94590313D01*
X180769042Y-94594795D01*
X180601555Y-94697432D01*
X180592093Y-94707890D01*
X178141014Y-94707890D01*
X181111985Y-91736920D01*
X184548500Y-88300405D01*
X184610812Y-88266379D01*
X184637595Y-88263500D01*
X196000500Y-88263500D01*
X196068621Y-88283502D01*
G37*
%TD.AperFunction*%
%TA.AperFunction,Conductor*%
G36*
X200739225Y-73031687D02*
G01*
X200794600Y-73050484D01*
X200809827Y-73056791D01*
X201033342Y-73167016D01*
X201047616Y-73175257D01*
X201254829Y-73313713D01*
X201267905Y-73323746D01*
X201455278Y-73488068D01*
X201466932Y-73499722D01*
X201631254Y-73687095D01*
X201641287Y-73700171D01*
X201779743Y-73907384D01*
X201787984Y-73921658D01*
X201898209Y-74145173D01*
X201904516Y-74160400D01*
X201923313Y-74215775D01*
X201930000Y-74256276D01*
X201930000Y-78591029D01*
X201909998Y-78659150D01*
X201856342Y-78705643D01*
X201786068Y-78715747D01*
X201721488Y-78686253D01*
X201703042Y-78666418D01*
X201641733Y-78584315D01*
X201641732Y-78584314D01*
X201638280Y-78579691D01*
X201478556Y-78432044D01*
X201445436Y-78411146D01*
X201398499Y-78357882D01*
X201386734Y-78308543D01*
X201386474Y-78300246D01*
X201385674Y-78274811D01*
X201383462Y-78267197D01*
X201383461Y-78267192D01*
X201380023Y-78255359D01*
X201376012Y-78235995D01*
X201374467Y-78223764D01*
X201373474Y-78215903D01*
X201370557Y-78208536D01*
X201370556Y-78208531D01*
X201357198Y-78174792D01*
X201353354Y-78163565D01*
X201351232Y-78156261D01*
X201341018Y-78121107D01*
X201330707Y-78103672D01*
X201322012Y-78085924D01*
X201314552Y-78067083D01*
X201309477Y-78060097D01*
X201288564Y-78031313D01*
X201282048Y-78021393D01*
X201271105Y-78002890D01*
X201259542Y-77983338D01*
X201253936Y-77977731D01*
X201245220Y-77969015D01*
X201232379Y-77953981D01*
X201225131Y-77944005D01*
X201225130Y-77944004D01*
X201220472Y-77937593D01*
X201186407Y-77909412D01*
X201177627Y-77901423D01*
X201050704Y-77774499D01*
X201016679Y-77712187D01*
X201013800Y-77685404D01*
X201013800Y-77147793D01*
X201016032Y-77124184D01*
X201016090Y-77123881D01*
X201016090Y-77123877D01*
X201017575Y-77116094D01*
X201014049Y-77060049D01*
X201013800Y-77052138D01*
X201013800Y-77036144D01*
X201011794Y-77020270D01*
X201011051Y-77012402D01*
X201008023Y-76964263D01*
X201008023Y-76964262D01*
X201007525Y-76956350D01*
X201004979Y-76948513D01*
X200999806Y-76925369D01*
X200999768Y-76925065D01*
X200999767Y-76925060D01*
X200998774Y-76917203D01*
X200995858Y-76909838D01*
X200995857Y-76909834D01*
X200978101Y-76864989D01*
X200975429Y-76857570D01*
X200958064Y-76804125D01*
X200953814Y-76797428D01*
X200953650Y-76797169D01*
X200942885Y-76776042D01*
X200942771Y-76775754D01*
X200942768Y-76775749D01*
X200939852Y-76768383D01*
X200935196Y-76761975D01*
X200935193Y-76761969D01*
X200906842Y-76722948D01*
X200902392Y-76716401D01*
X200872300Y-76668982D01*
X200866293Y-76663341D01*
X200850612Y-76645554D01*
X200850434Y-76645309D01*
X200850432Y-76645307D01*
X200845772Y-76638893D01*
X200824162Y-76621015D01*
X200802504Y-76603097D01*
X200796570Y-76597866D01*
X200761402Y-76564842D01*
X200761399Y-76564840D01*
X200755621Y-76559414D01*
X200748397Y-76555442D01*
X200728794Y-76542119D01*
X200728554Y-76541920D01*
X200728547Y-76541916D01*
X200722444Y-76536867D01*
X200671624Y-76512953D01*
X200664592Y-76509371D01*
X200615360Y-76482305D01*
X200607687Y-76480335D01*
X200606288Y-76479781D01*
X200550315Y-76436105D01*
X200534693Y-76406860D01*
X200508768Y-76337705D01*
X200508767Y-76337703D01*
X200505615Y-76329295D01*
X200418261Y-76212739D01*
X200301705Y-76125385D01*
X200165316Y-76074255D01*
X200103134Y-76067500D01*
X199306866Y-76067500D01*
X199244684Y-76074255D01*
X199108295Y-76125385D01*
X198991739Y-76212739D01*
X198904385Y-76329295D01*
X198901233Y-76337703D01*
X198872982Y-76413062D01*
X198830340Y-76469826D01*
X198763779Y-76494526D01*
X198694430Y-76479319D01*
X198644312Y-76429033D01*
X198637018Y-76413062D01*
X198608767Y-76337703D01*
X198605615Y-76329295D01*
X198518261Y-76212739D01*
X198401705Y-76125385D01*
X198265316Y-76074255D01*
X198203134Y-76067500D01*
X197406866Y-76067500D01*
X197344684Y-76074255D01*
X197208295Y-76125385D01*
X197091739Y-76212739D01*
X197004385Y-76329295D01*
X196953255Y-76465684D01*
X196946500Y-76527866D01*
X196946500Y-77624134D01*
X196953255Y-77686316D01*
X197004385Y-77822705D01*
X197091739Y-77939261D01*
X197125649Y-77964675D01*
X197168162Y-78021534D01*
X197173187Y-78092353D01*
X197139127Y-78154646D01*
X197076796Y-78188636D01*
X197050082Y-78191500D01*
X196031866Y-78191500D01*
X195969684Y-78198255D01*
X195833295Y-78249385D01*
X195716739Y-78336739D01*
X195629385Y-78453295D01*
X195578255Y-78589684D01*
X195571500Y-78651866D01*
X195571500Y-78676836D01*
X195551498Y-78744957D01*
X195500622Y-78788160D01*
X195501108Y-78788981D01*
X195496324Y-78791810D01*
X195496321Y-78791812D01*
X195494284Y-78793017D01*
X195494282Y-78793018D01*
X195483672Y-78799293D01*
X195465924Y-78807988D01*
X195447083Y-78815448D01*
X195440667Y-78820110D01*
X195440666Y-78820110D01*
X195411313Y-78841436D01*
X195401393Y-78847952D01*
X195370165Y-78866420D01*
X195370162Y-78866422D01*
X195363338Y-78870458D01*
X195349017Y-78884779D01*
X195333984Y-78897619D01*
X195317593Y-78909528D01*
X195312543Y-78915632D01*
X195312538Y-78915637D01*
X195289407Y-78943598D01*
X195281417Y-78952379D01*
X194528899Y-79704896D01*
X194466587Y-79738921D01*
X194439804Y-79741800D01*
X181723364Y-79741800D01*
X181655243Y-79721798D01*
X181608750Y-79668142D01*
X181598668Y-79597720D01*
X181621408Y-79440879D01*
X181621941Y-79437205D01*
X181623570Y-79375000D01*
X181603667Y-79158400D01*
X181544626Y-78949055D01*
X181448423Y-78753974D01*
X181397854Y-78686253D01*
X181321733Y-78584315D01*
X181321732Y-78584314D01*
X181318280Y-78579691D01*
X181158556Y-78432044D01*
X181125436Y-78411146D01*
X181078499Y-78357882D01*
X181066734Y-78308543D01*
X181066474Y-78300246D01*
X181065674Y-78274811D01*
X181063462Y-78267197D01*
X181063461Y-78267192D01*
X181060023Y-78255359D01*
X181056012Y-78235995D01*
X181054467Y-78223764D01*
X181053474Y-78215903D01*
X181050557Y-78208536D01*
X181050556Y-78208531D01*
X181037198Y-78174792D01*
X181033354Y-78163565D01*
X181031232Y-78156261D01*
X181021018Y-78121107D01*
X181010707Y-78103672D01*
X181002012Y-78085924D01*
X180997447Y-78074394D01*
X187720314Y-78074394D01*
X187729143Y-78086014D01*
X187933970Y-78234830D01*
X187940650Y-78239070D01*
X188199234Y-78381228D01*
X188206369Y-78384585D01*
X188480746Y-78493219D01*
X188488237Y-78495653D01*
X188774059Y-78569039D01*
X188781830Y-78570521D01*
X189074570Y-78607503D01*
X189082460Y-78608000D01*
X189377540Y-78608000D01*
X189385430Y-78607503D01*
X189678170Y-78570521D01*
X189685941Y-78569039D01*
X189971763Y-78495653D01*
X189979254Y-78493219D01*
X190253631Y-78384585D01*
X190260766Y-78381228D01*
X190519350Y-78239070D01*
X190526030Y-78234830D01*
X190731230Y-78085744D01*
X190739653Y-78074821D01*
X190732749Y-78061960D01*
X189242810Y-76572020D01*
X189228869Y-76564408D01*
X189227034Y-76564539D01*
X189220420Y-76568790D01*
X187726927Y-78062284D01*
X187720314Y-78074394D01*
X180997447Y-78074394D01*
X180994552Y-78067083D01*
X180989477Y-78060097D01*
X180968564Y-78031313D01*
X180962048Y-78021393D01*
X180951105Y-78002890D01*
X180939542Y-77983338D01*
X180933936Y-77977731D01*
X180925220Y-77969015D01*
X180912379Y-77953981D01*
X180905131Y-77944005D01*
X180905130Y-77944004D01*
X180900472Y-77937593D01*
X180866407Y-77909412D01*
X180857627Y-77901423D01*
X180730704Y-77774499D01*
X180696679Y-77712187D01*
X180693800Y-77685404D01*
X180693800Y-77147793D01*
X180696032Y-77124184D01*
X180696090Y-77123881D01*
X180696090Y-77123877D01*
X180697575Y-77116094D01*
X180694049Y-77060049D01*
X180693800Y-77052138D01*
X180693800Y-77036144D01*
X180691794Y-77020270D01*
X180691051Y-77012402D01*
X180688023Y-76964263D01*
X180688023Y-76964262D01*
X180687525Y-76956350D01*
X180684979Y-76948513D01*
X180679806Y-76925369D01*
X180679768Y-76925065D01*
X180679767Y-76925060D01*
X180678774Y-76917203D01*
X180675858Y-76909838D01*
X180675857Y-76909834D01*
X180658101Y-76864989D01*
X180655429Y-76857570D01*
X180638064Y-76804125D01*
X180633814Y-76797428D01*
X180633650Y-76797169D01*
X180622885Y-76776042D01*
X180622771Y-76775754D01*
X180622768Y-76775749D01*
X180619852Y-76768383D01*
X180615196Y-76761975D01*
X180615193Y-76761969D01*
X180586842Y-76722948D01*
X180582392Y-76716401D01*
X180552300Y-76668982D01*
X180546293Y-76663341D01*
X180530612Y-76645554D01*
X180530434Y-76645309D01*
X180530432Y-76645307D01*
X180525772Y-76638893D01*
X180504162Y-76621015D01*
X180482504Y-76603097D01*
X180476570Y-76597866D01*
X180441402Y-76564842D01*
X180441399Y-76564840D01*
X180435621Y-76559414D01*
X180428397Y-76555442D01*
X180408794Y-76542119D01*
X180408554Y-76541920D01*
X180408547Y-76541916D01*
X180402444Y-76536867D01*
X180351624Y-76512953D01*
X180344592Y-76509371D01*
X180295360Y-76482305D01*
X180287687Y-76480335D01*
X180286288Y-76479781D01*
X180230315Y-76436105D01*
X180214693Y-76406860D01*
X180188768Y-76337705D01*
X180188767Y-76337703D01*
X180185615Y-76329295D01*
X180098261Y-76212739D01*
X180086545Y-76203958D01*
X186817488Y-76203958D01*
X186836015Y-76498436D01*
X186837008Y-76506297D01*
X186892296Y-76796128D01*
X186894267Y-76803805D01*
X186985446Y-77084424D01*
X186988361Y-77091787D01*
X187113993Y-77358770D01*
X187117805Y-77365703D01*
X187275909Y-77614835D01*
X187280563Y-77621241D01*
X187345521Y-77699761D01*
X187358040Y-77708217D01*
X187368778Y-77702011D01*
X188857980Y-76212810D01*
X188864357Y-76201131D01*
X189594408Y-76201131D01*
X189594539Y-76202966D01*
X189598790Y-76209580D01*
X191090119Y-77700908D01*
X191103381Y-77708150D01*
X191113485Y-77700962D01*
X191179437Y-77621241D01*
X191184091Y-77614835D01*
X191342195Y-77365703D01*
X191346007Y-77358770D01*
X191471639Y-77091787D01*
X191474554Y-77084424D01*
X191565733Y-76803805D01*
X191567704Y-76796128D01*
X191622992Y-76506297D01*
X191623985Y-76498436D01*
X191642512Y-76203958D01*
X191642512Y-76196042D01*
X191623985Y-75901564D01*
X191622992Y-75893703D01*
X191567704Y-75603872D01*
X191565733Y-75596195D01*
X191474554Y-75315576D01*
X191471639Y-75308213D01*
X191430444Y-75220669D01*
X197897001Y-75220669D01*
X197897371Y-75227490D01*
X197902895Y-75278352D01*
X197906521Y-75293604D01*
X197951676Y-75414054D01*
X197960214Y-75429649D01*
X198036715Y-75531724D01*
X198049276Y-75544285D01*
X198151351Y-75620786D01*
X198166946Y-75629324D01*
X198287394Y-75674478D01*
X198302649Y-75678105D01*
X198353514Y-75683631D01*
X198360328Y-75684000D01*
X198482885Y-75684000D01*
X198498124Y-75679525D01*
X198499329Y-75678135D01*
X198501000Y-75670452D01*
X198501000Y-75665884D01*
X199009000Y-75665884D01*
X199013475Y-75681123D01*
X199014865Y-75682328D01*
X199022548Y-75683999D01*
X199149669Y-75683999D01*
X199156490Y-75683629D01*
X199207352Y-75678105D01*
X199222604Y-75674479D01*
X199343054Y-75629324D01*
X199358649Y-75620786D01*
X199460724Y-75544285D01*
X199473285Y-75531724D01*
X199549786Y-75429649D01*
X199558324Y-75414054D01*
X199603478Y-75293606D01*
X199607105Y-75278351D01*
X199612631Y-75227486D01*
X199613000Y-75220672D01*
X199613000Y-74948115D01*
X199608525Y-74932876D01*
X199607135Y-74931671D01*
X199599452Y-74930000D01*
X199027115Y-74930000D01*
X199011876Y-74934475D01*
X199010671Y-74935865D01*
X199009000Y-74943548D01*
X199009000Y-75665884D01*
X198501000Y-75665884D01*
X198501000Y-74948115D01*
X198496525Y-74932876D01*
X198495135Y-74931671D01*
X198487452Y-74930000D01*
X197915116Y-74930000D01*
X197899877Y-74934475D01*
X197898672Y-74935865D01*
X197897001Y-74943548D01*
X197897001Y-75220669D01*
X191430444Y-75220669D01*
X191346007Y-75041230D01*
X191342195Y-75034297D01*
X191184091Y-74785165D01*
X191179437Y-74778759D01*
X191114479Y-74700239D01*
X191101960Y-74691783D01*
X191091222Y-74697989D01*
X189602020Y-76187190D01*
X189594408Y-76201131D01*
X188864357Y-76201131D01*
X188865592Y-76198869D01*
X188865461Y-76197034D01*
X188861210Y-76190420D01*
X187369881Y-74699092D01*
X187356619Y-74691850D01*
X187346515Y-74699038D01*
X187280563Y-74778759D01*
X187275909Y-74785165D01*
X187117805Y-75034297D01*
X187113993Y-75041230D01*
X186988361Y-75308213D01*
X186985446Y-75315576D01*
X186894267Y-75596195D01*
X186892296Y-75603872D01*
X186837008Y-75893703D01*
X186836015Y-75901564D01*
X186817488Y-76196042D01*
X186817488Y-76203958D01*
X180086545Y-76203958D01*
X179981705Y-76125385D01*
X179845316Y-76074255D01*
X179783134Y-76067500D01*
X178986866Y-76067500D01*
X178924684Y-76074255D01*
X178788295Y-76125385D01*
X178671739Y-76212739D01*
X178584385Y-76329295D01*
X178581233Y-76337703D01*
X178552982Y-76413062D01*
X178510340Y-76469826D01*
X178443779Y-76494526D01*
X178374430Y-76479319D01*
X178324312Y-76429033D01*
X178317018Y-76413062D01*
X178288767Y-76337703D01*
X178285615Y-76329295D01*
X178198261Y-76212739D01*
X178081705Y-76125385D01*
X177945316Y-76074255D01*
X177883134Y-76067500D01*
X177086866Y-76067500D01*
X177024684Y-76074255D01*
X176888295Y-76125385D01*
X176771739Y-76212739D01*
X176684385Y-76329295D01*
X176633255Y-76465684D01*
X176626500Y-76527866D01*
X176626500Y-77624134D01*
X176633255Y-77686316D01*
X176684385Y-77822705D01*
X176771739Y-77939261D01*
X176805649Y-77964675D01*
X176848162Y-78021534D01*
X176853187Y-78092353D01*
X176819127Y-78154646D01*
X176756796Y-78188636D01*
X176730082Y-78191500D01*
X175711866Y-78191500D01*
X175649684Y-78198255D01*
X175513295Y-78249385D01*
X175396739Y-78336739D01*
X175309385Y-78453295D01*
X175258255Y-78589684D01*
X175251500Y-78651866D01*
X175251500Y-78676836D01*
X175231498Y-78744957D01*
X175180622Y-78788160D01*
X175181108Y-78788981D01*
X175176324Y-78791810D01*
X175176321Y-78791812D01*
X175174284Y-78793017D01*
X175174282Y-78793018D01*
X175163672Y-78799293D01*
X175145924Y-78807988D01*
X175127083Y-78815448D01*
X175120667Y-78820110D01*
X175120666Y-78820110D01*
X175091313Y-78841436D01*
X175081393Y-78847952D01*
X175050165Y-78866420D01*
X175050162Y-78866422D01*
X175043338Y-78870458D01*
X175029017Y-78884779D01*
X175013984Y-78897619D01*
X174997593Y-78909528D01*
X174992543Y-78915632D01*
X174992538Y-78915637D01*
X174969407Y-78943598D01*
X174961417Y-78952379D01*
X174208899Y-79704896D01*
X174146587Y-79738921D01*
X174119804Y-79741800D01*
X161403364Y-79741800D01*
X161335243Y-79721798D01*
X161288750Y-79668142D01*
X161278668Y-79597720D01*
X161301408Y-79440879D01*
X161301941Y-79437205D01*
X161303570Y-79375000D01*
X161283667Y-79158400D01*
X161224626Y-78949055D01*
X161128423Y-78753974D01*
X161077854Y-78686253D01*
X161001733Y-78584315D01*
X161001732Y-78584314D01*
X160998280Y-78579691D01*
X160907368Y-78495653D01*
X160842796Y-78435963D01*
X160842791Y-78435959D01*
X160838556Y-78432044D01*
X160815089Y-78417237D01*
X160805438Y-78411148D01*
X160758499Y-78357883D01*
X160746734Y-78308543D01*
X160746474Y-78300246D01*
X160745674Y-78274811D01*
X160743462Y-78267197D01*
X160743461Y-78267192D01*
X160740023Y-78255359D01*
X160736012Y-78235995D01*
X160734467Y-78223764D01*
X160733474Y-78215903D01*
X160730557Y-78208536D01*
X160730556Y-78208531D01*
X160717198Y-78174792D01*
X160713354Y-78163565D01*
X160711232Y-78156261D01*
X160701018Y-78121107D01*
X160690707Y-78103672D01*
X160682012Y-78085924D01*
X160677447Y-78074394D01*
X167400314Y-78074394D01*
X167409143Y-78086014D01*
X167613970Y-78234830D01*
X167620650Y-78239070D01*
X167879234Y-78381228D01*
X167886369Y-78384585D01*
X168160746Y-78493219D01*
X168168237Y-78495653D01*
X168454059Y-78569039D01*
X168461830Y-78570521D01*
X168754570Y-78607503D01*
X168762460Y-78608000D01*
X169057540Y-78608000D01*
X169065430Y-78607503D01*
X169358170Y-78570521D01*
X169365941Y-78569039D01*
X169651763Y-78495653D01*
X169659254Y-78493219D01*
X169933631Y-78384585D01*
X169940766Y-78381228D01*
X170199350Y-78239070D01*
X170206030Y-78234830D01*
X170411230Y-78085744D01*
X170419653Y-78074821D01*
X170412749Y-78061960D01*
X168922810Y-76572020D01*
X168908869Y-76564408D01*
X168907034Y-76564539D01*
X168900420Y-76568790D01*
X167406927Y-78062284D01*
X167400314Y-78074394D01*
X160677447Y-78074394D01*
X160674552Y-78067083D01*
X160669477Y-78060097D01*
X160648564Y-78031313D01*
X160642048Y-78021393D01*
X160623580Y-77990165D01*
X160623578Y-77990162D01*
X160619542Y-77983338D01*
X160605219Y-77969015D01*
X160592380Y-77953983D01*
X160585132Y-77944007D01*
X160580472Y-77937593D01*
X160546407Y-77909412D01*
X160537626Y-77901422D01*
X160145247Y-77509042D01*
X160137713Y-77500763D01*
X160133600Y-77494282D01*
X160083948Y-77447656D01*
X160081107Y-77444902D01*
X160061370Y-77425165D01*
X160058173Y-77422685D01*
X160049151Y-77414980D01*
X160022700Y-77390141D01*
X160016921Y-77384714D01*
X160009975Y-77380895D01*
X160009972Y-77380893D01*
X159999166Y-77374952D01*
X159982648Y-77364102D01*
X159981681Y-77363352D01*
X159972277Y-77356057D01*
X159930709Y-77298505D01*
X159923500Y-77256496D01*
X159923500Y-76527866D01*
X159916745Y-76465684D01*
X159865615Y-76329295D01*
X159778261Y-76212739D01*
X159766545Y-76203958D01*
X166497488Y-76203958D01*
X166516015Y-76498436D01*
X166517008Y-76506297D01*
X166572296Y-76796128D01*
X166574267Y-76803805D01*
X166665446Y-77084424D01*
X166668361Y-77091787D01*
X166793993Y-77358770D01*
X166797805Y-77365703D01*
X166955909Y-77614835D01*
X166960563Y-77621241D01*
X167025521Y-77699761D01*
X167038040Y-77708217D01*
X167048778Y-77702011D01*
X168537980Y-76212810D01*
X168544357Y-76201131D01*
X169274408Y-76201131D01*
X169274539Y-76202966D01*
X169278790Y-76209580D01*
X170770119Y-77700908D01*
X170783381Y-77708150D01*
X170793485Y-77700962D01*
X170859437Y-77621241D01*
X170864091Y-77614835D01*
X171022195Y-77365703D01*
X171026007Y-77358770D01*
X171151639Y-77091787D01*
X171154554Y-77084424D01*
X171245733Y-76803805D01*
X171247704Y-76796128D01*
X171302992Y-76506297D01*
X171303985Y-76498436D01*
X171322512Y-76203958D01*
X171322512Y-76196042D01*
X171303985Y-75901564D01*
X171302992Y-75893703D01*
X171247704Y-75603872D01*
X171245733Y-75596195D01*
X171154554Y-75315576D01*
X171151639Y-75308213D01*
X171110444Y-75220669D01*
X177577001Y-75220669D01*
X177577371Y-75227490D01*
X177582895Y-75278352D01*
X177586521Y-75293604D01*
X177631676Y-75414054D01*
X177640214Y-75429649D01*
X177716715Y-75531724D01*
X177729276Y-75544285D01*
X177831351Y-75620786D01*
X177846946Y-75629324D01*
X177967394Y-75674478D01*
X177982649Y-75678105D01*
X178033514Y-75683631D01*
X178040328Y-75684000D01*
X178162885Y-75684000D01*
X178178124Y-75679525D01*
X178179329Y-75678135D01*
X178181000Y-75670452D01*
X178181000Y-75665884D01*
X178689000Y-75665884D01*
X178693475Y-75681123D01*
X178694865Y-75682328D01*
X178702548Y-75683999D01*
X178829669Y-75683999D01*
X178836490Y-75683629D01*
X178887352Y-75678105D01*
X178902604Y-75674479D01*
X179023054Y-75629324D01*
X179038649Y-75620786D01*
X179140724Y-75544285D01*
X179153285Y-75531724D01*
X179229786Y-75429649D01*
X179238324Y-75414054D01*
X179283478Y-75293606D01*
X179287105Y-75278351D01*
X179292631Y-75227486D01*
X179293000Y-75220672D01*
X179293000Y-74948115D01*
X179288525Y-74932876D01*
X179287135Y-74931671D01*
X179279452Y-74930000D01*
X178707115Y-74930000D01*
X178691876Y-74934475D01*
X178690671Y-74935865D01*
X178689000Y-74943548D01*
X178689000Y-75665884D01*
X178181000Y-75665884D01*
X178181000Y-74948115D01*
X178176525Y-74932876D01*
X178175135Y-74931671D01*
X178167452Y-74930000D01*
X177595116Y-74930000D01*
X177579877Y-74934475D01*
X177578672Y-74935865D01*
X177577001Y-74943548D01*
X177577001Y-75220669D01*
X171110444Y-75220669D01*
X171026007Y-75041230D01*
X171022195Y-75034297D01*
X170864091Y-74785165D01*
X170859437Y-74778759D01*
X170794479Y-74700239D01*
X170781960Y-74691783D01*
X170771222Y-74697989D01*
X169282020Y-76187190D01*
X169274408Y-76201131D01*
X168544357Y-76201131D01*
X168545592Y-76198869D01*
X168545461Y-76197034D01*
X168541210Y-76190420D01*
X167049881Y-74699092D01*
X167036619Y-74691850D01*
X167026515Y-74699038D01*
X166960563Y-74778759D01*
X166955909Y-74785165D01*
X166797805Y-75034297D01*
X166793993Y-75041230D01*
X166668361Y-75308213D01*
X166665446Y-75315576D01*
X166574267Y-75596195D01*
X166572296Y-75603872D01*
X166517008Y-75893703D01*
X166516015Y-75901564D01*
X166497488Y-76196042D01*
X166497488Y-76203958D01*
X159766545Y-76203958D01*
X159661705Y-76125385D01*
X159525316Y-76074255D01*
X159463134Y-76067500D01*
X158666866Y-76067500D01*
X158604684Y-76074255D01*
X158468295Y-76125385D01*
X158351739Y-76212739D01*
X158264385Y-76329295D01*
X158261233Y-76337703D01*
X158232982Y-76413062D01*
X158190340Y-76469826D01*
X158123779Y-76494526D01*
X158054430Y-76479319D01*
X158004312Y-76429033D01*
X157997018Y-76413062D01*
X157968767Y-76337703D01*
X157965615Y-76329295D01*
X157878261Y-76212739D01*
X157761705Y-76125385D01*
X157625316Y-76074255D01*
X157563134Y-76067500D01*
X156766866Y-76067500D01*
X156704684Y-76074255D01*
X156568295Y-76125385D01*
X156451739Y-76212739D01*
X156364385Y-76329295D01*
X156313255Y-76465684D01*
X156306500Y-76527866D01*
X156306500Y-77624134D01*
X156313255Y-77686316D01*
X156364385Y-77822705D01*
X156451739Y-77939261D01*
X156485649Y-77964675D01*
X156528162Y-78021534D01*
X156533187Y-78092353D01*
X156499127Y-78154646D01*
X156436796Y-78188636D01*
X156410082Y-78191500D01*
X155391866Y-78191500D01*
X155329684Y-78198255D01*
X155193295Y-78249385D01*
X155076739Y-78336739D01*
X154989385Y-78453295D01*
X154938255Y-78589684D01*
X154931500Y-78651866D01*
X154931500Y-78676836D01*
X154911498Y-78744957D01*
X154860622Y-78788160D01*
X154861108Y-78788981D01*
X154856324Y-78791810D01*
X154856321Y-78791812D01*
X154854284Y-78793017D01*
X154854282Y-78793018D01*
X154843672Y-78799293D01*
X154825924Y-78807988D01*
X154807083Y-78815448D01*
X154800667Y-78820110D01*
X154800666Y-78820110D01*
X154771313Y-78841436D01*
X154761393Y-78847952D01*
X154730165Y-78866420D01*
X154730162Y-78866422D01*
X154723338Y-78870458D01*
X154709017Y-78884779D01*
X154693984Y-78897619D01*
X154677593Y-78909528D01*
X154672543Y-78915632D01*
X154672538Y-78915637D01*
X154649407Y-78943598D01*
X154641417Y-78952379D01*
X153888899Y-79704896D01*
X153826587Y-79738921D01*
X153799804Y-79741800D01*
X140988364Y-79741800D01*
X140920243Y-79721798D01*
X140873750Y-79668142D01*
X140863668Y-79597720D01*
X140886408Y-79440879D01*
X140886941Y-79437205D01*
X140888570Y-79375000D01*
X140868667Y-79158400D01*
X140809626Y-78949055D01*
X140713423Y-78753974D01*
X140662854Y-78686253D01*
X140586733Y-78584315D01*
X140586732Y-78584314D01*
X140583280Y-78579691D01*
X140492368Y-78495653D01*
X140427796Y-78435963D01*
X140427791Y-78435959D01*
X140423556Y-78432044D01*
X140392265Y-78412301D01*
X140345327Y-78359035D01*
X140333500Y-78305739D01*
X140333500Y-78074394D01*
X145810314Y-78074394D01*
X145819143Y-78086014D01*
X146023970Y-78234830D01*
X146030650Y-78239070D01*
X146289234Y-78381228D01*
X146296369Y-78384585D01*
X146570746Y-78493219D01*
X146578237Y-78495653D01*
X146864059Y-78569039D01*
X146871830Y-78570521D01*
X147164570Y-78607503D01*
X147172460Y-78608000D01*
X147467540Y-78608000D01*
X147475430Y-78607503D01*
X147768170Y-78570521D01*
X147775941Y-78569039D01*
X148061763Y-78495653D01*
X148069254Y-78493219D01*
X148343631Y-78384585D01*
X148350766Y-78381228D01*
X148609350Y-78239070D01*
X148616030Y-78234830D01*
X148821230Y-78085744D01*
X148829653Y-78074821D01*
X148822749Y-78061960D01*
X147332810Y-76572020D01*
X147318869Y-76564408D01*
X147317034Y-76564539D01*
X147310420Y-76568790D01*
X145816927Y-78062284D01*
X145810314Y-78074394D01*
X140333500Y-78074394D01*
X140333500Y-77561468D01*
X140334027Y-77550285D01*
X140335702Y-77542792D01*
X140333562Y-77474701D01*
X140333500Y-77470744D01*
X140333500Y-77442844D01*
X140332996Y-77438853D01*
X140332063Y-77427011D01*
X140331928Y-77422692D01*
X140330674Y-77382811D01*
X140325704Y-77365703D01*
X140325021Y-77363352D01*
X140321012Y-77343993D01*
X140319625Y-77333017D01*
X140318474Y-77323903D01*
X140315558Y-77316537D01*
X140315556Y-77316531D01*
X140302200Y-77282798D01*
X140298355Y-77271568D01*
X140288230Y-77236717D01*
X140288230Y-77236716D01*
X140286019Y-77229107D01*
X140275705Y-77211666D01*
X140267008Y-77193913D01*
X140262472Y-77182458D01*
X140259552Y-77175083D01*
X140233563Y-77139312D01*
X140227047Y-77129392D01*
X140223788Y-77123881D01*
X140204542Y-77091338D01*
X140198938Y-77085733D01*
X140190220Y-77077015D01*
X140177379Y-77061981D01*
X140170131Y-77052005D01*
X140170130Y-77052004D01*
X140165472Y-77045593D01*
X140131407Y-77017412D01*
X140122626Y-77009422D01*
X139796947Y-76683742D01*
X139789413Y-76675463D01*
X139785300Y-76668982D01*
X139735647Y-76622355D01*
X139732806Y-76619601D01*
X139713070Y-76599865D01*
X139709873Y-76597385D01*
X139700851Y-76589680D01*
X139674400Y-76564841D01*
X139668621Y-76559414D01*
X139661675Y-76555595D01*
X139661672Y-76555593D01*
X139650866Y-76549652D01*
X139634347Y-76538801D01*
X139633883Y-76538441D01*
X139618341Y-76526386D01*
X139611072Y-76523241D01*
X139611068Y-76523238D01*
X139577763Y-76508826D01*
X139567113Y-76503609D01*
X139528360Y-76482305D01*
X139520683Y-76480334D01*
X139519294Y-76479784D01*
X139463320Y-76436111D01*
X139447694Y-76406862D01*
X139421767Y-76337703D01*
X139418615Y-76329295D01*
X139331261Y-76212739D01*
X139319545Y-76203958D01*
X144907488Y-76203958D01*
X144926015Y-76498436D01*
X144927008Y-76506297D01*
X144982296Y-76796128D01*
X144984267Y-76803805D01*
X145075446Y-77084424D01*
X145078361Y-77091787D01*
X145203993Y-77358770D01*
X145207805Y-77365703D01*
X145365909Y-77614835D01*
X145370563Y-77621241D01*
X145435521Y-77699761D01*
X145448040Y-77708217D01*
X145458778Y-77702011D01*
X146947980Y-76212810D01*
X146954357Y-76201131D01*
X147684408Y-76201131D01*
X147684539Y-76202966D01*
X147688790Y-76209580D01*
X149180119Y-77700908D01*
X149193381Y-77708150D01*
X149203485Y-77700962D01*
X149269437Y-77621241D01*
X149274091Y-77614835D01*
X149432195Y-77365703D01*
X149436007Y-77358770D01*
X149561639Y-77091787D01*
X149564554Y-77084424D01*
X149655733Y-76803805D01*
X149657704Y-76796128D01*
X149712992Y-76506297D01*
X149713985Y-76498436D01*
X149732512Y-76203958D01*
X149732512Y-76196042D01*
X149713985Y-75901564D01*
X149712992Y-75893703D01*
X149657704Y-75603872D01*
X149655733Y-75596195D01*
X149564554Y-75315576D01*
X149561639Y-75308213D01*
X149520444Y-75220669D01*
X157257001Y-75220669D01*
X157257371Y-75227490D01*
X157262895Y-75278352D01*
X157266521Y-75293604D01*
X157311676Y-75414054D01*
X157320214Y-75429649D01*
X157396715Y-75531724D01*
X157409276Y-75544285D01*
X157511351Y-75620786D01*
X157526946Y-75629324D01*
X157647394Y-75674478D01*
X157662649Y-75678105D01*
X157713514Y-75683631D01*
X157720328Y-75684000D01*
X157842885Y-75684000D01*
X157858124Y-75679525D01*
X157859329Y-75678135D01*
X157861000Y-75670452D01*
X157861000Y-75665884D01*
X158369000Y-75665884D01*
X158373475Y-75681123D01*
X158374865Y-75682328D01*
X158382548Y-75683999D01*
X158509669Y-75683999D01*
X158516490Y-75683629D01*
X158567352Y-75678105D01*
X158582604Y-75674479D01*
X158703054Y-75629324D01*
X158718649Y-75620786D01*
X158820724Y-75544285D01*
X158833285Y-75531724D01*
X158909786Y-75429649D01*
X158918324Y-75414054D01*
X158963478Y-75293606D01*
X158967105Y-75278351D01*
X158972631Y-75227486D01*
X158973000Y-75220672D01*
X158973000Y-74948115D01*
X158968525Y-74932876D01*
X158967135Y-74931671D01*
X158959452Y-74930000D01*
X158387115Y-74930000D01*
X158371876Y-74934475D01*
X158370671Y-74935865D01*
X158369000Y-74943548D01*
X158369000Y-75665884D01*
X157861000Y-75665884D01*
X157861000Y-74948115D01*
X157856525Y-74932876D01*
X157855135Y-74931671D01*
X157847452Y-74930000D01*
X157275116Y-74930000D01*
X157259877Y-74934475D01*
X157258672Y-74935865D01*
X157257001Y-74943548D01*
X157257001Y-75220669D01*
X149520444Y-75220669D01*
X149436007Y-75041230D01*
X149432195Y-75034297D01*
X149274091Y-74785165D01*
X149269437Y-74778759D01*
X149204479Y-74700239D01*
X149191960Y-74691783D01*
X149181222Y-74697989D01*
X147692020Y-76187190D01*
X147684408Y-76201131D01*
X146954357Y-76201131D01*
X146955592Y-76198869D01*
X146955461Y-76197034D01*
X146951210Y-76190420D01*
X145459881Y-74699092D01*
X145446619Y-74691850D01*
X145436515Y-74699038D01*
X145370563Y-74778759D01*
X145365909Y-74785165D01*
X145207805Y-75034297D01*
X145203993Y-75041230D01*
X145078361Y-75308213D01*
X145075446Y-75315576D01*
X144984267Y-75596195D01*
X144982296Y-75603872D01*
X144927008Y-75893703D01*
X144926015Y-75901564D01*
X144907488Y-76196042D01*
X144907488Y-76203958D01*
X139319545Y-76203958D01*
X139214705Y-76125385D01*
X139078316Y-76074255D01*
X139016134Y-76067500D01*
X138219866Y-76067500D01*
X138157684Y-76074255D01*
X138021295Y-76125385D01*
X137904739Y-76212739D01*
X137817385Y-76329295D01*
X137814233Y-76337703D01*
X137785982Y-76413062D01*
X137743340Y-76469826D01*
X137676779Y-76494526D01*
X137607430Y-76479319D01*
X137557312Y-76429033D01*
X137550018Y-76413062D01*
X137521767Y-76337703D01*
X137518615Y-76329295D01*
X137431261Y-76212739D01*
X137314705Y-76125385D01*
X137178316Y-76074255D01*
X137116134Y-76067500D01*
X136319866Y-76067500D01*
X136257684Y-76074255D01*
X136121295Y-76125385D01*
X136004739Y-76212739D01*
X135917385Y-76329295D01*
X135866255Y-76465684D01*
X135859500Y-76527866D01*
X135859500Y-77624134D01*
X135866255Y-77686316D01*
X135917385Y-77822705D01*
X136004739Y-77939261D01*
X136038649Y-77964675D01*
X136081162Y-78021534D01*
X136086187Y-78092353D01*
X136052127Y-78154646D01*
X135989796Y-78188636D01*
X135963082Y-78191500D01*
X134976866Y-78191500D01*
X134914684Y-78198255D01*
X134790229Y-78244911D01*
X134719423Y-78250094D01*
X134657054Y-78216173D01*
X134622924Y-78153918D01*
X134620000Y-78126929D01*
X134620000Y-75220669D01*
X136810001Y-75220669D01*
X136810371Y-75227490D01*
X136815895Y-75278352D01*
X136819521Y-75293604D01*
X136864676Y-75414054D01*
X136873214Y-75429649D01*
X136949715Y-75531724D01*
X136962276Y-75544285D01*
X137064351Y-75620786D01*
X137079946Y-75629324D01*
X137200394Y-75674478D01*
X137215649Y-75678105D01*
X137266514Y-75683631D01*
X137273328Y-75684000D01*
X137395885Y-75684000D01*
X137411124Y-75679525D01*
X137412329Y-75678135D01*
X137414000Y-75670452D01*
X137414000Y-75665884D01*
X137922000Y-75665884D01*
X137926475Y-75681123D01*
X137927865Y-75682328D01*
X137935548Y-75683999D01*
X138062669Y-75683999D01*
X138069490Y-75683629D01*
X138120352Y-75678105D01*
X138135604Y-75674479D01*
X138256054Y-75629324D01*
X138271649Y-75620786D01*
X138373724Y-75544285D01*
X138386285Y-75531724D01*
X138462786Y-75429649D01*
X138471324Y-75414054D01*
X138516478Y-75293606D01*
X138520105Y-75278351D01*
X138525631Y-75227486D01*
X138526000Y-75220672D01*
X138526000Y-74948115D01*
X138521525Y-74932876D01*
X138520135Y-74931671D01*
X138512452Y-74930000D01*
X137940115Y-74930000D01*
X137924876Y-74934475D01*
X137923671Y-74935865D01*
X137922000Y-74943548D01*
X137922000Y-75665884D01*
X137414000Y-75665884D01*
X137414000Y-74948115D01*
X137409525Y-74932876D01*
X137408135Y-74931671D01*
X137400452Y-74930000D01*
X136828116Y-74930000D01*
X136812877Y-74934475D01*
X136811672Y-74935865D01*
X136810001Y-74943548D01*
X136810001Y-75220669D01*
X134620000Y-75220669D01*
X134620000Y-74403885D01*
X136810000Y-74403885D01*
X136814475Y-74419124D01*
X136815865Y-74420329D01*
X136823548Y-74422000D01*
X137395885Y-74422000D01*
X137411124Y-74417525D01*
X137412329Y-74416135D01*
X137414000Y-74408452D01*
X137414000Y-74403885D01*
X137922000Y-74403885D01*
X137926475Y-74419124D01*
X137927865Y-74420329D01*
X137935548Y-74422000D01*
X138507884Y-74422000D01*
X138523123Y-74417525D01*
X138524328Y-74416135D01*
X138525999Y-74408452D01*
X138525999Y-74325179D01*
X145810347Y-74325179D01*
X145817251Y-74338040D01*
X147307190Y-75827980D01*
X147321131Y-75835592D01*
X147322966Y-75835461D01*
X147329580Y-75831210D01*
X148756904Y-74403885D01*
X157257000Y-74403885D01*
X157261475Y-74419124D01*
X157262865Y-74420329D01*
X157270548Y-74422000D01*
X157842885Y-74422000D01*
X157858124Y-74417525D01*
X157859329Y-74416135D01*
X157861000Y-74408452D01*
X157861000Y-74403885D01*
X158369000Y-74403885D01*
X158373475Y-74419124D01*
X158374865Y-74420329D01*
X158382548Y-74422000D01*
X158954884Y-74422000D01*
X158970123Y-74417525D01*
X158971328Y-74416135D01*
X158972999Y-74408452D01*
X158972999Y-74325179D01*
X167400347Y-74325179D01*
X167407251Y-74338040D01*
X168897190Y-75827980D01*
X168911131Y-75835592D01*
X168912966Y-75835461D01*
X168919580Y-75831210D01*
X170346904Y-74403885D01*
X177577000Y-74403885D01*
X177581475Y-74419124D01*
X177582865Y-74420329D01*
X177590548Y-74422000D01*
X178162885Y-74422000D01*
X178178124Y-74417525D01*
X178179329Y-74416135D01*
X178181000Y-74408452D01*
X178181000Y-74403885D01*
X178689000Y-74403885D01*
X178693475Y-74419124D01*
X178694865Y-74420329D01*
X178702548Y-74422000D01*
X179274884Y-74422000D01*
X179290123Y-74417525D01*
X179291328Y-74416135D01*
X179292999Y-74408452D01*
X179292999Y-74325179D01*
X187720347Y-74325179D01*
X187727251Y-74338040D01*
X189217190Y-75827980D01*
X189231131Y-75835592D01*
X189232966Y-75835461D01*
X189239580Y-75831210D01*
X190666904Y-74403885D01*
X197897000Y-74403885D01*
X197901475Y-74419124D01*
X197902865Y-74420329D01*
X197910548Y-74422000D01*
X198482885Y-74422000D01*
X198498124Y-74417525D01*
X198499329Y-74416135D01*
X198501000Y-74408452D01*
X198501000Y-74403885D01*
X199009000Y-74403885D01*
X199013475Y-74419124D01*
X199014865Y-74420329D01*
X199022548Y-74422000D01*
X199594884Y-74422000D01*
X199610123Y-74417525D01*
X199611328Y-74416135D01*
X199612999Y-74408452D01*
X199612999Y-74131331D01*
X199612629Y-74124510D01*
X199607105Y-74073648D01*
X199603479Y-74058396D01*
X199558324Y-73937946D01*
X199549786Y-73922351D01*
X199473285Y-73820276D01*
X199460724Y-73807715D01*
X199358649Y-73731214D01*
X199343054Y-73722676D01*
X199222606Y-73677522D01*
X199207351Y-73673895D01*
X199156486Y-73668369D01*
X199149672Y-73668000D01*
X199027115Y-73668000D01*
X199011876Y-73672475D01*
X199010671Y-73673865D01*
X199009000Y-73681548D01*
X199009000Y-74403885D01*
X198501000Y-74403885D01*
X198501000Y-73686116D01*
X198496525Y-73670877D01*
X198495135Y-73669672D01*
X198487452Y-73668001D01*
X198360331Y-73668001D01*
X198353510Y-73668371D01*
X198302648Y-73673895D01*
X198287396Y-73677521D01*
X198166946Y-73722676D01*
X198151351Y-73731214D01*
X198049276Y-73807715D01*
X198036715Y-73820276D01*
X197960214Y-73922351D01*
X197951676Y-73937946D01*
X197906522Y-74058394D01*
X197902895Y-74073649D01*
X197897369Y-74124514D01*
X197897000Y-74131328D01*
X197897000Y-74403885D01*
X190666904Y-74403885D01*
X190733073Y-74337716D01*
X190739686Y-74325606D01*
X190730857Y-74313986D01*
X190526030Y-74165170D01*
X190519350Y-74160930D01*
X190260766Y-74018772D01*
X190253631Y-74015415D01*
X189979254Y-73906781D01*
X189971763Y-73904347D01*
X189685941Y-73830961D01*
X189678170Y-73829479D01*
X189385430Y-73792497D01*
X189377540Y-73792000D01*
X189082460Y-73792000D01*
X189074570Y-73792497D01*
X188781830Y-73829479D01*
X188774059Y-73830961D01*
X188488237Y-73904347D01*
X188480746Y-73906781D01*
X188206369Y-74015415D01*
X188199234Y-74018772D01*
X187940650Y-74160930D01*
X187933970Y-74165170D01*
X187728770Y-74314256D01*
X187720347Y-74325179D01*
X179292999Y-74325179D01*
X179292999Y-74131331D01*
X179292629Y-74124510D01*
X179287105Y-74073648D01*
X179283479Y-74058396D01*
X179238324Y-73937946D01*
X179229786Y-73922351D01*
X179153285Y-73820276D01*
X179140724Y-73807715D01*
X179038649Y-73731214D01*
X179023054Y-73722676D01*
X178902606Y-73677522D01*
X178887351Y-73673895D01*
X178836486Y-73668369D01*
X178829672Y-73668000D01*
X178707115Y-73668000D01*
X178691876Y-73672475D01*
X178690671Y-73673865D01*
X178689000Y-73681548D01*
X178689000Y-74403885D01*
X178181000Y-74403885D01*
X178181000Y-73686116D01*
X178176525Y-73670877D01*
X178175135Y-73669672D01*
X178167452Y-73668001D01*
X178040331Y-73668001D01*
X178033510Y-73668371D01*
X177982648Y-73673895D01*
X177967396Y-73677521D01*
X177846946Y-73722676D01*
X177831351Y-73731214D01*
X177729276Y-73807715D01*
X177716715Y-73820276D01*
X177640214Y-73922351D01*
X177631676Y-73937946D01*
X177586522Y-74058394D01*
X177582895Y-74073649D01*
X177577369Y-74124514D01*
X177577000Y-74131328D01*
X177577000Y-74403885D01*
X170346904Y-74403885D01*
X170413073Y-74337716D01*
X170419686Y-74325606D01*
X170410857Y-74313986D01*
X170206030Y-74165170D01*
X170199350Y-74160930D01*
X169940766Y-74018772D01*
X169933631Y-74015415D01*
X169659254Y-73906781D01*
X169651763Y-73904347D01*
X169365941Y-73830961D01*
X169358170Y-73829479D01*
X169065430Y-73792497D01*
X169057540Y-73792000D01*
X168762460Y-73792000D01*
X168754570Y-73792497D01*
X168461830Y-73829479D01*
X168454059Y-73830961D01*
X168168237Y-73904347D01*
X168160746Y-73906781D01*
X167886369Y-74015415D01*
X167879234Y-74018772D01*
X167620650Y-74160930D01*
X167613970Y-74165170D01*
X167408770Y-74314256D01*
X167400347Y-74325179D01*
X158972999Y-74325179D01*
X158972999Y-74131331D01*
X158972629Y-74124510D01*
X158967105Y-74073648D01*
X158963479Y-74058396D01*
X158918324Y-73937946D01*
X158909786Y-73922351D01*
X158833285Y-73820276D01*
X158820724Y-73807715D01*
X158718649Y-73731214D01*
X158703054Y-73722676D01*
X158582606Y-73677522D01*
X158567351Y-73673895D01*
X158516486Y-73668369D01*
X158509672Y-73668000D01*
X158387115Y-73668000D01*
X158371876Y-73672475D01*
X158370671Y-73673865D01*
X158369000Y-73681548D01*
X158369000Y-74403885D01*
X157861000Y-74403885D01*
X157861000Y-73686116D01*
X157856525Y-73670877D01*
X157855135Y-73669672D01*
X157847452Y-73668001D01*
X157720331Y-73668001D01*
X157713510Y-73668371D01*
X157662648Y-73673895D01*
X157647396Y-73677521D01*
X157526946Y-73722676D01*
X157511351Y-73731214D01*
X157409276Y-73807715D01*
X157396715Y-73820276D01*
X157320214Y-73922351D01*
X157311676Y-73937946D01*
X157266522Y-74058394D01*
X157262895Y-74073649D01*
X157257369Y-74124514D01*
X157257000Y-74131328D01*
X157257000Y-74403885D01*
X148756904Y-74403885D01*
X148823073Y-74337716D01*
X148829686Y-74325606D01*
X148820857Y-74313986D01*
X148616030Y-74165170D01*
X148609350Y-74160930D01*
X148350766Y-74018772D01*
X148343631Y-74015415D01*
X148069254Y-73906781D01*
X148061763Y-73904347D01*
X147775941Y-73830961D01*
X147768170Y-73829479D01*
X147475430Y-73792497D01*
X147467540Y-73792000D01*
X147172460Y-73792000D01*
X147164570Y-73792497D01*
X146871830Y-73829479D01*
X146864059Y-73830961D01*
X146578237Y-73904347D01*
X146570746Y-73906781D01*
X146296369Y-74015415D01*
X146289234Y-74018772D01*
X146030650Y-74160930D01*
X146023970Y-74165170D01*
X145818770Y-74314256D01*
X145810347Y-74325179D01*
X138525999Y-74325179D01*
X138525999Y-74131331D01*
X138525629Y-74124510D01*
X138520105Y-74073648D01*
X138516479Y-74058396D01*
X138471324Y-73937946D01*
X138462786Y-73922351D01*
X138386285Y-73820276D01*
X138373724Y-73807715D01*
X138271649Y-73731214D01*
X138256054Y-73722676D01*
X138135606Y-73677522D01*
X138120351Y-73673895D01*
X138069486Y-73668369D01*
X138062672Y-73668000D01*
X137940115Y-73668000D01*
X137924876Y-73672475D01*
X137923671Y-73673865D01*
X137922000Y-73681548D01*
X137922000Y-74403885D01*
X137414000Y-74403885D01*
X137414000Y-73686116D01*
X137409525Y-73670877D01*
X137408135Y-73669672D01*
X137400452Y-73668001D01*
X137273331Y-73668001D01*
X137266510Y-73668371D01*
X137215648Y-73673895D01*
X137200396Y-73677521D01*
X137079946Y-73722676D01*
X137064351Y-73731214D01*
X136962276Y-73807715D01*
X136949715Y-73820276D01*
X136873214Y-73922351D01*
X136864676Y-73937946D01*
X136819522Y-74058394D01*
X136815895Y-74073649D01*
X136810369Y-74124514D01*
X136810000Y-74131328D01*
X136810000Y-74403885D01*
X134620000Y-74403885D01*
X134620000Y-74256276D01*
X134626687Y-74215775D01*
X134645484Y-74160400D01*
X134651791Y-74145173D01*
X134762016Y-73921658D01*
X134770257Y-73907384D01*
X134908713Y-73700171D01*
X134918746Y-73687095D01*
X135083068Y-73499722D01*
X135094722Y-73488068D01*
X135282095Y-73323746D01*
X135295171Y-73313713D01*
X135502384Y-73175257D01*
X135516658Y-73167016D01*
X135740173Y-73056791D01*
X135755400Y-73050484D01*
X135810775Y-73031687D01*
X135851276Y-73025000D01*
X200698724Y-73025000D01*
X200739225Y-73031687D01*
G37*
%TD.AperFunction*%
%TA.AperFunction,Conductor*%
G36*
X198815570Y-77672681D02*
G01*
X198865688Y-77722967D01*
X198872982Y-77738938D01*
X198904385Y-77822705D01*
X198991739Y-77939261D01*
X199069958Y-77997883D01*
X199070532Y-77998313D01*
X199113046Y-78055173D01*
X199118071Y-78125991D01*
X199084011Y-78188284D01*
X199021680Y-78222275D01*
X199014059Y-78223438D01*
X199009000Y-78239102D01*
X199009000Y-79503000D01*
X198988998Y-79571121D01*
X198935342Y-79617614D01*
X198883000Y-79629000D01*
X198627000Y-79629000D01*
X198558879Y-79608998D01*
X198512386Y-79555342D01*
X198501000Y-79503000D01*
X198501000Y-78236337D01*
X198496965Y-78222595D01*
X198434406Y-78195055D01*
X198395208Y-78135860D01*
X198394236Y-78064870D01*
X198431798Y-78004623D01*
X198440042Y-77997883D01*
X198466936Y-77977727D01*
X198518261Y-77939261D01*
X198605615Y-77822705D01*
X198637018Y-77738938D01*
X198679660Y-77682174D01*
X198746221Y-77657474D01*
X198815570Y-77672681D01*
G37*
%TD.AperFunction*%
%TA.AperFunction,Conductor*%
G36*
X137728570Y-77672681D02*
G01*
X137778688Y-77722967D01*
X137785982Y-77738938D01*
X137817385Y-77822705D01*
X137904739Y-77939261D01*
X137972660Y-77990165D01*
X137986945Y-78000871D01*
X138029459Y-78057731D01*
X138034484Y-78128549D01*
X138000424Y-78190843D01*
X137983882Y-78199864D01*
X137985165Y-78201515D01*
X137959767Y-78221245D01*
X137954000Y-78239102D01*
X137954000Y-79503000D01*
X137933998Y-79571121D01*
X137880342Y-79617614D01*
X137828000Y-79629000D01*
X137572000Y-79629000D01*
X137503879Y-79608998D01*
X137457386Y-79555342D01*
X137446000Y-79503000D01*
X137446000Y-78236337D01*
X137442194Y-78223376D01*
X137417110Y-78220119D01*
X137352131Y-78191514D01*
X137312933Y-78132319D01*
X137311961Y-78061329D01*
X137349523Y-78001083D01*
X137357767Y-77994342D01*
X137424080Y-77944643D01*
X137424081Y-77944642D01*
X137431261Y-77939261D01*
X137518615Y-77822705D01*
X137550018Y-77738938D01*
X137592660Y-77682174D01*
X137659221Y-77657474D01*
X137728570Y-77672681D01*
G37*
%TD.AperFunction*%
%TA.AperFunction,Conductor*%
G36*
X158175570Y-77672681D02*
G01*
X158225688Y-77722967D01*
X158232982Y-77738938D01*
X158264385Y-77822705D01*
X158351739Y-77939261D01*
X158396832Y-77973056D01*
X158439346Y-78029916D01*
X158442982Y-78044705D01*
X158443561Y-78044556D01*
X158445533Y-78052235D01*
X158446526Y-78060097D01*
X158449443Y-78067465D01*
X158450147Y-78070206D01*
X158447715Y-78141161D01*
X158407308Y-78199537D01*
X158397713Y-78203419D01*
X158374767Y-78221245D01*
X158369000Y-78239102D01*
X158369000Y-79503000D01*
X158348998Y-79571121D01*
X158295342Y-79617614D01*
X158243000Y-79629000D01*
X157987000Y-79629000D01*
X157918879Y-79608998D01*
X157872386Y-79555342D01*
X157861000Y-79503000D01*
X157861000Y-78236337D01*
X157856965Y-78222595D01*
X157794406Y-78195055D01*
X157755208Y-78135860D01*
X157754236Y-78064870D01*
X157791798Y-78004623D01*
X157800042Y-77997883D01*
X157826936Y-77977727D01*
X157878261Y-77939261D01*
X157965615Y-77822705D01*
X157997018Y-77738938D01*
X158039660Y-77682174D01*
X158106221Y-77657474D01*
X158175570Y-77672681D01*
G37*
%TD.AperFunction*%
%TA.AperFunction,Conductor*%
G36*
X178495570Y-77672681D02*
G01*
X178545688Y-77722967D01*
X178552982Y-77738938D01*
X178584385Y-77822705D01*
X178671739Y-77939261D01*
X178749958Y-77997883D01*
X178750532Y-77998313D01*
X178793046Y-78055173D01*
X178798071Y-78125991D01*
X178764011Y-78188284D01*
X178701680Y-78222275D01*
X178694059Y-78223438D01*
X178689000Y-78239102D01*
X178689000Y-79503000D01*
X178668998Y-79571121D01*
X178615342Y-79617614D01*
X178563000Y-79629000D01*
X178307000Y-79629000D01*
X178238879Y-79608998D01*
X178192386Y-79555342D01*
X178181000Y-79503000D01*
X178181000Y-78236337D01*
X178176965Y-78222595D01*
X178114406Y-78195055D01*
X178075208Y-78135860D01*
X178074236Y-78064870D01*
X178111798Y-78004623D01*
X178120042Y-77997883D01*
X178146936Y-77977727D01*
X178198261Y-77939261D01*
X178285615Y-77822705D01*
X178317018Y-77738938D01*
X178359660Y-77682174D01*
X178426221Y-77657474D01*
X178495570Y-77672681D01*
G37*
%TD.AperFunction*%
%TD*%
M02*
