%TF.GenerationSoftware,KiCad,Pcbnew,(6.0.7)*%
%TF.CreationDate,2023-02-03T07:15:45-06:00*%
%TF.ProjectId,LASK4,4c41534b-342e-46b6-9963-61645f706362,rev?*%
%TF.SameCoordinates,Original*%
%TF.FileFunction,Soldermask,Bot*%
%TF.FilePolarity,Negative*%
%FSLAX46Y46*%
G04 Gerber Fmt 4.6, Leading zero omitted, Abs format (unit mm)*
G04 Created by KiCad (PCBNEW (6.0.7)) date 2023-02-03 07:15:45*
%MOMM*%
%LPD*%
G01*
G04 APERTURE LIST*
%ADD10C,3.800000*%
%ADD11R,1.350000X1.350000*%
%ADD12O,1.350000X1.350000*%
%ADD13C,2.000000*%
%ADD14R,1.700000X1.700000*%
%ADD15O,1.700000X1.700000*%
%ADD16C,1.524000*%
G04 APERTURE END LIST*
D10*
%TO.C,H5*%
X168910000Y-76200000D03*
%TD*%
D11*
%TO.C,H4*%
X196755000Y-79375000D03*
D12*
X198755000Y-79375000D03*
X200755000Y-79375000D03*
%TD*%
D13*
%TO.C,Select1*%
X192890000Y-95940000D03*
X199390000Y-95940000D03*
X199390000Y-100440000D03*
X192890000Y-100440000D03*
%TD*%
D14*
%TO.C,S1*%
X163830000Y-91440000D03*
D15*
X163830000Y-88900000D03*
X163830000Y-86360000D03*
X163830000Y-83820000D03*
%TD*%
D11*
%TO.C,H2*%
X156115000Y-79375000D03*
D12*
X158115000Y-79375000D03*
X160115000Y-79375000D03*
%TD*%
D11*
%TO.C,H3*%
X176435000Y-79375000D03*
D12*
X178435000Y-79375000D03*
X180435000Y-79375000D03*
%TD*%
D13*
%TO.C,Up1*%
X187960000Y-95940000D03*
X181460000Y-95940000D03*
X187960000Y-100440000D03*
X181460000Y-100440000D03*
%TD*%
%TO.C,Down1*%
X187960000Y-104775000D03*
X181460000Y-104775000D03*
X181460000Y-109275000D03*
X187960000Y-109275000D03*
%TD*%
D10*
%TO.C,H7*%
X147320000Y-76200000D03*
%TD*%
%TO.C,H6*%
X189230000Y-76200000D03*
%TD*%
D13*
%TO.C,Start1*%
X199390000Y-104775000D03*
X192890000Y-104775000D03*
X199390000Y-109275000D03*
X192890000Y-109275000D03*
%TD*%
D11*
%TO.C,H1*%
X135700000Y-79375000D03*
D12*
X137700000Y-79375000D03*
X139700000Y-79375000D03*
%TD*%
D14*
%TO.C,U5*%
X164465000Y-96520000D03*
D15*
X167005000Y-96520000D03*
X169545000Y-96520000D03*
X172085000Y-96520000D03*
X174625000Y-96520000D03*
X177165000Y-96520000D03*
%TD*%
D16*
%TO.C,U6*%
X135890000Y-92710000D03*
X138430000Y-92710000D03*
X138430000Y-95250000D03*
X135890000Y-95250000D03*
X138430000Y-97790000D03*
X135890000Y-97790000D03*
X138430000Y-100330000D03*
X135890000Y-100330000D03*
X138430000Y-102870000D03*
X135890000Y-102870000D03*
X138430000Y-105410000D03*
X135890000Y-105410000D03*
X135890000Y-107950000D03*
X138430000Y-107950000D03*
X138430000Y-110490000D03*
X156210000Y-110490000D03*
X158750000Y-105410000D03*
X156210000Y-105410000D03*
X158750000Y-102870000D03*
X156210000Y-102870000D03*
X158750000Y-100330000D03*
X156210000Y-100330000D03*
X158750000Y-97790000D03*
X156210000Y-97790000D03*
X158750000Y-95250000D03*
X156210000Y-95250000D03*
X158750000Y-92710000D03*
X156210000Y-92710000D03*
X156210000Y-107950000D03*
X158750000Y-107950000D03*
X135890000Y-110490000D03*
X158750000Y-110490000D03*
%TD*%
D14*
%TO.C,J1*%
X197485000Y-87630000D03*
D15*
X197485000Y-90170000D03*
%TD*%
M02*
