%TF.GenerationSoftware,KiCad,Pcbnew,(6.0.7)*%
%TF.CreationDate,2023-02-03T07:15:45-06:00*%
%TF.ProjectId,LASK4,4c41534b-342e-46b6-9963-61645f706362,rev?*%
%TF.SameCoordinates,Original*%
%TF.FileFunction,Legend,Top*%
%TF.FilePolarity,Positive*%
%FSLAX46Y46*%
G04 Gerber Fmt 4.6, Leading zero omitted, Abs format (unit mm)*
G04 Created by KiCad (PCBNEW (6.0.7)) date 2023-02-03 07:15:45*
%MOMM*%
%LPD*%
G01*
G04 APERTURE LIST*
%ADD10C,0.100000*%
%ADD11C,0.150000*%
%ADD12C,0.120000*%
G04 APERTURE END LIST*
D10*
G36*
X168362037Y-89565674D02*
G01*
X168370335Y-89500572D01*
X168381808Y-89436492D01*
X168396373Y-89373517D01*
X168413946Y-89311730D01*
X168434446Y-89251214D01*
X168457787Y-89192052D01*
X168483888Y-89134328D01*
X168512664Y-89078124D01*
X168544033Y-89023524D01*
X168577912Y-88970611D01*
X168614218Y-88919469D01*
X168652866Y-88870180D01*
X168693775Y-88822828D01*
X168736860Y-88777495D01*
X168782039Y-88734265D01*
X168829229Y-88693222D01*
X168878345Y-88654448D01*
X168929306Y-88618026D01*
X168982028Y-88584040D01*
X169036428Y-88552573D01*
X169092422Y-88523708D01*
X169149928Y-88497529D01*
X169208862Y-88474117D01*
X169269140Y-88453558D01*
X169330681Y-88435933D01*
X169393401Y-88421326D01*
X169457215Y-88409820D01*
X169522043Y-88401499D01*
X169587799Y-88396445D01*
X169654401Y-88394742D01*
X169654401Y-88394741D01*
X169721008Y-88396444D01*
X169786778Y-88401498D01*
X169851626Y-88409819D01*
X169915470Y-88421325D01*
X169978225Y-88435932D01*
X170039808Y-88453557D01*
X170100136Y-88474116D01*
X170159123Y-88497528D01*
X170216687Y-88523707D01*
X170272743Y-88552572D01*
X170327208Y-88584039D01*
X170379999Y-88618025D01*
X170431031Y-88654447D01*
X170480220Y-88693221D01*
X170527483Y-88734264D01*
X170572737Y-88777494D01*
X170615897Y-88822827D01*
X170656879Y-88870179D01*
X170695600Y-88919468D01*
X170731976Y-88970611D01*
X170765924Y-89023523D01*
X170797359Y-89078123D01*
X170826197Y-89134327D01*
X170852356Y-89192051D01*
X170875751Y-89251213D01*
X170896298Y-89311729D01*
X170913914Y-89373516D01*
X170928515Y-89436491D01*
X170940017Y-89500571D01*
X170948337Y-89565673D01*
X170953390Y-89631713D01*
X170955093Y-89698608D01*
X170953381Y-89764942D01*
X170948301Y-89830437D01*
X170939940Y-89895011D01*
X170928382Y-89958580D01*
X170913712Y-90021062D01*
X170896016Y-90082373D01*
X170875378Y-90142431D01*
X170851885Y-90201152D01*
X170825621Y-90258452D01*
X170796671Y-90314249D01*
X170765121Y-90368460D01*
X170731056Y-90421002D01*
X170694561Y-90471791D01*
X170655721Y-90520744D01*
X170614622Y-90567778D01*
X170571348Y-90612811D01*
X170525986Y-90655758D01*
X170478620Y-90696536D01*
X170429335Y-90735064D01*
X170378217Y-90771257D01*
X170325350Y-90805032D01*
X170270821Y-90836306D01*
X170214714Y-90864997D01*
X170157114Y-90891020D01*
X170098108Y-90914293D01*
X170037779Y-90934733D01*
X169976213Y-90952256D01*
X169913496Y-90966780D01*
X169849712Y-90978221D01*
X169784947Y-90986496D01*
X169719286Y-90991522D01*
X169652814Y-90993216D01*
X169586356Y-90991521D01*
X169520735Y-90986493D01*
X169456034Y-90978215D01*
X169392337Y-90966769D01*
X169329728Y-90952240D01*
X169268289Y-90934711D01*
X169208105Y-90914264D01*
X169149258Y-90890983D01*
X169091833Y-90864952D01*
X169035912Y-90836253D01*
X168981580Y-90804971D01*
X168928919Y-90771187D01*
X168878013Y-90734987D01*
X168828946Y-90696452D01*
X168781801Y-90655666D01*
X168736662Y-90612712D01*
X168693611Y-90567674D01*
X168652733Y-90520635D01*
X168614111Y-90471678D01*
X168577829Y-90420886D01*
X168543969Y-90368344D01*
X168512616Y-90314133D01*
X168483852Y-90258338D01*
X168457762Y-90201041D01*
X168434429Y-90142326D01*
X168413936Y-90082276D01*
X168396367Y-90020975D01*
X168381805Y-89958505D01*
X168370333Y-89894951D01*
X168362036Y-89830394D01*
X168356997Y-89764919D01*
X168355298Y-89698609D01*
X168355379Y-89695434D01*
X168862239Y-89695434D01*
X168863271Y-89735874D01*
X168866333Y-89775802D01*
X168871375Y-89815166D01*
X168878347Y-89853917D01*
X168887198Y-89892004D01*
X168897878Y-89929375D01*
X168910336Y-89965982D01*
X168924524Y-90001772D01*
X168940389Y-90036695D01*
X168957882Y-90070702D01*
X168976953Y-90103740D01*
X168997552Y-90135760D01*
X169019627Y-90166712D01*
X169043129Y-90196543D01*
X169068008Y-90225205D01*
X169094212Y-90252646D01*
X169121693Y-90278816D01*
X169150399Y-90303664D01*
X169180281Y-90327140D01*
X169211287Y-90349192D01*
X169243369Y-90369771D01*
X169276474Y-90388826D01*
X169310554Y-90406306D01*
X169345558Y-90422161D01*
X169381436Y-90436340D01*
X169418136Y-90448793D01*
X169455610Y-90459468D01*
X169493807Y-90468316D01*
X169532676Y-90475286D01*
X169572167Y-90480327D01*
X169612230Y-90483389D01*
X169652814Y-90484421D01*
X169693548Y-90483390D01*
X169733759Y-90480330D01*
X169773398Y-90475293D01*
X169812414Y-90468327D01*
X169850756Y-90459485D01*
X169888374Y-90448816D01*
X169925218Y-90436370D01*
X169961236Y-90422199D01*
X169996378Y-90406352D01*
X170030594Y-90388880D01*
X170063832Y-90369833D01*
X170096043Y-90349262D01*
X170127176Y-90327217D01*
X170157180Y-90303750D01*
X170186005Y-90278909D01*
X170213599Y-90252746D01*
X170239913Y-90225310D01*
X170264896Y-90196654D01*
X170288497Y-90166826D01*
X170310666Y-90135877D01*
X170331352Y-90103858D01*
X170350505Y-90070819D01*
X170368073Y-90036811D01*
X170384008Y-90001884D01*
X170398256Y-89966088D01*
X170410770Y-89929474D01*
X170421496Y-89892092D01*
X170430386Y-89853993D01*
X170437389Y-89815228D01*
X170442453Y-89775845D01*
X170445529Y-89735897D01*
X170446565Y-89695434D01*
X170445524Y-89654700D01*
X170442435Y-89614489D01*
X170437351Y-89574850D01*
X170430321Y-89535834D01*
X170421398Y-89497492D01*
X170410633Y-89459874D01*
X170398078Y-89423030D01*
X170383784Y-89387012D01*
X170367803Y-89351870D01*
X170350185Y-89317654D01*
X170330983Y-89284416D01*
X170310247Y-89252205D01*
X170288030Y-89221072D01*
X170264383Y-89191068D01*
X170239357Y-89162244D01*
X170213003Y-89134649D01*
X170185374Y-89108335D01*
X170156520Y-89083353D01*
X170126493Y-89059751D01*
X170095345Y-89037582D01*
X170063127Y-89016896D01*
X170029890Y-88997744D01*
X169995686Y-88980175D01*
X169960566Y-88964241D01*
X169924581Y-88949992D01*
X169887784Y-88937479D01*
X169850226Y-88926753D01*
X169811958Y-88917863D01*
X169773031Y-88910860D01*
X169733497Y-88905796D01*
X169693408Y-88902720D01*
X169652814Y-88901684D01*
X169612230Y-88902720D01*
X169572167Y-88905796D01*
X169532676Y-88910860D01*
X169493807Y-88917863D01*
X169455611Y-88926753D01*
X169418137Y-88937479D01*
X169381437Y-88949992D01*
X169345559Y-88964241D01*
X169310555Y-88980175D01*
X169276475Y-88997744D01*
X169243370Y-89016896D01*
X169211288Y-89037582D01*
X169180282Y-89059751D01*
X169150400Y-89083353D01*
X169121694Y-89108335D01*
X169094213Y-89134649D01*
X169068008Y-89162244D01*
X169043130Y-89191068D01*
X169019628Y-89221072D01*
X168997552Y-89252205D01*
X168976954Y-89284416D01*
X168957883Y-89317654D01*
X168940389Y-89351870D01*
X168924524Y-89387012D01*
X168910337Y-89423030D01*
X168897878Y-89459874D01*
X168887198Y-89497492D01*
X168878347Y-89535834D01*
X168871375Y-89574850D01*
X168866333Y-89614489D01*
X168863271Y-89654700D01*
X168862239Y-89695434D01*
X168355379Y-89695434D01*
X168356997Y-89631714D01*
X168362037Y-89565674D01*
G37*
X168362037Y-89565674D02*
X168370335Y-89500572D01*
X168381808Y-89436492D01*
X168396373Y-89373517D01*
X168413946Y-89311730D01*
X168434446Y-89251214D01*
X168457787Y-89192052D01*
X168483888Y-89134328D01*
X168512664Y-89078124D01*
X168544033Y-89023524D01*
X168577912Y-88970611D01*
X168614218Y-88919469D01*
X168652866Y-88870180D01*
X168693775Y-88822828D01*
X168736860Y-88777495D01*
X168782039Y-88734265D01*
X168829229Y-88693222D01*
X168878345Y-88654448D01*
X168929306Y-88618026D01*
X168982028Y-88584040D01*
X169036428Y-88552573D01*
X169092422Y-88523708D01*
X169149928Y-88497529D01*
X169208862Y-88474117D01*
X169269140Y-88453558D01*
X169330681Y-88435933D01*
X169393401Y-88421326D01*
X169457215Y-88409820D01*
X169522043Y-88401499D01*
X169587799Y-88396445D01*
X169654401Y-88394742D01*
X169654401Y-88394741D01*
X169721008Y-88396444D01*
X169786778Y-88401498D01*
X169851626Y-88409819D01*
X169915470Y-88421325D01*
X169978225Y-88435932D01*
X170039808Y-88453557D01*
X170100136Y-88474116D01*
X170159123Y-88497528D01*
X170216687Y-88523707D01*
X170272743Y-88552572D01*
X170327208Y-88584039D01*
X170379999Y-88618025D01*
X170431031Y-88654447D01*
X170480220Y-88693221D01*
X170527483Y-88734264D01*
X170572737Y-88777494D01*
X170615897Y-88822827D01*
X170656879Y-88870179D01*
X170695600Y-88919468D01*
X170731976Y-88970611D01*
X170765924Y-89023523D01*
X170797359Y-89078123D01*
X170826197Y-89134327D01*
X170852356Y-89192051D01*
X170875751Y-89251213D01*
X170896298Y-89311729D01*
X170913914Y-89373516D01*
X170928515Y-89436491D01*
X170940017Y-89500571D01*
X170948337Y-89565673D01*
X170953390Y-89631713D01*
X170955093Y-89698608D01*
X170953381Y-89764942D01*
X170948301Y-89830437D01*
X170939940Y-89895011D01*
X170928382Y-89958580D01*
X170913712Y-90021062D01*
X170896016Y-90082373D01*
X170875378Y-90142431D01*
X170851885Y-90201152D01*
X170825621Y-90258452D01*
X170796671Y-90314249D01*
X170765121Y-90368460D01*
X170731056Y-90421002D01*
X170694561Y-90471791D01*
X170655721Y-90520744D01*
X170614622Y-90567778D01*
X170571348Y-90612811D01*
X170525986Y-90655758D01*
X170478620Y-90696536D01*
X170429335Y-90735064D01*
X170378217Y-90771257D01*
X170325350Y-90805032D01*
X170270821Y-90836306D01*
X170214714Y-90864997D01*
X170157114Y-90891020D01*
X170098108Y-90914293D01*
X170037779Y-90934733D01*
X169976213Y-90952256D01*
X169913496Y-90966780D01*
X169849712Y-90978221D01*
X169784947Y-90986496D01*
X169719286Y-90991522D01*
X169652814Y-90993216D01*
X169586356Y-90991521D01*
X169520735Y-90986493D01*
X169456034Y-90978215D01*
X169392337Y-90966769D01*
X169329728Y-90952240D01*
X169268289Y-90934711D01*
X169208105Y-90914264D01*
X169149258Y-90890983D01*
X169091833Y-90864952D01*
X169035912Y-90836253D01*
X168981580Y-90804971D01*
X168928919Y-90771187D01*
X168878013Y-90734987D01*
X168828946Y-90696452D01*
X168781801Y-90655666D01*
X168736662Y-90612712D01*
X168693611Y-90567674D01*
X168652733Y-90520635D01*
X168614111Y-90471678D01*
X168577829Y-90420886D01*
X168543969Y-90368344D01*
X168512616Y-90314133D01*
X168483852Y-90258338D01*
X168457762Y-90201041D01*
X168434429Y-90142326D01*
X168413936Y-90082276D01*
X168396367Y-90020975D01*
X168381805Y-89958505D01*
X168370333Y-89894951D01*
X168362036Y-89830394D01*
X168356997Y-89764919D01*
X168355298Y-89698609D01*
X168355379Y-89695434D01*
X168862239Y-89695434D01*
X168863271Y-89735874D01*
X168866333Y-89775802D01*
X168871375Y-89815166D01*
X168878347Y-89853917D01*
X168887198Y-89892004D01*
X168897878Y-89929375D01*
X168910336Y-89965982D01*
X168924524Y-90001772D01*
X168940389Y-90036695D01*
X168957882Y-90070702D01*
X168976953Y-90103740D01*
X168997552Y-90135760D01*
X169019627Y-90166712D01*
X169043129Y-90196543D01*
X169068008Y-90225205D01*
X169094212Y-90252646D01*
X169121693Y-90278816D01*
X169150399Y-90303664D01*
X169180281Y-90327140D01*
X169211287Y-90349192D01*
X169243369Y-90369771D01*
X169276474Y-90388826D01*
X169310554Y-90406306D01*
X169345558Y-90422161D01*
X169381436Y-90436340D01*
X169418136Y-90448793D01*
X169455610Y-90459468D01*
X169493807Y-90468316D01*
X169532676Y-90475286D01*
X169572167Y-90480327D01*
X169612230Y-90483389D01*
X169652814Y-90484421D01*
X169693548Y-90483390D01*
X169733759Y-90480330D01*
X169773398Y-90475293D01*
X169812414Y-90468327D01*
X169850756Y-90459485D01*
X169888374Y-90448816D01*
X169925218Y-90436370D01*
X169961236Y-90422199D01*
X169996378Y-90406352D01*
X170030594Y-90388880D01*
X170063832Y-90369833D01*
X170096043Y-90349262D01*
X170127176Y-90327217D01*
X170157180Y-90303750D01*
X170186005Y-90278909D01*
X170213599Y-90252746D01*
X170239913Y-90225310D01*
X170264896Y-90196654D01*
X170288497Y-90166826D01*
X170310666Y-90135877D01*
X170331352Y-90103858D01*
X170350505Y-90070819D01*
X170368073Y-90036811D01*
X170384008Y-90001884D01*
X170398256Y-89966088D01*
X170410770Y-89929474D01*
X170421496Y-89892092D01*
X170430386Y-89853993D01*
X170437389Y-89815228D01*
X170442453Y-89775845D01*
X170445529Y-89735897D01*
X170446565Y-89695434D01*
X170445524Y-89654700D01*
X170442435Y-89614489D01*
X170437351Y-89574850D01*
X170430321Y-89535834D01*
X170421398Y-89497492D01*
X170410633Y-89459874D01*
X170398078Y-89423030D01*
X170383784Y-89387012D01*
X170367803Y-89351870D01*
X170350185Y-89317654D01*
X170330983Y-89284416D01*
X170310247Y-89252205D01*
X170288030Y-89221072D01*
X170264383Y-89191068D01*
X170239357Y-89162244D01*
X170213003Y-89134649D01*
X170185374Y-89108335D01*
X170156520Y-89083353D01*
X170126493Y-89059751D01*
X170095345Y-89037582D01*
X170063127Y-89016896D01*
X170029890Y-88997744D01*
X169995686Y-88980175D01*
X169960566Y-88964241D01*
X169924581Y-88949992D01*
X169887784Y-88937479D01*
X169850226Y-88926753D01*
X169811958Y-88917863D01*
X169773031Y-88910860D01*
X169733497Y-88905796D01*
X169693408Y-88902720D01*
X169652814Y-88901684D01*
X169612230Y-88902720D01*
X169572167Y-88905796D01*
X169532676Y-88910860D01*
X169493807Y-88917863D01*
X169455611Y-88926753D01*
X169418137Y-88937479D01*
X169381437Y-88949992D01*
X169345559Y-88964241D01*
X169310555Y-88980175D01*
X169276475Y-88997744D01*
X169243370Y-89016896D01*
X169211288Y-89037582D01*
X169180282Y-89059751D01*
X169150400Y-89083353D01*
X169121694Y-89108335D01*
X169094213Y-89134649D01*
X169068008Y-89162244D01*
X169043130Y-89191068D01*
X169019628Y-89221072D01*
X168997552Y-89252205D01*
X168976954Y-89284416D01*
X168957883Y-89317654D01*
X168940389Y-89351870D01*
X168924524Y-89387012D01*
X168910337Y-89423030D01*
X168897878Y-89459874D01*
X168887198Y-89497492D01*
X168878347Y-89535834D01*
X168871375Y-89574850D01*
X168866333Y-89614489D01*
X168863271Y-89654700D01*
X168862239Y-89695434D01*
X168355379Y-89695434D01*
X168356997Y-89631714D01*
X168362037Y-89565674D01*
D11*
X163195000Y-81280000D02*
X201295000Y-81280000D01*
X201295000Y-81280000D02*
X201295000Y-93345000D01*
X201295000Y-93345000D02*
X163195000Y-93345000D01*
X163195000Y-93345000D02*
X163195000Y-81280000D01*
D10*
G36*
X177733716Y-88251602D02*
G01*
X178862954Y-89809101D01*
X179990606Y-88251602D01*
X180218149Y-88251602D01*
X180218149Y-91077353D01*
X179451387Y-91077353D01*
X179451387Y-90282808D01*
X178933862Y-91035549D01*
X178794958Y-91035549D01*
X178752363Y-90978398D01*
X178272935Y-90282015D01*
X178272935Y-91077353D01*
X177506177Y-91077353D01*
X177506177Y-88753252D01*
X177771024Y-88753252D01*
X177771024Y-90812769D01*
X178008619Y-90812769D01*
X178008619Y-89431646D01*
X178863222Y-90672012D01*
X179716504Y-89430851D01*
X179716504Y-90812769D01*
X179954099Y-90812769D01*
X179954167Y-90812703D01*
X179954234Y-90812637D01*
X179954300Y-90812571D01*
X179954366Y-90812504D01*
X179954366Y-88753517D01*
X178863489Y-90260319D01*
X178536670Y-89809469D01*
X178862687Y-89809469D01*
X178863222Y-89809469D01*
X178862954Y-89809101D01*
X178862687Y-89809469D01*
X178536670Y-89809469D01*
X177771024Y-88753252D01*
X177506177Y-88753252D01*
X177506177Y-88251602D01*
X177733716Y-88251602D01*
G37*
X177733716Y-88251602D02*
X178862954Y-89809101D01*
X179990606Y-88251602D01*
X180218149Y-88251602D01*
X180218149Y-91077353D01*
X179451387Y-91077353D01*
X179451387Y-90282808D01*
X178933862Y-91035549D01*
X178794958Y-91035549D01*
X178752363Y-90978398D01*
X178272935Y-90282015D01*
X178272935Y-91077353D01*
X177506177Y-91077353D01*
X177506177Y-88753252D01*
X177771024Y-88753252D01*
X177771024Y-90812769D01*
X178008619Y-90812769D01*
X178008619Y-89431646D01*
X178863222Y-90672012D01*
X179716504Y-89430851D01*
X179716504Y-90812769D01*
X179954099Y-90812769D01*
X179954167Y-90812703D01*
X179954234Y-90812637D01*
X179954300Y-90812571D01*
X179954366Y-90812504D01*
X179954366Y-88753517D01*
X178863489Y-90260319D01*
X178536670Y-89809469D01*
X178862687Y-89809469D01*
X178863222Y-89809469D01*
X178862954Y-89809101D01*
X178862687Y-89809469D01*
X178536670Y-89809469D01*
X177771024Y-88753252D01*
X177506177Y-88753252D01*
X177506177Y-88251602D01*
X177733716Y-88251602D01*
G36*
X172158151Y-88445806D02*
G01*
X172158151Y-88445805D01*
X172203226Y-88446913D01*
X172247726Y-88450200D01*
X172291597Y-88455611D01*
X172334781Y-88463093D01*
X172377223Y-88472589D01*
X172418865Y-88484046D01*
X172459653Y-88497408D01*
X172499530Y-88512620D01*
X172538439Y-88529629D01*
X172576325Y-88548379D01*
X172613131Y-88568816D01*
X172648801Y-88590885D01*
X172683278Y-88614530D01*
X172716508Y-88639698D01*
X172748433Y-88666333D01*
X172778997Y-88694381D01*
X172808144Y-88723787D01*
X172835818Y-88754497D01*
X172861962Y-88786455D01*
X172886522Y-88819607D01*
X172909439Y-88853898D01*
X172930658Y-88889273D01*
X172950123Y-88925678D01*
X172967778Y-88963058D01*
X172983566Y-89001357D01*
X172997432Y-89040523D01*
X173009318Y-89080498D01*
X173019169Y-89121230D01*
X173026929Y-89162663D01*
X173032542Y-89204742D01*
X173035951Y-89247412D01*
X173037099Y-89290620D01*
X173035951Y-89333819D01*
X173032542Y-89376466D01*
X173026930Y-89418505D01*
X173019170Y-89459885D01*
X173009318Y-89500551D01*
X172997432Y-89540449D01*
X172983567Y-89579526D01*
X172967779Y-89617728D01*
X172950124Y-89655001D01*
X172930659Y-89691292D01*
X172909440Y-89726547D01*
X172886523Y-89760712D01*
X172861964Y-89793734D01*
X172835819Y-89825559D01*
X172808145Y-89856133D01*
X172778998Y-89885403D01*
X172748434Y-89913315D01*
X172716509Y-89939815D01*
X172683280Y-89964850D01*
X172648802Y-89988366D01*
X172613132Y-90010309D01*
X172576327Y-90030625D01*
X172538441Y-90049261D01*
X172499531Y-90066164D01*
X172459655Y-90081279D01*
X172418867Y-90094552D01*
X172377224Y-90105931D01*
X172334782Y-90115362D01*
X172291598Y-90122790D01*
X172247727Y-90128162D01*
X172203226Y-90131425D01*
X172158151Y-90132525D01*
X171782974Y-90132525D01*
X171782974Y-90944794D01*
X171280794Y-90944794D01*
X171280794Y-89634843D01*
X171782974Y-89634843D01*
X172158151Y-89636431D01*
X172177506Y-89636115D01*
X172196610Y-89634886D01*
X172215440Y-89632766D01*
X172233973Y-89629778D01*
X172252183Y-89625945D01*
X172270048Y-89621289D01*
X172287543Y-89615833D01*
X172304644Y-89609600D01*
X172321328Y-89602614D01*
X172337571Y-89594895D01*
X172353349Y-89586468D01*
X172368637Y-89577355D01*
X172383413Y-89567579D01*
X172397652Y-89557163D01*
X172411330Y-89546129D01*
X172424423Y-89534500D01*
X172436908Y-89522299D01*
X172448761Y-89509549D01*
X172459957Y-89496272D01*
X172470473Y-89482492D01*
X172480285Y-89468230D01*
X172489369Y-89453510D01*
X172497702Y-89438355D01*
X172505258Y-89422788D01*
X172512016Y-89406830D01*
X172517949Y-89390505D01*
X172523036Y-89373836D01*
X172527251Y-89356846D01*
X172530571Y-89339556D01*
X172532972Y-89321991D01*
X172534430Y-89304172D01*
X172534921Y-89286122D01*
X172534430Y-89268495D01*
X172532972Y-89251099D01*
X172530571Y-89233955D01*
X172527251Y-89217085D01*
X172523036Y-89200511D01*
X172517949Y-89184254D01*
X172512016Y-89168335D01*
X172505258Y-89152777D01*
X172497702Y-89137600D01*
X172489369Y-89122827D01*
X172480285Y-89108478D01*
X172470473Y-89094576D01*
X172459957Y-89081142D01*
X172448761Y-89068198D01*
X172436908Y-89055764D01*
X172424423Y-89043864D01*
X172411330Y-89032517D01*
X172397652Y-89021746D01*
X172383413Y-89011573D01*
X172368637Y-89002019D01*
X172353349Y-88993105D01*
X172337571Y-88984853D01*
X172321328Y-88977284D01*
X172304644Y-88970421D01*
X172287543Y-88964285D01*
X172270048Y-88958896D01*
X172252183Y-88954278D01*
X172233973Y-88950451D01*
X172215440Y-88947437D01*
X172196610Y-88945257D01*
X172177506Y-88943933D01*
X172158151Y-88943487D01*
X171782974Y-88943487D01*
X171782974Y-89634843D01*
X171280794Y-89634843D01*
X171280794Y-88445806D01*
X172158151Y-88445806D01*
G37*
X172158151Y-88445806D02*
X172158151Y-88445805D01*
X172203226Y-88446913D01*
X172247726Y-88450200D01*
X172291597Y-88455611D01*
X172334781Y-88463093D01*
X172377223Y-88472589D01*
X172418865Y-88484046D01*
X172459653Y-88497408D01*
X172499530Y-88512620D01*
X172538439Y-88529629D01*
X172576325Y-88548379D01*
X172613131Y-88568816D01*
X172648801Y-88590885D01*
X172683278Y-88614530D01*
X172716508Y-88639698D01*
X172748433Y-88666333D01*
X172778997Y-88694381D01*
X172808144Y-88723787D01*
X172835818Y-88754497D01*
X172861962Y-88786455D01*
X172886522Y-88819607D01*
X172909439Y-88853898D01*
X172930658Y-88889273D01*
X172950123Y-88925678D01*
X172967778Y-88963058D01*
X172983566Y-89001357D01*
X172997432Y-89040523D01*
X173009318Y-89080498D01*
X173019169Y-89121230D01*
X173026929Y-89162663D01*
X173032542Y-89204742D01*
X173035951Y-89247412D01*
X173037099Y-89290620D01*
X173035951Y-89333819D01*
X173032542Y-89376466D01*
X173026930Y-89418505D01*
X173019170Y-89459885D01*
X173009318Y-89500551D01*
X172997432Y-89540449D01*
X172983567Y-89579526D01*
X172967779Y-89617728D01*
X172950124Y-89655001D01*
X172930659Y-89691292D01*
X172909440Y-89726547D01*
X172886523Y-89760712D01*
X172861964Y-89793734D01*
X172835819Y-89825559D01*
X172808145Y-89856133D01*
X172778998Y-89885403D01*
X172748434Y-89913315D01*
X172716509Y-89939815D01*
X172683280Y-89964850D01*
X172648802Y-89988366D01*
X172613132Y-90010309D01*
X172576327Y-90030625D01*
X172538441Y-90049261D01*
X172499531Y-90066164D01*
X172459655Y-90081279D01*
X172418867Y-90094552D01*
X172377224Y-90105931D01*
X172334782Y-90115362D01*
X172291598Y-90122790D01*
X172247727Y-90128162D01*
X172203226Y-90131425D01*
X172158151Y-90132525D01*
X171782974Y-90132525D01*
X171782974Y-90944794D01*
X171280794Y-90944794D01*
X171280794Y-89634843D01*
X171782974Y-89634843D01*
X172158151Y-89636431D01*
X172177506Y-89636115D01*
X172196610Y-89634886D01*
X172215440Y-89632766D01*
X172233973Y-89629778D01*
X172252183Y-89625945D01*
X172270048Y-89621289D01*
X172287543Y-89615833D01*
X172304644Y-89609600D01*
X172321328Y-89602614D01*
X172337571Y-89594895D01*
X172353349Y-89586468D01*
X172368637Y-89577355D01*
X172383413Y-89567579D01*
X172397652Y-89557163D01*
X172411330Y-89546129D01*
X172424423Y-89534500D01*
X172436908Y-89522299D01*
X172448761Y-89509549D01*
X172459957Y-89496272D01*
X172470473Y-89482492D01*
X172480285Y-89468230D01*
X172489369Y-89453510D01*
X172497702Y-89438355D01*
X172505258Y-89422788D01*
X172512016Y-89406830D01*
X172517949Y-89390505D01*
X172523036Y-89373836D01*
X172527251Y-89356846D01*
X172530571Y-89339556D01*
X172532972Y-89321991D01*
X172534430Y-89304172D01*
X172534921Y-89286122D01*
X172534430Y-89268495D01*
X172532972Y-89251099D01*
X172530571Y-89233955D01*
X172527251Y-89217085D01*
X172523036Y-89200511D01*
X172517949Y-89184254D01*
X172512016Y-89168335D01*
X172505258Y-89152777D01*
X172497702Y-89137600D01*
X172489369Y-89122827D01*
X172480285Y-89108478D01*
X172470473Y-89094576D01*
X172459957Y-89081142D01*
X172448761Y-89068198D01*
X172436908Y-89055764D01*
X172424423Y-89043864D01*
X172411330Y-89032517D01*
X172397652Y-89021746D01*
X172383413Y-89011573D01*
X172368637Y-89002019D01*
X172353349Y-88993105D01*
X172337571Y-88984853D01*
X172321328Y-88977284D01*
X172304644Y-88970421D01*
X172287543Y-88964285D01*
X172270048Y-88958896D01*
X172252183Y-88954278D01*
X172233973Y-88950451D01*
X172215440Y-88947437D01*
X172196610Y-88945257D01*
X172177506Y-88943933D01*
X172158151Y-88943487D01*
X171782974Y-88943487D01*
X171782974Y-89634843D01*
X171280794Y-89634843D01*
X171280794Y-88445806D01*
X172158151Y-88445806D01*
D11*
X162560000Y-94615000D02*
X179070000Y-94615000D01*
X179070000Y-94615000D02*
X179070000Y-119380000D01*
X179070000Y-119380000D02*
X162560000Y-119380000D01*
X162560000Y-119380000D02*
X162560000Y-94615000D01*
D10*
G36*
X168966220Y-86635792D02*
G01*
X169970842Y-86635792D01*
X169970842Y-87135060D01*
X168463775Y-87135060D01*
X168463775Y-84635807D01*
X168966220Y-84635807D01*
X168966220Y-86635792D01*
G37*
X168966220Y-86635792D02*
X169970842Y-86635792D01*
X169970842Y-87135060D01*
X168463775Y-87135060D01*
X168463775Y-84635807D01*
X168966220Y-84635807D01*
X168966220Y-86635792D01*
G36*
X174826211Y-88940578D02*
G01*
X173821588Y-88940578D01*
X173821588Y-89428733D01*
X174683603Y-89428733D01*
X174683603Y-89929590D01*
X173821588Y-89929590D01*
X173821588Y-90445791D01*
X174826211Y-90445791D01*
X174826211Y-90945061D01*
X173319410Y-90945061D01*
X173319410Y-88445806D01*
X174826211Y-88445806D01*
X174826211Y-88940578D01*
G37*
X174826211Y-88940578D02*
X173821588Y-88940578D01*
X173821588Y-89428733D01*
X174683603Y-89428733D01*
X174683603Y-89929590D01*
X173821588Y-89929590D01*
X173821588Y-90445791D01*
X174826211Y-90445791D01*
X174826211Y-90945061D01*
X173319410Y-90945061D01*
X173319410Y-88445806D01*
X174826211Y-88445806D01*
X174826211Y-88940578D01*
G36*
X186957620Y-90704025D02*
G01*
X186903110Y-90756108D01*
X186848180Y-90804622D01*
X186792763Y-90849597D01*
X186736792Y-90891061D01*
X186680201Y-90929044D01*
X186622924Y-90963573D01*
X186564893Y-90994677D01*
X186506042Y-91022386D01*
X186446304Y-91046727D01*
X186385613Y-91067730D01*
X186323902Y-91085422D01*
X186261104Y-91099834D01*
X186197153Y-91110993D01*
X186131982Y-91118929D01*
X186065524Y-91123669D01*
X185997712Y-91125242D01*
X185923772Y-91123381D01*
X185850789Y-91117856D01*
X185778855Y-91108759D01*
X185708061Y-91096180D01*
X185638498Y-91080209D01*
X185570257Y-91060936D01*
X185503430Y-91038453D01*
X185438107Y-91012848D01*
X185374380Y-90984213D01*
X185312340Y-90952638D01*
X185252077Y-90918213D01*
X185193684Y-90881029D01*
X185137250Y-90841176D01*
X185082868Y-90798744D01*
X185030628Y-90753824D01*
X184980622Y-90706506D01*
X184932941Y-90656880D01*
X184887675Y-90605037D01*
X184844916Y-90551067D01*
X184804755Y-90495061D01*
X184767284Y-90437108D01*
X184732593Y-90377300D01*
X184700773Y-90315726D01*
X184671915Y-90252477D01*
X184646112Y-90187643D01*
X184623453Y-90121314D01*
X184612277Y-90082341D01*
X184611448Y-90077510D01*
X184602562Y-90037930D01*
X184591868Y-89999643D01*
X184590524Y-89995644D01*
X184587934Y-89984536D01*
X184575257Y-89914266D01*
X184566089Y-89842864D01*
X184560521Y-89770418D01*
X184558645Y-89697022D01*
X184823228Y-89697022D01*
X184824791Y-89755856D01*
X184829424Y-89814037D01*
X184837049Y-89871485D01*
X184847584Y-89928120D01*
X184860949Y-89983864D01*
X184877064Y-90038635D01*
X184895848Y-90092355D01*
X184917221Y-90144944D01*
X184941102Y-90196322D01*
X184967411Y-90246410D01*
X184996068Y-90295128D01*
X185026992Y-90342396D01*
X185060102Y-90388134D01*
X185095319Y-90432264D01*
X185132561Y-90474705D01*
X185171749Y-90515377D01*
X185212802Y-90554202D01*
X185255640Y-90591099D01*
X185300182Y-90625989D01*
X185346347Y-90658792D01*
X185394056Y-90689428D01*
X185443228Y-90717819D01*
X185493782Y-90743883D01*
X185545638Y-90767542D01*
X185598716Y-90788716D01*
X185652935Y-90807325D01*
X185708215Y-90823289D01*
X185764476Y-90836530D01*
X185821636Y-90846967D01*
X185879616Y-90854520D01*
X185938335Y-90859111D01*
X185997712Y-90860659D01*
X185997716Y-90860924D01*
X186046219Y-90859940D01*
X186093740Y-90856970D01*
X186140338Y-90851989D01*
X186186074Y-90844970D01*
X186231007Y-90835888D01*
X186275196Y-90824717D01*
X186318702Y-90811430D01*
X186361584Y-90796002D01*
X186403901Y-90778406D01*
X186445714Y-90758617D01*
X186487082Y-90736609D01*
X186528065Y-90712356D01*
X186568722Y-90685831D01*
X186609113Y-90657010D01*
X186649298Y-90625865D01*
X186689336Y-90592371D01*
X186553338Y-90400814D01*
X186518771Y-90427448D01*
X186484029Y-90452380D01*
X186449117Y-90475608D01*
X186414040Y-90497130D01*
X186378804Y-90516944D01*
X186343413Y-90535047D01*
X186307872Y-90551437D01*
X186272187Y-90566111D01*
X186236362Y-90579068D01*
X186200402Y-90590305D01*
X186164313Y-90599820D01*
X186128100Y-90607610D01*
X186091767Y-90613672D01*
X186055320Y-90618006D01*
X186018764Y-90620608D01*
X185982103Y-90621475D01*
X185941394Y-90620373D01*
X185900492Y-90617094D01*
X185859495Y-90611675D01*
X185818501Y-90604158D01*
X185777606Y-90594579D01*
X185736908Y-90582980D01*
X185696504Y-90569399D01*
X185656492Y-90553874D01*
X185616970Y-90536446D01*
X185578033Y-90517154D01*
X185539781Y-90496036D01*
X185502310Y-90473131D01*
X185465717Y-90448480D01*
X185430101Y-90422120D01*
X185395558Y-90394091D01*
X185362185Y-90364433D01*
X185330081Y-90333184D01*
X185299342Y-90300384D01*
X185270067Y-90266071D01*
X185242351Y-90230285D01*
X185216293Y-90193066D01*
X185191990Y-90154451D01*
X185169540Y-90114481D01*
X185149039Y-90073193D01*
X185130586Y-90030629D01*
X185114277Y-89986826D01*
X185100210Y-89941824D01*
X185088482Y-89895662D01*
X185079191Y-89848380D01*
X185072434Y-89800015D01*
X185068308Y-89750608D01*
X185066911Y-89700197D01*
X185331491Y-89700197D01*
X185332485Y-89735137D01*
X185335423Y-89769487D01*
X185340233Y-89803214D01*
X185346848Y-89836284D01*
X185355196Y-89868662D01*
X185365209Y-89900315D01*
X185376817Y-89931208D01*
X185389951Y-89961307D01*
X185404541Y-89990579D01*
X185420518Y-90018989D01*
X185437812Y-90046502D01*
X185456353Y-90073085D01*
X185476072Y-90098704D01*
X185496900Y-90123325D01*
X185518767Y-90146913D01*
X185541603Y-90169435D01*
X185565339Y-90190856D01*
X185589906Y-90211142D01*
X185615233Y-90230259D01*
X185641252Y-90248173D01*
X185667893Y-90264850D01*
X185695086Y-90280256D01*
X185722761Y-90294356D01*
X185750851Y-90307117D01*
X185779283Y-90318505D01*
X185807990Y-90328484D01*
X185836902Y-90337022D01*
X185865949Y-90344084D01*
X185895062Y-90349636D01*
X185924171Y-90353644D01*
X185953206Y-90356074D01*
X185982099Y-90356892D01*
X186013463Y-90355942D01*
X186044760Y-90353088D01*
X186076003Y-90348323D01*
X186107205Y-90341641D01*
X186138379Y-90333035D01*
X186169538Y-90322499D01*
X186200695Y-90310025D01*
X186231864Y-90295608D01*
X186263058Y-90279241D01*
X186294290Y-90260916D01*
X186325574Y-90240629D01*
X186356922Y-90218371D01*
X186388347Y-90194136D01*
X186419863Y-90167918D01*
X186451483Y-90139711D01*
X186483220Y-90109507D01*
X186594083Y-90000763D01*
X186594083Y-90000765D01*
X187014238Y-90592373D01*
X187014238Y-88799820D01*
X186590642Y-89377405D01*
X186481634Y-89270514D01*
X186460673Y-89250513D01*
X186438197Y-89230245D01*
X186414239Y-89209922D01*
X186388835Y-89189762D01*
X186362018Y-89169978D01*
X186333823Y-89150786D01*
X186304285Y-89132401D01*
X186273438Y-89115038D01*
X186241317Y-89098912D01*
X186207956Y-89084238D01*
X186173389Y-89071232D01*
X186137652Y-89060108D01*
X186100779Y-89051081D01*
X186062803Y-89044368D01*
X186023761Y-89040181D01*
X185983686Y-89038738D01*
X185951786Y-89039653D01*
X185920115Y-89042362D01*
X185888726Y-89046813D01*
X185857669Y-89052955D01*
X185826996Y-89060735D01*
X185796757Y-89070102D01*
X185767005Y-89081003D01*
X185737791Y-89093387D01*
X185709166Y-89107202D01*
X185681181Y-89122394D01*
X185653888Y-89138914D01*
X185627338Y-89156708D01*
X185601583Y-89175725D01*
X185576673Y-89195912D01*
X185552661Y-89217218D01*
X185529598Y-89239590D01*
X185507534Y-89262977D01*
X185486522Y-89287327D01*
X185466612Y-89312588D01*
X185447856Y-89338707D01*
X185430306Y-89365633D01*
X185414012Y-89393314D01*
X185399026Y-89421698D01*
X185385400Y-89450732D01*
X185373184Y-89480365D01*
X185362431Y-89510545D01*
X185353191Y-89541220D01*
X185345516Y-89572338D01*
X185339457Y-89603846D01*
X185335066Y-89635694D01*
X185332393Y-89667828D01*
X185331491Y-89700197D01*
X185066911Y-89700197D01*
X185068155Y-89654150D01*
X185071841Y-89608523D01*
X185077902Y-89563387D01*
X185086271Y-89518809D01*
X185096880Y-89474857D01*
X185109662Y-89431600D01*
X185124549Y-89389105D01*
X185141474Y-89347442D01*
X185160369Y-89306677D01*
X185181168Y-89266880D01*
X185203801Y-89228119D01*
X185228203Y-89190461D01*
X185254306Y-89153976D01*
X185282042Y-89118730D01*
X185311343Y-89084793D01*
X185342143Y-89052233D01*
X185374374Y-89021117D01*
X185407969Y-88991515D01*
X185442859Y-88963494D01*
X185478978Y-88937123D01*
X185516258Y-88912469D01*
X185554632Y-88889601D01*
X185594032Y-88868587D01*
X185634391Y-88849496D01*
X185675642Y-88832395D01*
X185717716Y-88817353D01*
X185760547Y-88804438D01*
X185804067Y-88793718D01*
X185848209Y-88785262D01*
X185892905Y-88779137D01*
X185938088Y-88775413D01*
X185983690Y-88774156D01*
X186020801Y-88774988D01*
X186057804Y-88777481D01*
X186094679Y-88781624D01*
X186131403Y-88787410D01*
X186167957Y-88794829D01*
X186204319Y-88803875D01*
X186240469Y-88814537D01*
X186276386Y-88826808D01*
X186312048Y-88840678D01*
X186347435Y-88856140D01*
X186382526Y-88873185D01*
X186417300Y-88891804D01*
X186451736Y-88911989D01*
X186485813Y-88933731D01*
X186519511Y-88957022D01*
X186552808Y-88981854D01*
X186686689Y-88799026D01*
X186646270Y-88766493D01*
X186605472Y-88736063D01*
X186564280Y-88707727D01*
X186522680Y-88681480D01*
X186480658Y-88657316D01*
X186438201Y-88635226D01*
X186395294Y-88615206D01*
X186351924Y-88597248D01*
X186308076Y-88581345D01*
X186263737Y-88567492D01*
X186218892Y-88555681D01*
X186173528Y-88545906D01*
X186127631Y-88538161D01*
X186081186Y-88532438D01*
X186034181Y-88528731D01*
X185986600Y-88527034D01*
X185927860Y-88528590D01*
X185869763Y-88533206D01*
X185812388Y-88540801D01*
X185755817Y-88551294D01*
X185700129Y-88564607D01*
X185645404Y-88580659D01*
X185591723Y-88599370D01*
X185539166Y-88620659D01*
X185487812Y-88644447D01*
X185437742Y-88670654D01*
X185389037Y-88699199D01*
X185341775Y-88730003D01*
X185296038Y-88762985D01*
X185251905Y-88798065D01*
X185209457Y-88835164D01*
X185168774Y-88874201D01*
X185129935Y-88915095D01*
X185093022Y-88957768D01*
X185058114Y-89002138D01*
X185025290Y-89048126D01*
X184994632Y-89095652D01*
X184966220Y-89144636D01*
X184940133Y-89194997D01*
X184916453Y-89246655D01*
X184895258Y-89299531D01*
X184876628Y-89353544D01*
X184860646Y-89408615D01*
X184847389Y-89464662D01*
X184836939Y-89521607D01*
X184829375Y-89579368D01*
X184824778Y-89637867D01*
X184823228Y-89697022D01*
X184558645Y-89697022D01*
X184558645Y-89697021D01*
X184560546Y-89624490D01*
X184566185Y-89552764D01*
X184575464Y-89481941D01*
X184588285Y-89412120D01*
X184604551Y-89343398D01*
X184624163Y-89275875D01*
X184647024Y-89209648D01*
X184673036Y-89144815D01*
X184702102Y-89081474D01*
X184734122Y-89019725D01*
X184769001Y-88959664D01*
X184806640Y-88901390D01*
X184846941Y-88845002D01*
X184889806Y-88790597D01*
X184935138Y-88738274D01*
X184982839Y-88688131D01*
X185032812Y-88640267D01*
X185084957Y-88594778D01*
X185139179Y-88551764D01*
X185195378Y-88511323D01*
X185253457Y-88473553D01*
X185313319Y-88438552D01*
X185374865Y-88406418D01*
X185437998Y-88377250D01*
X185502620Y-88351145D01*
X185568633Y-88328203D01*
X185635940Y-88308521D01*
X185704442Y-88292197D01*
X185774043Y-88279330D01*
X185844643Y-88270017D01*
X185916146Y-88264358D01*
X185988454Y-88262449D01*
X186055000Y-88265000D01*
X186120785Y-88270764D01*
X186185799Y-88279734D01*
X186250032Y-88291905D01*
X186313472Y-88307271D01*
X186376109Y-88325827D01*
X186437933Y-88347566D01*
X186498934Y-88372483D01*
X186559101Y-88400572D01*
X186618423Y-88431827D01*
X186676890Y-88466242D01*
X186734491Y-88503812D01*
X186791217Y-88544530D01*
X186847056Y-88588391D01*
X186901998Y-88635389D01*
X186956033Y-88685518D01*
X187014242Y-88741611D01*
X187014242Y-88313515D01*
X187781003Y-88313515D01*
X187781007Y-88313516D01*
X187781007Y-90313500D01*
X188785631Y-90313500D01*
X188785631Y-91077353D01*
X187014242Y-91077353D01*
X187014242Y-90812769D01*
X187278821Y-90812769D01*
X188521043Y-90812769D01*
X188521043Y-90578083D01*
X188521039Y-90578348D01*
X187516416Y-90578348D01*
X187516416Y-88578364D01*
X187278821Y-88578364D01*
X187278821Y-90812769D01*
X187014242Y-90812769D01*
X187014242Y-90647934D01*
X186957620Y-90704025D01*
G37*
X186957620Y-90704025D02*
X186903110Y-90756108D01*
X186848180Y-90804622D01*
X186792763Y-90849597D01*
X186736792Y-90891061D01*
X186680201Y-90929044D01*
X186622924Y-90963573D01*
X186564893Y-90994677D01*
X186506042Y-91022386D01*
X186446304Y-91046727D01*
X186385613Y-91067730D01*
X186323902Y-91085422D01*
X186261104Y-91099834D01*
X186197153Y-91110993D01*
X186131982Y-91118929D01*
X186065524Y-91123669D01*
X185997712Y-91125242D01*
X185923772Y-91123381D01*
X185850789Y-91117856D01*
X185778855Y-91108759D01*
X185708061Y-91096180D01*
X185638498Y-91080209D01*
X185570257Y-91060936D01*
X185503430Y-91038453D01*
X185438107Y-91012848D01*
X185374380Y-90984213D01*
X185312340Y-90952638D01*
X185252077Y-90918213D01*
X185193684Y-90881029D01*
X185137250Y-90841176D01*
X185082868Y-90798744D01*
X185030628Y-90753824D01*
X184980622Y-90706506D01*
X184932941Y-90656880D01*
X184887675Y-90605037D01*
X184844916Y-90551067D01*
X184804755Y-90495061D01*
X184767284Y-90437108D01*
X184732593Y-90377300D01*
X184700773Y-90315726D01*
X184671915Y-90252477D01*
X184646112Y-90187643D01*
X184623453Y-90121314D01*
X184612277Y-90082341D01*
X184611448Y-90077510D01*
X184602562Y-90037930D01*
X184591868Y-89999643D01*
X184590524Y-89995644D01*
X184587934Y-89984536D01*
X184575257Y-89914266D01*
X184566089Y-89842864D01*
X184560521Y-89770418D01*
X184558645Y-89697022D01*
X184823228Y-89697022D01*
X184824791Y-89755856D01*
X184829424Y-89814037D01*
X184837049Y-89871485D01*
X184847584Y-89928120D01*
X184860949Y-89983864D01*
X184877064Y-90038635D01*
X184895848Y-90092355D01*
X184917221Y-90144944D01*
X184941102Y-90196322D01*
X184967411Y-90246410D01*
X184996068Y-90295128D01*
X185026992Y-90342396D01*
X185060102Y-90388134D01*
X185095319Y-90432264D01*
X185132561Y-90474705D01*
X185171749Y-90515377D01*
X185212802Y-90554202D01*
X185255640Y-90591099D01*
X185300182Y-90625989D01*
X185346347Y-90658792D01*
X185394056Y-90689428D01*
X185443228Y-90717819D01*
X185493782Y-90743883D01*
X185545638Y-90767542D01*
X185598716Y-90788716D01*
X185652935Y-90807325D01*
X185708215Y-90823289D01*
X185764476Y-90836530D01*
X185821636Y-90846967D01*
X185879616Y-90854520D01*
X185938335Y-90859111D01*
X185997712Y-90860659D01*
X185997716Y-90860924D01*
X186046219Y-90859940D01*
X186093740Y-90856970D01*
X186140338Y-90851989D01*
X186186074Y-90844970D01*
X186231007Y-90835888D01*
X186275196Y-90824717D01*
X186318702Y-90811430D01*
X186361584Y-90796002D01*
X186403901Y-90778406D01*
X186445714Y-90758617D01*
X186487082Y-90736609D01*
X186528065Y-90712356D01*
X186568722Y-90685831D01*
X186609113Y-90657010D01*
X186649298Y-90625865D01*
X186689336Y-90592371D01*
X186553338Y-90400814D01*
X186518771Y-90427448D01*
X186484029Y-90452380D01*
X186449117Y-90475608D01*
X186414040Y-90497130D01*
X186378804Y-90516944D01*
X186343413Y-90535047D01*
X186307872Y-90551437D01*
X186272187Y-90566111D01*
X186236362Y-90579068D01*
X186200402Y-90590305D01*
X186164313Y-90599820D01*
X186128100Y-90607610D01*
X186091767Y-90613672D01*
X186055320Y-90618006D01*
X186018764Y-90620608D01*
X185982103Y-90621475D01*
X185941394Y-90620373D01*
X185900492Y-90617094D01*
X185859495Y-90611675D01*
X185818501Y-90604158D01*
X185777606Y-90594579D01*
X185736908Y-90582980D01*
X185696504Y-90569399D01*
X185656492Y-90553874D01*
X185616970Y-90536446D01*
X185578033Y-90517154D01*
X185539781Y-90496036D01*
X185502310Y-90473131D01*
X185465717Y-90448480D01*
X185430101Y-90422120D01*
X185395558Y-90394091D01*
X185362185Y-90364433D01*
X185330081Y-90333184D01*
X185299342Y-90300384D01*
X185270067Y-90266071D01*
X185242351Y-90230285D01*
X185216293Y-90193066D01*
X185191990Y-90154451D01*
X185169540Y-90114481D01*
X185149039Y-90073193D01*
X185130586Y-90030629D01*
X185114277Y-89986826D01*
X185100210Y-89941824D01*
X185088482Y-89895662D01*
X185079191Y-89848380D01*
X185072434Y-89800015D01*
X185068308Y-89750608D01*
X185066911Y-89700197D01*
X185331491Y-89700197D01*
X185332485Y-89735137D01*
X185335423Y-89769487D01*
X185340233Y-89803214D01*
X185346848Y-89836284D01*
X185355196Y-89868662D01*
X185365209Y-89900315D01*
X185376817Y-89931208D01*
X185389951Y-89961307D01*
X185404541Y-89990579D01*
X185420518Y-90018989D01*
X185437812Y-90046502D01*
X185456353Y-90073085D01*
X185476072Y-90098704D01*
X185496900Y-90123325D01*
X185518767Y-90146913D01*
X185541603Y-90169435D01*
X185565339Y-90190856D01*
X185589906Y-90211142D01*
X185615233Y-90230259D01*
X185641252Y-90248173D01*
X185667893Y-90264850D01*
X185695086Y-90280256D01*
X185722761Y-90294356D01*
X185750851Y-90307117D01*
X185779283Y-90318505D01*
X185807990Y-90328484D01*
X185836902Y-90337022D01*
X185865949Y-90344084D01*
X185895062Y-90349636D01*
X185924171Y-90353644D01*
X185953206Y-90356074D01*
X185982099Y-90356892D01*
X186013463Y-90355942D01*
X186044760Y-90353088D01*
X186076003Y-90348323D01*
X186107205Y-90341641D01*
X186138379Y-90333035D01*
X186169538Y-90322499D01*
X186200695Y-90310025D01*
X186231864Y-90295608D01*
X186263058Y-90279241D01*
X186294290Y-90260916D01*
X186325574Y-90240629D01*
X186356922Y-90218371D01*
X186388347Y-90194136D01*
X186419863Y-90167918D01*
X186451483Y-90139711D01*
X186483220Y-90109507D01*
X186594083Y-90000763D01*
X186594083Y-90000765D01*
X187014238Y-90592373D01*
X187014238Y-88799820D01*
X186590642Y-89377405D01*
X186481634Y-89270514D01*
X186460673Y-89250513D01*
X186438197Y-89230245D01*
X186414239Y-89209922D01*
X186388835Y-89189762D01*
X186362018Y-89169978D01*
X186333823Y-89150786D01*
X186304285Y-89132401D01*
X186273438Y-89115038D01*
X186241317Y-89098912D01*
X186207956Y-89084238D01*
X186173389Y-89071232D01*
X186137652Y-89060108D01*
X186100779Y-89051081D01*
X186062803Y-89044368D01*
X186023761Y-89040181D01*
X185983686Y-89038738D01*
X185951786Y-89039653D01*
X185920115Y-89042362D01*
X185888726Y-89046813D01*
X185857669Y-89052955D01*
X185826996Y-89060735D01*
X185796757Y-89070102D01*
X185767005Y-89081003D01*
X185737791Y-89093387D01*
X185709166Y-89107202D01*
X185681181Y-89122394D01*
X185653888Y-89138914D01*
X185627338Y-89156708D01*
X185601583Y-89175725D01*
X185576673Y-89195912D01*
X185552661Y-89217218D01*
X185529598Y-89239590D01*
X185507534Y-89262977D01*
X185486522Y-89287327D01*
X185466612Y-89312588D01*
X185447856Y-89338707D01*
X185430306Y-89365633D01*
X185414012Y-89393314D01*
X185399026Y-89421698D01*
X185385400Y-89450732D01*
X185373184Y-89480365D01*
X185362431Y-89510545D01*
X185353191Y-89541220D01*
X185345516Y-89572338D01*
X185339457Y-89603846D01*
X185335066Y-89635694D01*
X185332393Y-89667828D01*
X185331491Y-89700197D01*
X185066911Y-89700197D01*
X185068155Y-89654150D01*
X185071841Y-89608523D01*
X185077902Y-89563387D01*
X185086271Y-89518809D01*
X185096880Y-89474857D01*
X185109662Y-89431600D01*
X185124549Y-89389105D01*
X185141474Y-89347442D01*
X185160369Y-89306677D01*
X185181168Y-89266880D01*
X185203801Y-89228119D01*
X185228203Y-89190461D01*
X185254306Y-89153976D01*
X185282042Y-89118730D01*
X185311343Y-89084793D01*
X185342143Y-89052233D01*
X185374374Y-89021117D01*
X185407969Y-88991515D01*
X185442859Y-88963494D01*
X185478978Y-88937123D01*
X185516258Y-88912469D01*
X185554632Y-88889601D01*
X185594032Y-88868587D01*
X185634391Y-88849496D01*
X185675642Y-88832395D01*
X185717716Y-88817353D01*
X185760547Y-88804438D01*
X185804067Y-88793718D01*
X185848209Y-88785262D01*
X185892905Y-88779137D01*
X185938088Y-88775413D01*
X185983690Y-88774156D01*
X186020801Y-88774988D01*
X186057804Y-88777481D01*
X186094679Y-88781624D01*
X186131403Y-88787410D01*
X186167957Y-88794829D01*
X186204319Y-88803875D01*
X186240469Y-88814537D01*
X186276386Y-88826808D01*
X186312048Y-88840678D01*
X186347435Y-88856140D01*
X186382526Y-88873185D01*
X186417300Y-88891804D01*
X186451736Y-88911989D01*
X186485813Y-88933731D01*
X186519511Y-88957022D01*
X186552808Y-88981854D01*
X186686689Y-88799026D01*
X186646270Y-88766493D01*
X186605472Y-88736063D01*
X186564280Y-88707727D01*
X186522680Y-88681480D01*
X186480658Y-88657316D01*
X186438201Y-88635226D01*
X186395294Y-88615206D01*
X186351924Y-88597248D01*
X186308076Y-88581345D01*
X186263737Y-88567492D01*
X186218892Y-88555681D01*
X186173528Y-88545906D01*
X186127631Y-88538161D01*
X186081186Y-88532438D01*
X186034181Y-88528731D01*
X185986600Y-88527034D01*
X185927860Y-88528590D01*
X185869763Y-88533206D01*
X185812388Y-88540801D01*
X185755817Y-88551294D01*
X185700129Y-88564607D01*
X185645404Y-88580659D01*
X185591723Y-88599370D01*
X185539166Y-88620659D01*
X185487812Y-88644447D01*
X185437742Y-88670654D01*
X185389037Y-88699199D01*
X185341775Y-88730003D01*
X185296038Y-88762985D01*
X185251905Y-88798065D01*
X185209457Y-88835164D01*
X185168774Y-88874201D01*
X185129935Y-88915095D01*
X185093022Y-88957768D01*
X185058114Y-89002138D01*
X185025290Y-89048126D01*
X184994632Y-89095652D01*
X184966220Y-89144636D01*
X184940133Y-89194997D01*
X184916453Y-89246655D01*
X184895258Y-89299531D01*
X184876628Y-89353544D01*
X184860646Y-89408615D01*
X184847389Y-89464662D01*
X184836939Y-89521607D01*
X184829375Y-89579368D01*
X184824778Y-89637867D01*
X184823228Y-89697022D01*
X184558645Y-89697022D01*
X184558645Y-89697021D01*
X184560546Y-89624490D01*
X184566185Y-89552764D01*
X184575464Y-89481941D01*
X184588285Y-89412120D01*
X184604551Y-89343398D01*
X184624163Y-89275875D01*
X184647024Y-89209648D01*
X184673036Y-89144815D01*
X184702102Y-89081474D01*
X184734122Y-89019725D01*
X184769001Y-88959664D01*
X184806640Y-88901390D01*
X184846941Y-88845002D01*
X184889806Y-88790597D01*
X184935138Y-88738274D01*
X184982839Y-88688131D01*
X185032812Y-88640267D01*
X185084957Y-88594778D01*
X185139179Y-88551764D01*
X185195378Y-88511323D01*
X185253457Y-88473553D01*
X185313319Y-88438552D01*
X185374865Y-88406418D01*
X185437998Y-88377250D01*
X185502620Y-88351145D01*
X185568633Y-88328203D01*
X185635940Y-88308521D01*
X185704442Y-88292197D01*
X185774043Y-88279330D01*
X185844643Y-88270017D01*
X185916146Y-88264358D01*
X185988454Y-88262449D01*
X186055000Y-88265000D01*
X186120785Y-88270764D01*
X186185799Y-88279734D01*
X186250032Y-88291905D01*
X186313472Y-88307271D01*
X186376109Y-88325827D01*
X186437933Y-88347566D01*
X186498934Y-88372483D01*
X186559101Y-88400572D01*
X186618423Y-88431827D01*
X186676890Y-88466242D01*
X186734491Y-88503812D01*
X186791217Y-88544530D01*
X186847056Y-88588391D01*
X186901998Y-88635389D01*
X186956033Y-88685518D01*
X187014242Y-88741611D01*
X187014242Y-88313515D01*
X187781003Y-88313515D01*
X187781007Y-88313516D01*
X187781007Y-90313500D01*
X188785631Y-90313500D01*
X188785631Y-91077353D01*
X187014242Y-91077353D01*
X187014242Y-90812769D01*
X187278821Y-90812769D01*
X188521043Y-90812769D01*
X188521043Y-90578083D01*
X188521039Y-90578348D01*
X187516416Y-90578348D01*
X187516416Y-88578364D01*
X187278821Y-88578364D01*
X187278821Y-90812769D01*
X187014242Y-90812769D01*
X187014242Y-90647934D01*
X186957620Y-90704025D01*
G36*
X173532654Y-84584550D02*
G01*
X173594339Y-84589543D01*
X173624551Y-84593299D01*
X173654318Y-84597900D01*
X173683619Y-84603350D01*
X173712433Y-84609652D01*
X173740740Y-84616811D01*
X173768521Y-84624829D01*
X173795755Y-84633711D01*
X173822422Y-84643461D01*
X173848502Y-84654081D01*
X173873975Y-84665576D01*
X173898821Y-84677950D01*
X173923020Y-84691206D01*
X173946551Y-84705348D01*
X173969395Y-84720379D01*
X173991531Y-84736304D01*
X174012939Y-84753127D01*
X174033600Y-84770850D01*
X174053492Y-84789478D01*
X174072597Y-84809014D01*
X174090893Y-84829463D01*
X174108361Y-84850827D01*
X174124981Y-84873110D01*
X174140733Y-84896318D01*
X174155595Y-84920452D01*
X174169549Y-84945517D01*
X174182575Y-84971516D01*
X174194651Y-84998453D01*
X174205758Y-85026333D01*
X173835344Y-85285360D01*
X173828147Y-85271677D01*
X173820557Y-85258506D01*
X173812586Y-85245840D01*
X173804248Y-85233676D01*
X173795557Y-85222007D01*
X173786526Y-85210830D01*
X173767500Y-85189928D01*
X173747278Y-85170931D01*
X173725970Y-85153796D01*
X173703685Y-85138485D01*
X173680531Y-85124957D01*
X173656618Y-85113171D01*
X173632054Y-85103087D01*
X173606948Y-85094665D01*
X173581409Y-85087865D01*
X173555546Y-85082646D01*
X173529468Y-85078969D01*
X173503283Y-85076791D01*
X173477102Y-85076075D01*
X173459659Y-85076390D01*
X173442515Y-85077324D01*
X173425687Y-85078862D01*
X173409191Y-85080987D01*
X173393043Y-85083683D01*
X173377262Y-85086933D01*
X173361863Y-85090722D01*
X173346864Y-85095034D01*
X173332280Y-85099851D01*
X173318129Y-85105159D01*
X173304427Y-85110940D01*
X173291191Y-85117179D01*
X173278438Y-85123860D01*
X173266184Y-85130965D01*
X173254446Y-85138480D01*
X173243242Y-85146388D01*
X173232587Y-85154672D01*
X173222498Y-85163317D01*
X173212992Y-85172307D01*
X173204086Y-85181624D01*
X173195796Y-85191254D01*
X173188140Y-85201179D01*
X173181133Y-85211384D01*
X173174793Y-85221852D01*
X173169136Y-85232568D01*
X173164180Y-85243515D01*
X173159940Y-85254676D01*
X173156433Y-85266037D01*
X173153677Y-85277580D01*
X173151687Y-85289289D01*
X173150481Y-85301148D01*
X173150075Y-85313142D01*
X173150627Y-85326826D01*
X173152270Y-85339969D01*
X173154988Y-85352605D01*
X173158764Y-85364768D01*
X173163582Y-85376490D01*
X173169424Y-85387805D01*
X173176274Y-85398746D01*
X173184116Y-85409347D01*
X173202705Y-85429659D01*
X173225057Y-85449008D01*
X173251039Y-85467660D01*
X173280516Y-85485881D01*
X173313353Y-85503939D01*
X173349418Y-85522098D01*
X173430692Y-85559787D01*
X173523264Y-85601079D01*
X173626062Y-85648104D01*
X173701873Y-85684937D01*
X173773925Y-85722367D01*
X173842062Y-85760626D01*
X173906128Y-85799945D01*
X173965966Y-85840556D01*
X174021420Y-85882689D01*
X174072333Y-85926577D01*
X174096039Y-85949251D01*
X174118551Y-85972450D01*
X174139850Y-85996203D01*
X174159916Y-86020540D01*
X174178730Y-86045488D01*
X174196273Y-86071078D01*
X174212524Y-86097337D01*
X174227465Y-86124296D01*
X174241075Y-86151982D01*
X174253336Y-86180425D01*
X174264227Y-86209653D01*
X174273729Y-86239696D01*
X174281823Y-86270583D01*
X174288489Y-86302341D01*
X174293708Y-86335002D01*
X174297460Y-86368592D01*
X174299726Y-86403141D01*
X174300485Y-86438679D01*
X174299401Y-86480903D01*
X174296174Y-86522135D01*
X174290842Y-86562350D01*
X174283445Y-86601527D01*
X174274020Y-86639642D01*
X174262605Y-86676672D01*
X174249240Y-86712596D01*
X174233963Y-86747390D01*
X174216812Y-86781031D01*
X174197825Y-86813496D01*
X174177041Y-86844764D01*
X174154499Y-86874810D01*
X174130236Y-86903613D01*
X174104291Y-86931149D01*
X174076703Y-86957396D01*
X174047511Y-86982331D01*
X174016751Y-87005932D01*
X173984463Y-87028174D01*
X173950686Y-87049037D01*
X173915457Y-87068496D01*
X173878816Y-87086529D01*
X173840800Y-87103114D01*
X173801447Y-87118227D01*
X173760798Y-87131846D01*
X173675759Y-87154510D01*
X173585991Y-87170925D01*
X173491800Y-87180907D01*
X173393495Y-87184275D01*
X173355437Y-87183777D01*
X173318011Y-87182286D01*
X173281224Y-87179807D01*
X173245079Y-87176348D01*
X173209583Y-87171912D01*
X173174740Y-87166506D01*
X173140555Y-87160135D01*
X173107033Y-87152806D01*
X173074179Y-87144523D01*
X173041998Y-87135292D01*
X173010496Y-87125119D01*
X172979677Y-87114009D01*
X172949547Y-87101969D01*
X172920109Y-87089003D01*
X172891370Y-87075117D01*
X172863335Y-87060317D01*
X172836008Y-87044609D01*
X172809395Y-87027998D01*
X172783500Y-87010490D01*
X172758329Y-86992090D01*
X172733886Y-86972804D01*
X172710177Y-86952638D01*
X172687207Y-86931597D01*
X172664980Y-86909686D01*
X172643502Y-86886913D01*
X172622778Y-86863281D01*
X172602813Y-86838797D01*
X172583612Y-86813467D01*
X172565180Y-86787295D01*
X172547521Y-86760288D01*
X172530642Y-86732452D01*
X172514547Y-86703791D01*
X172916185Y-86421744D01*
X172937406Y-86453762D01*
X172959802Y-86483551D01*
X172983381Y-86511133D01*
X173008152Y-86536532D01*
X173034122Y-86559770D01*
X173061301Y-86580870D01*
X173089697Y-86599853D01*
X173119318Y-86616742D01*
X173150173Y-86631561D01*
X173182271Y-86644330D01*
X173215620Y-86655074D01*
X173250229Y-86663813D01*
X173286105Y-86670572D01*
X173323259Y-86675371D01*
X173361697Y-86678235D01*
X173401430Y-86679184D01*
X173401430Y-86678922D01*
X173423277Y-86678642D01*
X173444656Y-86677811D01*
X173465554Y-86676438D01*
X173485954Y-86674534D01*
X173505842Y-86672111D01*
X173525204Y-86669179D01*
X173544024Y-86665749D01*
X173562287Y-86661831D01*
X173579979Y-86657437D01*
X173597085Y-86652577D01*
X173613591Y-86647261D01*
X173629480Y-86641501D01*
X173644739Y-86635307D01*
X173659352Y-86628690D01*
X173673305Y-86621662D01*
X173686583Y-86614231D01*
X173699172Y-86606410D01*
X173711055Y-86598209D01*
X173722219Y-86589639D01*
X173732649Y-86580711D01*
X173742329Y-86571435D01*
X173751246Y-86561822D01*
X173759384Y-86551882D01*
X173766728Y-86541628D01*
X173773263Y-86531069D01*
X173778975Y-86520216D01*
X173783850Y-86509079D01*
X173787871Y-86497671D01*
X173791024Y-86486001D01*
X173793295Y-86474080D01*
X173794668Y-86461918D01*
X173795129Y-86449528D01*
X173794263Y-86432476D01*
X173791705Y-86415648D01*
X173787516Y-86399038D01*
X173781759Y-86382643D01*
X173774495Y-86366457D01*
X173765786Y-86350477D01*
X173755694Y-86334697D01*
X173744279Y-86319113D01*
X173717730Y-86288515D01*
X173686632Y-86258646D01*
X173651479Y-86229471D01*
X173612763Y-86200952D01*
X173570978Y-86173053D01*
X173526616Y-86145737D01*
X173480171Y-86118969D01*
X173432135Y-86092712D01*
X173333263Y-86041584D01*
X173233945Y-85992063D01*
X173128030Y-85938666D01*
X173075327Y-85910629D01*
X173023450Y-85881248D01*
X172972893Y-85850185D01*
X172924147Y-85817101D01*
X172877706Y-85781659D01*
X172834062Y-85743520D01*
X172813443Y-85723333D01*
X172793708Y-85702345D01*
X172774919Y-85680514D01*
X172757136Y-85657796D01*
X172740423Y-85634151D01*
X172724839Y-85609536D01*
X172710448Y-85583908D01*
X172697310Y-85557224D01*
X172685487Y-85529444D01*
X172675040Y-85500524D01*
X172666032Y-85470423D01*
X172658524Y-85439097D01*
X172652577Y-85406505D01*
X172648253Y-85372604D01*
X172645613Y-85337352D01*
X172644720Y-85300707D01*
X172645783Y-85260587D01*
X172648941Y-85221356D01*
X172654143Y-85183039D01*
X172661339Y-85145662D01*
X172670478Y-85109248D01*
X172681512Y-85073825D01*
X172694390Y-85039416D01*
X172709063Y-85006048D01*
X172725479Y-84973745D01*
X172743589Y-84942533D01*
X172763344Y-84912436D01*
X172784692Y-84883481D01*
X172807585Y-84855692D01*
X172831971Y-84829095D01*
X172857802Y-84803715D01*
X172885027Y-84779577D01*
X172913596Y-84756706D01*
X172943459Y-84735128D01*
X172974566Y-84714868D01*
X173006867Y-84695951D01*
X173040313Y-84678402D01*
X173074853Y-84662246D01*
X173110436Y-84647510D01*
X173147014Y-84634217D01*
X173184536Y-84622394D01*
X173222952Y-84612066D01*
X173262213Y-84603257D01*
X173302267Y-84595993D01*
X173343066Y-84590299D01*
X173384558Y-84586201D01*
X173426695Y-84583724D01*
X173469427Y-84582893D01*
X173532654Y-84584550D01*
G37*
X173532654Y-84584550D02*
X173594339Y-84589543D01*
X173624551Y-84593299D01*
X173654318Y-84597900D01*
X173683619Y-84603350D01*
X173712433Y-84609652D01*
X173740740Y-84616811D01*
X173768521Y-84624829D01*
X173795755Y-84633711D01*
X173822422Y-84643461D01*
X173848502Y-84654081D01*
X173873975Y-84665576D01*
X173898821Y-84677950D01*
X173923020Y-84691206D01*
X173946551Y-84705348D01*
X173969395Y-84720379D01*
X173991531Y-84736304D01*
X174012939Y-84753127D01*
X174033600Y-84770850D01*
X174053492Y-84789478D01*
X174072597Y-84809014D01*
X174090893Y-84829463D01*
X174108361Y-84850827D01*
X174124981Y-84873110D01*
X174140733Y-84896318D01*
X174155595Y-84920452D01*
X174169549Y-84945517D01*
X174182575Y-84971516D01*
X174194651Y-84998453D01*
X174205758Y-85026333D01*
X173835344Y-85285360D01*
X173828147Y-85271677D01*
X173820557Y-85258506D01*
X173812586Y-85245840D01*
X173804248Y-85233676D01*
X173795557Y-85222007D01*
X173786526Y-85210830D01*
X173767500Y-85189928D01*
X173747278Y-85170931D01*
X173725970Y-85153796D01*
X173703685Y-85138485D01*
X173680531Y-85124957D01*
X173656618Y-85113171D01*
X173632054Y-85103087D01*
X173606948Y-85094665D01*
X173581409Y-85087865D01*
X173555546Y-85082646D01*
X173529468Y-85078969D01*
X173503283Y-85076791D01*
X173477102Y-85076075D01*
X173459659Y-85076390D01*
X173442515Y-85077324D01*
X173425687Y-85078862D01*
X173409191Y-85080987D01*
X173393043Y-85083683D01*
X173377262Y-85086933D01*
X173361863Y-85090722D01*
X173346864Y-85095034D01*
X173332280Y-85099851D01*
X173318129Y-85105159D01*
X173304427Y-85110940D01*
X173291191Y-85117179D01*
X173278438Y-85123860D01*
X173266184Y-85130965D01*
X173254446Y-85138480D01*
X173243242Y-85146388D01*
X173232587Y-85154672D01*
X173222498Y-85163317D01*
X173212992Y-85172307D01*
X173204086Y-85181624D01*
X173195796Y-85191254D01*
X173188140Y-85201179D01*
X173181133Y-85211384D01*
X173174793Y-85221852D01*
X173169136Y-85232568D01*
X173164180Y-85243515D01*
X173159940Y-85254676D01*
X173156433Y-85266037D01*
X173153677Y-85277580D01*
X173151687Y-85289289D01*
X173150481Y-85301148D01*
X173150075Y-85313142D01*
X173150627Y-85326826D01*
X173152270Y-85339969D01*
X173154988Y-85352605D01*
X173158764Y-85364768D01*
X173163582Y-85376490D01*
X173169424Y-85387805D01*
X173176274Y-85398746D01*
X173184116Y-85409347D01*
X173202705Y-85429659D01*
X173225057Y-85449008D01*
X173251039Y-85467660D01*
X173280516Y-85485881D01*
X173313353Y-85503939D01*
X173349418Y-85522098D01*
X173430692Y-85559787D01*
X173523264Y-85601079D01*
X173626062Y-85648104D01*
X173701873Y-85684937D01*
X173773925Y-85722367D01*
X173842062Y-85760626D01*
X173906128Y-85799945D01*
X173965966Y-85840556D01*
X174021420Y-85882689D01*
X174072333Y-85926577D01*
X174096039Y-85949251D01*
X174118551Y-85972450D01*
X174139850Y-85996203D01*
X174159916Y-86020540D01*
X174178730Y-86045488D01*
X174196273Y-86071078D01*
X174212524Y-86097337D01*
X174227465Y-86124296D01*
X174241075Y-86151982D01*
X174253336Y-86180425D01*
X174264227Y-86209653D01*
X174273729Y-86239696D01*
X174281823Y-86270583D01*
X174288489Y-86302341D01*
X174293708Y-86335002D01*
X174297460Y-86368592D01*
X174299726Y-86403141D01*
X174300485Y-86438679D01*
X174299401Y-86480903D01*
X174296174Y-86522135D01*
X174290842Y-86562350D01*
X174283445Y-86601527D01*
X174274020Y-86639642D01*
X174262605Y-86676672D01*
X174249240Y-86712596D01*
X174233963Y-86747390D01*
X174216812Y-86781031D01*
X174197825Y-86813496D01*
X174177041Y-86844764D01*
X174154499Y-86874810D01*
X174130236Y-86903613D01*
X174104291Y-86931149D01*
X174076703Y-86957396D01*
X174047511Y-86982331D01*
X174016751Y-87005932D01*
X173984463Y-87028174D01*
X173950686Y-87049037D01*
X173915457Y-87068496D01*
X173878816Y-87086529D01*
X173840800Y-87103114D01*
X173801447Y-87118227D01*
X173760798Y-87131846D01*
X173675759Y-87154510D01*
X173585991Y-87170925D01*
X173491800Y-87180907D01*
X173393495Y-87184275D01*
X173355437Y-87183777D01*
X173318011Y-87182286D01*
X173281224Y-87179807D01*
X173245079Y-87176348D01*
X173209583Y-87171912D01*
X173174740Y-87166506D01*
X173140555Y-87160135D01*
X173107033Y-87152806D01*
X173074179Y-87144523D01*
X173041998Y-87135292D01*
X173010496Y-87125119D01*
X172979677Y-87114009D01*
X172949547Y-87101969D01*
X172920109Y-87089003D01*
X172891370Y-87075117D01*
X172863335Y-87060317D01*
X172836008Y-87044609D01*
X172809395Y-87027998D01*
X172783500Y-87010490D01*
X172758329Y-86992090D01*
X172733886Y-86972804D01*
X172710177Y-86952638D01*
X172687207Y-86931597D01*
X172664980Y-86909686D01*
X172643502Y-86886913D01*
X172622778Y-86863281D01*
X172602813Y-86838797D01*
X172583612Y-86813467D01*
X172565180Y-86787295D01*
X172547521Y-86760288D01*
X172530642Y-86732452D01*
X172514547Y-86703791D01*
X172916185Y-86421744D01*
X172937406Y-86453762D01*
X172959802Y-86483551D01*
X172983381Y-86511133D01*
X173008152Y-86536532D01*
X173034122Y-86559770D01*
X173061301Y-86580870D01*
X173089697Y-86599853D01*
X173119318Y-86616742D01*
X173150173Y-86631561D01*
X173182271Y-86644330D01*
X173215620Y-86655074D01*
X173250229Y-86663813D01*
X173286105Y-86670572D01*
X173323259Y-86675371D01*
X173361697Y-86678235D01*
X173401430Y-86679184D01*
X173401430Y-86678922D01*
X173423277Y-86678642D01*
X173444656Y-86677811D01*
X173465554Y-86676438D01*
X173485954Y-86674534D01*
X173505842Y-86672111D01*
X173525204Y-86669179D01*
X173544024Y-86665749D01*
X173562287Y-86661831D01*
X173579979Y-86657437D01*
X173597085Y-86652577D01*
X173613591Y-86647261D01*
X173629480Y-86641501D01*
X173644739Y-86635307D01*
X173659352Y-86628690D01*
X173673305Y-86621662D01*
X173686583Y-86614231D01*
X173699172Y-86606410D01*
X173711055Y-86598209D01*
X173722219Y-86589639D01*
X173732649Y-86580711D01*
X173742329Y-86571435D01*
X173751246Y-86561822D01*
X173759384Y-86551882D01*
X173766728Y-86541628D01*
X173773263Y-86531069D01*
X173778975Y-86520216D01*
X173783850Y-86509079D01*
X173787871Y-86497671D01*
X173791024Y-86486001D01*
X173793295Y-86474080D01*
X173794668Y-86461918D01*
X173795129Y-86449528D01*
X173794263Y-86432476D01*
X173791705Y-86415648D01*
X173787516Y-86399038D01*
X173781759Y-86382643D01*
X173774495Y-86366457D01*
X173765786Y-86350477D01*
X173755694Y-86334697D01*
X173744279Y-86319113D01*
X173717730Y-86288515D01*
X173686632Y-86258646D01*
X173651479Y-86229471D01*
X173612763Y-86200952D01*
X173570978Y-86173053D01*
X173526616Y-86145737D01*
X173480171Y-86118969D01*
X173432135Y-86092712D01*
X173333263Y-86041584D01*
X173233945Y-85992063D01*
X173128030Y-85938666D01*
X173075327Y-85910629D01*
X173023450Y-85881248D01*
X172972893Y-85850185D01*
X172924147Y-85817101D01*
X172877706Y-85781659D01*
X172834062Y-85743520D01*
X172813443Y-85723333D01*
X172793708Y-85702345D01*
X172774919Y-85680514D01*
X172757136Y-85657796D01*
X172740423Y-85634151D01*
X172724839Y-85609536D01*
X172710448Y-85583908D01*
X172697310Y-85557224D01*
X172685487Y-85529444D01*
X172675040Y-85500524D01*
X172666032Y-85470423D01*
X172658524Y-85439097D01*
X172652577Y-85406505D01*
X172648253Y-85372604D01*
X172645613Y-85337352D01*
X172644720Y-85300707D01*
X172645783Y-85260587D01*
X172648941Y-85221356D01*
X172654143Y-85183039D01*
X172661339Y-85145662D01*
X172670478Y-85109248D01*
X172681512Y-85073825D01*
X172694390Y-85039416D01*
X172709063Y-85006048D01*
X172725479Y-84973745D01*
X172743589Y-84942533D01*
X172763344Y-84912436D01*
X172784692Y-84883481D01*
X172807585Y-84855692D01*
X172831971Y-84829095D01*
X172857802Y-84803715D01*
X172885027Y-84779577D01*
X172913596Y-84756706D01*
X172943459Y-84735128D01*
X172974566Y-84714868D01*
X173006867Y-84695951D01*
X173040313Y-84678402D01*
X173074853Y-84662246D01*
X173110436Y-84647510D01*
X173147014Y-84634217D01*
X173184536Y-84622394D01*
X173222952Y-84612066D01*
X173262213Y-84603257D01*
X173302267Y-84595993D01*
X173343066Y-84590299D01*
X173384558Y-84586201D01*
X173426695Y-84583724D01*
X173469427Y-84582893D01*
X173532654Y-84584550D01*
G36*
X177912843Y-84628134D02*
G01*
X177277311Y-86097895D01*
X177818384Y-86097895D01*
X177818384Y-85404950D01*
X178318975Y-85404950D01*
X178318975Y-86097895D01*
X178570329Y-86097895D01*
X178570329Y-86598486D01*
X178318975Y-86598486D01*
X178318975Y-87135060D01*
X177818384Y-87135060D01*
X177818384Y-86598486D01*
X176530130Y-86598486D01*
X177384202Y-84624959D01*
X177912843Y-84628134D01*
G37*
X177912843Y-84628134D02*
X177277311Y-86097895D01*
X177818384Y-86097895D01*
X177818384Y-85404950D01*
X178318975Y-85404950D01*
X178318975Y-86097895D01*
X178570329Y-86097895D01*
X178570329Y-86598486D01*
X178318975Y-86598486D01*
X178318975Y-87135060D01*
X177818384Y-87135060D01*
X177818384Y-86598486D01*
X176530130Y-86598486D01*
X177384202Y-84624959D01*
X177912843Y-84628134D01*
G36*
X184174825Y-85745932D02*
G01*
X184180829Y-85678275D01*
X184189166Y-85612092D01*
X184199796Y-85547440D01*
X184212678Y-85484377D01*
X184227773Y-85422959D01*
X184245040Y-85363245D01*
X184264440Y-85305293D01*
X184285932Y-85249158D01*
X184309476Y-85194901D01*
X184335033Y-85142577D01*
X184362562Y-85092244D01*
X184392023Y-85043960D01*
X184423377Y-84997783D01*
X184456583Y-84953769D01*
X184491601Y-84911978D01*
X184528392Y-84872465D01*
X184566915Y-84835289D01*
X184607130Y-84800507D01*
X184648997Y-84768177D01*
X184692477Y-84738357D01*
X184737528Y-84711103D01*
X184784112Y-84686474D01*
X184832188Y-84664527D01*
X184881717Y-84645319D01*
X184932657Y-84628909D01*
X184984969Y-84615353D01*
X185038614Y-84604709D01*
X185093550Y-84597035D01*
X185149739Y-84592389D01*
X185207139Y-84590827D01*
X185264531Y-84592393D01*
X185320693Y-84597053D01*
X185375587Y-84604747D01*
X185429173Y-84615418D01*
X185481414Y-84629007D01*
X185532269Y-84645455D01*
X185581701Y-84664705D01*
X185629671Y-84686697D01*
X185676138Y-84711374D01*
X185721066Y-84738677D01*
X185764414Y-84768547D01*
X185806145Y-84800926D01*
X185846218Y-84835756D01*
X185884596Y-84872978D01*
X185921239Y-84912534D01*
X185956109Y-84954365D01*
X185989166Y-84998413D01*
X186020373Y-85044619D01*
X186049689Y-85092926D01*
X186077077Y-85143274D01*
X186102496Y-85195606D01*
X186125909Y-85249862D01*
X186166561Y-85363915D01*
X186198719Y-85484966D01*
X186222075Y-85612548D01*
X186236316Y-85746193D01*
X186241132Y-85885434D01*
X186239922Y-85955720D01*
X186236316Y-86024657D01*
X186230354Y-86092187D01*
X186222075Y-86158252D01*
X186211517Y-86222794D01*
X186198719Y-86285755D01*
X186183721Y-86347078D01*
X186166561Y-86406705D01*
X186147277Y-86464577D01*
X186125909Y-86520638D01*
X186102496Y-86574828D01*
X186077077Y-86627091D01*
X186049689Y-86677369D01*
X186020373Y-86725602D01*
X185989166Y-86771735D01*
X185956109Y-86815709D01*
X185921239Y-86857466D01*
X185884596Y-86896948D01*
X185846218Y-86934097D01*
X185806145Y-86968856D01*
X185764414Y-87001167D01*
X185721066Y-87030971D01*
X185676138Y-87058212D01*
X185629671Y-87082831D01*
X185581701Y-87104770D01*
X185532269Y-87123971D01*
X185481414Y-87140377D01*
X185429173Y-87153930D01*
X185375587Y-87164572D01*
X185320693Y-87172245D01*
X185264531Y-87176891D01*
X185207139Y-87178453D01*
X185149599Y-87176896D01*
X185093289Y-87172262D01*
X185038247Y-87164610D01*
X184984514Y-87153995D01*
X184932127Y-87140475D01*
X184881127Y-87124107D01*
X184831553Y-87104948D01*
X184783443Y-87083054D01*
X184736837Y-87058483D01*
X184691773Y-87031291D01*
X184648292Y-87001536D01*
X184606432Y-86969275D01*
X184566233Y-86934564D01*
X184527733Y-86897461D01*
X184490971Y-86858022D01*
X184455988Y-86816304D01*
X184422821Y-86772366D01*
X184391511Y-86726262D01*
X184362095Y-86678051D01*
X184334614Y-86627789D01*
X184309107Y-86575533D01*
X184285612Y-86521341D01*
X184244817Y-86407375D01*
X184212542Y-86286345D01*
X184189101Y-86158708D01*
X184174807Y-86024919D01*
X184169973Y-85885434D01*
X184670564Y-85885434D01*
X184671170Y-85928217D01*
X184672976Y-85970173D01*
X184675967Y-86011267D01*
X184680125Y-86051465D01*
X184685434Y-86090731D01*
X184691879Y-86129030D01*
X184699441Y-86166329D01*
X184708106Y-86202591D01*
X184717856Y-86237782D01*
X184728676Y-86271868D01*
X184740548Y-86304813D01*
X184753457Y-86336583D01*
X184767386Y-86367143D01*
X184782318Y-86396457D01*
X184798237Y-86424492D01*
X184815126Y-86451212D01*
X184832970Y-86476583D01*
X184851752Y-86500569D01*
X184871455Y-86523136D01*
X184892063Y-86544249D01*
X184913559Y-86563873D01*
X184935928Y-86581973D01*
X184959152Y-86598515D01*
X184983216Y-86613464D01*
X185008102Y-86626784D01*
X185033795Y-86638441D01*
X185060277Y-86648401D01*
X185087534Y-86656627D01*
X185115547Y-86663087D01*
X185144301Y-86667744D01*
X185173779Y-86670563D01*
X185203966Y-86671511D01*
X185234152Y-86670567D01*
X185263630Y-86667758D01*
X185292384Y-86663118D01*
X185320397Y-86656682D01*
X185347654Y-86648482D01*
X185374136Y-86638555D01*
X185399829Y-86626932D01*
X185424715Y-86613650D01*
X185448779Y-86598741D01*
X185472003Y-86582240D01*
X185494372Y-86564181D01*
X185515868Y-86544598D01*
X185536476Y-86523525D01*
X185556179Y-86500996D01*
X185574961Y-86477046D01*
X185592805Y-86451708D01*
X185625614Y-86397007D01*
X185654474Y-86337164D01*
X185679255Y-86272454D01*
X185699825Y-86203149D01*
X185716053Y-86129521D01*
X185727806Y-86051845D01*
X185734955Y-85970391D01*
X185737367Y-85885434D01*
X185736761Y-85842526D01*
X185734952Y-85800444D01*
X185731958Y-85759223D01*
X185727795Y-85718899D01*
X185722480Y-85679505D01*
X185716030Y-85641078D01*
X185708460Y-85603653D01*
X185699787Y-85567265D01*
X185690029Y-85531948D01*
X185679201Y-85497739D01*
X185667321Y-85464672D01*
X185654404Y-85432783D01*
X185640467Y-85402106D01*
X185625527Y-85372678D01*
X185609601Y-85344532D01*
X185592705Y-85317705D01*
X185574855Y-85292231D01*
X185556068Y-85268145D01*
X185536361Y-85245484D01*
X185515751Y-85224281D01*
X185494253Y-85204572D01*
X185471885Y-85186393D01*
X185448662Y-85169778D01*
X185424603Y-85154763D01*
X185399722Y-85141382D01*
X185374037Y-85129672D01*
X185347565Y-85119666D01*
X185320321Y-85111401D01*
X185292322Y-85104912D01*
X185263586Y-85100233D01*
X185234128Y-85097399D01*
X185203966Y-85096447D01*
X185173779Y-85097403D01*
X185144301Y-85100247D01*
X185115547Y-85104943D01*
X185087534Y-85111455D01*
X185060277Y-85119748D01*
X185033795Y-85129785D01*
X185008102Y-85141531D01*
X184983216Y-85154949D01*
X184959152Y-85170004D01*
X184935928Y-85186659D01*
X184913559Y-85204880D01*
X184892063Y-85224630D01*
X184871455Y-85245873D01*
X184851752Y-85268573D01*
X184815126Y-85318201D01*
X184782318Y-85373227D01*
X184753457Y-85433364D01*
X184728676Y-85498325D01*
X184708106Y-85567823D01*
X184691879Y-85641569D01*
X184680125Y-85719278D01*
X184672976Y-85800662D01*
X184670564Y-85885434D01*
X184169973Y-85885434D01*
X184171192Y-85815004D01*
X184174825Y-85745932D01*
G37*
X184174825Y-85745932D02*
X184180829Y-85678275D01*
X184189166Y-85612092D01*
X184199796Y-85547440D01*
X184212678Y-85484377D01*
X184227773Y-85422959D01*
X184245040Y-85363245D01*
X184264440Y-85305293D01*
X184285932Y-85249158D01*
X184309476Y-85194901D01*
X184335033Y-85142577D01*
X184362562Y-85092244D01*
X184392023Y-85043960D01*
X184423377Y-84997783D01*
X184456583Y-84953769D01*
X184491601Y-84911978D01*
X184528392Y-84872465D01*
X184566915Y-84835289D01*
X184607130Y-84800507D01*
X184648997Y-84768177D01*
X184692477Y-84738357D01*
X184737528Y-84711103D01*
X184784112Y-84686474D01*
X184832188Y-84664527D01*
X184881717Y-84645319D01*
X184932657Y-84628909D01*
X184984969Y-84615353D01*
X185038614Y-84604709D01*
X185093550Y-84597035D01*
X185149739Y-84592389D01*
X185207139Y-84590827D01*
X185264531Y-84592393D01*
X185320693Y-84597053D01*
X185375587Y-84604747D01*
X185429173Y-84615418D01*
X185481414Y-84629007D01*
X185532269Y-84645455D01*
X185581701Y-84664705D01*
X185629671Y-84686697D01*
X185676138Y-84711374D01*
X185721066Y-84738677D01*
X185764414Y-84768547D01*
X185806145Y-84800926D01*
X185846218Y-84835756D01*
X185884596Y-84872978D01*
X185921239Y-84912534D01*
X185956109Y-84954365D01*
X185989166Y-84998413D01*
X186020373Y-85044619D01*
X186049689Y-85092926D01*
X186077077Y-85143274D01*
X186102496Y-85195606D01*
X186125909Y-85249862D01*
X186166561Y-85363915D01*
X186198719Y-85484966D01*
X186222075Y-85612548D01*
X186236316Y-85746193D01*
X186241132Y-85885434D01*
X186239922Y-85955720D01*
X186236316Y-86024657D01*
X186230354Y-86092187D01*
X186222075Y-86158252D01*
X186211517Y-86222794D01*
X186198719Y-86285755D01*
X186183721Y-86347078D01*
X186166561Y-86406705D01*
X186147277Y-86464577D01*
X186125909Y-86520638D01*
X186102496Y-86574828D01*
X186077077Y-86627091D01*
X186049689Y-86677369D01*
X186020373Y-86725602D01*
X185989166Y-86771735D01*
X185956109Y-86815709D01*
X185921239Y-86857466D01*
X185884596Y-86896948D01*
X185846218Y-86934097D01*
X185806145Y-86968856D01*
X185764414Y-87001167D01*
X185721066Y-87030971D01*
X185676138Y-87058212D01*
X185629671Y-87082831D01*
X185581701Y-87104770D01*
X185532269Y-87123971D01*
X185481414Y-87140377D01*
X185429173Y-87153930D01*
X185375587Y-87164572D01*
X185320693Y-87172245D01*
X185264531Y-87176891D01*
X185207139Y-87178453D01*
X185149599Y-87176896D01*
X185093289Y-87172262D01*
X185038247Y-87164610D01*
X184984514Y-87153995D01*
X184932127Y-87140475D01*
X184881127Y-87124107D01*
X184831553Y-87104948D01*
X184783443Y-87083054D01*
X184736837Y-87058483D01*
X184691773Y-87031291D01*
X184648292Y-87001536D01*
X184606432Y-86969275D01*
X184566233Y-86934564D01*
X184527733Y-86897461D01*
X184490971Y-86858022D01*
X184455988Y-86816304D01*
X184422821Y-86772366D01*
X184391511Y-86726262D01*
X184362095Y-86678051D01*
X184334614Y-86627789D01*
X184309107Y-86575533D01*
X184285612Y-86521341D01*
X184244817Y-86407375D01*
X184212542Y-86286345D01*
X184189101Y-86158708D01*
X184174807Y-86024919D01*
X184169973Y-85885434D01*
X184670564Y-85885434D01*
X184671170Y-85928217D01*
X184672976Y-85970173D01*
X184675967Y-86011267D01*
X184680125Y-86051465D01*
X184685434Y-86090731D01*
X184691879Y-86129030D01*
X184699441Y-86166329D01*
X184708106Y-86202591D01*
X184717856Y-86237782D01*
X184728676Y-86271868D01*
X184740548Y-86304813D01*
X184753457Y-86336583D01*
X184767386Y-86367143D01*
X184782318Y-86396457D01*
X184798237Y-86424492D01*
X184815126Y-86451212D01*
X184832970Y-86476583D01*
X184851752Y-86500569D01*
X184871455Y-86523136D01*
X184892063Y-86544249D01*
X184913559Y-86563873D01*
X184935928Y-86581973D01*
X184959152Y-86598515D01*
X184983216Y-86613464D01*
X185008102Y-86626784D01*
X185033795Y-86638441D01*
X185060277Y-86648401D01*
X185087534Y-86656627D01*
X185115547Y-86663087D01*
X185144301Y-86667744D01*
X185173779Y-86670563D01*
X185203966Y-86671511D01*
X185234152Y-86670567D01*
X185263630Y-86667758D01*
X185292384Y-86663118D01*
X185320397Y-86656682D01*
X185347654Y-86648482D01*
X185374136Y-86638555D01*
X185399829Y-86626932D01*
X185424715Y-86613650D01*
X185448779Y-86598741D01*
X185472003Y-86582240D01*
X185494372Y-86564181D01*
X185515868Y-86544598D01*
X185536476Y-86523525D01*
X185556179Y-86500996D01*
X185574961Y-86477046D01*
X185592805Y-86451708D01*
X185625614Y-86397007D01*
X185654474Y-86337164D01*
X185679255Y-86272454D01*
X185699825Y-86203149D01*
X185716053Y-86129521D01*
X185727806Y-86051845D01*
X185734955Y-85970391D01*
X185737367Y-85885434D01*
X185736761Y-85842526D01*
X185734952Y-85800444D01*
X185731958Y-85759223D01*
X185727795Y-85718899D01*
X185722480Y-85679505D01*
X185716030Y-85641078D01*
X185708460Y-85603653D01*
X185699787Y-85567265D01*
X185690029Y-85531948D01*
X185679201Y-85497739D01*
X185667321Y-85464672D01*
X185654404Y-85432783D01*
X185640467Y-85402106D01*
X185625527Y-85372678D01*
X185609601Y-85344532D01*
X185592705Y-85317705D01*
X185574855Y-85292231D01*
X185556068Y-85268145D01*
X185536361Y-85245484D01*
X185515751Y-85224281D01*
X185494253Y-85204572D01*
X185471885Y-85186393D01*
X185448662Y-85169778D01*
X185424603Y-85154763D01*
X185399722Y-85141382D01*
X185374037Y-85129672D01*
X185347565Y-85119666D01*
X185320321Y-85111401D01*
X185292322Y-85104912D01*
X185263586Y-85100233D01*
X185234128Y-85097399D01*
X185203966Y-85096447D01*
X185173779Y-85097403D01*
X185144301Y-85100247D01*
X185115547Y-85104943D01*
X185087534Y-85111455D01*
X185060277Y-85119748D01*
X185033795Y-85129785D01*
X185008102Y-85141531D01*
X184983216Y-85154949D01*
X184959152Y-85170004D01*
X184935928Y-85186659D01*
X184913559Y-85204880D01*
X184892063Y-85224630D01*
X184871455Y-85245873D01*
X184851752Y-85268573D01*
X184815126Y-85318201D01*
X184782318Y-85373227D01*
X184753457Y-85433364D01*
X184728676Y-85498325D01*
X184708106Y-85567823D01*
X184691879Y-85641569D01*
X184680125Y-85719278D01*
X184672976Y-85800662D01*
X184670564Y-85885434D01*
X184169973Y-85885434D01*
X184171192Y-85815004D01*
X184174825Y-85745932D01*
G36*
X176700521Y-89839631D02*
G01*
X176700521Y-88439721D01*
X177204286Y-88439721D01*
X177204286Y-90991362D01*
X177181268Y-90991362D01*
X175697484Y-89548061D01*
X175697484Y-90947971D01*
X175195302Y-90947971D01*
X175195302Y-88399504D01*
X175219911Y-88399504D01*
X176700521Y-89839631D01*
G37*
X176700521Y-89839631D02*
X176700521Y-88439721D01*
X177204286Y-88439721D01*
X177204286Y-90991362D01*
X177181268Y-90991362D01*
X175697484Y-89548061D01*
X175697484Y-90947971D01*
X175195302Y-90947971D01*
X175195302Y-88399504D01*
X175219911Y-88399504D01*
X176700521Y-89839631D01*
G36*
X187430257Y-85745932D02*
G01*
X187436261Y-85678275D01*
X187444599Y-85612092D01*
X187455228Y-85547440D01*
X187468111Y-85484377D01*
X187483205Y-85422959D01*
X187500472Y-85363245D01*
X187519872Y-85305293D01*
X187541364Y-85249158D01*
X187564908Y-85194901D01*
X187590465Y-85142577D01*
X187617994Y-85092244D01*
X187647455Y-85043960D01*
X187678809Y-84997783D01*
X187712015Y-84953769D01*
X187747033Y-84911978D01*
X187783824Y-84872465D01*
X187822347Y-84835289D01*
X187862562Y-84800507D01*
X187904429Y-84768177D01*
X187947909Y-84738357D01*
X187992961Y-84711103D01*
X188039544Y-84686474D01*
X188087620Y-84664527D01*
X188137149Y-84645319D01*
X188188089Y-84628909D01*
X188240401Y-84615353D01*
X188294046Y-84604709D01*
X188348982Y-84597035D01*
X188405171Y-84592389D01*
X188462571Y-84590827D01*
X188519963Y-84592393D01*
X188576125Y-84597053D01*
X188631019Y-84604747D01*
X188684605Y-84615418D01*
X188736846Y-84629007D01*
X188787702Y-84645455D01*
X188837133Y-84664705D01*
X188885103Y-84686697D01*
X188931571Y-84711374D01*
X188976498Y-84738677D01*
X189019846Y-84768547D01*
X189061577Y-84800926D01*
X189101650Y-84835756D01*
X189140028Y-84872978D01*
X189176671Y-84912534D01*
X189211541Y-84954365D01*
X189244599Y-84998413D01*
X189275805Y-85044619D01*
X189305121Y-85092926D01*
X189332509Y-85143274D01*
X189357928Y-85195606D01*
X189381342Y-85249862D01*
X189421993Y-85363915D01*
X189454152Y-85484966D01*
X189477507Y-85612548D01*
X189491748Y-85746193D01*
X189496564Y-85885434D01*
X189495354Y-85955720D01*
X189491748Y-86024657D01*
X189485786Y-86092187D01*
X189477507Y-86158252D01*
X189466949Y-86222794D01*
X189454152Y-86285755D01*
X189439153Y-86347078D01*
X189421993Y-86406705D01*
X189402709Y-86464577D01*
X189381342Y-86520638D01*
X189357928Y-86574828D01*
X189332509Y-86627091D01*
X189305121Y-86677369D01*
X189275805Y-86725602D01*
X189244599Y-86771735D01*
X189211541Y-86815709D01*
X189176671Y-86857466D01*
X189140028Y-86896948D01*
X189101650Y-86934097D01*
X189061577Y-86968856D01*
X189019846Y-87001167D01*
X188976498Y-87030971D01*
X188931571Y-87058212D01*
X188885103Y-87082831D01*
X188837133Y-87104770D01*
X188787702Y-87123971D01*
X188736846Y-87140377D01*
X188684605Y-87153930D01*
X188631019Y-87164572D01*
X188576125Y-87172245D01*
X188519963Y-87176891D01*
X188462571Y-87178453D01*
X188405031Y-87176896D01*
X188348721Y-87172262D01*
X188293679Y-87164610D01*
X188239946Y-87153995D01*
X188187559Y-87140475D01*
X188136559Y-87124107D01*
X188086985Y-87104948D01*
X188038875Y-87083054D01*
X187992269Y-87058483D01*
X187947206Y-87031291D01*
X187903725Y-87001536D01*
X187861865Y-86969275D01*
X187821665Y-86934564D01*
X187783165Y-86897461D01*
X187746404Y-86858022D01*
X187711420Y-86816304D01*
X187678253Y-86772366D01*
X187646943Y-86726262D01*
X187617527Y-86678051D01*
X187590046Y-86627789D01*
X187564539Y-86575533D01*
X187541044Y-86521341D01*
X187500249Y-86407375D01*
X187467975Y-86286345D01*
X187444534Y-86158708D01*
X187430239Y-86024919D01*
X187425405Y-85885434D01*
X187925996Y-85885434D01*
X187926602Y-85928217D01*
X187928408Y-85970173D01*
X187931399Y-86011267D01*
X187935557Y-86051465D01*
X187940866Y-86090731D01*
X187947311Y-86129030D01*
X187954873Y-86166329D01*
X187963538Y-86202591D01*
X187973289Y-86237782D01*
X187984108Y-86271868D01*
X187995981Y-86304813D01*
X188008889Y-86336583D01*
X188022818Y-86367143D01*
X188037750Y-86396457D01*
X188053669Y-86424492D01*
X188070558Y-86451212D01*
X188088402Y-86476583D01*
X188107184Y-86500569D01*
X188126887Y-86523136D01*
X188147495Y-86544249D01*
X188168992Y-86563873D01*
X188191360Y-86581973D01*
X188214584Y-86598515D01*
X188238648Y-86613464D01*
X188263534Y-86626784D01*
X188289227Y-86638441D01*
X188315710Y-86648401D01*
X188342966Y-86656627D01*
X188370979Y-86663087D01*
X188399733Y-86667744D01*
X188429212Y-86670563D01*
X188459398Y-86671511D01*
X188489584Y-86670567D01*
X188519062Y-86667758D01*
X188547816Y-86663118D01*
X188575830Y-86656682D01*
X188603086Y-86648482D01*
X188629568Y-86638555D01*
X188655261Y-86626932D01*
X188680147Y-86613650D01*
X188704211Y-86598741D01*
X188727435Y-86582240D01*
X188749804Y-86564181D01*
X188771300Y-86544598D01*
X188791908Y-86523525D01*
X188811611Y-86500996D01*
X188830393Y-86477046D01*
X188848237Y-86451708D01*
X188881046Y-86397007D01*
X188909906Y-86337164D01*
X188934687Y-86272454D01*
X188955257Y-86203149D01*
X188971485Y-86129521D01*
X188983238Y-86051845D01*
X188990387Y-85970391D01*
X188992799Y-85885434D01*
X188992193Y-85842526D01*
X188990384Y-85800444D01*
X188987390Y-85759223D01*
X188983228Y-85718899D01*
X188977913Y-85679505D01*
X188971462Y-85641078D01*
X188963892Y-85603653D01*
X188955220Y-85567265D01*
X188945462Y-85531948D01*
X188934634Y-85497739D01*
X188922754Y-85464672D01*
X188909837Y-85432783D01*
X188895900Y-85402106D01*
X188880961Y-85372678D01*
X188865034Y-85344532D01*
X188848138Y-85317705D01*
X188830289Y-85292231D01*
X188811502Y-85268145D01*
X188791795Y-85245484D01*
X188771185Y-85224281D01*
X188749687Y-85204572D01*
X188727319Y-85186393D01*
X188704096Y-85169778D01*
X188680036Y-85154763D01*
X188655156Y-85141382D01*
X188629471Y-85129672D01*
X188602998Y-85119666D01*
X188575754Y-85111401D01*
X188547755Y-85104912D01*
X188519019Y-85100233D01*
X188489561Y-85097399D01*
X188459398Y-85096447D01*
X188429212Y-85097403D01*
X188399733Y-85100247D01*
X188370979Y-85104943D01*
X188342966Y-85111455D01*
X188315710Y-85119748D01*
X188289227Y-85129785D01*
X188263534Y-85141531D01*
X188238648Y-85154949D01*
X188214584Y-85170004D01*
X188191360Y-85186659D01*
X188168992Y-85204880D01*
X188147495Y-85224630D01*
X188126887Y-85245873D01*
X188107184Y-85268573D01*
X188070558Y-85318201D01*
X188037750Y-85373227D01*
X188008889Y-85433364D01*
X187984108Y-85498325D01*
X187963538Y-85567823D01*
X187947311Y-85641569D01*
X187935557Y-85719278D01*
X187928408Y-85800662D01*
X187925996Y-85885434D01*
X187425405Y-85885434D01*
X187426625Y-85815004D01*
X187430257Y-85745932D01*
G37*
X187430257Y-85745932D02*
X187436261Y-85678275D01*
X187444599Y-85612092D01*
X187455228Y-85547440D01*
X187468111Y-85484377D01*
X187483205Y-85422959D01*
X187500472Y-85363245D01*
X187519872Y-85305293D01*
X187541364Y-85249158D01*
X187564908Y-85194901D01*
X187590465Y-85142577D01*
X187617994Y-85092244D01*
X187647455Y-85043960D01*
X187678809Y-84997783D01*
X187712015Y-84953769D01*
X187747033Y-84911978D01*
X187783824Y-84872465D01*
X187822347Y-84835289D01*
X187862562Y-84800507D01*
X187904429Y-84768177D01*
X187947909Y-84738357D01*
X187992961Y-84711103D01*
X188039544Y-84686474D01*
X188087620Y-84664527D01*
X188137149Y-84645319D01*
X188188089Y-84628909D01*
X188240401Y-84615353D01*
X188294046Y-84604709D01*
X188348982Y-84597035D01*
X188405171Y-84592389D01*
X188462571Y-84590827D01*
X188519963Y-84592393D01*
X188576125Y-84597053D01*
X188631019Y-84604747D01*
X188684605Y-84615418D01*
X188736846Y-84629007D01*
X188787702Y-84645455D01*
X188837133Y-84664705D01*
X188885103Y-84686697D01*
X188931571Y-84711374D01*
X188976498Y-84738677D01*
X189019846Y-84768547D01*
X189061577Y-84800926D01*
X189101650Y-84835756D01*
X189140028Y-84872978D01*
X189176671Y-84912534D01*
X189211541Y-84954365D01*
X189244599Y-84998413D01*
X189275805Y-85044619D01*
X189305121Y-85092926D01*
X189332509Y-85143274D01*
X189357928Y-85195606D01*
X189381342Y-85249862D01*
X189421993Y-85363915D01*
X189454152Y-85484966D01*
X189477507Y-85612548D01*
X189491748Y-85746193D01*
X189496564Y-85885434D01*
X189495354Y-85955720D01*
X189491748Y-86024657D01*
X189485786Y-86092187D01*
X189477507Y-86158252D01*
X189466949Y-86222794D01*
X189454152Y-86285755D01*
X189439153Y-86347078D01*
X189421993Y-86406705D01*
X189402709Y-86464577D01*
X189381342Y-86520638D01*
X189357928Y-86574828D01*
X189332509Y-86627091D01*
X189305121Y-86677369D01*
X189275805Y-86725602D01*
X189244599Y-86771735D01*
X189211541Y-86815709D01*
X189176671Y-86857466D01*
X189140028Y-86896948D01*
X189101650Y-86934097D01*
X189061577Y-86968856D01*
X189019846Y-87001167D01*
X188976498Y-87030971D01*
X188931571Y-87058212D01*
X188885103Y-87082831D01*
X188837133Y-87104770D01*
X188787702Y-87123971D01*
X188736846Y-87140377D01*
X188684605Y-87153930D01*
X188631019Y-87164572D01*
X188576125Y-87172245D01*
X188519963Y-87176891D01*
X188462571Y-87178453D01*
X188405031Y-87176896D01*
X188348721Y-87172262D01*
X188293679Y-87164610D01*
X188239946Y-87153995D01*
X188187559Y-87140475D01*
X188136559Y-87124107D01*
X188086985Y-87104948D01*
X188038875Y-87083054D01*
X187992269Y-87058483D01*
X187947206Y-87031291D01*
X187903725Y-87001536D01*
X187861865Y-86969275D01*
X187821665Y-86934564D01*
X187783165Y-86897461D01*
X187746404Y-86858022D01*
X187711420Y-86816304D01*
X187678253Y-86772366D01*
X187646943Y-86726262D01*
X187617527Y-86678051D01*
X187590046Y-86627789D01*
X187564539Y-86575533D01*
X187541044Y-86521341D01*
X187500249Y-86407375D01*
X187467975Y-86286345D01*
X187444534Y-86158708D01*
X187430239Y-86024919D01*
X187425405Y-85885434D01*
X187925996Y-85885434D01*
X187926602Y-85928217D01*
X187928408Y-85970173D01*
X187931399Y-86011267D01*
X187935557Y-86051465D01*
X187940866Y-86090731D01*
X187947311Y-86129030D01*
X187954873Y-86166329D01*
X187963538Y-86202591D01*
X187973289Y-86237782D01*
X187984108Y-86271868D01*
X187995981Y-86304813D01*
X188008889Y-86336583D01*
X188022818Y-86367143D01*
X188037750Y-86396457D01*
X188053669Y-86424492D01*
X188070558Y-86451212D01*
X188088402Y-86476583D01*
X188107184Y-86500569D01*
X188126887Y-86523136D01*
X188147495Y-86544249D01*
X188168992Y-86563873D01*
X188191360Y-86581973D01*
X188214584Y-86598515D01*
X188238648Y-86613464D01*
X188263534Y-86626784D01*
X188289227Y-86638441D01*
X188315710Y-86648401D01*
X188342966Y-86656627D01*
X188370979Y-86663087D01*
X188399733Y-86667744D01*
X188429212Y-86670563D01*
X188459398Y-86671511D01*
X188489584Y-86670567D01*
X188519062Y-86667758D01*
X188547816Y-86663118D01*
X188575830Y-86656682D01*
X188603086Y-86648482D01*
X188629568Y-86638555D01*
X188655261Y-86626932D01*
X188680147Y-86613650D01*
X188704211Y-86598741D01*
X188727435Y-86582240D01*
X188749804Y-86564181D01*
X188771300Y-86544598D01*
X188791908Y-86523525D01*
X188811611Y-86500996D01*
X188830393Y-86477046D01*
X188848237Y-86451708D01*
X188881046Y-86397007D01*
X188909906Y-86337164D01*
X188934687Y-86272454D01*
X188955257Y-86203149D01*
X188971485Y-86129521D01*
X188983238Y-86051845D01*
X188990387Y-85970391D01*
X188992799Y-85885434D01*
X188992193Y-85842526D01*
X188990384Y-85800444D01*
X188987390Y-85759223D01*
X188983228Y-85718899D01*
X188977913Y-85679505D01*
X188971462Y-85641078D01*
X188963892Y-85603653D01*
X188955220Y-85567265D01*
X188945462Y-85531948D01*
X188934634Y-85497739D01*
X188922754Y-85464672D01*
X188909837Y-85432783D01*
X188895900Y-85402106D01*
X188880961Y-85372678D01*
X188865034Y-85344532D01*
X188848138Y-85317705D01*
X188830289Y-85292231D01*
X188811502Y-85268145D01*
X188791795Y-85245484D01*
X188771185Y-85224281D01*
X188749687Y-85204572D01*
X188727319Y-85186393D01*
X188704096Y-85169778D01*
X188680036Y-85154763D01*
X188655156Y-85141382D01*
X188629471Y-85129672D01*
X188602998Y-85119666D01*
X188575754Y-85111401D01*
X188547755Y-85104912D01*
X188519019Y-85100233D01*
X188489561Y-85097399D01*
X188459398Y-85096447D01*
X188429212Y-85097403D01*
X188399733Y-85100247D01*
X188370979Y-85104943D01*
X188342966Y-85111455D01*
X188315710Y-85119748D01*
X188289227Y-85129785D01*
X188263534Y-85141531D01*
X188238648Y-85154949D01*
X188214584Y-85170004D01*
X188191360Y-85186659D01*
X188168992Y-85204880D01*
X188147495Y-85224630D01*
X188126887Y-85245873D01*
X188107184Y-85268573D01*
X188070558Y-85318201D01*
X188037750Y-85373227D01*
X188008889Y-85433364D01*
X187984108Y-85498325D01*
X187963538Y-85567823D01*
X187947311Y-85641569D01*
X187935557Y-85719278D01*
X187928408Y-85800662D01*
X187925996Y-85885434D01*
X187425405Y-85885434D01*
X187426625Y-85815004D01*
X187430257Y-85745932D01*
G36*
X183148939Y-90043625D02*
G01*
X183223024Y-90162424D01*
X183239122Y-90186807D01*
X183255992Y-90209469D01*
X183273675Y-90230428D01*
X183292211Y-90249707D01*
X183311639Y-90267326D01*
X183332001Y-90283305D01*
X183353336Y-90297664D01*
X183375686Y-90310425D01*
X183399089Y-90321608D01*
X183423587Y-90331233D01*
X183449220Y-90339321D01*
X183476029Y-90345892D01*
X183504052Y-90350967D01*
X183533332Y-90354567D01*
X183563907Y-90356712D01*
X183595819Y-90357422D01*
X183611374Y-90357256D01*
X183626486Y-90356768D01*
X183641151Y-90355970D01*
X183655365Y-90354877D01*
X183669127Y-90353503D01*
X183682431Y-90351862D01*
X183695275Y-90349966D01*
X183707656Y-90347831D01*
X183719571Y-90345469D01*
X183731015Y-90342894D01*
X183741986Y-90340121D01*
X183752481Y-90337163D01*
X183762496Y-90334033D01*
X183772027Y-90330746D01*
X183781072Y-90327315D01*
X183789628Y-90323753D01*
X183797690Y-90320076D01*
X183805257Y-90316296D01*
X183812323Y-90312428D01*
X183818887Y-90308484D01*
X183824945Y-90304479D01*
X183830493Y-90300427D01*
X183835528Y-90296341D01*
X183840047Y-90292235D01*
X183844047Y-90288122D01*
X183847525Y-90284018D01*
X183850476Y-90279934D01*
X183852898Y-90275886D01*
X183854788Y-90271887D01*
X183856142Y-90267950D01*
X183856956Y-90264089D01*
X183857229Y-90260319D01*
X183856348Y-90251085D01*
X183853763Y-90241554D01*
X183849552Y-90231749D01*
X183843800Y-90221693D01*
X183836587Y-90211409D01*
X183827994Y-90200920D01*
X183806999Y-90179415D01*
X183781468Y-90157361D01*
X183752054Y-90134941D01*
X183719410Y-90112337D01*
X183684191Y-90089730D01*
X183647050Y-90067302D01*
X183608639Y-90045237D01*
X183530626Y-90002922D01*
X183388124Y-89930649D01*
X183268843Y-89870339D01*
X183208849Y-89838260D01*
X183149441Y-89804368D01*
X183091238Y-89768265D01*
X183034857Y-89729554D01*
X182980916Y-89687837D01*
X182930031Y-89642716D01*
X182905928Y-89618755D01*
X182882821Y-89593794D01*
X182860786Y-89567783D01*
X182839902Y-89540672D01*
X182820244Y-89512413D01*
X182801892Y-89482955D01*
X182784920Y-89452248D01*
X182769408Y-89420242D01*
X182755432Y-89386889D01*
X182743068Y-89352138D01*
X182732395Y-89315940D01*
X182723490Y-89278245D01*
X182716429Y-89239002D01*
X182711290Y-89198164D01*
X182708150Y-89155679D01*
X182707086Y-89111498D01*
X182708257Y-89065715D01*
X182711741Y-89020764D01*
X182717491Y-88976687D01*
X182725461Y-88933524D01*
X182735606Y-88891317D01*
X182747880Y-88850105D01*
X182762237Y-88809929D01*
X182778632Y-88770831D01*
X182797017Y-88732850D01*
X182817348Y-88696027D01*
X182839579Y-88660404D01*
X182863663Y-88626021D01*
X182889556Y-88592918D01*
X182917211Y-88561136D01*
X182946582Y-88530717D01*
X182977624Y-88501700D01*
X183010290Y-88474126D01*
X183044535Y-88448036D01*
X183080314Y-88423471D01*
X183117579Y-88400472D01*
X183156286Y-88379078D01*
X183196388Y-88359332D01*
X183237841Y-88341272D01*
X183280596Y-88324941D01*
X183324610Y-88310379D01*
X183369837Y-88297627D01*
X183416229Y-88286725D01*
X183463742Y-88277713D01*
X183512330Y-88270634D01*
X183561946Y-88265526D01*
X183612546Y-88262432D01*
X183664083Y-88261392D01*
X183703230Y-88261955D01*
X183741731Y-88263640D01*
X183779572Y-88266437D01*
X183816738Y-88270336D01*
X183853215Y-88275330D01*
X183888989Y-88281409D01*
X183924045Y-88288563D01*
X183958367Y-88296784D01*
X183991943Y-88306063D01*
X184024756Y-88316390D01*
X184056794Y-88327757D01*
X184088040Y-88340155D01*
X184118481Y-88353573D01*
X184148102Y-88368005D01*
X184176889Y-88383439D01*
X184204827Y-88399868D01*
X184231901Y-88417282D01*
X184258097Y-88435673D01*
X184283401Y-88455030D01*
X184307797Y-88475345D01*
X184331272Y-88496610D01*
X184353811Y-88518814D01*
X184375399Y-88541949D01*
X184396021Y-88566006D01*
X184415664Y-88590976D01*
X184434313Y-88616849D01*
X184451953Y-88643617D01*
X184468569Y-88671271D01*
X184484148Y-88699801D01*
X184498674Y-88729198D01*
X184512133Y-88759454D01*
X184524511Y-88790559D01*
X184560495Y-88886602D01*
X183980264Y-89291944D01*
X183911737Y-89154889D01*
X183906039Y-89144070D01*
X183900024Y-89133825D01*
X183893712Y-89124142D01*
X183887122Y-89115003D01*
X183880275Y-89106393D01*
X183873191Y-89098299D01*
X183865890Y-89090704D01*
X183858392Y-89083593D01*
X183850719Y-89076951D01*
X183842889Y-89070763D01*
X183834923Y-89065013D01*
X183826842Y-89059686D01*
X183818665Y-89054768D01*
X183810413Y-89050243D01*
X183793763Y-89042310D01*
X183777055Y-89035766D01*
X183760449Y-89030489D01*
X183744107Y-89026358D01*
X183728192Y-89023251D01*
X183712864Y-89021047D01*
X183698285Y-89019622D01*
X183684617Y-89018857D01*
X183672021Y-89018629D01*
X183660848Y-89018805D01*
X183649952Y-89019323D01*
X183639340Y-89020170D01*
X183629015Y-89021330D01*
X183618983Y-89022790D01*
X183609250Y-89024535D01*
X183599819Y-89026551D01*
X183590697Y-89028824D01*
X183581887Y-89031340D01*
X183573396Y-89034084D01*
X183565229Y-89037042D01*
X183557389Y-89040200D01*
X183549883Y-89043544D01*
X183542715Y-89047059D01*
X183535890Y-89050731D01*
X183529414Y-89054546D01*
X183523291Y-89058490D01*
X183517527Y-89062549D01*
X183512127Y-89066707D01*
X183507095Y-89070952D01*
X183502436Y-89075268D01*
X183498156Y-89079641D01*
X183494260Y-89084058D01*
X183490753Y-89088504D01*
X183487639Y-89092965D01*
X183484924Y-89097426D01*
X183482613Y-89101873D01*
X183480711Y-89106292D01*
X183479223Y-89110669D01*
X183478154Y-89114990D01*
X183477509Y-89119240D01*
X183477292Y-89123405D01*
X183477679Y-89126846D01*
X183478822Y-89130420D01*
X183480692Y-89134120D01*
X183483264Y-89137942D01*
X183490401Y-89145926D01*
X183500013Y-89154327D01*
X183511883Y-89163100D01*
X183525791Y-89172201D01*
X183541520Y-89181583D01*
X183558850Y-89191203D01*
X183597439Y-89210975D01*
X183639812Y-89231155D01*
X183728910Y-89271306D01*
X183800449Y-89303221D01*
X183838264Y-89320382D01*
X183877344Y-89338511D01*
X183877336Y-89339038D01*
X183950032Y-89374194D01*
X184021549Y-89410899D01*
X184091403Y-89449442D01*
X184159109Y-89490112D01*
X184224182Y-89533198D01*
X184286139Y-89578992D01*
X184344494Y-89627781D01*
X184398764Y-89679855D01*
X184424215Y-89707215D01*
X184448463Y-89735505D01*
X184471447Y-89764761D01*
X184493107Y-89795019D01*
X184513383Y-89826315D01*
X184532213Y-89858687D01*
X184549537Y-89892169D01*
X184565294Y-89926798D01*
X184579425Y-89962611D01*
X184590524Y-89995644D01*
X184604030Y-90053582D01*
X184612277Y-90082341D01*
X184618465Y-90118417D01*
X184623552Y-90160689D01*
X184626649Y-90204361D01*
X184627695Y-90249470D01*
X184626478Y-90298196D01*
X184622854Y-90345879D01*
X184616862Y-90392485D01*
X184608540Y-90437981D01*
X184597929Y-90482334D01*
X184585066Y-90525512D01*
X184569991Y-90567481D01*
X184552743Y-90608208D01*
X184533361Y-90647660D01*
X184511885Y-90685805D01*
X184488352Y-90722609D01*
X184462803Y-90758039D01*
X184435275Y-90792062D01*
X184405809Y-90824646D01*
X184374444Y-90855757D01*
X184341217Y-90885363D01*
X184306169Y-90913430D01*
X184269339Y-90939925D01*
X184230765Y-90964815D01*
X184190487Y-90988068D01*
X184148543Y-91009651D01*
X184104973Y-91029529D01*
X184059815Y-91047671D01*
X184013109Y-91064044D01*
X183964894Y-91078613D01*
X183915209Y-91091348D01*
X183864093Y-91102213D01*
X183811584Y-91111177D01*
X183757723Y-91118207D01*
X183702547Y-91123268D01*
X183588411Y-91127358D01*
X183546479Y-91126786D01*
X183505126Y-91125075D01*
X183464365Y-91122232D01*
X183424206Y-91118264D01*
X183384663Y-91113176D01*
X183345746Y-91106976D01*
X183307468Y-91099671D01*
X183269840Y-91091267D01*
X183232875Y-91081771D01*
X183196584Y-91071189D01*
X183160979Y-91059528D01*
X183126072Y-91046795D01*
X183091875Y-91032997D01*
X183058399Y-91018140D01*
X183025657Y-91002231D01*
X182993661Y-90985277D01*
X182962422Y-90967284D01*
X182931952Y-90948259D01*
X182902263Y-90928208D01*
X182873367Y-90907139D01*
X182845276Y-90885058D01*
X182818001Y-90861972D01*
X182791555Y-90837887D01*
X182765949Y-90812810D01*
X182741196Y-90786748D01*
X182717307Y-90759708D01*
X182694293Y-90731695D01*
X182672168Y-90702718D01*
X182650942Y-90672782D01*
X182630628Y-90641894D01*
X182611238Y-90610061D01*
X182592782Y-90577290D01*
X182577934Y-90549772D01*
X182888334Y-90549772D01*
X182918063Y-90587073D01*
X182949788Y-90622072D01*
X182983481Y-90654753D01*
X183019115Y-90685103D01*
X183056663Y-90713108D01*
X183096100Y-90738752D01*
X183137398Y-90762022D01*
X183180530Y-90782904D01*
X183225470Y-90801383D01*
X183272191Y-90817444D01*
X183320666Y-90831074D01*
X183370869Y-90842257D01*
X183422772Y-90850981D01*
X183476349Y-90857229D01*
X183531574Y-90860989D01*
X183588418Y-90862246D01*
X183588167Y-90861979D01*
X183631801Y-90861277D01*
X183674434Y-90859184D01*
X183716040Y-90855720D01*
X183756593Y-90850905D01*
X183796070Y-90844760D01*
X183834444Y-90837303D01*
X183871690Y-90828556D01*
X183907784Y-90818537D01*
X183942700Y-90807268D01*
X183976414Y-90794767D01*
X184008899Y-90781055D01*
X184040131Y-90766152D01*
X184070084Y-90750078D01*
X184098734Y-90732852D01*
X184126055Y-90714495D01*
X184152023Y-90695027D01*
X184176611Y-90674467D01*
X184199796Y-90652836D01*
X184221551Y-90630154D01*
X184241851Y-90606439D01*
X184260672Y-90581714D01*
X184277989Y-90555996D01*
X184293776Y-90529307D01*
X184308007Y-90501667D01*
X184320659Y-90473094D01*
X184331705Y-90443610D01*
X184341121Y-90413234D01*
X184348881Y-90381987D01*
X184354960Y-90349887D01*
X184359334Y-90316955D01*
X184361976Y-90283212D01*
X184362863Y-90248676D01*
X184360932Y-90196748D01*
X184355030Y-90147006D01*
X184344995Y-90099267D01*
X184330663Y-90053348D01*
X184311870Y-90009066D01*
X184288454Y-89966238D01*
X184260252Y-89924681D01*
X184227099Y-89884212D01*
X184188834Y-89844649D01*
X184145293Y-89805809D01*
X184096313Y-89767508D01*
X184041730Y-89729563D01*
X183981382Y-89691792D01*
X183915105Y-89654012D01*
X183842736Y-89616040D01*
X183764112Y-89577692D01*
X183726566Y-89560156D01*
X183690161Y-89543562D01*
X183620973Y-89512606D01*
X183540520Y-89476413D01*
X183501921Y-89458261D01*
X183464718Y-89439808D01*
X183429147Y-89420858D01*
X183395440Y-89401212D01*
X183363833Y-89380675D01*
X183348890Y-89370010D01*
X183334559Y-89359048D01*
X183320870Y-89347764D01*
X183307852Y-89336134D01*
X183295535Y-89324133D01*
X183283947Y-89311737D01*
X183273118Y-89298920D01*
X183263077Y-89285658D01*
X183253853Y-89271926D01*
X183245477Y-89257700D01*
X183237976Y-89242955D01*
X183231380Y-89227667D01*
X183225719Y-89211810D01*
X183221021Y-89195360D01*
X183217317Y-89178293D01*
X183214634Y-89160583D01*
X183213003Y-89142207D01*
X183212453Y-89123139D01*
X183213039Y-89103852D01*
X183214780Y-89084850D01*
X183217649Y-89066155D01*
X183221620Y-89047788D01*
X183226665Y-89029770D01*
X183232758Y-89012123D01*
X183239872Y-88994868D01*
X183247982Y-88978027D01*
X183257059Y-88961621D01*
X183267078Y-88945672D01*
X183278012Y-88930202D01*
X183289834Y-88915230D01*
X183302517Y-88900780D01*
X183316036Y-88886873D01*
X183330363Y-88873529D01*
X183345471Y-88860771D01*
X183361335Y-88848620D01*
X183377927Y-88837098D01*
X183395220Y-88826225D01*
X183413188Y-88816023D01*
X183451044Y-88797720D01*
X183491280Y-88782360D01*
X183533684Y-88770114D01*
X183578041Y-88761154D01*
X183600886Y-88757960D01*
X183624139Y-88755653D01*
X183647775Y-88754252D01*
X183671766Y-88753781D01*
X183700580Y-88754450D01*
X183728957Y-88756445D01*
X183756861Y-88759745D01*
X183784259Y-88764331D01*
X183811116Y-88770181D01*
X183837398Y-88777277D01*
X183863069Y-88785597D01*
X183888096Y-88795121D01*
X183912444Y-88805831D01*
X183936078Y-88817704D01*
X183958965Y-88830722D01*
X183981068Y-88844863D01*
X184002355Y-88860108D01*
X184022790Y-88876437D01*
X184042339Y-88893830D01*
X184060968Y-88912266D01*
X184232946Y-88792145D01*
X184219546Y-88771174D01*
X184205422Y-88751303D01*
X184190618Y-88732504D01*
X184175177Y-88714748D01*
X184159144Y-88698007D01*
X184142563Y-88682252D01*
X184125479Y-88667454D01*
X184107936Y-88653586D01*
X184089977Y-88640619D01*
X184071647Y-88628523D01*
X184034053Y-88606835D01*
X183995505Y-88588295D01*
X183956359Y-88572673D01*
X183916968Y-88559743D01*
X183877686Y-88549276D01*
X183838866Y-88541045D01*
X183800863Y-88534821D01*
X183764031Y-88530377D01*
X183728723Y-88527485D01*
X183695292Y-88525917D01*
X183664094Y-88525445D01*
X183626235Y-88526146D01*
X183589127Y-88528233D01*
X183552799Y-88531681D01*
X183517280Y-88536464D01*
X183482601Y-88542558D01*
X183448790Y-88549937D01*
X183415878Y-88558577D01*
X183383895Y-88568452D01*
X183352869Y-88579538D01*
X183322830Y-88591809D01*
X183293808Y-88605240D01*
X183265833Y-88619807D01*
X183238933Y-88635484D01*
X183213140Y-88652246D01*
X183188482Y-88670068D01*
X183164988Y-88688925D01*
X183142690Y-88708792D01*
X183121615Y-88729644D01*
X183101794Y-88751456D01*
X183083256Y-88774203D01*
X183066032Y-88797860D01*
X183050149Y-88822401D01*
X183035639Y-88847802D01*
X183022531Y-88874038D01*
X183010854Y-88901084D01*
X183000638Y-88928914D01*
X182991912Y-88957504D01*
X182984706Y-88986828D01*
X182979051Y-89016862D01*
X182974974Y-89047580D01*
X182972506Y-89078957D01*
X182971677Y-89110969D01*
X182972246Y-89138139D01*
X182973943Y-89164312D01*
X182976755Y-89189527D01*
X182980672Y-89213826D01*
X182985679Y-89237247D01*
X182991764Y-89259831D01*
X182998915Y-89281618D01*
X183007119Y-89302647D01*
X183016364Y-89322959D01*
X183026637Y-89342593D01*
X183037926Y-89361590D01*
X183050217Y-89379989D01*
X183063499Y-89397831D01*
X183077759Y-89415156D01*
X183109163Y-89448412D01*
X183144327Y-89480077D01*
X183183152Y-89510471D01*
X183225537Y-89539915D01*
X183271382Y-89568727D01*
X183320586Y-89597227D01*
X183373050Y-89625736D01*
X183487352Y-89684056D01*
X183606834Y-89743912D01*
X183665178Y-89774100D01*
X183721994Y-89804673D01*
X183776835Y-89835793D01*
X183829254Y-89867617D01*
X183878804Y-89900307D01*
X183925036Y-89934021D01*
X183946769Y-89951312D01*
X183967505Y-89968920D01*
X183987188Y-89986863D01*
X184005762Y-90005163D01*
X184023172Y-90023838D01*
X184039361Y-90042909D01*
X184054273Y-90062397D01*
X184067853Y-90082320D01*
X184080045Y-90102698D01*
X184090793Y-90123553D01*
X184100040Y-90144903D01*
X184107732Y-90166769D01*
X184113811Y-90189171D01*
X184118223Y-90212128D01*
X184120911Y-90235660D01*
X184121820Y-90259789D01*
X184121190Y-90279565D01*
X184119317Y-90298950D01*
X184116221Y-90317927D01*
X184111926Y-90336481D01*
X184106455Y-90354597D01*
X184099829Y-90372258D01*
X184092071Y-90389450D01*
X184083203Y-90406157D01*
X184073248Y-90422364D01*
X184062229Y-90438055D01*
X184050167Y-90453215D01*
X184037086Y-90467828D01*
X184023007Y-90481878D01*
X184007953Y-90495352D01*
X183975009Y-90520503D01*
X183938435Y-90543159D01*
X183898410Y-90563195D01*
X183855112Y-90580488D01*
X183808722Y-90594913D01*
X183759419Y-90606349D01*
X183707383Y-90614670D01*
X183652792Y-90619753D01*
X183595827Y-90621475D01*
X183556370Y-90620654D01*
X183517874Y-90618192D01*
X183480343Y-90614093D01*
X183443784Y-90608358D01*
X183408201Y-90600990D01*
X183373601Y-90591993D01*
X183339987Y-90581369D01*
X183307367Y-90569120D01*
X183275745Y-90555250D01*
X183245127Y-90539761D01*
X183215518Y-90522656D01*
X183186924Y-90503937D01*
X183159350Y-90483608D01*
X183132802Y-90461671D01*
X183107284Y-90438128D01*
X183082803Y-90412983D01*
X182888334Y-90549772D01*
X182577934Y-90549772D01*
X182536958Y-90473837D01*
X183148939Y-90043625D01*
G37*
X183148939Y-90043625D02*
X183223024Y-90162424D01*
X183239122Y-90186807D01*
X183255992Y-90209469D01*
X183273675Y-90230428D01*
X183292211Y-90249707D01*
X183311639Y-90267326D01*
X183332001Y-90283305D01*
X183353336Y-90297664D01*
X183375686Y-90310425D01*
X183399089Y-90321608D01*
X183423587Y-90331233D01*
X183449220Y-90339321D01*
X183476029Y-90345892D01*
X183504052Y-90350967D01*
X183533332Y-90354567D01*
X183563907Y-90356712D01*
X183595819Y-90357422D01*
X183611374Y-90357256D01*
X183626486Y-90356768D01*
X183641151Y-90355970D01*
X183655365Y-90354877D01*
X183669127Y-90353503D01*
X183682431Y-90351862D01*
X183695275Y-90349966D01*
X183707656Y-90347831D01*
X183719571Y-90345469D01*
X183731015Y-90342894D01*
X183741986Y-90340121D01*
X183752481Y-90337163D01*
X183762496Y-90334033D01*
X183772027Y-90330746D01*
X183781072Y-90327315D01*
X183789628Y-90323753D01*
X183797690Y-90320076D01*
X183805257Y-90316296D01*
X183812323Y-90312428D01*
X183818887Y-90308484D01*
X183824945Y-90304479D01*
X183830493Y-90300427D01*
X183835528Y-90296341D01*
X183840047Y-90292235D01*
X183844047Y-90288122D01*
X183847525Y-90284018D01*
X183850476Y-90279934D01*
X183852898Y-90275886D01*
X183854788Y-90271887D01*
X183856142Y-90267950D01*
X183856956Y-90264089D01*
X183857229Y-90260319D01*
X183856348Y-90251085D01*
X183853763Y-90241554D01*
X183849552Y-90231749D01*
X183843800Y-90221693D01*
X183836587Y-90211409D01*
X183827994Y-90200920D01*
X183806999Y-90179415D01*
X183781468Y-90157361D01*
X183752054Y-90134941D01*
X183719410Y-90112337D01*
X183684191Y-90089730D01*
X183647050Y-90067302D01*
X183608639Y-90045237D01*
X183530626Y-90002922D01*
X183388124Y-89930649D01*
X183268843Y-89870339D01*
X183208849Y-89838260D01*
X183149441Y-89804368D01*
X183091238Y-89768265D01*
X183034857Y-89729554D01*
X182980916Y-89687837D01*
X182930031Y-89642716D01*
X182905928Y-89618755D01*
X182882821Y-89593794D01*
X182860786Y-89567783D01*
X182839902Y-89540672D01*
X182820244Y-89512413D01*
X182801892Y-89482955D01*
X182784920Y-89452248D01*
X182769408Y-89420242D01*
X182755432Y-89386889D01*
X182743068Y-89352138D01*
X182732395Y-89315940D01*
X182723490Y-89278245D01*
X182716429Y-89239002D01*
X182711290Y-89198164D01*
X182708150Y-89155679D01*
X182707086Y-89111498D01*
X182708257Y-89065715D01*
X182711741Y-89020764D01*
X182717491Y-88976687D01*
X182725461Y-88933524D01*
X182735606Y-88891317D01*
X182747880Y-88850105D01*
X182762237Y-88809929D01*
X182778632Y-88770831D01*
X182797017Y-88732850D01*
X182817348Y-88696027D01*
X182839579Y-88660404D01*
X182863663Y-88626021D01*
X182889556Y-88592918D01*
X182917211Y-88561136D01*
X182946582Y-88530717D01*
X182977624Y-88501700D01*
X183010290Y-88474126D01*
X183044535Y-88448036D01*
X183080314Y-88423471D01*
X183117579Y-88400472D01*
X183156286Y-88379078D01*
X183196388Y-88359332D01*
X183237841Y-88341272D01*
X183280596Y-88324941D01*
X183324610Y-88310379D01*
X183369837Y-88297627D01*
X183416229Y-88286725D01*
X183463742Y-88277713D01*
X183512330Y-88270634D01*
X183561946Y-88265526D01*
X183612546Y-88262432D01*
X183664083Y-88261392D01*
X183703230Y-88261955D01*
X183741731Y-88263640D01*
X183779572Y-88266437D01*
X183816738Y-88270336D01*
X183853215Y-88275330D01*
X183888989Y-88281409D01*
X183924045Y-88288563D01*
X183958367Y-88296784D01*
X183991943Y-88306063D01*
X184024756Y-88316390D01*
X184056794Y-88327757D01*
X184088040Y-88340155D01*
X184118481Y-88353573D01*
X184148102Y-88368005D01*
X184176889Y-88383439D01*
X184204827Y-88399868D01*
X184231901Y-88417282D01*
X184258097Y-88435673D01*
X184283401Y-88455030D01*
X184307797Y-88475345D01*
X184331272Y-88496610D01*
X184353811Y-88518814D01*
X184375399Y-88541949D01*
X184396021Y-88566006D01*
X184415664Y-88590976D01*
X184434313Y-88616849D01*
X184451953Y-88643617D01*
X184468569Y-88671271D01*
X184484148Y-88699801D01*
X184498674Y-88729198D01*
X184512133Y-88759454D01*
X184524511Y-88790559D01*
X184560495Y-88886602D01*
X183980264Y-89291944D01*
X183911737Y-89154889D01*
X183906039Y-89144070D01*
X183900024Y-89133825D01*
X183893712Y-89124142D01*
X183887122Y-89115003D01*
X183880275Y-89106393D01*
X183873191Y-89098299D01*
X183865890Y-89090704D01*
X183858392Y-89083593D01*
X183850719Y-89076951D01*
X183842889Y-89070763D01*
X183834923Y-89065013D01*
X183826842Y-89059686D01*
X183818665Y-89054768D01*
X183810413Y-89050243D01*
X183793763Y-89042310D01*
X183777055Y-89035766D01*
X183760449Y-89030489D01*
X183744107Y-89026358D01*
X183728192Y-89023251D01*
X183712864Y-89021047D01*
X183698285Y-89019622D01*
X183684617Y-89018857D01*
X183672021Y-89018629D01*
X183660848Y-89018805D01*
X183649952Y-89019323D01*
X183639340Y-89020170D01*
X183629015Y-89021330D01*
X183618983Y-89022790D01*
X183609250Y-89024535D01*
X183599819Y-89026551D01*
X183590697Y-89028824D01*
X183581887Y-89031340D01*
X183573396Y-89034084D01*
X183565229Y-89037042D01*
X183557389Y-89040200D01*
X183549883Y-89043544D01*
X183542715Y-89047059D01*
X183535890Y-89050731D01*
X183529414Y-89054546D01*
X183523291Y-89058490D01*
X183517527Y-89062549D01*
X183512127Y-89066707D01*
X183507095Y-89070952D01*
X183502436Y-89075268D01*
X183498156Y-89079641D01*
X183494260Y-89084058D01*
X183490753Y-89088504D01*
X183487639Y-89092965D01*
X183484924Y-89097426D01*
X183482613Y-89101873D01*
X183480711Y-89106292D01*
X183479223Y-89110669D01*
X183478154Y-89114990D01*
X183477509Y-89119240D01*
X183477292Y-89123405D01*
X183477679Y-89126846D01*
X183478822Y-89130420D01*
X183480692Y-89134120D01*
X183483264Y-89137942D01*
X183490401Y-89145926D01*
X183500013Y-89154327D01*
X183511883Y-89163100D01*
X183525791Y-89172201D01*
X183541520Y-89181583D01*
X183558850Y-89191203D01*
X183597439Y-89210975D01*
X183639812Y-89231155D01*
X183728910Y-89271306D01*
X183800449Y-89303221D01*
X183838264Y-89320382D01*
X183877344Y-89338511D01*
X183877336Y-89339038D01*
X183950032Y-89374194D01*
X184021549Y-89410899D01*
X184091403Y-89449442D01*
X184159109Y-89490112D01*
X184224182Y-89533198D01*
X184286139Y-89578992D01*
X184344494Y-89627781D01*
X184398764Y-89679855D01*
X184424215Y-89707215D01*
X184448463Y-89735505D01*
X184471447Y-89764761D01*
X184493107Y-89795019D01*
X184513383Y-89826315D01*
X184532213Y-89858687D01*
X184549537Y-89892169D01*
X184565294Y-89926798D01*
X184579425Y-89962611D01*
X184590524Y-89995644D01*
X184604030Y-90053582D01*
X184612277Y-90082341D01*
X184618465Y-90118417D01*
X184623552Y-90160689D01*
X184626649Y-90204361D01*
X184627695Y-90249470D01*
X184626478Y-90298196D01*
X184622854Y-90345879D01*
X184616862Y-90392485D01*
X184608540Y-90437981D01*
X184597929Y-90482334D01*
X184585066Y-90525512D01*
X184569991Y-90567481D01*
X184552743Y-90608208D01*
X184533361Y-90647660D01*
X184511885Y-90685805D01*
X184488352Y-90722609D01*
X184462803Y-90758039D01*
X184435275Y-90792062D01*
X184405809Y-90824646D01*
X184374444Y-90855757D01*
X184341217Y-90885363D01*
X184306169Y-90913430D01*
X184269339Y-90939925D01*
X184230765Y-90964815D01*
X184190487Y-90988068D01*
X184148543Y-91009651D01*
X184104973Y-91029529D01*
X184059815Y-91047671D01*
X184013109Y-91064044D01*
X183964894Y-91078613D01*
X183915209Y-91091348D01*
X183864093Y-91102213D01*
X183811584Y-91111177D01*
X183757723Y-91118207D01*
X183702547Y-91123268D01*
X183588411Y-91127358D01*
X183546479Y-91126786D01*
X183505126Y-91125075D01*
X183464365Y-91122232D01*
X183424206Y-91118264D01*
X183384663Y-91113176D01*
X183345746Y-91106976D01*
X183307468Y-91099671D01*
X183269840Y-91091267D01*
X183232875Y-91081771D01*
X183196584Y-91071189D01*
X183160979Y-91059528D01*
X183126072Y-91046795D01*
X183091875Y-91032997D01*
X183058399Y-91018140D01*
X183025657Y-91002231D01*
X182993661Y-90985277D01*
X182962422Y-90967284D01*
X182931952Y-90948259D01*
X182902263Y-90928208D01*
X182873367Y-90907139D01*
X182845276Y-90885058D01*
X182818001Y-90861972D01*
X182791555Y-90837887D01*
X182765949Y-90812810D01*
X182741196Y-90786748D01*
X182717307Y-90759708D01*
X182694293Y-90731695D01*
X182672168Y-90702718D01*
X182650942Y-90672782D01*
X182630628Y-90641894D01*
X182611238Y-90610061D01*
X182592782Y-90577290D01*
X182577934Y-90549772D01*
X182888334Y-90549772D01*
X182918063Y-90587073D01*
X182949788Y-90622072D01*
X182983481Y-90654753D01*
X183019115Y-90685103D01*
X183056663Y-90713108D01*
X183096100Y-90738752D01*
X183137398Y-90762022D01*
X183180530Y-90782904D01*
X183225470Y-90801383D01*
X183272191Y-90817444D01*
X183320666Y-90831074D01*
X183370869Y-90842257D01*
X183422772Y-90850981D01*
X183476349Y-90857229D01*
X183531574Y-90860989D01*
X183588418Y-90862246D01*
X183588167Y-90861979D01*
X183631801Y-90861277D01*
X183674434Y-90859184D01*
X183716040Y-90855720D01*
X183756593Y-90850905D01*
X183796070Y-90844760D01*
X183834444Y-90837303D01*
X183871690Y-90828556D01*
X183907784Y-90818537D01*
X183942700Y-90807268D01*
X183976414Y-90794767D01*
X184008899Y-90781055D01*
X184040131Y-90766152D01*
X184070084Y-90750078D01*
X184098734Y-90732852D01*
X184126055Y-90714495D01*
X184152023Y-90695027D01*
X184176611Y-90674467D01*
X184199796Y-90652836D01*
X184221551Y-90630154D01*
X184241851Y-90606439D01*
X184260672Y-90581714D01*
X184277989Y-90555996D01*
X184293776Y-90529307D01*
X184308007Y-90501667D01*
X184320659Y-90473094D01*
X184331705Y-90443610D01*
X184341121Y-90413234D01*
X184348881Y-90381987D01*
X184354960Y-90349887D01*
X184359334Y-90316955D01*
X184361976Y-90283212D01*
X184362863Y-90248676D01*
X184360932Y-90196748D01*
X184355030Y-90147006D01*
X184344995Y-90099267D01*
X184330663Y-90053348D01*
X184311870Y-90009066D01*
X184288454Y-89966238D01*
X184260252Y-89924681D01*
X184227099Y-89884212D01*
X184188834Y-89844649D01*
X184145293Y-89805809D01*
X184096313Y-89767508D01*
X184041730Y-89729563D01*
X183981382Y-89691792D01*
X183915105Y-89654012D01*
X183842736Y-89616040D01*
X183764112Y-89577692D01*
X183726566Y-89560156D01*
X183690161Y-89543562D01*
X183620973Y-89512606D01*
X183540520Y-89476413D01*
X183501921Y-89458261D01*
X183464718Y-89439808D01*
X183429147Y-89420858D01*
X183395440Y-89401212D01*
X183363833Y-89380675D01*
X183348890Y-89370010D01*
X183334559Y-89359048D01*
X183320870Y-89347764D01*
X183307852Y-89336134D01*
X183295535Y-89324133D01*
X183283947Y-89311737D01*
X183273118Y-89298920D01*
X183263077Y-89285658D01*
X183253853Y-89271926D01*
X183245477Y-89257700D01*
X183237976Y-89242955D01*
X183231380Y-89227667D01*
X183225719Y-89211810D01*
X183221021Y-89195360D01*
X183217317Y-89178293D01*
X183214634Y-89160583D01*
X183213003Y-89142207D01*
X183212453Y-89123139D01*
X183213039Y-89103852D01*
X183214780Y-89084850D01*
X183217649Y-89066155D01*
X183221620Y-89047788D01*
X183226665Y-89029770D01*
X183232758Y-89012123D01*
X183239872Y-88994868D01*
X183247982Y-88978027D01*
X183257059Y-88961621D01*
X183267078Y-88945672D01*
X183278012Y-88930202D01*
X183289834Y-88915230D01*
X183302517Y-88900780D01*
X183316036Y-88886873D01*
X183330363Y-88873529D01*
X183345471Y-88860771D01*
X183361335Y-88848620D01*
X183377927Y-88837098D01*
X183395220Y-88826225D01*
X183413188Y-88816023D01*
X183451044Y-88797720D01*
X183491280Y-88782360D01*
X183533684Y-88770114D01*
X183578041Y-88761154D01*
X183600886Y-88757960D01*
X183624139Y-88755653D01*
X183647775Y-88754252D01*
X183671766Y-88753781D01*
X183700580Y-88754450D01*
X183728957Y-88756445D01*
X183756861Y-88759745D01*
X183784259Y-88764331D01*
X183811116Y-88770181D01*
X183837398Y-88777277D01*
X183863069Y-88785597D01*
X183888096Y-88795121D01*
X183912444Y-88805831D01*
X183936078Y-88817704D01*
X183958965Y-88830722D01*
X183981068Y-88844863D01*
X184002355Y-88860108D01*
X184022790Y-88876437D01*
X184042339Y-88893830D01*
X184060968Y-88912266D01*
X184232946Y-88792145D01*
X184219546Y-88771174D01*
X184205422Y-88751303D01*
X184190618Y-88732504D01*
X184175177Y-88714748D01*
X184159144Y-88698007D01*
X184142563Y-88682252D01*
X184125479Y-88667454D01*
X184107936Y-88653586D01*
X184089977Y-88640619D01*
X184071647Y-88628523D01*
X184034053Y-88606835D01*
X183995505Y-88588295D01*
X183956359Y-88572673D01*
X183916968Y-88559743D01*
X183877686Y-88549276D01*
X183838866Y-88541045D01*
X183800863Y-88534821D01*
X183764031Y-88530377D01*
X183728723Y-88527485D01*
X183695292Y-88525917D01*
X183664094Y-88525445D01*
X183626235Y-88526146D01*
X183589127Y-88528233D01*
X183552799Y-88531681D01*
X183517280Y-88536464D01*
X183482601Y-88542558D01*
X183448790Y-88549937D01*
X183415878Y-88558577D01*
X183383895Y-88568452D01*
X183352869Y-88579538D01*
X183322830Y-88591809D01*
X183293808Y-88605240D01*
X183265833Y-88619807D01*
X183238933Y-88635484D01*
X183213140Y-88652246D01*
X183188482Y-88670068D01*
X183164988Y-88688925D01*
X183142690Y-88708792D01*
X183121615Y-88729644D01*
X183101794Y-88751456D01*
X183083256Y-88774203D01*
X183066032Y-88797860D01*
X183050149Y-88822401D01*
X183035639Y-88847802D01*
X183022531Y-88874038D01*
X183010854Y-88901084D01*
X183000638Y-88928914D01*
X182991912Y-88957504D01*
X182984706Y-88986828D01*
X182979051Y-89016862D01*
X182974974Y-89047580D01*
X182972506Y-89078957D01*
X182971677Y-89110969D01*
X182972246Y-89138139D01*
X182973943Y-89164312D01*
X182976755Y-89189527D01*
X182980672Y-89213826D01*
X182985679Y-89237247D01*
X182991764Y-89259831D01*
X182998915Y-89281618D01*
X183007119Y-89302647D01*
X183016364Y-89322959D01*
X183026637Y-89342593D01*
X183037926Y-89361590D01*
X183050217Y-89379989D01*
X183063499Y-89397831D01*
X183077759Y-89415156D01*
X183109163Y-89448412D01*
X183144327Y-89480077D01*
X183183152Y-89510471D01*
X183225537Y-89539915D01*
X183271382Y-89568727D01*
X183320586Y-89597227D01*
X183373050Y-89625736D01*
X183487352Y-89684056D01*
X183606834Y-89743912D01*
X183665178Y-89774100D01*
X183721994Y-89804673D01*
X183776835Y-89835793D01*
X183829254Y-89867617D01*
X183878804Y-89900307D01*
X183925036Y-89934021D01*
X183946769Y-89951312D01*
X183967505Y-89968920D01*
X183987188Y-89986863D01*
X184005762Y-90005163D01*
X184023172Y-90023838D01*
X184039361Y-90042909D01*
X184054273Y-90062397D01*
X184067853Y-90082320D01*
X184080045Y-90102698D01*
X184090793Y-90123553D01*
X184100040Y-90144903D01*
X184107732Y-90166769D01*
X184113811Y-90189171D01*
X184118223Y-90212128D01*
X184120911Y-90235660D01*
X184121820Y-90259789D01*
X184121190Y-90279565D01*
X184119317Y-90298950D01*
X184116221Y-90317927D01*
X184111926Y-90336481D01*
X184106455Y-90354597D01*
X184099829Y-90372258D01*
X184092071Y-90389450D01*
X184083203Y-90406157D01*
X184073248Y-90422364D01*
X184062229Y-90438055D01*
X184050167Y-90453215D01*
X184037086Y-90467828D01*
X184023007Y-90481878D01*
X184007953Y-90495352D01*
X183975009Y-90520503D01*
X183938435Y-90543159D01*
X183898410Y-90563195D01*
X183855112Y-90580488D01*
X183808722Y-90594913D01*
X183759419Y-90606349D01*
X183707383Y-90614670D01*
X183652792Y-90619753D01*
X183595827Y-90621475D01*
X183556370Y-90620654D01*
X183517874Y-90618192D01*
X183480343Y-90614093D01*
X183443784Y-90608358D01*
X183408201Y-90600990D01*
X183373601Y-90591993D01*
X183339987Y-90581369D01*
X183307367Y-90569120D01*
X183275745Y-90555250D01*
X183245127Y-90539761D01*
X183215518Y-90522656D01*
X183186924Y-90503937D01*
X183159350Y-90483608D01*
X183132802Y-90461671D01*
X183107284Y-90438128D01*
X183082803Y-90412983D01*
X182888334Y-90549772D01*
X182577934Y-90549772D01*
X182536958Y-90473837D01*
X183148939Y-90043625D01*
G36*
X182876951Y-87135060D02*
G01*
X182374509Y-87135060D01*
X182374509Y-85249905D01*
X182090875Y-85331926D01*
X182090875Y-84808051D01*
X182729581Y-84604851D01*
X182876951Y-84604851D01*
X182876951Y-87135060D01*
G37*
X182876951Y-87135060D02*
X182374509Y-87135060D01*
X182374509Y-85249905D01*
X182090875Y-85331926D01*
X182090875Y-84808051D01*
X182729581Y-84604851D01*
X182876951Y-84604851D01*
X182876951Y-87135060D01*
G36*
X175105344Y-85716365D02*
G01*
X175807550Y-84635807D01*
X176387517Y-84635807D01*
X175585832Y-85859241D01*
X176475889Y-87135060D01*
X175864965Y-87135060D01*
X175105344Y-86040479D01*
X175105344Y-87135060D01*
X174604494Y-87135060D01*
X174604494Y-84635807D01*
X175105344Y-84635807D01*
X175105344Y-85716365D01*
G37*
X175105344Y-85716365D02*
X175807550Y-84635807D01*
X176387517Y-84635807D01*
X175585832Y-85859241D01*
X176475889Y-87135060D01*
X175864965Y-87135060D01*
X175105344Y-86040479D01*
X175105344Y-87135060D01*
X174604494Y-87135060D01*
X174604494Y-84635807D01*
X175105344Y-84635807D01*
X175105344Y-85716365D01*
G36*
X181136518Y-88313515D02*
G01*
X181136518Y-90019283D01*
X181137007Y-90038669D01*
X181138452Y-90057579D01*
X181140819Y-90076003D01*
X181144077Y-90093934D01*
X181148190Y-90111362D01*
X181153127Y-90128277D01*
X181158853Y-90144670D01*
X181165337Y-90160533D01*
X181172544Y-90175856D01*
X181180441Y-90190630D01*
X181188996Y-90204845D01*
X181198175Y-90218493D01*
X181207944Y-90231565D01*
X181218271Y-90244051D01*
X181229123Y-90255943D01*
X181240466Y-90267230D01*
X181252267Y-90277904D01*
X181264493Y-90287956D01*
X181277111Y-90297376D01*
X181290087Y-90306156D01*
X181303389Y-90314286D01*
X181316983Y-90321757D01*
X181330836Y-90328560D01*
X181344914Y-90334686D01*
X181359186Y-90340126D01*
X181373616Y-90344870D01*
X181388173Y-90348909D01*
X181402823Y-90352234D01*
X181417533Y-90354836D01*
X181432270Y-90356706D01*
X181447000Y-90357835D01*
X181461690Y-90358214D01*
X181476506Y-90357836D01*
X181491362Y-90356709D01*
X181506226Y-90354843D01*
X181521064Y-90352245D01*
X181535842Y-90348925D01*
X181550526Y-90344892D01*
X181565084Y-90340155D01*
X181579482Y-90334724D01*
X181593686Y-90328606D01*
X181607662Y-90321811D01*
X181621378Y-90314348D01*
X181634799Y-90306226D01*
X181647892Y-90297454D01*
X181660624Y-90288042D01*
X181672961Y-90277997D01*
X181684870Y-90267329D01*
X181696316Y-90256048D01*
X181707267Y-90244161D01*
X181717689Y-90231679D01*
X181727548Y-90218610D01*
X181736812Y-90204963D01*
X181745445Y-90190747D01*
X181753416Y-90175971D01*
X181760690Y-90160645D01*
X181767233Y-90144776D01*
X181773013Y-90128375D01*
X181777996Y-90111450D01*
X181782148Y-90094010D01*
X181785435Y-90076065D01*
X181787825Y-90057622D01*
X181789284Y-90038692D01*
X181789777Y-90019283D01*
X181789777Y-88313515D01*
X182559976Y-88313515D01*
X182559976Y-90020870D01*
X182558576Y-90078830D01*
X182554418Y-90135937D01*
X182547566Y-90192125D01*
X182538083Y-90247329D01*
X182526034Y-90301486D01*
X182511482Y-90354531D01*
X182494490Y-90406398D01*
X182475123Y-90457023D01*
X182453445Y-90506342D01*
X182429517Y-90554290D01*
X182403406Y-90600802D01*
X182375174Y-90645814D01*
X182344884Y-90689260D01*
X182312601Y-90731076D01*
X182278389Y-90771198D01*
X182242311Y-90809560D01*
X182204430Y-90846099D01*
X182164811Y-90880749D01*
X182123518Y-90913445D01*
X182080613Y-90944124D01*
X182036160Y-90972720D01*
X181990224Y-90999169D01*
X181942868Y-91023406D01*
X181894156Y-91045366D01*
X181844151Y-91064985D01*
X181792918Y-91082198D01*
X181740519Y-91096940D01*
X181687019Y-91109147D01*
X181632481Y-91118754D01*
X181576969Y-91125696D01*
X181520546Y-91129908D01*
X181463277Y-91131327D01*
X181406009Y-91129909D01*
X181349586Y-91125698D01*
X181294075Y-91118760D01*
X181239537Y-91109158D01*
X181186037Y-91096956D01*
X181133638Y-91082220D01*
X181082405Y-91065015D01*
X181032400Y-91045403D01*
X180983688Y-91023451D01*
X180936332Y-90999222D01*
X180890396Y-90972782D01*
X180845943Y-90944194D01*
X180803038Y-90913523D01*
X180761745Y-90880834D01*
X180722126Y-90846192D01*
X180684245Y-90809660D01*
X180648167Y-90771303D01*
X180613954Y-90731186D01*
X180581671Y-90689374D01*
X180551382Y-90645930D01*
X180523149Y-90600920D01*
X180497038Y-90554408D01*
X180473111Y-90506458D01*
X180451432Y-90457135D01*
X180432064Y-90406504D01*
X180415073Y-90354629D01*
X180400521Y-90301575D01*
X180388471Y-90247405D01*
X180378989Y-90192186D01*
X180372137Y-90135980D01*
X180367979Y-90078854D01*
X180366578Y-90020870D01*
X180630899Y-90020870D01*
X180631939Y-90065710D01*
X180635032Y-90109813D01*
X180640132Y-90153132D01*
X180647196Y-90195624D01*
X180656180Y-90237242D01*
X180667038Y-90277943D01*
X180679728Y-90317681D01*
X180694205Y-90356412D01*
X180710425Y-90394089D01*
X180728344Y-90430670D01*
X180747917Y-90466107D01*
X180769101Y-90500357D01*
X180791851Y-90533375D01*
X180816123Y-90565115D01*
X180841874Y-90595533D01*
X180869058Y-90624583D01*
X180897633Y-90652221D01*
X180927553Y-90678402D01*
X180958775Y-90703081D01*
X180991254Y-90726212D01*
X181024946Y-90747752D01*
X181059808Y-90767654D01*
X181095794Y-90785874D01*
X181132862Y-90802367D01*
X181170966Y-90817088D01*
X181210063Y-90829992D01*
X181250108Y-90841034D01*
X181291058Y-90850170D01*
X181332868Y-90857353D01*
X181375494Y-90862540D01*
X181418892Y-90865685D01*
X181463018Y-90866743D01*
X181507143Y-90865686D01*
X181550541Y-90862543D01*
X181593167Y-90857359D01*
X181634976Y-90850180D01*
X181675926Y-90841050D01*
X181715971Y-90830015D01*
X181755067Y-90817117D01*
X181793172Y-90802404D01*
X181830239Y-90785919D01*
X181866225Y-90767707D01*
X181901087Y-90747813D01*
X181934779Y-90726282D01*
X181967258Y-90703158D01*
X181998479Y-90678487D01*
X182028400Y-90652314D01*
X182056974Y-90624682D01*
X182084158Y-90595637D01*
X182109909Y-90565224D01*
X182134181Y-90533488D01*
X182156931Y-90500473D01*
X182178115Y-90466224D01*
X182197688Y-90430786D01*
X182215607Y-90394204D01*
X182231827Y-90356523D01*
X182246304Y-90317787D01*
X182258994Y-90278041D01*
X182269852Y-90237330D01*
X182278836Y-90195699D01*
X182285900Y-90153193D01*
X182291000Y-90109856D01*
X182294092Y-90065734D01*
X182295133Y-90020870D01*
X182294870Y-90020870D01*
X182294870Y-88578097D01*
X182054098Y-88578097D01*
X182054098Y-90019283D01*
X182053325Y-90050299D01*
X182051032Y-90080912D01*
X182047255Y-90111085D01*
X182042034Y-90140779D01*
X182035404Y-90169955D01*
X182027404Y-90198577D01*
X182018072Y-90226605D01*
X182007444Y-90254002D01*
X181995558Y-90280729D01*
X181982453Y-90306748D01*
X181968165Y-90332020D01*
X181952731Y-90356509D01*
X181936191Y-90380175D01*
X181918580Y-90402981D01*
X181899937Y-90424888D01*
X181880299Y-90445857D01*
X181859704Y-90465852D01*
X181838189Y-90484834D01*
X181815792Y-90502763D01*
X181792550Y-90519604D01*
X181768501Y-90535316D01*
X181743682Y-90549862D01*
X181718132Y-90563205D01*
X181691887Y-90575305D01*
X181664985Y-90586124D01*
X181637463Y-90595624D01*
X181609360Y-90603768D01*
X181580713Y-90610517D01*
X181551559Y-90615832D01*
X181521935Y-90619676D01*
X181491880Y-90622011D01*
X181461431Y-90622797D01*
X181431129Y-90622011D01*
X181401220Y-90619676D01*
X181371741Y-90615832D01*
X181342729Y-90610517D01*
X181314221Y-90603768D01*
X181286255Y-90595624D01*
X181258868Y-90586124D01*
X181232097Y-90575305D01*
X181205981Y-90563205D01*
X181180555Y-90549862D01*
X181155858Y-90535316D01*
X181131927Y-90519604D01*
X181108800Y-90502763D01*
X181086513Y-90484834D01*
X181065104Y-90465852D01*
X181044610Y-90445857D01*
X181025069Y-90424888D01*
X181006518Y-90402981D01*
X180988994Y-90380175D01*
X180972535Y-90356509D01*
X180957178Y-90332020D01*
X180942960Y-90306748D01*
X180929920Y-90280729D01*
X180918093Y-90254002D01*
X180907518Y-90226605D01*
X180898232Y-90198577D01*
X180890272Y-90169955D01*
X180883675Y-90140779D01*
X180878479Y-90111085D01*
X180874722Y-90080912D01*
X180872440Y-90050299D01*
X180871671Y-90019283D01*
X180871671Y-88578097D01*
X180630899Y-88578097D01*
X180630899Y-90020870D01*
X180366578Y-90020870D01*
X180366578Y-88313515D01*
X181136518Y-88313515D01*
G37*
X181136518Y-88313515D02*
X181136518Y-90019283D01*
X181137007Y-90038669D01*
X181138452Y-90057579D01*
X181140819Y-90076003D01*
X181144077Y-90093934D01*
X181148190Y-90111362D01*
X181153127Y-90128277D01*
X181158853Y-90144670D01*
X181165337Y-90160533D01*
X181172544Y-90175856D01*
X181180441Y-90190630D01*
X181188996Y-90204845D01*
X181198175Y-90218493D01*
X181207944Y-90231565D01*
X181218271Y-90244051D01*
X181229123Y-90255943D01*
X181240466Y-90267230D01*
X181252267Y-90277904D01*
X181264493Y-90287956D01*
X181277111Y-90297376D01*
X181290087Y-90306156D01*
X181303389Y-90314286D01*
X181316983Y-90321757D01*
X181330836Y-90328560D01*
X181344914Y-90334686D01*
X181359186Y-90340126D01*
X181373616Y-90344870D01*
X181388173Y-90348909D01*
X181402823Y-90352234D01*
X181417533Y-90354836D01*
X181432270Y-90356706D01*
X181447000Y-90357835D01*
X181461690Y-90358214D01*
X181476506Y-90357836D01*
X181491362Y-90356709D01*
X181506226Y-90354843D01*
X181521064Y-90352245D01*
X181535842Y-90348925D01*
X181550526Y-90344892D01*
X181565084Y-90340155D01*
X181579482Y-90334724D01*
X181593686Y-90328606D01*
X181607662Y-90321811D01*
X181621378Y-90314348D01*
X181634799Y-90306226D01*
X181647892Y-90297454D01*
X181660624Y-90288042D01*
X181672961Y-90277997D01*
X181684870Y-90267329D01*
X181696316Y-90256048D01*
X181707267Y-90244161D01*
X181717689Y-90231679D01*
X181727548Y-90218610D01*
X181736812Y-90204963D01*
X181745445Y-90190747D01*
X181753416Y-90175971D01*
X181760690Y-90160645D01*
X181767233Y-90144776D01*
X181773013Y-90128375D01*
X181777996Y-90111450D01*
X181782148Y-90094010D01*
X181785435Y-90076065D01*
X181787825Y-90057622D01*
X181789284Y-90038692D01*
X181789777Y-90019283D01*
X181789777Y-88313515D01*
X182559976Y-88313515D01*
X182559976Y-90020870D01*
X182558576Y-90078830D01*
X182554418Y-90135937D01*
X182547566Y-90192125D01*
X182538083Y-90247329D01*
X182526034Y-90301486D01*
X182511482Y-90354531D01*
X182494490Y-90406398D01*
X182475123Y-90457023D01*
X182453445Y-90506342D01*
X182429517Y-90554290D01*
X182403406Y-90600802D01*
X182375174Y-90645814D01*
X182344884Y-90689260D01*
X182312601Y-90731076D01*
X182278389Y-90771198D01*
X182242311Y-90809560D01*
X182204430Y-90846099D01*
X182164811Y-90880749D01*
X182123518Y-90913445D01*
X182080613Y-90944124D01*
X182036160Y-90972720D01*
X181990224Y-90999169D01*
X181942868Y-91023406D01*
X181894156Y-91045366D01*
X181844151Y-91064985D01*
X181792918Y-91082198D01*
X181740519Y-91096940D01*
X181687019Y-91109147D01*
X181632481Y-91118754D01*
X181576969Y-91125696D01*
X181520546Y-91129908D01*
X181463277Y-91131327D01*
X181406009Y-91129909D01*
X181349586Y-91125698D01*
X181294075Y-91118760D01*
X181239537Y-91109158D01*
X181186037Y-91096956D01*
X181133638Y-91082220D01*
X181082405Y-91065015D01*
X181032400Y-91045403D01*
X180983688Y-91023451D01*
X180936332Y-90999222D01*
X180890396Y-90972782D01*
X180845943Y-90944194D01*
X180803038Y-90913523D01*
X180761745Y-90880834D01*
X180722126Y-90846192D01*
X180684245Y-90809660D01*
X180648167Y-90771303D01*
X180613954Y-90731186D01*
X180581671Y-90689374D01*
X180551382Y-90645930D01*
X180523149Y-90600920D01*
X180497038Y-90554408D01*
X180473111Y-90506458D01*
X180451432Y-90457135D01*
X180432064Y-90406504D01*
X180415073Y-90354629D01*
X180400521Y-90301575D01*
X180388471Y-90247405D01*
X180378989Y-90192186D01*
X180372137Y-90135980D01*
X180367979Y-90078854D01*
X180366578Y-90020870D01*
X180630899Y-90020870D01*
X180631939Y-90065710D01*
X180635032Y-90109813D01*
X180640132Y-90153132D01*
X180647196Y-90195624D01*
X180656180Y-90237242D01*
X180667038Y-90277943D01*
X180679728Y-90317681D01*
X180694205Y-90356412D01*
X180710425Y-90394089D01*
X180728344Y-90430670D01*
X180747917Y-90466107D01*
X180769101Y-90500357D01*
X180791851Y-90533375D01*
X180816123Y-90565115D01*
X180841874Y-90595533D01*
X180869058Y-90624583D01*
X180897633Y-90652221D01*
X180927553Y-90678402D01*
X180958775Y-90703081D01*
X180991254Y-90726212D01*
X181024946Y-90747752D01*
X181059808Y-90767654D01*
X181095794Y-90785874D01*
X181132862Y-90802367D01*
X181170966Y-90817088D01*
X181210063Y-90829992D01*
X181250108Y-90841034D01*
X181291058Y-90850170D01*
X181332868Y-90857353D01*
X181375494Y-90862540D01*
X181418892Y-90865685D01*
X181463018Y-90866743D01*
X181507143Y-90865686D01*
X181550541Y-90862543D01*
X181593167Y-90857359D01*
X181634976Y-90850180D01*
X181675926Y-90841050D01*
X181715971Y-90830015D01*
X181755067Y-90817117D01*
X181793172Y-90802404D01*
X181830239Y-90785919D01*
X181866225Y-90767707D01*
X181901087Y-90747813D01*
X181934779Y-90726282D01*
X181967258Y-90703158D01*
X181998479Y-90678487D01*
X182028400Y-90652314D01*
X182056974Y-90624682D01*
X182084158Y-90595637D01*
X182109909Y-90565224D01*
X182134181Y-90533488D01*
X182156931Y-90500473D01*
X182178115Y-90466224D01*
X182197688Y-90430786D01*
X182215607Y-90394204D01*
X182231827Y-90356523D01*
X182246304Y-90317787D01*
X182258994Y-90278041D01*
X182269852Y-90237330D01*
X182278836Y-90195699D01*
X182285900Y-90153193D01*
X182291000Y-90109856D01*
X182294092Y-90065734D01*
X182295133Y-90020870D01*
X182294870Y-90020870D01*
X182294870Y-88578097D01*
X182054098Y-88578097D01*
X182054098Y-90019283D01*
X182053325Y-90050299D01*
X182051032Y-90080912D01*
X182047255Y-90111085D01*
X182042034Y-90140779D01*
X182035404Y-90169955D01*
X182027404Y-90198577D01*
X182018072Y-90226605D01*
X182007444Y-90254002D01*
X181995558Y-90280729D01*
X181982453Y-90306748D01*
X181968165Y-90332020D01*
X181952731Y-90356509D01*
X181936191Y-90380175D01*
X181918580Y-90402981D01*
X181899937Y-90424888D01*
X181880299Y-90445857D01*
X181859704Y-90465852D01*
X181838189Y-90484834D01*
X181815792Y-90502763D01*
X181792550Y-90519604D01*
X181768501Y-90535316D01*
X181743682Y-90549862D01*
X181718132Y-90563205D01*
X181691887Y-90575305D01*
X181664985Y-90586124D01*
X181637463Y-90595624D01*
X181609360Y-90603768D01*
X181580713Y-90610517D01*
X181551559Y-90615832D01*
X181521935Y-90619676D01*
X181491880Y-90622011D01*
X181461431Y-90622797D01*
X181431129Y-90622011D01*
X181401220Y-90619676D01*
X181371741Y-90615832D01*
X181342729Y-90610517D01*
X181314221Y-90603768D01*
X181286255Y-90595624D01*
X181258868Y-90586124D01*
X181232097Y-90575305D01*
X181205981Y-90563205D01*
X181180555Y-90549862D01*
X181155858Y-90535316D01*
X181131927Y-90519604D01*
X181108800Y-90502763D01*
X181086513Y-90484834D01*
X181065104Y-90465852D01*
X181044610Y-90445857D01*
X181025069Y-90424888D01*
X181006518Y-90402981D01*
X180988994Y-90380175D01*
X180972535Y-90356509D01*
X180957178Y-90332020D01*
X180942960Y-90306748D01*
X180929920Y-90280729D01*
X180918093Y-90254002D01*
X180907518Y-90226605D01*
X180898232Y-90198577D01*
X180890272Y-90169955D01*
X180883675Y-90140779D01*
X180878479Y-90111085D01*
X180874722Y-90080912D01*
X180872440Y-90050299D01*
X180871671Y-90019283D01*
X180871671Y-88578097D01*
X180630899Y-88578097D01*
X180630899Y-90020870D01*
X180366578Y-90020870D01*
X180366578Y-88313515D01*
X181136518Y-88313515D01*
G36*
X183593757Y-86574307D02*
G01*
X183609773Y-86575577D01*
X183625590Y-86577665D01*
X183641188Y-86580551D01*
X183656544Y-86584211D01*
X183671635Y-86588624D01*
X183686440Y-86593767D01*
X183700935Y-86599618D01*
X183715100Y-86606156D01*
X183728912Y-86613357D01*
X183742348Y-86621200D01*
X183755387Y-86629662D01*
X183768006Y-86638722D01*
X183780184Y-86648356D01*
X183791897Y-86658544D01*
X183803123Y-86669262D01*
X183813842Y-86680488D01*
X183824029Y-86692201D01*
X183833664Y-86704378D01*
X183842724Y-86716997D01*
X183851186Y-86730036D01*
X183859029Y-86743472D01*
X183866230Y-86757284D01*
X183872768Y-86771449D01*
X183878619Y-86785944D01*
X183883763Y-86800749D01*
X183888176Y-86815840D01*
X183891836Y-86831196D01*
X183894721Y-86846793D01*
X183896810Y-86862611D01*
X183898079Y-86878627D01*
X183898507Y-86894818D01*
X183898084Y-86911145D01*
X183896827Y-86927270D01*
X183894759Y-86943171D01*
X183891901Y-86958829D01*
X183888274Y-86974223D01*
X183883899Y-86989332D01*
X183878798Y-87004135D01*
X183872992Y-87018611D01*
X183866502Y-87032740D01*
X183859349Y-87046501D01*
X183851556Y-87059874D01*
X183843143Y-87072836D01*
X183834132Y-87085369D01*
X183824543Y-87097451D01*
X183814399Y-87109061D01*
X183803720Y-87120178D01*
X183792528Y-87130783D01*
X183780844Y-87140853D01*
X183768690Y-87150369D01*
X183756086Y-87159310D01*
X183743055Y-87167654D01*
X183729617Y-87175382D01*
X183715794Y-87182472D01*
X183701607Y-87188904D01*
X183687077Y-87194657D01*
X183672226Y-87199710D01*
X183657075Y-87204042D01*
X183641645Y-87207633D01*
X183625958Y-87210463D01*
X183610035Y-87212509D01*
X183593897Y-87213753D01*
X183577566Y-87214172D01*
X183561095Y-87213757D01*
X183544836Y-87212527D01*
X183528808Y-87210501D01*
X183513032Y-87207699D01*
X183497528Y-87204140D01*
X183482318Y-87199846D01*
X183467421Y-87194834D01*
X183452857Y-87189127D01*
X183438648Y-87182743D01*
X183424814Y-87175701D01*
X183411374Y-87168023D01*
X183398350Y-87159728D01*
X183385763Y-87150836D01*
X183373631Y-87141366D01*
X183361977Y-87131338D01*
X183350819Y-87120773D01*
X183340180Y-87109690D01*
X183330079Y-87098109D01*
X183320537Y-87086050D01*
X183311573Y-87073533D01*
X183303209Y-87060578D01*
X183295466Y-87047204D01*
X183288362Y-87033431D01*
X183281920Y-87019280D01*
X183276159Y-87004770D01*
X183271100Y-86989921D01*
X183266763Y-86974752D01*
X183263169Y-86959285D01*
X183260338Y-86943538D01*
X183258290Y-86927531D01*
X183257047Y-86911285D01*
X183256627Y-86894818D01*
X183257051Y-86878487D01*
X183258307Y-86862350D01*
X183260376Y-86846427D01*
X183263234Y-86830740D01*
X183266861Y-86815310D01*
X183271236Y-86800159D01*
X183276337Y-86785308D01*
X183282143Y-86770778D01*
X183288633Y-86756591D01*
X183295785Y-86742768D01*
X183303579Y-86729330D01*
X183311992Y-86716299D01*
X183321003Y-86703696D01*
X183330592Y-86691541D01*
X183340736Y-86679858D01*
X183351415Y-86668666D01*
X183362606Y-86657987D01*
X183374290Y-86647843D01*
X183386444Y-86638255D01*
X183399048Y-86629243D01*
X183412079Y-86620830D01*
X183425517Y-86613037D01*
X183439340Y-86605885D01*
X183453527Y-86599395D01*
X183468056Y-86593589D01*
X183482907Y-86588488D01*
X183498058Y-86584113D01*
X183513488Y-86580486D01*
X183529174Y-86577627D01*
X183545097Y-86575559D01*
X183561235Y-86574303D01*
X183577566Y-86573879D01*
X183593757Y-86574307D01*
G37*
X183593757Y-86574307D02*
X183609773Y-86575577D01*
X183625590Y-86577665D01*
X183641188Y-86580551D01*
X183656544Y-86584211D01*
X183671635Y-86588624D01*
X183686440Y-86593767D01*
X183700935Y-86599618D01*
X183715100Y-86606156D01*
X183728912Y-86613357D01*
X183742348Y-86621200D01*
X183755387Y-86629662D01*
X183768006Y-86638722D01*
X183780184Y-86648356D01*
X183791897Y-86658544D01*
X183803123Y-86669262D01*
X183813842Y-86680488D01*
X183824029Y-86692201D01*
X183833664Y-86704378D01*
X183842724Y-86716997D01*
X183851186Y-86730036D01*
X183859029Y-86743472D01*
X183866230Y-86757284D01*
X183872768Y-86771449D01*
X183878619Y-86785944D01*
X183883763Y-86800749D01*
X183888176Y-86815840D01*
X183891836Y-86831196D01*
X183894721Y-86846793D01*
X183896810Y-86862611D01*
X183898079Y-86878627D01*
X183898507Y-86894818D01*
X183898084Y-86911145D01*
X183896827Y-86927270D01*
X183894759Y-86943171D01*
X183891901Y-86958829D01*
X183888274Y-86974223D01*
X183883899Y-86989332D01*
X183878798Y-87004135D01*
X183872992Y-87018611D01*
X183866502Y-87032740D01*
X183859349Y-87046501D01*
X183851556Y-87059874D01*
X183843143Y-87072836D01*
X183834132Y-87085369D01*
X183824543Y-87097451D01*
X183814399Y-87109061D01*
X183803720Y-87120178D01*
X183792528Y-87130783D01*
X183780844Y-87140853D01*
X183768690Y-87150369D01*
X183756086Y-87159310D01*
X183743055Y-87167654D01*
X183729617Y-87175382D01*
X183715794Y-87182472D01*
X183701607Y-87188904D01*
X183687077Y-87194657D01*
X183672226Y-87199710D01*
X183657075Y-87204042D01*
X183641645Y-87207633D01*
X183625958Y-87210463D01*
X183610035Y-87212509D01*
X183593897Y-87213753D01*
X183577566Y-87214172D01*
X183561095Y-87213757D01*
X183544836Y-87212527D01*
X183528808Y-87210501D01*
X183513032Y-87207699D01*
X183497528Y-87204140D01*
X183482318Y-87199846D01*
X183467421Y-87194834D01*
X183452857Y-87189127D01*
X183438648Y-87182743D01*
X183424814Y-87175701D01*
X183411374Y-87168023D01*
X183398350Y-87159728D01*
X183385763Y-87150836D01*
X183373631Y-87141366D01*
X183361977Y-87131338D01*
X183350819Y-87120773D01*
X183340180Y-87109690D01*
X183330079Y-87098109D01*
X183320537Y-87086050D01*
X183311573Y-87073533D01*
X183303209Y-87060578D01*
X183295466Y-87047204D01*
X183288362Y-87033431D01*
X183281920Y-87019280D01*
X183276159Y-87004770D01*
X183271100Y-86989921D01*
X183266763Y-86974752D01*
X183263169Y-86959285D01*
X183260338Y-86943538D01*
X183258290Y-86927531D01*
X183257047Y-86911285D01*
X183256627Y-86894818D01*
X183257051Y-86878487D01*
X183258307Y-86862350D01*
X183260376Y-86846427D01*
X183263234Y-86830740D01*
X183266861Y-86815310D01*
X183271236Y-86800159D01*
X183276337Y-86785308D01*
X183282143Y-86770778D01*
X183288633Y-86756591D01*
X183295785Y-86742768D01*
X183303579Y-86729330D01*
X183311992Y-86716299D01*
X183321003Y-86703696D01*
X183330592Y-86691541D01*
X183340736Y-86679858D01*
X183351415Y-86668666D01*
X183362606Y-86657987D01*
X183374290Y-86647843D01*
X183386444Y-86638255D01*
X183399048Y-86629243D01*
X183412079Y-86620830D01*
X183425517Y-86613037D01*
X183439340Y-86605885D01*
X183453527Y-86599395D01*
X183468056Y-86593589D01*
X183482907Y-86588488D01*
X183498058Y-86584113D01*
X183513488Y-86580486D01*
X183529174Y-86577627D01*
X183545097Y-86575559D01*
X183561235Y-86574303D01*
X183577566Y-86573879D01*
X183593757Y-86574307D01*
G36*
X180770074Y-86087047D02*
G01*
X181411954Y-84635807D01*
X181949853Y-84635807D01*
X180780923Y-87196974D01*
X180762399Y-87196974D01*
X179597970Y-84635807D01*
X180129785Y-84635807D01*
X180770074Y-86087047D01*
G37*
X180770074Y-86087047D02*
X181411954Y-84635807D01*
X181949853Y-84635807D01*
X180780923Y-87196974D01*
X180762399Y-87196974D01*
X179597970Y-84635807D01*
X180129785Y-84635807D01*
X180770074Y-86087047D01*
G36*
X171277620Y-84573629D02*
G01*
X172473009Y-87134796D01*
X171928760Y-87134796D01*
X171770538Y-86786076D01*
X170770679Y-86786076D01*
X170610872Y-87134796D01*
X170068210Y-87134796D01*
X170430296Y-86357980D01*
X170965940Y-86357980D01*
X171575277Y-86357980D01*
X171271533Y-85689906D01*
X171271270Y-85689906D01*
X170965940Y-86357980D01*
X170430296Y-86357980D01*
X171262010Y-84573629D01*
X171277620Y-84573629D01*
G37*
X171277620Y-84573629D02*
X172473009Y-87134796D01*
X171928760Y-87134796D01*
X171770538Y-86786076D01*
X170770679Y-86786076D01*
X170610872Y-87134796D01*
X170068210Y-87134796D01*
X170430296Y-86357980D01*
X170965940Y-86357980D01*
X171575277Y-86357980D01*
X171271533Y-85689906D01*
X171271270Y-85689906D01*
X170965940Y-86357980D01*
X170430296Y-86357980D01*
X171262010Y-84573629D01*
X171277620Y-84573629D01*
G36*
X186849459Y-86574307D02*
G01*
X186865475Y-86575577D01*
X186881292Y-86577665D01*
X186896890Y-86580551D01*
X186912245Y-86584211D01*
X186927336Y-86588624D01*
X186942141Y-86593767D01*
X186956636Y-86599618D01*
X186970801Y-86606156D01*
X186984612Y-86613357D01*
X186998049Y-86621200D01*
X187011087Y-86629662D01*
X187023706Y-86638722D01*
X187035883Y-86648356D01*
X187047596Y-86658544D01*
X187058823Y-86669262D01*
X187069541Y-86680488D01*
X187079729Y-86692201D01*
X187089363Y-86704378D01*
X187098423Y-86716997D01*
X187106885Y-86730036D01*
X187114728Y-86743472D01*
X187121930Y-86757284D01*
X187128467Y-86771449D01*
X187134319Y-86785944D01*
X187139462Y-86800749D01*
X187143875Y-86815840D01*
X187147535Y-86831196D01*
X187150421Y-86846793D01*
X187152509Y-86862611D01*
X187153779Y-86878627D01*
X187154207Y-86894818D01*
X187153783Y-86911145D01*
X187152527Y-86927270D01*
X187150459Y-86943171D01*
X187147600Y-86958829D01*
X187143973Y-86974223D01*
X187139598Y-86989332D01*
X187134497Y-87004135D01*
X187128691Y-87018611D01*
X187122201Y-87032740D01*
X187115049Y-87046501D01*
X187107255Y-87059874D01*
X187098842Y-87072836D01*
X187089831Y-87085369D01*
X187080243Y-87097451D01*
X187070098Y-87109061D01*
X187059420Y-87120178D01*
X187048228Y-87130783D01*
X187036544Y-87140853D01*
X187024390Y-87150369D01*
X187011786Y-87159310D01*
X186998755Y-87167654D01*
X186985317Y-87175382D01*
X186971494Y-87182472D01*
X186957307Y-87188904D01*
X186942778Y-87194657D01*
X186927927Y-87199710D01*
X186912776Y-87204042D01*
X186897347Y-87207633D01*
X186881660Y-87210463D01*
X186865737Y-87212509D01*
X186849599Y-87213753D01*
X186833269Y-87214172D01*
X186816798Y-87213757D01*
X186800538Y-87212527D01*
X186784510Y-87210501D01*
X186768734Y-87207699D01*
X186753230Y-87204140D01*
X186738019Y-87199846D01*
X186723122Y-87194834D01*
X186708558Y-87189127D01*
X186694349Y-87182743D01*
X186680514Y-87175701D01*
X186667074Y-87168023D01*
X186654050Y-87159728D01*
X186641462Y-87150836D01*
X186629331Y-87141366D01*
X186617676Y-87131338D01*
X186606519Y-87120773D01*
X186595880Y-87109690D01*
X186585778Y-87098109D01*
X186576236Y-87086050D01*
X186567273Y-87073533D01*
X186558909Y-87060578D01*
X186551165Y-87047204D01*
X186544062Y-87033431D01*
X186537619Y-87019280D01*
X186531858Y-87004770D01*
X186526799Y-86989921D01*
X186522462Y-86974752D01*
X186518868Y-86959285D01*
X186516037Y-86943538D01*
X186513989Y-86927531D01*
X186512746Y-86911285D01*
X186512327Y-86894818D01*
X186512750Y-86878487D01*
X186514007Y-86862350D01*
X186516075Y-86846427D01*
X186518933Y-86830740D01*
X186522560Y-86815310D01*
X186526935Y-86800159D01*
X186532036Y-86785308D01*
X186537843Y-86770778D01*
X186544332Y-86756591D01*
X186551485Y-86742768D01*
X186559278Y-86729330D01*
X186567691Y-86716299D01*
X186576702Y-86703696D01*
X186586291Y-86691541D01*
X186596435Y-86679858D01*
X186607114Y-86668666D01*
X186618306Y-86657987D01*
X186629990Y-86647843D01*
X186642144Y-86638255D01*
X186654748Y-86629243D01*
X186667779Y-86620830D01*
X186681217Y-86613037D01*
X186695040Y-86605885D01*
X186709228Y-86599395D01*
X186723757Y-86593589D01*
X186738608Y-86588488D01*
X186753759Y-86584113D01*
X186769189Y-86580486D01*
X186784876Y-86577627D01*
X186800799Y-86575559D01*
X186816937Y-86574303D01*
X186833269Y-86573879D01*
X186849459Y-86574307D01*
G37*
X186849459Y-86574307D02*
X186865475Y-86575577D01*
X186881292Y-86577665D01*
X186896890Y-86580551D01*
X186912245Y-86584211D01*
X186927336Y-86588624D01*
X186942141Y-86593767D01*
X186956636Y-86599618D01*
X186970801Y-86606156D01*
X186984612Y-86613357D01*
X186998049Y-86621200D01*
X187011087Y-86629662D01*
X187023706Y-86638722D01*
X187035883Y-86648356D01*
X187047596Y-86658544D01*
X187058823Y-86669262D01*
X187069541Y-86680488D01*
X187079729Y-86692201D01*
X187089363Y-86704378D01*
X187098423Y-86716997D01*
X187106885Y-86730036D01*
X187114728Y-86743472D01*
X187121930Y-86757284D01*
X187128467Y-86771449D01*
X187134319Y-86785944D01*
X187139462Y-86800749D01*
X187143875Y-86815840D01*
X187147535Y-86831196D01*
X187150421Y-86846793D01*
X187152509Y-86862611D01*
X187153779Y-86878627D01*
X187154207Y-86894818D01*
X187153783Y-86911145D01*
X187152527Y-86927270D01*
X187150459Y-86943171D01*
X187147600Y-86958829D01*
X187143973Y-86974223D01*
X187139598Y-86989332D01*
X187134497Y-87004135D01*
X187128691Y-87018611D01*
X187122201Y-87032740D01*
X187115049Y-87046501D01*
X187107255Y-87059874D01*
X187098842Y-87072836D01*
X187089831Y-87085369D01*
X187080243Y-87097451D01*
X187070098Y-87109061D01*
X187059420Y-87120178D01*
X187048228Y-87130783D01*
X187036544Y-87140853D01*
X187024390Y-87150369D01*
X187011786Y-87159310D01*
X186998755Y-87167654D01*
X186985317Y-87175382D01*
X186971494Y-87182472D01*
X186957307Y-87188904D01*
X186942778Y-87194657D01*
X186927927Y-87199710D01*
X186912776Y-87204042D01*
X186897347Y-87207633D01*
X186881660Y-87210463D01*
X186865737Y-87212509D01*
X186849599Y-87213753D01*
X186833269Y-87214172D01*
X186816798Y-87213757D01*
X186800538Y-87212527D01*
X186784510Y-87210501D01*
X186768734Y-87207699D01*
X186753230Y-87204140D01*
X186738019Y-87199846D01*
X186723122Y-87194834D01*
X186708558Y-87189127D01*
X186694349Y-87182743D01*
X186680514Y-87175701D01*
X186667074Y-87168023D01*
X186654050Y-87159728D01*
X186641462Y-87150836D01*
X186629331Y-87141366D01*
X186617676Y-87131338D01*
X186606519Y-87120773D01*
X186595880Y-87109690D01*
X186585778Y-87098109D01*
X186576236Y-87086050D01*
X186567273Y-87073533D01*
X186558909Y-87060578D01*
X186551165Y-87047204D01*
X186544062Y-87033431D01*
X186537619Y-87019280D01*
X186531858Y-87004770D01*
X186526799Y-86989921D01*
X186522462Y-86974752D01*
X186518868Y-86959285D01*
X186516037Y-86943538D01*
X186513989Y-86927531D01*
X186512746Y-86911285D01*
X186512327Y-86894818D01*
X186512750Y-86878487D01*
X186514007Y-86862350D01*
X186516075Y-86846427D01*
X186518933Y-86830740D01*
X186522560Y-86815310D01*
X186526935Y-86800159D01*
X186532036Y-86785308D01*
X186537843Y-86770778D01*
X186544332Y-86756591D01*
X186551485Y-86742768D01*
X186559278Y-86729330D01*
X186567691Y-86716299D01*
X186576702Y-86703696D01*
X186586291Y-86691541D01*
X186596435Y-86679858D01*
X186607114Y-86668666D01*
X186618306Y-86657987D01*
X186629990Y-86647843D01*
X186642144Y-86638255D01*
X186654748Y-86629243D01*
X186667779Y-86620830D01*
X186681217Y-86613037D01*
X186695040Y-86605885D01*
X186709228Y-86599395D01*
X186723757Y-86593589D01*
X186738608Y-86588488D01*
X186753759Y-86584113D01*
X186769189Y-86580486D01*
X186784876Y-86577627D01*
X186800799Y-86575559D01*
X186816937Y-86574303D01*
X186833269Y-86573879D01*
X186849459Y-86574307D01*
G36*
X190574743Y-88313780D02*
G01*
X190574743Y-89072604D01*
X189570119Y-89072604D01*
X189570119Y-89296441D01*
X190432130Y-89296441D01*
X190432130Y-90061882D01*
X189570119Y-90061882D01*
X189570119Y-90313500D01*
X190574743Y-90313500D01*
X190574743Y-91077353D01*
X188803354Y-91077353D01*
X188803354Y-90813034D01*
X189067937Y-90813034D01*
X190310159Y-90813034D01*
X190310159Y-90578348D01*
X189305536Y-90578348D01*
X189305536Y-89797564D01*
X190167547Y-89797564D01*
X190167547Y-89561555D01*
X189305536Y-89561555D01*
X189305536Y-88808550D01*
X190310159Y-88808550D01*
X190310159Y-88578628D01*
X189067937Y-88578628D01*
X189067937Y-90813034D01*
X188803354Y-90813034D01*
X188803354Y-88313780D01*
X190574743Y-88313780D01*
G37*
X190574743Y-88313780D02*
X190574743Y-89072604D01*
X189570119Y-89072604D01*
X189570119Y-89296441D01*
X190432130Y-89296441D01*
X190432130Y-90061882D01*
X189570119Y-90061882D01*
X189570119Y-90313500D01*
X190574743Y-90313500D01*
X190574743Y-91077353D01*
X188803354Y-91077353D01*
X188803354Y-90813034D01*
X189067937Y-90813034D01*
X190310159Y-90813034D01*
X190310159Y-90578348D01*
X189305536Y-90578348D01*
X189305536Y-89797564D01*
X190167547Y-89797564D01*
X190167547Y-89561555D01*
X189305536Y-89561555D01*
X189305536Y-88808550D01*
X190310159Y-88808550D01*
X190310159Y-88578628D01*
X189067937Y-88578628D01*
X189067937Y-90813034D01*
X188803354Y-90813034D01*
X188803354Y-88313780D01*
X190574743Y-88313780D01*
D11*
%TO.C,H5*%
X168148095Y-73752380D02*
X168148095Y-72752380D01*
X168148095Y-73228571D02*
X168719523Y-73228571D01*
X168719523Y-73752380D02*
X168719523Y-72752380D01*
X169671904Y-72752380D02*
X169195714Y-72752380D01*
X169148095Y-73228571D01*
X169195714Y-73180952D01*
X169290952Y-73133333D01*
X169529047Y-73133333D01*
X169624285Y-73180952D01*
X169671904Y-73228571D01*
X169719523Y-73323809D01*
X169719523Y-73561904D01*
X169671904Y-73657142D01*
X169624285Y-73704761D01*
X169529047Y-73752380D01*
X169290952Y-73752380D01*
X169195714Y-73704761D01*
X169148095Y-73657142D01*
%TO.C,H4*%
X195147380Y-80136904D02*
X194147380Y-80136904D01*
X194623571Y-80136904D02*
X194623571Y-79565476D01*
X195147380Y-79565476D02*
X194147380Y-79565476D01*
X194480714Y-78660714D02*
X195147380Y-78660714D01*
X194099761Y-78898809D02*
X194814047Y-79136904D01*
X194814047Y-78517857D01*
%TO.C,Select1*%
X193544761Y-94344761D02*
X193687619Y-94392380D01*
X193925714Y-94392380D01*
X194020952Y-94344761D01*
X194068571Y-94297142D01*
X194116190Y-94201904D01*
X194116190Y-94106666D01*
X194068571Y-94011428D01*
X194020952Y-93963809D01*
X193925714Y-93916190D01*
X193735238Y-93868571D01*
X193640000Y-93820952D01*
X193592380Y-93773333D01*
X193544761Y-93678095D01*
X193544761Y-93582857D01*
X193592380Y-93487619D01*
X193640000Y-93440000D01*
X193735238Y-93392380D01*
X193973333Y-93392380D01*
X194116190Y-93440000D01*
X194925714Y-94344761D02*
X194830476Y-94392380D01*
X194640000Y-94392380D01*
X194544761Y-94344761D01*
X194497142Y-94249523D01*
X194497142Y-93868571D01*
X194544761Y-93773333D01*
X194640000Y-93725714D01*
X194830476Y-93725714D01*
X194925714Y-93773333D01*
X194973333Y-93868571D01*
X194973333Y-93963809D01*
X194497142Y-94059047D01*
X195544761Y-94392380D02*
X195449523Y-94344761D01*
X195401904Y-94249523D01*
X195401904Y-93392380D01*
X196306666Y-94344761D02*
X196211428Y-94392380D01*
X196020952Y-94392380D01*
X195925714Y-94344761D01*
X195878095Y-94249523D01*
X195878095Y-93868571D01*
X195925714Y-93773333D01*
X196020952Y-93725714D01*
X196211428Y-93725714D01*
X196306666Y-93773333D01*
X196354285Y-93868571D01*
X196354285Y-93963809D01*
X195878095Y-94059047D01*
X197211428Y-94344761D02*
X197116190Y-94392380D01*
X196925714Y-94392380D01*
X196830476Y-94344761D01*
X196782857Y-94297142D01*
X196735238Y-94201904D01*
X196735238Y-93916190D01*
X196782857Y-93820952D01*
X196830476Y-93773333D01*
X196925714Y-93725714D01*
X197116190Y-93725714D01*
X197211428Y-93773333D01*
X197497142Y-93725714D02*
X197878095Y-93725714D01*
X197640000Y-93392380D02*
X197640000Y-94249523D01*
X197687619Y-94344761D01*
X197782857Y-94392380D01*
X197878095Y-94392380D01*
X198735238Y-94392380D02*
X198163809Y-94392380D01*
X198449523Y-94392380D02*
X198449523Y-93392380D01*
X198354285Y-93535238D01*
X198259047Y-93630476D01*
X198163809Y-93678095D01*
%TO.C,S1*%
X163068095Y-94174761D02*
X163210952Y-94222380D01*
X163449047Y-94222380D01*
X163544285Y-94174761D01*
X163591904Y-94127142D01*
X163639523Y-94031904D01*
X163639523Y-93936666D01*
X163591904Y-93841428D01*
X163544285Y-93793809D01*
X163449047Y-93746190D01*
X163258571Y-93698571D01*
X163163333Y-93650952D01*
X163115714Y-93603333D01*
X163068095Y-93508095D01*
X163068095Y-93412857D01*
X163115714Y-93317619D01*
X163163333Y-93270000D01*
X163258571Y-93222380D01*
X163496666Y-93222380D01*
X163639523Y-93270000D01*
X164591904Y-94222380D02*
X164020476Y-94222380D01*
X164306190Y-94222380D02*
X164306190Y-93222380D01*
X164210952Y-93365238D01*
X164115714Y-93460476D01*
X164020476Y-93508095D01*
%TO.C,H2*%
X154507380Y-80136904D02*
X153507380Y-80136904D01*
X153983571Y-80136904D02*
X153983571Y-79565476D01*
X154507380Y-79565476D02*
X153507380Y-79565476D01*
X153602619Y-79136904D02*
X153555000Y-79089285D01*
X153507380Y-78994047D01*
X153507380Y-78755952D01*
X153555000Y-78660714D01*
X153602619Y-78613095D01*
X153697857Y-78565476D01*
X153793095Y-78565476D01*
X153935952Y-78613095D01*
X154507380Y-79184523D01*
X154507380Y-78565476D01*
%TO.C,H3*%
X174827380Y-80136904D02*
X173827380Y-80136904D01*
X174303571Y-80136904D02*
X174303571Y-79565476D01*
X174827380Y-79565476D02*
X173827380Y-79565476D01*
X173827380Y-79184523D02*
X173827380Y-78565476D01*
X174208333Y-78898809D01*
X174208333Y-78755952D01*
X174255952Y-78660714D01*
X174303571Y-78613095D01*
X174398809Y-78565476D01*
X174636904Y-78565476D01*
X174732142Y-78613095D01*
X174779761Y-78660714D01*
X174827380Y-78755952D01*
X174827380Y-79041666D01*
X174779761Y-79136904D01*
X174732142Y-79184523D01*
%TO.C,Up1*%
X183495714Y-93392380D02*
X183495714Y-94201904D01*
X183543333Y-94297142D01*
X183590952Y-94344761D01*
X183686190Y-94392380D01*
X183876666Y-94392380D01*
X183971904Y-94344761D01*
X184019523Y-94297142D01*
X184067142Y-94201904D01*
X184067142Y-93392380D01*
X184543333Y-93725714D02*
X184543333Y-94725714D01*
X184543333Y-93773333D02*
X184638571Y-93725714D01*
X184829047Y-93725714D01*
X184924285Y-93773333D01*
X184971904Y-93820952D01*
X185019523Y-93916190D01*
X185019523Y-94201904D01*
X184971904Y-94297142D01*
X184924285Y-94344761D01*
X184829047Y-94392380D01*
X184638571Y-94392380D01*
X184543333Y-94344761D01*
X185971904Y-94392380D02*
X185400476Y-94392380D01*
X185686190Y-94392380D02*
X185686190Y-93392380D01*
X185590952Y-93535238D01*
X185495714Y-93630476D01*
X185400476Y-93678095D01*
%TO.C,U1*%
X134620380Y-76637904D02*
X135429904Y-76637904D01*
X135525142Y-76590285D01*
X135572761Y-76542666D01*
X135620380Y-76447428D01*
X135620380Y-76256952D01*
X135572761Y-76161714D01*
X135525142Y-76114095D01*
X135429904Y-76066476D01*
X134620380Y-76066476D01*
X135620380Y-75066476D02*
X135620380Y-75637904D01*
X135620380Y-75352190D02*
X134620380Y-75352190D01*
X134763238Y-75447428D01*
X134858476Y-75542666D01*
X134906095Y-75637904D01*
%TO.C,Down1*%
X182543333Y-103227380D02*
X182543333Y-102227380D01*
X182781428Y-102227380D01*
X182924285Y-102275000D01*
X183019523Y-102370238D01*
X183067142Y-102465476D01*
X183114761Y-102655952D01*
X183114761Y-102798809D01*
X183067142Y-102989285D01*
X183019523Y-103084523D01*
X182924285Y-103179761D01*
X182781428Y-103227380D01*
X182543333Y-103227380D01*
X183686190Y-103227380D02*
X183590952Y-103179761D01*
X183543333Y-103132142D01*
X183495714Y-103036904D01*
X183495714Y-102751190D01*
X183543333Y-102655952D01*
X183590952Y-102608333D01*
X183686190Y-102560714D01*
X183829047Y-102560714D01*
X183924285Y-102608333D01*
X183971904Y-102655952D01*
X184019523Y-102751190D01*
X184019523Y-103036904D01*
X183971904Y-103132142D01*
X183924285Y-103179761D01*
X183829047Y-103227380D01*
X183686190Y-103227380D01*
X184352857Y-102560714D02*
X184543333Y-103227380D01*
X184733809Y-102751190D01*
X184924285Y-103227380D01*
X185114761Y-102560714D01*
X185495714Y-102560714D02*
X185495714Y-103227380D01*
X185495714Y-102655952D02*
X185543333Y-102608333D01*
X185638571Y-102560714D01*
X185781428Y-102560714D01*
X185876666Y-102608333D01*
X185924285Y-102703571D01*
X185924285Y-103227380D01*
X186924285Y-103227380D02*
X186352857Y-103227380D01*
X186638571Y-103227380D02*
X186638571Y-102227380D01*
X186543333Y-102370238D01*
X186448095Y-102465476D01*
X186352857Y-102513095D01*
%TO.C,U2*%
X155067380Y-76637904D02*
X155876904Y-76637904D01*
X155972142Y-76590285D01*
X156019761Y-76542666D01*
X156067380Y-76447428D01*
X156067380Y-76256952D01*
X156019761Y-76161714D01*
X155972142Y-76114095D01*
X155876904Y-76066476D01*
X155067380Y-76066476D01*
X155162619Y-75637904D02*
X155115000Y-75590285D01*
X155067380Y-75495047D01*
X155067380Y-75256952D01*
X155115000Y-75161714D01*
X155162619Y-75114095D01*
X155257857Y-75066476D01*
X155353095Y-75066476D01*
X155495952Y-75114095D01*
X156067380Y-75685523D01*
X156067380Y-75066476D01*
%TO.C,H7*%
X146558095Y-73752380D02*
X146558095Y-72752380D01*
X146558095Y-73228571D02*
X147129523Y-73228571D01*
X147129523Y-73752380D02*
X147129523Y-72752380D01*
X147510476Y-72752380D02*
X148177142Y-72752380D01*
X147748571Y-73752380D01*
%TO.C,H6*%
X188468095Y-73752380D02*
X188468095Y-72752380D01*
X188468095Y-73228571D02*
X189039523Y-73228571D01*
X189039523Y-73752380D02*
X189039523Y-72752380D01*
X189944285Y-72752380D02*
X189753809Y-72752380D01*
X189658571Y-72800000D01*
X189610952Y-72847619D01*
X189515714Y-72990476D01*
X189468095Y-73180952D01*
X189468095Y-73561904D01*
X189515714Y-73657142D01*
X189563333Y-73704761D01*
X189658571Y-73752380D01*
X189849047Y-73752380D01*
X189944285Y-73704761D01*
X189991904Y-73657142D01*
X190039523Y-73561904D01*
X190039523Y-73323809D01*
X189991904Y-73228571D01*
X189944285Y-73180952D01*
X189849047Y-73133333D01*
X189658571Y-73133333D01*
X189563333Y-73180952D01*
X189515714Y-73228571D01*
X189468095Y-73323809D01*
%TO.C,U4*%
X195707380Y-76637904D02*
X196516904Y-76637904D01*
X196612142Y-76590285D01*
X196659761Y-76542666D01*
X196707380Y-76447428D01*
X196707380Y-76256952D01*
X196659761Y-76161714D01*
X196612142Y-76114095D01*
X196516904Y-76066476D01*
X195707380Y-76066476D01*
X196040714Y-75161714D02*
X196707380Y-75161714D01*
X195659761Y-75399809D02*
X196374047Y-75637904D01*
X196374047Y-75018857D01*
%TO.C,U3*%
X175387380Y-76637904D02*
X176196904Y-76637904D01*
X176292142Y-76590285D01*
X176339761Y-76542666D01*
X176387380Y-76447428D01*
X176387380Y-76256952D01*
X176339761Y-76161714D01*
X176292142Y-76114095D01*
X176196904Y-76066476D01*
X175387380Y-76066476D01*
X175387380Y-75685523D02*
X175387380Y-75066476D01*
X175768333Y-75399809D01*
X175768333Y-75256952D01*
X175815952Y-75161714D01*
X175863571Y-75114095D01*
X175958809Y-75066476D01*
X176196904Y-75066476D01*
X176292142Y-75114095D01*
X176339761Y-75161714D01*
X176387380Y-75256952D01*
X176387380Y-75542666D01*
X176339761Y-75637904D01*
X176292142Y-75685523D01*
%TO.C,Start1*%
X194044761Y-103179761D02*
X194187619Y-103227380D01*
X194425714Y-103227380D01*
X194520952Y-103179761D01*
X194568571Y-103132142D01*
X194616190Y-103036904D01*
X194616190Y-102941666D01*
X194568571Y-102846428D01*
X194520952Y-102798809D01*
X194425714Y-102751190D01*
X194235238Y-102703571D01*
X194140000Y-102655952D01*
X194092380Y-102608333D01*
X194044761Y-102513095D01*
X194044761Y-102417857D01*
X194092380Y-102322619D01*
X194140000Y-102275000D01*
X194235238Y-102227380D01*
X194473333Y-102227380D01*
X194616190Y-102275000D01*
X194901904Y-102560714D02*
X195282857Y-102560714D01*
X195044761Y-102227380D02*
X195044761Y-103084523D01*
X195092380Y-103179761D01*
X195187619Y-103227380D01*
X195282857Y-103227380D01*
X196044761Y-103227380D02*
X196044761Y-102703571D01*
X195997142Y-102608333D01*
X195901904Y-102560714D01*
X195711428Y-102560714D01*
X195616190Y-102608333D01*
X196044761Y-103179761D02*
X195949523Y-103227380D01*
X195711428Y-103227380D01*
X195616190Y-103179761D01*
X195568571Y-103084523D01*
X195568571Y-102989285D01*
X195616190Y-102894047D01*
X195711428Y-102846428D01*
X195949523Y-102846428D01*
X196044761Y-102798809D01*
X196520952Y-103227380D02*
X196520952Y-102560714D01*
X196520952Y-102751190D02*
X196568571Y-102655952D01*
X196616190Y-102608333D01*
X196711428Y-102560714D01*
X196806666Y-102560714D01*
X196997142Y-102560714D02*
X197378095Y-102560714D01*
X197140000Y-102227380D02*
X197140000Y-103084523D01*
X197187619Y-103179761D01*
X197282857Y-103227380D01*
X197378095Y-103227380D01*
X198235238Y-103227380D02*
X197663809Y-103227380D01*
X197949523Y-103227380D02*
X197949523Y-102227380D01*
X197854285Y-102370238D01*
X197759047Y-102465476D01*
X197663809Y-102513095D01*
%TO.C,H1*%
X134092380Y-80136904D02*
X133092380Y-80136904D01*
X133568571Y-80136904D02*
X133568571Y-79565476D01*
X134092380Y-79565476D02*
X133092380Y-79565476D01*
X134092380Y-78565476D02*
X134092380Y-79136904D01*
X134092380Y-78851190D02*
X133092380Y-78851190D01*
X133235238Y-78946428D01*
X133330476Y-79041666D01*
X133378095Y-79136904D01*
%TO.C,U5*%
X161587380Y-97281904D02*
X162396904Y-97281904D01*
X162492142Y-97234285D01*
X162539761Y-97186666D01*
X162587380Y-97091428D01*
X162587380Y-96900952D01*
X162539761Y-96805714D01*
X162492142Y-96758095D01*
X162396904Y-96710476D01*
X161587380Y-96710476D01*
X161587380Y-95758095D02*
X161587380Y-96234285D01*
X162063571Y-96281904D01*
X162015952Y-96234285D01*
X161968333Y-96139047D01*
X161968333Y-95900952D01*
X162015952Y-95805714D01*
X162063571Y-95758095D01*
X162158809Y-95710476D01*
X162396904Y-95710476D01*
X162492142Y-95758095D01*
X162539761Y-95805714D01*
X162587380Y-95900952D01*
X162587380Y-96139047D01*
X162539761Y-96234285D01*
X162492142Y-96281904D01*
%TO.C,U6*%
X147828095Y-80232380D02*
X147828095Y-81041904D01*
X147875714Y-81137142D01*
X147923333Y-81184761D01*
X148018571Y-81232380D01*
X148209047Y-81232380D01*
X148304285Y-81184761D01*
X148351904Y-81137142D01*
X148399523Y-81041904D01*
X148399523Y-80232380D01*
X149304285Y-80232380D02*
X149113809Y-80232380D01*
X149018571Y-80280000D01*
X148970952Y-80327619D01*
X148875714Y-80470476D01*
X148828095Y-80660952D01*
X148828095Y-81041904D01*
X148875714Y-81137142D01*
X148923333Y-81184761D01*
X149018571Y-81232380D01*
X149209047Y-81232380D01*
X149304285Y-81184761D01*
X149351904Y-81137142D01*
X149399523Y-81041904D01*
X149399523Y-80803809D01*
X149351904Y-80708571D01*
X149304285Y-80660952D01*
X149209047Y-80613333D01*
X149018571Y-80613333D01*
X148923333Y-80660952D01*
X148875714Y-80708571D01*
X148828095Y-80803809D01*
D12*
%TO.C,H4*%
X197755000Y-80435000D02*
X197755000Y-78315000D01*
X201815000Y-80435000D02*
X201815000Y-78315000D01*
X197755000Y-80435000D02*
X201815000Y-80435000D01*
X195695000Y-80435000D02*
X195695000Y-79375000D01*
X197755000Y-78315000D02*
X201815000Y-78315000D01*
X196755000Y-80435000D02*
X195695000Y-80435000D01*
%TO.C,Select1*%
X192640000Y-97440000D02*
X192640000Y-98940000D01*
X193890000Y-101440000D02*
X198390000Y-101440000D01*
X199640000Y-98940000D02*
X199640000Y-97440000D01*
X198390000Y-94940000D02*
X193890000Y-94940000D01*
%TO.C,S1*%
X162500000Y-90170000D02*
X162500000Y-82490000D01*
X165160000Y-90170000D02*
X165160000Y-82490000D01*
X165160000Y-90170000D02*
X162500000Y-90170000D01*
X165160000Y-82490000D02*
X162500000Y-82490000D01*
X165160000Y-92770000D02*
X163830000Y-92770000D01*
X165160000Y-91440000D02*
X165160000Y-92770000D01*
%TO.C,H2*%
X156115000Y-80435000D02*
X155055000Y-80435000D01*
X157115000Y-80435000D02*
X157115000Y-78315000D01*
X157115000Y-78315000D02*
X161175000Y-78315000D01*
X161175000Y-80435000D02*
X161175000Y-78315000D01*
X155055000Y-80435000D02*
X155055000Y-79375000D01*
X157115000Y-80435000D02*
X161175000Y-80435000D01*
%TO.C,H3*%
X177435000Y-80435000D02*
X177435000Y-78315000D01*
X175375000Y-80435000D02*
X175375000Y-79375000D01*
X181495000Y-80435000D02*
X181495000Y-78315000D01*
X176435000Y-80435000D02*
X175375000Y-80435000D01*
X177435000Y-80435000D02*
X181495000Y-80435000D01*
X177435000Y-78315000D02*
X181495000Y-78315000D01*
%TO.C,Up1*%
X181210000Y-97440000D02*
X181210000Y-98940000D01*
X182460000Y-101440000D02*
X186960000Y-101440000D01*
X188210000Y-98940000D02*
X188210000Y-97440000D01*
X186960000Y-94940000D02*
X182460000Y-94940000D01*
%TO.C,U1*%
X138368000Y-74801000D02*
X139278000Y-74801000D01*
X136058000Y-77376000D02*
X136058000Y-74801000D01*
X136058000Y-74801000D02*
X136968000Y-74801000D01*
X139278000Y-76951000D02*
X139278000Y-74801000D01*
%TO.C,Down1*%
X188210000Y-107775000D02*
X188210000Y-106275000D01*
X186960000Y-103775000D02*
X182460000Y-103775000D01*
X182460000Y-110275000D02*
X186960000Y-110275000D01*
X181210000Y-106275000D02*
X181210000Y-107775000D01*
%TO.C,U2*%
X156505000Y-74801000D02*
X157415000Y-74801000D01*
X158815000Y-74801000D02*
X159725000Y-74801000D01*
X159725000Y-76951000D02*
X159725000Y-74801000D01*
X156505000Y-77376000D02*
X156505000Y-74801000D01*
%TO.C,U4*%
X197145000Y-74801000D02*
X198055000Y-74801000D01*
X197145000Y-77376000D02*
X197145000Y-74801000D01*
X200365000Y-76951000D02*
X200365000Y-74801000D01*
X199455000Y-74801000D02*
X200365000Y-74801000D01*
%TO.C,U3*%
X180045000Y-76951000D02*
X180045000Y-74801000D01*
X176825000Y-77376000D02*
X176825000Y-74801000D01*
X176825000Y-74801000D02*
X177735000Y-74801000D01*
X179135000Y-74801000D02*
X180045000Y-74801000D01*
%TO.C,Start1*%
X199640000Y-107775000D02*
X199640000Y-106275000D01*
X193890000Y-110275000D02*
X198390000Y-110275000D01*
X192640000Y-106275000D02*
X192640000Y-107775000D01*
X198390000Y-103775000D02*
X193890000Y-103775000D01*
%TO.C,H1*%
X136700000Y-80435000D02*
X136700000Y-78315000D01*
X140760000Y-80435000D02*
X140760000Y-78315000D01*
X134640000Y-80435000D02*
X134640000Y-79375000D01*
X136700000Y-78315000D02*
X140760000Y-78315000D01*
X135700000Y-80435000D02*
X134640000Y-80435000D01*
X136700000Y-80435000D02*
X140760000Y-80435000D01*
%TO.C,U5*%
X178495000Y-97850000D02*
X178495000Y-95190000D01*
X165735000Y-95190000D02*
X178495000Y-95190000D01*
X164465000Y-97850000D02*
X163135000Y-97850000D01*
X165735000Y-97850000D02*
X178495000Y-97850000D01*
X163135000Y-97850000D02*
X163135000Y-96520000D01*
X165735000Y-97850000D02*
X165735000Y-95190000D01*
%TO.C,U6*%
X160020000Y-87630000D02*
X160020000Y-119380000D01*
X137160000Y-113030000D02*
X134620000Y-111760000D01*
X160020000Y-119380000D02*
X137160000Y-119380000D01*
X137160000Y-119380000D02*
X137160000Y-113030000D01*
X134620000Y-111760000D02*
X134620000Y-87630000D01*
X137160000Y-85090000D02*
X157480000Y-85090000D01*
X160020000Y-87630000D02*
G75*
G03*
X157480000Y-85090000I-2540000J0D01*
G01*
X137160000Y-85090000D02*
G75*
G03*
X134620000Y-87630000I1J-2540001D01*
G01*
%TD*%
M02*
