M48
; DRILL file {KiCad (6.0.7)} date Fri Feb  3 07:15:42 2023
; FORMAT={-:-/ absolute / inch / decimal}
; #@! TF.CreationDate,2023-02-03T07:15:42-06:00
; #@! TF.GenerationSoftware,Kicad,Pcbnew,(6.0.7)
; #@! TF.FileFunction,Plated,1,2,PTH
FMAT,2
INCH
; #@! TA.AperFunction,Plated,PTH,ViaDrill
T1C0.0157
; #@! TA.AperFunction,Plated,PTH,ComponentDrill
T2C0.0300
; #@! TA.AperFunction,Plated,PTH,ComponentDrill
T3C0.0315
; #@! TA.AperFunction,Plated,PTH,ComponentDrill
T4C0.0394
; #@! TA.AperFunction,Plated,PTH,ComponentDrill
T5C0.0433
; #@! TA.AperFunction,Plated,PTH,ComponentDrill
T6C0.0866
%
G90
G05
T1
X5.6Y-4.35
X5.625Y-2.95
X6.0Y-2.95
X6.0Y-3.8
X6.475Y-3.0
X6.6Y-3.625
X6.7Y-4.1
X6.7Y-4.3
X7.275Y-2.975
X7.275Y-3.625
X7.55Y-3.625
T2
X5.35Y-3.65
X5.35Y-3.75
X5.35Y-3.85
X5.35Y-3.95
X5.35Y-4.05
X5.35Y-4.15
X5.35Y-4.25
X5.35Y-4.35
X5.45Y-3.65
X5.45Y-3.75
X5.45Y-3.85
X5.45Y-3.95
X5.45Y-4.05
X5.45Y-4.15
X5.45Y-4.25
X5.45Y-4.35
X6.15Y-3.65
X6.15Y-3.75
X6.15Y-3.85
X6.15Y-3.95
X6.15Y-4.05
X6.15Y-4.15
X6.15Y-4.25
X6.15Y-4.35
X6.25Y-3.65
X6.25Y-3.75
X6.25Y-3.85
X6.25Y-3.95
X6.25Y-4.05
X6.25Y-4.15
X6.25Y-4.25
X6.25Y-4.35
T3
X5.3425Y-3.125
X5.4213Y-3.125
X5.5Y-3.125
X6.1463Y-3.125
X6.225Y-3.125
X6.3037Y-3.125
X6.9463Y-3.125
X7.025Y-3.125
X7.1037Y-3.125
X7.7463Y-3.125
X7.825Y-3.125
X7.9037Y-3.125
T4
X6.45Y-3.3
X6.45Y-3.4
X6.45Y-3.5
X6.45Y-3.6
X6.475Y-3.8
X6.575Y-3.8
X6.675Y-3.8
X6.775Y-3.8
X6.875Y-3.8
X6.975Y-3.8
X7.775Y-3.45
X7.775Y-3.55
T5
X7.1441Y-3.7772
X7.1441Y-3.9543
X7.1441Y-4.125
X7.1441Y-4.3022
X7.4Y-3.7772
X7.4Y-3.9543
X7.4Y-4.125
X7.4Y-4.3022
X7.5941Y-3.7772
X7.5941Y-3.9543
X7.5941Y-4.125
X7.5941Y-4.3022
X7.85Y-3.7772
X7.85Y-3.9543
X7.85Y-4.125
X7.85Y-4.3022
T6
X5.8Y-3.0
X6.65Y-3.0
X7.45Y-3.0
T0
M30
