%TF.GenerationSoftware,KiCad,Pcbnew,7.0.7*%
%TF.CreationDate,2024-04-17T16:10:39-05:00*%
%TF.ProjectId,OM-EPSC3-Micro,4f4d2d45-5053-4433-932d-4d6963726f2e,rev?*%
%TF.SameCoordinates,Original*%
%TF.FileFunction,Drillmap*%
%TF.FilePolarity,Positive*%
%FSLAX45Y45*%
G04 Gerber Fmt 4.5, Leading zero omitted, Abs format (unit mm)*
G04 Created by KiCad (PCBNEW 7.0.7) date 2024-04-17 16:10:39*
%MOMM*%
%LPD*%
G01*
G04 APERTURE LIST*
%ADD10C,0.003779*%
%ADD11C,0.200000*%
%ADD12C,0.076200*%
%ADD13C,0.100000*%
G04 APERTURE END LIST*
D10*
X22016500Y-10617700D02*
X22016500Y-10706100D01*
X21489500Y-9156100D02*
X21899100Y-9156100D01*
X22729000Y-10391100D02*
X22718300Y-10399384D01*
X21085000Y-9483500D02*
X21095100Y-9509100D01*
X22701500Y-10493600D02*
X22713500Y-10509100D01*
X21804000Y-10521100D02*
X21819500Y-10509100D01*
X21095100Y-14109100D02*
X21111300Y-14131400D01*
X23235000Y-9428700D02*
X23231500Y-9456100D01*
X21095100Y-9403100D02*
X21085000Y-9428700D01*
X22016500Y-13306100D02*
X22516500Y-13306100D01*
X21729000Y-13121100D02*
X21747100Y-13128500D01*
X21766500Y-10381100D02*
X21747100Y-10383700D01*
X20906200Y-9363400D02*
X20924200Y-9319900D01*
X23641500Y-10617700D02*
X23641500Y-12256100D01*
X21831500Y-10418600D02*
X21827087Y-10412900D01*
X21694300Y-10436211D02*
X21694100Y-10436700D01*
X21144600Y-14352400D02*
X21098800Y-14341400D01*
X21212100Y-9348000D02*
X21184600Y-9346300D01*
X23411600Y-14140900D02*
X23430500Y-14120800D01*
X21899100Y-9156100D02*
X22718300Y-9156100D01*
X21729000Y-12991100D02*
X21713500Y-13003100D01*
X23245100Y-9509100D02*
X23261300Y-9531400D01*
X23641500Y-12256100D02*
X23641500Y-13075300D01*
X23430500Y-13991400D02*
X23411600Y-13971300D01*
X23641500Y-13248368D02*
X23641500Y-13494166D01*
X23334600Y-9565900D02*
X23362100Y-9564200D01*
X23584200Y-14232400D02*
X23553600Y-14268200D01*
X23388300Y-9356600D02*
X23362100Y-9348000D01*
X21015200Y-14298800D02*
X20979400Y-14268200D01*
X21184600Y-9565900D02*
X21212100Y-9564200D01*
X21747100Y-12983700D02*
X21729000Y-12991100D01*
X23282600Y-9549000D02*
X23307500Y-9560700D01*
X21838900Y-10436700D02*
X21831500Y-10418600D01*
X22819500Y-13003100D02*
X22804000Y-12991100D01*
X22804000Y-10521100D02*
X22819500Y-10509100D01*
X21694073Y-13075300D02*
X21694100Y-13075500D01*
X21831500Y-13018600D02*
X21819500Y-13003100D01*
X23428149Y-9388900D02*
X23411600Y-9371300D01*
X21284700Y-9399042D02*
X21280500Y-9391400D01*
X20906200Y-14148800D02*
X20895200Y-14103000D01*
X21111300Y-9380800D02*
X21105416Y-9388900D01*
X23411600Y-9371300D02*
X23388300Y-9356600D01*
X21838927Y-13075300D02*
X21841500Y-13056100D01*
X23517800Y-9213400D02*
X23537500Y-9230239D01*
X21085000Y-14028700D02*
X21081500Y-14056100D01*
X23537500Y-9230239D02*
X23553600Y-9244000D01*
X23641500Y-14056100D02*
X23637800Y-14103000D01*
X23282600Y-13963200D02*
X23261300Y-13980800D01*
X21080277Y-9178465D02*
X21098800Y-9170800D01*
X23307500Y-9351500D02*
X23282600Y-9363200D01*
X22718300Y-10512816D02*
X22729000Y-10521100D01*
X21831500Y-13093600D02*
X21838900Y-13075500D01*
X21280500Y-9520800D02*
X21284700Y-9513158D01*
X23307500Y-9560700D02*
X23332700Y-9565536D01*
X23388300Y-13956599D02*
X23362100Y-13948000D01*
X21079900Y-9178621D02*
X21080277Y-9178465D01*
X20979400Y-14268200D02*
X20948800Y-14232400D01*
X22804000Y-13121100D02*
X22819500Y-13109100D01*
X20948800Y-14232400D02*
X20924200Y-14192300D01*
X21691500Y-13056100D02*
X21694073Y-13075300D01*
X21238300Y-9555600D02*
X21261600Y-9540900D01*
X21085000Y-14083500D02*
X21091234Y-14099300D01*
X23411600Y-13971300D02*
X23388300Y-13956599D01*
X23334600Y-14165900D02*
X23362100Y-14164200D01*
X23443800Y-14015600D02*
X23430500Y-13991400D01*
X21081500Y-14056100D02*
X21085000Y-14083500D01*
X22694100Y-10436700D02*
X22691500Y-10456100D01*
X22701500Y-13093600D02*
X22713500Y-13109100D01*
X21261600Y-9540900D02*
X21280500Y-9520800D01*
X22516500Y-13306100D02*
X22516500Y-13075300D01*
X23362100Y-13948000D02*
X23334600Y-13946300D01*
X22713500Y-13003100D02*
X22701500Y-13018600D01*
X21212100Y-14164200D02*
X21238300Y-14155600D01*
X21284700Y-13999042D02*
X21280500Y-13991400D01*
X22718300Y-9156100D02*
X23127900Y-9156100D01*
X21278149Y-9388900D02*
X21261600Y-9371300D01*
X21238300Y-14155600D02*
X21261600Y-14140900D01*
X20891500Y-10706100D02*
X20891500Y-10617700D01*
X23553600Y-9244000D02*
X23584200Y-9279800D01*
X21144600Y-9159800D02*
X21191500Y-9156100D01*
X21827087Y-10412900D02*
X21819500Y-10403100D01*
X23282600Y-14149000D02*
X23307500Y-14160700D01*
X21157500Y-9351500D02*
X21132600Y-9363200D01*
X22804000Y-10391100D02*
X22785900Y-10383700D01*
X21899100Y-14356100D02*
X21489500Y-14356100D01*
X22694100Y-10475500D02*
X22701500Y-10493600D01*
X23641500Y-13075300D02*
X23641500Y-13248368D01*
X21157500Y-13951500D02*
X21132600Y-13963200D01*
X22516500Y-10617700D02*
X22516500Y-10206100D01*
X21261600Y-9371300D02*
X21238300Y-9356600D01*
X21729000Y-10391100D02*
X21713500Y-10403100D01*
X23517800Y-14298800D02*
X23509160Y-14304100D01*
X21841500Y-13056100D02*
X21838900Y-13036700D01*
X21055300Y-14323400D02*
X21015200Y-14298800D01*
X23626800Y-14148800D02*
X23608800Y-14192300D01*
X22691500Y-10456100D02*
X22694100Y-10475500D01*
X23307500Y-14160700D02*
X23334600Y-14165900D01*
X23641500Y-13494166D02*
X23641500Y-13827551D01*
X23245100Y-9403100D02*
X23235000Y-9428700D01*
X22691500Y-13056100D02*
X22694073Y-13075300D01*
X21238300Y-9356600D02*
X21212100Y-9348000D01*
X22016500Y-10206100D02*
X22016500Y-10617700D01*
X21293800Y-9415600D02*
X21284700Y-9399042D01*
X21838900Y-13075500D02*
X21838927Y-13075300D01*
X21831500Y-10493600D02*
X21838900Y-10475500D01*
X23608800Y-9319900D02*
X23626800Y-9363400D01*
X23450600Y-9469900D02*
X23450600Y-9442300D01*
X22747100Y-12983700D02*
X22729000Y-12991100D01*
X23245100Y-14003100D02*
X23235000Y-14028700D01*
X23450600Y-9442300D02*
X23443800Y-9415600D01*
X20891500Y-10617700D02*
X20891500Y-9456100D01*
X22785900Y-10528500D02*
X22804000Y-10521100D01*
X22016500Y-13075300D02*
X22016500Y-13306100D01*
X23450600Y-14042300D02*
X23443800Y-14015600D01*
X21300600Y-9442300D02*
X21293800Y-9415600D01*
X21184600Y-14165900D02*
X21212100Y-14164200D01*
X23477700Y-14323400D02*
X23434200Y-14341400D01*
X21280500Y-9391400D02*
X21278149Y-9388900D01*
X22016500Y-10706100D02*
X22516500Y-10706100D01*
X22831500Y-13093600D02*
X22838900Y-13075500D01*
X23641500Y-9798500D02*
X23641500Y-10617700D01*
X23537500Y-14281961D02*
X23517800Y-14298800D01*
X22701500Y-10418600D02*
X22694100Y-10436700D01*
X21191500Y-14356100D02*
X21144600Y-14352400D01*
X23434200Y-14341400D02*
X23388400Y-14352400D01*
X23334600Y-13946300D02*
X23332700Y-13946664D01*
X23235000Y-9483500D02*
X23245100Y-9509100D01*
X20948800Y-9279800D02*
X20979400Y-9244000D01*
X20891500Y-12256100D02*
X20891500Y-10706100D01*
X22747100Y-13128500D02*
X22766500Y-13131100D01*
X21157500Y-14160700D02*
X21184600Y-14165900D01*
X22747100Y-10383700D02*
X22729000Y-10391100D01*
X21819500Y-13109100D02*
X21831500Y-13093600D01*
X21838900Y-13036700D02*
X21831500Y-13018600D01*
X22713500Y-13109100D02*
X22718300Y-13112816D01*
X22819500Y-10509100D02*
X22831500Y-10493600D01*
X23637800Y-9409200D02*
X23641500Y-9456100D01*
X22838900Y-13036700D02*
X22831500Y-13018600D01*
X22694100Y-13036700D02*
X22691500Y-13056100D01*
X21280500Y-14120800D02*
X21292316Y-14099300D01*
X23261300Y-9380800D02*
X23255416Y-9388900D01*
X23608800Y-14192300D02*
X23584200Y-14232400D01*
X21055300Y-9188800D02*
X21079900Y-9178621D01*
X20924200Y-9319900D02*
X20948800Y-9279800D01*
X21691500Y-10456100D02*
X21694100Y-10475500D01*
X21132600Y-9363200D02*
X21111300Y-9380800D01*
X22785900Y-10383700D02*
X22766500Y-10381100D01*
X21081500Y-9456100D02*
X21085000Y-9483500D01*
X21184600Y-9346300D02*
X21157500Y-9351500D01*
X21713500Y-10403100D02*
X21705913Y-10412900D01*
X23637800Y-14103000D02*
X23626800Y-14148800D01*
X23443800Y-9496600D02*
X23450600Y-9469900D01*
X23411600Y-9540900D02*
X23430500Y-9520800D01*
X21300600Y-14042300D02*
X21293800Y-14015600D01*
X22831500Y-10418600D02*
X22827087Y-10412900D01*
X22718300Y-14356100D02*
X21899100Y-14356100D01*
X21212100Y-9564200D02*
X21238300Y-9555600D01*
X21694100Y-10436700D02*
X21691500Y-10456100D01*
X21098800Y-14341400D02*
X21079900Y-14333579D01*
X21091234Y-14099300D02*
X21095100Y-14109100D01*
X21300600Y-9469900D02*
X21300600Y-9442300D01*
X23509160Y-14304100D02*
X23477700Y-14323400D01*
X22729000Y-12991100D02*
X22718300Y-12999384D01*
X21085000Y-9428700D02*
X21081500Y-9456100D01*
X21261600Y-14140900D02*
X21280500Y-14120800D01*
X21713500Y-10509100D02*
X21729000Y-10521100D01*
X23261300Y-13980800D02*
X23245100Y-14003100D01*
X23362100Y-14164200D02*
X23388300Y-14155600D01*
X23434200Y-9170800D02*
X23477700Y-9188800D01*
X20979400Y-9244000D02*
X21015200Y-9213400D01*
X23641500Y-9456100D02*
X23641500Y-9798500D01*
X22827087Y-10412900D02*
X22819500Y-10403100D01*
X21701500Y-10493600D02*
X21713500Y-10509100D01*
X21098800Y-9170800D02*
X21144600Y-9159800D01*
X21111300Y-9531400D02*
X21132600Y-9549000D01*
X22729000Y-13121100D02*
X22747100Y-13128500D01*
X21747100Y-10383700D02*
X21729000Y-10391100D01*
X23626800Y-9363400D02*
X23637800Y-9409200D01*
X21261600Y-13971300D02*
X21238300Y-13956599D01*
X22516500Y-10206100D02*
X22016500Y-10206100D01*
X22841500Y-13056100D02*
X22838900Y-13036700D01*
X23442316Y-14099300D02*
X23443800Y-14096600D01*
X22713500Y-10403100D02*
X22701500Y-10418600D01*
X22718300Y-13112816D02*
X22729000Y-13121100D01*
X23430500Y-14120800D02*
X23442316Y-14099300D01*
X22701500Y-13018600D02*
X22694100Y-13036700D01*
X23388300Y-14155600D02*
X23411600Y-14140900D01*
X23282600Y-9363200D02*
X23261300Y-9380800D01*
X21293800Y-14096600D02*
X21300600Y-14069900D01*
X21785900Y-13128500D02*
X21804000Y-13121100D01*
X23443800Y-14096600D02*
X23450600Y-14069900D01*
X23450600Y-14069900D02*
X23450600Y-14042300D01*
X23261300Y-14131400D02*
X23282600Y-14149000D01*
X21132600Y-14149000D02*
X21157500Y-14160700D01*
X21838900Y-10475500D02*
X21841500Y-10456100D01*
X21841500Y-10456100D02*
X21838900Y-10436700D01*
X23235000Y-14083500D02*
X23241234Y-14099300D01*
X21729000Y-10521100D02*
X21747100Y-10528500D01*
X22804000Y-12991100D02*
X22785900Y-12983700D01*
X23388400Y-9159800D02*
X23434200Y-9170800D01*
X21184600Y-13946300D02*
X21157500Y-13951500D01*
X20924200Y-14192300D02*
X20906200Y-14148800D01*
X22831500Y-10493600D02*
X22838900Y-10475500D01*
X20895200Y-14103000D02*
X20891500Y-14056100D01*
X21292316Y-14099300D02*
X21293800Y-14096600D01*
X22516500Y-10706100D02*
X22516500Y-10617700D01*
X21701500Y-13093600D02*
X21713500Y-13109100D01*
X21095100Y-14003100D02*
X21085000Y-14028700D01*
X22841500Y-10456100D02*
X22838900Y-10436700D01*
X22785900Y-13128500D02*
X22804000Y-13121100D01*
X23641500Y-13894500D02*
X23641500Y-14056100D01*
X22729000Y-10521100D02*
X22747100Y-10528500D01*
X21079900Y-14333579D02*
X21055300Y-14323400D01*
X21293800Y-14015600D02*
X21284700Y-13999042D01*
X23231500Y-14056100D02*
X23235000Y-14083500D01*
X21694300Y-10475989D02*
X21701500Y-10493600D01*
X21785900Y-10383700D02*
X21766500Y-10381100D01*
X23209248Y-9156100D02*
X23341500Y-9156100D01*
X21111300Y-14131400D02*
X21132600Y-14149000D01*
X21280500Y-13991400D02*
X21261600Y-13971300D01*
X23341500Y-14356100D02*
X23127900Y-14356100D01*
X23334600Y-9346300D02*
X23307500Y-9351500D01*
X21694100Y-13036700D02*
X21691500Y-13056100D01*
X23307500Y-13951500D02*
X23282600Y-13963200D01*
X21212100Y-13948000D02*
X21184600Y-13946300D01*
X21804000Y-10391100D02*
X21785900Y-10383700D01*
X22785900Y-12983700D02*
X22766500Y-12981100D01*
X21105416Y-9388900D02*
X21095100Y-9403100D01*
X23430500Y-9391400D02*
X23428149Y-9388900D01*
X22838900Y-10436700D02*
X22831500Y-10418600D01*
X21157500Y-9560700D02*
X21184600Y-9565900D01*
X21766500Y-13131100D02*
X21785900Y-13128500D01*
X23332700Y-13946664D02*
X23307500Y-13951500D01*
X22838900Y-13075500D02*
X22838927Y-13075300D01*
X21785900Y-10528500D02*
X21804000Y-10521100D01*
X21804000Y-12991100D02*
X21785900Y-12983700D01*
X22694073Y-13075300D02*
X22694100Y-13075500D01*
X20891500Y-13894500D02*
X20891500Y-12256100D01*
X21132600Y-13963200D02*
X21111300Y-13980800D01*
X22516500Y-12806100D02*
X22016500Y-12806100D01*
X22718300Y-12999384D02*
X22713500Y-13003100D01*
X21819500Y-10509100D02*
X21831500Y-10493600D01*
X23241234Y-14099300D02*
X23245100Y-14109100D01*
X23231500Y-9456100D02*
X23235000Y-9483500D01*
X23443800Y-9415600D02*
X23430500Y-9391400D01*
X21747100Y-10528500D02*
X21766500Y-10531100D01*
X21095100Y-9509100D02*
X21111300Y-9531400D01*
X23362100Y-9564200D02*
X23388300Y-9555600D01*
X23245100Y-14109100D02*
X23261300Y-14131400D01*
X23430500Y-9520800D02*
X23443800Y-9496600D01*
X22747100Y-10528500D02*
X22766500Y-10531100D01*
X21713500Y-13109100D02*
X21729000Y-13121100D01*
X23255416Y-9388900D02*
X23245100Y-9403100D01*
X21489500Y-14356100D02*
X21191500Y-14356100D01*
X22819500Y-10403100D02*
X22804000Y-10391100D01*
X21705913Y-10412900D02*
X21701500Y-10418600D01*
X21819500Y-13003100D02*
X21804000Y-12991100D01*
X22831500Y-13018600D02*
X22819500Y-13003100D01*
X23332700Y-9565536D02*
X23334600Y-9565900D01*
X21694100Y-10475500D02*
X21694300Y-10475989D01*
X22516500Y-13075300D02*
X22516500Y-12806100D01*
X21111300Y-13980800D02*
X21095100Y-14003100D01*
X22766500Y-10531100D02*
X22785900Y-10528500D01*
X22016500Y-12806100D02*
X22016500Y-13075300D01*
X21694100Y-13075500D02*
X21701500Y-13093600D01*
X22838900Y-10475500D02*
X22841500Y-10456100D01*
X22766500Y-10381100D02*
X22747100Y-10383700D01*
X23261300Y-9531400D02*
X23282600Y-9549000D01*
X23641500Y-13827551D02*
X23641500Y-13894500D01*
X20895200Y-9409200D02*
X20906200Y-9363400D01*
X22766500Y-13131100D02*
X22785900Y-13128500D01*
X23341500Y-9156100D02*
X23388400Y-9159800D01*
X21132600Y-9549000D02*
X21157500Y-9560700D01*
X20891500Y-9456100D02*
X20895200Y-9409200D01*
X21300600Y-14069900D02*
X21300600Y-14042300D01*
X22718300Y-10399384D02*
X22713500Y-10403100D01*
X23388400Y-14352400D02*
X23341500Y-14356100D01*
X21238300Y-13956599D02*
X21212100Y-13948000D01*
X23553600Y-14268200D02*
X23537500Y-14281961D01*
X22713500Y-10509100D02*
X22718300Y-10512816D01*
X22766500Y-12981100D02*
X22747100Y-12983700D01*
X23477700Y-9188800D02*
X23517800Y-9213400D01*
X23388300Y-9555600D02*
X23411600Y-9540900D01*
X21701500Y-10418600D02*
X21694300Y-10436211D01*
X21819500Y-10403100D02*
X21804000Y-10391100D01*
X21701500Y-13018600D02*
X21694100Y-13036700D01*
X21191500Y-9156100D02*
X21489500Y-9156100D01*
X21293800Y-9496600D02*
X21300600Y-9469900D01*
X21284700Y-9513158D02*
X21293800Y-9496600D01*
X20891500Y-14056100D02*
X20891500Y-13894500D01*
X23127900Y-14356100D02*
X22718300Y-14356100D01*
X22819500Y-13109100D02*
X22831500Y-13093600D01*
X23584200Y-9279800D02*
X23608800Y-9319900D01*
X23127900Y-9156100D02*
X23209248Y-9156100D01*
X21747100Y-13128500D02*
X21766500Y-13131100D01*
X21804000Y-13121100D02*
X21819500Y-13109100D01*
X21713500Y-13003100D02*
X21701500Y-13018600D01*
X21015200Y-9213400D02*
X21055300Y-9188800D01*
X21785900Y-12983700D02*
X21766500Y-12981100D01*
X22694100Y-13075500D02*
X22701500Y-13093600D01*
X23362100Y-9348000D02*
X23334600Y-9346300D01*
X21766500Y-10531100D02*
X21785900Y-10528500D01*
X22838927Y-13075300D02*
X22841500Y-13056100D01*
X21766500Y-12981100D02*
X21747100Y-12983700D01*
X23235000Y-14028700D02*
X23231500Y-14056100D01*
D11*
D12*
X21209000Y-9867900D02*
X21285200Y-9944100D01*
X21285200Y-9867900D02*
X21209000Y-9944100D01*
X21209000Y-10071100D02*
X21285200Y-10147300D01*
X21285200Y-10071100D02*
X21209000Y-10147300D01*
X21209000Y-10274300D02*
X21285200Y-10350500D01*
X21285200Y-10274300D02*
X21209000Y-10350500D01*
X21450300Y-10960100D02*
X21526500Y-11036300D01*
X21526500Y-10960100D02*
X21450300Y-11036300D01*
X21450300Y-12484100D02*
X21526500Y-12560300D01*
X21526500Y-12484100D02*
X21450300Y-12560300D01*
X21704300Y-10960100D02*
X21780500Y-11036300D01*
X21780500Y-10960100D02*
X21704300Y-11036300D01*
X21704300Y-12484100D02*
X21780500Y-12560300D01*
X21780500Y-12484100D02*
X21704300Y-12560300D01*
X21958300Y-10960100D02*
X22034500Y-11036300D01*
X22034500Y-10960100D02*
X21958300Y-11036300D01*
X21958300Y-12484100D02*
X22034500Y-12560300D01*
X22034500Y-12484100D02*
X21958300Y-12560300D01*
X22034500Y-9956800D02*
X22110700Y-10033000D01*
X22110700Y-9956800D02*
X22034500Y-10033000D01*
X22034500Y-13474700D02*
X22110700Y-13550900D01*
X22110700Y-13474700D02*
X22034500Y-13550900D01*
X22212300Y-10960100D02*
X22288500Y-11036300D01*
X22288500Y-10960100D02*
X22212300Y-11036300D01*
X22212300Y-12484100D02*
X22288500Y-12560300D01*
X22288500Y-12484100D02*
X22212300Y-12560300D01*
X22237700Y-9956800D02*
X22313900Y-10033000D01*
X22313900Y-9956800D02*
X22237700Y-10033000D01*
X22237700Y-13474700D02*
X22313900Y-13550900D01*
X22313900Y-13474700D02*
X22237700Y-13550900D01*
X22440900Y-9956800D02*
X22517100Y-10033000D01*
X22517100Y-9956800D02*
X22440900Y-10033000D01*
X22440900Y-13474700D02*
X22517100Y-13550900D01*
X22517100Y-13474700D02*
X22440900Y-13550900D01*
X22466300Y-10960100D02*
X22542500Y-11036300D01*
X22542500Y-10960100D02*
X22466300Y-11036300D01*
X22466300Y-12484100D02*
X22542500Y-12560300D01*
X22542500Y-12484100D02*
X22466300Y-12560300D01*
X22720300Y-10960100D02*
X22796500Y-11036300D01*
X22796500Y-10960100D02*
X22720300Y-11036300D01*
X22720300Y-12484100D02*
X22796500Y-12560300D01*
X22796500Y-12484100D02*
X22720300Y-12560300D01*
X22974300Y-10960100D02*
X23050500Y-11036300D01*
X23050500Y-10960100D02*
X22974300Y-11036300D01*
X22974300Y-12484100D02*
X23050500Y-12560300D01*
X23050500Y-12484100D02*
X22974300Y-12560300D01*
X23228300Y-10960100D02*
X23304500Y-11036300D01*
X23304500Y-10960100D02*
X23228300Y-11036300D01*
X23228300Y-12484100D02*
X23304500Y-12560300D01*
X23304500Y-12484100D02*
X23228300Y-12560300D01*
D13*
X21424100Y-13212000D02*
G75*
G03*
X21424100Y-13212000I-50000J0D01*
G01*
X21424100Y-13462000D02*
G75*
G03*
X21424100Y-13462000I-50000J0D01*
G01*
X21932100Y-14084300D02*
G75*
G03*
X21932100Y-14084300I-50000J0D01*
G01*
X22186100Y-14084300D02*
G75*
G03*
X22186100Y-14084300I-50000J0D01*
G01*
X22440100Y-14084300D02*
G75*
G03*
X22440100Y-14084300I-50000J0D01*
G01*
X22694100Y-14084300D02*
G75*
G03*
X22694100Y-14084300I-50000J0D01*
G01*
X23151300Y-13004800D02*
G75*
G03*
X23151300Y-13004800I-50000J0D01*
G01*
X23151300Y-13258800D02*
G75*
G03*
X23151300Y-13258800I-50000J0D01*
G01*
X23151300Y-13512800D02*
G75*
G03*
X23151300Y-13512800I-50000J0D01*
G01*
X23151300Y-13766800D02*
G75*
G03*
X23151300Y-13766800I-50000J0D01*
G01*
X23202100Y-10049700D02*
G75*
G03*
X23202100Y-10049700I-50000J0D01*
G01*
X23202100Y-10299700D02*
G75*
G03*
X23202100Y-10299700I-50000J0D01*
G01*
D11*
X21152088Y-14667772D02*
X21152088Y-14467772D01*
X21152088Y-14467772D02*
X21199707Y-14467772D01*
X21199707Y-14467772D02*
X21228278Y-14477296D01*
X21228278Y-14477296D02*
X21247326Y-14496344D01*
X21247326Y-14496344D02*
X21256850Y-14515391D01*
X21256850Y-14515391D02*
X21266374Y-14553487D01*
X21266374Y-14553487D02*
X21266374Y-14582058D01*
X21266374Y-14582058D02*
X21256850Y-14620153D01*
X21256850Y-14620153D02*
X21247326Y-14639201D01*
X21247326Y-14639201D02*
X21228278Y-14658249D01*
X21228278Y-14658249D02*
X21199707Y-14667772D01*
X21199707Y-14667772D02*
X21152088Y-14667772D01*
X21352088Y-14667772D02*
X21352088Y-14534439D01*
X21352088Y-14572534D02*
X21361612Y-14553487D01*
X21361612Y-14553487D02*
X21371136Y-14543963D01*
X21371136Y-14543963D02*
X21390183Y-14534439D01*
X21390183Y-14534439D02*
X21409231Y-14534439D01*
X21475897Y-14667772D02*
X21475897Y-14534439D01*
X21475897Y-14467772D02*
X21466374Y-14477296D01*
X21466374Y-14477296D02*
X21475897Y-14486820D01*
X21475897Y-14486820D02*
X21485421Y-14477296D01*
X21485421Y-14477296D02*
X21475897Y-14467772D01*
X21475897Y-14467772D02*
X21475897Y-14486820D01*
X21599707Y-14667772D02*
X21580659Y-14658249D01*
X21580659Y-14658249D02*
X21571136Y-14639201D01*
X21571136Y-14639201D02*
X21571136Y-14467772D01*
X21704469Y-14667772D02*
X21685421Y-14658249D01*
X21685421Y-14658249D02*
X21675897Y-14639201D01*
X21675897Y-14639201D02*
X21675897Y-14467772D01*
X21933040Y-14667772D02*
X21933040Y-14467772D01*
X21933040Y-14467772D02*
X21999707Y-14610630D01*
X21999707Y-14610630D02*
X22066374Y-14467772D01*
X22066374Y-14467772D02*
X22066374Y-14667772D01*
X22247326Y-14667772D02*
X22247326Y-14563011D01*
X22247326Y-14563011D02*
X22237802Y-14543963D01*
X22237802Y-14543963D02*
X22218755Y-14534439D01*
X22218755Y-14534439D02*
X22180659Y-14534439D01*
X22180659Y-14534439D02*
X22161612Y-14543963D01*
X22247326Y-14658249D02*
X22228278Y-14667772D01*
X22228278Y-14667772D02*
X22180659Y-14667772D01*
X22180659Y-14667772D02*
X22161612Y-14658249D01*
X22161612Y-14658249D02*
X22152088Y-14639201D01*
X22152088Y-14639201D02*
X22152088Y-14620153D01*
X22152088Y-14620153D02*
X22161612Y-14601106D01*
X22161612Y-14601106D02*
X22180659Y-14591582D01*
X22180659Y-14591582D02*
X22228278Y-14591582D01*
X22228278Y-14591582D02*
X22247326Y-14582058D01*
X22342564Y-14534439D02*
X22342564Y-14734439D01*
X22342564Y-14543963D02*
X22361612Y-14534439D01*
X22361612Y-14534439D02*
X22399707Y-14534439D01*
X22399707Y-14534439D02*
X22418755Y-14543963D01*
X22418755Y-14543963D02*
X22428278Y-14553487D01*
X22428278Y-14553487D02*
X22437802Y-14572534D01*
X22437802Y-14572534D02*
X22437802Y-14629677D01*
X22437802Y-14629677D02*
X22428278Y-14648725D01*
X22428278Y-14648725D02*
X22418755Y-14658249D01*
X22418755Y-14658249D02*
X22399707Y-14667772D01*
X22399707Y-14667772D02*
X22361612Y-14667772D01*
X22361612Y-14667772D02*
X22342564Y-14658249D01*
X22523516Y-14648725D02*
X22533040Y-14658249D01*
X22533040Y-14658249D02*
X22523516Y-14667772D01*
X22523516Y-14667772D02*
X22513993Y-14658249D01*
X22513993Y-14658249D02*
X22523516Y-14648725D01*
X22523516Y-14648725D02*
X22523516Y-14667772D01*
X22523516Y-14543963D02*
X22533040Y-14553487D01*
X22533040Y-14553487D02*
X22523516Y-14563011D01*
X22523516Y-14563011D02*
X22513993Y-14553487D01*
X22513993Y-14553487D02*
X22523516Y-14543963D01*
X22523516Y-14543963D02*
X22523516Y-14563011D01*
D12*
X20815111Y-14958189D02*
X20891311Y-15034389D01*
X20891311Y-14958189D02*
X20815111Y-15034389D01*
D11*
X21190183Y-14887772D02*
X21209231Y-14887772D01*
X21209231Y-14887772D02*
X21228278Y-14897296D01*
X21228278Y-14897296D02*
X21237802Y-14906820D01*
X21237802Y-14906820D02*
X21247326Y-14925868D01*
X21247326Y-14925868D02*
X21256850Y-14963963D01*
X21256850Y-14963963D02*
X21256850Y-15011582D01*
X21256850Y-15011582D02*
X21247326Y-15049677D01*
X21247326Y-15049677D02*
X21237802Y-15068725D01*
X21237802Y-15068725D02*
X21228278Y-15078249D01*
X21228278Y-15078249D02*
X21209231Y-15087772D01*
X21209231Y-15087772D02*
X21190183Y-15087772D01*
X21190183Y-15087772D02*
X21171136Y-15078249D01*
X21171136Y-15078249D02*
X21161612Y-15068725D01*
X21161612Y-15068725D02*
X21152088Y-15049677D01*
X21152088Y-15049677D02*
X21142564Y-15011582D01*
X21142564Y-15011582D02*
X21142564Y-14963963D01*
X21142564Y-14963963D02*
X21152088Y-14925868D01*
X21152088Y-14925868D02*
X21161612Y-14906820D01*
X21161612Y-14906820D02*
X21171136Y-14897296D01*
X21171136Y-14897296D02*
X21190183Y-14887772D01*
X21342564Y-15068725D02*
X21352088Y-15078249D01*
X21352088Y-15078249D02*
X21342564Y-15087772D01*
X21342564Y-15087772D02*
X21333040Y-15078249D01*
X21333040Y-15078249D02*
X21342564Y-15068725D01*
X21342564Y-15068725D02*
X21342564Y-15087772D01*
X21418755Y-14887772D02*
X21552088Y-14887772D01*
X21552088Y-14887772D02*
X21466374Y-15087772D01*
X21713993Y-14887772D02*
X21675897Y-14887772D01*
X21675897Y-14887772D02*
X21656850Y-14897296D01*
X21656850Y-14897296D02*
X21647326Y-14906820D01*
X21647326Y-14906820D02*
X21628278Y-14935391D01*
X21628278Y-14935391D02*
X21618755Y-14973487D01*
X21618755Y-14973487D02*
X21618755Y-15049677D01*
X21618755Y-15049677D02*
X21628278Y-15068725D01*
X21628278Y-15068725D02*
X21637802Y-15078249D01*
X21637802Y-15078249D02*
X21656850Y-15087772D01*
X21656850Y-15087772D02*
X21694945Y-15087772D01*
X21694945Y-15087772D02*
X21713993Y-15078249D01*
X21713993Y-15078249D02*
X21723517Y-15068725D01*
X21723517Y-15068725D02*
X21733040Y-15049677D01*
X21733040Y-15049677D02*
X21733040Y-15002058D01*
X21733040Y-15002058D02*
X21723517Y-14983011D01*
X21723517Y-14983011D02*
X21713993Y-14973487D01*
X21713993Y-14973487D02*
X21694945Y-14963963D01*
X21694945Y-14963963D02*
X21656850Y-14963963D01*
X21656850Y-14963963D02*
X21637802Y-14973487D01*
X21637802Y-14973487D02*
X21628278Y-14983011D01*
X21628278Y-14983011D02*
X21618755Y-15002058D01*
X21809231Y-14906820D02*
X21818755Y-14897296D01*
X21818755Y-14897296D02*
X21837802Y-14887772D01*
X21837802Y-14887772D02*
X21885421Y-14887772D01*
X21885421Y-14887772D02*
X21904469Y-14897296D01*
X21904469Y-14897296D02*
X21913993Y-14906820D01*
X21913993Y-14906820D02*
X21923517Y-14925868D01*
X21923517Y-14925868D02*
X21923517Y-14944915D01*
X21923517Y-14944915D02*
X21913993Y-14973487D01*
X21913993Y-14973487D02*
X21799707Y-15087772D01*
X21799707Y-15087772D02*
X21923517Y-15087772D01*
X22009231Y-15087772D02*
X22009231Y-14954439D01*
X22009231Y-14973487D02*
X22018755Y-14963963D01*
X22018755Y-14963963D02*
X22037802Y-14954439D01*
X22037802Y-14954439D02*
X22066374Y-14954439D01*
X22066374Y-14954439D02*
X22085421Y-14963963D01*
X22085421Y-14963963D02*
X22094945Y-14983011D01*
X22094945Y-14983011D02*
X22094945Y-15087772D01*
X22094945Y-14983011D02*
X22104469Y-14963963D01*
X22104469Y-14963963D02*
X22123517Y-14954439D01*
X22123517Y-14954439D02*
X22152088Y-14954439D01*
X22152088Y-14954439D02*
X22171136Y-14963963D01*
X22171136Y-14963963D02*
X22180659Y-14983011D01*
X22180659Y-14983011D02*
X22180659Y-15087772D01*
X22275898Y-15087772D02*
X22275898Y-14954439D01*
X22275898Y-14973487D02*
X22285421Y-14963963D01*
X22285421Y-14963963D02*
X22304469Y-14954439D01*
X22304469Y-14954439D02*
X22333040Y-14954439D01*
X22333040Y-14954439D02*
X22352088Y-14963963D01*
X22352088Y-14963963D02*
X22361612Y-14983011D01*
X22361612Y-14983011D02*
X22361612Y-15087772D01*
X22361612Y-14983011D02*
X22371136Y-14963963D01*
X22371136Y-14963963D02*
X22390183Y-14954439D01*
X22390183Y-14954439D02*
X22418755Y-14954439D01*
X22418755Y-14954439D02*
X22437802Y-14963963D01*
X22437802Y-14963963D02*
X22447326Y-14983011D01*
X22447326Y-14983011D02*
X22447326Y-15087772D01*
X22837802Y-14878249D02*
X22666374Y-15135391D01*
X23094945Y-14887772D02*
X23113993Y-14887772D01*
X23113993Y-14887772D02*
X23133040Y-14897296D01*
X23133040Y-14897296D02*
X23142564Y-14906820D01*
X23142564Y-14906820D02*
X23152088Y-14925868D01*
X23152088Y-14925868D02*
X23161612Y-14963963D01*
X23161612Y-14963963D02*
X23161612Y-15011582D01*
X23161612Y-15011582D02*
X23152088Y-15049677D01*
X23152088Y-15049677D02*
X23142564Y-15068725D01*
X23142564Y-15068725D02*
X23133040Y-15078249D01*
X23133040Y-15078249D02*
X23113993Y-15087772D01*
X23113993Y-15087772D02*
X23094945Y-15087772D01*
X23094945Y-15087772D02*
X23075898Y-15078249D01*
X23075898Y-15078249D02*
X23066374Y-15068725D01*
X23066374Y-15068725D02*
X23056850Y-15049677D01*
X23056850Y-15049677D02*
X23047326Y-15011582D01*
X23047326Y-15011582D02*
X23047326Y-14963963D01*
X23047326Y-14963963D02*
X23056850Y-14925868D01*
X23056850Y-14925868D02*
X23066374Y-14906820D01*
X23066374Y-14906820D02*
X23075898Y-14897296D01*
X23075898Y-14897296D02*
X23094945Y-14887772D01*
X23247326Y-15068725D02*
X23256850Y-15078249D01*
X23256850Y-15078249D02*
X23247326Y-15087772D01*
X23247326Y-15087772D02*
X23237802Y-15078249D01*
X23237802Y-15078249D02*
X23247326Y-15068725D01*
X23247326Y-15068725D02*
X23247326Y-15087772D01*
X23380659Y-14887772D02*
X23399707Y-14887772D01*
X23399707Y-14887772D02*
X23418755Y-14897296D01*
X23418755Y-14897296D02*
X23428279Y-14906820D01*
X23428279Y-14906820D02*
X23437802Y-14925868D01*
X23437802Y-14925868D02*
X23447326Y-14963963D01*
X23447326Y-14963963D02*
X23447326Y-15011582D01*
X23447326Y-15011582D02*
X23437802Y-15049677D01*
X23437802Y-15049677D02*
X23428279Y-15068725D01*
X23428279Y-15068725D02*
X23418755Y-15078249D01*
X23418755Y-15078249D02*
X23399707Y-15087772D01*
X23399707Y-15087772D02*
X23380659Y-15087772D01*
X23380659Y-15087772D02*
X23361612Y-15078249D01*
X23361612Y-15078249D02*
X23352088Y-15068725D01*
X23352088Y-15068725D02*
X23342564Y-15049677D01*
X23342564Y-15049677D02*
X23333040Y-15011582D01*
X23333040Y-15011582D02*
X23333040Y-14963963D01*
X23333040Y-14963963D02*
X23342564Y-14925868D01*
X23342564Y-14925868D02*
X23352088Y-14906820D01*
X23352088Y-14906820D02*
X23361612Y-14897296D01*
X23361612Y-14897296D02*
X23380659Y-14887772D01*
X23513993Y-14887772D02*
X23637802Y-14887772D01*
X23637802Y-14887772D02*
X23571136Y-14963963D01*
X23571136Y-14963963D02*
X23599707Y-14963963D01*
X23599707Y-14963963D02*
X23618755Y-14973487D01*
X23618755Y-14973487D02*
X23628279Y-14983011D01*
X23628279Y-14983011D02*
X23637802Y-15002058D01*
X23637802Y-15002058D02*
X23637802Y-15049677D01*
X23637802Y-15049677D02*
X23628279Y-15068725D01*
X23628279Y-15068725D02*
X23618755Y-15078249D01*
X23618755Y-15078249D02*
X23599707Y-15087772D01*
X23599707Y-15087772D02*
X23542564Y-15087772D01*
X23542564Y-15087772D02*
X23523517Y-15078249D01*
X23523517Y-15078249D02*
X23513993Y-15068725D01*
X23761612Y-14887772D02*
X23780660Y-14887772D01*
X23780660Y-14887772D02*
X23799707Y-14897296D01*
X23799707Y-14897296D02*
X23809231Y-14906820D01*
X23809231Y-14906820D02*
X23818755Y-14925868D01*
X23818755Y-14925868D02*
X23828279Y-14963963D01*
X23828279Y-14963963D02*
X23828279Y-15011582D01*
X23828279Y-15011582D02*
X23818755Y-15049677D01*
X23818755Y-15049677D02*
X23809231Y-15068725D01*
X23809231Y-15068725D02*
X23799707Y-15078249D01*
X23799707Y-15078249D02*
X23780660Y-15087772D01*
X23780660Y-15087772D02*
X23761612Y-15087772D01*
X23761612Y-15087772D02*
X23742564Y-15078249D01*
X23742564Y-15078249D02*
X23733040Y-15068725D01*
X23733040Y-15068725D02*
X23723517Y-15049677D01*
X23723517Y-15049677D02*
X23713993Y-15011582D01*
X23713993Y-15011582D02*
X23713993Y-14963963D01*
X23713993Y-14963963D02*
X23723517Y-14925868D01*
X23723517Y-14925868D02*
X23733040Y-14906820D01*
X23733040Y-14906820D02*
X23742564Y-14897296D01*
X23742564Y-14897296D02*
X23761612Y-14887772D01*
X23952088Y-14887772D02*
X23971136Y-14887772D01*
X23971136Y-14887772D02*
X23990183Y-14897296D01*
X23990183Y-14897296D02*
X23999707Y-14906820D01*
X23999707Y-14906820D02*
X24009231Y-14925868D01*
X24009231Y-14925868D02*
X24018755Y-14963963D01*
X24018755Y-14963963D02*
X24018755Y-15011582D01*
X24018755Y-15011582D02*
X24009231Y-15049677D01*
X24009231Y-15049677D02*
X23999707Y-15068725D01*
X23999707Y-15068725D02*
X23990183Y-15078249D01*
X23990183Y-15078249D02*
X23971136Y-15087772D01*
X23971136Y-15087772D02*
X23952088Y-15087772D01*
X23952088Y-15087772D02*
X23933040Y-15078249D01*
X23933040Y-15078249D02*
X23923517Y-15068725D01*
X23923517Y-15068725D02*
X23913993Y-15049677D01*
X23913993Y-15049677D02*
X23904469Y-15011582D01*
X23904469Y-15011582D02*
X23904469Y-14963963D01*
X23904469Y-14963963D02*
X23913993Y-14925868D01*
X23913993Y-14925868D02*
X23923517Y-14906820D01*
X23923517Y-14906820D02*
X23933040Y-14897296D01*
X23933040Y-14897296D02*
X23952088Y-14887772D01*
X24094945Y-14887772D02*
X24094945Y-14925868D01*
X24171136Y-14887772D02*
X24171136Y-14925868D01*
X24466374Y-15163963D02*
X24456850Y-15154439D01*
X24456850Y-15154439D02*
X24437802Y-15125868D01*
X24437802Y-15125868D02*
X24428279Y-15106820D01*
X24428279Y-15106820D02*
X24418755Y-15078249D01*
X24418755Y-15078249D02*
X24409231Y-15030630D01*
X24409231Y-15030630D02*
X24409231Y-14992534D01*
X24409231Y-14992534D02*
X24418755Y-14944915D01*
X24418755Y-14944915D02*
X24428279Y-14916344D01*
X24428279Y-14916344D02*
X24437802Y-14897296D01*
X24437802Y-14897296D02*
X24456850Y-14868725D01*
X24456850Y-14868725D02*
X24466374Y-14859201D01*
X24533041Y-14906820D02*
X24542564Y-14897296D01*
X24542564Y-14897296D02*
X24561612Y-14887772D01*
X24561612Y-14887772D02*
X24609231Y-14887772D01*
X24609231Y-14887772D02*
X24628279Y-14897296D01*
X24628279Y-14897296D02*
X24637802Y-14906820D01*
X24637802Y-14906820D02*
X24647326Y-14925868D01*
X24647326Y-14925868D02*
X24647326Y-14944915D01*
X24647326Y-14944915D02*
X24637802Y-14973487D01*
X24637802Y-14973487D02*
X24523517Y-15087772D01*
X24523517Y-15087772D02*
X24647326Y-15087772D01*
X24828279Y-14887772D02*
X24733041Y-14887772D01*
X24733041Y-14887772D02*
X24723517Y-14983011D01*
X24723517Y-14983011D02*
X24733041Y-14973487D01*
X24733041Y-14973487D02*
X24752088Y-14963963D01*
X24752088Y-14963963D02*
X24799707Y-14963963D01*
X24799707Y-14963963D02*
X24818755Y-14973487D01*
X24818755Y-14973487D02*
X24828279Y-14983011D01*
X24828279Y-14983011D02*
X24837802Y-15002058D01*
X24837802Y-15002058D02*
X24837802Y-15049677D01*
X24837802Y-15049677D02*
X24828279Y-15068725D01*
X24828279Y-15068725D02*
X24818755Y-15078249D01*
X24818755Y-15078249D02*
X24799707Y-15087772D01*
X24799707Y-15087772D02*
X24752088Y-15087772D01*
X24752088Y-15087772D02*
X24733041Y-15078249D01*
X24733041Y-15078249D02*
X24723517Y-15068725D01*
X25075898Y-15087772D02*
X25075898Y-14887772D01*
X25161612Y-15087772D02*
X25161612Y-14983011D01*
X25161612Y-14983011D02*
X25152088Y-14963963D01*
X25152088Y-14963963D02*
X25133041Y-14954439D01*
X25133041Y-14954439D02*
X25104469Y-14954439D01*
X25104469Y-14954439D02*
X25085422Y-14963963D01*
X25085422Y-14963963D02*
X25075898Y-14973487D01*
X25285422Y-15087772D02*
X25266374Y-15078249D01*
X25266374Y-15078249D02*
X25256850Y-15068725D01*
X25256850Y-15068725D02*
X25247326Y-15049677D01*
X25247326Y-15049677D02*
X25247326Y-14992534D01*
X25247326Y-14992534D02*
X25256850Y-14973487D01*
X25256850Y-14973487D02*
X25266374Y-14963963D01*
X25266374Y-14963963D02*
X25285422Y-14954439D01*
X25285422Y-14954439D02*
X25313993Y-14954439D01*
X25313993Y-14954439D02*
X25333041Y-14963963D01*
X25333041Y-14963963D02*
X25342564Y-14973487D01*
X25342564Y-14973487D02*
X25352088Y-14992534D01*
X25352088Y-14992534D02*
X25352088Y-15049677D01*
X25352088Y-15049677D02*
X25342564Y-15068725D01*
X25342564Y-15068725D02*
X25333041Y-15078249D01*
X25333041Y-15078249D02*
X25313993Y-15087772D01*
X25313993Y-15087772D02*
X25285422Y-15087772D01*
X25466374Y-15087772D02*
X25447326Y-15078249D01*
X25447326Y-15078249D02*
X25437803Y-15059201D01*
X25437803Y-15059201D02*
X25437803Y-14887772D01*
X25618755Y-15078249D02*
X25599707Y-15087772D01*
X25599707Y-15087772D02*
X25561612Y-15087772D01*
X25561612Y-15087772D02*
X25542564Y-15078249D01*
X25542564Y-15078249D02*
X25533041Y-15059201D01*
X25533041Y-15059201D02*
X25533041Y-14983011D01*
X25533041Y-14983011D02*
X25542564Y-14963963D01*
X25542564Y-14963963D02*
X25561612Y-14954439D01*
X25561612Y-14954439D02*
X25599707Y-14954439D01*
X25599707Y-14954439D02*
X25618755Y-14963963D01*
X25618755Y-14963963D02*
X25628279Y-14983011D01*
X25628279Y-14983011D02*
X25628279Y-15002058D01*
X25628279Y-15002058D02*
X25533041Y-15021106D01*
X25704469Y-15078249D02*
X25723517Y-15087772D01*
X25723517Y-15087772D02*
X25761612Y-15087772D01*
X25761612Y-15087772D02*
X25780660Y-15078249D01*
X25780660Y-15078249D02*
X25790184Y-15059201D01*
X25790184Y-15059201D02*
X25790184Y-15049677D01*
X25790184Y-15049677D02*
X25780660Y-15030630D01*
X25780660Y-15030630D02*
X25761612Y-15021106D01*
X25761612Y-15021106D02*
X25733041Y-15021106D01*
X25733041Y-15021106D02*
X25713993Y-15011582D01*
X25713993Y-15011582D02*
X25704469Y-14992534D01*
X25704469Y-14992534D02*
X25704469Y-14983011D01*
X25704469Y-14983011D02*
X25713993Y-14963963D01*
X25713993Y-14963963D02*
X25733041Y-14954439D01*
X25733041Y-14954439D02*
X25761612Y-14954439D01*
X25761612Y-14954439D02*
X25780660Y-14963963D01*
X25856850Y-15163963D02*
X25866374Y-15154439D01*
X25866374Y-15154439D02*
X25885422Y-15125868D01*
X25885422Y-15125868D02*
X25894945Y-15106820D01*
X25894945Y-15106820D02*
X25904469Y-15078249D01*
X25904469Y-15078249D02*
X25913993Y-15030630D01*
X25913993Y-15030630D02*
X25913993Y-14992534D01*
X25913993Y-14992534D02*
X25904469Y-14944915D01*
X25904469Y-14944915D02*
X25894945Y-14916344D01*
X25894945Y-14916344D02*
X25885422Y-14897296D01*
X25885422Y-14897296D02*
X25866374Y-14868725D01*
X25866374Y-14868725D02*
X25856850Y-14859201D01*
D13*
X20891311Y-15260289D02*
G75*
G03*
X20891311Y-15260289I-50000J0D01*
G01*
D11*
X21256850Y-15351772D02*
X21142564Y-15351772D01*
X21199707Y-15351772D02*
X21199707Y-15151772D01*
X21199707Y-15151772D02*
X21180659Y-15180344D01*
X21180659Y-15180344D02*
X21161612Y-15199391D01*
X21161612Y-15199391D02*
X21142564Y-15208915D01*
X21342564Y-15332725D02*
X21352088Y-15342249D01*
X21352088Y-15342249D02*
X21342564Y-15351772D01*
X21342564Y-15351772D02*
X21333040Y-15342249D01*
X21333040Y-15342249D02*
X21342564Y-15332725D01*
X21342564Y-15332725D02*
X21342564Y-15351772D01*
X21475897Y-15151772D02*
X21494945Y-15151772D01*
X21494945Y-15151772D02*
X21513993Y-15161296D01*
X21513993Y-15161296D02*
X21523517Y-15170820D01*
X21523517Y-15170820D02*
X21533040Y-15189868D01*
X21533040Y-15189868D02*
X21542564Y-15227963D01*
X21542564Y-15227963D02*
X21542564Y-15275582D01*
X21542564Y-15275582D02*
X21533040Y-15313677D01*
X21533040Y-15313677D02*
X21523517Y-15332725D01*
X21523517Y-15332725D02*
X21513993Y-15342249D01*
X21513993Y-15342249D02*
X21494945Y-15351772D01*
X21494945Y-15351772D02*
X21475897Y-15351772D01*
X21475897Y-15351772D02*
X21456850Y-15342249D01*
X21456850Y-15342249D02*
X21447326Y-15332725D01*
X21447326Y-15332725D02*
X21437802Y-15313677D01*
X21437802Y-15313677D02*
X21428278Y-15275582D01*
X21428278Y-15275582D02*
X21428278Y-15227963D01*
X21428278Y-15227963D02*
X21437802Y-15189868D01*
X21437802Y-15189868D02*
X21447326Y-15170820D01*
X21447326Y-15170820D02*
X21456850Y-15161296D01*
X21456850Y-15161296D02*
X21475897Y-15151772D01*
X21666374Y-15151772D02*
X21685421Y-15151772D01*
X21685421Y-15151772D02*
X21704469Y-15161296D01*
X21704469Y-15161296D02*
X21713993Y-15170820D01*
X21713993Y-15170820D02*
X21723517Y-15189868D01*
X21723517Y-15189868D02*
X21733040Y-15227963D01*
X21733040Y-15227963D02*
X21733040Y-15275582D01*
X21733040Y-15275582D02*
X21723517Y-15313677D01*
X21723517Y-15313677D02*
X21713993Y-15332725D01*
X21713993Y-15332725D02*
X21704469Y-15342249D01*
X21704469Y-15342249D02*
X21685421Y-15351772D01*
X21685421Y-15351772D02*
X21666374Y-15351772D01*
X21666374Y-15351772D02*
X21647326Y-15342249D01*
X21647326Y-15342249D02*
X21637802Y-15332725D01*
X21637802Y-15332725D02*
X21628278Y-15313677D01*
X21628278Y-15313677D02*
X21618755Y-15275582D01*
X21618755Y-15275582D02*
X21618755Y-15227963D01*
X21618755Y-15227963D02*
X21628278Y-15189868D01*
X21628278Y-15189868D02*
X21637802Y-15170820D01*
X21637802Y-15170820D02*
X21647326Y-15161296D01*
X21647326Y-15161296D02*
X21666374Y-15151772D01*
X21856850Y-15151772D02*
X21875898Y-15151772D01*
X21875898Y-15151772D02*
X21894945Y-15161296D01*
X21894945Y-15161296D02*
X21904469Y-15170820D01*
X21904469Y-15170820D02*
X21913993Y-15189868D01*
X21913993Y-15189868D02*
X21923517Y-15227963D01*
X21923517Y-15227963D02*
X21923517Y-15275582D01*
X21923517Y-15275582D02*
X21913993Y-15313677D01*
X21913993Y-15313677D02*
X21904469Y-15332725D01*
X21904469Y-15332725D02*
X21894945Y-15342249D01*
X21894945Y-15342249D02*
X21875898Y-15351772D01*
X21875898Y-15351772D02*
X21856850Y-15351772D01*
X21856850Y-15351772D02*
X21837802Y-15342249D01*
X21837802Y-15342249D02*
X21828278Y-15332725D01*
X21828278Y-15332725D02*
X21818755Y-15313677D01*
X21818755Y-15313677D02*
X21809231Y-15275582D01*
X21809231Y-15275582D02*
X21809231Y-15227963D01*
X21809231Y-15227963D02*
X21818755Y-15189868D01*
X21818755Y-15189868D02*
X21828278Y-15170820D01*
X21828278Y-15170820D02*
X21837802Y-15161296D01*
X21837802Y-15161296D02*
X21856850Y-15151772D01*
X22009231Y-15351772D02*
X22009231Y-15218439D01*
X22009231Y-15237487D02*
X22018755Y-15227963D01*
X22018755Y-15227963D02*
X22037802Y-15218439D01*
X22037802Y-15218439D02*
X22066374Y-15218439D01*
X22066374Y-15218439D02*
X22085421Y-15227963D01*
X22085421Y-15227963D02*
X22094945Y-15247011D01*
X22094945Y-15247011D02*
X22094945Y-15351772D01*
X22094945Y-15247011D02*
X22104469Y-15227963D01*
X22104469Y-15227963D02*
X22123517Y-15218439D01*
X22123517Y-15218439D02*
X22152088Y-15218439D01*
X22152088Y-15218439D02*
X22171136Y-15227963D01*
X22171136Y-15227963D02*
X22180659Y-15247011D01*
X22180659Y-15247011D02*
X22180659Y-15351772D01*
X22275898Y-15351772D02*
X22275898Y-15218439D01*
X22275898Y-15237487D02*
X22285421Y-15227963D01*
X22285421Y-15227963D02*
X22304469Y-15218439D01*
X22304469Y-15218439D02*
X22333040Y-15218439D01*
X22333040Y-15218439D02*
X22352088Y-15227963D01*
X22352088Y-15227963D02*
X22361612Y-15247011D01*
X22361612Y-15247011D02*
X22361612Y-15351772D01*
X22361612Y-15247011D02*
X22371136Y-15227963D01*
X22371136Y-15227963D02*
X22390183Y-15218439D01*
X22390183Y-15218439D02*
X22418755Y-15218439D01*
X22418755Y-15218439D02*
X22437802Y-15227963D01*
X22437802Y-15227963D02*
X22447326Y-15247011D01*
X22447326Y-15247011D02*
X22447326Y-15351772D01*
X22837802Y-15142249D02*
X22666374Y-15399391D01*
X23094945Y-15151772D02*
X23113993Y-15151772D01*
X23113993Y-15151772D02*
X23133040Y-15161296D01*
X23133040Y-15161296D02*
X23142564Y-15170820D01*
X23142564Y-15170820D02*
X23152088Y-15189868D01*
X23152088Y-15189868D02*
X23161612Y-15227963D01*
X23161612Y-15227963D02*
X23161612Y-15275582D01*
X23161612Y-15275582D02*
X23152088Y-15313677D01*
X23152088Y-15313677D02*
X23142564Y-15332725D01*
X23142564Y-15332725D02*
X23133040Y-15342249D01*
X23133040Y-15342249D02*
X23113993Y-15351772D01*
X23113993Y-15351772D02*
X23094945Y-15351772D01*
X23094945Y-15351772D02*
X23075898Y-15342249D01*
X23075898Y-15342249D02*
X23066374Y-15332725D01*
X23066374Y-15332725D02*
X23056850Y-15313677D01*
X23056850Y-15313677D02*
X23047326Y-15275582D01*
X23047326Y-15275582D02*
X23047326Y-15227963D01*
X23047326Y-15227963D02*
X23056850Y-15189868D01*
X23056850Y-15189868D02*
X23066374Y-15170820D01*
X23066374Y-15170820D02*
X23075898Y-15161296D01*
X23075898Y-15161296D02*
X23094945Y-15151772D01*
X23247326Y-15332725D02*
X23256850Y-15342249D01*
X23256850Y-15342249D02*
X23247326Y-15351772D01*
X23247326Y-15351772D02*
X23237802Y-15342249D01*
X23237802Y-15342249D02*
X23247326Y-15332725D01*
X23247326Y-15332725D02*
X23247326Y-15351772D01*
X23380659Y-15151772D02*
X23399707Y-15151772D01*
X23399707Y-15151772D02*
X23418755Y-15161296D01*
X23418755Y-15161296D02*
X23428279Y-15170820D01*
X23428279Y-15170820D02*
X23437802Y-15189868D01*
X23437802Y-15189868D02*
X23447326Y-15227963D01*
X23447326Y-15227963D02*
X23447326Y-15275582D01*
X23447326Y-15275582D02*
X23437802Y-15313677D01*
X23437802Y-15313677D02*
X23428279Y-15332725D01*
X23428279Y-15332725D02*
X23418755Y-15342249D01*
X23418755Y-15342249D02*
X23399707Y-15351772D01*
X23399707Y-15351772D02*
X23380659Y-15351772D01*
X23380659Y-15351772D02*
X23361612Y-15342249D01*
X23361612Y-15342249D02*
X23352088Y-15332725D01*
X23352088Y-15332725D02*
X23342564Y-15313677D01*
X23342564Y-15313677D02*
X23333040Y-15275582D01*
X23333040Y-15275582D02*
X23333040Y-15227963D01*
X23333040Y-15227963D02*
X23342564Y-15189868D01*
X23342564Y-15189868D02*
X23352088Y-15170820D01*
X23352088Y-15170820D02*
X23361612Y-15161296D01*
X23361612Y-15161296D02*
X23380659Y-15151772D01*
X23513993Y-15151772D02*
X23637802Y-15151772D01*
X23637802Y-15151772D02*
X23571136Y-15227963D01*
X23571136Y-15227963D02*
X23599707Y-15227963D01*
X23599707Y-15227963D02*
X23618755Y-15237487D01*
X23618755Y-15237487D02*
X23628279Y-15247011D01*
X23628279Y-15247011D02*
X23637802Y-15266058D01*
X23637802Y-15266058D02*
X23637802Y-15313677D01*
X23637802Y-15313677D02*
X23628279Y-15332725D01*
X23628279Y-15332725D02*
X23618755Y-15342249D01*
X23618755Y-15342249D02*
X23599707Y-15351772D01*
X23599707Y-15351772D02*
X23542564Y-15351772D01*
X23542564Y-15351772D02*
X23523517Y-15342249D01*
X23523517Y-15342249D02*
X23513993Y-15332725D01*
X23733040Y-15351772D02*
X23771136Y-15351772D01*
X23771136Y-15351772D02*
X23790183Y-15342249D01*
X23790183Y-15342249D02*
X23799707Y-15332725D01*
X23799707Y-15332725D02*
X23818755Y-15304153D01*
X23818755Y-15304153D02*
X23828279Y-15266058D01*
X23828279Y-15266058D02*
X23828279Y-15189868D01*
X23828279Y-15189868D02*
X23818755Y-15170820D01*
X23818755Y-15170820D02*
X23809231Y-15161296D01*
X23809231Y-15161296D02*
X23790183Y-15151772D01*
X23790183Y-15151772D02*
X23752088Y-15151772D01*
X23752088Y-15151772D02*
X23733040Y-15161296D01*
X23733040Y-15161296D02*
X23723517Y-15170820D01*
X23723517Y-15170820D02*
X23713993Y-15189868D01*
X23713993Y-15189868D02*
X23713993Y-15237487D01*
X23713993Y-15237487D02*
X23723517Y-15256534D01*
X23723517Y-15256534D02*
X23733040Y-15266058D01*
X23733040Y-15266058D02*
X23752088Y-15275582D01*
X23752088Y-15275582D02*
X23790183Y-15275582D01*
X23790183Y-15275582D02*
X23809231Y-15266058D01*
X23809231Y-15266058D02*
X23818755Y-15256534D01*
X23818755Y-15256534D02*
X23828279Y-15237487D01*
X23999707Y-15218439D02*
X23999707Y-15351772D01*
X23952088Y-15142249D02*
X23904469Y-15285106D01*
X23904469Y-15285106D02*
X24028279Y-15285106D01*
X24094945Y-15151772D02*
X24094945Y-15189868D01*
X24171136Y-15151772D02*
X24171136Y-15189868D01*
X24466374Y-15427963D02*
X24456850Y-15418439D01*
X24456850Y-15418439D02*
X24437802Y-15389868D01*
X24437802Y-15389868D02*
X24428279Y-15370820D01*
X24428279Y-15370820D02*
X24418755Y-15342249D01*
X24418755Y-15342249D02*
X24409231Y-15294630D01*
X24409231Y-15294630D02*
X24409231Y-15256534D01*
X24409231Y-15256534D02*
X24418755Y-15208915D01*
X24418755Y-15208915D02*
X24428279Y-15180344D01*
X24428279Y-15180344D02*
X24437802Y-15161296D01*
X24437802Y-15161296D02*
X24456850Y-15132725D01*
X24456850Y-15132725D02*
X24466374Y-15123201D01*
X24647326Y-15351772D02*
X24533041Y-15351772D01*
X24590183Y-15351772D02*
X24590183Y-15151772D01*
X24590183Y-15151772D02*
X24571136Y-15180344D01*
X24571136Y-15180344D02*
X24552088Y-15199391D01*
X24552088Y-15199391D02*
X24533041Y-15208915D01*
X24723517Y-15170820D02*
X24733041Y-15161296D01*
X24733041Y-15161296D02*
X24752088Y-15151772D01*
X24752088Y-15151772D02*
X24799707Y-15151772D01*
X24799707Y-15151772D02*
X24818755Y-15161296D01*
X24818755Y-15161296D02*
X24828279Y-15170820D01*
X24828279Y-15170820D02*
X24837802Y-15189868D01*
X24837802Y-15189868D02*
X24837802Y-15208915D01*
X24837802Y-15208915D02*
X24828279Y-15237487D01*
X24828279Y-15237487D02*
X24713993Y-15351772D01*
X24713993Y-15351772D02*
X24837802Y-15351772D01*
X25075898Y-15351772D02*
X25075898Y-15151772D01*
X25161612Y-15351772D02*
X25161612Y-15247011D01*
X25161612Y-15247011D02*
X25152088Y-15227963D01*
X25152088Y-15227963D02*
X25133041Y-15218439D01*
X25133041Y-15218439D02*
X25104469Y-15218439D01*
X25104469Y-15218439D02*
X25085422Y-15227963D01*
X25085422Y-15227963D02*
X25075898Y-15237487D01*
X25285422Y-15351772D02*
X25266374Y-15342249D01*
X25266374Y-15342249D02*
X25256850Y-15332725D01*
X25256850Y-15332725D02*
X25247326Y-15313677D01*
X25247326Y-15313677D02*
X25247326Y-15256534D01*
X25247326Y-15256534D02*
X25256850Y-15237487D01*
X25256850Y-15237487D02*
X25266374Y-15227963D01*
X25266374Y-15227963D02*
X25285422Y-15218439D01*
X25285422Y-15218439D02*
X25313993Y-15218439D01*
X25313993Y-15218439D02*
X25333041Y-15227963D01*
X25333041Y-15227963D02*
X25342564Y-15237487D01*
X25342564Y-15237487D02*
X25352088Y-15256534D01*
X25352088Y-15256534D02*
X25352088Y-15313677D01*
X25352088Y-15313677D02*
X25342564Y-15332725D01*
X25342564Y-15332725D02*
X25333041Y-15342249D01*
X25333041Y-15342249D02*
X25313993Y-15351772D01*
X25313993Y-15351772D02*
X25285422Y-15351772D01*
X25466374Y-15351772D02*
X25447326Y-15342249D01*
X25447326Y-15342249D02*
X25437803Y-15323201D01*
X25437803Y-15323201D02*
X25437803Y-15151772D01*
X25618755Y-15342249D02*
X25599707Y-15351772D01*
X25599707Y-15351772D02*
X25561612Y-15351772D01*
X25561612Y-15351772D02*
X25542564Y-15342249D01*
X25542564Y-15342249D02*
X25533041Y-15323201D01*
X25533041Y-15323201D02*
X25533041Y-15247011D01*
X25533041Y-15247011D02*
X25542564Y-15227963D01*
X25542564Y-15227963D02*
X25561612Y-15218439D01*
X25561612Y-15218439D02*
X25599707Y-15218439D01*
X25599707Y-15218439D02*
X25618755Y-15227963D01*
X25618755Y-15227963D02*
X25628279Y-15247011D01*
X25628279Y-15247011D02*
X25628279Y-15266058D01*
X25628279Y-15266058D02*
X25533041Y-15285106D01*
X25704469Y-15342249D02*
X25723517Y-15351772D01*
X25723517Y-15351772D02*
X25761612Y-15351772D01*
X25761612Y-15351772D02*
X25780660Y-15342249D01*
X25780660Y-15342249D02*
X25790184Y-15323201D01*
X25790184Y-15323201D02*
X25790184Y-15313677D01*
X25790184Y-15313677D02*
X25780660Y-15294630D01*
X25780660Y-15294630D02*
X25761612Y-15285106D01*
X25761612Y-15285106D02*
X25733041Y-15285106D01*
X25733041Y-15285106D02*
X25713993Y-15275582D01*
X25713993Y-15275582D02*
X25704469Y-15256534D01*
X25704469Y-15256534D02*
X25704469Y-15247011D01*
X25704469Y-15247011D02*
X25713993Y-15227963D01*
X25713993Y-15227963D02*
X25733041Y-15218439D01*
X25733041Y-15218439D02*
X25761612Y-15218439D01*
X25761612Y-15218439D02*
X25780660Y-15227963D01*
X25856850Y-15427963D02*
X25866374Y-15418439D01*
X25866374Y-15418439D02*
X25885422Y-15389868D01*
X25885422Y-15389868D02*
X25894945Y-15370820D01*
X25894945Y-15370820D02*
X25904469Y-15342249D01*
X25904469Y-15342249D02*
X25913993Y-15294630D01*
X25913993Y-15294630D02*
X25913993Y-15256534D01*
X25913993Y-15256534D02*
X25904469Y-15208915D01*
X25904469Y-15208915D02*
X25894945Y-15180344D01*
X25894945Y-15180344D02*
X25885422Y-15161296D01*
X25885422Y-15161296D02*
X25866374Y-15132725D01*
X25866374Y-15132725D02*
X25856850Y-15123201D01*
M02*
