%TF.GenerationSoftware,KiCad,Pcbnew,7.0.7*%
%TF.CreationDate,2024-04-17T16:10:54-05:00*%
%TF.ProjectId,OM-EPSC3-Micro,4f4d2d45-5053-4433-932d-4d6963726f2e,rev?*%
%TF.SameCoordinates,Original*%
%TF.FileFunction,Copper,L2,Bot*%
%TF.FilePolarity,Positive*%
%FSLAX46Y46*%
G04 Gerber Fmt 4.6, Leading zero omitted, Abs format (unit mm)*
G04 Created by KiCad (PCBNEW 7.0.7) date 2024-04-17 16:10:54*
%MOMM*%
%LPD*%
G01*
G04 APERTURE LIST*
G04 Aperture macros list*
%AMRoundRect*
0 Rectangle with rounded corners*
0 $1 Rounding radius*
0 $2 $3 $4 $5 $6 $7 $8 $9 X,Y pos of 4 corners*
0 Add a 4 corners polygon primitive as box body*
4,1,4,$2,$3,$4,$5,$6,$7,$8,$9,$2,$3,0*
0 Add four circle primitives for the rounded corners*
1,1,$1+$1,$2,$3*
1,1,$1+$1,$4,$5*
1,1,$1+$1,$6,$7*
1,1,$1+$1,$8,$9*
0 Add four rect primitives between the rounded corners*
20,1,$1+$1,$2,$3,$4,$5,0*
20,1,$1+$1,$4,$5,$6,$7,0*
20,1,$1+$1,$6,$7,$8,$9,0*
20,1,$1+$1,$8,$9,$2,$3,0*%
G04 Aperture macros list end*
%TA.AperFunction,ComponentPad*%
%ADD10RoundRect,0.381000X-0.381000X0.881000X-0.381000X-0.881000X0.381000X-0.881000X0.381000X0.881000X0*%
%TD*%
%TA.AperFunction,ComponentPad*%
%ADD11R,1.524000X2.524000*%
%TD*%
%TA.AperFunction,ComponentPad*%
%ADD12R,1.700000X1.700000*%
%TD*%
%TA.AperFunction,ComponentPad*%
%ADD13O,1.700000X1.700000*%
%TD*%
%TA.AperFunction,ComponentPad*%
%ADD14RoundRect,0.381000X0.381000X-0.881000X0.381000X0.881000X-0.381000X0.881000X-0.381000X-0.881000X0*%
%TD*%
%TA.AperFunction,ComponentPad*%
%ADD15R,2.524000X1.524000*%
%TD*%
%TA.AperFunction,ComponentPad*%
%ADD16RoundRect,0.381000X-0.881000X-0.381000X0.881000X-0.381000X0.881000X0.381000X-0.881000X0.381000X0*%
%TD*%
%TA.AperFunction,ComponentPad*%
%ADD17RoundRect,0.250000X-0.750000X0.600000X-0.750000X-0.600000X0.750000X-0.600000X0.750000X0.600000X0*%
%TD*%
%TA.AperFunction,ComponentPad*%
%ADD18O,2.000000X1.700000*%
%TD*%
%TA.AperFunction,ComponentPad*%
%ADD19RoundRect,0.250000X0.750000X-0.600000X0.750000X0.600000X-0.750000X0.600000X-0.750000X-0.600000X0*%
%TD*%
%TA.AperFunction,Conductor*%
%ADD20C,0.250000*%
%TD*%
G04 APERTURE END LIST*
D10*
%TO.P,H1,1,VCC*%
%TO.N,+3V3*%
X224790000Y-99449000D03*
D11*
%TO.P,H1,2,GND*%
%TO.N,GND*%
X222758000Y-99449000D03*
D10*
%TO.P,H1,3,VOUT*%
%TO.N,hall_1*%
X220726000Y-99449000D03*
%TD*%
D12*
%TO.P,J3,1,Pin_1*%
%TO.N,GND*%
X231013000Y-130048000D03*
D13*
%TO.P,J3,2,Pin_2*%
%TO.N,+3V3*%
X231013000Y-132588000D03*
%TO.P,J3,3,Pin_3*%
%TO.N,ADC3*%
X231013000Y-135128000D03*
%TO.P,J3,4,Pin_4*%
%TO.N,ADC2*%
X231013000Y-137668000D03*
%TD*%
D14*
%TO.P,H0,1,VCC*%
%TO.N,+3V3*%
X220726000Y-135628000D03*
D11*
%TO.P,H0,2,GND*%
%TO.N,GND*%
X222758000Y-135628000D03*
D14*
%TO.P,H0,3,VOUT*%
%TO.N,hall_0*%
X224790000Y-135628000D03*
%TD*%
D12*
%TO.P,J4,1,Pin_1*%
%TO.N,GND*%
X226441000Y-140843000D03*
D13*
%TO.P,J4,2,Pin_2*%
%TO.N,+4V*%
X223901000Y-140843000D03*
%TO.P,J4,3,Pin_3*%
%TO.N,SCL*%
X221361000Y-140843000D03*
%TO.P,J4,4,Pin_4*%
%TO.N,SDA*%
X218821000Y-140843000D03*
%TD*%
D14*
%TO.P,U1,0,GPIO0*%
%TO.N,hall_0*%
X232664000Y-125722000D03*
%TO.P,U1,1,GPIO1*%
%TO.N,hall_1*%
X230124000Y-125722000D03*
%TO.P,U1,2,GPIO2*%
%TO.N,ADC2*%
X227584000Y-125722000D03*
%TO.P,U1,3,GPIO3*%
%TO.N,ADC3*%
X225044000Y-125722000D03*
%TO.P,U1,4,GPIO4*%
%TO.N,unconnected-(U1-GPIO4-Pad4)*%
X222504000Y-125722000D03*
%TO.P,U1,5,GPIO5*%
%TO.N,unconnected-(U1-GPIO5-Pad5)*%
X214884000Y-109482000D03*
%TO.P,U1,6,GPIO6*%
%TO.N,unconnected-(U1-GPIO6-Pad6)*%
X217424000Y-109482000D03*
%TO.P,U1,7,GPIO7*%
%TO.N,unconnected-(U1-GPIO7-Pad7)*%
X219964000Y-109482000D03*
%TO.P,U1,8,GPIO8*%
%TO.N,SDA*%
X222504000Y-109482000D03*
%TO.P,U1,9,GPIO9*%
%TO.N,SCL*%
X225044000Y-109482000D03*
%TO.P,U1,10,GPIO10*%
%TO.N,unconnected-(U1-GPIO10-Pad10)*%
X227584000Y-109482000D03*
%TO.P,U1,20,GPIO20*%
%TO.N,unconnected-(U1-GPIO20-Pad20)*%
X230124000Y-109482000D03*
%TO.P,U1,21,GPIO21*%
%TO.N,unconnected-(U1-GPIO21-Pad21)*%
X232664000Y-109482000D03*
%TO.P,U1,100,5V*%
%TO.N,unconnected-(U1-5V-Pad100)*%
X214884000Y-125722000D03*
%TO.P,U1,101,GND*%
%TO.N,GND*%
X217424000Y-125722000D03*
%TO.P,U1,102,3V3*%
%TO.N,+3V3*%
X219964000Y-125722000D03*
%TD*%
D15*
%TO.P,L0,1,GND*%
%TO.N,GND*%
X211971000Y-99060000D03*
D16*
%TO.P,L0,2,VI*%
%TO.N,+4V*%
X211971000Y-101092000D03*
%TO.P,L0,3,VO*%
%TO.N,+3V3*%
X211971000Y-103124000D03*
%TD*%
D17*
%TO.P,J1,1,Pin_1*%
%TO.N,GND*%
X213741000Y-132120000D03*
D18*
%TO.P,J1,2,Pin_2*%
%TO.N,+4V*%
X213741000Y-134620000D03*
%TD*%
D19*
%TO.P,J2,1,Pin_1*%
%TO.N,GND*%
X231521000Y-102997000D03*
D18*
%TO.P,J2,2,Pin_2*%
%TO.N,+4V*%
X231521000Y-100497000D03*
%TD*%
D20*
%TO.N,ADC3*%
X231013000Y-135128000D02*
X231013000Y-133951100D01*
X230647200Y-133951100D02*
X231013000Y-133951100D01*
X229196500Y-132500400D02*
X230647200Y-133951100D01*
X229196500Y-130543300D02*
X229196500Y-132500400D01*
X225044000Y-126390800D02*
X229196500Y-130543300D01*
X225044000Y-125222000D02*
X225044000Y-126390800D01*
%TO.N,hall_0*%
X225981900Y-136319900D02*
X224790000Y-135128000D01*
X231491900Y-136319900D02*
X225981900Y-136319900D01*
X232664000Y-135147800D02*
X231491900Y-136319900D01*
X232664000Y-125222000D02*
X232664000Y-135147800D01*
%TO.N,+3V3*%
X224790000Y-98950900D02*
X224790000Y-99949000D01*
X223697400Y-97858300D02*
X224790000Y-98950900D01*
X217736700Y-97858300D02*
X223697400Y-97858300D01*
X212471000Y-103124000D02*
X217736700Y-97858300D01*
X221061800Y-124124200D02*
X219964000Y-125222000D01*
X225706800Y-124124200D02*
X221061800Y-124124200D01*
X226314000Y-124731400D02*
X225706800Y-124124200D01*
X226314000Y-126943400D02*
X226314000Y-124731400D01*
X229836100Y-130465500D02*
X226314000Y-126943400D01*
X229836100Y-131056600D02*
X229836100Y-130465500D01*
X230190600Y-131411100D02*
X229836100Y-131056600D01*
X231013000Y-131411100D02*
X230190600Y-131411100D01*
X231013000Y-132588000D02*
X231013000Y-131411100D01*
%TO.N,GND*%
X223901000Y-101092000D02*
X222758000Y-99949000D01*
X229616000Y-101092000D02*
X223901000Y-101092000D01*
X231521000Y-102997000D02*
X229616000Y-101092000D01*
X225264100Y-139723000D02*
X225264100Y-140843000D01*
X222758000Y-137216900D02*
X225264100Y-139723000D01*
X222758000Y-135128000D02*
X222758000Y-137216900D01*
X226441000Y-140843000D02*
X225264100Y-140843000D01*
X231013000Y-130048000D02*
X231013000Y-128871100D01*
X221183400Y-133553400D02*
X222758000Y-135128000D01*
X219128300Y-133553400D02*
X221183400Y-133553400D01*
X215718000Y-130143000D02*
X219128300Y-133553400D01*
X213741000Y-132120000D02*
X215718000Y-130143000D01*
X217424000Y-128437000D02*
X217424000Y-125222000D01*
X215718000Y-130143000D02*
X217424000Y-128437000D01*
X231521000Y-119988200D02*
X231521000Y-102997000D01*
X227844300Y-123664900D02*
X231521000Y-119988200D01*
X218981100Y-123664900D02*
X227844300Y-123664900D01*
X217424000Y-125222000D02*
X218981100Y-123664900D01*
X228854000Y-126712100D02*
X231013000Y-128871100D01*
X228854000Y-124674600D02*
X228854000Y-126712100D01*
X227844300Y-123664900D02*
X228854000Y-124674600D01*
%TO.N,+4V*%
X222724100Y-140477200D02*
X222724100Y-140843000D01*
X218043800Y-135796900D02*
X222724100Y-140477200D01*
X213741000Y-135796900D02*
X218043800Y-135796900D01*
X213741000Y-134620000D02*
X213741000Y-135796900D01*
X223901000Y-140843000D02*
X222724100Y-140843000D01*
X229595500Y-97394600D02*
X231521000Y-99320100D01*
X216168400Y-97394600D02*
X229595500Y-97394600D01*
X212471000Y-101092000D02*
X216168400Y-97394600D01*
X231521000Y-100497000D02*
X231521000Y-99320100D01*
%TD*%
M02*
