%TF.GenerationSoftware,KiCad,Pcbnew,7.0.7*%
%TF.CreationDate,2024-04-17T16:10:39-05:00*%
%TF.ProjectId,OM-EPSC3-Micro,4f4d2d45-5053-4433-932d-4d6963726f2e,rev?*%
%TF.SameCoordinates,Original*%
%TF.FileFunction,Drillmap*%
%TF.FilePolarity,Positive*%
%FSLAX45Y45*%
G04 Gerber Fmt 4.5, Leading zero omitted, Abs format (unit mm)*
G04 Created by KiCad (PCBNEW 7.0.7) date 2024-04-17 16:10:39*
%MOMM*%
%LPD*%
G01*
G04 APERTURE LIST*
%ADD10C,0.003779*%
%ADD11C,0.200000*%
G04 APERTURE END LIST*
D10*
X22016500Y-10617700D02*
X22016500Y-10706100D01*
X21489500Y-9156100D02*
X21899100Y-9156100D01*
X22729000Y-10391100D02*
X22718300Y-10399384D01*
X21085000Y-9483500D02*
X21095100Y-9509100D01*
X22701500Y-10493600D02*
X22713500Y-10509100D01*
X21804000Y-10521100D02*
X21819500Y-10509100D01*
X21095100Y-14109100D02*
X21111300Y-14131400D01*
X23235000Y-9428700D02*
X23231500Y-9456100D01*
X21095100Y-9403100D02*
X21085000Y-9428700D01*
X22016500Y-13306100D02*
X22516500Y-13306100D01*
X21729000Y-13121100D02*
X21747100Y-13128500D01*
X21766500Y-10381100D02*
X21747100Y-10383700D01*
X20906200Y-9363400D02*
X20924200Y-9319900D01*
X23641500Y-10617700D02*
X23641500Y-12256100D01*
X21831500Y-10418600D02*
X21827087Y-10412900D01*
X21694300Y-10436211D02*
X21694100Y-10436700D01*
X21144600Y-14352400D02*
X21098800Y-14341400D01*
X21212100Y-9348000D02*
X21184600Y-9346300D01*
X23411600Y-14140900D02*
X23430500Y-14120800D01*
X21899100Y-9156100D02*
X22718300Y-9156100D01*
X21729000Y-12991100D02*
X21713500Y-13003100D01*
X23245100Y-9509100D02*
X23261300Y-9531400D01*
X23641500Y-12256100D02*
X23641500Y-13075300D01*
X23430500Y-13991400D02*
X23411600Y-13971300D01*
X23641500Y-13248368D02*
X23641500Y-13494166D01*
X23334600Y-9565900D02*
X23362100Y-9564200D01*
X23584200Y-14232400D02*
X23553600Y-14268200D01*
X23388300Y-9356600D02*
X23362100Y-9348000D01*
X21015200Y-14298800D02*
X20979400Y-14268200D01*
X21184600Y-9565900D02*
X21212100Y-9564200D01*
X21747100Y-12983700D02*
X21729000Y-12991100D01*
X23282600Y-9549000D02*
X23307500Y-9560700D01*
X21838900Y-10436700D02*
X21831500Y-10418600D01*
X22819500Y-13003100D02*
X22804000Y-12991100D01*
X22804000Y-10521100D02*
X22819500Y-10509100D01*
X21694073Y-13075300D02*
X21694100Y-13075500D01*
X21831500Y-13018600D02*
X21819500Y-13003100D01*
X23428149Y-9388900D02*
X23411600Y-9371300D01*
X21284700Y-9399042D02*
X21280500Y-9391400D01*
X20906200Y-14148800D02*
X20895200Y-14103000D01*
X21111300Y-9380800D02*
X21105416Y-9388900D01*
X23411600Y-9371300D02*
X23388300Y-9356600D01*
X21838927Y-13075300D02*
X21841500Y-13056100D01*
X23517800Y-9213400D02*
X23537500Y-9230239D01*
X21085000Y-14028700D02*
X21081500Y-14056100D01*
X23537500Y-9230239D02*
X23553600Y-9244000D01*
X23641500Y-14056100D02*
X23637800Y-14103000D01*
X23282600Y-13963200D02*
X23261300Y-13980800D01*
X21080277Y-9178465D02*
X21098800Y-9170800D01*
X23307500Y-9351500D02*
X23282600Y-9363200D01*
X22718300Y-10512816D02*
X22729000Y-10521100D01*
X21831500Y-13093600D02*
X21838900Y-13075500D01*
X21280500Y-9520800D02*
X21284700Y-9513158D01*
X23307500Y-9560700D02*
X23332700Y-9565536D01*
X23388300Y-13956599D02*
X23362100Y-13948000D01*
X21079900Y-9178621D02*
X21080277Y-9178465D01*
X20979400Y-14268200D02*
X20948800Y-14232400D01*
X22804000Y-13121100D02*
X22819500Y-13109100D01*
X20948800Y-14232400D02*
X20924200Y-14192300D01*
X21691500Y-13056100D02*
X21694073Y-13075300D01*
X21238300Y-9555600D02*
X21261600Y-9540900D01*
X21085000Y-14083500D02*
X21091234Y-14099300D01*
X23411600Y-13971300D02*
X23388300Y-13956599D01*
X23334600Y-14165900D02*
X23362100Y-14164200D01*
X23443800Y-14015600D02*
X23430500Y-13991400D01*
X21081500Y-14056100D02*
X21085000Y-14083500D01*
X22694100Y-10436700D02*
X22691500Y-10456100D01*
X22701500Y-13093600D02*
X22713500Y-13109100D01*
X21261600Y-9540900D02*
X21280500Y-9520800D01*
X22516500Y-13306100D02*
X22516500Y-13075300D01*
X23362100Y-13948000D02*
X23334600Y-13946300D01*
X22713500Y-13003100D02*
X22701500Y-13018600D01*
X21212100Y-14164200D02*
X21238300Y-14155600D01*
X21284700Y-13999042D02*
X21280500Y-13991400D01*
X22718300Y-9156100D02*
X23127900Y-9156100D01*
X21278149Y-9388900D02*
X21261600Y-9371300D01*
X21238300Y-14155600D02*
X21261600Y-14140900D01*
X20891500Y-10706100D02*
X20891500Y-10617700D01*
X23553600Y-9244000D02*
X23584200Y-9279800D01*
X21144600Y-9159800D02*
X21191500Y-9156100D01*
X21827087Y-10412900D02*
X21819500Y-10403100D01*
X23282600Y-14149000D02*
X23307500Y-14160700D01*
X21157500Y-9351500D02*
X21132600Y-9363200D01*
X22804000Y-10391100D02*
X22785900Y-10383700D01*
X21899100Y-14356100D02*
X21489500Y-14356100D01*
X22694100Y-10475500D02*
X22701500Y-10493600D01*
X23641500Y-13075300D02*
X23641500Y-13248368D01*
X21157500Y-13951500D02*
X21132600Y-13963200D01*
X22516500Y-10617700D02*
X22516500Y-10206100D01*
X21261600Y-9371300D02*
X21238300Y-9356600D01*
X21729000Y-10391100D02*
X21713500Y-10403100D01*
X23517800Y-14298800D02*
X23509160Y-14304100D01*
X21841500Y-13056100D02*
X21838900Y-13036700D01*
X21055300Y-14323400D02*
X21015200Y-14298800D01*
X23626800Y-14148800D02*
X23608800Y-14192300D01*
X22691500Y-10456100D02*
X22694100Y-10475500D01*
X23307500Y-14160700D02*
X23334600Y-14165900D01*
X23641500Y-13494166D02*
X23641500Y-13827551D01*
X23245100Y-9403100D02*
X23235000Y-9428700D01*
X22691500Y-13056100D02*
X22694073Y-13075300D01*
X21238300Y-9356600D02*
X21212100Y-9348000D01*
X22016500Y-10206100D02*
X22016500Y-10617700D01*
X21293800Y-9415600D02*
X21284700Y-9399042D01*
X21838900Y-13075500D02*
X21838927Y-13075300D01*
X21831500Y-10493600D02*
X21838900Y-10475500D01*
X23608800Y-9319900D02*
X23626800Y-9363400D01*
X23450600Y-9469900D02*
X23450600Y-9442300D01*
X22747100Y-12983700D02*
X22729000Y-12991100D01*
X23245100Y-14003100D02*
X23235000Y-14028700D01*
X23450600Y-9442300D02*
X23443800Y-9415600D01*
X20891500Y-10617700D02*
X20891500Y-9456100D01*
X22785900Y-10528500D02*
X22804000Y-10521100D01*
X22016500Y-13075300D02*
X22016500Y-13306100D01*
X23450600Y-14042300D02*
X23443800Y-14015600D01*
X21300600Y-9442300D02*
X21293800Y-9415600D01*
X21184600Y-14165900D02*
X21212100Y-14164200D01*
X23477700Y-14323400D02*
X23434200Y-14341400D01*
X21280500Y-9391400D02*
X21278149Y-9388900D01*
X22016500Y-10706100D02*
X22516500Y-10706100D01*
X22831500Y-13093600D02*
X22838900Y-13075500D01*
X23641500Y-9798500D02*
X23641500Y-10617700D01*
X23537500Y-14281961D02*
X23517800Y-14298800D01*
X22701500Y-10418600D02*
X22694100Y-10436700D01*
X21191500Y-14356100D02*
X21144600Y-14352400D01*
X23434200Y-14341400D02*
X23388400Y-14352400D01*
X23334600Y-13946300D02*
X23332700Y-13946664D01*
X23235000Y-9483500D02*
X23245100Y-9509100D01*
X20948800Y-9279800D02*
X20979400Y-9244000D01*
X20891500Y-12256100D02*
X20891500Y-10706100D01*
X22747100Y-13128500D02*
X22766500Y-13131100D01*
X21157500Y-14160700D02*
X21184600Y-14165900D01*
X22747100Y-10383700D02*
X22729000Y-10391100D01*
X21819500Y-13109100D02*
X21831500Y-13093600D01*
X21838900Y-13036700D02*
X21831500Y-13018600D01*
X22713500Y-13109100D02*
X22718300Y-13112816D01*
X22819500Y-10509100D02*
X22831500Y-10493600D01*
X23637800Y-9409200D02*
X23641500Y-9456100D01*
X22838900Y-13036700D02*
X22831500Y-13018600D01*
X22694100Y-13036700D02*
X22691500Y-13056100D01*
X21280500Y-14120800D02*
X21292316Y-14099300D01*
X23261300Y-9380800D02*
X23255416Y-9388900D01*
X23608800Y-14192300D02*
X23584200Y-14232400D01*
X21055300Y-9188800D02*
X21079900Y-9178621D01*
X20924200Y-9319900D02*
X20948800Y-9279800D01*
X21691500Y-10456100D02*
X21694100Y-10475500D01*
X21132600Y-9363200D02*
X21111300Y-9380800D01*
X22785900Y-10383700D02*
X22766500Y-10381100D01*
X21081500Y-9456100D02*
X21085000Y-9483500D01*
X21184600Y-9346300D02*
X21157500Y-9351500D01*
X21713500Y-10403100D02*
X21705913Y-10412900D01*
X23637800Y-14103000D02*
X23626800Y-14148800D01*
X23443800Y-9496600D02*
X23450600Y-9469900D01*
X23411600Y-9540900D02*
X23430500Y-9520800D01*
X21300600Y-14042300D02*
X21293800Y-14015600D01*
X22831500Y-10418600D02*
X22827087Y-10412900D01*
X22718300Y-14356100D02*
X21899100Y-14356100D01*
X21212100Y-9564200D02*
X21238300Y-9555600D01*
X21694100Y-10436700D02*
X21691500Y-10456100D01*
X21098800Y-14341400D02*
X21079900Y-14333579D01*
X21091234Y-14099300D02*
X21095100Y-14109100D01*
X21300600Y-9469900D02*
X21300600Y-9442300D01*
X23509160Y-14304100D02*
X23477700Y-14323400D01*
X22729000Y-12991100D02*
X22718300Y-12999384D01*
X21085000Y-9428700D02*
X21081500Y-9456100D01*
X21261600Y-14140900D02*
X21280500Y-14120800D01*
X21713500Y-10509100D02*
X21729000Y-10521100D01*
X23261300Y-13980800D02*
X23245100Y-14003100D01*
X23362100Y-14164200D02*
X23388300Y-14155600D01*
X23434200Y-9170800D02*
X23477700Y-9188800D01*
X20979400Y-9244000D02*
X21015200Y-9213400D01*
X23641500Y-9456100D02*
X23641500Y-9798500D01*
X22827087Y-10412900D02*
X22819500Y-10403100D01*
X21701500Y-10493600D02*
X21713500Y-10509100D01*
X21098800Y-9170800D02*
X21144600Y-9159800D01*
X21111300Y-9531400D02*
X21132600Y-9549000D01*
X22729000Y-13121100D02*
X22747100Y-13128500D01*
X21747100Y-10383700D02*
X21729000Y-10391100D01*
X23626800Y-9363400D02*
X23637800Y-9409200D01*
X21261600Y-13971300D02*
X21238300Y-13956599D01*
X22516500Y-10206100D02*
X22016500Y-10206100D01*
X22841500Y-13056100D02*
X22838900Y-13036700D01*
X23442316Y-14099300D02*
X23443800Y-14096600D01*
X22713500Y-10403100D02*
X22701500Y-10418600D01*
X22718300Y-13112816D02*
X22729000Y-13121100D01*
X23430500Y-14120800D02*
X23442316Y-14099300D01*
X22701500Y-13018600D02*
X22694100Y-13036700D01*
X23388300Y-14155600D02*
X23411600Y-14140900D01*
X23282600Y-9363200D02*
X23261300Y-9380800D01*
X21293800Y-14096600D02*
X21300600Y-14069900D01*
X21785900Y-13128500D02*
X21804000Y-13121100D01*
X23443800Y-14096600D02*
X23450600Y-14069900D01*
X23450600Y-14069900D02*
X23450600Y-14042300D01*
X23261300Y-14131400D02*
X23282600Y-14149000D01*
X21132600Y-14149000D02*
X21157500Y-14160700D01*
X21838900Y-10475500D02*
X21841500Y-10456100D01*
X21841500Y-10456100D02*
X21838900Y-10436700D01*
X23235000Y-14083500D02*
X23241234Y-14099300D01*
X21729000Y-10521100D02*
X21747100Y-10528500D01*
X22804000Y-12991100D02*
X22785900Y-12983700D01*
X23388400Y-9159800D02*
X23434200Y-9170800D01*
X21184600Y-13946300D02*
X21157500Y-13951500D01*
X20924200Y-14192300D02*
X20906200Y-14148800D01*
X22831500Y-10493600D02*
X22838900Y-10475500D01*
X20895200Y-14103000D02*
X20891500Y-14056100D01*
X21292316Y-14099300D02*
X21293800Y-14096600D01*
X22516500Y-10706100D02*
X22516500Y-10617700D01*
X21701500Y-13093600D02*
X21713500Y-13109100D01*
X21095100Y-14003100D02*
X21085000Y-14028700D01*
X22841500Y-10456100D02*
X22838900Y-10436700D01*
X22785900Y-13128500D02*
X22804000Y-13121100D01*
X23641500Y-13894500D02*
X23641500Y-14056100D01*
X22729000Y-10521100D02*
X22747100Y-10528500D01*
X21079900Y-14333579D02*
X21055300Y-14323400D01*
X21293800Y-14015600D02*
X21284700Y-13999042D01*
X23231500Y-14056100D02*
X23235000Y-14083500D01*
X21694300Y-10475989D02*
X21701500Y-10493600D01*
X21785900Y-10383700D02*
X21766500Y-10381100D01*
X23209248Y-9156100D02*
X23341500Y-9156100D01*
X21111300Y-14131400D02*
X21132600Y-14149000D01*
X21280500Y-13991400D02*
X21261600Y-13971300D01*
X23341500Y-14356100D02*
X23127900Y-14356100D01*
X23334600Y-9346300D02*
X23307500Y-9351500D01*
X21694100Y-13036700D02*
X21691500Y-13056100D01*
X23307500Y-13951500D02*
X23282600Y-13963200D01*
X21212100Y-13948000D02*
X21184600Y-13946300D01*
X21804000Y-10391100D02*
X21785900Y-10383700D01*
X22785900Y-12983700D02*
X22766500Y-12981100D01*
X21105416Y-9388900D02*
X21095100Y-9403100D01*
X23430500Y-9391400D02*
X23428149Y-9388900D01*
X22838900Y-10436700D02*
X22831500Y-10418600D01*
X21157500Y-9560700D02*
X21184600Y-9565900D01*
X21766500Y-13131100D02*
X21785900Y-13128500D01*
X23332700Y-13946664D02*
X23307500Y-13951500D01*
X22838900Y-13075500D02*
X22838927Y-13075300D01*
X21785900Y-10528500D02*
X21804000Y-10521100D01*
X21804000Y-12991100D02*
X21785900Y-12983700D01*
X22694073Y-13075300D02*
X22694100Y-13075500D01*
X20891500Y-13894500D02*
X20891500Y-12256100D01*
X21132600Y-13963200D02*
X21111300Y-13980800D01*
X22516500Y-12806100D02*
X22016500Y-12806100D01*
X22718300Y-12999384D02*
X22713500Y-13003100D01*
X21819500Y-10509100D02*
X21831500Y-10493600D01*
X23241234Y-14099300D02*
X23245100Y-14109100D01*
X23231500Y-9456100D02*
X23235000Y-9483500D01*
X23443800Y-9415600D02*
X23430500Y-9391400D01*
X21747100Y-10528500D02*
X21766500Y-10531100D01*
X21095100Y-9509100D02*
X21111300Y-9531400D01*
X23362100Y-9564200D02*
X23388300Y-9555600D01*
X23245100Y-14109100D02*
X23261300Y-14131400D01*
X23430500Y-9520800D02*
X23443800Y-9496600D01*
X22747100Y-10528500D02*
X22766500Y-10531100D01*
X21713500Y-13109100D02*
X21729000Y-13121100D01*
X23255416Y-9388900D02*
X23245100Y-9403100D01*
X21489500Y-14356100D02*
X21191500Y-14356100D01*
X22819500Y-10403100D02*
X22804000Y-10391100D01*
X21705913Y-10412900D02*
X21701500Y-10418600D01*
X21819500Y-13003100D02*
X21804000Y-12991100D01*
X22831500Y-13018600D02*
X22819500Y-13003100D01*
X23332700Y-9565536D02*
X23334600Y-9565900D01*
X21694100Y-10475500D02*
X21694300Y-10475989D01*
X22516500Y-13075300D02*
X22516500Y-12806100D01*
X21111300Y-13980800D02*
X21095100Y-14003100D01*
X22766500Y-10531100D02*
X22785900Y-10528500D01*
X22016500Y-12806100D02*
X22016500Y-13075300D01*
X21694100Y-13075500D02*
X21701500Y-13093600D01*
X22838900Y-10475500D02*
X22841500Y-10456100D01*
X22766500Y-10381100D02*
X22747100Y-10383700D01*
X23261300Y-9531400D02*
X23282600Y-9549000D01*
X23641500Y-13827551D02*
X23641500Y-13894500D01*
X20895200Y-9409200D02*
X20906200Y-9363400D01*
X22766500Y-13131100D02*
X22785900Y-13128500D01*
X23341500Y-9156100D02*
X23388400Y-9159800D01*
X21132600Y-9549000D02*
X21157500Y-9560700D01*
X20891500Y-9456100D02*
X20895200Y-9409200D01*
X21300600Y-14069900D02*
X21300600Y-14042300D01*
X22718300Y-10399384D02*
X22713500Y-10403100D01*
X23388400Y-14352400D02*
X23341500Y-14356100D01*
X21238300Y-13956599D02*
X21212100Y-13948000D01*
X23553600Y-14268200D02*
X23537500Y-14281961D01*
X22713500Y-10509100D02*
X22718300Y-10512816D01*
X22766500Y-12981100D02*
X22747100Y-12983700D01*
X23477700Y-9188800D02*
X23517800Y-9213400D01*
X23388300Y-9555600D02*
X23411600Y-9540900D01*
X21701500Y-10418600D02*
X21694300Y-10436211D01*
X21819500Y-10403100D02*
X21804000Y-10391100D01*
X21701500Y-13018600D02*
X21694100Y-13036700D01*
X21191500Y-9156100D02*
X21489500Y-9156100D01*
X21293800Y-9496600D02*
X21300600Y-9469900D01*
X21284700Y-9513158D02*
X21293800Y-9496600D01*
X20891500Y-14056100D02*
X20891500Y-13894500D01*
X23127900Y-14356100D02*
X22718300Y-14356100D01*
X22819500Y-13109100D02*
X22831500Y-13093600D01*
X23584200Y-9279800D02*
X23608800Y-9319900D01*
X23127900Y-9156100D02*
X23209248Y-9156100D01*
X21747100Y-13128500D02*
X21766500Y-13131100D01*
X21804000Y-13121100D02*
X21819500Y-13109100D01*
X21713500Y-13003100D02*
X21701500Y-13018600D01*
X21015200Y-9213400D02*
X21055300Y-9188800D01*
X21785900Y-12983700D02*
X21766500Y-12981100D01*
X22694100Y-13075500D02*
X22701500Y-13093600D01*
X23362100Y-9348000D02*
X23334600Y-9346300D01*
X21766500Y-10531100D02*
X21785900Y-10528500D01*
X22838927Y-13075300D02*
X22841500Y-13056100D01*
X21766500Y-12981100D02*
X21747100Y-12983700D01*
X23235000Y-14028700D02*
X23231500Y-14056100D01*
D11*
X21152088Y-14667772D02*
X21152088Y-14467772D01*
X21152088Y-14467772D02*
X21199707Y-14467772D01*
X21199707Y-14467772D02*
X21228278Y-14477296D01*
X21228278Y-14477296D02*
X21247326Y-14496344D01*
X21247326Y-14496344D02*
X21256850Y-14515391D01*
X21256850Y-14515391D02*
X21266374Y-14553487D01*
X21266374Y-14553487D02*
X21266374Y-14582058D01*
X21266374Y-14582058D02*
X21256850Y-14620153D01*
X21256850Y-14620153D02*
X21247326Y-14639201D01*
X21247326Y-14639201D02*
X21228278Y-14658249D01*
X21228278Y-14658249D02*
X21199707Y-14667772D01*
X21199707Y-14667772D02*
X21152088Y-14667772D01*
X21352088Y-14667772D02*
X21352088Y-14534439D01*
X21352088Y-14572534D02*
X21361612Y-14553487D01*
X21361612Y-14553487D02*
X21371136Y-14543963D01*
X21371136Y-14543963D02*
X21390183Y-14534439D01*
X21390183Y-14534439D02*
X21409231Y-14534439D01*
X21475897Y-14667772D02*
X21475897Y-14534439D01*
X21475897Y-14467772D02*
X21466374Y-14477296D01*
X21466374Y-14477296D02*
X21475897Y-14486820D01*
X21475897Y-14486820D02*
X21485421Y-14477296D01*
X21485421Y-14477296D02*
X21475897Y-14467772D01*
X21475897Y-14467772D02*
X21475897Y-14486820D01*
X21599707Y-14667772D02*
X21580659Y-14658249D01*
X21580659Y-14658249D02*
X21571136Y-14639201D01*
X21571136Y-14639201D02*
X21571136Y-14467772D01*
X21704469Y-14667772D02*
X21685421Y-14658249D01*
X21685421Y-14658249D02*
X21675897Y-14639201D01*
X21675897Y-14639201D02*
X21675897Y-14467772D01*
X21933040Y-14667772D02*
X21933040Y-14467772D01*
X21933040Y-14467772D02*
X21999707Y-14610630D01*
X21999707Y-14610630D02*
X22066374Y-14467772D01*
X22066374Y-14467772D02*
X22066374Y-14667772D01*
X22247326Y-14667772D02*
X22247326Y-14563011D01*
X22247326Y-14563011D02*
X22237802Y-14543963D01*
X22237802Y-14543963D02*
X22218755Y-14534439D01*
X22218755Y-14534439D02*
X22180659Y-14534439D01*
X22180659Y-14534439D02*
X22161612Y-14543963D01*
X22247326Y-14658249D02*
X22228278Y-14667772D01*
X22228278Y-14667772D02*
X22180659Y-14667772D01*
X22180659Y-14667772D02*
X22161612Y-14658249D01*
X22161612Y-14658249D02*
X22152088Y-14639201D01*
X22152088Y-14639201D02*
X22152088Y-14620153D01*
X22152088Y-14620153D02*
X22161612Y-14601106D01*
X22161612Y-14601106D02*
X22180659Y-14591582D01*
X22180659Y-14591582D02*
X22228278Y-14591582D01*
X22228278Y-14591582D02*
X22247326Y-14582058D01*
X22342564Y-14534439D02*
X22342564Y-14734439D01*
X22342564Y-14543963D02*
X22361612Y-14534439D01*
X22361612Y-14534439D02*
X22399707Y-14534439D01*
X22399707Y-14534439D02*
X22418755Y-14543963D01*
X22418755Y-14543963D02*
X22428278Y-14553487D01*
X22428278Y-14553487D02*
X22437802Y-14572534D01*
X22437802Y-14572534D02*
X22437802Y-14629677D01*
X22437802Y-14629677D02*
X22428278Y-14648725D01*
X22428278Y-14648725D02*
X22418755Y-14658249D01*
X22418755Y-14658249D02*
X22399707Y-14667772D01*
X22399707Y-14667772D02*
X22361612Y-14667772D01*
X22361612Y-14667772D02*
X22342564Y-14658249D01*
X22523516Y-14648725D02*
X22533040Y-14658249D01*
X22533040Y-14658249D02*
X22523516Y-14667772D01*
X22523516Y-14667772D02*
X22513993Y-14658249D01*
X22513993Y-14658249D02*
X22523516Y-14648725D01*
X22523516Y-14648725D02*
X22523516Y-14667772D01*
X22523516Y-14543963D02*
X22533040Y-14553487D01*
X22533040Y-14553487D02*
X22523516Y-14563011D01*
X22523516Y-14563011D02*
X22513993Y-14553487D01*
X22513993Y-14553487D02*
X22523516Y-14543963D01*
X22523516Y-14543963D02*
X22523516Y-14563011D01*
M02*
