<?xml version="1.0" encoding="UTF-8"?>
<svg id="Layer_1" data-name="Layer 1" xmlns="http://www.w3.org/2000/svg" width="1.333in" height="1.407in" viewBox="0 0 95.976 101.304">
  <g>
    <path d="M85.216,34.295c0,1.096-.797,1.788-1.756,1.788-1.073,0-1.925-.856-1.925-1.902s.855-1.911,1.904-1.911c.465,.002,.995,.227,1.344,.565l-.323,.48c-.288-.284-.678-.462-1.027-.462-.673,0-1.31,.563-1.31,1.328,0,.723,.574,1.318,1.362,1.318,.634,0,1.109-.387,1.109-.95v-.012h-1.142v-.531h1.746c.01,.084,.017,.186,.017,.289Z"/>
    <path d="M85.339,39.332l-1.703,3.765h-.038l-1.696-3.765h.615l1.099,2.497,1.104-2.497h.62Z"/>
    <path d="M81.603,49.46h-1.746l-.252,.561h-.627l1.734-3.765h.035l1.734,3.765h-.627l-.252-.561Zm-.224-.497l-.648-1.442-.649,1.442h1.298Z"/>
    <path d="M85.218,48.92c0,.607-.545,1.135-1.243,1.135-.598,0-1.128-.405-1.254-.913l.567-.144c.068,.279,.354,.485,.673,.485,.392,0,.673-.291,.673-.604,0-.449-.453-.732-1.089-.728l.091-.338c.429,0,.811-.206,.811-.554,0-.272-.222-.464-.494-.464-.229,0-.426,.16-.47,.384l-.593-.124c.101-.439,.518-.829,1.066-.829,.579,0,1.071,.419,1.071,.989,0,.373-.217,.641-.482,.749,.382,.137,.673,.451,.673,.957Z"/>
    <path d="M81.336,56.461h-1.746l-.252,.561h-.627l1.734-3.766h.035l1.734,3.766h-.627l-.252-.561Zm-.225-.497l-.647-1.442-.649,1.442h1.297Z"/>
    <path d="M85.219,56.444v.577h-2.765v-.124c1.518-1.229,2.136-1.867,2.136-2.316,0-.416-.339-.726-.691-.726-.431,0-.776,.344-.776,.788l-.528-.129c0-.693,.574-1.238,1.286-1.238,.724,0,1.291,.596,1.291,1.275,0,.639-.65,1.359-1.485,1.893h1.533Z"/>
    <path d="M82.847,63.461h-1.746l-.252,.561h-.627l1.734-3.765h.035l1.734,3.765h-.627l-.252-.561Zm-.224-.497l-.648-1.441-.649,1.441h1.298Z"/>
    <path d="M85.043,60.298v3.724h-.579v-2.98l-.499,.149v-.604l.908-.288h.17Z"/>
    <path d="M81.089,70.461h-1.746l-.252,.561h-.627l1.734-3.765h.035l1.734,3.765h-.627l-.252-.561Zm-.224-.497l-.648-1.441-.649,1.441h1.298Z"/>
    <path d="M82.207,69.177c0-1.112,.608-1.899,1.506-1.899s1.506,.787,1.506,1.899-.608,1.897-1.506,1.897-1.506-.787-1.506-1.897Zm2.431,0c0-.771-.371-1.318-.927-1.318-.559,0-.928,.547-.928,1.318s.369,1.313,.928,1.313c.556,0,.927-.545,.927-1.313Z"/>
  </g>
  <path d="M27.035,14.649v.231l-3.184,7.713h-1.311l2.726-6.728h-3.662v-1.217h5.432Z"/>
  <path d="M50.787,20.006c0,1.444-1.242,2.691-2.81,2.691-1.552,0-2.78-1.074-2.78-2.632,0-.937,.385-1.311,2.676-5.417l1.415,.005-1.74,2.997c.256-.099,.527-.148,.793-.148,1.247,0,2.445,1.015,2.445,2.504Zm-1.237-.04c0-.823-.7-1.508-1.548-1.508-.853,0-1.558,.685-1.558,1.513,0,.789,.7,1.483,1.553,1.483,.848,0,1.553-.7,1.553-1.488Z"/>
  <path d="M73.67,19.804c0,1.69-1.306,2.858-2.913,2.858-1.168,0-2.286-.66-2.726-1.676l1.232-.389c.267,.493,.897,.823,1.439,.823,.798,0,1.671-.557,1.671-1.617,0-.932-.666-1.542-1.637-1.542-.71,0-1.439,.359-1.739,.931l-.7-.419,.587-4.13h4.095v1.242h-3.154l-.251,1.637c.37-.34,.823-.468,1.336-.468,1.681,0,2.76,1.173,2.76,2.75Z"/>
  <g>
    <path d="M46.26,58.642l-1.703,3.765h-.038l-1.696-3.765h.615l1.099,2.497,1.104-2.497h.62Z"/>
    <path d="M51.555,60.605c0,1.096-.797,1.787-1.756,1.787-1.073,0-1.925-.856-1.925-1.902s.855-1.911,1.904-1.911c.465,.003,.995,.227,1.344,.565l-.323,.48c-.288-.283-.678-.462-1.027-.462-.673,0-1.31,.563-1.31,1.327,0,.724,.574,1.318,1.362,1.318,.634,0,1.109-.387,1.109-.949v-.012h-1.142v-.531h1.746c.01,.085,.017,.186,.017,.289Z"/>
    <path d="M53.292,60.49c0-1.053,.855-1.913,1.906-1.913s1.909,.86,1.909,1.913c0,1.044-.86,1.9-1.911,1.9s-1.904-.856-1.904-1.9Zm3.229-.004c0-.73-.598-1.325-1.325-1.325s-1.321,.595-1.321,1.325c0,.726,.594,1.318,1.321,1.318s1.325-.593,1.325-1.318Z"/>
  </g>
  <g>
    <path d="M40.27,84.119l-.327-.458c.289-.165,.453-.472,.453-.826,0-.414-.199-.728-.48-.728-.341,0-.547,.484-.732,.915-.192,.433-.417,.913-.996,.913-.604,0-1.025-.524-1.025-1.188,0-.526,.254-.92,.659-1.071l.297,.431c-.25,.114-.389,.368-.389,.636,0,.339,.211,.609,.472,.609,.289,0,.392-.342,.583-.79,.256-.584,.538-1.037,1.119-1.037,.655,0,1.076,.567,1.076,1.316,0,.606-.284,1.066-.71,1.277Z"/>
    <path d="M39.077,78.072c1.133,0,1.84,.73,1.84,1.902v1.051h-3.689v-1.051c-.002-1.172,.707-1.902,1.849-1.902Zm-.002,.586c-.783,0-1.273,.509-1.273,1.318v.472h2.539v-.479c0-.806-.488-1.312-1.266-1.312Z"/>
    <path d="M40.357,75.553v1.746l.561,.252v.627l-3.765-1.734v-.035l3.765-1.734v.627l-.561,.252Zm-.497,.225l-1.442,.647,1.442,.649v-1.297Z"/>
    <path d="M47.27,84.119l-.327-.458c.289-.165,.453-.472,.453-.826,0-.414-.199-.728-.48-.728-.341,0-.547,.484-.732,.915-.192,.433-.417,.913-.996,.913-.604,0-1.025-.524-1.025-1.188,0-.526,.254-.92,.659-1.071l.297,.431c-.25,.114-.389,.368-.389,.636,0,.339,.211,.609,.472,.609,.289,0,.392-.342,.583-.79,.256-.584,.538-1.037,1.119-1.037,.655,0,1.076,.567,1.076,1.316,0,.606-.284,1.066-.71,1.277Z"/>
    <path d="M46.075,81.201c-1.04,0-1.912-.867-1.912-1.904,.007-.479,.211-.92,.563-1.281l.455,.336c-.258,.259-.43,.596-.43,.957,0,.668,.586,1.307,1.325,1.307,.744,0,1.318-.647,1.318-1.309,0-.378-.188-.703-.439-.957l.467-.334c.313,.317,.554,.723,.554,1.272,0,1.046-.861,1.913-1.902,1.913Z"/>
    <path d="M47.341,75.326h.577v2.225h-3.689v-.579h3.113v-1.646Z"/>
    <path d="M51.228,80.771l3.766,1.703v.038l-3.766,1.696v-.615l2.497-1.099-2.497-1.104v-.62Z"/>
    <path d="M53.075,80.875c-1.04,0-1.912-.867-1.912-1.904,.008-.479,.211-.92,.563-1.281l.455,.336c-.258,.259-.43,.596-.43,.957,0,.668,.586,1.307,1.325,1.307,.744,0,1.318-.647,1.318-1.309,0-.378-.188-.703-.439-.957l.467-.334c.313,.317,.554,.723,.554,1.272,0,1.046-.86,1.913-1.901,1.913Z"/>
    <path d="M53.075,77.559c-1.04,0-1.912-.867-1.912-1.904,.008-.479,.211-.92,.563-1.281l.455,.336c-.258,.259-.43,.596-.43,.957,0,.668,.586,1.307,1.325,1.307,.744,0,1.318-.647,1.318-1.309,0-.378-.188-.703-.439-.957l.467-.334c.313,.317,.554,.723,.554,1.272,0,1.046-.86,1.913-1.901,1.913Z"/>
    <path d="M60.191,80.401c1.097,0,1.788,.797,1.788,1.756,0,1.073-.856,1.925-1.902,1.925s-1.911-.855-1.911-1.904c.002-.465,.227-.995,.565-1.344l.48,.323c-.284,.288-.463,.678-.463,1.027,0,.673,.563,1.31,1.328,1.31,.723,0,1.318-.574,1.318-1.362,0-.634-.387-1.109-.95-1.109h-.012v1.142h-.53v-1.746c.084-.01,.186-.017,.288-.017Z"/>
    <path d="M58.219,76.896h3.763v.027l-2.465,2.36h2.405v.579h-3.759v-.03l2.461-2.354h-2.405v-.582Z"/>
    <path d="M60.077,73.229c1.133,0,1.84,.73,1.84,1.902v1.051h-3.689v-1.051c-.002-1.172,.707-1.902,1.85-1.902Zm-.002,.586c-.783,0-1.273,.509-1.273,1.318v.472h2.539v-.479c0-.806-.488-1.312-1.266-1.312Z"/>
  </g>
</svg>