<?xml version="1.0" standalone="no"?>
 <!DOCTYPE svg PUBLIC "-//W3C//DTD SVG 1.1//EN" 
 "http://www.w3.org/Graphics/SVG/1.1/DTD/svg11.dtd"> 
<svg
  xmlns:svg="http://www.w3.org/2000/svg"
  xmlns="http://www.w3.org/2000/svg"
  xmlns:xlink="http://www.w3.org/1999/xlink"
  version="1.1"
  width="3.385820cm" height="3.573780cm" viewBox="0 0 33858200 35737800">
<title>SVG Picture created as OpenMuscle2-B_Silkscreen.svg date 2022/09/06 08:32:11 </title>
  <desc>Picture generated by PCBNEW </desc>
<g style="fill:#000000; fill-opacity:1.000000;stroke:#000000; stroke-opacity:1.000000;
stroke-linecap:round; stroke-linejoin:round;"
 transform="translate(0 0) scale(1 1)">
</g>
<g style="fill:#000000; fill-opacity:0.0; 
stroke:#000000; stroke-width:0.000000; stroke-opacity:1; 
stroke-linecap:round; stroke-linejoin:round;">
</g>
<g style="fill:#E8B2A7; fill-opacity:0.0; 
stroke:#E8B2A7; stroke-width:0.000000; stroke-opacity:1; 
stroke-linecap:round; stroke-linejoin:round;">
</g>
<g style="fill:#E8B2A7; fill-opacity:0.0; 
stroke:#E8B2A7; stroke-width:150000.000000; stroke-opacity:1; 
stroke-linecap:round; stroke-linejoin:round;">
<text x="2336000.000000" y="10242500.000000"
transform="scale(-1 1) translate(-4672000.000000 0)"
textLength="1714285.000000" font-size="1333333.000000" lengthAdjust="spacingAndGlyphs"
text-anchor="middle" opacity="0">J2</text>
<g class="stroked-text"><desc>J2</desc>
<path d="M2669333 9194880
L2669333 9909166
L2716952 10052023
L2812190 10147261
L2955047 10194880
L3050285 10194880
" />
<path d="M2240761 9290119
L2193142 9242500
L2097904 9194880
L1859809 9194880
L1764571 9242500
L1716952 9290119
L1669333 9385357
L1669333 9480595
L1716952 9623452
L2288380 10194880
L1669333 10194880
" />
</g><g transform="rotate(-90.000000 12691000.000000 6282500.000000)">
<text x="12691000.000000" y="6782500.000000"
transform="scale(-1 1) translate(-25382000.000000 0)"
textLength="2852619.000000" font-size="1333333.000000" lengthAdjust="spacingAndGlyphs"
text-anchor="middle" opacity="0">SW2</text>
</g>
<g class="stroked-text"><desc>SW2</desc>
<path d="M13095761 4949166
L13143380 5092023
L13143380 5330119
L13095761 5425357
L13048142 5472976
L12952904 5520595
L12857666 5520595
L12762428 5472976
L12714809 5425357
L12667190 5330119
L12619571 5139642
L12571952 5044404
L12524333 4996785
L12429095 4949166
L12333857 4949166
L12238619 4996785
L12191000 5044404
L12143380 5139642
L12143380 5377738
L12191000 5520595
" />
<path d="M12143380 5853928
L13143380 6092023
L12429095 6282500
L13143380 6472976
L12143380 6711071
" />
<path d="M12238619 7044404
L12191000 7092023
L12143380 7187261
L12143380 7425357
L12191000 7520595
L12238619 7568214
L12333857 7615833
L12429095 7615833
L12571952 7568214
L13143380 6996785
L13143380 7615833
" />
</g><g transform="rotate(-90.000000 4436000.000000 6357500.000000)">
<text x="4436000.000000" y="6857500.000000"
transform="scale(-1 1) translate(-8872000.000000 0)"
textLength="2852619.000000" font-size="1333333.000000" lengthAdjust="spacingAndGlyphs"
text-anchor="middle" opacity="0">SW3</text>
</g>
<g class="stroked-text"><desc>SW3</desc>
<path d="M4840761 5024166
L4888380 5167023
L4888380 5405119
L4840761 5500357
L4793142 5547976
L4697904 5595595
L4602666 5595595
L4507428 5547976
L4459809 5500357
L4412190 5405119
L4364571 5214642
L4316952 5119404
L4269333 5071785
L4174095 5024166
L4078857 5024166
L3983619 5071785
L3936000 5119404
L3888380 5214642
L3888380 5452738
L3936000 5595595
" />
<path d="M3888380 5928928
L4888380 6167023
L4174095 6357500
L4888380 6547976
L3888380 6786071
" />
<path d="M3888380 7071785
L3888380 7690833
L4269333 7357500
L4269333 7500357
L4316952 7595595
L4364571 7643214
L4459809 7690833
L4697904 7690833
L4793142 7643214
L4840761 7595595
L4888380 7500357
L4888380 7214642
L4840761 7119404
L4793142 7071785
" />
</g><g transform="rotate(-90.000000 20946000.000000 6282500.000000)">
<text x="20946000.000000" y="6782500.000000"
transform="scale(-1 1) translate(-41892000.000000 0)"
textLength="2852619.000000" font-size="1333333.000000" lengthAdjust="spacingAndGlyphs"
text-anchor="middle" opacity="0">SW1</text>
</g>
<g class="stroked-text"><desc>SW1</desc>
<path d="M21350761 4949166
L21398380 5092023
L21398380 5330119
L21350761 5425357
L21303142 5472976
L21207904 5520595
L21112666 5520595
L21017428 5472976
L20969809 5425357
L20922190 5330119
L20874571 5139642
L20826952 5044404
L20779333 4996785
L20684095 4949166
L20588857 4949166
L20493619 4996785
L20446000 5044404
L20398380 5139642
L20398380 5377738
L20446000 5520595
" />
<path d="M20398380 5853928
L21398380 6092023
L20684095 6282500
L21398380 6472976
L20398380 6711071
" />
<path d="M21398380 7615833
L21398380 7044404
" />
<path d="M21398380 7330119
L20398380 7330119
L20541238 7234880
L20636476 7139642
L20684095 7044404
" />
</g><text x="31546000.000000" y="10242500.000000"
transform="scale(-1 1) translate(-63092000.000000 0)"
textLength="1519286.000000" font-size="1333333.000000" lengthAdjust="spacingAndGlyphs"
text-anchor="middle" opacity="0">J1</text>
<g class="stroked-text"><desc>J1</desc>
<path d="M31879333 9194880
L31879333 9909166
L31926952 10052023
L32022190 10147261
L32165047 10194880
L32260285 10194880
" />
<path d="M30879333 10194880
L31450761 10194880
" />
<path d="M31165047 10194880
L31165047 9194880
L31260285 9337738
L31355523 9432976
L31450761 9480595
" />
</g><g transform="rotate(-180.000000 17576000.000000 33527500.000000)">
<text x="17576000.000000" y="34027500.000000"
transform="scale(-1 1) translate(-35152000.000000 0)"
textLength="4852619.000000" font-size="1333333.000000" lengthAdjust="spacingAndGlyphs"
text-anchor="middle" opacity="0">WSRP1</text>
</g>
<g class="stroked-text"><desc>WSRP1</desc>
<path d="M15195047 34075119
L15433142 33075119
L15623619 33789404
L15814095 33075119
L16052190 34075119
" />
<path d="M16385523 33122738
L16528380 33075119
L16766476 33075119
L16861714 33122738
L16909333 33170357
L16956952 33265595
L16956952 33360833
L16909333 33456071
L16861714 33503690
L16766476 33551309
L16576000 33598928
L16480761 33646547
L16433142 33694166
L16385523 33789404
L16385523 33884642
L16433142 33979880
L16480761 34027500
L16576000 34075119
L16814095 34075119
L16956952 34027500
" />
<path d="M17956952 33075119
L17623619 33551309
" />
<path d="M17385523 33075119
L17385523 34075119
L17766476 34075119
L17861714 34027500
L17909333 33979880
L17956952 33884642
L17956952 33741785
L17909333 33646547
L17861714 33598928
L17766476 33551309
L17385523 33551309
" />
<path d="M18385523 33075119
L18385523 34075119
L18766476 34075119
L18861714 34027500
L18909333 33979880
L18956952 33884642
L18956952 33741785
L18909333 33646547
L18861714 33598928
L18766476 33551309
L18385523 33551309
" />
<path d="M19909333 33075119
L19337904 33075119
" />
<path d="M19623619 33075119
L19623619 34075119
L19528380 33932261
L19433142 33837023
L19337904 33789404
" />
</g></g>
<g style="fill:#E8B2A7; fill-opacity:0.0; 
stroke:#E8B2A7; stroke-width:120000.000000; stroke-opacity:1; 
stroke-linecap:round; stroke-linejoin:round;">
<path d="M1006000 13342500
L1006000 26102500
" />
<path d="M3666000 10742500
L2336000 10742500
" />
<path d="M3666000 12072500
L3666000 10742500
" />
<path d="M3666000 13342500
L1006000 13342500
" />
<path d="M3666000 26102500
L1006000 26102500
" />
<path d="M3666000 13342500
L3666000 26102500
" />
<path d="M17691000 9782500
L16191000 9782500
" />
<path d="M20191000 4032500
L20191000 8532500
" />
<path d="M13691000 8532500
L13691000 4032500
" />
<path d="M16191000 2782500
L17691000 2782500
" />
<path d="M11936000 4107500
L11936000 8607500
" />
<path d="M9436000 9857500
L7936000 9857500
" />
<path d="M7936000 2857500
L9436000 2857500
" />
<path d="M5436000 8607500
L5436000 4107500
" />
<path d="M25946000 9782500
L24446000 9782500
" />
<path d="M24446000 2782500
L25946000 2782500
" />
<path d="M28446000 4032500
L28446000 8532500
" />
<path d="M21946000 8532500
L21946000 4032500
" />
<path d="M32876000 12072500
L32876000 10742500
" />
<path d="M32876000 13342500
L30216000 13342500
" />
<path d="M32876000 26102500
L30216000 26102500
" />
<path d="M32876000 10742500
L31546000 10742500
" />
<path d="M32876000 13342500
L32876000 26102500
" />
<path d="M30216000 13342500
L30216000 26102500
" />
<path d="M8686000 34297500
L26466000 34297500
" />
<path d="M8686000 11437500
L8686000 34297500
" />
<path d="M26466000 34297500
L26466000 11437500
" />
<path d="M26466000 11437500
L8686000 11437500
" />
<g >
</g>
<g >
</g>
<g >
</g>
<g >
</g>
<g >
</g>
<g >
</g>
<g >
</g>
<g >
</g>
<g >
</g>
<g >
</g>
<g >
</g>
<g >
</g>
<g >
</g>
<g >
</g>
<g >
</g>
<g >
</g>
<g >
</g>
<g >
</g>
<g >
</g>
<g >
</g>
</g>
<g style="fill:#000000; fill-opacity:0.0; 
stroke:#000000; stroke-width:120000.000000; stroke-opacity:1; 
stroke-linecap:round; stroke-linejoin:round;">
</g>
<g style="fill:#D0D2CD; fill-opacity:0.0; 
stroke:#D0D2CD; stroke-width:120000.000000; stroke-opacity:1; 
stroke-linecap:round; stroke-linejoin:round;">
</g>
<g style="fill:#D0D2CD; fill-opacity:0.0; 
stroke:#D0D2CD; stroke-width:100000.000000; stroke-opacity:1; 
stroke-linecap:round; stroke-linejoin:round;">
<path style="fill:#D0D2CD; fill-opacity:0.0; 
stroke:#D0D2CD; stroke-width:100000.000000; stroke-opacity:1; 
stroke-linecap:round; stroke-linejoin:round;fill:none"
d="M 33832000.000000,34297500.000000
50000.000000,34297500.000000
50000.000000,1277500.000000
33832000.000000,1277500.000000
Z" /> 
<g >
</g>
<g >
</g>
<g >
</g>
<g >
</g>
<g >
</g>
<g >
</g>
<g >
</g>
<g >
</g>
<g >
</g>
<g >
</g>
<g >
</g>
<g >
</g>
<g >
</g>
<g >
</g>
<g >
</g>
<g >
</g>
<g >
</g>
<g >
</g>
<g >
</g>
<g >
</g>
</g> 
</svg>
