M48
; DRILL file {KiCad (6.0.7)} date Tue Sep  6 06:44:07 2022
; FORMAT={-:-/ absolute / inch / decimal}
; #@! TF.CreationDate,2022-09-06T06:44:07-05:00
; #@! TF.GenerationSoftware,Kicad,Pcbnew,(6.0.7)
; #@! TF.FileFunction,Plated,1,2,PTH
FMAT,2
INCH
; #@! TA.AperFunction,Plated,PTH,ComponentDrill
T1C0.0295
; #@! TA.AperFunction,Plated,PTH,ComponentDrill
T2C0.0300
; #@! TA.AperFunction,Plated,PTH,ComponentDrill
T3C0.0394
; #@! TA.AperFunction,Plated,PTH,ComponentDrill
T4C0.0433
; #@! TA.AperFunction,Plated,PTH,ComponentDrill
T5C0.0866
%
G90
G05
T1
X7.45Y-3.725
X7.5Y-3.725
X7.55Y-3.725
T2
X7.2Y-3.3
X7.2Y-3.4
X7.2Y-3.5
X7.2Y-3.6
X7.2Y-3.7
X7.2Y-3.8
X7.2Y-3.9
X7.2Y-4.0
X7.2Y-4.1
X7.3Y-3.3
X7.4Y-3.3
X7.5Y-3.3
X7.6Y-3.3
X7.7Y-3.3
X7.8Y-3.3
X7.8Y-3.4
X7.8Y-3.5
X7.8Y-3.6
X7.8Y-3.7
X7.8Y-3.8
X7.8Y-3.9
X7.8Y-4.0
X7.8Y-4.1
T3
X6.9Y-3.275
X6.9Y-3.375
X6.9Y-3.475
X6.9Y-3.575
X6.9Y-3.675
X6.9Y-3.775
X7.35Y-4.025
X7.45Y-4.025
X7.55Y-4.025
X7.65Y-4.025
X8.05Y-3.275
X8.05Y-3.375
X8.05Y-3.475
X8.05Y-3.575
X8.05Y-3.675
X8.05Y-3.775
T4
X7.0614Y-2.922
X7.0614Y-3.178
X7.2386Y-2.922
X7.2386Y-3.178
X7.3864Y-2.9191
X7.3864Y-3.175
X7.5636Y-2.9191
X7.5636Y-3.175
X7.7114Y-2.9191
X7.7114Y-3.175
X7.8886Y-2.9191
X7.8886Y-3.175
T5
X6.9Y-2.95
X6.9Y-4.05
X8.05Y-2.95
X8.05Y-4.05
T0
M30
