M48
; DRILL file {KiCad 7.0.7} date Fri Sep 13 11:59:38 2024
; FORMAT={-:-/ absolute / inch / decimal}
; #@! TF.CreationDate,2024-09-13T11:59:38-05:00
; #@! TF.GenerationSoftware,Kicad,Pcbnew,7.0.7
; #@! TF.FileFunction,Plated,1,2,PTH
FMAT,2
INCH
; #@! TA.AperFunction,Plated,PTH,ViaDrill
T1C0.0157
; #@! TA.AperFunction,Plated,PTH,ComponentDrill
T2C0.0315
; #@! TA.AperFunction,Plated,PTH,ComponentDrill
T3C0.0394
%
G90
G05
T1
X4.7746Y-2.7741
X4.7854Y-3.0775
X4.8416Y-3.0303
X4.9215Y-3.4152
X4.996Y-3.2551
X5.025Y-3.3987
X5.1678Y-3.2535
X5.2203Y-3.2725
X5.2278Y-3.159
X5.5575Y-2.8092
X5.5959Y-3.3474
X5.6098Y-3.0774
X5.6279Y-3.5671
X5.6747Y-3.6002
X5.834Y-3.729
X5.8414Y-3.0941
X5.8799Y-3.36
X5.9322Y-3.2522
X6.02Y-3.7603
X6.059Y-3.2433
X6.1838Y-3.0392
X6.2409Y-3.4034
X6.3036Y-3.7298
X6.3937Y-2.8374
X6.4869Y-3.7607
X6.6005Y-3.6092
X6.7655Y-3.3483
X7.0972Y-2.8945
X7.2104Y-2.9718
X7.2744Y-2.8278
T2
X4.6963Y-2.6929
X4.775Y-2.6929
X4.8537Y-2.6929
X5.5013Y-2.6838
X5.58Y-2.6838
X5.6587Y-2.6838
X6.3113Y-2.6838
X6.39Y-2.6838
X6.4687Y-2.6838
X7.1163Y-2.6838
X7.195Y-2.6838
X7.2737Y-2.6838
T3
X4.65Y-2.96
X4.65Y-3.185
X4.65Y-3.335
X4.65Y-3.56
X4.75Y-2.96
X4.75Y-3.56
X4.85Y-2.96
X4.85Y-3.56
X4.88Y-3.75
X4.95Y-2.96
X4.95Y-3.56
X4.97Y-3.9
X4.98Y-3.75
X5.05Y-2.96
X5.05Y-3.56
X5.07Y-3.9
X5.08Y-3.75
X5.15Y-2.96
X5.15Y-3.56
X5.17Y-3.9
X5.18Y-3.75
X5.25Y-2.96
X5.25Y-3.56
X5.27Y-3.9
X5.28Y-3.75
X5.35Y-2.96
X5.35Y-3.56
X5.37Y-3.9
X5.38Y-3.75
X5.45Y-2.96
X5.45Y-3.56
X5.47Y-3.9
X5.48Y-3.75
X5.57Y-3.9
X5.82Y-2.87
X5.92Y-2.87
X6.02Y-2.87
X6.12Y-2.87
X6.79Y-2.88
X6.79Y-2.98
X6.79Y-3.08
X6.79Y-3.18
X6.81Y-3.88
X6.91Y-3.88
X7.01Y-3.88
X7.04Y-3.58
X7.14Y-3.58
X7.33Y-3.3616
X7.33Y-3.46
T0
M30
