%TF.GenerationSoftware,KiCad,Pcbnew,7.0.7*%
%TF.CreationDate,2024-09-13T11:59:40-05:00*%
%TF.ProjectId,LASK5,4c41534b-352e-46b6-9963-61645f706362,rev?*%
%TF.SameCoordinates,Original*%
%TF.FileFunction,Copper,L2,Bot*%
%TF.FilePolarity,Positive*%
%FSLAX46Y46*%
G04 Gerber Fmt 4.6, Leading zero omitted, Abs format (unit mm)*
G04 Created by KiCad (PCBNEW 7.0.7) date 2024-09-13 11:59:40*
%MOMM*%
%LPD*%
G01*
G04 APERTURE LIST*
G04 Aperture macros list*
%AMRoundRect*
0 Rectangle with rounded corners*
0 $1 Rounding radius*
0 $2 $3 $4 $5 $6 $7 $8 $9 X,Y pos of 4 corners*
0 Add a 4 corners polygon primitive as box body*
4,1,4,$2,$3,$4,$5,$6,$7,$8,$9,$2,$3,0*
0 Add four circle primitives for the rounded corners*
1,1,$1+$1,$2,$3*
1,1,$1+$1,$4,$5*
1,1,$1+$1,$6,$7*
1,1,$1+$1,$8,$9*
0 Add four rect primitives between the rounded corners*
20,1,$1+$1,$2,$3,$4,$5,0*
20,1,$1+$1,$4,$5,$6,$7,0*
20,1,$1+$1,$6,$7,$8,$9,0*
20,1,$1+$1,$8,$9,$2,$3,0*%
G04 Aperture macros list end*
%TA.AperFunction,ComponentPad*%
%ADD10R,1.700000X1.700000*%
%TD*%
%TA.AperFunction,ComponentPad*%
%ADD11O,1.700000X1.700000*%
%TD*%
%TA.AperFunction,ComponentPad*%
%ADD12R,1.350000X1.350000*%
%TD*%
%TA.AperFunction,ComponentPad*%
%ADD13O,1.350000X1.350000*%
%TD*%
%TA.AperFunction,ComponentPad*%
%ADD14RoundRect,0.250000X0.750000X-0.600000X0.750000X0.600000X-0.750000X0.600000X-0.750000X-0.600000X0*%
%TD*%
%TA.AperFunction,ComponentPad*%
%ADD15O,2.000000X1.700000*%
%TD*%
%TA.AperFunction,ComponentPad*%
%ADD16RoundRect,0.381000X0.381000X-1.119000X0.381000X1.119000X-0.381000X1.119000X-0.381000X-1.119000X0*%
%TD*%
%TA.AperFunction,ComponentPad*%
%ADD17RoundRect,0.750000X0.750000X-0.750000X0.750000X0.750000X-0.750000X0.750000X-0.750000X-0.750000X0*%
%TD*%
%TA.AperFunction,ViaPad*%
%ADD18C,0.800000*%
%TD*%
%TA.AperFunction,Conductor*%
%ADD19C,0.250000*%
%TD*%
G04 APERTURE END LIST*
D10*
%TO.P,J9,1,Pin_1*%
%TO.N,GND*%
X172466000Y-73152000D03*
D11*
%TO.P,J9,2,Pin_2*%
%TO.N,+3V3*%
X172466000Y-75692000D03*
%TO.P,J9,3,Pin_3*%
%TO.N,SCL*%
X172466000Y-78232000D03*
%TO.P,J9,4,Pin_4*%
%TO.N,SDA*%
X172466000Y-80772000D03*
%TD*%
D12*
%TO.P,H2,1,VCC*%
%TO.N,+3V3*%
X139732000Y-68167600D03*
D13*
%TO.P,H2,2,GND*%
%TO.N,GND*%
X141732000Y-68167600D03*
%TO.P,H2,3,VOUT*%
%TO.N,hall_1*%
X143732000Y-68167600D03*
%TD*%
D10*
%TO.P,SW1,1,A*%
%TO.N,unconnected-(SW1-A-Pad1)*%
X172974000Y-98552000D03*
D11*
%TO.P,SW1,2,B*%
%TO.N,BPACK+*%
X175514000Y-98552000D03*
%TO.P,SW1,3,C*%
%TO.N,BPACKSW+*%
X178054000Y-98552000D03*
%TD*%
D12*
%TO.P,H4,1,VCC*%
%TO.N,+3V3*%
X180753000Y-68167600D03*
D13*
%TO.P,H4,2,GND*%
%TO.N,GND*%
X182753000Y-68167600D03*
%TO.P,H4,3,VOUT*%
%TO.N,hall_3*%
X184753000Y-68167600D03*
%TD*%
D10*
%TO.P,J6,1,Pin_1*%
%TO.N,GP5*%
X141478000Y-99060000D03*
D11*
%TO.P,J6,2,Pin_2*%
%TO.N,GP6*%
X138938000Y-99060000D03*
%TO.P,J6,3,Pin_3*%
%TO.N,GP7*%
X136398000Y-99060000D03*
%TO.P,J6,4,Pin_4*%
%TO.N,GP14*%
X133858000Y-99060000D03*
%TO.P,J6,5,Pin_5*%
%TO.N,GP38*%
X131318000Y-99060000D03*
%TO.P,J6,6,Pin_6*%
%TO.N,GP37*%
X128778000Y-99060000D03*
%TO.P,J6,7,Pin_7*%
%TO.N,unconnected-(J6-Pin_7-Pad7)*%
X126238000Y-99060000D03*
%TD*%
D14*
%TO.P,J5,1*%
%TO.N,+3V8*%
X186182000Y-87884000D03*
D15*
%TO.P,J5,2*%
%TO.N,GND*%
X186182000Y-85384000D03*
%TD*%
D10*
%TO.P,J7,1,Pin_1*%
%TO.N,GP34*%
X123952000Y-95250000D03*
D11*
%TO.P,J7,2,Pin_2*%
%TO.N,GP33*%
X126492000Y-95250000D03*
%TO.P,J7,3,Pin_3*%
%TO.N,unconnected-(J7-Pin_3-Pad3)*%
X129032000Y-95250000D03*
%TO.P,J7,4,Pin_4*%
%TO.N,unconnected-(J7-Pin_4-Pad4)*%
X131572000Y-95250000D03*
%TO.P,J7,5,Pin_5*%
%TO.N,unconnected-(J7-Pin_5-Pad5)*%
X134112000Y-95250000D03*
%TO.P,J7,6,Pin_6*%
%TO.N,GP16*%
X136652000Y-95250000D03*
%TO.P,J7,7,Pin_7*%
%TO.N,GP15*%
X139192000Y-95250000D03*
%TD*%
D16*
%TO.P,U1,1,GP1*%
%TO.N,hall_0*%
X123190000Y-90924000D03*
%TO.P,U1,2,GP2*%
%TO.N,hall_1*%
X125730000Y-90924000D03*
%TO.P,U1,3,GP3*%
%TO.N,hall_2*%
X128270000Y-90924000D03*
%TO.P,U1,4,GP4*%
%TO.N,hall_3*%
X130810000Y-90924000D03*
%TO.P,U1,5,GP5*%
%TO.N,GP5*%
X133350000Y-90924000D03*
%TO.P,U1,6,GP6*%
%TO.N,GP6*%
X135890000Y-90924000D03*
%TO.P,U1,7,GP7*%
%TO.N,GP7*%
X138430000Y-90924000D03*
%TO.P,U1,8,GP8*%
%TO.N,SDA*%
X138430000Y-74684000D03*
%TO.P,U1,9,GP9*%
%TO.N,SCL*%
X135890000Y-74684000D03*
%TO.P,U1,10,GP10*%
%TO.N,BTTN*%
X133350000Y-74684000D03*
%TO.P,U1,11,GP11*%
%TO.N,BTTN2*%
X130810000Y-74684000D03*
%TO.P,U1,12,GP12*%
%TO.N,BTTN3*%
X128270000Y-74684000D03*
%TO.P,U1,13,GP13*%
%TO.N,BTTN4*%
X125730000Y-74684000D03*
%TO.P,U1,100,GND*%
%TO.N,GND*%
X120650000Y-74684000D03*
%TO.P,U1,103,3V3*%
%TO.N,+3V3*%
X123190000Y-74684000D03*
%TO.P,U1,105,5V*%
%TO.N,+5V*%
X118110000Y-74684000D03*
%TO.P,U1,200,TX*%
%TO.N,unconnected-(U1-TX-Pad200)*%
X118110000Y-90924000D03*
%TO.P,U1,201,RX*%
%TO.N,unconnected-(U1-RX-Pad201)*%
X120650000Y-90924000D03*
D17*
%TO.P,U1,384,BAT-*%
%TO.N,BPACK-*%
X118110000Y-84709000D03*
%TO.P,U1,385,BAT+*%
%TO.N,BPACKSW+*%
X118110000Y-80899000D03*
%TD*%
D12*
%TO.P,H1,1,VCC*%
%TO.N,+3V3*%
X119285000Y-68398600D03*
D13*
%TO.P,H1,2,GND*%
%TO.N,GND*%
X121285000Y-68398600D03*
%TO.P,H1,3,VOUT*%
%TO.N,hall_0*%
X123285000Y-68398600D03*
%TD*%
D12*
%TO.P,H3,1,VCC*%
%TO.N,+3V3*%
X160306000Y-68167600D03*
D13*
%TO.P,H3,2,GND*%
%TO.N,GND*%
X162306000Y-68167600D03*
%TO.P,H3,3,VOUT*%
%TO.N,hall_2*%
X164306000Y-68167600D03*
%TD*%
D10*
%TO.P,J1,1,Pin_1*%
%TO.N,GND*%
X155448000Y-72898000D03*
D11*
%TO.P,J1,2,Pin_2*%
%TO.N,+3V3*%
X152908000Y-72898000D03*
%TO.P,J1,3,Pin_3*%
%TO.N,SCL*%
X150368000Y-72898000D03*
%TO.P,J1,4,Pin_4*%
%TO.N,SDA*%
X147828000Y-72898000D03*
%TD*%
D10*
%TO.P,J2,1,Pin_1*%
%TO.N,BPACK-*%
X181356000Y-90932000D03*
D11*
%TO.P,J2,2,Pin_2*%
%TO.N,BPACK+*%
X178816000Y-90932000D03*
%TD*%
D18*
%TO.N,RMT-BTN*%
X171843600Y-85047100D03*
X180269600Y-73520000D03*
%TO.N,GP38*%
X126899300Y-82680600D03*
%TO.N,GP37*%
X121548000Y-78168300D03*
%TO.N,GP34*%
X122975400Y-76969100D03*
%TO.N,GP16*%
X132595800Y-83121800D03*
%TO.N,GP15*%
X132785000Y-80238400D03*
%TO.N,GP14*%
X131263300Y-82639400D03*
%TO.N,BTTN4*%
X125005800Y-86745700D03*
%TO.N,BTTN3*%
X127635000Y-86326400D03*
%TO.N,BTTN2*%
X142948800Y-90603200D03*
%TO.N,BTTN*%
X144138300Y-91445100D03*
%TO.N,BPACK-*%
X167652900Y-91674700D03*
%TO.N,GND*%
X149348500Y-85344000D03*
X153898000Y-82379700D03*
X183145300Y-75483400D03*
X148182800Y-94715400D03*
X160110700Y-94737500D03*
X164768000Y-95521300D03*
X152908000Y-95511800D03*
X142488200Y-78166000D03*
X142135500Y-85024000D03*
X157068100Y-77195000D03*
X148371000Y-78590200D03*
X158519100Y-86445400D03*
X150678000Y-82606000D03*
X162400300Y-72069700D03*
X184770400Y-71825600D03*
X141160400Y-71354700D03*
X121274800Y-70462100D03*
%TD*%
D19*
%TO.N,RMT-BTN*%
X180269600Y-76621100D02*
X180269600Y-73520000D01*
X171843600Y-85047100D02*
X180269600Y-76621100D01*
%TO.N,GP38*%
X130141100Y-98094700D02*
X130141100Y-99060000D01*
X127762000Y-95715600D02*
X130141100Y-98094700D01*
X127762000Y-93753700D02*
X127762000Y-95715600D01*
X126899300Y-92891000D02*
X127762000Y-93753700D01*
X126899300Y-82680600D02*
X126899300Y-92891000D01*
X131318000Y-99060000D02*
X130141100Y-99060000D01*
%TO.N,GP37*%
X127601100Y-98694200D02*
X127601100Y-99060000D01*
X126188900Y-97282000D02*
X127601100Y-98694200D01*
X123819100Y-97282000D02*
X126188900Y-97282000D01*
X119539700Y-93002600D02*
X123819100Y-97282000D01*
X119539700Y-86558600D02*
X119539700Y-93002600D01*
X121548000Y-84550300D02*
X119539700Y-86558600D01*
X121548000Y-78168300D02*
X121548000Y-84550300D01*
X128778000Y-99060000D02*
X127601100Y-99060000D01*
%TO.N,GP34*%
X123952000Y-95250000D02*
X123952000Y-94073100D01*
X122975400Y-77768900D02*
X122975400Y-76969100D01*
X122088500Y-78655800D02*
X122975400Y-77768900D01*
X122088500Y-92356700D02*
X122088500Y-78655800D01*
X123804900Y-94073100D02*
X122088500Y-92356700D01*
X123952000Y-94073100D02*
X123804900Y-94073100D01*
%TO.N,GP16*%
X136652000Y-95250000D02*
X135475100Y-95250000D01*
X135475100Y-94884200D02*
X135475100Y-95250000D01*
X134245900Y-93655000D02*
X135475100Y-94884200D01*
X133585200Y-93655000D02*
X134245900Y-93655000D01*
X132257400Y-92327200D02*
X133585200Y-93655000D01*
X132257400Y-83460200D02*
X132257400Y-92327200D01*
X132595800Y-83121800D02*
X132257400Y-83460200D01*
%TO.N,GP15*%
X139192000Y-95250000D02*
X139192000Y-94073100D01*
X139570100Y-93695000D02*
X139192000Y-94073100D01*
X139570100Y-87023500D02*
X139570100Y-93695000D01*
X132785000Y-80238400D02*
X139570100Y-87023500D01*
%TO.N,GP14*%
X133858000Y-99060000D02*
X132681100Y-99060000D01*
X131263300Y-87939000D02*
X131263300Y-82639400D01*
X129690700Y-89511600D02*
X131263300Y-87939000D01*
X129690700Y-92311200D02*
X129690700Y-89511600D01*
X130345700Y-92966200D02*
X129690700Y-92311200D01*
X130345700Y-95763700D02*
X130345700Y-92966200D01*
X132681100Y-98099100D02*
X130345700Y-95763700D01*
X132681100Y-99060000D02*
X132681100Y-98099100D01*
%TO.N,GP5*%
X140301100Y-98029900D02*
X140301100Y-99060000D01*
X137922000Y-95650800D02*
X140301100Y-98029900D01*
X137922000Y-94775700D02*
X137922000Y-95650800D01*
X136350900Y-93204600D02*
X137922000Y-94775700D01*
X135615300Y-93204600D02*
X136350900Y-93204600D01*
X133350000Y-90939300D02*
X135615300Y-93204600D01*
X133350000Y-90424000D02*
X133350000Y-90939300D01*
X141478000Y-99060000D02*
X140301100Y-99060000D01*
%TO.N,BTTN4*%
X125005800Y-75908200D02*
X125730000Y-75184000D01*
X125005800Y-86745700D02*
X125005800Y-75908200D01*
%TO.N,BTTN3*%
X127635000Y-75819000D02*
X128270000Y-75184000D01*
X127635000Y-86326400D02*
X127635000Y-75819000D01*
%TO.N,BTTN2*%
X142948800Y-87322800D02*
X142948800Y-90603200D01*
X130810000Y-75184000D02*
X142948800Y-87322800D01*
%TO.N,BTTN*%
X144138300Y-85972300D02*
X144138300Y-91445100D01*
X133350000Y-75184000D02*
X144138300Y-85972300D01*
%TO.N,SCL*%
X137227600Y-76521600D02*
X135890000Y-75184000D01*
X145935300Y-76521600D02*
X137227600Y-76521600D01*
X149191100Y-73265800D02*
X145935300Y-76521600D01*
X149191100Y-72898000D02*
X149191100Y-73265800D01*
X150368000Y-72898000D02*
X149191100Y-72898000D01*
%TO.N,BPACK+*%
X178816000Y-94073100D02*
X175514000Y-97375100D01*
X178816000Y-90932000D02*
X178816000Y-94073100D01*
X175514000Y-98552000D02*
X175514000Y-97375100D01*
%TO.N,+3V3*%
X119285000Y-68398600D02*
X119285000Y-69400500D01*
X152908000Y-72898000D02*
X153496500Y-72898000D01*
X153496500Y-72898000D02*
X154084900Y-72898000D01*
X141375900Y-69811500D02*
X139732000Y-68167600D01*
X150410000Y-69811500D02*
X141375900Y-69811500D01*
X153496500Y-72898000D02*
X150410000Y-69811500D01*
X173403600Y-74515100D02*
X172466000Y-74515100D01*
X179751100Y-68167600D02*
X173403600Y-74515100D01*
X180753000Y-68167600D02*
X179751100Y-68167600D01*
X172466000Y-75692000D02*
X172466000Y-74515100D01*
X158006200Y-68167600D02*
X160306000Y-68167600D01*
X154084900Y-72088900D02*
X158006200Y-68167600D01*
X154084900Y-72898000D02*
X154084900Y-72088900D01*
X171599300Y-74515100D02*
X172466000Y-74515100D01*
X169228000Y-72143800D02*
X171599300Y-74515100D01*
X169228000Y-71639900D02*
X169228000Y-72143800D01*
X164690900Y-67102800D02*
X169228000Y-71639900D01*
X161370800Y-67102800D02*
X164690900Y-67102800D01*
X160306000Y-68167600D02*
X161370800Y-67102800D01*
X121241200Y-69400500D02*
X119285000Y-69400500D01*
X123190000Y-71349300D02*
X121241200Y-69400500D01*
X123190000Y-75184000D02*
X123190000Y-71349300D01*
%TO.N,BPACK-*%
X169577500Y-89750100D02*
X167652900Y-91674700D01*
X179365000Y-89750100D02*
X169577500Y-89750100D01*
X180179100Y-90564200D02*
X179365000Y-89750100D01*
X180179100Y-90932000D02*
X180179100Y-90564200D01*
X181356000Y-90932000D02*
X180179100Y-90932000D01*
%TO.N,hall_1*%
X142716200Y-67151800D02*
X143732000Y-68167600D01*
X135200900Y-67151800D02*
X142716200Y-67151800D01*
X129961800Y-72390900D02*
X135200900Y-67151800D01*
X128032000Y-72390900D02*
X129961800Y-72390900D01*
X127000000Y-73422900D02*
X128032000Y-72390900D01*
X127000000Y-76137800D02*
X127000000Y-73422900D01*
X125732700Y-77405100D02*
X127000000Y-76137800D01*
X125732700Y-90421300D02*
X125732700Y-77405100D01*
X125730000Y-90424000D02*
X125732700Y-90421300D01*
%TO.N,hall_3*%
X130810000Y-92793600D02*
X130810000Y-90424000D01*
X132842000Y-94825600D02*
X130810000Y-92793600D01*
X132842000Y-95719000D02*
X132842000Y-94825600D01*
X134187000Y-97064000D02*
X132842000Y-95719000D01*
X136080200Y-97064000D02*
X134187000Y-97064000D01*
X137668000Y-98651800D02*
X136080200Y-97064000D01*
X137668000Y-99454800D02*
X137668000Y-98651800D01*
X138466600Y-100253400D02*
X137668000Y-99454800D01*
X147074000Y-100253400D02*
X138466600Y-100253400D01*
X170378600Y-76948800D02*
X147074000Y-100253400D01*
X175812900Y-76948800D02*
X170378600Y-76948800D01*
X184594100Y-68167600D02*
X175812900Y-76948800D01*
X184753000Y-68167600D02*
X184594100Y-68167600D01*
%TO.N,hall_0*%
X123285000Y-68398600D02*
X123285000Y-69400500D01*
X123190000Y-87533600D02*
X123190000Y-90424000D01*
X124281500Y-86442100D02*
X123190000Y-87533600D01*
X124281500Y-70397000D02*
X124281500Y-86442100D01*
X123285000Y-69400500D02*
X124281500Y-70397000D01*
%TO.N,hall_2*%
X158341500Y-74132100D02*
X164306000Y-68167600D01*
X152417600Y-74132100D02*
X158341500Y-74132100D01*
X151638000Y-73352500D02*
X152417600Y-74132100D01*
X151638000Y-72425600D02*
X151638000Y-73352500D01*
X150841600Y-71629200D02*
X151638000Y-72425600D01*
X147432400Y-71629200D02*
X150841600Y-71629200D01*
X146220300Y-72841300D02*
X147432400Y-71629200D01*
X130150500Y-72841300D02*
X146220300Y-72841300D01*
X129707900Y-73283900D02*
X130150500Y-72841300D01*
X129707800Y-73283900D02*
X129707900Y-73283900D01*
X129707800Y-84690200D02*
X129707800Y-73283900D01*
X128721900Y-85676100D02*
X129707800Y-84690200D01*
X128721900Y-89972100D02*
X128721900Y-85676100D01*
X128270000Y-90424000D02*
X128721900Y-89972100D01*
%TD*%
%TA.AperFunction,Conductor*%
%TO.N,GND*%
G36*
X184556167Y-66120657D02*
G01*
X184799551Y-66138089D01*
X184799555Y-66138091D01*
X184821863Y-66139688D01*
X184821864Y-66139689D01*
X185257056Y-66170861D01*
X185274615Y-66173390D01*
X185954240Y-66321603D01*
X185971117Y-66326562D01*
X186622450Y-66569351D01*
X186638585Y-66576720D01*
X187248981Y-66910192D01*
X187263780Y-66919699D01*
X187745322Y-67279802D01*
X187820536Y-67336048D01*
X187833956Y-67347671D01*
X188326317Y-67840032D01*
X188337940Y-67853452D01*
X188754288Y-68410205D01*
X188763803Y-68425015D01*
X189097274Y-69035400D01*
X189104646Y-69051542D01*
X189347425Y-69702872D01*
X189352386Y-69719759D01*
X189500604Y-70399374D01*
X189503135Y-70416937D01*
X189520264Y-70656090D01*
X189553334Y-71117825D01*
X189553492Y-71122238D01*
X189553492Y-85619983D01*
X189505585Y-86833521D01*
X189505204Y-86838360D01*
X189362778Y-88042514D01*
X189362019Y-88047314D01*
X189125982Y-89235474D01*
X189124836Y-89240247D01*
X188795172Y-90407513D01*
X188793679Y-90412109D01*
X188374373Y-91549515D01*
X188372513Y-91554010D01*
X187865578Y-92654538D01*
X187863353Y-92658905D01*
X187270746Y-93716631D01*
X187268212Y-93720767D01*
X186594965Y-94728644D01*
X186592069Y-94732627D01*
X185841094Y-95683790D01*
X185837969Y-95687446D01*
X185015299Y-96577845D01*
X185011835Y-96581309D01*
X184816704Y-96761606D01*
X184121434Y-97403986D01*
X184117777Y-97407110D01*
X183166634Y-98158066D01*
X183162651Y-98160962D01*
X182154740Y-98834229D01*
X182150604Y-98836763D01*
X181092896Y-99429360D01*
X181088529Y-99431585D01*
X179988003Y-99938521D01*
X179983507Y-99940381D01*
X178846098Y-100359687D01*
X178841502Y-100361180D01*
X177674244Y-100690842D01*
X177669472Y-100691988D01*
X176481305Y-100928029D01*
X176476505Y-100928788D01*
X175272374Y-101071214D01*
X175267535Y-101071595D01*
X174113563Y-101117147D01*
X174053978Y-101119500D01*
X147206138Y-101119500D01*
X147139099Y-101099815D01*
X147093344Y-101047011D01*
X147083400Y-100977853D01*
X147112425Y-100914297D01*
X147171203Y-100876523D01*
X147171533Y-100876427D01*
X147175077Y-100875397D01*
X147191859Y-100870520D01*
X147210912Y-100866574D01*
X147230792Y-100864064D01*
X147274122Y-100846907D01*
X147279646Y-100845017D01*
X147283396Y-100843927D01*
X147324390Y-100832018D01*
X147341629Y-100821822D01*
X147359103Y-100813262D01*
X147377727Y-100805888D01*
X147377727Y-100805887D01*
X147377732Y-100805886D01*
X147415449Y-100778482D01*
X147420305Y-100775292D01*
X147460420Y-100751570D01*
X147474589Y-100737399D01*
X147489379Y-100724768D01*
X147505587Y-100712994D01*
X147535299Y-100677076D01*
X147539212Y-100672776D01*
X156537289Y-91674700D01*
X166747440Y-91674700D01*
X166767226Y-91862956D01*
X166767227Y-91862959D01*
X166825718Y-92042977D01*
X166825721Y-92042984D01*
X166920367Y-92206916D01*
X167009801Y-92306242D01*
X167047029Y-92347588D01*
X167200165Y-92458848D01*
X167200170Y-92458851D01*
X167373092Y-92535842D01*
X167373097Y-92535844D01*
X167558254Y-92575200D01*
X167558255Y-92575200D01*
X167747544Y-92575200D01*
X167747546Y-92575200D01*
X167932703Y-92535844D01*
X168105630Y-92458851D01*
X168258771Y-92347588D01*
X168385433Y-92206916D01*
X168480079Y-92042984D01*
X168538574Y-91862956D01*
X168556221Y-91695044D01*
X168582804Y-91630434D01*
X168591851Y-91620338D01*
X169800271Y-90411919D01*
X169861595Y-90378434D01*
X169887953Y-90375600D01*
X177405346Y-90375600D01*
X177472385Y-90395285D01*
X177518140Y-90448089D01*
X177528084Y-90517247D01*
X177525121Y-90531693D01*
X177480938Y-90696586D01*
X177480936Y-90696596D01*
X177460341Y-90931999D01*
X177460341Y-90932000D01*
X177480936Y-91167403D01*
X177480938Y-91167413D01*
X177542094Y-91395655D01*
X177542096Y-91395659D01*
X177542097Y-91395663D01*
X177615935Y-91554009D01*
X177641965Y-91609830D01*
X177641967Y-91609834D01*
X177777501Y-91803395D01*
X177777506Y-91803402D01*
X177944597Y-91970493D01*
X177944603Y-91970498D01*
X177954340Y-91977316D01*
X178137624Y-92105653D01*
X178181248Y-92160228D01*
X178190500Y-92207226D01*
X178190500Y-93762646D01*
X178170815Y-93829685D01*
X178154181Y-93850327D01*
X175130208Y-96874299D01*
X175117951Y-96884120D01*
X175118134Y-96884341D01*
X175112123Y-96889313D01*
X175064772Y-96939736D01*
X175043889Y-96960619D01*
X175043877Y-96960632D01*
X175039621Y-96966117D01*
X175035837Y-96970547D01*
X175003937Y-97004518D01*
X175003936Y-97004520D01*
X174994284Y-97022076D01*
X174983610Y-97038326D01*
X174971329Y-97054161D01*
X174971324Y-97054168D01*
X174952815Y-97096938D01*
X174950245Y-97102184D01*
X174927803Y-97143006D01*
X174922822Y-97162407D01*
X174916521Y-97180810D01*
X174908562Y-97199202D01*
X174908561Y-97199205D01*
X174901271Y-97245227D01*
X174900087Y-97250946D01*
X174886560Y-97303634D01*
X174883982Y-97302972D01*
X174861179Y-97355249D01*
X174837217Y-97377232D01*
X174642600Y-97513503D01*
X174520673Y-97635430D01*
X174459350Y-97668914D01*
X174389658Y-97663930D01*
X174333725Y-97622058D01*
X174316810Y-97591081D01*
X174267797Y-97459671D01*
X174267793Y-97459664D01*
X174181547Y-97344455D01*
X174181544Y-97344452D01*
X174066335Y-97258206D01*
X174066328Y-97258202D01*
X173931482Y-97207908D01*
X173931483Y-97207908D01*
X173871883Y-97201501D01*
X173871881Y-97201500D01*
X173871873Y-97201500D01*
X173871864Y-97201500D01*
X172076129Y-97201500D01*
X172076123Y-97201501D01*
X172016516Y-97207908D01*
X171881671Y-97258202D01*
X171881664Y-97258206D01*
X171766455Y-97344452D01*
X171766452Y-97344455D01*
X171680206Y-97459664D01*
X171680202Y-97459671D01*
X171629908Y-97594517D01*
X171623501Y-97654116D01*
X171623500Y-97654135D01*
X171623500Y-99449870D01*
X171623501Y-99449876D01*
X171629908Y-99509483D01*
X171680202Y-99644328D01*
X171680206Y-99644335D01*
X171766452Y-99759544D01*
X171766455Y-99759547D01*
X171881664Y-99845793D01*
X171881671Y-99845797D01*
X172016517Y-99896091D01*
X172016516Y-99896091D01*
X172023444Y-99896835D01*
X172076127Y-99902500D01*
X173871872Y-99902499D01*
X173931483Y-99896091D01*
X174066331Y-99845796D01*
X174181546Y-99759546D01*
X174267796Y-99644331D01*
X174316810Y-99512916D01*
X174358681Y-99456984D01*
X174424145Y-99432566D01*
X174492418Y-99447417D01*
X174520673Y-99468569D01*
X174642599Y-99590495D01*
X174739384Y-99658265D01*
X174836165Y-99726032D01*
X174836167Y-99726033D01*
X174836170Y-99726035D01*
X175050337Y-99825903D01*
X175278592Y-99887063D01*
X175455034Y-99902500D01*
X175513999Y-99907659D01*
X175514000Y-99907659D01*
X175514001Y-99907659D01*
X175572966Y-99902500D01*
X175749408Y-99887063D01*
X175977663Y-99825903D01*
X176191830Y-99726035D01*
X176385401Y-99590495D01*
X176552495Y-99423401D01*
X176682424Y-99237842D01*
X176737002Y-99194217D01*
X176806500Y-99187023D01*
X176868855Y-99218546D01*
X176885575Y-99237842D01*
X177015500Y-99423395D01*
X177015505Y-99423401D01*
X177182599Y-99590495D01*
X177279384Y-99658265D01*
X177376165Y-99726032D01*
X177376167Y-99726033D01*
X177376170Y-99726035D01*
X177590337Y-99825903D01*
X177818592Y-99887063D01*
X177995034Y-99902500D01*
X178053999Y-99907659D01*
X178054000Y-99907659D01*
X178054001Y-99907659D01*
X178112966Y-99902500D01*
X178289408Y-99887063D01*
X178517663Y-99825903D01*
X178731830Y-99726035D01*
X178925401Y-99590495D01*
X179092495Y-99423401D01*
X179228035Y-99229830D01*
X179327903Y-99015663D01*
X179389063Y-98787408D01*
X179409659Y-98552000D01*
X179389063Y-98316592D01*
X179334432Y-98112703D01*
X179327905Y-98088344D01*
X179327904Y-98088343D01*
X179327903Y-98088337D01*
X179228035Y-97874171D01*
X179227339Y-97873176D01*
X179092494Y-97680597D01*
X178925402Y-97513506D01*
X178925395Y-97513501D01*
X178925002Y-97513226D01*
X178848518Y-97459671D01*
X178731834Y-97377967D01*
X178731830Y-97377965D01*
X178730258Y-97377232D01*
X178517663Y-97278097D01*
X178517659Y-97278096D01*
X178517655Y-97278094D01*
X178289413Y-97216938D01*
X178289403Y-97216936D01*
X178054001Y-97196341D01*
X178053999Y-97196341D01*
X177818596Y-97216936D01*
X177818586Y-97216938D01*
X177590344Y-97278094D01*
X177590335Y-97278098D01*
X177376171Y-97377964D01*
X177376169Y-97377965D01*
X177182597Y-97513505D01*
X177015505Y-97680597D01*
X176885575Y-97866158D01*
X176830998Y-97909783D01*
X176761500Y-97916977D01*
X176699145Y-97885454D01*
X176682425Y-97866158D01*
X176552496Y-97680600D01*
X176486416Y-97614520D01*
X176410471Y-97538575D01*
X176376988Y-97477255D01*
X176381972Y-97407563D01*
X176410471Y-97363217D01*
X179199788Y-94573901D01*
X179212042Y-94564086D01*
X179211859Y-94563864D01*
X179217866Y-94558892D01*
X179217877Y-94558886D01*
X179248775Y-94525982D01*
X179265227Y-94508464D01*
X179275671Y-94498018D01*
X179286120Y-94487571D01*
X179290379Y-94482078D01*
X179294152Y-94477661D01*
X179326062Y-94443682D01*
X179335713Y-94426124D01*
X179346396Y-94409861D01*
X179358673Y-94394036D01*
X179377185Y-94351253D01*
X179379738Y-94346041D01*
X179402197Y-94305192D01*
X179407180Y-94285780D01*
X179413481Y-94267380D01*
X179421437Y-94248996D01*
X179428729Y-94202952D01*
X179429906Y-94197271D01*
X179441500Y-94152119D01*
X179441500Y-94132082D01*
X179443027Y-94112682D01*
X179446160Y-94092904D01*
X179441775Y-94046515D01*
X179441500Y-94040677D01*
X179441500Y-92207226D01*
X179461185Y-92140187D01*
X179494374Y-92105654D01*
X179687401Y-91970495D01*
X179809329Y-91848566D01*
X179870648Y-91815084D01*
X179940340Y-91820068D01*
X179996274Y-91861939D01*
X180013189Y-91892917D01*
X180062202Y-92024328D01*
X180062206Y-92024335D01*
X180148452Y-92139544D01*
X180148455Y-92139547D01*
X180263664Y-92225793D01*
X180263671Y-92225797D01*
X180398517Y-92276091D01*
X180398516Y-92276091D01*
X180405444Y-92276835D01*
X180458127Y-92282500D01*
X182253872Y-92282499D01*
X182313483Y-92276091D01*
X182448331Y-92225796D01*
X182563546Y-92139546D01*
X182649796Y-92024331D01*
X182700091Y-91889483D01*
X182706500Y-91829873D01*
X182706499Y-90034128D01*
X182700091Y-89974517D01*
X182691734Y-89952112D01*
X182649797Y-89839671D01*
X182649793Y-89839664D01*
X182563547Y-89724455D01*
X182563544Y-89724452D01*
X182448335Y-89638206D01*
X182448328Y-89638202D01*
X182313482Y-89587908D01*
X182313483Y-89587908D01*
X182253883Y-89581501D01*
X182253881Y-89581500D01*
X182253873Y-89581500D01*
X182253864Y-89581500D01*
X180458129Y-89581500D01*
X180458123Y-89581501D01*
X180398516Y-89587908D01*
X180263665Y-89638204D01*
X180263647Y-89638215D01*
X180263626Y-89638219D01*
X180255359Y-89641303D01*
X180254915Y-89640113D01*
X180195372Y-89653060D01*
X180129910Y-89628637D01*
X180116549Y-89617058D01*
X179865803Y-89366312D01*
X179855980Y-89354050D01*
X179855759Y-89354234D01*
X179850786Y-89348223D01*
X179832159Y-89330731D01*
X179800364Y-89300873D01*
X179789919Y-89290428D01*
X179779475Y-89279983D01*
X179773986Y-89275725D01*
X179769561Y-89271947D01*
X179735582Y-89240038D01*
X179735580Y-89240036D01*
X179735577Y-89240035D01*
X179718029Y-89230388D01*
X179701763Y-89219704D01*
X179685933Y-89207425D01*
X179643168Y-89188918D01*
X179637922Y-89186348D01*
X179597093Y-89163903D01*
X179597092Y-89163902D01*
X179577693Y-89158922D01*
X179559281Y-89152618D01*
X179540898Y-89144662D01*
X179540892Y-89144660D01*
X179494874Y-89137372D01*
X179489152Y-89136187D01*
X179444021Y-89124600D01*
X179444019Y-89124600D01*
X179423984Y-89124600D01*
X179404586Y-89123073D01*
X179397162Y-89121897D01*
X179384805Y-89119940D01*
X179384804Y-89119940D01*
X179338416Y-89124325D01*
X179332578Y-89124600D01*
X169660237Y-89124600D01*
X169644620Y-89122876D01*
X169644593Y-89123162D01*
X169636831Y-89122427D01*
X169567703Y-89124600D01*
X169538150Y-89124600D01*
X169537429Y-89124690D01*
X169531257Y-89125469D01*
X169525445Y-89125926D01*
X169478872Y-89127390D01*
X169478869Y-89127391D01*
X169459626Y-89132981D01*
X169440583Y-89136925D01*
X169420704Y-89139436D01*
X169420703Y-89139437D01*
X169377378Y-89156590D01*
X169371852Y-89158482D01*
X169327108Y-89171483D01*
X169327104Y-89171485D01*
X169309865Y-89181680D01*
X169292398Y-89190237D01*
X169273769Y-89197612D01*
X169273767Y-89197613D01*
X169236064Y-89225006D01*
X169231182Y-89228212D01*
X169191080Y-89251928D01*
X169176908Y-89266100D01*
X169162123Y-89278728D01*
X169145912Y-89290507D01*
X169116209Y-89326410D01*
X169112277Y-89330731D01*
X167705128Y-90737881D01*
X167643805Y-90771366D01*
X167617447Y-90774200D01*
X167558254Y-90774200D01*
X167525797Y-90781098D01*
X167373097Y-90813555D01*
X167373092Y-90813557D01*
X167200170Y-90890548D01*
X167200165Y-90890551D01*
X167047029Y-91001811D01*
X166920366Y-91142485D01*
X166825721Y-91306415D01*
X166825718Y-91306422D01*
X166767227Y-91486440D01*
X166767226Y-91486444D01*
X166747440Y-91674700D01*
X156537289Y-91674700D01*
X159677988Y-88534001D01*
X184681500Y-88534001D01*
X184681501Y-88534018D01*
X184692000Y-88636796D01*
X184692001Y-88636799D01*
X184743467Y-88792111D01*
X184747186Y-88803334D01*
X184839288Y-88952656D01*
X184963344Y-89076712D01*
X185112666Y-89168814D01*
X185279203Y-89223999D01*
X185381991Y-89234500D01*
X186982008Y-89234499D01*
X187084797Y-89223999D01*
X187251334Y-89168814D01*
X187400656Y-89076712D01*
X187524712Y-88952656D01*
X187616814Y-88803334D01*
X187671999Y-88636797D01*
X187682500Y-88534009D01*
X187682499Y-87233992D01*
X187671999Y-87131203D01*
X187616814Y-86964666D01*
X187524712Y-86815344D01*
X187400656Y-86691288D01*
X187278612Y-86616011D01*
X187245441Y-86595551D01*
X187198717Y-86543603D01*
X187187494Y-86474640D01*
X187215338Y-86410558D01*
X187222857Y-86402331D01*
X187370105Y-86255082D01*
X187505600Y-86061578D01*
X187605429Y-85847492D01*
X187605432Y-85847486D01*
X187662636Y-85634000D01*
X186795347Y-85634000D01*
X186728308Y-85614315D01*
X186682553Y-85561511D01*
X186672609Y-85492353D01*
X186676369Y-85475067D01*
X186682000Y-85455888D01*
X186682000Y-85312111D01*
X186676369Y-85292933D01*
X186676370Y-85223064D01*
X186714145Y-85164286D01*
X186777701Y-85135262D01*
X186795347Y-85134000D01*
X187662636Y-85134000D01*
X187662635Y-85133999D01*
X187605432Y-84920513D01*
X187605429Y-84920507D01*
X187505600Y-84706422D01*
X187505599Y-84706420D01*
X187370113Y-84512926D01*
X187370108Y-84512920D01*
X187203079Y-84345891D01*
X187203073Y-84345886D01*
X187009579Y-84210400D01*
X187009577Y-84210399D01*
X186795492Y-84110570D01*
X186795483Y-84110566D01*
X186567326Y-84049432D01*
X186567316Y-84049430D01*
X186432000Y-84037590D01*
X186432000Y-84771698D01*
X186412315Y-84838737D01*
X186359511Y-84884492D01*
X186290355Y-84894436D01*
X186217766Y-84884000D01*
X186217763Y-84884000D01*
X186146237Y-84884000D01*
X186146233Y-84884000D01*
X186073645Y-84894436D01*
X186004487Y-84884492D01*
X185951684Y-84838736D01*
X185932000Y-84771698D01*
X185932000Y-84037591D01*
X185931999Y-84037590D01*
X185796683Y-84049430D01*
X185796673Y-84049432D01*
X185568516Y-84110566D01*
X185568507Y-84110570D01*
X185354422Y-84210399D01*
X185354420Y-84210400D01*
X185160926Y-84345886D01*
X185160920Y-84345891D01*
X184993894Y-84512917D01*
X184858399Y-84706421D01*
X184758570Y-84920507D01*
X184758567Y-84920513D01*
X184701364Y-85133999D01*
X184701364Y-85134000D01*
X185568653Y-85134000D01*
X185635692Y-85153685D01*
X185681447Y-85206489D01*
X185691391Y-85275647D01*
X185687631Y-85292933D01*
X185682000Y-85312111D01*
X185682000Y-85455888D01*
X185687631Y-85475067D01*
X185687630Y-85544936D01*
X185649855Y-85603714D01*
X185586299Y-85632738D01*
X185568653Y-85634000D01*
X184701364Y-85634000D01*
X184758567Y-85847486D01*
X184758570Y-85847492D01*
X184858399Y-86061577D01*
X184858400Y-86061579D01*
X184993886Y-86255073D01*
X185141143Y-86402331D01*
X185174627Y-86463654D01*
X185169643Y-86533346D01*
X185127771Y-86589279D01*
X185118558Y-86595550D01*
X184963347Y-86691285D01*
X184963343Y-86691288D01*
X184839289Y-86815342D01*
X184747187Y-86964663D01*
X184747185Y-86964668D01*
X184740729Y-86984151D01*
X184692001Y-87131203D01*
X184692001Y-87131204D01*
X184692000Y-87131204D01*
X184681500Y-87233983D01*
X184681500Y-88534001D01*
X159677988Y-88534001D01*
X170601371Y-77610619D01*
X170662695Y-77577134D01*
X170689053Y-77574300D01*
X171087937Y-77574300D01*
X171154976Y-77593985D01*
X171200731Y-77646789D01*
X171210675Y-77715947D01*
X171200319Y-77750704D01*
X171192099Y-77768330D01*
X171192094Y-77768344D01*
X171130938Y-77996586D01*
X171130936Y-77996596D01*
X171110341Y-78231999D01*
X171110341Y-78232000D01*
X171130936Y-78467403D01*
X171130938Y-78467413D01*
X171192094Y-78695655D01*
X171192096Y-78695659D01*
X171192097Y-78695663D01*
X171249791Y-78819387D01*
X171291965Y-78909830D01*
X171291967Y-78909834D01*
X171427501Y-79103395D01*
X171427506Y-79103402D01*
X171594597Y-79270493D01*
X171594603Y-79270498D01*
X171780158Y-79400425D01*
X171823783Y-79455002D01*
X171830977Y-79524500D01*
X171799454Y-79586855D01*
X171780158Y-79603575D01*
X171594597Y-79733505D01*
X171427505Y-79900597D01*
X171291965Y-80094169D01*
X171291964Y-80094171D01*
X171192098Y-80308335D01*
X171192094Y-80308344D01*
X171130938Y-80536586D01*
X171130936Y-80536596D01*
X171110341Y-80771999D01*
X171110341Y-80772000D01*
X171130936Y-81007403D01*
X171130938Y-81007413D01*
X171192094Y-81235655D01*
X171192096Y-81235659D01*
X171192097Y-81235663D01*
X171291964Y-81449830D01*
X171291965Y-81449830D01*
X171291967Y-81449834D01*
X171400281Y-81604521D01*
X171427505Y-81643401D01*
X171594599Y-81810495D01*
X171675888Y-81867414D01*
X171788165Y-81946032D01*
X171788167Y-81946033D01*
X171788170Y-81946035D01*
X172002337Y-82045903D01*
X172230592Y-82107063D01*
X172398496Y-82121753D01*
X172465999Y-82127659D01*
X172466000Y-82127659D01*
X172466001Y-82127659D01*
X172533504Y-82121753D01*
X172701408Y-82107063D01*
X172929663Y-82045903D01*
X173143830Y-81946035D01*
X173337401Y-81810495D01*
X173504495Y-81643401D01*
X173640035Y-81449830D01*
X173739903Y-81235663D01*
X173801063Y-81007408D01*
X173821659Y-80772000D01*
X173801063Y-80536592D01*
X173739903Y-80308337D01*
X173640035Y-80094171D01*
X173633463Y-80084784D01*
X173504494Y-79900597D01*
X173337402Y-79733506D01*
X173337396Y-79733501D01*
X173151842Y-79603575D01*
X173108217Y-79548998D01*
X173101023Y-79479500D01*
X173132546Y-79417145D01*
X173151842Y-79400425D01*
X173184932Y-79377255D01*
X173337401Y-79270495D01*
X173504495Y-79103401D01*
X173640035Y-78909830D01*
X173739903Y-78695663D01*
X173801063Y-78467408D01*
X173821659Y-78232000D01*
X173801063Y-77996592D01*
X173739903Y-77768337D01*
X173731681Y-77750704D01*
X173721189Y-77681627D01*
X173749709Y-77617843D01*
X173808186Y-77579604D01*
X173844063Y-77574300D01*
X175730157Y-77574300D01*
X175745777Y-77576024D01*
X175745804Y-77575739D01*
X175753560Y-77576471D01*
X175753567Y-77576473D01*
X175822714Y-77574300D01*
X175852250Y-77574300D01*
X175859128Y-77573430D01*
X175864941Y-77572972D01*
X175911527Y-77571509D01*
X175930769Y-77565917D01*
X175949812Y-77561974D01*
X175969692Y-77559464D01*
X176013022Y-77542307D01*
X176018546Y-77540417D01*
X176022296Y-77539327D01*
X176063290Y-77527418D01*
X176080529Y-77517222D01*
X176098003Y-77508662D01*
X176116627Y-77501288D01*
X176116627Y-77501287D01*
X176116632Y-77501286D01*
X176154349Y-77473882D01*
X176159205Y-77470692D01*
X176199320Y-77446970D01*
X176213489Y-77432799D01*
X176228279Y-77420168D01*
X176244487Y-77408394D01*
X176274199Y-77372476D01*
X176278112Y-77368176D01*
X179432419Y-74213869D01*
X179493742Y-74180385D01*
X179563434Y-74185369D01*
X179619367Y-74227241D01*
X179643784Y-74292705D01*
X179644100Y-74301551D01*
X179644100Y-76310646D01*
X179624415Y-76377685D01*
X179607781Y-76398327D01*
X171895828Y-84110281D01*
X171834505Y-84143766D01*
X171808147Y-84146600D01*
X171748954Y-84146600D01*
X171716497Y-84153498D01*
X171563797Y-84185955D01*
X171563792Y-84185957D01*
X171390870Y-84262948D01*
X171390865Y-84262951D01*
X171237729Y-84374211D01*
X171111066Y-84514885D01*
X171016421Y-84678815D01*
X171016418Y-84678822D01*
X170964459Y-84838737D01*
X170957926Y-84858844D01*
X170938140Y-85047100D01*
X170957926Y-85235356D01*
X170957927Y-85235359D01*
X171016418Y-85415377D01*
X171016421Y-85415384D01*
X171111067Y-85579316D01*
X171218008Y-85698086D01*
X171237729Y-85719988D01*
X171390865Y-85831248D01*
X171390870Y-85831251D01*
X171563792Y-85908242D01*
X171563797Y-85908244D01*
X171748954Y-85947600D01*
X171748955Y-85947600D01*
X171938244Y-85947600D01*
X171938246Y-85947600D01*
X172123403Y-85908244D01*
X172296330Y-85831251D01*
X172449471Y-85719988D01*
X172576133Y-85579316D01*
X172670779Y-85415384D01*
X172729274Y-85235356D01*
X172746921Y-85067445D01*
X172773505Y-85002832D01*
X172782552Y-84992736D01*
X178019289Y-79756000D01*
X184572341Y-79756000D01*
X184592936Y-79991403D01*
X184592938Y-79991413D01*
X184654094Y-80219655D01*
X184654096Y-80219659D01*
X184654097Y-80219663D01*
X184671640Y-80257284D01*
X184753964Y-80433828D01*
X184753965Y-80433830D01*
X184889505Y-80627402D01*
X185056597Y-80794494D01*
X185250169Y-80930034D01*
X185250171Y-80930035D01*
X185464337Y-81029903D01*
X185692592Y-81091063D01*
X185869034Y-81106500D01*
X185986966Y-81106500D01*
X186163408Y-81091063D01*
X186391663Y-81029903D01*
X186605829Y-80930035D01*
X186799401Y-80794495D01*
X186966495Y-80627401D01*
X187102035Y-80433830D01*
X187201903Y-80219663D01*
X187263063Y-79991408D01*
X187283659Y-79756000D01*
X187263063Y-79520592D01*
X187201903Y-79292337D01*
X187102035Y-79078171D01*
X187102034Y-79078169D01*
X186966494Y-78884597D01*
X186799402Y-78717505D01*
X186605830Y-78581965D01*
X186605828Y-78581964D01*
X186498745Y-78532030D01*
X186391663Y-78482097D01*
X186391659Y-78482096D01*
X186391655Y-78482094D01*
X186163413Y-78420938D01*
X186163403Y-78420936D01*
X185986966Y-78405500D01*
X185869034Y-78405500D01*
X185692596Y-78420936D01*
X185692586Y-78420938D01*
X185464344Y-78482094D01*
X185464335Y-78482098D01*
X185250171Y-78581964D01*
X185250169Y-78581965D01*
X185056597Y-78717505D01*
X184889506Y-78884597D01*
X184889501Y-78884604D01*
X184753967Y-79078165D01*
X184753965Y-79078169D01*
X184654098Y-79292335D01*
X184654094Y-79292344D01*
X184592938Y-79520586D01*
X184592936Y-79520596D01*
X184572341Y-79755999D01*
X184572341Y-79756000D01*
X178019289Y-79756000D01*
X180653388Y-77121901D01*
X180665642Y-77112086D01*
X180665459Y-77111864D01*
X180671466Y-77106892D01*
X180671477Y-77106886D01*
X180711494Y-77064272D01*
X180718827Y-77056464D01*
X180729271Y-77046018D01*
X180739720Y-77035571D01*
X180743979Y-77030078D01*
X180747752Y-77025661D01*
X180779662Y-76991682D01*
X180789313Y-76974124D01*
X180799996Y-76957861D01*
X180812273Y-76942036D01*
X180830785Y-76899253D01*
X180833338Y-76894041D01*
X180855797Y-76853192D01*
X180860780Y-76833780D01*
X180867081Y-76815380D01*
X180875037Y-76796996D01*
X180882329Y-76750952D01*
X180883506Y-76745271D01*
X180895100Y-76700119D01*
X180895100Y-76680082D01*
X180896627Y-76660682D01*
X180896859Y-76659217D01*
X180899760Y-76640904D01*
X180895375Y-76594515D01*
X180895100Y-76588677D01*
X180895100Y-74218687D01*
X180914785Y-74151648D01*
X180926950Y-74135715D01*
X180951426Y-74108531D01*
X181002133Y-74052216D01*
X181096779Y-73888284D01*
X181155274Y-73708256D01*
X181175060Y-73520000D01*
X181155274Y-73331744D01*
X181096779Y-73151716D01*
X181002133Y-72987784D01*
X180918059Y-72894411D01*
X180887830Y-72831421D01*
X180896455Y-72762086D01*
X180922526Y-72723762D01*
X184310901Y-69335388D01*
X184372222Y-69301905D01*
X184424010Y-69303539D01*
X184424295Y-69302016D01*
X184429928Y-69303069D01*
X184429931Y-69303070D01*
X184644074Y-69343100D01*
X184644076Y-69343100D01*
X184861924Y-69343100D01*
X184861926Y-69343100D01*
X185076069Y-69303070D01*
X185279210Y-69224372D01*
X185464432Y-69109688D01*
X185625427Y-68962922D01*
X185756712Y-68789072D01*
X185853817Y-68594059D01*
X185913435Y-68384523D01*
X185933536Y-68167600D01*
X185913435Y-67950677D01*
X185853817Y-67741141D01*
X185756712Y-67546128D01*
X185625427Y-67372278D01*
X185618597Y-67366052D01*
X185491270Y-67249978D01*
X185464432Y-67225512D01*
X185464428Y-67225509D01*
X185464423Y-67225506D01*
X185279213Y-67110829D01*
X185279207Y-67110826D01*
X185194112Y-67077860D01*
X185076069Y-67032130D01*
X184861926Y-66992100D01*
X184644074Y-66992100D01*
X184429931Y-67032130D01*
X184386896Y-67048802D01*
X184226792Y-67110826D01*
X184226786Y-67110829D01*
X184041576Y-67225506D01*
X184041566Y-67225513D01*
X183880574Y-67372276D01*
X183851640Y-67410591D01*
X183795530Y-67452227D01*
X183725818Y-67456918D01*
X183664637Y-67423176D01*
X183653731Y-67410590D01*
X183625051Y-67372611D01*
X183625050Y-67372610D01*
X183464131Y-67225914D01*
X183278987Y-67111277D01*
X183278985Y-67111276D01*
X183075931Y-67032613D01*
X183075921Y-67032610D01*
X183003001Y-67018978D01*
X183003000Y-67018979D01*
X183003000Y-67657024D01*
X182983315Y-67724063D01*
X182930511Y-67769818D01*
X182861353Y-67779762D01*
X182859602Y-67779497D01*
X182784486Y-67767600D01*
X182784481Y-67767600D01*
X182721519Y-67767600D01*
X182721514Y-67767600D01*
X182646398Y-67779497D01*
X182577104Y-67770542D01*
X182523652Y-67725546D01*
X182503013Y-67658794D01*
X182503000Y-67657024D01*
X182503000Y-67018979D01*
X182502998Y-67018978D01*
X182430078Y-67032610D01*
X182430068Y-67032613D01*
X182227014Y-67111276D01*
X182227012Y-67111277D01*
X182041869Y-67225914D01*
X182041868Y-67225914D01*
X182030887Y-67235925D01*
X181968082Y-67266540D01*
X181898695Y-67258340D01*
X181848086Y-67218597D01*
X181785546Y-67135054D01*
X181753182Y-67110826D01*
X181670335Y-67048806D01*
X181670328Y-67048802D01*
X181535482Y-66998508D01*
X181535483Y-66998508D01*
X181475883Y-66992101D01*
X181475881Y-66992100D01*
X181475873Y-66992100D01*
X181475864Y-66992100D01*
X180030129Y-66992100D01*
X180030123Y-66992101D01*
X179970516Y-66998508D01*
X179835671Y-67048802D01*
X179835664Y-67048806D01*
X179720455Y-67135052D01*
X179720452Y-67135055D01*
X179634206Y-67250264D01*
X179634202Y-67250271D01*
X179583908Y-67385117D01*
X179577501Y-67444716D01*
X179577500Y-67444735D01*
X179577500Y-67474299D01*
X179557815Y-67541338D01*
X179507418Y-67585006D01*
X179507422Y-67585013D01*
X179507388Y-67585032D01*
X179505011Y-67587093D01*
X179502751Y-67588099D01*
X179500708Y-67588983D01*
X179483466Y-67599179D01*
X179466005Y-67607733D01*
X179447374Y-67615110D01*
X179447362Y-67615117D01*
X179409670Y-67642502D01*
X179404787Y-67645709D01*
X179364680Y-67669429D01*
X179350514Y-67683595D01*
X179335724Y-67696227D01*
X179319514Y-67708004D01*
X179319511Y-67708007D01*
X179289810Y-67743909D01*
X179285877Y-67748231D01*
X174027681Y-73006428D01*
X173966358Y-73039913D01*
X173896666Y-73034929D01*
X173840733Y-72993057D01*
X173816316Y-72927593D01*
X173816000Y-72918747D01*
X173816000Y-72254172D01*
X173815999Y-72254155D01*
X173809598Y-72194627D01*
X173809596Y-72194620D01*
X173759354Y-72059913D01*
X173759350Y-72059906D01*
X173673190Y-71944812D01*
X173673187Y-71944809D01*
X173558093Y-71858649D01*
X173558086Y-71858645D01*
X173423379Y-71808403D01*
X173423372Y-71808401D01*
X173363844Y-71802000D01*
X172716000Y-71802000D01*
X172716000Y-72539698D01*
X172696315Y-72606737D01*
X172643511Y-72652492D01*
X172574355Y-72662436D01*
X172501766Y-72652000D01*
X172501763Y-72652000D01*
X172430237Y-72652000D01*
X172430233Y-72652000D01*
X172357645Y-72662436D01*
X172288487Y-72652492D01*
X172235684Y-72606736D01*
X172216000Y-72539698D01*
X172216000Y-71802000D01*
X171568155Y-71802000D01*
X171508627Y-71808401D01*
X171508620Y-71808403D01*
X171373913Y-71858645D01*
X171373906Y-71858649D01*
X171258812Y-71944809D01*
X171258809Y-71944812D01*
X171172649Y-72059906D01*
X171172645Y-72059913D01*
X171122403Y-72194620D01*
X171122401Y-72194627D01*
X171116000Y-72254155D01*
X171116000Y-72847847D01*
X171096315Y-72914886D01*
X171043511Y-72960641D01*
X170974353Y-72970585D01*
X170910797Y-72941560D01*
X170904319Y-72935528D01*
X169889819Y-71921028D01*
X169856334Y-71859705D01*
X169853500Y-71833347D01*
X169853500Y-71722637D01*
X169855224Y-71707023D01*
X169854938Y-71706996D01*
X169855672Y-71699233D01*
X169853500Y-71630102D01*
X169853500Y-71600551D01*
X169853500Y-71600550D01*
X169852629Y-71593659D01*
X169852172Y-71587845D01*
X169851676Y-71572071D01*
X169850709Y-71541272D01*
X169845120Y-71522037D01*
X169841174Y-71502984D01*
X169838664Y-71483108D01*
X169821501Y-71439759D01*
X169819614Y-71434246D01*
X169806617Y-71389510D01*
X169806616Y-71389508D01*
X169796421Y-71372269D01*
X169787860Y-71354793D01*
X169786308Y-71350875D01*
X169780486Y-71336168D01*
X169780486Y-71336167D01*
X169770474Y-71322388D01*
X169753083Y-71298450D01*
X169749900Y-71293605D01*
X169726170Y-71253479D01*
X169726165Y-71253473D01*
X169712005Y-71239313D01*
X169699370Y-71224520D01*
X169687593Y-71208312D01*
X169651693Y-71178613D01*
X169647381Y-71174690D01*
X165191703Y-66719012D01*
X165181880Y-66706750D01*
X165181659Y-66706934D01*
X165176686Y-66700923D01*
X165176685Y-66700922D01*
X165126264Y-66653573D01*
X165114426Y-66641735D01*
X165105375Y-66632683D01*
X165099886Y-66628425D01*
X165095461Y-66624647D01*
X165061482Y-66592738D01*
X165061480Y-66592736D01*
X165061477Y-66592735D01*
X165043929Y-66583088D01*
X165027663Y-66572404D01*
X165026516Y-66571514D01*
X165011836Y-66560127D01*
X165011835Y-66560126D01*
X165011833Y-66560125D01*
X164969068Y-66541618D01*
X164963822Y-66539048D01*
X164922993Y-66516603D01*
X164922992Y-66516602D01*
X164903593Y-66511622D01*
X164885181Y-66505318D01*
X164866798Y-66497362D01*
X164866792Y-66497360D01*
X164820774Y-66490072D01*
X164815052Y-66488887D01*
X164769921Y-66477300D01*
X164769919Y-66477300D01*
X164749884Y-66477300D01*
X164730486Y-66475773D01*
X164723062Y-66474597D01*
X164710705Y-66472640D01*
X164710704Y-66472640D01*
X164664316Y-66477025D01*
X164658478Y-66477300D01*
X161453543Y-66477300D01*
X161437922Y-66475575D01*
X161437895Y-66475861D01*
X161430133Y-66475126D01*
X161360972Y-66477300D01*
X161331449Y-66477300D01*
X161324578Y-66478167D01*
X161318759Y-66478625D01*
X161272174Y-66480089D01*
X161272168Y-66480090D01*
X161252926Y-66485680D01*
X161233887Y-66489623D01*
X161214017Y-66492134D01*
X161214003Y-66492137D01*
X161170683Y-66509288D01*
X161165158Y-66511180D01*
X161120413Y-66524180D01*
X161120410Y-66524181D01*
X161103166Y-66534379D01*
X161085705Y-66542933D01*
X161067074Y-66550310D01*
X161067062Y-66550317D01*
X161029370Y-66577702D01*
X161024487Y-66580909D01*
X160984380Y-66604629D01*
X160970214Y-66618795D01*
X160955424Y-66631427D01*
X160939214Y-66643204D01*
X160939211Y-66643207D01*
X160909510Y-66679109D01*
X160905577Y-66683431D01*
X160633227Y-66955781D01*
X160571904Y-66989266D01*
X160545546Y-66992100D01*
X159583129Y-66992100D01*
X159583123Y-66992101D01*
X159523516Y-66998508D01*
X159388671Y-67048802D01*
X159388664Y-67048806D01*
X159273455Y-67135052D01*
X159273452Y-67135055D01*
X159187206Y-67250264D01*
X159187202Y-67250271D01*
X159141573Y-67372611D01*
X159136909Y-67385117D01*
X159131937Y-67431357D01*
X159105201Y-67495906D01*
X159047809Y-67535754D01*
X159008649Y-67542100D01*
X158088943Y-67542100D01*
X158073322Y-67540375D01*
X158073295Y-67540661D01*
X158065533Y-67539926D01*
X157996372Y-67542100D01*
X157966849Y-67542100D01*
X157959978Y-67542967D01*
X157954159Y-67543425D01*
X157907574Y-67544889D01*
X157907568Y-67544890D01*
X157888326Y-67550480D01*
X157869287Y-67554423D01*
X157849417Y-67556934D01*
X157849403Y-67556937D01*
X157806083Y-67574088D01*
X157800558Y-67575980D01*
X157755813Y-67588980D01*
X157755810Y-67588981D01*
X157738566Y-67599179D01*
X157721105Y-67607733D01*
X157702474Y-67615110D01*
X157702462Y-67615117D01*
X157664770Y-67642502D01*
X157659887Y-67645709D01*
X157619780Y-67669429D01*
X157605614Y-67683595D01*
X157590824Y-67696227D01*
X157574614Y-67708004D01*
X157574611Y-67708007D01*
X157544910Y-67743909D01*
X157540977Y-67748231D01*
X153701108Y-71588099D01*
X153688851Y-71597920D01*
X153689034Y-71598141D01*
X153683023Y-71603113D01*
X153681581Y-71604649D01*
X153635673Y-71653535D01*
X153633289Y-71655919D01*
X153633146Y-71656062D01*
X153571807Y-71689519D01*
X153502118Y-71684503D01*
X153493100Y-71680723D01*
X153371669Y-71624099D01*
X153371655Y-71624094D01*
X153143413Y-71562938D01*
X153143403Y-71562936D01*
X153081649Y-71557533D01*
X153016580Y-71532079D01*
X153004777Y-71521686D01*
X150910803Y-69427712D01*
X150900980Y-69415450D01*
X150900759Y-69415634D01*
X150895786Y-69409623D01*
X150884598Y-69399117D01*
X150845364Y-69362273D01*
X150834919Y-69351828D01*
X150824475Y-69341383D01*
X150818986Y-69337125D01*
X150814561Y-69333347D01*
X150780582Y-69301438D01*
X150780580Y-69301436D01*
X150780577Y-69301435D01*
X150763029Y-69291788D01*
X150746763Y-69281104D01*
X150730936Y-69268827D01*
X150730935Y-69268826D01*
X150730933Y-69268825D01*
X150688168Y-69250318D01*
X150682922Y-69247748D01*
X150642093Y-69225303D01*
X150642092Y-69225302D01*
X150622693Y-69220322D01*
X150604281Y-69214018D01*
X150585898Y-69206062D01*
X150585892Y-69206060D01*
X150539874Y-69198772D01*
X150534152Y-69197587D01*
X150489021Y-69186000D01*
X150489019Y-69186000D01*
X150468984Y-69186000D01*
X150449586Y-69184473D01*
X150442162Y-69183297D01*
X150429805Y-69181340D01*
X150429804Y-69181340D01*
X150383416Y-69185725D01*
X150377578Y-69186000D01*
X144679803Y-69186000D01*
X144612764Y-69166315D01*
X144567009Y-69113511D01*
X144557065Y-69044353D01*
X144586090Y-68980797D01*
X144596259Y-68970367D01*
X144604427Y-68962922D01*
X144735712Y-68789072D01*
X144832817Y-68594059D01*
X144892435Y-68384523D01*
X144912536Y-68167600D01*
X144892435Y-67950677D01*
X144832817Y-67741141D01*
X144735712Y-67546128D01*
X144604427Y-67372278D01*
X144597597Y-67366052D01*
X144470270Y-67249978D01*
X144443432Y-67225512D01*
X144443428Y-67225509D01*
X144443423Y-67225506D01*
X144258213Y-67110829D01*
X144258207Y-67110826D01*
X144173113Y-67077860D01*
X144055069Y-67032130D01*
X143840926Y-66992100D01*
X143623074Y-66992100D01*
X143623072Y-66992100D01*
X143533997Y-67008750D01*
X143464482Y-67001718D01*
X143423533Y-66974542D01*
X143217003Y-66768012D01*
X143207180Y-66755750D01*
X143206959Y-66755934D01*
X143201986Y-66749923D01*
X143183359Y-66732431D01*
X143151564Y-66702573D01*
X143141119Y-66692128D01*
X143130675Y-66681683D01*
X143125186Y-66677425D01*
X143120761Y-66673647D01*
X143086782Y-66641738D01*
X143086780Y-66641736D01*
X143086777Y-66641735D01*
X143069229Y-66632088D01*
X143052963Y-66621404D01*
X143037136Y-66609127D01*
X143037135Y-66609126D01*
X143037133Y-66609125D01*
X142994368Y-66590618D01*
X142989122Y-66588048D01*
X142948293Y-66565603D01*
X142948292Y-66565602D01*
X142928893Y-66560622D01*
X142910481Y-66554318D01*
X142892098Y-66546362D01*
X142892092Y-66546360D01*
X142846074Y-66539072D01*
X142840352Y-66537887D01*
X142795221Y-66526300D01*
X142795219Y-66526300D01*
X142775184Y-66526300D01*
X142755786Y-66524773D01*
X142748362Y-66523597D01*
X142736005Y-66521640D01*
X142736004Y-66521640D01*
X142689616Y-66526025D01*
X142683778Y-66526300D01*
X135283637Y-66526300D01*
X135268020Y-66524576D01*
X135267993Y-66524862D01*
X135260231Y-66524127D01*
X135191103Y-66526300D01*
X135161550Y-66526300D01*
X135160829Y-66526390D01*
X135154657Y-66527169D01*
X135148845Y-66527626D01*
X135102273Y-66529090D01*
X135102272Y-66529090D01*
X135083029Y-66534681D01*
X135063979Y-66538625D01*
X135044111Y-66541134D01*
X135044109Y-66541135D01*
X135000784Y-66558288D01*
X134995257Y-66560180D01*
X134950510Y-66573181D01*
X134950509Y-66573182D01*
X134933267Y-66583379D01*
X134915799Y-66591937D01*
X134897169Y-66599313D01*
X134897167Y-66599314D01*
X134859476Y-66626698D01*
X134854594Y-66629905D01*
X134814479Y-66653630D01*
X134800308Y-66667800D01*
X134785523Y-66680428D01*
X134769312Y-66692207D01*
X134739609Y-66728110D01*
X134735676Y-66732431D01*
X132220361Y-69247748D01*
X129739028Y-71729081D01*
X129677705Y-71762566D01*
X129651347Y-71765400D01*
X128114737Y-71765400D01*
X128099120Y-71763676D01*
X128099093Y-71763962D01*
X128091331Y-71763227D01*
X128022203Y-71765400D01*
X127992650Y-71765400D01*
X127991929Y-71765490D01*
X127985757Y-71766269D01*
X127979945Y-71766726D01*
X127933372Y-71768190D01*
X127933369Y-71768191D01*
X127914126Y-71773781D01*
X127895083Y-71777725D01*
X127875204Y-71780236D01*
X127875203Y-71780237D01*
X127831878Y-71797390D01*
X127826352Y-71799282D01*
X127781608Y-71812283D01*
X127781604Y-71812285D01*
X127764365Y-71822480D01*
X127746898Y-71831037D01*
X127728269Y-71838412D01*
X127728267Y-71838413D01*
X127690564Y-71865806D01*
X127685682Y-71869012D01*
X127645580Y-71892728D01*
X127631408Y-71906900D01*
X127616623Y-71919528D01*
X127600412Y-71931307D01*
X127570709Y-71967210D01*
X127566777Y-71971531D01*
X126739480Y-72798827D01*
X126678157Y-72832312D01*
X126608465Y-72827328D01*
X126594759Y-72820491D01*
X126594571Y-72820871D01*
X126416778Y-72732694D01*
X126416776Y-72732693D01*
X126416775Y-72732693D01*
X126378939Y-72723283D01*
X126230708Y-72686419D01*
X126187658Y-72683500D01*
X126187657Y-72683500D01*
X125272344Y-72683501D01*
X125272343Y-72683501D01*
X125229298Y-72686418D01*
X125229297Y-72686418D01*
X125060925Y-72728291D01*
X124991116Y-72725367D01*
X124933970Y-72685166D01*
X124907630Y-72620452D01*
X124906999Y-72607956D01*
X124906999Y-71633394D01*
X124906999Y-70479733D01*
X124908725Y-70464123D01*
X124908439Y-70464096D01*
X124909171Y-70456340D01*
X124909173Y-70456333D01*
X124907000Y-70387185D01*
X124907000Y-70357650D01*
X124906131Y-70350772D01*
X124905672Y-70344943D01*
X124904937Y-70321562D01*
X124904209Y-70298373D01*
X124898622Y-70279144D01*
X124894674Y-70260084D01*
X124892163Y-70240204D01*
X124875012Y-70196887D01*
X124873119Y-70191358D01*
X124860118Y-70146609D01*
X124860116Y-70146606D01*
X124849923Y-70129371D01*
X124841361Y-70111894D01*
X124833987Y-70093270D01*
X124833986Y-70093268D01*
X124806579Y-70055545D01*
X124803388Y-70050686D01*
X124779672Y-70010583D01*
X124779665Y-70010574D01*
X124765506Y-69996415D01*
X124752868Y-69981619D01*
X124741094Y-69965413D01*
X124733819Y-69959395D01*
X124705188Y-69935709D01*
X124700876Y-69931786D01*
X124147551Y-69378461D01*
X124114068Y-69317140D01*
X124119052Y-69247448D01*
X124151697Y-69199144D01*
X124157427Y-69193922D01*
X124237415Y-69088000D01*
X128692341Y-69088000D01*
X128712936Y-69323403D01*
X128712938Y-69323413D01*
X128774094Y-69551655D01*
X128774096Y-69551659D01*
X128774097Y-69551663D01*
X128802462Y-69612492D01*
X128873964Y-69765828D01*
X128873965Y-69765830D01*
X129009505Y-69959402D01*
X129176597Y-70126494D01*
X129370169Y-70262034D01*
X129370171Y-70262035D01*
X129584337Y-70361903D01*
X129812592Y-70423063D01*
X129989034Y-70438500D01*
X130106966Y-70438500D01*
X130283408Y-70423063D01*
X130511663Y-70361903D01*
X130725829Y-70262035D01*
X130919401Y-70126495D01*
X131086495Y-69959401D01*
X131222035Y-69765830D01*
X131321903Y-69551663D01*
X131383063Y-69323408D01*
X131403659Y-69088000D01*
X131403390Y-69084931D01*
X131392716Y-68962920D01*
X131383063Y-68852592D01*
X131321903Y-68624337D01*
X131222035Y-68410171D01*
X131222034Y-68410169D01*
X131086494Y-68216597D01*
X130919402Y-68049505D01*
X130725830Y-67913965D01*
X130725828Y-67913964D01*
X130588204Y-67849789D01*
X130511663Y-67814097D01*
X130511659Y-67814096D01*
X130511655Y-67814094D01*
X130283413Y-67752938D01*
X130283403Y-67752936D01*
X130106966Y-67737500D01*
X129989034Y-67737500D01*
X129812596Y-67752936D01*
X129812586Y-67752938D01*
X129584344Y-67814094D01*
X129584335Y-67814098D01*
X129370171Y-67913964D01*
X129370169Y-67913965D01*
X129176597Y-68049505D01*
X129009506Y-68216597D01*
X129009501Y-68216604D01*
X128873967Y-68410165D01*
X128873965Y-68410169D01*
X128774098Y-68624335D01*
X128774094Y-68624344D01*
X128712938Y-68852586D01*
X128712936Y-68852596D01*
X128692341Y-69087999D01*
X128692341Y-69088000D01*
X124237415Y-69088000D01*
X124288712Y-69020072D01*
X124385817Y-68825059D01*
X124445435Y-68615523D01*
X124465536Y-68398600D01*
X124445435Y-68181677D01*
X124385817Y-67972141D01*
X124288712Y-67777128D01*
X124157427Y-67603278D01*
X124140776Y-67588099D01*
X124015943Y-67474299D01*
X123996432Y-67456512D01*
X123996428Y-67456509D01*
X123996423Y-67456506D01*
X123811213Y-67341829D01*
X123811207Y-67341826D01*
X123726113Y-67308860D01*
X123608069Y-67263130D01*
X123393926Y-67223100D01*
X123176074Y-67223100D01*
X122961931Y-67263130D01*
X122918896Y-67279802D01*
X122758792Y-67341826D01*
X122758786Y-67341829D01*
X122573576Y-67456506D01*
X122573566Y-67456513D01*
X122412574Y-67603276D01*
X122383640Y-67641591D01*
X122327530Y-67683227D01*
X122257818Y-67687918D01*
X122196637Y-67654176D01*
X122185731Y-67641590D01*
X122157051Y-67603611D01*
X122157050Y-67603610D01*
X121996131Y-67456914D01*
X121810987Y-67342277D01*
X121810985Y-67342276D01*
X121607931Y-67263613D01*
X121607921Y-67263610D01*
X121535001Y-67249978D01*
X121535000Y-67249979D01*
X121535000Y-67888024D01*
X121515315Y-67955063D01*
X121462511Y-68000818D01*
X121393353Y-68010762D01*
X121391602Y-68010497D01*
X121316486Y-67998600D01*
X121316481Y-67998600D01*
X121253519Y-67998600D01*
X121253514Y-67998600D01*
X121178398Y-68010497D01*
X121109104Y-68001542D01*
X121055652Y-67956546D01*
X121035013Y-67889794D01*
X121035000Y-67888024D01*
X121034999Y-67249979D01*
X121034998Y-67249978D01*
X120962078Y-67263610D01*
X120962068Y-67263613D01*
X120759014Y-67342276D01*
X120759012Y-67342277D01*
X120573869Y-67456914D01*
X120573868Y-67456914D01*
X120562887Y-67466925D01*
X120500082Y-67497540D01*
X120430695Y-67489340D01*
X120380086Y-67449597D01*
X120317546Y-67366054D01*
X120277463Y-67336048D01*
X120202335Y-67279806D01*
X120202328Y-67279802D01*
X120067482Y-67229508D01*
X120067483Y-67229508D01*
X120007883Y-67223101D01*
X120007881Y-67223100D01*
X120007873Y-67223100D01*
X120007864Y-67223100D01*
X118562129Y-67223100D01*
X118562123Y-67223101D01*
X118502516Y-67229508D01*
X118367671Y-67279802D01*
X118367664Y-67279806D01*
X118252455Y-67366052D01*
X118252452Y-67366055D01*
X118166206Y-67481264D01*
X118166202Y-67481271D01*
X118115908Y-67616117D01*
X118109501Y-67675716D01*
X118109500Y-67675735D01*
X118109500Y-69121470D01*
X118109501Y-69121476D01*
X118115908Y-69181083D01*
X118166202Y-69315928D01*
X118166206Y-69315935D01*
X118252452Y-69431144D01*
X118252455Y-69431147D01*
X118367664Y-69517393D01*
X118367671Y-69517397D01*
X118502516Y-69567691D01*
X118528419Y-69570475D01*
X118562127Y-69574100D01*
X118593623Y-69574099D01*
X118660661Y-69593782D01*
X118706418Y-69646584D01*
X118711554Y-69659776D01*
X118714531Y-69668938D01*
X118718907Y-69675833D01*
X118729503Y-69696629D01*
X118732511Y-69704226D01*
X118732513Y-69704231D01*
X118766265Y-69750687D01*
X118768455Y-69753909D01*
X118799213Y-69802376D01*
X118805164Y-69807964D01*
X118820604Y-69825478D01*
X118825403Y-69832085D01*
X118869647Y-69868687D01*
X118872567Y-69871261D01*
X118914418Y-69910562D01*
X118921578Y-69914498D01*
X118940879Y-69927614D01*
X118947177Y-69932824D01*
X118947178Y-69932824D01*
X118947179Y-69932825D01*
X118999125Y-69957269D01*
X119002597Y-69959038D01*
X119052903Y-69986695D01*
X119052905Y-69986695D01*
X119052908Y-69986697D01*
X119058205Y-69988056D01*
X119060814Y-69988727D01*
X119082776Y-69996632D01*
X119090174Y-70000114D01*
X119145008Y-70010574D01*
X119146576Y-70010873D01*
X119150362Y-70011719D01*
X119205981Y-70026000D01*
X119214153Y-70026000D01*
X119237385Y-70028196D01*
X119238989Y-70028501D01*
X119245412Y-70029727D01*
X119302724Y-70026121D01*
X119306597Y-70026000D01*
X120930748Y-70026000D01*
X120997787Y-70045685D01*
X121018429Y-70062319D01*
X122528181Y-71572071D01*
X122561666Y-71633394D01*
X122564500Y-71659752D01*
X122564500Y-72625389D01*
X122544815Y-72692428D01*
X122495595Y-72736477D01*
X122331453Y-72817883D01*
X122182010Y-72938009D01*
X122182009Y-72938010D01*
X122061884Y-73087452D01*
X122030808Y-73150111D01*
X121983386Y-73201423D01*
X121915751Y-73218951D01*
X121849376Y-73197131D01*
X121808631Y-73150109D01*
X121777690Y-73087722D01*
X121657634Y-72938366D01*
X121657633Y-72938365D01*
X121508274Y-72818307D01*
X121508275Y-72818307D01*
X121336602Y-72733165D01*
X121150638Y-72686918D01*
X121150641Y-72686918D01*
X121107608Y-72684000D01*
X120900000Y-72684000D01*
X120900000Y-74571698D01*
X120880315Y-74638737D01*
X120827511Y-74684492D01*
X120758355Y-74694436D01*
X120685766Y-74684000D01*
X120685763Y-74684000D01*
X120614237Y-74684000D01*
X120614233Y-74684000D01*
X120541645Y-74694436D01*
X120472487Y-74684492D01*
X120419684Y-74638736D01*
X120400000Y-74571698D01*
X120400000Y-72684000D01*
X120399999Y-72684000D01*
X120192394Y-72684001D01*
X120149366Y-72686917D01*
X120149365Y-72686917D01*
X119963397Y-72733165D01*
X119791724Y-72818307D01*
X119642366Y-72938365D01*
X119642365Y-72938366D01*
X119522307Y-73087724D01*
X119491367Y-73150110D01*
X119443946Y-73201423D01*
X119376310Y-73218951D01*
X119309935Y-73197131D01*
X119269191Y-73150109D01*
X119238118Y-73087456D01*
X119238116Y-73087453D01*
X119117990Y-72938010D01*
X119117989Y-72938009D01*
X118968546Y-72817883D01*
X118968543Y-72817881D01*
X118796778Y-72732694D01*
X118796776Y-72732693D01*
X118796775Y-72732693D01*
X118758939Y-72723283D01*
X118610708Y-72686419D01*
X118567658Y-72683500D01*
X118567657Y-72683500D01*
X117652344Y-72683501D01*
X117652343Y-72683501D01*
X117609298Y-72686418D01*
X117609297Y-72686418D01*
X117423221Y-72732694D01*
X117251456Y-72817881D01*
X117251453Y-72817883D01*
X117102010Y-72938009D01*
X117102009Y-72938010D01*
X116981883Y-73087453D01*
X116981881Y-73087456D01*
X116896694Y-73259221D01*
X116850419Y-73445291D01*
X116847500Y-73488342D01*
X116847501Y-75879656D01*
X116847501Y-75879657D01*
X116850418Y-75922701D01*
X116850418Y-75922702D01*
X116896694Y-76108778D01*
X116981881Y-76280543D01*
X116981883Y-76280546D01*
X117102009Y-76429989D01*
X117102010Y-76429990D01*
X117251453Y-76550116D01*
X117251456Y-76550118D01*
X117340975Y-76594515D01*
X117423225Y-76635307D01*
X117564035Y-76670325D01*
X117609291Y-76681580D01*
X117609292Y-76681580D01*
X117609296Y-76681581D01*
X117648336Y-76684228D01*
X117652342Y-76684500D01*
X117652342Y-76684499D01*
X117652343Y-76684500D01*
X118567656Y-76684499D01*
X118567657Y-76684499D01*
X118578417Y-76683769D01*
X118610704Y-76681581D01*
X118796775Y-76635307D01*
X118968547Y-76550116D01*
X119117990Y-76429990D01*
X119238116Y-76280547D01*
X119269192Y-76217887D01*
X119316611Y-76166577D01*
X119384246Y-76149047D01*
X119450622Y-76170867D01*
X119491367Y-76217890D01*
X119522305Y-76280272D01*
X119522307Y-76280274D01*
X119642365Y-76429633D01*
X119642366Y-76429634D01*
X119791725Y-76549692D01*
X119791724Y-76549692D01*
X119963397Y-76634834D01*
X120149361Y-76681081D01*
X120149358Y-76681081D01*
X120192391Y-76683999D01*
X120399999Y-76683999D01*
X120399999Y-76683998D01*
X120400000Y-75796301D01*
X120419685Y-75729262D01*
X120472489Y-75683507D01*
X120541647Y-75673563D01*
X120614237Y-75684000D01*
X120614238Y-75684000D01*
X120685762Y-75684000D01*
X120685763Y-75684000D01*
X120758353Y-75673563D01*
X120827512Y-75683507D01*
X120880315Y-75729262D01*
X120900000Y-75796301D01*
X120900000Y-76683999D01*
X121107607Y-76683999D01*
X121150632Y-76681082D01*
X121150634Y-76681082D01*
X121336602Y-76634834D01*
X121508275Y-76549692D01*
X121657633Y-76429634D01*
X121657634Y-76429633D01*
X121777692Y-76280275D01*
X121808631Y-76217891D01*
X121856052Y-76166578D01*
X121923686Y-76149047D01*
X121990062Y-76170866D01*
X122030808Y-76217889D01*
X122061883Y-76280546D01*
X122166557Y-76410766D01*
X122193216Y-76475350D01*
X122180726Y-76544094D01*
X122177297Y-76550452D01*
X122148222Y-76600811D01*
X122148221Y-76600813D01*
X122099428Y-76750983D01*
X122089726Y-76780844D01*
X122075347Y-76917651D01*
X122070311Y-76965574D01*
X122069940Y-76969100D01*
X122088876Y-77149273D01*
X122089727Y-77157361D01*
X122104866Y-77203955D01*
X122106861Y-77273796D01*
X122070780Y-77333629D01*
X122008078Y-77364456D01*
X121938664Y-77356491D01*
X121936499Y-77355551D01*
X121827807Y-77307157D01*
X121827802Y-77307155D01*
X121670855Y-77273796D01*
X121642646Y-77267800D01*
X121453354Y-77267800D01*
X121425145Y-77273796D01*
X121268197Y-77307155D01*
X121268192Y-77307157D01*
X121095270Y-77384148D01*
X121095265Y-77384151D01*
X120942129Y-77495411D01*
X120815466Y-77636085D01*
X120720821Y-77800015D01*
X120720818Y-77800022D01*
X120664894Y-77972140D01*
X120662326Y-77980044D01*
X120642540Y-78168300D01*
X120662326Y-78356556D01*
X120662327Y-78356559D01*
X120720818Y-78536577D01*
X120720821Y-78536584D01*
X120815467Y-78700516D01*
X120858772Y-78748610D01*
X120890650Y-78784015D01*
X120920880Y-78847006D01*
X120922500Y-78866987D01*
X120922500Y-84239846D01*
X120902815Y-84306885D01*
X120886181Y-84327527D01*
X120322179Y-84891528D01*
X120260856Y-84925013D01*
X120191164Y-84920029D01*
X120135231Y-84878157D01*
X120110814Y-84812693D01*
X120110498Y-84803874D01*
X120110499Y-83894784D01*
X120100096Y-83762588D01*
X120072737Y-83654014D01*
X120045097Y-83544321D01*
X120045096Y-83544318D01*
X119952008Y-83339377D01*
X119952007Y-83339374D01*
X119893632Y-83255115D01*
X119823825Y-83154354D01*
X119823822Y-83154350D01*
X119823819Y-83154346D01*
X119664654Y-82995181D01*
X119619155Y-82963659D01*
X119535825Y-82905927D01*
X119491929Y-82851568D01*
X119484390Y-82782106D01*
X119515601Y-82719595D01*
X119535817Y-82702077D01*
X119664654Y-82612819D01*
X119823819Y-82453654D01*
X119952007Y-82268626D01*
X120045096Y-82063683D01*
X120100096Y-81845412D01*
X120110500Y-81713217D01*
X120110499Y-80084784D01*
X120100096Y-79952588D01*
X120079314Y-79870115D01*
X120045097Y-79734321D01*
X120045096Y-79734318D01*
X120044727Y-79733506D01*
X119952007Y-79529374D01*
X119899960Y-79454249D01*
X119823825Y-79344354D01*
X119823822Y-79344350D01*
X119823819Y-79344346D01*
X119664654Y-79185181D01*
X119664650Y-79185178D01*
X119664645Y-79185174D01*
X119479632Y-79056997D01*
X119479630Y-79056995D01*
X119479626Y-79056993D01*
X119274683Y-78963904D01*
X119274681Y-78963903D01*
X119274678Y-78963902D01*
X119056420Y-78908905D01*
X119056413Y-78908904D01*
X118924219Y-78898500D01*
X118924217Y-78898500D01*
X118112256Y-78898500D01*
X117295782Y-78898501D01*
X117163586Y-78908904D01*
X117163579Y-78908905D01*
X116945321Y-78963902D01*
X116945318Y-78963903D01*
X116740377Y-79056991D01*
X116740367Y-79056997D01*
X116555354Y-79185174D01*
X116555342Y-79185184D01*
X116396184Y-79344342D01*
X116396174Y-79344354D01*
X116267997Y-79529367D01*
X116267991Y-79529377D01*
X116174903Y-79734318D01*
X116174902Y-79734321D01*
X116119905Y-79952579D01*
X116119904Y-79952586D01*
X116109500Y-80084781D01*
X116109501Y-81713218D01*
X116119904Y-81845413D01*
X116119905Y-81845420D01*
X116174902Y-82063678D01*
X116174903Y-82063681D01*
X116267991Y-82268622D01*
X116267997Y-82268632D01*
X116396174Y-82453645D01*
X116396178Y-82453650D01*
X116396181Y-82453654D01*
X116555346Y-82612819D01*
X116555350Y-82612822D01*
X116555354Y-82612825D01*
X116684173Y-82702072D01*
X116728070Y-82756431D01*
X116735609Y-82825893D01*
X116704398Y-82888404D01*
X116684173Y-82905928D01*
X116555354Y-82995174D01*
X116555342Y-82995184D01*
X116396184Y-83154342D01*
X116396174Y-83154354D01*
X116267997Y-83339367D01*
X116267991Y-83339377D01*
X116174903Y-83544318D01*
X116174902Y-83544321D01*
X116119905Y-83762579D01*
X116119904Y-83762586D01*
X116109500Y-83894781D01*
X116109501Y-85523218D01*
X116119904Y-85655413D01*
X116119905Y-85655420D01*
X116174902Y-85873678D01*
X116174903Y-85873681D01*
X116267991Y-86078622D01*
X116267997Y-86078632D01*
X116396174Y-86263645D01*
X116396178Y-86263650D01*
X116396181Y-86263654D01*
X116555346Y-86422819D01*
X116555350Y-86422822D01*
X116555354Y-86422825D01*
X116630145Y-86474640D01*
X116740374Y-86551007D01*
X116945317Y-86644096D01*
X116945321Y-86644097D01*
X117163579Y-86699094D01*
X117163581Y-86699094D01*
X117163588Y-86699096D01*
X117274973Y-86707862D01*
X117295781Y-86709500D01*
X117295782Y-86709499D01*
X117295783Y-86709500D01*
X118790199Y-86709499D01*
X118857238Y-86729184D01*
X118902993Y-86781987D01*
X118914199Y-86833499D01*
X118914199Y-88843280D01*
X118894514Y-88910319D01*
X118841710Y-88956074D01*
X118772552Y-88966018D01*
X118760273Y-88963615D01*
X118610708Y-88926419D01*
X118567658Y-88923500D01*
X118567657Y-88923500D01*
X117652344Y-88923501D01*
X117652343Y-88923501D01*
X117609298Y-88926418D01*
X117609297Y-88926418D01*
X117423221Y-88972694D01*
X117251456Y-89057881D01*
X117251453Y-89057883D01*
X117102010Y-89178009D01*
X117102009Y-89178010D01*
X116981883Y-89327453D01*
X116981881Y-89327456D01*
X116896694Y-89499221D01*
X116850419Y-89685291D01*
X116847500Y-89728342D01*
X116847501Y-92119656D01*
X116847501Y-92119657D01*
X116850418Y-92162701D01*
X116850418Y-92162702D01*
X116878617Y-92276091D01*
X116895903Y-92345600D01*
X116896694Y-92348778D01*
X116981881Y-92520543D01*
X116981883Y-92520546D01*
X117102009Y-92669989D01*
X117102010Y-92669990D01*
X117251453Y-92790116D01*
X117251456Y-92790118D01*
X117383407Y-92855559D01*
X117423225Y-92875307D01*
X117566198Y-92910863D01*
X117609291Y-92921580D01*
X117609292Y-92921580D01*
X117609296Y-92921581D01*
X117648336Y-92924228D01*
X117652342Y-92924500D01*
X117652342Y-92924499D01*
X117652343Y-92924500D01*
X118567656Y-92924499D01*
X118567657Y-92924499D01*
X118578417Y-92923769D01*
X118610704Y-92921581D01*
X118610706Y-92921580D01*
X118610710Y-92921580D01*
X118701234Y-92899067D01*
X118759973Y-92884459D01*
X118829781Y-92887382D01*
X118886927Y-92927582D01*
X118913268Y-92992296D01*
X118913838Y-93000894D01*
X118914200Y-93012412D01*
X118914200Y-93041943D01*
X118914201Y-93041960D01*
X118915068Y-93048831D01*
X118915526Y-93054650D01*
X118916990Y-93101224D01*
X118916991Y-93101227D01*
X118922580Y-93120467D01*
X118926524Y-93139511D01*
X118929036Y-93159392D01*
X118943028Y-93194732D01*
X118946190Y-93202719D01*
X118948082Y-93208247D01*
X118961082Y-93252990D01*
X118966132Y-93261530D01*
X118971280Y-93270234D01*
X118979836Y-93287700D01*
X118987214Y-93306332D01*
X118998679Y-93322113D01*
X119014598Y-93344023D01*
X119017806Y-93348907D01*
X119041527Y-93389016D01*
X119041533Y-93389024D01*
X119055690Y-93403180D01*
X119068328Y-93417976D01*
X119080105Y-93434186D01*
X119080106Y-93434187D01*
X119116009Y-93463888D01*
X119120320Y-93467810D01*
X121336286Y-95683776D01*
X123318294Y-97665784D01*
X123328119Y-97678048D01*
X123328340Y-97677866D01*
X123333310Y-97683873D01*
X123333313Y-97683876D01*
X123333314Y-97683877D01*
X123383751Y-97731241D01*
X123404630Y-97752120D01*
X123410104Y-97756366D01*
X123414542Y-97760156D01*
X123448518Y-97792062D01*
X123466073Y-97801713D01*
X123482331Y-97812392D01*
X123498164Y-97824674D01*
X123520115Y-97834172D01*
X123540937Y-97843183D01*
X123546181Y-97845752D01*
X123587008Y-97868197D01*
X123606412Y-97873179D01*
X123624810Y-97879478D01*
X123643205Y-97887438D01*
X123689229Y-97894726D01*
X123694932Y-97895907D01*
X123740081Y-97907500D01*
X123760116Y-97907500D01*
X123779513Y-97909026D01*
X123799296Y-97912160D01*
X123845683Y-97907775D01*
X123851522Y-97907500D01*
X125181241Y-97907500D01*
X125248280Y-97927185D01*
X125294035Y-97979989D01*
X125303979Y-98049147D01*
X125274954Y-98112703D01*
X125268922Y-98119181D01*
X125199505Y-98188597D01*
X125063965Y-98382169D01*
X125063964Y-98382171D01*
X124964098Y-98596335D01*
X124964094Y-98596344D01*
X124902938Y-98824586D01*
X124902936Y-98824596D01*
X124882341Y-99059999D01*
X124882341Y-99060000D01*
X124902936Y-99295403D01*
X124902938Y-99295413D01*
X124964094Y-99523655D01*
X124964096Y-99523659D01*
X124964097Y-99523663D01*
X125058464Y-99726034D01*
X125063965Y-99737830D01*
X125063967Y-99737834D01*
X125139564Y-99845797D01*
X125199505Y-99931401D01*
X125366599Y-100098495D01*
X125463412Y-100166284D01*
X125507036Y-100220859D01*
X125514230Y-100290358D01*
X125482708Y-100352713D01*
X125422478Y-100388127D01*
X125358587Y-100387190D01*
X125299274Y-100370439D01*
X125266469Y-100361174D01*
X125261889Y-100359686D01*
X124124482Y-99940381D01*
X124119987Y-99938521D01*
X123019457Y-99431582D01*
X123015090Y-99429357D01*
X121957374Y-98836756D01*
X121953238Y-98834222D01*
X120945338Y-98160962D01*
X120941355Y-98158066D01*
X119990212Y-97407110D01*
X119986556Y-97403985D01*
X119286265Y-96756962D01*
X119286264Y-96756961D01*
X119096154Y-96581308D01*
X119092689Y-96577844D01*
X118270005Y-95687432D01*
X118266880Y-95683776D01*
X117515932Y-94732642D01*
X117513036Y-94728659D01*
X116839776Y-93720757D01*
X116837242Y-93716621D01*
X116244641Y-92658905D01*
X116242425Y-92654556D01*
X115735471Y-91553997D01*
X115733618Y-91549519D01*
X115314299Y-90412083D01*
X115312817Y-90407518D01*
X114983153Y-89240243D01*
X114982010Y-89235480D01*
X114982009Y-89235474D01*
X114745965Y-88047284D01*
X114745210Y-88042509D01*
X114713001Y-87770200D01*
X114602783Y-86838360D01*
X114602403Y-86833534D01*
X114602402Y-86833521D01*
X114554500Y-85619982D01*
X114554500Y-83619901D01*
X114554500Y-83619900D01*
X114554499Y-71122237D01*
X114554657Y-71117825D01*
X114604859Y-70416936D01*
X114607389Y-70399379D01*
X114755604Y-69719743D01*
X114760562Y-69702872D01*
X115003351Y-69051535D01*
X115010720Y-69035402D01*
X115050317Y-68962923D01*
X115344193Y-68425006D01*
X115353693Y-68410218D01*
X115770053Y-67853448D01*
X115781663Y-67840043D01*
X116274041Y-67347667D01*
X116287446Y-67336057D01*
X116844213Y-66919700D01*
X116859007Y-66910195D01*
X117469402Y-66576719D01*
X117485542Y-66569349D01*
X118136877Y-66326559D01*
X118153742Y-66321604D01*
X118833380Y-66173390D01*
X118850934Y-66170861D01*
X119286133Y-66139689D01*
X119286133Y-66139688D01*
X119334786Y-66136204D01*
X119334790Y-66136202D01*
X119551826Y-66120657D01*
X119556239Y-66120500D01*
X152053897Y-66120500D01*
X184551754Y-66120500D01*
X184556167Y-66120657D01*
G37*
%TD.AperFunction*%
%TA.AperFunction,Conductor*%
G36*
X165489153Y-68785643D02*
G01*
X168566181Y-71862671D01*
X168599666Y-71923994D01*
X168602500Y-71950352D01*
X168602500Y-72061055D01*
X168600775Y-72076672D01*
X168601061Y-72076699D01*
X168600326Y-72084465D01*
X168602500Y-72153614D01*
X168602500Y-72183143D01*
X168602501Y-72183160D01*
X168603368Y-72190031D01*
X168603826Y-72195850D01*
X168605290Y-72242424D01*
X168605291Y-72242427D01*
X168610880Y-72261667D01*
X168614824Y-72280711D01*
X168615702Y-72287654D01*
X168617336Y-72300591D01*
X168634490Y-72343919D01*
X168636382Y-72349447D01*
X168649381Y-72394188D01*
X168659580Y-72411434D01*
X168668138Y-72428903D01*
X168675514Y-72447532D01*
X168702898Y-72485223D01*
X168706106Y-72490107D01*
X168729827Y-72530216D01*
X168729833Y-72530224D01*
X168743990Y-72544380D01*
X168756628Y-72559176D01*
X168768405Y-72575386D01*
X168768406Y-72575387D01*
X168804309Y-72605088D01*
X168808620Y-72609010D01*
X169969005Y-73769395D01*
X171098494Y-74898884D01*
X171108319Y-74911148D01*
X171108540Y-74910966D01*
X171113510Y-74916973D01*
X171113513Y-74916976D01*
X171113514Y-74916977D01*
X171163951Y-74964341D01*
X171184830Y-74985220D01*
X171190304Y-74989466D01*
X171194746Y-74993260D01*
X171203707Y-75001675D01*
X171239101Y-75061917D01*
X171236307Y-75131731D01*
X171231204Y-75144470D01*
X171192099Y-75228330D01*
X171192094Y-75228344D01*
X171130938Y-75456586D01*
X171130936Y-75456596D01*
X171110341Y-75691999D01*
X171110341Y-75692000D01*
X171130936Y-75927403D01*
X171130938Y-75927413D01*
X171192095Y-76155658D01*
X171192544Y-76156891D01*
X171192580Y-76157469D01*
X171193498Y-76160893D01*
X171192809Y-76161077D01*
X171196974Y-76226620D01*
X171163003Y-76287675D01*
X171101415Y-76320672D01*
X171076021Y-76323300D01*
X170461337Y-76323300D01*
X170445720Y-76321576D01*
X170445693Y-76321862D01*
X170437931Y-76321127D01*
X170368803Y-76323300D01*
X170339250Y-76323300D01*
X170338529Y-76323390D01*
X170332357Y-76324169D01*
X170326545Y-76324626D01*
X170279972Y-76326090D01*
X170279969Y-76326091D01*
X170260726Y-76331681D01*
X170241683Y-76335625D01*
X170221804Y-76338136D01*
X170221803Y-76338137D01*
X170178478Y-76355290D01*
X170172952Y-76357182D01*
X170128208Y-76370183D01*
X170128204Y-76370185D01*
X170110965Y-76380380D01*
X170093498Y-76388937D01*
X170074869Y-76396312D01*
X170074867Y-76396313D01*
X170037164Y-76423706D01*
X170032282Y-76426912D01*
X169992180Y-76450628D01*
X169978008Y-76464800D01*
X169963223Y-76477428D01*
X169947012Y-76489207D01*
X169917309Y-76525110D01*
X169913377Y-76529431D01*
X146851228Y-99591581D01*
X146789905Y-99625066D01*
X146763547Y-99627900D01*
X142952500Y-99627900D01*
X142885461Y-99608215D01*
X142839706Y-99555411D01*
X142828500Y-99503900D01*
X142828499Y-98162129D01*
X142828498Y-98162123D01*
X142828373Y-98160962D01*
X142822091Y-98102517D01*
X142816802Y-98088337D01*
X142771797Y-97967671D01*
X142771793Y-97967664D01*
X142685547Y-97852455D01*
X142685544Y-97852452D01*
X142570335Y-97766206D01*
X142570328Y-97766202D01*
X142435482Y-97715908D01*
X142435483Y-97715908D01*
X142375883Y-97709501D01*
X142375881Y-97709500D01*
X142375873Y-97709500D01*
X142375865Y-97709500D01*
X140909043Y-97709500D01*
X140842004Y-97689815D01*
X140802310Y-97648620D01*
X140799270Y-97643479D01*
X140799267Y-97643476D01*
X140799265Y-97643473D01*
X140785105Y-97629313D01*
X140772470Y-97614520D01*
X140760693Y-97598312D01*
X140724793Y-97568613D01*
X140720481Y-97564690D01*
X139797272Y-96641480D01*
X139763787Y-96580158D01*
X139768771Y-96510466D01*
X139810643Y-96454533D01*
X139832537Y-96441424D01*
X139869830Y-96424035D01*
X140063401Y-96288495D01*
X140230495Y-96121401D01*
X140366035Y-95927830D01*
X140465903Y-95713663D01*
X140527063Y-95485408D01*
X140547659Y-95250000D01*
X140527063Y-95014592D01*
X140465903Y-94786337D01*
X140366035Y-94572171D01*
X140360468Y-94564221D01*
X140230496Y-94378600D01*
X140171954Y-94320058D01*
X140086343Y-94234447D01*
X140052860Y-94173127D01*
X140057844Y-94103435D01*
X140076850Y-94072823D01*
X140075575Y-94071897D01*
X140080158Y-94065587D01*
X140080158Y-94065585D01*
X140080162Y-94065582D01*
X140089813Y-94048024D01*
X140100496Y-94031761D01*
X140112773Y-94015936D01*
X140131285Y-93973153D01*
X140133838Y-93967941D01*
X140156297Y-93927092D01*
X140161280Y-93907680D01*
X140167581Y-93889280D01*
X140175537Y-93870896D01*
X140182829Y-93824852D01*
X140184006Y-93819171D01*
X140195600Y-93774019D01*
X140195600Y-93753982D01*
X140197127Y-93734582D01*
X140198009Y-93729014D01*
X140200260Y-93714804D01*
X140195875Y-93668415D01*
X140195600Y-93662577D01*
X140195600Y-87106237D01*
X140197324Y-87090623D01*
X140197038Y-87090596D01*
X140197772Y-87082833D01*
X140195600Y-87013702D01*
X140195600Y-86984151D01*
X140195600Y-86984150D01*
X140194729Y-86977259D01*
X140194272Y-86971445D01*
X140193170Y-86936380D01*
X140192809Y-86924872D01*
X140187220Y-86905637D01*
X140183274Y-86886584D01*
X140180764Y-86866708D01*
X140163601Y-86823359D01*
X140161714Y-86817846D01*
X140161073Y-86815641D01*
X140148717Y-86773110D01*
X140148716Y-86773108D01*
X140138521Y-86755869D01*
X140129960Y-86738393D01*
X140122586Y-86719769D01*
X140122586Y-86719767D01*
X140107566Y-86699095D01*
X140095183Y-86682050D01*
X140092000Y-86677205D01*
X140068270Y-86637079D01*
X140068265Y-86637073D01*
X140054105Y-86622913D01*
X140041470Y-86608120D01*
X140029693Y-86591912D01*
X139993793Y-86562213D01*
X139989481Y-86558290D01*
X133723960Y-80292769D01*
X133690475Y-80231446D01*
X133688323Y-80218068D01*
X133670674Y-80050144D01*
X133612179Y-79870116D01*
X133517533Y-79706184D01*
X133390871Y-79565512D01*
X133390870Y-79565511D01*
X133237734Y-79454251D01*
X133237729Y-79454248D01*
X133064807Y-79377257D01*
X133064802Y-79377255D01*
X132909953Y-79344342D01*
X132879646Y-79337900D01*
X132690354Y-79337900D01*
X132660047Y-79344342D01*
X132505197Y-79377255D01*
X132505192Y-79377257D01*
X132332270Y-79454248D01*
X132332265Y-79454251D01*
X132179129Y-79565511D01*
X132052466Y-79706185D01*
X131957821Y-79870115D01*
X131957818Y-79870122D01*
X131899327Y-80050140D01*
X131899326Y-80050144D01*
X131879540Y-80238400D01*
X131899326Y-80426656D01*
X131899327Y-80426659D01*
X131957818Y-80606677D01*
X131957821Y-80606684D01*
X132052467Y-80770616D01*
X132073968Y-80794495D01*
X132179129Y-80911288D01*
X132332265Y-81022548D01*
X132332270Y-81022551D01*
X132505192Y-81099542D01*
X132505197Y-81099544D01*
X132690354Y-81138900D01*
X132749548Y-81138900D01*
X132816587Y-81158585D01*
X132837229Y-81175219D01*
X138908281Y-87246271D01*
X138941766Y-87307594D01*
X138944600Y-87333952D01*
X138944600Y-88799500D01*
X138924915Y-88866539D01*
X138872111Y-88912294D01*
X138820600Y-88923500D01*
X137972344Y-88923501D01*
X137972343Y-88923501D01*
X137929298Y-88926418D01*
X137929297Y-88926418D01*
X137743221Y-88972694D01*
X137571456Y-89057881D01*
X137571453Y-89057883D01*
X137422010Y-89178009D01*
X137422009Y-89178010D01*
X137301883Y-89327453D01*
X137271088Y-89389547D01*
X137223667Y-89440859D01*
X137156032Y-89458388D01*
X137089657Y-89436569D01*
X137048912Y-89389547D01*
X137018116Y-89327453D01*
X136897990Y-89178010D01*
X136897989Y-89178009D01*
X136748546Y-89057883D01*
X136748543Y-89057881D01*
X136576778Y-88972694D01*
X136576776Y-88972693D01*
X136576775Y-88972693D01*
X136538939Y-88963283D01*
X136390708Y-88926419D01*
X136347658Y-88923500D01*
X136347657Y-88923500D01*
X135432344Y-88923501D01*
X135432343Y-88923501D01*
X135389298Y-88926418D01*
X135389297Y-88926418D01*
X135203221Y-88972694D01*
X135031456Y-89057881D01*
X135031453Y-89057883D01*
X134882010Y-89178009D01*
X134882009Y-89178010D01*
X134761883Y-89327453D01*
X134731088Y-89389547D01*
X134683667Y-89440859D01*
X134616032Y-89458388D01*
X134549657Y-89436569D01*
X134508912Y-89389547D01*
X134478116Y-89327453D01*
X134357990Y-89178010D01*
X134357989Y-89178009D01*
X134208546Y-89057883D01*
X134208543Y-89057881D01*
X134036778Y-88972694D01*
X134036776Y-88972693D01*
X134036775Y-88972693D01*
X133998939Y-88963283D01*
X133850708Y-88926419D01*
X133807658Y-88923500D01*
X133006900Y-88923500D01*
X132939861Y-88903815D01*
X132894106Y-88851011D01*
X132882900Y-88799500D01*
X132882900Y-86463654D01*
X132882899Y-84060216D01*
X132902584Y-83993181D01*
X132955388Y-83947426D01*
X132956176Y-83947070D01*
X133048530Y-83905951D01*
X133201671Y-83794688D01*
X133328333Y-83654016D01*
X133422979Y-83490084D01*
X133481474Y-83310056D01*
X133501260Y-83121800D01*
X133481474Y-82933544D01*
X133422979Y-82753516D01*
X133328333Y-82589584D01*
X133201671Y-82448912D01*
X133201670Y-82448911D01*
X133048534Y-82337651D01*
X133048529Y-82337648D01*
X132875607Y-82260657D01*
X132875602Y-82260655D01*
X132729801Y-82229665D01*
X132690446Y-82221300D01*
X132501154Y-82221300D01*
X132468697Y-82228198D01*
X132315997Y-82260655D01*
X132233787Y-82297258D01*
X132164537Y-82306542D01*
X132101261Y-82276914D01*
X132075965Y-82245977D01*
X131995836Y-82107188D01*
X131995834Y-82107185D01*
X131869170Y-81966511D01*
X131716034Y-81855251D01*
X131716029Y-81855248D01*
X131543107Y-81778257D01*
X131543102Y-81778255D01*
X131397301Y-81747265D01*
X131357946Y-81738900D01*
X131168654Y-81738900D01*
X131140661Y-81744850D01*
X130983497Y-81778255D01*
X130983492Y-81778257D01*
X130810570Y-81855248D01*
X130810565Y-81855251D01*
X130657432Y-81966509D01*
X130657429Y-81966511D01*
X130657429Y-81966512D01*
X130569938Y-82063681D01*
X130549449Y-82086436D01*
X130489962Y-82123084D01*
X130420105Y-82121753D01*
X130362057Y-82082866D01*
X130334247Y-82018770D01*
X130333299Y-82003463D01*
X130333299Y-80770614D01*
X130333299Y-76808495D01*
X130352984Y-76741460D01*
X130405788Y-76695705D01*
X130457294Y-76684499D01*
X131267656Y-76684499D01*
X131267657Y-76684499D01*
X131282005Y-76683526D01*
X131310704Y-76681581D01*
X131332589Y-76676138D01*
X131402395Y-76679058D01*
X131450200Y-76708790D01*
X142286982Y-87545572D01*
X142320466Y-87606893D01*
X142323300Y-87633251D01*
X142323300Y-89904512D01*
X142303615Y-89971551D01*
X142291450Y-89987484D01*
X142216266Y-90070984D01*
X142121621Y-90234915D01*
X142121618Y-90234922D01*
X142064706Y-90410081D01*
X142063126Y-90414944D01*
X142043340Y-90603200D01*
X142063126Y-90791456D01*
X142065092Y-90797509D01*
X142121618Y-90971477D01*
X142121621Y-90971484D01*
X142216267Y-91135416D01*
X142325598Y-91256840D01*
X142342929Y-91276088D01*
X142496065Y-91387348D01*
X142496070Y-91387351D01*
X142668992Y-91464342D01*
X142668997Y-91464344D01*
X142854154Y-91503700D01*
X142854155Y-91503700D01*
X143043444Y-91503700D01*
X143043446Y-91503700D01*
X143100019Y-91491675D01*
X143169685Y-91496991D01*
X143225419Y-91539128D01*
X143249119Y-91600000D01*
X143252625Y-91633350D01*
X143252627Y-91633360D01*
X143311118Y-91813377D01*
X143311121Y-91813384D01*
X143405767Y-91977316D01*
X143532428Y-92117988D01*
X143532429Y-92117988D01*
X143685565Y-92229248D01*
X143685570Y-92229251D01*
X143858492Y-92306242D01*
X143858497Y-92306244D01*
X144043654Y-92345600D01*
X144043655Y-92345600D01*
X144232944Y-92345600D01*
X144232946Y-92345600D01*
X144418103Y-92306244D01*
X144591030Y-92229251D01*
X144744171Y-92117988D01*
X144870833Y-91977316D01*
X144965479Y-91813384D01*
X145023974Y-91633356D01*
X145043760Y-91445100D01*
X145023974Y-91256844D01*
X144965479Y-91076816D01*
X144870833Y-90912884D01*
X144850724Y-90890551D01*
X144795650Y-90829384D01*
X144765420Y-90766392D01*
X144763800Y-90746412D01*
X144763800Y-86055037D01*
X144765523Y-86039420D01*
X144765238Y-86039393D01*
X144765972Y-86031631D01*
X144763800Y-85962503D01*
X144763800Y-85932951D01*
X144763800Y-85932950D01*
X144762929Y-85926059D01*
X144762472Y-85920245D01*
X144761009Y-85873672D01*
X144755422Y-85854444D01*
X144751474Y-85835384D01*
X144750952Y-85831248D01*
X144748964Y-85815508D01*
X144731807Y-85772175D01*
X144729919Y-85766659D01*
X144716919Y-85721912D01*
X144706718Y-85704663D01*
X144698160Y-85687194D01*
X144690786Y-85668568D01*
X144690783Y-85668564D01*
X144690783Y-85668563D01*
X144663398Y-85630871D01*
X144660190Y-85625987D01*
X144636472Y-85585882D01*
X144636463Y-85585871D01*
X144622305Y-85571713D01*
X144609670Y-85556920D01*
X144597893Y-85540712D01*
X144561993Y-85511013D01*
X144557681Y-85507090D01*
X135946771Y-76896180D01*
X135913286Y-76834857D01*
X135918270Y-76765165D01*
X135960142Y-76709232D01*
X136025606Y-76684815D01*
X136034452Y-76684499D01*
X136347657Y-76684499D01*
X136362005Y-76683526D01*
X136390704Y-76681581D01*
X136412589Y-76676138D01*
X136482395Y-76679058D01*
X136530199Y-76708789D01*
X136629908Y-76808499D01*
X136726797Y-76905388D01*
X136736622Y-76917651D01*
X136736843Y-76917469D01*
X136741814Y-76923478D01*
X136761576Y-76942035D01*
X136792235Y-76970826D01*
X136813129Y-76991720D01*
X136818611Y-76995973D01*
X136823043Y-76999757D01*
X136857018Y-77031662D01*
X136874576Y-77041314D01*
X136890833Y-77051993D01*
X136906664Y-77064273D01*
X136926337Y-77072786D01*
X136949433Y-77082782D01*
X136954677Y-77085350D01*
X136995508Y-77107797D01*
X137008123Y-77111035D01*
X137014905Y-77112777D01*
X137033319Y-77119081D01*
X137051704Y-77127038D01*
X137097757Y-77134332D01*
X137103426Y-77135506D01*
X137148581Y-77147100D01*
X137168616Y-77147100D01*
X137188013Y-77148626D01*
X137207796Y-77151760D01*
X137254183Y-77147375D01*
X137260022Y-77147100D01*
X145852557Y-77147100D01*
X145868177Y-77148824D01*
X145868204Y-77148539D01*
X145875960Y-77149271D01*
X145875967Y-77149273D01*
X145945114Y-77147100D01*
X145974650Y-77147100D01*
X145981528Y-77146230D01*
X145987341Y-77145772D01*
X146033927Y-77144309D01*
X146053169Y-77138717D01*
X146072212Y-77134774D01*
X146092092Y-77132264D01*
X146135422Y-77115107D01*
X146140946Y-77113217D01*
X146145603Y-77111864D01*
X146185690Y-77100218D01*
X146202929Y-77090022D01*
X146220403Y-77081462D01*
X146239027Y-77074088D01*
X146239027Y-77074087D01*
X146239032Y-77074086D01*
X146276749Y-77046682D01*
X146281605Y-77043492D01*
X146321720Y-77019770D01*
X146335889Y-77005599D01*
X146350679Y-76992968D01*
X146366887Y-76981194D01*
X146396599Y-76945276D01*
X146400512Y-76940976D01*
X149369149Y-73972340D01*
X149430470Y-73938857D01*
X149500162Y-73943841D01*
X149527948Y-73958446D01*
X149690170Y-74072035D01*
X149904337Y-74171903D01*
X149904343Y-74171904D01*
X149904344Y-74171905D01*
X149954593Y-74185369D01*
X150132592Y-74233063D01*
X150320918Y-74249539D01*
X150367999Y-74253659D01*
X150368000Y-74253659D01*
X150368001Y-74253659D01*
X150407234Y-74250226D01*
X150603408Y-74233063D01*
X150831663Y-74171903D01*
X151045830Y-74072035D01*
X151211813Y-73955812D01*
X151278017Y-73933486D01*
X151345785Y-73950496D01*
X151370616Y-73969707D01*
X151916797Y-74515888D01*
X151926622Y-74528151D01*
X151926843Y-74527969D01*
X151931814Y-74533978D01*
X151952643Y-74553537D01*
X151982235Y-74581326D01*
X152003129Y-74602220D01*
X152008611Y-74606473D01*
X152013043Y-74610257D01*
X152047018Y-74642162D01*
X152064576Y-74651814D01*
X152080833Y-74662493D01*
X152096664Y-74674773D01*
X152116337Y-74683286D01*
X152139433Y-74693282D01*
X152144677Y-74695850D01*
X152185508Y-74718297D01*
X152198123Y-74721535D01*
X152204905Y-74723277D01*
X152223319Y-74729581D01*
X152241704Y-74737538D01*
X152287757Y-74744832D01*
X152293426Y-74746006D01*
X152338581Y-74757600D01*
X152358616Y-74757600D01*
X152378013Y-74759126D01*
X152397796Y-74762260D01*
X152444183Y-74757875D01*
X152450022Y-74757600D01*
X158258757Y-74757600D01*
X158274377Y-74759324D01*
X158274404Y-74759039D01*
X158282160Y-74759771D01*
X158282167Y-74759773D01*
X158351314Y-74757600D01*
X158380850Y-74757600D01*
X158387728Y-74756730D01*
X158393541Y-74756272D01*
X158440127Y-74754809D01*
X158459369Y-74749217D01*
X158478412Y-74745274D01*
X158498292Y-74742764D01*
X158541622Y-74725607D01*
X158547146Y-74723717D01*
X158550896Y-74722627D01*
X158591890Y-74710718D01*
X158609129Y-74700522D01*
X158626603Y-74691962D01*
X158645227Y-74684588D01*
X158645227Y-74684587D01*
X158645232Y-74684586D01*
X158682949Y-74657182D01*
X158687805Y-74653992D01*
X158727920Y-74630270D01*
X158742089Y-74616099D01*
X158756879Y-74603468D01*
X158773087Y-74591694D01*
X158802799Y-74555776D01*
X158806712Y-74551476D01*
X163997534Y-69360654D01*
X164058855Y-69327171D01*
X164107993Y-69326448D01*
X164197074Y-69343100D01*
X164197076Y-69343100D01*
X164414924Y-69343100D01*
X164414926Y-69343100D01*
X164629069Y-69303070D01*
X164832210Y-69224372D01*
X165017432Y-69109688D01*
X165178427Y-68962922D01*
X165302520Y-68798595D01*
X165358626Y-68756961D01*
X165428338Y-68752269D01*
X165489153Y-68785643D01*
G37*
%TD.AperFunction*%
%TA.AperFunction,Conductor*%
G36*
X133942395Y-76679058D02*
G01*
X133990200Y-76708790D01*
X143476482Y-86195072D01*
X143509966Y-86256393D01*
X143512800Y-86282751D01*
X143512800Y-86702847D01*
X143493115Y-86769886D01*
X143440311Y-86815641D01*
X143371153Y-86825585D01*
X143307597Y-86796560D01*
X143301119Y-86790528D01*
X133406771Y-76896180D01*
X133373286Y-76834857D01*
X133378270Y-76765165D01*
X133420142Y-76709232D01*
X133485606Y-76684815D01*
X133494452Y-76684499D01*
X133807657Y-76684499D01*
X133822005Y-76683526D01*
X133850704Y-76681581D01*
X133872589Y-76676138D01*
X133942395Y-76679058D01*
G37*
%TD.AperFunction*%
%TA.AperFunction,Conductor*%
G36*
X159075688Y-68812785D02*
G01*
X159121443Y-68865589D01*
X159131939Y-68903848D01*
X159136908Y-68950083D01*
X159187202Y-69084928D01*
X159187206Y-69084935D01*
X159273452Y-69200144D01*
X159273455Y-69200147D01*
X159388664Y-69286393D01*
X159388671Y-69286397D01*
X159523517Y-69336691D01*
X159523516Y-69336691D01*
X159530444Y-69337435D01*
X159583127Y-69343100D01*
X161028872Y-69343099D01*
X161088483Y-69336691D01*
X161223331Y-69286396D01*
X161338546Y-69200146D01*
X161371884Y-69155612D01*
X161401087Y-69116603D01*
X161457020Y-69074732D01*
X161526712Y-69069748D01*
X161583891Y-69099277D01*
X161594869Y-69109285D01*
X161594874Y-69109289D01*
X161780012Y-69223922D01*
X161780014Y-69223923D01*
X161983070Y-69302586D01*
X162007406Y-69307136D01*
X162069687Y-69338804D01*
X162104960Y-69399117D01*
X162102026Y-69468925D01*
X162072302Y-69516706D01*
X158118728Y-73470281D01*
X158057405Y-73503766D01*
X158031047Y-73506600D01*
X156922000Y-73506600D01*
X156854961Y-73486915D01*
X156809206Y-73434111D01*
X156798000Y-73382600D01*
X156798000Y-73148000D01*
X156061347Y-73148000D01*
X155994308Y-73128315D01*
X155948553Y-73075511D01*
X155938609Y-73006353D01*
X155942369Y-72989067D01*
X155945906Y-72977019D01*
X155948000Y-72969889D01*
X155948000Y-72826111D01*
X155945584Y-72817883D01*
X155942369Y-72806933D01*
X155942370Y-72737064D01*
X155980145Y-72678286D01*
X156043701Y-72649262D01*
X156061347Y-72648000D01*
X156798000Y-72648000D01*
X156798000Y-72000172D01*
X156797999Y-72000155D01*
X156791598Y-71940627D01*
X156791596Y-71940620D01*
X156741354Y-71805913D01*
X156741350Y-71805906D01*
X156655190Y-71690812D01*
X156655187Y-71690809D01*
X156540093Y-71604649D01*
X156540086Y-71604645D01*
X156405379Y-71554403D01*
X156405372Y-71554401D01*
X156345844Y-71548000D01*
X155809752Y-71548000D01*
X155742713Y-71528315D01*
X155696958Y-71475511D01*
X155687014Y-71406353D01*
X155716039Y-71342797D01*
X155722071Y-71336319D01*
X158228971Y-68829419D01*
X158290294Y-68795934D01*
X158316652Y-68793100D01*
X159008649Y-68793100D01*
X159075688Y-68812785D01*
G37*
%TD.AperFunction*%
%TA.AperFunction,Conductor*%
G36*
X138499539Y-67796985D02*
G01*
X138545294Y-67849789D01*
X138556500Y-67901300D01*
X138556500Y-68890470D01*
X138556501Y-68890476D01*
X138562908Y-68950083D01*
X138613202Y-69084928D01*
X138613206Y-69084935D01*
X138699452Y-69200144D01*
X138699455Y-69200147D01*
X138814664Y-69286393D01*
X138814671Y-69286397D01*
X138949517Y-69336691D01*
X138949516Y-69336691D01*
X138956444Y-69337435D01*
X139009127Y-69343100D01*
X139971547Y-69343099D01*
X140038586Y-69362783D01*
X140059228Y-69379418D01*
X140875094Y-70195284D01*
X140884919Y-70207548D01*
X140885140Y-70207366D01*
X140890110Y-70213373D01*
X140890113Y-70213376D01*
X140890114Y-70213377D01*
X140940551Y-70260741D01*
X140961430Y-70281620D01*
X140966904Y-70285866D01*
X140971342Y-70289656D01*
X141005318Y-70321562D01*
X141005322Y-70321564D01*
X141022873Y-70331213D01*
X141039131Y-70341892D01*
X141054964Y-70354174D01*
X141076915Y-70363672D01*
X141097737Y-70372683D01*
X141102981Y-70375252D01*
X141143808Y-70397697D01*
X141163212Y-70402679D01*
X141181610Y-70408978D01*
X141200005Y-70416938D01*
X141246029Y-70424226D01*
X141251732Y-70425407D01*
X141296881Y-70437000D01*
X141316916Y-70437000D01*
X141336313Y-70438526D01*
X141356096Y-70441660D01*
X141402483Y-70437275D01*
X141408322Y-70437000D01*
X150099548Y-70437000D01*
X150166587Y-70456685D01*
X150187229Y-70473319D01*
X150505929Y-70792019D01*
X150539414Y-70853342D01*
X150534430Y-70923034D01*
X150492558Y-70978967D01*
X150427094Y-71003384D01*
X150418248Y-71003700D01*
X147515137Y-71003700D01*
X147499520Y-71001976D01*
X147499493Y-71002262D01*
X147491731Y-71001527D01*
X147422603Y-71003700D01*
X147393050Y-71003700D01*
X147392329Y-71003790D01*
X147386157Y-71004569D01*
X147380345Y-71005026D01*
X147333773Y-71006490D01*
X147333772Y-71006490D01*
X147314529Y-71012081D01*
X147295479Y-71016025D01*
X147275611Y-71018534D01*
X147275609Y-71018535D01*
X147232284Y-71035688D01*
X147226757Y-71037580D01*
X147182010Y-71050581D01*
X147182009Y-71050582D01*
X147164767Y-71060779D01*
X147147299Y-71069337D01*
X147128669Y-71076713D01*
X147128667Y-71076714D01*
X147090976Y-71104098D01*
X147086094Y-71107305D01*
X147045979Y-71131030D01*
X147031808Y-71145200D01*
X147017023Y-71157828D01*
X147000812Y-71169607D01*
X146971109Y-71205510D01*
X146967176Y-71209831D01*
X146468061Y-71708948D01*
X145997528Y-72179481D01*
X145936205Y-72212966D01*
X145909847Y-72215800D01*
X131320852Y-72215800D01*
X131253813Y-72196115D01*
X131208058Y-72143311D01*
X131198114Y-72074153D01*
X131227139Y-72010597D01*
X131233171Y-72004119D01*
X133240876Y-69996415D01*
X135423671Y-67813619D01*
X135484995Y-67780134D01*
X135511353Y-67777300D01*
X138432500Y-67777300D01*
X138499539Y-67796985D01*
G37*
%TD.AperFunction*%
%TD*%
M02*
