%TF.GenerationSoftware,KiCad,Pcbnew,7.0.7*%
%TF.CreationDate,2024-09-13T11:59:40-05:00*%
%TF.ProjectId,LASK5,4c41534b-352e-46b6-9963-61645f706362,rev?*%
%TF.SameCoordinates,Original*%
%TF.FileFunction,Profile,NP*%
%FSLAX46Y46*%
G04 Gerber Fmt 4.6, Leading zero omitted, Abs format (unit mm)*
G04 Created by KiCad (PCBNEW 7.0.7) date 2024-09-13 11:59:40*
%MOMM*%
%LPD*%
G01*
G04 APERTURE LIST*
%TA.AperFunction,Profile*%
%ADD10C,0.003779*%
%TD*%
G04 APERTURE END LIST*
D10*
X125263998Y-100360997D02*
X124122000Y-99940000D01*
X183164992Y-98160001D02*
X182152991Y-98836000D01*
X186630988Y-66572000D02*
X187256995Y-66914001D01*
X118144999Y-66322999D02*
X118841998Y-66171001D01*
X181090995Y-99431001D02*
X179985992Y-99940000D01*
X188373992Y-91551999D02*
X187864997Y-92656999D01*
X187269996Y-93718999D02*
X186593993Y-94731000D01*
X114756999Y-69711000D02*
X115006000Y-69043000D01*
X179985992Y-99940000D02*
X178843993Y-100360997D01*
X152053996Y-101120000D02*
X130053998Y-101120000D01*
X128837999Y-101072000D02*
X127629000Y-100928998D01*
X114554000Y-71120000D02*
X114604999Y-70408000D01*
X115734000Y-91551999D02*
X115312999Y-90410001D01*
X115006000Y-69043000D02*
X115347999Y-68417000D01*
X189125991Y-89238000D02*
X188794990Y-90410001D01*
X121954998Y-98836000D02*
X120942999Y-98160001D01*
X116838000Y-93718999D02*
X116242999Y-92656999D01*
X186593993Y-94731000D02*
X185839988Y-95686000D01*
X118268000Y-95686000D02*
X117513999Y-94731000D01*
X124122000Y-99940000D02*
X123016998Y-99431001D01*
X178843993Y-100360997D02*
X177671989Y-100691999D01*
X117477000Y-66572000D02*
X118144999Y-66322999D01*
X127629000Y-100928998D02*
X126435999Y-100691999D01*
X114604999Y-70408000D02*
X114756999Y-69711000D01*
X184821998Y-96757396D02*
X184119994Y-97405999D01*
X185013991Y-96579999D02*
X184821998Y-96757396D01*
X177671989Y-100691999D02*
X176478995Y-100928998D01*
X118841998Y-66171001D02*
X119285998Y-66139197D01*
X187864997Y-92656999D02*
X187269996Y-93718999D01*
X126435999Y-100691999D02*
X125263998Y-100360997D01*
X185839988Y-95686000D02*
X185013991Y-96579999D01*
X189553992Y-83620000D02*
X189553992Y-85620000D01*
X116242999Y-92656999D02*
X115734000Y-91551999D01*
X176478995Y-100928998D02*
X175269996Y-101072000D01*
X184821998Y-66139197D02*
X185265998Y-66171001D01*
X188332992Y-67846000D02*
X188759994Y-68417000D01*
X174053996Y-101120000D02*
X152053996Y-101120000D01*
X189350989Y-69711000D02*
X189502997Y-70408000D01*
X117513999Y-94731000D02*
X116838000Y-93718999D01*
X114602000Y-86836000D02*
X114554000Y-85620000D01*
X184119994Y-97405999D02*
X183164992Y-98160001D01*
X114982001Y-89238000D02*
X114745002Y-88044999D01*
X119285998Y-66139197D02*
X119554000Y-66120000D01*
X119987998Y-97405999D02*
X119285998Y-96757396D01*
X130053998Y-101120000D02*
X128837999Y-101072000D01*
X185962989Y-66322999D02*
X186630988Y-66572000D01*
X184553992Y-66120000D02*
X184821998Y-66139197D01*
X189505988Y-86836000D02*
X189362990Y-88044999D01*
X115775000Y-67846000D02*
X116280002Y-67341001D01*
X189101997Y-69043000D02*
X189350989Y-69711000D01*
X115347999Y-68417000D02*
X115775000Y-67846000D01*
X182152991Y-98836000D02*
X181090995Y-99431001D01*
X119554000Y-66120000D02*
X152053996Y-66120000D01*
X114554000Y-83620000D02*
X114554000Y-71120000D01*
X120942999Y-98160001D02*
X119987998Y-97405999D01*
X114745002Y-88044999D02*
X114602000Y-86836000D01*
X188794990Y-90410001D02*
X188373992Y-91551999D01*
X187256995Y-66914001D02*
X187827994Y-67341001D01*
X116280002Y-67341001D02*
X116851001Y-66914001D01*
X115312999Y-90410001D02*
X114982001Y-89238000D01*
X187827994Y-67341001D02*
X188332992Y-67846000D01*
X185265998Y-66171001D02*
X185962989Y-66322999D01*
X114554000Y-85620000D02*
X114554000Y-83620000D01*
X119094000Y-96579999D02*
X118268000Y-95686000D01*
X119285998Y-96757396D02*
X119094000Y-96579999D01*
X175269996Y-101072000D02*
X174053996Y-101120000D01*
X123016998Y-99431001D02*
X121954998Y-98836000D01*
X189502997Y-70408000D02*
X189553992Y-71120000D01*
X189553992Y-71120000D02*
X189553992Y-83620000D01*
X152053996Y-66120000D02*
X184553992Y-66120000D01*
X116851001Y-66914001D02*
X117477000Y-66572000D01*
X189553992Y-85620000D02*
X189505988Y-86836000D01*
X188759994Y-68417000D02*
X189101997Y-69043000D01*
X189362990Y-88044999D02*
X189125991Y-89238000D01*
M02*
