%TF.GenerationSoftware,KiCad,Pcbnew,7.0.7*%
%TF.CreationDate,2024-09-13T11:59:40-05:00*%
%TF.ProjectId,LASK5,4c41534b-352e-46b6-9963-61645f706362,rev?*%
%TF.SameCoordinates,Original*%
%TF.FileFunction,Soldermask,Bot*%
%TF.FilePolarity,Negative*%
%FSLAX46Y46*%
G04 Gerber Fmt 4.6, Leading zero omitted, Abs format (unit mm)*
G04 Created by KiCad (PCBNEW 7.0.7) date 2024-09-13 11:59:40*
%MOMM*%
%LPD*%
G01*
G04 APERTURE LIST*
G04 Aperture macros list*
%AMRoundRect*
0 Rectangle with rounded corners*
0 $1 Rounding radius*
0 $2 $3 $4 $5 $6 $7 $8 $9 X,Y pos of 4 corners*
0 Add a 4 corners polygon primitive as box body*
4,1,4,$2,$3,$4,$5,$6,$7,$8,$9,$2,$3,0*
0 Add four circle primitives for the rounded corners*
1,1,$1+$1,$2,$3*
1,1,$1+$1,$4,$5*
1,1,$1+$1,$6,$7*
1,1,$1+$1,$8,$9*
0 Add four rect primitives between the rounded corners*
20,1,$1+$1,$2,$3,$4,$5,0*
20,1,$1+$1,$4,$5,$6,$7,0*
20,1,$1+$1,$6,$7,$8,$9,0*
20,1,$1+$1,$8,$9,$2,$3,0*%
G04 Aperture macros list end*
%ADD10R,1.700000X1.700000*%
%ADD11O,1.700000X1.700000*%
%ADD12R,1.350000X1.350000*%
%ADD13O,1.350000X1.350000*%
%ADD14C,2.200000*%
%ADD15RoundRect,0.250000X0.750000X-0.600000X0.750000X0.600000X-0.750000X0.600000X-0.750000X-0.600000X0*%
%ADD16O,2.000000X1.700000*%
%ADD17RoundRect,0.381000X0.381000X-1.119000X0.381000X1.119000X-0.381000X1.119000X-0.381000X-1.119000X0*%
%ADD18RoundRect,0.750000X0.750000X-0.750000X0.750000X0.750000X-0.750000X0.750000X-0.750000X-0.750000X0*%
G04 APERTURE END LIST*
D10*
%TO.C,J9*%
X172466000Y-73152000D03*
D11*
X172466000Y-75692000D03*
X172466000Y-78232000D03*
X172466000Y-80772000D03*
%TD*%
D12*
%TO.C,H2*%
X139732000Y-68167600D03*
D13*
X141732000Y-68167600D03*
X143732000Y-68167600D03*
%TD*%
D14*
%TO.C,H8*%
X130048000Y-69088000D03*
%TD*%
D10*
%TO.C,SW1*%
X172974000Y-98552000D03*
D11*
X175514000Y-98552000D03*
X178054000Y-98552000D03*
%TD*%
D12*
%TO.C,H4*%
X180753000Y-68167600D03*
D13*
X182753000Y-68167600D03*
X184753000Y-68167600D03*
%TD*%
D14*
%TO.C,H7*%
X185928000Y-79756000D03*
%TD*%
D10*
%TO.C,J6*%
X141478000Y-99060000D03*
D11*
X138938000Y-99060000D03*
X136398000Y-99060000D03*
X133858000Y-99060000D03*
X131318000Y-99060000D03*
X128778000Y-99060000D03*
X126238000Y-99060000D03*
%TD*%
D15*
%TO.C,J5*%
X186182000Y-87884000D03*
D16*
X186182000Y-85384000D03*
%TD*%
D10*
%TO.C,J7*%
X123952000Y-95250000D03*
D11*
X126492000Y-95250000D03*
X129032000Y-95250000D03*
X131572000Y-95250000D03*
X134112000Y-95250000D03*
X136652000Y-95250000D03*
X139192000Y-95250000D03*
%TD*%
D17*
%TO.C,U1*%
X123190000Y-90924000D03*
X125730000Y-90924000D03*
X128270000Y-90924000D03*
X130810000Y-90924000D03*
X133350000Y-90924000D03*
X135890000Y-90924000D03*
X138430000Y-90924000D03*
X138430000Y-74684000D03*
X135890000Y-74684000D03*
X133350000Y-74684000D03*
X130810000Y-74684000D03*
X128270000Y-74684000D03*
X125730000Y-74684000D03*
X120650000Y-74684000D03*
X123190000Y-74684000D03*
X118110000Y-74684000D03*
X118110000Y-90924000D03*
X120650000Y-90924000D03*
D18*
X118110000Y-84709000D03*
X118110000Y-80899000D03*
%TD*%
D12*
%TO.C,H1*%
X119285000Y-68398600D03*
D13*
X121285000Y-68398600D03*
X123285000Y-68398600D03*
%TD*%
D12*
%TO.C,H3*%
X160306000Y-68167600D03*
D13*
X162306000Y-68167600D03*
X164306000Y-68167600D03*
%TD*%
D10*
%TO.C,J1*%
X155448000Y-72898000D03*
D11*
X152908000Y-72898000D03*
X150368000Y-72898000D03*
X147828000Y-72898000D03*
%TD*%
D10*
%TO.C,J2*%
X181356000Y-90932000D03*
D11*
X178816000Y-90932000D03*
%TD*%
M02*
