%TF.GenerationSoftware,KiCad,Pcbnew,7.0.7*%
%TF.CreationDate,2024-09-13T11:59:40-05:00*%
%TF.ProjectId,LASK5,4c41534b-352e-46b6-9963-61645f706362,rev?*%
%TF.SameCoordinates,Original*%
%TF.FileFunction,Copper,L1,Top*%
%TF.FilePolarity,Positive*%
%FSLAX46Y46*%
G04 Gerber Fmt 4.6, Leading zero omitted, Abs format (unit mm)*
G04 Created by KiCad (PCBNEW 7.0.7) date 2024-09-13 11:59:40*
%MOMM*%
%LPD*%
G01*
G04 APERTURE LIST*
G04 Aperture macros list*
%AMRoundRect*
0 Rectangle with rounded corners*
0 $1 Rounding radius*
0 $2 $3 $4 $5 $6 $7 $8 $9 X,Y pos of 4 corners*
0 Add a 4 corners polygon primitive as box body*
4,1,4,$2,$3,$4,$5,$6,$7,$8,$9,$2,$3,0*
0 Add four circle primitives for the rounded corners*
1,1,$1+$1,$2,$3*
1,1,$1+$1,$4,$5*
1,1,$1+$1,$6,$7*
1,1,$1+$1,$8,$9*
0 Add four rect primitives between the rounded corners*
20,1,$1+$1,$2,$3,$4,$5,0*
20,1,$1+$1,$4,$5,$6,$7,0*
20,1,$1+$1,$6,$7,$8,$9,0*
20,1,$1+$1,$8,$9,$2,$3,0*%
G04 Aperture macros list end*
%TA.AperFunction,ComponentPad*%
%ADD10R,1.700000X1.700000*%
%TD*%
%TA.AperFunction,ComponentPad*%
%ADD11O,1.700000X1.700000*%
%TD*%
%TA.AperFunction,SMDPad,CuDef*%
%ADD12RoundRect,0.140000X-0.140000X-0.170000X0.140000X-0.170000X0.140000X0.170000X-0.140000X0.170000X0*%
%TD*%
%TA.AperFunction,SMDPad,CuDef*%
%ADD13RoundRect,0.200000X-0.200000X-0.275000X0.200000X-0.275000X0.200000X0.275000X-0.200000X0.275000X0*%
%TD*%
%TA.AperFunction,SMDPad,CuDef*%
%ADD14RoundRect,0.250000X0.250000X0.475000X-0.250000X0.475000X-0.250000X-0.475000X0.250000X-0.475000X0*%
%TD*%
%TA.AperFunction,SMDPad,CuDef*%
%ADD15RoundRect,0.150000X-0.512500X-0.150000X0.512500X-0.150000X0.512500X0.150000X-0.512500X0.150000X0*%
%TD*%
%TA.AperFunction,SMDPad,CuDef*%
%ADD16R,1.000000X1.450000*%
%TD*%
%TA.AperFunction,SMDPad,CuDef*%
%ADD17R,1.450000X1.000000*%
%TD*%
%TA.AperFunction,ComponentPad*%
%ADD18R,1.350000X1.350000*%
%TD*%
%TA.AperFunction,ComponentPad*%
%ADD19O,1.350000X1.350000*%
%TD*%
%TA.AperFunction,SMDPad,CuDef*%
%ADD20RoundRect,0.225000X-0.225000X-0.250000X0.225000X-0.250000X0.225000X0.250000X-0.225000X0.250000X0*%
%TD*%
%TA.AperFunction,ComponentPad*%
%ADD21RoundRect,0.250000X0.750000X-0.600000X0.750000X0.600000X-0.750000X0.600000X-0.750000X-0.600000X0*%
%TD*%
%TA.AperFunction,ComponentPad*%
%ADD22O,2.000000X1.700000*%
%TD*%
%TA.AperFunction,SMDPad,CuDef*%
%ADD23RoundRect,0.243750X-0.243750X-0.456250X0.243750X-0.456250X0.243750X0.456250X-0.243750X0.456250X0*%
%TD*%
%TA.AperFunction,SMDPad,CuDef*%
%ADD24RoundRect,0.250000X-0.250000X-0.475000X0.250000X-0.475000X0.250000X0.475000X-0.250000X0.475000X0*%
%TD*%
%TA.AperFunction,ComponentPad*%
%ADD25RoundRect,0.381000X0.381000X-1.119000X0.381000X1.119000X-0.381000X1.119000X-0.381000X-1.119000X0*%
%TD*%
%TA.AperFunction,SMDPad,CuDef*%
%ADD26C,1.250000*%
%TD*%
%TA.AperFunction,ComponentPad*%
%ADD27RoundRect,0.750000X0.750000X-0.750000X0.750000X0.750000X-0.750000X0.750000X-0.750000X-0.750000X0*%
%TD*%
%TA.AperFunction,ViaPad*%
%ADD28C,0.800000*%
%TD*%
%TA.AperFunction,Conductor*%
%ADD29C,0.250000*%
%TD*%
G04 APERTURE END LIST*
D10*
%TO.P,J9,1,Pin_1*%
%TO.N,GND*%
X172466000Y-73152000D03*
D11*
%TO.P,J9,2,Pin_2*%
%TO.N,+3V3*%
X172466000Y-75692000D03*
%TO.P,J9,3,Pin_3*%
%TO.N,SCL*%
X172466000Y-78232000D03*
%TO.P,J9,4,Pin_4*%
%TO.N,SDA*%
X172466000Y-80772000D03*
%TD*%
D12*
%TO.P,C2,1*%
%TO.N,GND*%
X122484000Y-71120000D03*
%TO.P,C2,2*%
%TO.N,hall_0*%
X123444000Y-71120000D03*
%TD*%
D13*
%TO.P,R4,1*%
%TO.N,Net-(U4-PROG)*%
X148210000Y-81788000D03*
%TO.P,R4,2*%
%TO.N,GND*%
X149860000Y-81788000D03*
%TD*%
D14*
%TO.P,C6,1*%
%TO.N,+3V8*%
X151384000Y-78486000D03*
%TO.P,C6,2*%
%TO.N,GND*%
X149484000Y-78486000D03*
%TD*%
D15*
%TO.P,U4,1,~{CHRG}*%
%TO.N,Net-(D2-K)*%
X143764000Y-84074000D03*
%TO.P,U4,2,GND*%
%TO.N,GND*%
X143764000Y-85024000D03*
%TO.P,U4,3,BAT*%
%TO.N,Batt+*%
X143764000Y-85974000D03*
%TO.P,U4,4,V_{CC}*%
%TO.N,+5V*%
X146039000Y-85974000D03*
%TO.P,U4,5,PROG*%
%TO.N,Net-(U4-PROG)*%
X146039000Y-84074000D03*
%TD*%
D16*
%TO.P,SW4,1,1*%
%TO.N,BTTN2*%
X151208000Y-94164000D03*
%TO.P,SW4,2,2*%
%TO.N,GND*%
X152908000Y-94164000D03*
%TO.P,SW4,3*%
%TO.N,N/C*%
X151208000Y-99314000D03*
%TO.P,SW4,4*%
X152908000Y-99314000D03*
%TD*%
D17*
%TO.P,SW3,1,1*%
%TO.N,GND*%
X181794000Y-75184000D03*
%TO.P,SW3,2,2*%
%TO.N,RMT-BTN*%
X181794000Y-73484000D03*
%TO.P,SW3,3*%
%TO.N,N/C*%
X186944000Y-75184000D03*
%TO.P,SW3,4*%
X186944000Y-73484000D03*
%TD*%
D18*
%TO.P,H2,1,VCC*%
%TO.N,+3V3*%
X139732000Y-68167600D03*
D19*
%TO.P,H2,2,GND*%
%TO.N,GND*%
X141732000Y-68167600D03*
%TO.P,H2,3,VOUT*%
%TO.N,hall_1*%
X143732000Y-68167600D03*
%TD*%
D20*
%TO.P,C8,1*%
%TO.N,GND*%
X153898000Y-81280000D03*
%TO.P,C8,2*%
%TO.N,+5V*%
X155448000Y-81280000D03*
%TD*%
D15*
%TO.P,U3,1,IN*%
%TO.N,+3V8*%
X143764000Y-77216000D03*
%TO.P,U3,2,GND*%
%TO.N,GND*%
X143764000Y-78166000D03*
%TO.P,U3,3,EN*%
%TO.N,LDO_EN*%
X143764000Y-79116000D03*
%TO.P,U3,4,NC*%
%TO.N,unconnected-(U3-NC-Pad4)*%
X146039000Y-79116000D03*
%TO.P,U3,5,OUT*%
%TO.N,+3V3*%
X146039000Y-77216000D03*
%TD*%
D13*
%TO.P,R3,1*%
%TO.N,Net-(MAX1-CLEAR)*%
X155830000Y-86614000D03*
%TO.P,R3,2*%
%TO.N,GND*%
X157480000Y-86614000D03*
%TD*%
D10*
%TO.P,SW1,1,A*%
%TO.N,unconnected-(SW1-A-Pad1)*%
X172974000Y-98552000D03*
D11*
%TO.P,SW1,2,B*%
%TO.N,BPACK+*%
X175514000Y-98552000D03*
%TO.P,SW1,3,C*%
%TO.N,BPACKSW+*%
X178054000Y-98552000D03*
%TD*%
D12*
%TO.P,C4,1*%
%TO.N,GND*%
X142042000Y-70866000D03*
%TO.P,C4,2*%
%TO.N,hall_1*%
X143002000Y-70866000D03*
%TD*%
%TO.P,C3,1*%
%TO.N,GND*%
X185476000Y-71120000D03*
%TO.P,C3,2*%
%TO.N,hall_3*%
X186436000Y-71120000D03*
%TD*%
D18*
%TO.P,H4,1,VCC*%
%TO.N,+3V3*%
X180753000Y-68167600D03*
D19*
%TO.P,H4,2,GND*%
%TO.N,GND*%
X182753000Y-68167600D03*
%TO.P,H4,3,VOUT*%
%TO.N,hall_3*%
X184753000Y-68167600D03*
%TD*%
D16*
%TO.P,SW6,1,1*%
%TO.N,BTTN4*%
X163068000Y-94164000D03*
%TO.P,SW6,2,2*%
%TO.N,GND*%
X164768000Y-94164000D03*
%TO.P,SW6,3*%
%TO.N,N/C*%
X163068000Y-99314000D03*
%TO.P,SW6,4*%
X164768000Y-99314000D03*
%TD*%
D10*
%TO.P,J6,1,Pin_1*%
%TO.N,GP5*%
X141478000Y-99060000D03*
D11*
%TO.P,J6,2,Pin_2*%
%TO.N,GP6*%
X138938000Y-99060000D03*
%TO.P,J6,3,Pin_3*%
%TO.N,GP7*%
X136398000Y-99060000D03*
%TO.P,J6,4,Pin_4*%
%TO.N,GP14*%
X133858000Y-99060000D03*
%TO.P,J6,5,Pin_5*%
%TO.N,GP38*%
X131318000Y-99060000D03*
%TO.P,J6,6,Pin_6*%
%TO.N,GP37*%
X128778000Y-99060000D03*
%TO.P,J6,7,Pin_7*%
%TO.N,unconnected-(J6-Pin_7-Pad7)*%
X126238000Y-99060000D03*
%TD*%
D21*
%TO.P,J5,1*%
%TO.N,+3V8*%
X186182000Y-87884000D03*
D22*
%TO.P,J5,2*%
%TO.N,GND*%
X186182000Y-85384000D03*
%TD*%
D16*
%TO.P,SW5,1,1*%
%TO.N,BTTN3*%
X157304000Y-94164000D03*
%TO.P,SW5,2,2*%
%TO.N,GND*%
X159004000Y-94164000D03*
%TO.P,SW5,3*%
%TO.N,N/C*%
X157304000Y-99314000D03*
%TO.P,SW5,4*%
X159004000Y-99314000D03*
%TD*%
D23*
%TO.P,D2,1,K*%
%TO.N,Net-(D2-K)*%
X185069000Y-92710000D03*
%TO.P,D2,2,A*%
%TO.N,Net-(D2-A)*%
X186944000Y-92710000D03*
%TD*%
D13*
%TO.P,R5,1*%
%TO.N,+5V*%
X181738000Y-95504000D03*
%TO.P,R5,2*%
%TO.N,Net-(D2-A)*%
X183388000Y-95504000D03*
%TD*%
D24*
%TO.P,C7,1*%
%TO.N,+3V3*%
X154056000Y-77216000D03*
%TO.P,C7,2*%
%TO.N,GND*%
X155956000Y-77216000D03*
%TD*%
D12*
%TO.P,C1,1*%
%TO.N,GND*%
X163096000Y-71374000D03*
%TO.P,C1,2*%
%TO.N,hall_2*%
X164056000Y-71374000D03*
%TD*%
D10*
%TO.P,J7,1,Pin_1*%
%TO.N,GP34*%
X123952000Y-95250000D03*
D11*
%TO.P,J7,2,Pin_2*%
%TO.N,GP33*%
X126492000Y-95250000D03*
%TO.P,J7,3,Pin_3*%
%TO.N,unconnected-(J7-Pin_3-Pad3)*%
X129032000Y-95250000D03*
%TO.P,J7,4,Pin_4*%
%TO.N,unconnected-(J7-Pin_4-Pad4)*%
X131572000Y-95250000D03*
%TO.P,J7,5,Pin_5*%
%TO.N,unconnected-(J7-Pin_5-Pad5)*%
X134112000Y-95250000D03*
%TO.P,J7,6,Pin_6*%
%TO.N,GP16*%
X136652000Y-95250000D03*
%TO.P,J7,7,Pin_7*%
%TO.N,GP15*%
X139192000Y-95250000D03*
%TD*%
D25*
%TO.P,U1,1,GP1*%
%TO.N,hall_0*%
X123190000Y-90924000D03*
%TO.P,U1,2,GP2*%
%TO.N,hall_1*%
X125730000Y-90924000D03*
%TO.P,U1,3,GP3*%
%TO.N,hall_2*%
X128270000Y-90924000D03*
%TO.P,U1,4,GP4*%
%TO.N,hall_3*%
X130810000Y-90924000D03*
%TO.P,U1,5,GP5*%
%TO.N,GP5*%
X133350000Y-90924000D03*
%TO.P,U1,6,GP6*%
%TO.N,GP6*%
X135890000Y-90924000D03*
%TO.P,U1,7,GP7*%
%TO.N,GP7*%
X138430000Y-90924000D03*
%TO.P,U1,8,GP8*%
%TO.N,SDA*%
X138430000Y-74684000D03*
%TO.P,U1,9,GP9*%
%TO.N,SCL*%
X135890000Y-74684000D03*
%TO.P,U1,10,GP10*%
%TO.N,BTTN*%
X133350000Y-74684000D03*
%TO.P,U1,11,GP11*%
%TO.N,BTTN2*%
X130810000Y-74684000D03*
%TO.P,U1,12,GP12*%
%TO.N,BTTN3*%
X128270000Y-74684000D03*
%TO.P,U1,13,GP13*%
%TO.N,BTTN4*%
X125730000Y-74684000D03*
D26*
%TO.P,U1,14,14*%
%TO.N,GP14*%
X136652000Y-77216000D03*
%TO.P,U1,15,15*%
%TO.N,GP15*%
X134874000Y-77216000D03*
%TO.P,U1,16,16*%
%TO.N,GP16*%
X133096000Y-77216000D03*
%TO.P,U1,17,17*%
%TO.N,unconnected-(U1-Pad17)*%
X131318000Y-77216000D03*
%TO.P,U1,18,18*%
%TO.N,unconnected-(U1-Pad18)*%
X129540000Y-77216000D03*
%TO.P,U1,21,21*%
%TO.N,unconnected-(U1-Pad21)*%
X127762000Y-77216000D03*
%TO.P,U1,33,33*%
%TO.N,GP33*%
X125984000Y-77216000D03*
%TO.P,U1,34,34*%
%TO.N,GP34*%
X124206000Y-77216000D03*
%TO.P,U1,35,35*%
%TO.N,unconnected-(U1-Pad35)*%
X129540000Y-79756000D03*
%TO.P,U1,36,36*%
%TO.N,unconnected-(U1-Pad36)*%
X127762000Y-79756000D03*
%TO.P,U1,37,37*%
%TO.N,GP37*%
X125984000Y-79756000D03*
%TO.P,U1,38,38*%
%TO.N,GP38*%
X124206000Y-79756000D03*
%TO.P,U1,39,39*%
%TO.N,unconnected-(U1-Pad39)*%
X136652000Y-88392000D03*
%TO.P,U1,40,40*%
%TO.N,unconnected-(U1-Pad40)*%
X134874000Y-88392000D03*
%TO.P,U1,41,41*%
%TO.N,unconnected-(U1-Pad41)*%
X133096000Y-88392000D03*
%TO.P,U1,42,42*%
%TO.N,unconnected-(U1-Pad42)*%
X131318000Y-88392000D03*
%TO.P,U1,45,45*%
%TO.N,unconnected-(U1-Pad45)*%
X129540000Y-88392000D03*
%TO.P,U1,46,46*%
%TO.N,unconnected-(U1-Pad46)*%
X127762000Y-88392000D03*
%TO.P,U1,47,47*%
%TO.N,unconnected-(U1-Pad47)*%
X125984000Y-88392000D03*
%TO.P,U1,48,48*%
%TO.N,unconnected-(U1-Pad48)*%
X124206000Y-88392000D03*
D25*
%TO.P,U1,100,GND*%
%TO.N,GND*%
X120650000Y-74684000D03*
%TO.P,U1,103,3V3*%
%TO.N,+3V3*%
X123190000Y-74684000D03*
%TO.P,U1,105,5V*%
%TO.N,+5V*%
X118110000Y-74684000D03*
%TO.P,U1,200,TX*%
%TO.N,unconnected-(U1-TX-Pad200)*%
X118110000Y-90924000D03*
%TO.P,U1,201,RX*%
%TO.N,unconnected-(U1-RX-Pad201)*%
X120650000Y-90924000D03*
D27*
%TO.P,U1,384,BAT-*%
%TO.N,BPACK-*%
X118110000Y-84709000D03*
%TO.P,U1,385,BAT+*%
%TO.N,BPACKSW+*%
X118110000Y-80899000D03*
%TD*%
D18*
%TO.P,H1,1,VCC*%
%TO.N,+3V3*%
X119285000Y-68398600D03*
D19*
%TO.P,H1,2,GND*%
%TO.N,GND*%
X121285000Y-68398600D03*
%TO.P,H1,3,VOUT*%
%TO.N,hall_0*%
X123285000Y-68398600D03*
%TD*%
D18*
%TO.P,H3,1,VCC*%
%TO.N,+3V3*%
X160306000Y-68167600D03*
D19*
%TO.P,H3,2,GND*%
%TO.N,GND*%
X162306000Y-68167600D03*
%TO.P,H3,3,VOUT*%
%TO.N,hall_2*%
X164306000Y-68167600D03*
%TD*%
D10*
%TO.P,J1,1,Pin_1*%
%TO.N,GND*%
X155448000Y-72898000D03*
D11*
%TO.P,J1,2,Pin_2*%
%TO.N,+3V3*%
X152908000Y-72898000D03*
%TO.P,J1,3,Pin_3*%
%TO.N,SCL*%
X150368000Y-72898000D03*
%TO.P,J1,4,Pin_4*%
%TO.N,SDA*%
X147828000Y-72898000D03*
%TD*%
D15*
%TO.P,MAX1,1,In*%
%TO.N,RMT-BTN*%
X150622000Y-84394000D03*
%TO.P,MAX1,2,GND*%
%TO.N,GND*%
X150622000Y-85344000D03*
%TO.P,MAX1,3,CLEAR*%
%TO.N,Net-(MAX1-CLEAR)*%
X150622000Y-86294000D03*
%TO.P,MAX1,4,OU*%
%TO.N,unconnected-(MAX1-OU-Pad4)*%
X152897000Y-86294000D03*
%TO.P,MAX1,5,OUT*%
%TO.N,LDO_EN*%
X152897000Y-85344000D03*
%TO.P,MAX1,6,Vcc*%
%TO.N,+3V8*%
X152897000Y-84394000D03*
%TD*%
D16*
%TO.P,SW2,1,1*%
%TO.N,BTTN*%
X145366000Y-94164000D03*
%TO.P,SW2,2,2*%
%TO.N,GND*%
X147066000Y-94164000D03*
%TO.P,SW2,3*%
%TO.N,N/C*%
X145366000Y-99314000D03*
%TO.P,SW2,4*%
X147066000Y-99314000D03*
%TD*%
D10*
%TO.P,J2,1,Pin_1*%
%TO.N,BPACK-*%
X181356000Y-90932000D03*
D11*
%TO.P,J2,2,Pin_2*%
%TO.N,BPACK+*%
X178816000Y-90932000D03*
%TD*%
D28*
%TO.N,RMT-BTN*%
X171843600Y-85047100D03*
X180269600Y-73520000D03*
%TO.N,GP38*%
X126899300Y-82680600D03*
%TO.N,GP37*%
X121548000Y-78168300D03*
%TO.N,GP34*%
X122975400Y-76969100D03*
%TO.N,GP16*%
X132595800Y-83121800D03*
%TO.N,GP15*%
X132785000Y-80238400D03*
%TO.N,GP14*%
X131263300Y-82639400D03*
%TO.N,BTTN4*%
X125005800Y-86745700D03*
%TO.N,BTTN3*%
X127635000Y-86326400D03*
%TO.N,BTTN2*%
X142948800Y-90603200D03*
%TO.N,BTTN*%
X144138300Y-91445100D03*
%TO.N,BPACK-*%
X167652900Y-91674700D03*
%TO.N,GND*%
X149348500Y-85344000D03*
X153898000Y-82379700D03*
X183145300Y-75483400D03*
X148182800Y-94715400D03*
X160110700Y-94737500D03*
X164768000Y-95521300D03*
X152908000Y-95511800D03*
X142488200Y-78166000D03*
X142135500Y-85024000D03*
X157068100Y-77195000D03*
X148371000Y-78590200D03*
X158519100Y-86445400D03*
X150678000Y-82606000D03*
X162400300Y-72069700D03*
X184770400Y-71825600D03*
X141160400Y-71354700D03*
X121274800Y-70462100D03*
%TD*%
D29*
%TO.N,Net-(U4-PROG)*%
X148210000Y-81903000D02*
X148210000Y-81788000D01*
X146039000Y-84074000D02*
X148210000Y-81903000D01*
%TO.N,LDO_EN*%
X145467200Y-80819200D02*
X143764000Y-79116000D01*
X148518800Y-80819200D02*
X145467200Y-80819200D01*
X149035000Y-81335400D02*
X148518800Y-80819200D01*
X149035000Y-82265100D02*
X149035000Y-81335400D01*
X150239400Y-83469500D02*
X149035000Y-82265100D01*
X151106100Y-83469500D02*
X150239400Y-83469500D01*
X151759500Y-84122900D02*
X151106100Y-83469500D01*
X151759500Y-84714400D02*
X151759500Y-84122900D01*
X152389100Y-85344000D02*
X151759500Y-84714400D01*
X152897000Y-85344000D02*
X152389100Y-85344000D01*
%TO.N,Net-(MAX1-CLEAR)*%
X151305100Y-86977100D02*
X150622000Y-86294000D01*
X155466900Y-86977100D02*
X151305100Y-86977100D01*
X155830000Y-86614000D02*
X155466900Y-86977100D01*
%TO.N,RMT-BTN*%
X169443100Y-87447600D02*
X171843600Y-85047100D01*
X150422600Y-87447600D02*
X169443100Y-87447600D01*
X148595100Y-85620100D02*
X150422600Y-87447600D01*
X148595100Y-85003700D02*
X148595100Y-85620100D01*
X149204800Y-84394000D02*
X148595100Y-85003700D01*
X150622000Y-84394000D02*
X149204800Y-84394000D01*
X180706100Y-73520000D02*
X180742100Y-73484000D01*
X180269600Y-73520000D02*
X180706100Y-73520000D01*
X181794000Y-73484000D02*
X180742100Y-73484000D01*
%TO.N,Net-(D2-A)*%
X186944000Y-93090600D02*
X186944000Y-92710000D01*
X184530600Y-95504000D02*
X186944000Y-93090600D01*
X183388000Y-95504000D02*
X184530600Y-95504000D01*
%TO.N,Net-(D2-K)*%
X142038700Y-84074000D02*
X143764000Y-84074000D01*
X141407700Y-84705000D02*
X142038700Y-84074000D01*
X141407700Y-85347000D02*
X141407700Y-84705000D01*
X143963500Y-87902800D02*
X141407700Y-85347000D01*
X177515900Y-87902800D02*
X143963500Y-87902800D01*
X180086100Y-90473000D02*
X177515900Y-87902800D01*
X180086100Y-91824400D02*
X180086100Y-90473000D01*
X180971700Y-92710000D02*
X180086100Y-91824400D01*
X185069000Y-92710000D02*
X180971700Y-92710000D01*
%TO.N,+5V*%
X183445400Y-93796600D02*
X181738000Y-95504000D01*
X185539100Y-93796600D02*
X183445400Y-93796600D01*
X186006600Y-93329100D02*
X185539100Y-93796600D01*
X186006600Y-90596500D02*
X186006600Y-93329100D01*
X187510600Y-89092500D02*
X186006600Y-90596500D01*
X187510600Y-84798800D02*
X187510600Y-89092500D01*
X185816900Y-83105100D02*
X187510600Y-84798800D01*
X157273100Y-83105100D02*
X185816900Y-83105100D01*
X155448000Y-81280000D02*
X157273100Y-83105100D01*
X126246000Y-83894200D02*
X140940900Y-83894200D01*
X118110000Y-75758200D02*
X126246000Y-83894200D01*
X118110000Y-75184000D02*
X118110000Y-75758200D01*
X140940900Y-85587600D02*
X140940900Y-83894200D01*
X143708000Y-88354700D02*
X140940900Y-85587600D01*
X168250800Y-88354700D02*
X143708000Y-88354700D01*
X175400100Y-95504000D02*
X168250800Y-88354700D01*
X181738000Y-95504000D02*
X175400100Y-95504000D01*
X144937900Y-84872900D02*
X146039000Y-85974000D01*
X144937900Y-83835500D02*
X144937900Y-84872900D01*
X144527700Y-83425300D02*
X144937900Y-83835500D01*
X141409800Y-83425300D02*
X144527700Y-83425300D01*
X140940900Y-83894200D02*
X141409800Y-83425300D01*
%TO.N,+3V8*%
X150282800Y-77384800D02*
X151384000Y-78486000D01*
X148302000Y-77384800D02*
X150282800Y-77384800D01*
X147843300Y-77843500D02*
X148302000Y-77384800D01*
X145328700Y-77843500D02*
X147843300Y-77843500D01*
X144701200Y-77216000D02*
X145328700Y-77843500D01*
X143764000Y-77216000D02*
X144701200Y-77216000D01*
X152897000Y-79999000D02*
X151384000Y-78486000D01*
X152897000Y-84394000D02*
X152897000Y-79999000D01*
X152970800Y-84320200D02*
X152897000Y-84394000D01*
X182618200Y-84320200D02*
X152970800Y-84320200D01*
X186182000Y-87884000D02*
X182618200Y-84320200D01*
%TO.N,BPACKSW+*%
X178054000Y-98552000D02*
X176877100Y-98552000D01*
X122358600Y-85147600D02*
X118110000Y-80899000D01*
X139005500Y-85147600D02*
X122358600Y-85147600D01*
X142664500Y-88806600D02*
X139005500Y-85147600D01*
X167499600Y-88806600D02*
X142664500Y-88806600D01*
X176877100Y-98184100D02*
X167499600Y-88806600D01*
X176877100Y-98552000D02*
X176877100Y-98184100D01*
%TO.N,GP38*%
X126899300Y-82449300D02*
X126899300Y-82680600D01*
X124206000Y-79756000D02*
X126899300Y-82449300D01*
%TO.N,GP37*%
X124396300Y-78168300D02*
X121548000Y-78168300D01*
X125984000Y-79756000D02*
X124396300Y-78168300D01*
%TO.N,GP34*%
X123959100Y-76969100D02*
X124206000Y-77216000D01*
X122975400Y-76969100D02*
X123959100Y-76969100D01*
%TO.N,GP33*%
X125315100Y-94417700D02*
X125315100Y-95250000D01*
X124885300Y-93987900D02*
X125315100Y-94417700D01*
X118677200Y-93987900D02*
X124885300Y-93987900D01*
X116232100Y-91542800D02*
X118677200Y-93987900D01*
X116232100Y-74024000D02*
X116232100Y-91542800D01*
X117409900Y-72846200D02*
X116232100Y-74024000D01*
X126395700Y-72846200D02*
X117409900Y-72846200D01*
X126820300Y-73270800D02*
X126395700Y-72846200D01*
X126820300Y-76379700D02*
X126820300Y-73270800D01*
X125984000Y-77216000D02*
X126820300Y-76379700D01*
X126492000Y-95250000D02*
X125315100Y-95250000D01*
%TO.N,GP16*%
X131633100Y-78678900D02*
X133096000Y-77216000D01*
X131633100Y-80023600D02*
X131633100Y-78678900D01*
X130536300Y-81120400D02*
X131633100Y-80023600D01*
X130536300Y-83001500D02*
X130536300Y-81120400D01*
X130903700Y-83368900D02*
X130536300Y-83001500D01*
X132348700Y-83368900D02*
X130903700Y-83368900D01*
X132595800Y-83121800D02*
X132348700Y-83368900D01*
%TO.N,GP15*%
X132785000Y-79305000D02*
X134874000Y-77216000D01*
X132785000Y-80238400D02*
X132785000Y-79305000D01*
%TO.N,GP14*%
X131263300Y-82639300D02*
X131263300Y-82639400D01*
X131416400Y-82639300D02*
X131263300Y-82639300D01*
X136652000Y-77403700D02*
X131416400Y-82639300D01*
X136652000Y-77216000D02*
X136652000Y-77403700D01*
%TO.N,GP7*%
X137922000Y-96359100D02*
X136398000Y-97883100D01*
X137922000Y-90932000D02*
X137922000Y-96359100D01*
X138430000Y-90424000D02*
X137922000Y-90932000D01*
X136398000Y-99060000D02*
X136398000Y-97883100D01*
%TO.N,BTTN4*%
X125514900Y-87254800D02*
X125005800Y-86745700D01*
X137290800Y-87254800D02*
X125514900Y-87254800D01*
X139817300Y-89781300D02*
X137290800Y-87254800D01*
X139817300Y-90350400D02*
X139817300Y-89781300D01*
X145723100Y-96256200D02*
X139817300Y-90350400D01*
X160148900Y-96256200D02*
X145723100Y-96256200D01*
X162241100Y-94164000D02*
X160148900Y-96256200D01*
X163068000Y-94164000D02*
X162241100Y-94164000D01*
%TO.N,BTTN3*%
X137663300Y-86326400D02*
X127635000Y-86326400D01*
X141047300Y-89710400D02*
X137663300Y-86326400D01*
X152023500Y-89710400D02*
X141047300Y-89710400D01*
X156477100Y-94164000D02*
X152023500Y-89710400D01*
X157304000Y-94164000D02*
X156477100Y-94164000D01*
%TO.N,BTTN2*%
X151208000Y-94164000D02*
X150381100Y-94164000D01*
X146820400Y-90603300D02*
X150381100Y-94164000D01*
X142948800Y-90603300D02*
X146820400Y-90603300D01*
X142948800Y-90603200D02*
X142948800Y-90603300D01*
%TO.N,BTTN*%
X145366000Y-92672800D02*
X144138300Y-91445100D01*
X145366000Y-94164000D02*
X145366000Y-92672800D01*
%TO.N,SDA*%
X140716000Y-72898000D02*
X147828000Y-72898000D01*
X138430000Y-75184000D02*
X140716000Y-72898000D01*
X147828000Y-72898000D02*
X149004900Y-72898000D01*
X149004900Y-72530200D02*
X149004900Y-72898000D01*
X150308500Y-71226600D02*
X149004900Y-72530200D01*
X156575800Y-71226600D02*
X150308500Y-71226600D01*
X162311200Y-76962000D02*
X156575800Y-71226600D01*
X172909300Y-76962000D02*
X162311200Y-76962000D01*
X173699900Y-77752600D02*
X172909300Y-76962000D01*
X173699900Y-78729000D02*
X173699900Y-77752600D01*
X172833800Y-79595100D02*
X173699900Y-78729000D01*
X172466000Y-79595100D02*
X172833800Y-79595100D01*
X172466000Y-80772000D02*
X172466000Y-79595100D01*
%TO.N,SCL*%
X150368000Y-72898000D02*
X151544900Y-72898000D01*
X160973600Y-78232000D02*
X172466000Y-78232000D01*
X156816500Y-74074900D02*
X160973600Y-78232000D01*
X154462600Y-74074900D02*
X156816500Y-74074900D01*
X154271100Y-73883400D02*
X154462600Y-74074900D01*
X154271100Y-72521800D02*
X154271100Y-73883400D01*
X153451900Y-71702600D02*
X154271100Y-72521800D01*
X152374500Y-71702600D02*
X153451900Y-71702600D01*
X151544900Y-72532200D02*
X152374500Y-71702600D01*
X151544900Y-72898000D02*
X151544900Y-72532200D01*
%TO.N,+3V3*%
X137946600Y-67384100D02*
X138730100Y-68167600D01*
X120299500Y-67384100D02*
X137946600Y-67384100D01*
X119285000Y-68398600D02*
X120299500Y-67384100D01*
X139732000Y-68167600D02*
X138730100Y-68167600D01*
X152908000Y-72898000D02*
X152908000Y-74074900D01*
X152908000Y-76896400D02*
X152908000Y-74074900D01*
X153736400Y-76896400D02*
X152908000Y-76896400D01*
X154056000Y-77216000D02*
X153736400Y-76896400D01*
X146358600Y-76896400D02*
X146039000Y-77216000D01*
X152908000Y-76896400D02*
X146358600Y-76896400D01*
%TO.N,BPACK-*%
X119000500Y-85599500D02*
X118110000Y-84709000D01*
X137823300Y-85599500D02*
X119000500Y-85599500D01*
X141482300Y-89258500D02*
X137823300Y-85599500D01*
X165236700Y-89258500D02*
X141482300Y-89258500D01*
X167652900Y-91674700D02*
X165236700Y-89258500D01*
%TO.N,hall_1*%
X143002000Y-69899500D02*
X143002000Y-70866000D01*
X143732000Y-69169500D02*
X143002000Y-69899500D01*
X143732000Y-68167600D02*
X143732000Y-69169500D01*
%TO.N,hall_3*%
X186436000Y-70852500D02*
X186436000Y-71120000D01*
X184753000Y-69169500D02*
X186436000Y-70852500D01*
X184753000Y-68167600D02*
X184753000Y-69169500D01*
%TO.N,hall_0*%
X123444000Y-69559500D02*
X123444000Y-71120000D01*
X123285000Y-69400500D02*
X123444000Y-69559500D01*
X123285000Y-68398600D02*
X123285000Y-69400500D01*
%TO.N,hall_2*%
X164056000Y-69419500D02*
X164056000Y-71374000D01*
X164306000Y-69169500D02*
X164056000Y-69419500D01*
X164306000Y-68167600D02*
X164306000Y-69169500D01*
%TO.N,GND*%
X153898000Y-82379700D02*
X153898000Y-81280000D01*
X181794000Y-75184000D02*
X182845900Y-75184000D01*
X183145300Y-75483400D02*
X182845900Y-75184000D01*
X147066000Y-94164000D02*
X147892900Y-94164000D01*
X147892900Y-94425500D02*
X147892900Y-94164000D01*
X148182800Y-94715400D02*
X147892900Y-94425500D01*
X159004000Y-94164000D02*
X159830900Y-94164000D01*
X159830900Y-94457700D02*
X159830900Y-94164000D01*
X160110700Y-94737500D02*
X159830900Y-94457700D01*
X164768000Y-94164000D02*
X164768000Y-95521300D01*
X152908000Y-94164000D02*
X152908000Y-95511800D01*
X142488200Y-78166000D02*
X143764000Y-78166000D01*
X142135500Y-85024000D02*
X143764000Y-85024000D01*
X155977000Y-77195000D02*
X155956000Y-77216000D01*
X157068100Y-77195000D02*
X155977000Y-77195000D01*
X149379800Y-78590200D02*
X149484000Y-78486000D01*
X148371000Y-78590200D02*
X149379800Y-78590200D01*
X157648600Y-86445400D02*
X157480000Y-86614000D01*
X158519100Y-86445400D02*
X157648600Y-86445400D01*
X150678000Y-82606000D02*
X149860000Y-81788000D01*
X163096000Y-71374000D02*
X162400300Y-72069700D01*
X184770400Y-71825600D02*
X185476000Y-71120000D01*
X141553300Y-71354700D02*
X142042000Y-70866000D01*
X141160400Y-71354700D02*
X141553300Y-71354700D01*
X121826100Y-70462100D02*
X122484000Y-71120000D01*
X121274800Y-70462100D02*
X121826100Y-70462100D01*
X150622000Y-85344000D02*
X149348500Y-85344000D01*
%TD*%
M02*
