<?xml version="1.0" encoding="utf-8"?>
<!-- Generator: Adobe Illustrator 26.2.1, SVG Export Plug-In . SVG Version: 6.00 Build 0)  -->
<svg version="1.1" id="Layer_1" xmlns="http://www.w3.org/2000/svg" xmlns:xlink="http://www.w3.org/1999/xlink" x="0px" y="0px"
	 viewBox="0 0 190.7 119.9" style="enable-background:new 0 0 190.7 119.9;" xml:space="preserve">
<style type="text/css">
	.st0{fill:#3D3D3D;}
</style>
<path class="st0" d="M7.8,32.1c0-9.5,7.6-16.7,17.4-16.7c9.9,0,17.4,7.2,17.4,16.7c0,9.4-7.6,16.6-17.4,16.6
	C15.4,48.8,7.8,41.6,7.8,32.1z M34.1,32.1c0-4.9-3.9-8.7-8.9-8.7s-8.9,3.8-8.9,8.7c0,4.9,3.9,8.6,8.9,8.6S34.1,37,34.1,32.1z"/>
<path class="st0" d="M46.8,16.3h12c6.5,0,12,4.9,12,11.1c0,6.1-5.3,11.3-12,11.3h-3.6V48h-8.4V16.3z M62.6,27.4
	c0-1.9-1.6-3.4-3.9-3.4h-3.6v6.8l3.6,0C61,30.9,62.6,29.3,62.6,27.4z"/>
<path class="st0" d="M82.7,24.1v4.4h10.1v7H82.7v4.5h12.2V48H74.3V16.3h20.6v7.8H82.7z"/>
<path class="st0" d="M127,16.2v32.1h-2.7L108,32.5V48h-8.4v-32h2.7l16.2,15.7V16.2H127z"/>
<path class="st0" d="M40.6,51.6V84h-5V66.4L25.1,83.4h0L14.5,66.4V84h-5V51.6h0.4L25,74.6l15.1-23.1H40.6z"/>
<path class="st0" d="M46.4,71.9V52.3h5v19.7c0,4.4,3.1,7.6,7,7.6c3.9,0,7-3.2,7-7.6V52.3h5v19.7c0,7.3-5.3,12.6-12,12.6
	C51.6,84.5,46.4,79.2,46.4,71.9z"/>
<path class="st0" d="M74.3,78.4l3.9-2.8c1.4,2.5,4.1,3.9,7.1,3.9c3.6,0,6.3-1.7,6.3-4.1c0-2.9-4.2-4.7-7.9-6.3
	c-3.7-1.7-7.8-3.6-7.8-8.6c0-5.2,4.5-8.8,10.2-8.8c4.5,0,7.9,2.2,9.2,5.7l-3.7,2.6c-1-2.1-3.2-3.3-5.5-3.3c-2.9,0-5.2,1.8-5.2,4.1
	c0,2.5,2.9,3.4,6.8,5c5,2.2,8.9,4.6,8.9,9.6c0,5.6-4.9,9.2-11.3,9.2C80.1,84.5,76.1,82,74.3,78.4z"/>
<path class="st0" d="M99.4,68.1c0-8.9,7.5-16.4,16.4-16.4c4.1,0.1,7.9,1.8,11,4.8l-2.9,3.9c-2.2-2.2-5.1-3.7-8.2-3.7
	c-5.7,0-11.2,5-11.2,11.4c0,6.4,5.6,11.3,11.3,11.3c3.2,0,6-1.6,8.2-3.8l2.9,4c-2.7,2.7-6.2,4.8-10.9,4.8
	C106.8,84.5,99.4,77.1,99.4,68.1z"/>
<path class="st0" d="M149.8,79v5h-19.1V52.3h5V79H149.8z"/>
<path class="st0" d="M158.8,57.1v8.1h12v5h-12V79h13.9v5h-18.9V52.3h18.9v4.9H158.8z"/>
<g>
	<path class="st0" d="M152.5,94.3c-2.4,0-4,2.3-4,5.6c0,3.3,1.6,5.6,4,5.6c2.4,0,4-2.3,4-5.6C156.5,96.6,154.9,94.3,152.5,94.3z"/>
	<path class="st0" d="M45.3,94.5h-2.5v5.1h2.5c1.5,0,2.7-1.2,2.7-2.6C48,95.6,46.8,94.5,45.3,94.5z"/>
	<path class="st0" d="M78.8,94.2c-3.1,0-5.6,2.5-5.6,5.7c0,3.1,2.5,5.6,5.6,5.6s5.7-2.5,5.7-5.6C84.5,96.8,81.9,94.2,78.8,94.2z"/>
	<path class="st0" d="M8.6,88.9v22h153.7v-22H8.6z M19.4,108.1h-0.2L12,92h2.6l4.7,10.7L24,92h2.6L19.4,108.1z M37.8,94.4h-6.9v4h6
		v2.5h-6v4.4h6.9v2.5h-9.4V92h9.4V94.4z M49,107.8l-4.2-6.1h-1.9v6.1h-2.5l0-15.7h4.9c2.9,0,5.3,2.3,5.3,5.1c0,2-1.3,3.8-3.1,4.4
		l4.6,6.3H49z M58.2,108c-2.6,0-4.6-1.2-5.4-3l2-1.4c0.7,1.2,2,1.9,3.5,1.9c1.8,0,3.1-0.8,3.1-2.1c0-1.5-2.1-2.3-3.9-3.1
		c-1.8-0.8-3.9-1.8-3.9-4.2c0-2.6,2.2-4.4,5.1-4.4c2.2,0,3.9,1.1,4.6,2.8l-1.8,1.3c-0.5-1.1-1.6-1.7-2.7-1.7c-1.4,0-2.6,0.9-2.6,2
		c0,1.2,1.5,1.7,3.4,2.5c2.5,1.1,4.4,2.3,4.4,4.8C63.8,106.2,61.4,108,58.2,108z M68.4,107.8H66V92h2.5V107.8z M78.8,108
		c-4.5,0-8.1-3.7-8.1-8.1c0-4.5,3.7-8.2,8.1-8.2c4.5,0,8.1,3.7,8.1,8.2C87,104.4,83.3,108,78.8,108z M101.9,108h-0.1L91.7,97.5v10.3
		h-2.5v-16h0.1l10,10.5V92h2.5V108z M115.5,107.9c-2.3,0-4.5-1.3-5.4-3.3l2.4-0.8c0.5,1,1.8,1.6,2.9,1.6c1.6,0,3.3-1.1,3.3-3.2
		c0-1.8-1.3-3.1-3.2-3.1c-1.4,0-2.9,0.7-3.4,1.8l-1.4-0.8l1.2-8.2h8.1v2.5h-6.2l-0.5,3.2c0.7-0.7,1.6-0.9,2.6-0.9
		c3.3,0,5.5,2.3,5.5,5.4C121.2,105.6,118.6,107.9,115.5,107.9z M124.8,108.2c-0.9,0-1.7-0.7-1.7-1.7s0.8-1.7,1.7-1.7
		c0.9,0,1.7,0.8,1.7,1.7C126.4,107.5,125.7,108.2,124.8,108.2z M133.7,107.9c-2.5,0-4.8-1.7-5.4-3.9l2.4-0.6
		c0.3,1.2,1.5,2.1,2.9,2.1c1.7,0,2.9-1.2,2.9-2.6c0-1.9-1.9-3.1-4.6-3.1l0.4-1.4c1.8,0,3.5-0.9,3.5-2.4c0-1.2-0.9-2-2.1-2
		c-1,0-1.8,0.7-2,1.6l-2.5-0.5c0.4-1.9,2.2-3.5,4.6-3.5c2.5,0,4.6,1.8,4.6,4.2c0,1.6-0.9,2.7-2.1,3.2c1.6,0.6,2.9,1.9,2.9,4.1
		C139,105.7,136.7,107.9,133.7,107.9z M142.5,108.2c-0.9,0-1.7-0.7-1.7-1.7s0.8-1.7,1.7-1.7c0.9,0,1.7,0.8,1.7,1.7
		C144.2,107.5,143.4,108.2,142.5,108.2z M152.5,108c-3.8,0-6.4-3.4-6.4-8.1c0-4.7,2.6-8.1,6.4-8.1s6.4,3.4,6.4,8.1
		C158.9,104.6,156.3,108,152.5,108z"/>
</g>
</svg>
