<?xml version="1.0" encoding="UTF-8"?>
<svg id="Layer_1" data-name="Layer 1" xmlns="http://www.w3.org/2000/svg" width="18.58mm" height="12.386mm" viewBox="0 0 52.667 35.111">
  <path d="M3.837,9.706c0-2.641,2.096-4.644,4.83-4.644s4.83,2.003,4.83,4.644c0,2.62-2.096,4.611-4.835,4.611s-4.824-1.992-4.824-4.611Zm7.296-.016c0-1.359-1.07-2.407-2.467-2.407s-2.467,1.048-2.467,2.407,1.07,2.396,2.467,2.396,2.467-1.042,2.467-2.396Z" style="fill: #3d3d3d;"/>
  <path d="M14.646,5.297h3.324c1.812,0,3.323,1.364,3.323,3.083,0,1.697-1.479,3.121-3.323,3.121h-.988v2.592h-2.336V5.297Zm4.393,3.094c0-.535-.447-.939-1.07-.939h-.988v1.894l.988,.006c.628,.005,1.07-.42,1.07-.961Z" style="fill: #3d3d3d;"/>
  <path d="M24.597,7.469v1.228h2.794v1.948h-2.794v1.261h3.394v2.188h-5.703V5.297h5.703v2.172h-3.394Z" style="fill: #3d3d3d;"/>
  <path d="M36.895,5.286V14.181h-.742l-4.524-4.382v4.3h-2.336V5.209h.753l4.508,4.366V5.286h2.341Z" style="fill: #3d3d3d;"/>
  <path d="M12.918,15.094v8.988h-1.381v-4.879l-2.92,4.731h-.011l-2.925-4.737v4.884h-1.381V15.094h.104l4.208,6.396,4.202-6.396h.104Z" style="fill: #3d3d3d;"/>
  <path d="M14.531,20.748v-5.463h1.386v5.457c0,1.217,.857,2.106,1.932,2.106s1.943-.89,1.943-2.106v-5.457h1.392v5.463c0,2.019-1.457,3.498-3.329,3.498s-3.324-1.479-3.324-3.498Z" style="fill: #3d3d3d;"/>
  <path d="M22.283,22.538l1.092-.78c.393,.688,1.124,1.081,1.97,1.081,.988,0,1.736-.475,1.736-1.146,0-.813-1.157-1.304-2.183-1.746-1.031-.458-2.177-.993-2.177-2.374,0-1.441,1.25-2.445,2.832-2.445,1.255,0,2.194,.606,2.554,1.572l-1.026,.71c-.273-.595-.879-.928-1.517-.928-.808,0-1.452,.502-1.452,1.124,0,.688,.813,.933,1.883,1.392,1.392,.611,2.472,1.282,2.472,2.668,0,1.561-1.353,2.565-3.138,2.565-1.446,0-2.543-.677-3.045-1.692Z" style="fill: #3d3d3d;"/>
  <path d="M29.233,19.689c0-2.478,2.068-4.557,4.541-4.557,1.141,.016,2.194,.502,3.056,1.342l-.802,1.086c-.617-.617-1.419-1.026-2.281-1.026-1.594,0-3.116,1.397-3.116,3.16,0,1.773,1.544,3.143,3.122,3.143,.9,0,1.675-.448,2.281-1.048l.797,1.113c-.759,.748-1.724,1.321-3.034,1.321-2.494,0-4.562-2.052-4.562-4.535Z" style="fill: #3d3d3d;"/>
  <path d="M43.233,22.707v1.375h-5.304V15.285h1.381v7.422h3.924Z" style="fill: #3d3d3d;"/>
  <path d="M45.718,16.644v2.254h3.329v1.375h-3.329v2.434h3.858v1.375h-5.239V15.285h5.239v1.359h-3.858Z" style="fill: #3d3d3d;"/>
  <g>
    <path d="M43.976,26.943c-.661,0-1.097,.648-1.097,1.561s.436,1.555,1.097,1.555,1.097-.645,1.097-1.555-.439-1.561-1.097-1.561Z" style="fill: #3d3d3d;"/>
    <path d="M14.23,27h-.688v1.428h.688c.412,.003,.756-.331,.756-.721,0-.406-.35-.707-.756-.707Z" style="fill: #3d3d3d;"/>
    <path d="M23.538,26.935c-.862,0-1.563,.705-1.563,1.569,0,.859,.702,1.561,1.563,1.561s1.569-.702,1.569-1.561c0-.864-.707-1.569-1.569-1.569Z" style="fill: #3d3d3d;"/>
    <path d="M4.047,25.451v6.104H46.703v-6.104H4.047Zm2.995,5.325h-.046l-2.008-4.457h.729l1.301,2.956,1.306-2.956h.734l-2.016,4.457Zm5.102-3.783h-1.916v1.119h1.653v.683h-1.653v1.208h1.916v.683h-2.601v-4.368h2.601v.675Zm3.113,3.693l-1.176-1.691h-.537v1.691h-.686l-.003-4.368h1.358c.813,0,1.479,.626,1.479,1.404,0,.564-.363,1.054-.864,1.217l1.271,1.748h-.843Zm2.563,.073c-.718,0-1.263-.336-1.512-.84l.542-.387c.195,.341,.558,.537,.978,.537,.49,0,.862-.236,.862-.569,0-.404-.574-.648-1.084-.867-.512-.228-1.081-.493-1.081-1.179,0-.715,.621-1.214,1.406-1.214,.623,0,1.089,.301,1.268,.78l-.509,.352c-.135-.295-.436-.461-.753-.461-.401,0-.721,.249-.721,.558,0,.341,.404,.463,.935,.691,.691,.303,1.227,.637,1.227,1.325,0,.775-.672,1.274-1.558,1.274Zm2.832-.073h-.686v-4.368h.686v4.368Zm2.886,.07c-1.241,0-2.254-1.013-2.254-2.249,0-1.246,1.013-2.265,2.257-2.265s2.26,1.019,2.26,2.265c0,1.236-1.019,2.249-2.263,2.249Zm6.403,.005h-.033l-2.794-2.918v2.848h-.686v-4.449h.035l2.788,2.913v-2.848h.688v4.455Zm3.756-.038c-.642,0-1.257-.363-1.498-.921l.677-.214c.146,.271,.493,.453,.791,.453,.439,0,.919-.306,.919-.889,0-.512-.366-.848-.9-.848-.39,0-.791,.198-.956,.512l-.385-.23,.322-2.271h2.252v.683h-1.734l-.138,.9c.203-.187,.453-.257,.734-.257,.924,0,1.517,.645,1.517,1.512,0,.929-.718,1.572-1.601,1.572Zm2.585,.087c-.252,0-.461-.206-.461-.458s.209-.461,.461-.461c.249,0,.461,.211,.461,.461,0,.252-.209,.458-.461,.458Zm2.471-.084c-.707,0-1.336-.48-1.485-1.081l.672-.171c.081,.331,.42,.574,.797,.574,.463,0,.797-.344,.797-.715,0-.531-.537-.867-1.29-.862l.108-.401c.507,0,.959-.244,.959-.656,0-.322-.263-.55-.585-.55-.271,0-.504,.19-.555,.455l-.702-.146c.119-.52,.612-.981,1.263-.981,.686,0,1.268,.496,1.268,1.171,0,.442-.257,.759-.572,.886,.453,.163,.797,.534,.797,1.133,0,.718-.645,1.344-1.471,1.344Zm2.458,.084c-.252,0-.461-.206-.461-.458s.209-.461,.461-.461c.249,0,.461,.211,.461,.461,0,.252-.209,.458-.461,.458Zm2.769-.062c-1.062,0-1.783-.932-1.783-2.246s.721-2.249,1.783-2.249,1.783,.932,1.783,2.249-.721,2.246-1.783,2.246Z" style="fill: #3d3d3d;"/>
  </g>
</svg>