<?xml version="1.0" encoding="UTF-8"?>
<svg id="Layer_1" data-name="Layer 1" xmlns="http://www.w3.org/2000/svg" width="67.263mm" height="42.302mm" viewBox="0 0 190.667 119.912">
  <path d="M7.837,32.142c0-9.52,7.553-16.738,17.407-16.738s17.406,7.218,17.406,16.738c0,9.441-7.553,16.62-17.426,16.62S7.837,41.583,7.837,32.142Zm26.297-.059c0-4.897-3.855-8.674-8.89-8.674s-8.891,3.776-8.891,8.674,3.855,8.635,8.891,8.635,8.89-3.757,8.89-8.635Z" style="fill: #3d3d3d;"/>
  <path d="M46.792,16.25h11.979c6.53,0,11.978,4.917,11.978,11.113,0,6.117-5.33,11.25-11.978,11.25h-3.56v9.343h-8.418V16.25Zm15.833,11.152c0-1.927-1.613-3.383-3.855-3.383h-3.56v6.825l3.56,.02c2.262,.02,3.855-1.515,3.855-3.462Z" style="fill: #3d3d3d;"/>
  <path d="M82.657,24.078v4.425h10.07v7.021h-10.07v4.543h12.234v7.887h-20.554V16.25h20.554v7.828h-12.234Z" style="fill: #3d3d3d;"/>
  <path d="M126.978,16.211V48.271h-2.675l-16.305-15.794v15.499h-8.418V15.935h2.714l16.247,15.735v-15.459h8.438Z" style="fill: #3d3d3d;"/>
  <path d="M40.566,51.562v32.394h-4.976v-17.583l-10.523,17.052h-.04l-10.542-17.072v17.604h-4.976V51.562h.374l15.165,23.051,15.145-23.051h.374Z" style="fill: #3d3d3d;"/>
  <path d="M46.379,71.938v-19.688h4.996v19.668c0,4.386,3.088,7.592,6.962,7.592s7.002-3.206,7.002-7.592v-19.668h5.016v19.688c0,7.277-5.251,12.607-11.998,12.607s-11.979-5.33-11.979-12.607Z" style="fill: #3d3d3d;"/>
  <path d="M74.318,78.389l3.934-2.812c1.416,2.479,4.052,3.895,7.1,3.895,3.56,0,6.255-1.712,6.255-4.131,0-2.931-4.17-4.7-7.868-6.293-3.717-1.652-7.848-3.58-7.848-8.556,0-5.192,4.504-8.812,10.208-8.812,4.524,0,7.907,2.184,9.205,5.665l-3.698,2.557c-.983-2.144-3.167-3.344-5.468-3.344-2.911,0-5.231,1.81-5.231,4.052,0,2.479,2.931,3.363,6.786,5.016,5.015,2.203,8.91,4.622,8.91,9.617,0,5.626-4.878,9.245-11.31,9.245-5.212,0-9.166-2.439-10.975-6.098Z" style="fill: #3d3d3d;"/>
  <path d="M99.364,68.123c0-8.93,7.455-16.423,16.364-16.423,4.111,.059,7.907,1.81,11.014,4.838l-2.891,3.914c-2.223-2.223-5.114-3.698-8.221-3.698-5.744,0-11.231,5.035-11.231,11.388,0,6.392,5.566,11.329,11.25,11.329,3.245,0,6.038-1.613,8.221-3.776l2.872,4.012c-2.734,2.695-6.215,4.76-10.936,4.76-8.988,0-16.443-7.395-16.443-16.344Z" style="fill: #3d3d3d;"/>
  <path d="M149.823,78.999v4.957h-19.118v-31.706h4.976v26.749h14.142Z" style="fill: #3d3d3d;"/>
  <path d="M158.779,57.148v8.123h11.998v4.957h-11.998v8.771h13.906v4.957h-18.882v-31.706h18.882v4.897h-13.906Z" style="fill: #3d3d3d;"/>
  <g>
    <path d="M152.501,94.264c-2.383,0-3.955,2.334-3.955,5.625s1.572,5.605,3.955,5.605,3.955-2.324,3.955-5.605-1.582-5.625-3.955-5.625Z" style="fill: #3d3d3d;"/>
    <path d="M45.294,94.469h-2.48v5.146h2.48c1.484,.01,2.725-1.191,2.725-2.598,0-1.465-1.26-2.549-2.725-2.549Z" style="fill: #3d3d3d;"/>
    <path d="M78.839,94.235c-3.105,0-5.635,2.539-5.635,5.654,0,3.096,2.529,5.625,5.635,5.625s5.654-2.529,5.654-5.625c0-3.115-2.549-5.654-5.654-5.654Z" style="fill: #3d3d3d;"/>
    <path d="M8.592,88.889v22H162.328v-22H8.592Zm10.793,19.193h-.166l-7.236-16.064h2.627l4.688,10.654,4.707-10.654h2.646l-7.266,16.064Zm18.389-13.633h-6.904v4.033h5.957v2.461h-5.957v4.355h6.904v2.461h-9.375v-15.742h9.375v2.432Zm11.221,13.311l-4.238-6.094h-1.934v6.094h-2.471l-.01-15.742h4.893c2.93,0,5.332,2.256,5.332,5.059,0,2.031-1.309,3.799-3.115,4.385l4.58,6.299h-3.037Zm9.238,.264c-2.588,0-4.551-1.211-5.449-3.027l1.953-1.396c.703,1.23,2.012,1.934,3.525,1.934,1.768,0,3.105-.85,3.105-2.051,0-1.455-2.07-2.334-3.906-3.125-1.846-.82-3.896-1.777-3.896-4.248,0-2.578,2.236-4.375,5.068-4.375,2.246,0,3.926,1.084,4.57,2.812l-1.836,1.27c-.488-1.064-1.572-1.66-2.715-1.66-1.445,0-2.598,.898-2.598,2.012,0,1.23,1.455,1.67,3.369,2.49,2.49,1.094,4.424,2.295,4.424,4.775,0,2.793-2.422,4.59-5.615,4.59Zm10.205-.264h-2.471v-15.742h2.471v15.742Zm10.4,.254c-4.473,0-8.125-3.652-8.125-8.105,0-4.492,3.652-8.164,8.135-8.164s8.145,3.672,8.145,8.164c0,4.453-3.672,8.105-8.154,8.105Zm23.076,.02h-.117l-10.068-10.518v10.264h-2.471v-16.035h.127l10.049,10.498v-10.264h2.48v16.055Zm13.535-.137c-2.314,0-4.531-1.309-5.4-3.32l2.441-.771c.527,.977,1.777,1.631,2.852,1.631,1.582,0,3.311-1.104,3.311-3.203,0-1.846-1.318-3.057-3.242-3.057-1.406,0-2.852,.713-3.447,1.846l-1.387-.83,1.162-8.184h8.115v2.461h-6.25l-.498,3.242c.732-.674,1.631-.928,2.646-.928,3.33,0,5.469,2.324,5.469,5.449,0,3.35-2.588,5.664-5.771,5.664Zm9.316,.312c-.908,0-1.66-.742-1.66-1.65s.752-1.66,1.66-1.66c.898,0,1.66,.762,1.66,1.66,0,.908-.752,1.65-1.66,1.65Zm8.906-.303c-2.549,0-4.814-1.729-5.352-3.896l2.422-.615c.293,1.191,1.514,2.07,2.871,2.07,1.67,0,2.871-1.24,2.871-2.578,0-1.914-1.934-3.125-4.648-3.105l.391-1.445c1.826,0,3.457-.879,3.457-2.363,0-1.162-.947-1.982-2.109-1.982-.977,0-1.816,.684-2.002,1.641l-2.529-.527c.43-1.875,2.207-3.535,4.551-3.535,2.471,0,4.57,1.787,4.57,4.219,0,1.592-.928,2.734-2.061,3.193,1.631,.586,2.871,1.924,2.871,4.082,0,2.588-2.324,4.844-5.303,4.844Zm8.857,.303c-.908,0-1.66-.742-1.66-1.65s.752-1.66,1.66-1.66c.898,0,1.66,.762,1.66,1.66,0,.908-.752,1.65-1.66,1.65Zm9.98-.225c-3.828,0-6.426-3.359-6.426-8.096s2.598-8.105,6.426-8.105,6.426,3.359,6.426,8.105-2.598,8.096-6.426,8.096Z" style="fill: #3d3d3d;"/>
  </g>
</svg>