<?xml version="1.0" standalone="no"?>
 <!DOCTYPE svg PUBLIC "-//W3C//DTD SVG 1.1//EN" 
 "http://www.w3.org/Graphics/SVG/1.1/DTD/svg11.dtd"> 
<svg
  xmlns:svg="http://www.w3.org/2000/svg"
  xmlns="http://www.w3.org/2000/svg"
  xmlns:xlink="http://www.w3.org/1999/xlink"
  version="1.1"
  width="3.665220cm" height="4.157980cm" viewBox="0 0 36652200 41579800">
<title>SVG Picture created as OpenMuscle5-F_Silkscreen.svg date 2022/09/26 10:37:10 </title>
  <desc>Picture generated by PCBNEW </desc>
<g style="fill:#000000; fill-opacity:1.000000;stroke:#000000; stroke-opacity:1.000000;
stroke-linecap:round; stroke-linejoin:round;"
 transform="translate(0 0) scale(1 1)">
</g>
<g style="fill:#000000; fill-opacity:0.0; 
stroke:#000000; stroke-width:0.000000; stroke-opacity:1; 
stroke-linecap:round; stroke-linejoin:round;">
</g>
<g style="fill:#F2EDA1; fill-opacity:0.0; 
stroke:#F2EDA1; stroke-width:0.000000; stroke-opacity:1; 
stroke-linecap:round; stroke-linejoin:round;">
</g>
<g style="fill:#F2EDA1; fill-opacity:0.0; 
stroke:#F2EDA1; stroke-width:150000.000000; stroke-opacity:1; 
stroke-linecap:round; stroke-linejoin:round;">
<path d="M10715000 14117500
L25955000 14117500
" />
<path d="M25955000 14117500
L25955000 29357500
" />
<path d="M25955000 29357500
L10715000 29357500
" />
<path d="M10715000 29357500
L10715000 14117500
" />
<text x="32305000.000000" y="28797500.000000"
textLength="4099762.000000" font-size="1333333.000000" lengthAdjust="spacingAndGlyphs"
text-anchor="middle" opacity="0">Five2</text>
<g class="stroked-text"><desc>Five2</desc>
<path d="M30924047 28226071
L30590714 28226071
" />
<path d="M30590714 28749880
L30590714 27749880
L31066904 27749880
" />
<path d="M31447857 28749880
L31447857 28083214
" />
<path d="M31447857 27749880
L31400238 27797500
L31447857 27845119
L31495476 27797500
L31447857 27749880
L31447857 27845119
" />
<path d="M31828809 28083214
L32066904 28749880
L32305000 28083214
" />
<path d="M33066904 28702261
L32971666 28749880
L32781190 28749880
L32685952 28702261
L32638333 28607023
L32638333 28226071
L32685952 28130833
L32781190 28083214
L32971666 28083214
L33066904 28130833
L33114523 28226071
L33114523 28321309
L32638333 28416547
" />
<path d="M33495476 27845119
L33543095 27797500
L33638333 27749880
L33876428 27749880
L33971666 27797500
L34019285 27845119
L34066904 27940357
L34066904 28035595
L34019285 28178452
L33447857 28749880
L34066904 28749880
" />
</g><text x="4365000.000000" y="28797500.000000"
textLength="4099762.000000" font-size="1333333.000000" lengthAdjust="spacingAndGlyphs"
text-anchor="middle" opacity="0">Five1</text>
<g class="stroked-text"><desc>Five1</desc>
<path d="M2984047 28226071
L2650714 28226071
" />
<path d="M2650714 28749880
L2650714 27749880
L3126904 27749880
" />
<path d="M3507857 28749880
L3507857 28083214
" />
<path d="M3507857 27749880
L3460238 27797500
L3507857 27845119
L3555476 27797500
L3507857 27749880
L3507857 27845119
" />
<path d="M3888809 28083214
L4126904 28749880
L4365000 28083214
" />
<path d="M5126904 28702261
L5031666 28749880
L4841190 28749880
L4745952 28702261
L4698333 28607023
L4698333 28226071
L4745952 28130833
L4841190 28083214
L5031666 28083214
L5126904 28130833
L5174523 28226071
L5174523 28321309
L4698333 28416547
" />
<path d="M6126904 28749880
L5555476 28749880
" />
<path d="M5841190 28749880
L5841190 27749880
L5745952 27892738
L5650714 27987976
L5555476 28035595
" />
</g><text x="29765000.000000" y="4032500.000000"
textLength="2909286.000000" font-size="1333333.000000" lengthAdjust="spacingAndGlyphs"
text-anchor="middle" opacity="0">BT1</text>
<g class="stroked-text"><desc>BT1</desc>
<path d="M28979285 3461071
L29122142 3508690
L29169761 3556309
L29217380 3651547
L29217380 3794404
L29169761 3889642
L29122142 3937261
L29026904 3984880
L28645952 3984880
L28645952 2984880
L28979285 2984880
L29074523 3032500
L29122142 3080119
L29169761 3175357
L29169761 3270595
L29122142 3365833
L29074523 3413452
L28979285 3461071
L28645952 3461071
" />
<path d="M29503095 2984880
L30074523 2984880
" />
<path d="M29788809 3984880
L29788809 2984880
" />
<path d="M30931666 3984880
L30360238 3984880
" />
<path d="M30645952 3984880
L30645952 2984880
L30550714 3127738
L30455476 3222976
L30360238 3270595
" />
</g><text x="13165000.000000" y="9007500.000000"
textLength="3195000.000000" font-size="1333333.000000" lengthAdjust="spacingAndGlyphs"
text-anchor="middle" opacity="0">NC1</text>
<g class="stroked-text"><desc>NC1</desc>
<path d="M11903095 8959880
L11903095 7959880
L12474523 8959880
L12474523 7959880
" />
<path d="M13522142 8864642
L13474523 8912261
L13331666 8959880
L13236428 8959880
L13093571 8912261
L12998333 8817023
L12950714 8721785
L12903095 8531309
L12903095 8388452
L12950714 8197976
L12998333 8102738
L13093571 8007500
L13236428 7959880
L13331666 7959880
L13474523 8007500
L13522142 8055119
" />
<path d="M14474523 8959880
L13903095 8959880
" />
<path d="M14188809 8959880
L14188809 7959880
L14093571 8102738
L13998333 8197976
L13903095 8245595
" />
</g><g transform="rotate(-90.000000 4575000.000000 38247500.000000)">
<text x="4575000.000000" y="38747500.000000"
textLength="3052143.000000" font-size="1333333.000000" lengthAdjust="spacingAndGlyphs"
text-anchor="middle" opacity="0">Ch1</text>
</g>
<g class="stroked-text"><desc>Ch1</desc>
<path d="M4932142 38866547
L4979761 38914166
L5027380 39057023
L5027380 39152261
L4979761 39295119
L4884523 39390357
L4789285 39437976
L4598809 39485595
L4455952 39485595
L4265476 39437976
L4170238 39390357
L4075000 39295119
L4027380 39152261
L4027380 39057023
L4075000 38914166
L4122619 38866547
" />
<path d="M5027380 38437976
L4027380 38437976
" />
<path d="M5027380 38009404
L4503571 38009404
L4408333 38057023
L4360714 38152261
L4360714 38295119
L4408333 38390357
L4455952 38437976
" />
<path d="M5027380 37009404
L5027380 37580833
" />
<path d="M5027380 37295119
L4027380 37295119
L4170238 37390357
L4265476 37485595
L4313095 37580833
" />
</g><text x="1825000.000000" y="8477500.000000"
textLength="1909286.000000" font-size="1333333.000000" lengthAdjust="spacingAndGlyphs"
text-anchor="middle" opacity="0">J1</text>
<g class="stroked-text"><desc>J1</desc>
<path d="M1491666 7429880
L1491666 8144166
L1444047 8287023
L1348809 8382261
L1205952 8429880
L1110714 8429880
" />
<path d="M2491666 8429880
L1920238 8429880
" />
<path d="M2205952 8429880
L2205952 7429880
L2110714 7572738
L2015476 7667976
L1920238 7715595
" />
</g><text x="13165000.000000" y="15357500.000000"
textLength="3195000.000000" font-size="1333333.000000" lengthAdjust="spacingAndGlyphs"
text-anchor="middle" opacity="0">NC3</text>
<g class="stroked-text"><desc>NC3</desc>
<path d="M11903095 15309880
L11903095 14309880
L12474523 15309880
L12474523 14309880
" />
<path d="M13522142 15214642
L13474523 15262261
L13331666 15309880
L13236428 15309880
L13093571 15262261
L12998333 15167023
L12950714 15071785
L12903095 14881309
L12903095 14738452
L12950714 14547976
L12998333 14452738
L13093571 14357500
L13236428 14309880
L13331666 14309880
L13474523 14357500
L13522142 14405119
" />
<path d="M13855476 14309880
L14474523 14309880
L14141190 14690833
L14284047 14690833
L14379285 14738452
L14426904 14786071
L14474523 14881309
L14474523 15119404
L14426904 15214642
L14379285 15262261
L14284047 15309880
L13998333 15309880
L13903095 15262261
L13855476 15214642
" />
</g><text x="18335000.000000" y="1417500.000000"
textLength="2052143.000000" font-size="1333333.000000" lengthAdjust="spacingAndGlyphs"
text-anchor="middle" opacity="0">E1</text>
<g class="stroked-text"><desc>E1</desc>
<path d="M17644523 846071
L17977857 846071
" />
<path d="M18120714 1369880
L17644523 1369880
L17644523 369880
L18120714 369880
" />
<path d="M19073095 1369880
L18501666 1369880
" />
<path d="M18787380 1369880
L18787380 369880
L18692142 512738
L18596904 607976
L18501666 655595
" />
</g><text x="21435000.000000" y="17642500.000000"
textLength="3242619.000000" font-size="1333333.000000" lengthAdjust="spacingAndGlyphs"
text-anchor="middle" opacity="0">SW3</text>
<g class="stroked-text"><desc>SW3</desc>
<path d="M20101666 17547261
L20244523 17594880
L20482619 17594880
L20577857 17547261
L20625476 17499642
L20673095 17404404
L20673095 17309166
L20625476 17213928
L20577857 17166309
L20482619 17118690
L20292142 17071071
L20196904 17023452
L20149285 16975833
L20101666 16880595
L20101666 16785357
L20149285 16690119
L20196904 16642500
L20292142 16594880
L20530238 16594880
L20673095 16642500
" />
<path d="M21006428 16594880
L21244523 17594880
L21435000 16880595
L21625476 17594880
L21863571 16594880
" />
<path d="M22149285 16594880
L22768333 16594880
L22435000 16975833
L22577857 16975833
L22673095 17023452
L22720714 17071071
L22768333 17166309
L22768333 17404404
L22720714 17499642
L22673095 17547261
L22577857 17594880
L22292142 17594880
L22196904 17547261
L22149285 17499642
" />
</g><text x="3095000.000000" y="34277500.000000"
textLength="2195000.000000" font-size="1333333.000000" lengthAdjust="spacingAndGlyphs"
text-anchor="middle" opacity="0">H3</text>
<g class="stroked-text"><desc>H3</desc>
<path d="M2333095 34229880
L2333095 33229880
" />
<path d="M2333095 33706071
L2904523 33706071
" />
<path d="M2904523 34229880
L2904523 33229880
" />
<path d="M3285476 33229880
L3904523 33229880
L3571190 33610833
L3714047 33610833
L3809285 33658452
L3856904 33706071
L3904523 33801309
L3904523 34039404
L3856904 34134642
L3809285 34182261
L3714047 34229880
L3428333 34229880
L3333095 34182261
L3285476 34134642
" />
</g><g transform="rotate(-90.000000 4575000.000000 5227500.000000)">
<text x="4575000.000000" y="5727500.000000"
textLength="2099762.000000" font-size="1333333.000000" lengthAdjust="spacingAndGlyphs"
text-anchor="middle" opacity="0">S1</text>
</g>
<g class="stroked-text"><desc>S1</desc>
<path d="M4979761 5989404
L5027380 5846547
L5027380 5608452
L4979761 5513214
L4932142 5465595
L4836904 5417976
L4741666 5417976
L4646428 5465595
L4598809 5513214
L4551190 5608452
L4503571 5798928
L4455952 5894166
L4408333 5941785
L4313095 5989404
L4217857 5989404
L4122619 5941785
L4075000 5894166
L4027380 5798928
L4027380 5560833
L4075000 5417976
" />
<path d="M5027380 4465595
L5027380 5037023
" />
<path d="M5027380 4751309
L4027380 4751309
L4170238 4846547
L4265476 4941785
L4313095 5037023
" />
</g><text x="13165000.000000" y="24882500.000000"
textLength="3195000.000000" font-size="1333333.000000" lengthAdjust="spacingAndGlyphs"
text-anchor="middle" opacity="0">NC6</text>
<g class="stroked-text"><desc>NC6</desc>
<path d="M11903095 24834880
L11903095 23834880
L12474523 24834880
L12474523 23834880
" />
<path d="M13522142 24739642
L13474523 24787261
L13331666 24834880
L13236428 24834880
L13093571 24787261
L12998333 24692023
L12950714 24596785
L12903095 24406309
L12903095 24263452
L12950714 24072976
L12998333 23977738
L13093571 23882500
L13236428 23834880
L13331666 23834880
L13474523 23882500
L13522142 23930119
" />
<path d="M14379285 23834880
L14188809 23834880
L14093571 23882500
L14045952 23930119
L13950714 24072976
L13903095 24263452
L13903095 24644404
L13950714 24739642
L13998333 24787261
L14093571 24834880
L14284047 24834880
L14379285 24787261
L14426904 24739642
L14474523 24644404
L14474523 24406309
L14426904 24311071
L14379285 24263452
L14284047 24215833
L14093571 24215833
L13998333 24263452
L13950714 24311071
L13903095 24406309
" />
</g><text x="33575000.000000" y="34277500.000000"
textLength="2195000.000000" font-size="1333333.000000" lengthAdjust="spacingAndGlyphs"
text-anchor="middle" opacity="0">H4</text>
<g class="stroked-text"><desc>H4</desc>
<path d="M32813095 34229880
L32813095 33229880
" />
<path d="M32813095 33706071
L33384523 33706071
" />
<path d="M33384523 34229880
L33384523 33229880
" />
<path d="M34289285 33563214
L34289285 34229880
" />
<path d="M34051190 33182261
L33813095 33896547
L34432142 33896547
" />
</g><text x="13165000.000000" y="21707500.000000"
textLength="3195000.000000" font-size="1333333.000000" lengthAdjust="spacingAndGlyphs"
text-anchor="middle" opacity="0">NC5</text>
<g class="stroked-text"><desc>NC5</desc>
<path d="M11903095 21659880
L11903095 20659880
L12474523 21659880
L12474523 20659880
" />
<path d="M13522142 21564642
L13474523 21612261
L13331666 21659880
L13236428 21659880
L13093571 21612261
L12998333 21517023
L12950714 21421785
L12903095 21231309
L12903095 21088452
L12950714 20897976
L12998333 20802738
L13093571 20707500
L13236428 20659880
L13331666 20659880
L13474523 20707500
L13522142 20755119
" />
<path d="M14426904 20659880
L13950714 20659880
L13903095 21136071
L13950714 21088452
L14045952 21040833
L14284047 21040833
L14379285 21088452
L14426904 21136071
L14474523 21231309
L14474523 21469404
L14426904 21564642
L14379285 21612261
L14284047 21659880
L14045952 21659880
L13950714 21612261
L13903095 21564642
" />
</g><text x="13165000.000000" y="12182500.000000"
textLength="3195000.000000" font-size="1333333.000000" lengthAdjust="spacingAndGlyphs"
text-anchor="middle" opacity="0">NC2</text>
<g class="stroked-text"><desc>NC2</desc>
<path d="M11903095 12134880
L11903095 11134880
L12474523 12134880
L12474523 11134880
" />
<path d="M13522142 12039642
L13474523 12087261
L13331666 12134880
L13236428 12134880
L13093571 12087261
L12998333 11992023
L12950714 11896785
L12903095 11706309
L12903095 11563452
L12950714 11372976
L12998333 11277738
L13093571 11182500
L13236428 11134880
L13331666 11134880
L13474523 11182500
L13522142 11230119
" />
<path d="M13903095 11230119
L13950714 11182500
L14045952 11134880
L14284047 11134880
L14379285 11182500
L14426904 11230119
L14474523 11325357
L14474523 11420595
L14426904 11563452
L13855476 12134880
L14474523 12134880
" />
</g><text x="34845000.000000" y="8477500.000000"
textLength="1909286.000000" font-size="1333333.000000" lengthAdjust="spacingAndGlyphs"
text-anchor="middle" opacity="0">J2</text>
<g class="stroked-text"><desc>J2</desc>
<path d="M34511666 7429880
L34511666 8144166
L34464047 8287023
L34368809 8382261
L34225952 8429880
L34130714 8429880
" />
<path d="M34940238 7525119
L34987857 7477500
L35083095 7429880
L35321190 7429880
L35416428 7477500
L35464047 7525119
L35511666 7620357
L35511666 7715595
L35464047 7858452
L34892619 8429880
L35511666 8429880
" />
</g><g transform="rotate(-90.000000 30825000.000000 38247500.000000)">
<text x="30825000.000000" y="38747500.000000"
textLength="3242619.000000" font-size="1333333.000000" lengthAdjust="spacingAndGlyphs"
text-anchor="middle" opacity="0">SW1</text>
</g>
<g class="stroked-text"><desc>SW1</desc>
<path d="M31229761 39580833
L31277380 39437976
L31277380 39199880
L31229761 39104642
L31182142 39057023
L31086904 39009404
L30991666 39009404
L30896428 39057023
L30848809 39104642
L30801190 39199880
L30753571 39390357
L30705952 39485595
L30658333 39533214
L30563095 39580833
L30467857 39580833
L30372619 39533214
L30325000 39485595
L30277380 39390357
L30277380 39152261
L30325000 39009404
" />
<path d="M30277380 38676071
L31277380 38437976
L30563095 38247500
L31277380 38057023
L30277380 37818928
" />
<path d="M31277380 36914166
L31277380 37485595
" />
<path d="M31277380 37199880
L30277380 37199880
L30420238 37295119
L30515476 37390357
L30563095 37485595
" />
</g><text x="21435000.000000" y="3672500.000000"
textLength="3242619.000000" font-size="1333333.000000" lengthAdjust="spacingAndGlyphs"
text-anchor="middle" opacity="0">SW2</text>
<g class="stroked-text"><desc>SW2</desc>
<path d="M20101666 3577261
L20244523 3624880
L20482619 3624880
L20577857 3577261
L20625476 3529642
L20673095 3434404
L20673095 3339166
L20625476 3243928
L20577857 3196309
L20482619 3148690
L20292142 3101071
L20196904 3053452
L20149285 3005833
L20101666 2910595
L20101666 2815357
L20149285 2720119
L20196904 2672500
L20292142 2624880
L20530238 2624880
L20673095 2672500
" />
<path d="M21006428 2624880
L21244523 3624880
L21435000 2910595
L21625476 3624880
L21863571 2624880
" />
<path d="M22196904 2720119
L22244523 2672500
L22339761 2624880
L22577857 2624880
L22673095 2672500
L22720714 2720119
L22768333 2815357
L22768333 2910595
L22720714 3053452
L22149285 3624880
L22768333 3624880
" />
</g><text x="13345000.000000" y="18532500.000000"
textLength="3195000.000000" font-size="1333333.000000" lengthAdjust="spacingAndGlyphs"
text-anchor="middle" opacity="0">NC4</text>
<g class="stroked-text"><desc>NC4</desc>
<path d="M12083095 18484880
L12083095 17484880
L12654523 18484880
L12654523 17484880
" />
<path d="M13702142 18389642
L13654523 18437261
L13511666 18484880
L13416428 18484880
L13273571 18437261
L13178333 18342023
L13130714 18246785
L13083095 18056309
L13083095 17913452
L13130714 17722976
L13178333 17627738
L13273571 17532500
L13416428 17484880
L13511666 17484880
L13654523 17532500
L13702142 17580119
" />
<path d="M14559285 17818214
L14559285 18484880
" />
<path d="M14321190 17437261
L14083095 18151547
L14702142 18151547
" />
</g></g>
<g style="fill:#F2EDA1; fill-opacity:0.0; 
stroke:#F2EDA1; stroke-width:120000.000000; stroke-opacity:1; 
stroke-linecap:round; stroke-linejoin:round;">
<path d="M30975000 30627500
L30975000 29297500
" />
<path d="M30975000 34497500
L33635000 34497500
" />
<path d="M30975000 31897500
L30975000 34497500
" />
<path d="M30975000 31897500
L33635000 31897500
" />
<path d="M30975000 29297500
L32305000 29297500
" />
<path d="M33635000 31897500
L33635000 34497500
" />
<path d="M3035000 30627500
L3035000 29297500
" />
<path d="M3035000 34497500
L5695000 34497500
" />
<path d="M3035000 31897500
L3035000 34497500
" />
<path d="M3035000 31897500
L5695000 31897500
" />
<path d="M3035000 29297500
L4365000 29297500
" />
<path d="M5695000 31897500
L5695000 34497500
" />
<path d="M28435000 5862500
L28435000 4532500
" />
<path d="M28435000 9732500
L31095000 9732500
" />
<path d="M28435000 7132500
L28435000 9732500
" />
<path d="M28435000 7132500
L31095000 7132500
" />
<path d="M28435000 4532500
L29765000 4532500
" />
<path d="M31095000 7132500
L31095000 9732500
" />
<path d="M14565000 11307500
L11765000 11307500
" />
<path d="M11765000 9307500
L14565000 9307500
" />
<path d="M11765000 11307500
L11765000 9307500
" />
<path d="M14565000 9307500
L14565000 11307500
" />
<path d="M5575000 39577500
L5575000 38247500
" />
<path d="M8175000 39577500
L8175000 36917500
" />
<path d="M6905000 39577500
L5575000 39577500
" />
<path d="M20935000 39577500
L20935000 36917500
" />
<path d="M8175000 39577500
L20935000 39577500
" />
<path d="M8175000 36917500
L20935000 36917500
" />
<path d="M495000 8977500
L1825000 8977500
" />
<path d="M495000 10307500
L495000 8977500
" />
<path d="M495000 11577500
L495000 34497500
" />
<path d="M495000 34497500
L3155000 34497500
" />
<path d="M3155000 11577500
L3155000 34497500
" />
<path d="M495000 11577500
L3155000 11577500
" />
<path d="M11765000 15657500
L14565000 15657500
" />
<path d="M14565000 15657500
L14565000 17657500
" />
<path d="M14565000 17657500
L11765000 17657500
" />
<path d="M11765000 17657500
L11765000 15657500
" />
<path d="M8175000 5227500
L28495000 5227500
" />
<path d="M8175000 33167500
L5635000 31897500
" />
<path d="M5635000 31897500
L5635000 7767500
" />
<path d="M8175000 39517500
L8175000 33167500
" />
<path d="M31035000 39517500
L8175000 39517500
" />
<path d="M31035000 7767500
L31035000 39517500
" />
<path d="M8175000.000000 5227500.000000 A2540001.000000 2540001.000000 0.0 0 0 5635000.000000 7767500.000000" />
<path d="M31035000.000000 7767500.000000 A2540000.000000 2540000.000000 0.0 0 0 28495000.000000 5227500.000000" />
<path d="M19185000 24642500
L23685000 24642500
" />
<path d="M17935000 20642500
L17935000 22142500
" />
<path d="M24935000 22142500
L24935000 20642500
" />
<path d="M23685000 18142500
L19185000 18142500
" />
<path d="M8175000 6557500
L15855000 6557500
" />
<path d="M8175000 3897500
L15855000 3897500
" />
<path d="M6905000 6557500
L5575000 6557500
" />
<path d="M15855000 6557500
L15855000 3897500
" />
<path d="M5575000 6557500
L5575000 5227500
" />
<path d="M8175000 6557500
L8175000 3897500
" />
<path d="M14565000 27182500
L11765000 27182500
" />
<path d="M11765000 27182500
L11765000 25182500
" />
<path d="M14565000 25182500
L14565000 27182500
" />
<path d="M11765000 25182500
L14565000 25182500
" />
<path d="M11765000 22007500
L14565000 22007500
" />
<path d="M14565000 22007500
L14565000 24007500
" />
<path d="M14565000 24007500
L11765000 24007500
" />
<path d="M11765000 24007500
L11765000 22007500
" />
<path d="M11765000 12482500
L14565000 12482500
" />
<path d="M11765000 14482500
L11765000 12482500
" />
<path d="M14565000 12482500
L14565000 14482500
" />
<path d="M14565000 14482500
L11765000 14482500
" />
<path d="M33515000 10307500
L33515000 8977500
" />
<path d="M33515000 34497500
L36175000 34497500
" />
<path d="M33515000 11577500
L36175000 11577500
" />
<path d="M33515000 11577500
L33515000 34497500
" />
<path d="M33515000 8977500
L34845000 8977500
" />
<path d="M36175000 11577500
L36175000 34497500
" />
<path d="M27225000 39577500
L22085000 39577500
" />
<path d="M27225000 36917500
L22085000 36917500
" />
<path d="M29825000 36917500
L29825000 38247500
" />
<path d="M22085000 36917500
L22085000 39577500
" />
<path d="M28495000 36917500
L29825000 36917500
" />
<path d="M27225000 36917500
L27225000 39577500
" />
<path d="M24935000 8172500
L24935000 6672500
" />
<path d="M17935000 6672500
L17935000 8172500
" />
<path d="M19185000 10672500
L23685000 10672500
" />
<path d="M23685000 4172500
L19185000 4172500
" />
<path d="M14745000 18832500
L14745000 20832500
" />
<path d="M14745000 20832500
L11945000 20832500
" />
<path d="M11945000 18832500
L14745000 18832500
" />
<path d="M11945000 20832500
L11945000 18832500
" />
<g >
</g>
<g >
</g>
<g >
</g>
<g >
</g>
<g >
</g>
<g >
</g>
<g >
</g>
<g >
</g>
<g >
</g>
<g >
</g>
<g >
</g>
<g >
</g>
<g >
</g>
<g >
</g>
<g >
</g>
<g >
</g>
<g >
</g>
<g >
</g>
<g >
</g>
<g >
</g>
<g >
</g>
<g >
</g>
<g >
</g>
<g >
</g>
<g >
</g>
<g >
</g>
<g >
</g>
<g >
</g>
<g >
</g>
<g >
</g>
<g >
</g>
<g >
</g>
<g >
</g>
<g >
</g>
</g>
<g style="fill:#000000; fill-opacity:0.0; 
stroke:#000000; stroke-width:120000.000000; stroke-opacity:1; 
stroke-linecap:round; stroke-linejoin:round;">
</g>
<g style="fill:#D0D2CD; fill-opacity:0.0; 
stroke:#D0D2CD; stroke-width:120000.000000; stroke-opacity:1; 
stroke-linecap:round; stroke-linejoin:round;">
</g>
<g style="fill:#D0D2CD; fill-opacity:0.0; 
stroke:#D0D2CD; stroke-width:100000.000000; stroke-opacity:1; 
stroke-linecap:round; stroke-linejoin:round;">
<path d="M555000 3957500
L36115000 3957500
" />
<path d="M36115000 3957500
L36115000 39517500
" />
<path d="M36115000 39517500
L555000 39517500
" />
<path d="M555000 39517500
L555000 3957500
" />
<g >
</g>
<g >
</g>
<g >
</g>
<g >
</g>
<g >
</g>
<g >
</g>
<g >
</g>
<g >
</g>
<g >
</g>
<g >
</g>
<g >
</g>
<g >
</g>
<g >
</g>
<g >
</g>
<g >
</g>
<g >
</g>
<g >
</g>
<g >
</g>
<g >
</g>
<g >
</g>
<g >
</g>
<g >
</g>
<g >
</g>
<g >
</g>
<g >
</g>
<g >
</g>
<g >
</g>
<g >
</g>
<g >
</g>
<g >
</g>
<g >
</g>
<g >
</g>
<g >
</g>
<g >
</g>
</g> 
</svg>
