<?xml version="1.0" encoding="UTF-8"?>
<svg id="Layer_1" data-name="Layer 1" xmlns="http://www.w3.org/2000/svg" width="12.907mm" height="7.476mm" viewBox="0 0 36.588 21.192">
  <path d="M0,3.715C0,1.602,1.676,0,3.863,0s3.863,1.602,3.863,3.715c0,2.095-1.676,3.689-3.868,3.689S0,5.81,0,3.715Zm5.837-.013c0-1.087-.856-1.925-1.973-1.925s-1.973,.838-1.973,1.925,.856,1.916,1.973,1.916,1.973-.834,1.973-1.916Z" style="fill: #3d3d3d;"/>
  <path d="M8.646,.188h2.659c1.449,0,2.658,1.091,2.658,2.466,0,1.358-1.183,2.497-2.658,2.497h-.79v2.074h-1.868V.188Zm3.514,2.475c0-.428-.358-.751-.856-.751h-.79v1.515l.79,.004c.502,.004,.856-.336,.856-.768Z" style="fill: #3d3d3d;"/>
  <path d="M16.606,1.925v.982h2.235v1.558h-2.235v1.008h2.715v1.751h-4.562V.188h4.562V1.925h-2.715Z" style="fill: #3d3d3d;"/>
  <path d="M26.443,.179V7.295h-.594l-3.619-3.505v3.44h-1.868V.118h.602l3.606,3.492V.179h1.873Z" style="fill: #3d3d3d;"/>
  <path d="M7.264,8.025v7.19h-1.104v-3.903l-2.336,3.785h-.009l-2.34-3.789v3.907H.371v-7.19h.083l3.366,5.116,3.361-5.116h.083Z" style="fill: #3d3d3d;"/>
  <path d="M8.554,12.547v-4.37h1.109v4.365c0,.973,.685,1.685,1.545,1.685s1.554-.712,1.554-1.685v-4.365h1.113v4.37c0,1.615-1.166,2.798-2.663,2.798s-2.659-1.183-2.659-2.798Z" style="fill: #3d3d3d;"/>
  <path d="M14.755,13.979l.873-.624c.314,.55,.899,.864,1.576,.864,.79,0,1.388-.38,1.388-.917,0-.65-.926-1.043-1.746-1.397-.825-.367-1.742-.794-1.742-1.899,0-1.152,1-1.956,2.266-1.956,1.004,0,1.755,.485,2.043,1.257l-.821,.568c-.218-.476-.703-.742-1.214-.742-.646,0-1.161,.402-1.161,.899,0,.55,.65,.746,1.506,1.113,1.113,.489,1.977,1.026,1.977,2.135,0,1.249-1.083,2.052-2.51,2.052-1.157,0-2.034-.541-2.436-1.353Z" style="fill: #3d3d3d;"/>
  <path d="M20.314,11.701c0-1.982,1.655-3.645,3.632-3.645,.912,.013,1.755,.402,2.445,1.074l-.642,.869c-.493-.493-1.135-.821-1.825-.821-1.275,0-2.493,1.118-2.493,2.528,0,1.419,1.235,2.514,2.497,2.514,.72,0,1.34-.358,1.825-.838l.637,.89c-.607,.598-1.379,1.056-2.427,1.056-1.995,0-3.649-1.641-3.649-3.627Z" style="fill: #3d3d3d;"/>
  <path d="M31.513,14.115v1.1h-4.243v-7.037h1.104v5.937h3.139Z" style="fill: #3d3d3d;"/>
  <path d="M33.501,9.265v1.803h2.663v1.1h-2.663v1.947h3.086v1.1h-4.191v-7.037h4.191v1.087h-3.086Z" style="fill: #3d3d3d;"/>
  <g>
    <path d="M32.108,17.503c-.529,0-.878,.518-.878,1.248s.349,1.244,.878,1.244,.878-.516,.878-1.244-.351-1.248-.878-1.248Z" style="fill: #3d3d3d;"/>
    <path d="M8.313,17.548h-.551v1.142h.551c.329,.002,.605-.264,.605-.577,0-.325-.28-.566-.605-.566Z" style="fill: #3d3d3d;"/>
    <path d="M15.759,17.496c-.689,0-1.251,.564-1.251,1.255,0,.687,.561,1.248,1.251,1.248s1.255-.561,1.255-1.248c0-.691-.566-1.255-1.255-1.255Z" style="fill: #3d3d3d;"/>
    <path d="M.168,16.31v4.883H34.289v-4.883H.168Zm2.396,4.26h-.037l-1.606-3.565h.583l1.04,2.365,1.045-2.365h.587l-1.613,3.565Zm4.081-3.026h-1.532v.895h1.322v.546h-1.322v.967h1.532v.546h-2.081v-3.494h2.081v.54Zm2.49,2.954l-.941-1.352h-.429v1.352h-.548l-.002-3.494h1.086c.65,0,1.183,.501,1.183,1.123,0,.451-.29,.843-.691,.973l1.017,1.398h-.674Zm2.05,.059c-.574,0-1.01-.269-1.209-.672l.433-.31c.156,.273,.446,.429,.782,.429,.392,0,.689-.189,.689-.455,0-.323-.459-.518-.867-.694-.41-.182-.865-.394-.865-.943,0-.572,.496-.971,1.125-.971,.499,0,.871,.241,1.014,.624l-.407,.282c-.108-.236-.349-.368-.603-.368-.321,0-.577,.199-.577,.446,0,.273,.323,.371,.748,.553,.553,.243,.982,.509,.982,1.06,0,.62-.538,1.019-1.246,1.019Zm2.265-.059h-.548v-3.494h.548v3.494Zm2.308,.056c-.993,0-1.803-.811-1.803-1.799,0-.997,.811-1.812,1.805-1.812s1.808,.815,1.808,1.812c0,.988-.815,1.799-1.81,1.799Zm5.122,.004h-.026l-2.235-2.334v2.278h-.548v-3.559h.028l2.23,2.33v-2.278h.551v3.563Zm3.004-.03c-.514,0-1.006-.29-1.199-.737l.542-.171c.117,.217,.394,.362,.633,.362,.351,0,.735-.245,.735-.711,0-.41-.293-.678-.72-.678-.312,0-.633,.158-.765,.41l-.308-.184,.258-1.816h1.801v.546h-1.387l-.111,.72c.163-.15,.362-.206,.587-.206,.739,0,1.214,.516,1.214,1.209,0,.743-.574,1.257-1.281,1.257Zm2.068,.069c-.202,0-.368-.165-.368-.366s.167-.368,.368-.368c.199,0,.368,.169,.368,.368,0,.202-.167,.366-.368,.366Zm1.977-.067c-.566,0-1.069-.384-1.188-.865l.538-.137c.065,.264,.336,.459,.637,.459,.371,0,.637-.275,.637-.572,0-.425-.429-.694-1.032-.689l.087-.321c.405,0,.767-.195,.767-.525,0-.258-.21-.44-.468-.44-.217,0-.403,.152-.444,.364l-.561-.117c.095-.416,.49-.785,1.01-.785,.548,0,1.014,.397,1.014,.936,0,.353-.206,.607-.457,.709,.362,.13,.637,.427,.637,.906,0,.574-.516,1.075-1.177,1.075Zm1.966,.067c-.202,0-.368-.165-.368-.366s.167-.368,.368-.368c.199,0,.368,.169,.368,.368,0,.202-.167,.366-.368,.366Zm2.215-.05c-.85,0-1.426-.746-1.426-1.797s.577-1.799,1.426-1.799,1.426,.746,1.426,1.799-.577,1.797-1.426,1.797Z" style="fill: #3d3d3d;"/>
  </g>
</svg>