<?xml version="1.0" standalone="no"?>
 <!DOCTYPE svg PUBLIC "-//W3C//DTD SVG 1.1//EN" 
 "http://www.w3.org/Graphics/SVG/1.1/DTD/svg11.dtd"> 
<svg
  xmlns:svg="http://www.w3.org/2000/svg"
  xmlns="http://www.w3.org/2000/svg"
  xmlns:xlink="http://www.w3.org/1999/xlink"
  version="1.1"
  width="3.665220cm" height="4.157980cm" viewBox="0 0 36652200 41579800">
<title>SVG Picture created as OpenMuscle5-B_Silkscreen.svg date 2022/09/26 10:37:10 </title>
  <desc>Picture generated by PCBNEW </desc>
<g style="fill:#000000; fill-opacity:1.000000;stroke:#000000; stroke-opacity:1.000000;
stroke-linecap:round; stroke-linejoin:round;"
 transform="translate(0 0) scale(1 1)">
</g>
<g style="fill:#000000; fill-opacity:0.0; 
stroke:#000000; stroke-width:0.000000; stroke-opacity:1; 
stroke-linecap:round; stroke-linejoin:round;">
</g>
<g style="fill:#E8B2A7; fill-opacity:0.0; 
stroke:#E8B2A7; stroke-width:0.000000; stroke-opacity:1; 
stroke-linecap:round; stroke-linejoin:round;">
</g>
<g style="fill:#E8B2A7; fill-opacity:0.0; 
stroke:#E8B2A7; stroke-width:150000.000000; stroke-opacity:1; 
stroke-linecap:round; stroke-linejoin:round;">
<g transform="rotate(-90.000000 20490000.000000 29357500.000000)">
<text x="20490000.000000" y="29857500.000000"
transform="scale(-1 1) translate(-40980000.000000 0)"
textLength="1850000.000000" font-size="1333333.000000" lengthAdjust="spacingAndGlyphs"
text-anchor="middle" opacity="0">U2</text>
</g>
<g class="stroked-text"><desc>U2</desc>
<path d="M19942380 28595595
L20751904 28595595
L20847142 28643214
L20894761 28690833
L20942380 28786071
L20942380 28976547
L20894761 29071785
L20847142 29119404
L20751904 29167023
L19942380 29167023
" />
<path d="M20037619 29595595
L19990000 29643214
L19942380 29738452
L19942380 29976547
L19990000 30071785
L20037619 30119404
L20132857 30167023
L20228095 30167023
L20370952 30119404
L20942380 29547976
L20942380 30167023
" />
</g><text x="13165000.000000" y="28057500.000000"
transform="scale(-1 1) translate(-26330000.000000 0)"
textLength="2519286.000000" font-size="1333333.000000" lengthAdjust="spacingAndGlyphs"
text-anchor="middle" opacity="0">JP1</text>
<g class="stroked-text"><desc>JP1</desc>
<path d="M13998333 27009880
L13998333 27724166
L14045952 27867023
L14141190 27962261
L14284047 28009880
L14379285 28009880
" />
<path d="M13522142 28009880
L13522142 27009880
L13141190 27009880
L13045952 27057500
L12998333 27105119
L12950714 27200357
L12950714 27343214
L12998333 27438452
L13045952 27486071
L13141190 27533690
L13522142 27533690
" />
<path d="M11998333 28009880
L12569761 28009880
" />
<path d="M12284047 28009880
L12284047 27009880
L12379285 27152738
L12474523 27247976
L12569761 27295595
" />
</g><text x="13165000.000000" y="31232500.000000"
transform="scale(-1 1) translate(-26330000.000000 0)"
textLength="2519286.000000" font-size="1333333.000000" lengthAdjust="spacingAndGlyphs"
text-anchor="middle" opacity="0">JP2</text>
<g class="stroked-text"><desc>JP2</desc>
<path d="M13998333 30184880
L13998333 30899166
L14045952 31042023
L14141190 31137261
L14284047 31184880
L14379285 31184880
" />
<path d="M13522142 31184880
L13522142 30184880
L13141190 30184880
L13045952 30232500
L12998333 30280119
L12950714 30375357
L12950714 30518214
L12998333 30613452
L13045952 30661071
L13141190 30708690
L13522142 30708690
" />
<path d="M12569761 30280119
L12522142 30232500
L12426904 30184880
L12188809 30184880
L12093571 30232500
L12045952 30280119
L11998333 30375357
L11998333 30470595
L12045952 30613452
L12617380 31184880
L11998333 31184880
" />
</g><text x="13165000.000000" y="21707500.000000"
transform="scale(-1 1) translate(-26330000.000000 0)"
textLength="1614524.000000" font-size="1333333.000000" lengthAdjust="spacingAndGlyphs"
text-anchor="middle" opacity="0">A5</text>
<g class="stroked-text"><desc>A5</desc>
<path d="M13879285 21374166
L13403095 21374166
" />
<path d="M13974523 21659880
L13641190 20659880
L13307857 21659880
" />
<path d="M12498333 20659880
L12974523 20659880
L13022142 21136071
L12974523 21088452
L12879285 21040833
L12641190 21040833
L12545952 21088452
L12498333 21136071
L12450714 21231309
L12450714 21469404
L12498333 21564642
L12545952 21612261
L12641190 21659880
L12879285 21659880
L12974523 21612261
L13022142 21564642
" />
</g><text x="13165000.000000" y="18532500.000000"
transform="scale(-1 1) translate(-26330000.000000 0)"
textLength="1614524.000000" font-size="1333333.000000" lengthAdjust="spacingAndGlyphs"
text-anchor="middle" opacity="0">A4</text>
<g class="stroked-text"><desc>A4</desc>
<path d="M13879285 18199166
L13403095 18199166
" />
<path d="M13974523 18484880
L13641190 17484880
L13307857 18484880
" />
<path d="M12545952 17818214
L12545952 18484880
" />
<path d="M12784047 17437261
L13022142 18151547
L12403095 18151547
" />
</g><g transform="rotate(-90.000000 20490000.000000 14117500.000000)">
<text x="20490000.000000" y="14617500.000000"
transform="scale(-1 1) translate(-40980000.000000 0)"
textLength="1805000.000000" font-size="1333333.000000" lengthAdjust="spacingAndGlyphs"
text-anchor="middle" opacity="0">U1</text>
</g>
<g class="stroked-text"><desc>U1</desc>
<path d="M19942380 13355595
L20751904 13355595
L20847142 13403214
L20894761 13450833
L20942380 13546071
L20942380 13736547
L20894761 13831785
L20847142 13879404
L20751904 13927023
L19942380 13927023
" />
<path d="M20942380 14927023
L20942380 14355595
" />
<path d="M20942380 14641309
L19942380 14641309
L20085238 14546071
L20180476 14450833
L20228095 14355595
" />
</g><text x="13165000.000000" y="12182500.000000"
transform="scale(-1 1) translate(-26330000.000000 0)"
textLength="1614524.000000" font-size="1333333.000000" lengthAdjust="spacingAndGlyphs"
text-anchor="middle" opacity="0">A2</text>
<g class="stroked-text"><desc>A2</desc>
<path d="M13879285 11849166
L13403095 11849166
" />
<path d="M13974523 12134880
L13641190 11134880
L13307857 12134880
" />
<path d="M13022142 11230119
L12974523 11182500
L12879285 11134880
L12641190 11134880
L12545952 11182500
L12498333 11230119
L12450714 11325357
L12450714 11420595
L12498333 11563452
L13069761 12134880
L12450714 12134880
" />
</g><text x="13165000.000000" y="15357500.000000"
transform="scale(-1 1) translate(-26330000.000000 0)"
textLength="1614524.000000" font-size="1333333.000000" lengthAdjust="spacingAndGlyphs"
text-anchor="middle" opacity="0">A3</text>
<g class="stroked-text"><desc>A3</desc>
<path d="M13879285 15024166
L13403095 15024166
" />
<path d="M13974523 15309880
L13641190 14309880
L13307857 15309880
" />
<path d="M13069761 14309880
L12450714 14309880
L12784047 14690833
L12641190 14690833
L12545952 14738452
L12498333 14786071
L12450714 14881309
L12450714 15119404
L12498333 15214642
L12545952 15262261
L12641190 15309880
L12926904 15309880
L13022142 15262261
L13069761 15214642
" />
</g><text x="13165000.000000" y="24882500.000000"
transform="scale(-1 1) translate(-26330000.000000 0)"
textLength="1614524.000000" font-size="1333333.000000" lengthAdjust="spacingAndGlyphs"
text-anchor="middle" opacity="0">A6</text>
<g class="stroked-text"><desc>A6</desc>
<path d="M13879285 24549166
L13403095 24549166
" />
<path d="M13974523 24834880
L13641190 23834880
L13307857 24834880
" />
<path d="M12545952 23834880
L12736428 23834880
L12831666 23882500
L12879285 23930119
L12974523 24072976
L13022142 24263452
L13022142 24644404
L12974523 24739642
L12926904 24787261
L12831666 24834880
L12641190 24834880
L12545952 24787261
L12498333 24739642
L12450714 24644404
L12450714 24406309
L12498333 24311071
L12545952 24263452
L12641190 24215833
L12831666 24215833
L12926904 24263452
L12974523 24311071
L13022142 24406309
" />
</g><text x="13165000.000000" y="9007500.000000"
transform="scale(-1 1) translate(-26330000.000000 0)"
textLength="1614524.000000" font-size="1333333.000000" lengthAdjust="spacingAndGlyphs"
text-anchor="middle" opacity="0">A1</text>
<g class="stroked-text"><desc>A1</desc>
<path d="M13879285 8674166
L13403095 8674166
" />
<path d="M13974523 8959880
L13641190 7959880
L13307857 8959880
" />
<path d="M12450714 8959880
L13022142 8959880
" />
<path d="M12736428 8959880
L12736428 7959880
L12831666 8102738
L12926904 8197976
L13022142 8245595
" />
</g></g>
<g style="fill:#E8B2A7; fill-opacity:0.0; 
stroke:#E8B2A7; stroke-width:120000.000000; stroke-opacity:1; 
stroke-linecap:round; stroke-linejoin:round;">
<path d="M25900000 27557500
L25900000 31157500
" />
<path d="M25888477.631085 27519022.368915 A2600000.000000 2600000.000000 0.0 0 0 21450000.000000 29357500.000000" />
<path d="M21449999.000000 29357500.000000 A2600001.000000 2600001.000000 0.0 0 0 25888478.338192 31195978.338192" />
<path d="M14565000 28357500
L11765000 28357500
" />
<path d="M11765000 28357500
L11765000 30357500
" />
<path d="M11765000 30357500
L14565000 30357500
" />
<path d="M14565000 30357500
L14565000 28357500
" />
<path d="M11765000 33532500
L14565000 33532500
" />
<path d="M11765000 31532500
L11765000 33532500
" />
<path d="M14565000 33532500
L14565000 31532500
" />
<path d="M14565000 31532500
L11765000 31532500
" />
<path d="M11765000 24007500
L14565000 24007500
" />
<path d="M14565000 24007500
L14565000 22007500
" />
<path d="M11765000 22007500
L11765000 24007500
" />
<path d="M14565000 22007500
L11765000 22007500
" />
<path d="M14565000 18832500
L11765000 18832500
" />
<path d="M14565000 20832500
L14565000 18832500
" />
<path d="M11765000 20832500
L14565000 20832500
" />
<path d="M11765000 18832500
L11765000 20832500
" />
<path d="M25900000 12317500
L25900000 15917500
" />
<path d="M21449999.000000 14117500.000000 A2600001.000000 2600001.000000 0.0 0 0 25888478.338192 15955978.338192" />
<path d="M25888477.631085 12279022.368915 A2600000.000000 2600000.000000 0.0 0 0 21450000.000000 14117500.000000" />
<path d="M14565000 12482500
L11765000 12482500
" />
<path d="M11765000 12482500
L11765000 14482500
" />
<path d="M11765000 14482500
L14565000 14482500
" />
<path d="M14565000 14482500
L14565000 12482500
" />
<path d="M14565000 15657500
L11765000 15657500
" />
<path d="M14565000 17657500
L14565000 15657500
" />
<path d="M11765000 15657500
L11765000 17657500
" />
<path d="M11765000 17657500
L14565000 17657500
" />
<path d="M11765000 27182500
L14565000 27182500
" />
<path d="M11765000 25182500
L11765000 27182500
" />
<path d="M14565000 27182500
L14565000 25182500
" />
<path d="M14565000 25182500
L11765000 25182500
" />
<path d="M11765000 9307500
L11765000 11307500
" />
<path d="M14565000 11307500
L14565000 9307500
" />
<path d="M11765000 11307500
L14565000 11307500
" />
<path d="M14565000 9307500
L11765000 9307500
" />
<g >
</g>
<g >
</g>
<g >
</g>
<g >
</g>
<g >
</g>
<g >
</g>
<g >
</g>
<g >
</g>
<g >
</g>
<g >
</g>
<g >
</g>
<g >
</g>
<g >
</g>
<g >
</g>
<g >
</g>
<g >
</g>
<g >
</g>
<g >
</g>
<g >
</g>
<g >
</g>
<g >
</g>
<g >
</g>
<g >
</g>
<g >
</g>
<g >
</g>
<g >
</g>
<g >
</g>
<g >
</g>
<g >
</g>
<g >
</g>
<g >
</g>
<g >
</g>
<g >
</g>
<g >
</g>
</g>
<g style="fill:#000000; fill-opacity:0.0; 
stroke:#000000; stroke-width:120000.000000; stroke-opacity:1; 
stroke-linecap:round; stroke-linejoin:round;">
</g>
<g style="fill:#D0D2CD; fill-opacity:0.0; 
stroke:#D0D2CD; stroke-width:120000.000000; stroke-opacity:1; 
stroke-linecap:round; stroke-linejoin:round;">
</g>
<g style="fill:#D0D2CD; fill-opacity:0.0; 
stroke:#D0D2CD; stroke-width:100000.000000; stroke-opacity:1; 
stroke-linecap:round; stroke-linejoin:round;">
<path d="M555000 3957500
L36115000 3957500
" />
<path d="M36115000 3957500
L36115000 39517500
" />
<path d="M36115000 39517500
L555000 39517500
" />
<path d="M555000 39517500
L555000 3957500
" />
<g >
</g>
<g >
</g>
<g >
</g>
<g >
</g>
<g >
</g>
<g >
</g>
<g >
</g>
<g >
</g>
<g >
</g>
<g >
</g>
<g >
</g>
<g >
</g>
<g >
</g>
<g >
</g>
<g >
</g>
<g >
</g>
<g >
</g>
<g >
</g>
<g >
</g>
<g >
</g>
<g >
</g>
<g >
</g>
<g >
</g>
<g >
</g>
<g >
</g>
<g >
</g>
<g >
</g>
<g >
</g>
<g >
</g>
<g >
</g>
<g >
</g>
<g >
</g>
<g >
</g>
<g >
</g>
</g> 
</svg>
